<svg xmlns="http://www.w3.org/2000/svg" xmlns:xlink="http://www.w3.org/1999/xlink" width="1041.532" height="206.125" viewBox="0 0 1041.532 206.125"><defs><clipPath id="a"><rect width="1030" height="177.062" fill="none"/></clipPath></defs><g transform="translate(10816 1240)"><g transform="translate(-10816 -1210.937)"><g clip-path="url(#a)"><path d="M0,177.062V0H958.325C997.909,0,1030,37.387,1030,83.505v93.557Z" fill="#deebac"/></g></g><path d="M1058.129,145.937c2.128-1.352,3.548-3.547,4.835-5.655.673-1.1,1.288-2.243,1.988-3.327a8.6,8.6,0,0,1,1.467-1.79,9.581,9.581,0,0,0,.83-.723,1.453,1.453,0,0,1,.984.479,1.96,1.96,0,0,1,.1,1.8,10.875,10.875,0,0,1-1.737,3.688,14.355,14.355,0,0,1-3.081,2.88,14,14,0,0,1-1.662,1.059,6.512,6.512,0,0,0-1.56.877c-1.745,1.689,2.221,2.606,3.181,2.76a12.018,12.018,0,0,0,6.939-.682c3.817-1.749,6.345-5.77,8.221-9.356,1.118-2.135,2.124-4.314,3.4-6.361a21.856,21.856,0,0,1,2.05-2.923c.219-.248.564-.694.887-.447.288.22.18,1.248.177,1.586-.056,5.625-3.111,10.79-6.925,14.727a15.7,15.7,0,0,1-2.731,2.27c-.538.354-1.334.912-1.142,1.67.461,1.816,4.031,1.463,5.317,1.263,4.3-.667,9.212-2.753,11.235-6.832a24.674,24.674,0,0,0,1.931-8.217c.359-3.076.764-6.158.994-9.248a11.674,11.674,0,0,1,1.136-5.061c.3-.529.764-1.286,1.419-1.4.954-.171,1.5,1.011,1.77,1.746.881,2.426.341,5.14.023,7.619a48.34,48.34,0,0,1-4.62,16.117.785.785,0,0,0,.217,1.367c1.845.689,3.987-.26,5.707-.92a18.784,18.784,0,0,0,5.733-3.39c3.408-2.983,4.9-7.427,5.2-11.843.35-5.21-1.268-10.513-1.873-15.658a14.76,14.76,0,0,1-.186-4.808c.588-2.5,3.362,1.184,3.831,2.129a27.816,27.816,0,0,1,2.433,7.616,60.389,60.389,0,0,1,.48,8.421.383.383,0,0,0,.082.22c.13.812.9,1.049,1.687.41,1.61-1.3,2.085-3.708,2.491-5.614,1.009-4.736,1.4-9.857-.029-14.542a28.191,28.191,0,0,0-7.475-11.712,35.682,35.682,0,0,0-5.611-4.508,29.922,29.922,0,0,0-6.7-2.937,59.011,59.011,0,0,0-7.652-2.169c-1.934-.358-4.272-.663-6.17.1-1.332-.056-2.66-.088-3.976-.1-6.156-.077-12.934.781-17.865,4.8-1.675,1.364-3.6,3.39-4.164,5.527a1.936,1.936,0,0,0,.65,2.233c1.07.678,2.589.2,3.741.046a29.52,29.52,0,0,1,10.39.976,19.043,19.043,0,0,1,8.467,3.884,9.33,9.33,0,0,1,2.832,4.08c.665,2.344-1.79,2.84-3.542,2.319-1.885-.56-3.634-1.589-5.488-2.26-1.963-.71-3.972-1.252-5.98-1.819-6.317-1.785-13.432-1.976-19.091,1.866a12.984,12.984,0,0,0-4.816,5.695,3.32,3.32,0,0,0,.139,3.2c.844,1.155,2.331,1.124,3.571.716,1.865-.614,3.6-1.568,5.488-2.158a39.192,39.192,0,0,1,6.069-1.494,16.077,16.077,0,0,1,5.541.346,23.872,23.872,0,0,1,4.467,1.106c.479.194,3.428,2.064,2.463,2.415-.8.291-2.291-.337-3.107-.5a43.8,43.8,0,0,0-6.091-1.015,33.922,33.922,0,0,0-6.273.477,24.575,24.575,0,0,0-9.549,2.937,18.23,18.23,0,0,0-6.572,6.581c-.54.941-1.131,2.088-.616,3.151a.761.761,0,0,0,.865.338c1.383-.547,2.883-.625,4.291-1.084a31.606,31.606,0,0,1,5.287-1.472,6.923,6.923,0,0,1,5.55,1.553c.041,1.071-.943,1.751-1.944,2.037-2.1.6-4.318.59-6.423,1.249a11,11,0,0,0-5.106,3.21,19.774,19.774,0,0,0-2.078,3.043c-.631,1.069-1.653,2.6-1.495,3.9a.626.626,0,0,0,.03.107.186.186,0,0,0,.028.187,7.834,7.834,0,0,0,3.507,2.071c1.52.569,3.088,1.063,4.648,1.506C1052.389,147.052,1055.519,147.594,1058.129,145.937Zm28.629-44.9c-1.473-.57-5.333-3.029-3.925-5,1.426-1.994,5.426-.569,7.149.024,2.85.98,7.076,2.7,9.052,5.12,1.063,1.3.206,1.817-1.1,1.811a36.356,36.356,0,0,1-4.711-.317A28.384,28.384,0,0,1,1086.758,101.034Z" transform="translate(-8771.42 -1473.243) rotate(159)" fill="#4f9638"/></g></svg>