<svg xmlns="http://www.w3.org/2000/svg" width="1174.404" height="238.268" viewBox="0 0 1174.404 238.268"><g transform="translate(10547.57 5900.111)"><rect width="1030" height="133" rx="22" transform="translate(-10484 -5847.582)" fill="#d2e1f1"/><path d="M1062.562,161.729c2.69-1.709,4.485-4.484,6.112-7.148.851-1.393,1.628-2.835,2.513-4.206a10.868,10.868,0,0,1,1.854-2.263,12.1,12.1,0,0,0,1.049-.914,1.837,1.837,0,0,1,1.244.6,2.478,2.478,0,0,1,.126,2.273,13.744,13.744,0,0,1-2.2,4.662,18.145,18.145,0,0,1-3.895,3.641,17.687,17.687,0,0,1-2.1,1.338,8.229,8.229,0,0,0-1.972,1.108c-2.205,2.135,2.808,3.294,4.021,3.489a15.192,15.192,0,0,0,8.772-.862c4.824-2.211,8.02-7.294,10.393-11.827,1.413-2.7,2.685-5.453,4.3-8.041a27.625,27.625,0,0,1,2.591-3.695c.278-.314.713-.877,1.122-.565.365.278.228,1.578.223,2.005-.071,7.111-3.933,13.639-8.754,18.616a19.842,19.842,0,0,1-3.452,2.87c-.681.447-1.686,1.152-1.443,2.111.582,2.3,5.1,1.85,6.721,1.6,5.434-.843,11.644-3.48,14.2-8.637,1.6-3.224,2.028-6.857,2.441-10.387.454-3.889.966-7.785,1.256-11.69a14.757,14.757,0,0,1,1.437-6.4c.378-.668.966-1.625,1.793-1.774,1.206-.217,1.9,1.279,2.237,2.207,1.114,3.066.431,6.5.029,9.631a61.1,61.1,0,0,1-5.84,20.373.992.992,0,0,0,.274,1.728c2.333.871,5.04-.328,7.214-1.164a23.745,23.745,0,0,0,7.247-4.285c4.308-3.77,6.2-9.388,6.575-14.971.443-6.586-1.6-13.29-2.368-19.793-.222-1.886-.678-4.189-.235-6.078.744-3.164,4.25,1.5,4.843,2.692a35.159,35.159,0,0,1,3.075,9.627,76.325,76.325,0,0,1,.607,10.645.484.484,0,0,0,.1.278c.164,1.026,1.135,1.326,2.133.518,2.035-1.649,2.635-4.687,3.148-7.1,1.275-5.987,1.773-12.46-.037-18.383a35.635,35.635,0,0,0-9.449-14.805,45.1,45.1,0,0,0-7.093-5.7,37.82,37.82,0,0,0-8.47-3.713,74.6,74.6,0,0,0-9.673-2.741c-2.444-.453-5.4-.838-7.8.121-1.684-.071-3.363-.112-5.026-.132-7.781-.1-16.35.987-22.583,6.062-2.117,1.724-4.549,4.285-5.264,6.987a2.448,2.448,0,0,0,.822,2.822c1.353.858,3.273.247,4.729.058,4.357-.569,8.89.239,13.134,1.233,3.817.9,7.732,2.256,10.7,4.909a11.8,11.8,0,0,1,3.58,5.157c.841,2.964-2.263,3.59-4.477,2.932-2.382-.708-4.594-2.009-6.937-2.856-2.482-.9-5.021-1.582-7.559-2.3-7.985-2.256-16.98-2.5-24.133,2.359a16.414,16.414,0,0,0-6.088,7.2,4.2,4.2,0,0,0,.176,4.041c1.068,1.46,2.947,1.421,4.514.905,2.357-.776,4.552-1.982,6.937-2.728a49.545,49.545,0,0,1,7.672-1.889,20.323,20.323,0,0,1,7,.438,30.179,30.179,0,0,1,5.647,1.4c.6.245,4.334,2.609,3.114,3.053-1.011.368-2.9-.427-3.927-.63a55.359,55.359,0,0,0-7.7-1.283,42.878,42.878,0,0,0-7.93.6,31.065,31.065,0,0,0-12.071,3.713,23.045,23.045,0,0,0-8.308,8.32c-.683,1.189-1.43,2.64-.779,3.984a.962.962,0,0,0,1.094.428c1.748-.692,3.644-.79,5.424-1.37a39.955,39.955,0,0,1,6.683-1.861,8.751,8.751,0,0,1,7.016,1.964c.052,1.354-1.192,2.213-2.458,2.575-2.653.761-5.459.746-8.12,1.579a13.907,13.907,0,0,0-6.454,4.058,24.989,24.989,0,0,0-2.627,3.846c-.8,1.351-2.09,3.289-1.889,4.926a.772.772,0,0,0,.037.135.235.235,0,0,0,.035.237c1.057,1.343,2.877,2.035,4.433,2.618,1.921.719,3.9,1.344,5.875,1.9C1055.306,163.139,1059.263,163.824,1062.562,161.729Zm36.19-56.762c-1.862-.72-6.741-3.829-4.961-6.318,1.8-2.52,6.859-.719,9.037.03,3.6,1.239,8.945,3.413,11.442,6.472,1.343,1.644.261,2.3-1.394,2.29a45.957,45.957,0,0,1-5.955-.4A35.885,35.885,0,0,1,1098.751,104.968Z" transform="translate(-8489.668 -5283.658) rotate(-156)" fill="#4f9638"/><path d="M1061.526,158.039c2.559-1.625,4.266-4.265,5.814-6.8.809-1.325,1.549-2.7,2.391-4a10.336,10.336,0,0,1,1.764-2.152,11.535,11.535,0,0,0,1-.869,1.747,1.747,0,0,1,1.183.575,2.357,2.357,0,0,1,.12,2.162,13.067,13.067,0,0,1-2.089,4.434,17.254,17.254,0,0,1-3.7,3.463,16.833,16.833,0,0,1-2,1.273,7.826,7.826,0,0,0-1.875,1.054c-2.1,2.031,2.671,3.133,3.825,3.319a14.45,14.45,0,0,0,8.344-.82c4.589-2.1,7.629-6.938,9.885-11.25,1.344-2.567,2.554-5.187,4.094-7.648a26.283,26.283,0,0,1,2.465-3.514c.264-.3.678-.834,1.067-.538.347.264.217,1.5.213,1.908-.068,6.764-3.741,12.973-8.327,17.707a18.88,18.88,0,0,1-3.284,2.73c-.647.425-1.6,1.1-1.373,2.008.554,2.183,4.846,1.759,6.393,1.519,5.169-.8,11.076-3.31,13.509-8.215,1.522-3.067,1.929-6.522,2.322-9.88.432-3.7.919-7.4,1.195-11.12a14.035,14.035,0,0,1,1.366-6.085c.36-.635.919-1.546,1.706-1.687,1.147-.206,1.807,1.216,2.128,2.1,1.059,2.917.41,6.18.028,9.161a58.118,58.118,0,0,1-5.555,19.379.944.944,0,0,0,.261,1.643c2.219.829,4.794-.312,6.861-1.107a22.585,22.585,0,0,0,6.894-4.076c4.1-3.586,5.9-8.93,6.254-14.24.421-6.265-1.524-12.641-2.252-18.827-.212-1.794-.645-3.985-.223-5.782.707-3.01,4.042,1.423,4.606,2.56a33.447,33.447,0,0,1,2.925,9.157,72.589,72.589,0,0,1,.577,10.126.461.461,0,0,0,.1.264c.156.976,1.08,1.261,2.029.493,1.935-1.568,2.506-4.458,2.995-6.75,1.213-5.695,1.686-11.852-.035-17.485a33.9,33.9,0,0,0-8.988-14.082,42.9,42.9,0,0,0-6.747-5.42,35.973,35.973,0,0,0-8.056-3.532,70.954,70.954,0,0,0-9.2-2.607c-2.325-.43-5.136-.8-7.418.115-1.6-.068-3.2-.106-4.781-.126-7.4-.092-15.552.939-21.48,5.766-2.014,1.64-4.327,4.076-5.007,6.646a2.328,2.328,0,0,0,.782,2.685c1.287.816,3.113.235,4.5.055,4.144-.541,8.456.228,12.492,1.173,3.63.852,7.354,2.146,10.18,4.669a11.22,11.22,0,0,1,3.405,4.906c.8,2.819-2.152,3.415-4.259,2.789-2.266-.673-4.37-1.911-6.6-2.717-2.36-.853-4.776-1.5-7.19-2.187-7.6-2.146-16.151-2.376-22.954,2.243a15.612,15.612,0,0,0-5.791,6.847,3.992,3.992,0,0,0,.167,3.844c1.015,1.389,2.8,1.351,4.294.861,2.242-.739,4.33-1.885,6.6-2.594a47.122,47.122,0,0,1,7.3-1.8,19.33,19.33,0,0,1,6.663.416,28.7,28.7,0,0,1,5.372,1.33c.575.233,4.122,2.482,2.961,2.9-.962.35-2.754-.406-3.735-.6a52.651,52.651,0,0,0-7.324-1.221,40.787,40.787,0,0,0-7.543.573,29.549,29.549,0,0,0-11.481,3.532,21.921,21.921,0,0,0-7.9,7.913c-.649,1.131-1.36,2.511-.741,3.789a.915.915,0,0,0,1.04.407c1.663-.658,3.466-.751,5.159-1.3a38.009,38.009,0,0,1,6.357-1.77,8.324,8.324,0,0,1,6.673,1.868c.049,1.288-1.133,2.1-2.338,2.45-2.524.723-5.192.71-7.723,1.5a13.228,13.228,0,0,0-6.139,3.86,23.767,23.767,0,0,0-2.5,3.658c-.759,1.285-1.988,3.128-1.8,4.686a.732.732,0,0,0,.036.129.223.223,0,0,0,.033.225,9.42,9.42,0,0,0,4.216,2.49c1.827.684,3.713,1.278,5.588,1.811C1054.624,159.379,1058.388,160.031,1061.526,158.039Zm34.423-53.99c-1.771-.685-6.412-3.642-4.719-6.009,1.714-2.4,6.524-.684,8.6.029,3.426,1.179,8.508,3.246,10.884,6.156,1.277,1.564.248,2.184-1.326,2.178a43.713,43.713,0,0,1-5.664-.381A34.128,34.128,0,0,1,1095.948,104.048Z" transform="matrix(0.866, 0.5, -0.5, 0.866, -11368.001, -6370.954)" fill="#4f9638"/></g></svg>