<svg xmlns="http://www.w3.org/2000/svg" width="748.767" height="193.729" viewBox="0 0 748.767 193.729"><g transform="translate(5492.767 10058.729)"><rect width="735" height="184" transform="translate(-5479 -10049)" fill="#ffe8e1"/><g transform="translate(-5492.767 -10058.729)"><g transform="translate(7.971 0)"><path d="M990.584,254.042a1.042,1.042,0,0,0,.143.989.579.579,0,0,0,.183.156,39.824,39.824,0,0,0,11.6,2.374c3.2.287,6.983.888,10.056-.346.868-.349,1.951-.968,1.972-2.033.017-.978-.748-1.5-1.6-1.715a20.5,20.5,0,0,0-3.5-.4c-1.662-.116-3.316-.269-4.983-.323-2.382-.077-4.771-.211-7.154-.242a18.443,18.443,0,0,0-5.909.707A2.081,2.081,0,0,0,990.584,254.042Z" transform="translate(-990.513 -223.257)" fill="#4f9638"/><path d="M995.884,238.6a18.437,18.437,0,0,0-2.945,7.115,29.909,29.909,0,0,0-.122,10.762.626.626,0,0,0,.047.126,21.917,21.917,0,0,0,5.442-7.643c.034-.078.061-.157.094-.237.2-.65.373-1.3.534-1.938a27.5,27.5,0,0,0,.8-5.406,15.568,15.568,0,0,0,.005-2.613c-.129-.891-.575-1.931-1.645-1.876C997.151,236.94,996.382,237.885,995.884,238.6Z" transform="translate(-989.865 -228.655)" fill="#4f9638"/><path d="M999.607,246.656a.65.65,0,0,0,.572.393c5.166.327,10.319,1.108,15.5,1.206,2.646.051,7.493.172,8.73-2.827a.691.691,0,0,0-.316-.778c-2.8-1.649-6.609-1.038-9.683-.842C1012.52,243.928,1002.464,245.4,999.607,246.656Z" transform="translate(-987.369 -226.357)" fill="#4f9638"/><path d="M1025.481,234.217a69.007,69.007,0,0,0-7.1,2.216c-1.969.649-3.99,1.161-5.9,1.977-1.41.6-3.866,1.682-3.943,3.51a.478.478,0,0,0,.054.221,3.663,3.663,0,0,0,1.891.31,32.651,32.651,0,0,0,7.959-1.266c1.277-.406,2.542-.836,3.792-1.217,1.015-.31,2.04-.591,3.054-.9a13.073,13.073,0,0,1,1.32-.439c.323-.114.647-.229.965-.361,1.533-.631,3.459-1.612,4.23-3.177a.341.341,0,0,0-.1-.459C1029.783,233.443,1027.6,233.765,1025.481,234.217Z" transform="translate(-984.282 -229.72)" fill="#4f9638"/><path d="M1005.684,232.908c-2.058,2.653-2.444,6.937-3,9.914a11.273,11.273,0,0,0,.008,4.721.422.422,0,0,0,.1-.016,6.051,6.051,0,0,0,2.2-2.176,38.558,38.558,0,0,0,4-6.567c.506-1.085,2.895-9.178-.645-7.871A5.944,5.944,0,0,0,1005.684,232.908Z" transform="translate(-986.389 -230.77)" fill="#4f9638"/></g><g transform="translate(0 4.493)"><path d="M986.014,271.961c1.608-4.1,4.971-7.31,7.85-10.533a91.149,91.149,0,0,1,10.377-9.566c3.881-3.184,7.964-6.034,12.027-8.984,1.844-1.338,3.055-2.588,4.818-4.032,1.309-1.073,5.243-3.184,4.176-4.594-.9-1.192-8.43,5.452-10.44,6.892-4.258,3.049-8.392,6.293-12.39,9.675a97.805,97.805,0,0,0-10.751,10.267c-2.791,3.208-5.619,6.417-7.045,10.5-.307.88,1.05,1.221,1.38.381Z" transform="translate(-984.59 -234.109)" fill="#add031"/></g></g></g></svg>