<svg xmlns="http://www.w3.org/2000/svg" width="630.001" height="298.099" viewBox="0 0 630.001 298.099"><g transform="translate(10518.001 2616.099)"><g transform="translate(-10524.891 -2802.488)"><g transform="translate(6.89 367.886)"><path d="M617.395,377.834q-2.887,4.434-5.775,8.858c-.664-2.693-1.328-5.4-1.991-8.09a18.341,18.341,0,0,0-2.066,8.129,41.409,41.409,0,0,0-6.14-13.681,33.6,33.6,0,0,1,1.352,15.353q-1-4.1-2-8.207-1.892,3.938-3.775,7.866a19.489,19.489,0,0,1-.929-8.771,22.023,22.023,0,0,0-4.149,7.681c-.631-2.878-1.261-5.766-1.892-8.644a21.864,21.864,0,0,0-2.472,10.394,60.388,60.388,0,0,0-5.675-12.981q-.311,6.972-.614,13.943a26.137,26.137,0,0,1-3.51-8.547,23.124,23.124,0,0,0-3.576,9.821q-2.091-6.155-4.173-12.3a26.27,26.27,0,0,0-3,11.96,37.279,37.279,0,0,1-4.92-14.41,68.461,68.461,0,0,0,.2,14.041l-5.4-6.126-.158,6.826c-.788-3.452-1.643-9.325-1.883-11.765q-2.887,4.434-5.775,8.858c-.664-2.693-1.327-5.4-1.991-8.09a18.342,18.342,0,0,0-2.066,8.129,41.407,41.407,0,0,0-6.14-13.681,33.6,33.6,0,0,1,1.353,15.353q-1-4.1-2-8.207-1.892,3.938-3.775,7.866a19.49,19.49,0,0,1-.929-8.77,22.021,22.021,0,0,0-4.148,7.681c-.631-2.878-1.261-5.766-1.892-8.644a21.865,21.865,0,0,0-2.473,10.394,60.394,60.394,0,0,0-5.675-12.981q-.311,6.972-.614,13.943a26.139,26.139,0,0,1-3.51-8.547,23.157,23.157,0,0,0-3.5,9.334h-.241q-2-5.907-4.008-11.8a26.273,26.273,0,0,0-3,11.95h-.008a37.028,37.028,0,0,1-4.9-14.391,68.459,68.459,0,0,0,.2,14.041c-1.162-1.322-2.323-2.635-3.493-3.957a45.642,45.642,0,0,1,.166-9.821q-2.887,4.434-5.775,8.858c-.664-2.693-1.328-5.4-1.991-8.09a18.34,18.34,0,0,0-2.066,8.129,41.41,41.41,0,0,0-6.14-13.681,33.6,33.6,0,0,1,1.352,15.353q-1-4.1-2-8.207-1.892,3.938-3.775,7.866a19.488,19.488,0,0,1-.929-8.77,22.023,22.023,0,0,0-4.149,7.681l-1.892-8.644a21.866,21.866,0,0,0-2.473,10.394,60.383,60.383,0,0,0-5.675-12.981q-.311,6.972-.614,13.943a26.139,26.139,0,0,1-3.51-8.547,23.124,23.124,0,0,0-3.576,9.821q-2.091-6.155-4.173-12.3a26.269,26.269,0,0,0-3,11.96,37.278,37.278,0,0,1-4.92-14.41,68.452,68.452,0,0,0,.2,14.04l-5.4-6.126-.158,6.826c-.788-3.452-1.643-9.325-1.883-11.765q-2.887,4.434-5.775,8.858c-.664-2.693-1.327-5.4-1.991-8.09a18.34,18.34,0,0,0-2.066,8.129,41.411,41.411,0,0,0-6.14-13.681,33.6,33.6,0,0,1,1.352,15.353q-1-4.1-2-8.207-1.892,3.938-3.775,7.866a19.49,19.49,0,0,1-.929-8.77,22.023,22.023,0,0,0-4.149,7.681c-.631-2.878-1.261-5.766-1.892-8.644a21.865,21.865,0,0,0-2.473,10.394A60.387,60.387,0,0,0,398.35,377.1q-.311,6.972-.614,13.943a26.137,26.137,0,0,1-3.51-8.547,23.156,23.156,0,0,0-3.5,9.334h-.241q-2-5.907-4.008-11.8a26.272,26.272,0,0,0-3,11.95h-.008a37.177,37.177,0,0,1-4.912-14.391,68.457,68.457,0,0,0,.2,14.041c-1.054-1.2-2.107-2.382-3.153-3.578a46.179,46.179,0,0,1,.124-10.2q-2.887,4.434-5.775,8.858c-.664-2.693-1.328-5.4-1.991-8.09a18.341,18.341,0,0,0-2.066,8.129,41.412,41.412,0,0,0-6.14-13.681,33.6,33.6,0,0,1,1.352,15.353q-1-4.1-2-8.207-1.892,3.938-3.775,7.866a19.489,19.489,0,0,1-.929-8.77,22.022,22.022,0,0,0-4.149,7.681c-.631-2.878-1.261-5.766-1.892-8.644a21.865,21.865,0,0,0-2.473,10.394,60.386,60.386,0,0,0-5.675-12.981q-.311,6.972-.614,13.943a26.138,26.138,0,0,1-3.51-8.547,23.124,23.124,0,0,0-3.576,9.821q-2.091-6.155-4.173-12.3a26.27,26.27,0,0,0-3,11.96,37.278,37.278,0,0,1-4.92-14.41,68.452,68.452,0,0,0,.2,14.041l-5.4-6.126-.158,6.826c-.788-3.452-1.643-9.325-1.883-11.765q-2.887,4.434-5.775,8.858c-.664-2.693-1.328-5.4-1.991-8.09a18.34,18.34,0,0,0-2.066,8.129,41.411,41.411,0,0,0-6.14-13.681,33.6,33.6,0,0,1,1.352,15.353q-1-4.1-2-8.207-1.892,3.938-3.775,7.866a19.489,19.489,0,0,1-.929-8.77,22.021,22.021,0,0,0-4.149,7.681c-.631-2.878-1.261-5.766-1.892-8.644a21.865,21.865,0,0,0-2.473,10.394,60.386,60.386,0,0,0-5.675-12.981q-.311,6.972-.614,13.943a26.138,26.138,0,0,1-3.51-8.547,23.155,23.155,0,0,0-3.5,9.334h-.241q-2-5.907-4.008-11.8a26.272,26.272,0,0,0-3,11.95h-.008a37.03,37.03,0,0,1-4.9-14.391,68.459,68.459,0,0,0,.2,14.041c-.888-1-1.767-2-2.655-3.014a46.077,46.077,0,0,1,.066-10.764q-2.887,4.434-5.775,8.858c-.664-2.693-1.328-5.4-1.991-8.09a18.34,18.34,0,0,0-2.066,8.129,41.41,41.41,0,0,0-6.14-13.681,33.6,33.6,0,0,1,1.352,15.353q-1-4.1-2-8.207-1.892,3.938-3.775,7.866a19.489,19.489,0,0,1-.929-8.771A22.022,22.022,0,0,0,230.009,387l-1.892-8.644a21.865,21.865,0,0,0-2.473,10.394,60.385,60.385,0,0,0-5.675-12.981q-.311,6.972-.614,13.943a26.138,26.138,0,0,1-3.51-8.547,23.124,23.124,0,0,0-3.576,9.821q-2.091-6.155-4.173-12.3a26.27,26.27,0,0,0-3,11.96,37.278,37.278,0,0,1-4.92-14.41,68.455,68.455,0,0,0,.2,14.041l-5.4-6.126-.158,6.826c-.788-3.452-1.643-9.325-1.883-11.765q-2.887,4.434-5.775,8.858c-.664-2.693-1.328-5.4-1.991-8.09a18.341,18.341,0,0,0-2.066,8.129,41.411,41.411,0,0,0-6.14-13.681,33.6,33.6,0,0,1,1.352,15.353q-1-4.1-2-8.207-1.892,3.938-3.775,7.866a19.489,19.489,0,0,1-.929-8.77,22.022,22.022,0,0,0-4.149,7.681c-.631-2.878-1.261-5.766-1.892-8.644a21.865,21.865,0,0,0-2.473,10.394,60.389,60.389,0,0,0-5.675-12.981q-.311,6.972-.614,13.943a26.137,26.137,0,0,1-3.51-8.547,23.155,23.155,0,0,0-3.5,9.334h-.241q-2-5.907-4.008-11.8a26.273,26.273,0,0,0-3,11.95h-.008a37.029,37.029,0,0,1-4.9-14.391,68.456,68.456,0,0,0,.2,14.041c-1.162-1.322-2.323-2.635-3.493-3.957a45.642,45.642,0,0,1,.166-9.821q-2.887,4.434-5.775,8.858c-.664-2.693-1.328-5.4-1.991-8.09a18.34,18.34,0,0,0-2.066,8.129,41.411,41.411,0,0,0-6.14-13.681,33.6,33.6,0,0,1,1.352,15.353q-1-4.1-2-8.207-1.892,3.938-3.775,7.866a19.489,19.489,0,0,1-.929-8.77,22.022,22.022,0,0,0-4.149,7.681c-.631-2.878-1.261-5.766-1.892-8.644a21.865,21.865,0,0,0-2.473,10.394,60.387,60.387,0,0,0-5.675-12.981q-.311,6.972-.614,13.943a26.138,26.138,0,0,1-3.51-8.547A23.124,23.124,0,0,0,91.289,391q-2.091-6.155-4.173-12.3a26.271,26.271,0,0,0-3,11.96,37.278,37.278,0,0,1-4.92-14.41,68.457,68.457,0,0,0,.2,14.041l-5.4-6.126-.158,6.826c-.788-3.452-1.643-9.325-1.883-11.765q-2.887,4.434-5.775,8.858c-.664-2.693-1.328-5.4-1.991-8.09a18.34,18.34,0,0,0-2.066,8.129,41.411,41.411,0,0,0-6.14-13.681,33.6,33.6,0,0,1,1.352,15.353q-1-4.1-2-8.207-1.892,3.938-3.775,7.866a19.489,19.489,0,0,1-.929-8.77,22.023,22.023,0,0,0-4.149,7.681c-.631-2.878-1.261-5.766-1.892-8.644a21.865,21.865,0,0,0-2.473,10.394,60.387,60.387,0,0,0-5.675-12.981q-.311,6.972-.614,13.943a26.138,26.138,0,0,1-3.51-8.547,23.155,23.155,0,0,0-3.5,9.334H28.57q-2-5.907-4.008-11.8a26.273,26.273,0,0,0-3,11.95h-.008a37.03,37.03,0,0,1-4.9-14.391,68.456,68.456,0,0,0,.2,14.04l-5.4-6.126,1.162,6.641-5.717.185v97.292H617.743V390.133a45.21,45.21,0,0,1-.149-12.251Z" transform="translate(-6.89 -373.05)" fill="#e0e8ef"/><path d="M413.654,460.651s-.087-.243-.224-.72c-.136-.506-.34-1.206-.593-2.129-.515-1.9-1.254-4.648-2.207-8.177l.2.049c-2.382,2.684-5.338,6.009-8.751,9.85l-.156.185-.117-.214a21.054,21.054,0,0,1-2.479-9.13l.321.146a20.063,20.063,0,0,0-6.622,10.949l-.175.807-.243-.788a72.994,72.994,0,0,0-11.055-21.761l.438-.126a113.7,113.7,0,0,1-4.152,21.965l-.194.671-.272-.642c-.156-.36-.321-.749-.486-1.138a42.667,42.667,0,0,1-3.014-11.824l.418.165a34.683,34.683,0,0,0-8.216,10.89l-.3.632-.156-.69q-.992-4.492-1.935-8.761l.438.058c-1.478,2.752-2.9,5.416-4.288,7.993l-.282.535-.136-.583q-1.882-8.313-3.491-15.46l.35.068a33.051,33.051,0,0,0-5.912,16.432l-.029.321-.224-.233c-2.936-3.014-5.319-5.455-7.224-7.4l.165-.087c.4,2.334.72,4.162.934,5.416.1.6.175,1.07.233,1.41.049.321.058.486.058.486a4.454,4.454,0,0,1-.107-.476c-.068-.331-.156-.8-.282-1.4-.243-1.254-.583-3.073-1.031-5.4l-.058-.311.224.224c1.925,1.935,4.327,4.346,7.293,7.331l-.253.087a33.2,33.2,0,0,1,5.873-16.637l.253-.36.1.438c1.089,4.755,2.275,9.918,3.549,15.45l-.418-.058q2.071-3.88,4.269-8l.3-.564.136.622q.948,4.273,1.945,8.761l-.457-.049a35.117,35.117,0,0,1,8.323-11.055l.36-.321.049.486a42.405,42.405,0,0,0,2.985,11.678c.165.389.331.768.486,1.118l-.477.029a114.87,114.87,0,0,0,4.142-21.858l.058-.642.379.515a72.93,72.93,0,0,1,11.075,21.926l-.418.019a20.516,20.516,0,0,1,6.8-11.153l.3-.253v.4a21.066,21.066,0,0,0,2.4,8.984l-.272-.029c3.442-3.812,6.417-7.117,8.819-9.782l.146-.165.058.214c.9,3.539,1.614,6.31,2.1,8.206.233.924.408,1.643.535,2.149.117.486.165.739.165.739Z" transform="translate(-69.353 -374.872)" fill="#263238"/><path d="M630.954,430.172s-.088-.243-.224-.72c-.136-.506-.34-1.206-.593-2.129-.515-1.9-1.254-4.648-2.207-8.177l.2.049c-2.382,2.684-5.338,6.009-8.751,9.85l-.156.185-.117-.214a21.055,21.055,0,0,1-2.479-9.13l.321.146a20.062,20.062,0,0,0-6.622,10.948l-.175.807-.243-.788a72.992,72.992,0,0,0-11.055-21.761l.438-.126a113.7,113.7,0,0,1-4.152,21.965l-.194.671-.272-.642c-.156-.36-.321-.749-.486-1.138a42.666,42.666,0,0,1-3.014-11.824l.418.165a34.684,34.684,0,0,0-8.216,10.89l-.3.632-.156-.69q-.992-4.492-1.935-8.761l.438.058c-1.478,2.752-2.9,5.416-4.288,7.993l-.282.535-.136-.583q-1.882-8.313-3.491-15.46l.35.068a32.934,32.934,0,0,0-5.9,16.432l-.029.321-.224-.233c-2.936-3.014-5.319-5.455-7.224-7.4l.165-.088c.4,2.334.72,4.162.933,5.416.1.6.175,1.07.233,1.41.049.321.058.486.058.486a4.474,4.474,0,0,1-.107-.476c-.068-.331-.155-.8-.282-1.4-.243-1.254-.583-3.073-1.031-5.4l-.058-.311.224.224c1.925,1.935,4.327,4.346,7.292,7.331l-.253.088a33.2,33.2,0,0,1,5.873-16.637l.253-.36.1.438c1.089,4.755,2.275,9.918,3.549,15.45l-.418-.058q2.071-3.88,4.269-8l.3-.564.136.622q.948,4.273,1.945,8.761l-.457-.049a35.121,35.121,0,0,1,8.323-11.055l.36-.321.049.486a42.4,42.4,0,0,0,2.985,11.678c.165.389.331.768.486,1.118l-.476.029a114.874,114.874,0,0,0,4.142-21.858l.058-.642.379.515A72.927,72.927,0,0,1,610.3,430.872l-.418.019a20.453,20.453,0,0,1,6.8-11.143l.3-.253v.4a21.066,21.066,0,0,0,2.4,8.984l-.272-.029c3.442-3.812,6.417-7.118,8.819-9.782l.146-.165.058.214c.9,3.539,1.614,6.31,2.1,8.207.233.924.408,1.643.535,2.149.117.486.165.739.165.739Z" transform="translate(-127.194 -374.029)" fill="#263238"/><path d="M153.454,464.411s-.087-.243-.224-.719c-.136-.506-.34-1.206-.593-2.129-.515-1.9-1.254-4.648-2.207-8.177l.2.049c-2.382,2.684-5.338,6.009-8.751,9.85l-.156.185-.117-.214a21.054,21.054,0,0,1-2.479-9.13l.321.146a20.063,20.063,0,0,0-6.622,10.949l-.175.807-.243-.788a72.993,72.993,0,0,0-11.055-21.761l.438-.126a113.7,113.7,0,0,1-4.152,21.965l-.194.671-.272-.642c-.156-.36-.321-.749-.486-1.138a42.667,42.667,0,0,1-3.014-11.824l.418.165a34.684,34.684,0,0,0-8.216,10.89l-.3.632-.156-.69q-.992-4.492-1.935-8.761l.438.058c-1.478,2.752-2.9,5.416-4.288,7.993l-.282.535-.136-.583q-1.881-8.313-3.5-15.46l.35.068a32.934,32.934,0,0,0-5.9,16.432l-.029.321-.224-.233c-2.936-3.014-5.319-5.455-7.224-7.4l.165-.088c.4,2.334.72,4.162.933,5.416.1.6.175,1.07.233,1.41.049.321.058.486.058.486a4.464,4.464,0,0,1-.107-.476c-.068-.331-.156-.8-.282-1.4-.243-1.254-.583-3.073-1.031-5.4l-.058-.311.224.224c1.925,1.935,4.327,4.346,7.293,7.331l-.253.088A33.2,33.2,0,0,1,95.736,447l.253-.36.1.438c1.089,4.755,2.275,9.918,3.549,15.45l-.418-.058q2.071-3.88,4.269-8l.3-.564.136.622q.948,4.273,1.945,8.761l-.457-.049a35.119,35.119,0,0,1,8.323-11.055l.36-.321.049.486a42.405,42.405,0,0,0,2.985,11.678c.165.389.331.768.486,1.118l-.476.029a114.876,114.876,0,0,0,4.142-21.858l.058-.642.379.515a72.931,72.931,0,0,1,11.075,21.926l-.418.019a20.515,20.515,0,0,1,6.8-11.153l.3-.253v.4a21.067,21.067,0,0,0,2.4,8.984l-.272-.029c3.442-3.812,6.417-7.117,8.819-9.782l.146-.165.058.214c.9,3.539,1.614,6.311,2.1,8.206.233.924.408,1.643.535,2.149.117.486.165.739.165.739Z" transform="translate(-8.984 -374.976)" fill="#263238"/></g><g transform="translate(185.362 397.287)"><g transform="translate(165.316 21.887)"><path d="M482.559,425.839a7.1,7.1,0,0,1,3.666,4.152,12.525,12.525,0,0,1,.486,5.63c-.418,3.656-2.489,7.341-4.726,10.258-3.073-2.684-3.782-7.37-4-9.772-.331-3.792,1.371-10.842,4.56-10.278" transform="translate(-468.71 -425.797)" fill="#455a64"/><path d="M485.786,452.443a6.05,6.05,0,0,1,1.954-5.747,8.014,8.014,0,0,1,5.912-1.847,3.383,3.383,0,0,1,2.6,1.167,2.57,2.57,0,0,1,.039,2.616,5.2,5.2,0,0,1-1.935,1.906c-2.664,1.672-5.552,2.8-8.566,1.9" transform="translate(-468.923 -426.324)" fill="#455a64"/><path d="M481.73,463.747s.019-.272.107-.749c.1-.525.224-1.206.37-2.032a21.417,21.417,0,0,1,2.09-6.486,12.985,12.985,0,0,1,4.648-4.939,8.906,8.906,0,0,1,1.9-.836,4.848,4.848,0,0,1,.544-.136c.126-.029.195-.039.195-.029a13.2,13.2,0,0,0-2.538,1.167,13.338,13.338,0,0,0-4.512,4.91,22.523,22.523,0,0,0-2.139,6.388c-.185.846-.34,1.536-.457,2.013a3.653,3.653,0,0,1-.214.729Z" transform="translate(-468.814 -426.426)" fill="#263238"/><path d="M481.846,431.48s.019.117.039.331c.01.243.029.554.058.943.039.817.088,2,.136,3.461.1,2.927.165,6.972.146,11.444s-.126,8.518-.253,11.444c-.058,1.468-.117,2.645-.165,3.461-.029.389-.049.7-.068.943a1.842,1.842,0,0,1-.039.331s-.01-.117-.01-.331c0-.243,0-.554.01-.943.019-.856.049-2.032.088-3.471.068-2.927.156-6.972.175-11.435s-.029-8.508-.068-11.435c-.019-1.439-.039-2.616-.058-3.471v-.943c0-.214,0-.331.019-.331Z" transform="translate(-468.814 -425.954)" fill="#263238"/><path d="M479.982,454.631a14.12,14.12,0,0,0-7.72-10.355c-1.031-.5-2.372-.817-3.218-.049s-.661,2.139-.243,3.209a12.069,12.069,0,0,0,11.1,7.5" transform="translate(-468.447 -426.294)" fill="#455a64"/><path d="M472.89,447.86s.243.088.651.282c.2.1.457.224.739.389s.613.34.943.593a11.5,11.5,0,0,1,1.079.807c.379.3.758.661,1.147,1.04a15.482,15.482,0,0,1,2.168,2.791A15.276,15.276,0,0,1,481.048,457a12.015,12.015,0,0,1,.36,1.507,10.381,10.381,0,0,1,.185,1.332,9.076,9.076,0,0,1,.049,1.108,4.469,4.469,0,0,1-.029.836,3.282,3.282,0,0,1-.078.71c-.058,0,.049-1.021-.136-2.635a10.488,10.488,0,0,0-.214-1.313,14.372,14.372,0,0,0-.379-1.478,15.6,15.6,0,0,0-1.429-3.17,16.258,16.258,0,0,0-2.12-2.761c-.379-.379-.739-.739-1.108-1.04-.35-.321-.72-.583-1.04-.826-1.322-.943-2.246-1.371-2.217-1.42Z" transform="translate(-468.57 -426.407)" fill="#263238"/><g transform="translate(9.238)" opacity="0.3"><path d="M482.559,425.839a7.1,7.1,0,0,1,3.666,4.152,12.525,12.525,0,0,1,.486,5.63c-.418,3.656-2.489,7.341-4.726,10.258-3.073-2.684-3.782-7.37-4-9.772-.331-3.792,1.371-10.842,4.56-10.278" transform="translate(-477.948 -425.797)" fill="#b0c0d2"/></g><g transform="translate(16.723 18.499)" opacity="0.3"><path d="M485.786,452.443a6.05,6.05,0,0,1,1.954-5.747,8.014,8.014,0,0,1,5.912-1.847,3.383,3.383,0,0,1,2.6,1.167,2.57,2.57,0,0,1,.039,2.616,5.2,5.2,0,0,1-1.935,1.906c-2.664,1.672-5.552,2.8-8.566,1.9" transform="translate(-485.646 -444.823)" fill="#b0c0d2"/></g><g transform="translate(0 17.473)" opacity="0.3"><path d="M479.982,454.631a14.12,14.12,0,0,0-7.72-10.355c-1.031-.5-2.372-.817-3.218-.049s-.661,2.139-.243,3.209a12.069,12.069,0,0,0,11.1,7.5" transform="translate(-468.447 -443.767)" fill="#b0c0d2"/></g></g><g transform="translate(361.816 0.233)"><path d="M684.649,403.569a7.1,7.1,0,0,1,3.666,4.152,12.514,12.514,0,0,1,.486,5.63c-.418,3.656-2.489,7.341-4.726,10.258-3.073-2.684-3.782-7.37-4-9.772-.331-3.792,1.371-10.842,4.56-10.278" transform="translate(-670.8 -403.527)" fill="#455a64"/><path d="M687.876,430.173a6.05,6.05,0,0,1,1.954-5.747,8.014,8.014,0,0,1,5.912-1.847,3.383,3.383,0,0,1,2.6,1.167,2.57,2.57,0,0,1,.039,2.616,5.2,5.2,0,0,1-1.935,1.906c-2.664,1.672-5.552,2.8-8.566,1.9" transform="translate(-671.013 -404.054)" fill="#455a64"/><path d="M683.82,441.477s.019-.272.107-.749c.1-.525.224-1.206.37-2.032a21.415,21.415,0,0,1,2.091-6.485,12.986,12.986,0,0,1,4.648-4.939,8.911,8.911,0,0,1,1.9-.836,4.851,4.851,0,0,1,.545-.136c.126-.029.194-.039.194-.029a12.043,12.043,0,0,0-7.049,6.077,22.518,22.518,0,0,0-2.139,6.388c-.185.846-.34,1.536-.457,2.013a3.659,3.659,0,0,1-.214.729Z" transform="translate(-670.904 -404.156)" fill="#263238"/><path d="M683.936,409.21s.019.117.039.331c.01.243.029.554.058.943.039.817.087,2,.136,3.462.1,2.927.165,6.972.146,11.444s-.126,8.518-.253,11.444c-.058,1.468-.117,2.645-.165,3.462-.029.389-.049.7-.068.943a1.869,1.869,0,0,1-.039.331s-.01-.117-.01-.331c0-.243,0-.554.01-.943.02-.856.049-2.032.088-3.471.068-2.927.155-6.972.175-11.435s-.029-8.508-.068-11.435c-.02-1.439-.039-2.616-.058-3.471v-.943c0-.214,0-.331.019-.331Z" transform="translate(-670.904 -403.684)" fill="#263238"/><path d="M682.072,432.361a14.12,14.12,0,0,0-7.72-10.355c-1.031-.5-2.373-.817-3.218-.049s-.661,2.139-.243,3.209a12.069,12.069,0,0,0,11.1,7.5" transform="translate(-670.537 -404.024)" fill="#455a64"/><path d="M674.98,425.59s.243.087.651.282c.2.1.457.224.739.389s.612.34.943.593a11.519,11.519,0,0,1,1.079.807c.379.3.759.661,1.147,1.04a15.478,15.478,0,0,1,2.168,2.791,15.276,15.276,0,0,1,1.429,3.238,12,12,0,0,1,.36,1.507,10.366,10.366,0,0,1,.185,1.332,9.049,9.049,0,0,1,.049,1.108,4.465,4.465,0,0,1-.029.836,3.28,3.28,0,0,1-.078.71c-.058,0,.049-1.021-.136-2.635a10.454,10.454,0,0,0-.214-1.313,13.619,13.619,0,0,0-.379-1.468,15.609,15.609,0,0,0-1.429-3.17,16.257,16.257,0,0,0-2.12-2.761c-.379-.379-.739-.739-1.108-1.04-.35-.321-.719-.583-1.04-.826-1.322-.943-2.246-1.371-2.217-1.42Z" transform="translate(-670.66 -404.138)" fill="#263238"/><g transform="translate(9.238)" opacity="0.3"><path d="M684.649,403.569a7.1,7.1,0,0,1,3.666,4.152,12.514,12.514,0,0,1,.486,5.63c-.418,3.656-2.489,7.341-4.726,10.258-3.073-2.684-3.782-7.37-4-9.772-.331-3.792,1.371-10.842,4.56-10.278" transform="translate(-680.038 -403.527)"/></g><g transform="translate(16.723 18.499)" opacity="0.3"><path d="M687.876,430.173a6.05,6.05,0,0,1,1.954-5.747,8.014,8.014,0,0,1,5.912-1.847,3.383,3.383,0,0,1,2.6,1.167,2.57,2.57,0,0,1,.039,2.616,5.2,5.2,0,0,1-1.935,1.906c-2.664,1.672-5.552,2.8-8.566,1.9" transform="translate(-687.736 -422.553)"/></g><g transform="translate(0 17.473)" opacity="0.3"><path d="M682.072,432.361a14.12,14.12,0,0,0-7.72-10.355c-1.031-.5-2.373-.817-3.218-.049s-.661,2.139-.243,3.209a12.069,12.069,0,0,0,11.1,7.5" transform="translate(-670.537 -421.497)"/></g></g><path d="M312.539,403.329a7.1,7.1,0,0,1,3.666,4.152,12.514,12.514,0,0,1,.486,5.63c-.418,3.656-2.489,7.341-4.726,10.258-3.073-2.684-3.782-7.37-4-9.772-.331-3.792,1.371-10.842,4.56-10.278" transform="translate(-298.69 -403.287)" fill="#455a64"/><path d="M315.766,429.933a6.05,6.05,0,0,1,1.954-5.746,8.014,8.014,0,0,1,5.912-1.847,3.383,3.383,0,0,1,2.6,1.167,2.57,2.57,0,0,1,.039,2.616,5.2,5.2,0,0,1-1.935,1.906c-2.664,1.672-5.552,2.8-8.566,1.9" transform="translate(-298.903 -403.814)" fill="#455a64"/><path d="M311.71,441.247s.019-.272.107-.749c.1-.525.224-1.206.37-2.032a21.416,21.416,0,0,1,2.091-6.485,12.985,12.985,0,0,1,4.648-4.939,8.907,8.907,0,0,1,1.9-.836,4.85,4.85,0,0,1,.544-.136c.126-.029.194-.039.194-.029a12.044,12.044,0,0,0-7.049,6.077,22.52,22.52,0,0,0-2.139,6.388c-.185.846-.34,1.536-.457,2.013a3.65,3.65,0,0,1-.214.729Z" transform="translate(-298.794 -403.917)" fill="#263238"/><path d="M311.826,408.98s.019.117.039.331c.01.243.029.554.058.943.039.817.087,2,.136,3.462.1,2.927.165,6.972.146,11.444s-.126,8.518-.253,11.444c-.058,1.468-.117,2.645-.165,3.462-.029.389-.049.7-.068.943a1.851,1.851,0,0,1-.039.331s-.01-.117-.01-.331c0-.243,0-.554.01-.943.019-.856.049-2.032.087-3.471.068-2.927.156-6.972.175-11.435s-.029-8.508-.068-11.435c-.019-1.439-.039-2.616-.058-3.471v-.943c0-.214,0-.331.019-.331Z" transform="translate(-298.794 -403.445)" fill="#263238"/><path d="M309.962,432.131a14.12,14.12,0,0,0-7.72-10.355c-1.031-.5-2.372-.817-3.218-.049s-.661,2.139-.243,3.209a12.069,12.069,0,0,0,11.1,7.5" transform="translate(-298.427 -403.785)" fill="#455a64"/><path d="M302.87,425.36s.243.087.651.282c.2.1.457.224.739.389s.613.34.943.593a11.493,11.493,0,0,1,1.079.807c.379.3.758.661,1.147,1.04a15.488,15.488,0,0,1,2.168,2.791,15.276,15.276,0,0,1,1.429,3.238,12.017,12.017,0,0,1,.36,1.507,10.382,10.382,0,0,1,.185,1.332,9.074,9.074,0,0,1,.049,1.108,4.467,4.467,0,0,1-.029.836,3.284,3.284,0,0,1-.078.71c-.058,0,.049-1.021-.136-2.635a10.483,10.483,0,0,0-.214-1.313,14.4,14.4,0,0,0-.379-1.478,15.6,15.6,0,0,0-1.429-3.17,16.264,16.264,0,0,0-2.12-2.761c-.379-.379-.739-.739-1.108-1.04-.35-.321-.72-.583-1.04-.826-1.322-.943-2.246-1.371-2.217-1.42Z" transform="translate(-298.55 -403.898)" fill="#263238"/><g transform="translate(9.238)" opacity="0.3"><path d="M312.539,403.329a7.1,7.1,0,0,1,3.666,4.152,12.514,12.514,0,0,1,.486,5.63c-.418,3.656-2.489,7.341-4.726,10.258-3.073-2.684-3.782-7.37-4-9.772-.331-3.792,1.371-10.842,4.56-10.278" transform="translate(-307.928 -403.287)" fill="#b0c0d2"/></g><g transform="translate(16.723 18.499)" opacity="0.3"><path d="M315.766,429.933a6.05,6.05,0,0,1,1.954-5.746,8.014,8.014,0,0,1,5.912-1.847,3.383,3.383,0,0,1,2.6,1.167,2.57,2.57,0,0,1,.039,2.616,5.2,5.2,0,0,1-1.935,1.906c-2.664,1.672-5.552,2.8-8.566,1.9" transform="translate(-315.626 -422.313)" fill="#b0c0d2"/></g><g transform="translate(0 17.483)" opacity="0.3"><path d="M309.962,432.131a14.12,14.12,0,0,0-7.72-10.355c-1.031-.5-2.372-.817-3.218-.049s-.661,2.139-.243,3.209a12.069,12.069,0,0,0,11.1,7.5" transform="translate(-298.427 -421.267)" fill="#b0c0d2"/></g></g><g transform="translate(294.596 186.389)"><g transform="translate(242.335 108.455)"><path d="M623.482,307.606c0,.7,3.987,16.549,3.637,22.772s-.992,15.256-1.5,18.309-6.836,19.836-8.712,22.655-13.029,13.146-13.029,13.146l18.659-.817s-.583-5.513,6.34-6.34c0,0,4.346-13.146,6.223-20.069s12.086-32.982,13.5-35.335-.7-5.046-2.586-13.5-8.683-10.686-9.276-10.443-13.263,9.626-13.263,9.626Z" transform="translate(-603.783 -297.931)" fill="#e0e0e0"/><path d="M603.78,384.526l.068-.068c.107-.107,11.172-10.355,13.02-13.136,1.9-2.839,8.216-19.641,8.712-22.636.476-2.936,1.108-11.551,1.5-18.309.272-4.784-2-15.168-3.1-20.166-.321-1.468-.535-2.441-.535-2.606v-.019h.019c.515-.389,12.689-9.4,13.272-9.636a.43.43,0,0,1,.126-.02,5.916,5.916,0,0,1,2.188.768,14.135,14.135,0,0,1,7,9.723c.7,3.15,1.42,5.465,2,7.331.972,3.131,1.468,4.706.574,6.194-1.4,2.334-11.571,28.217-13.5,35.325-1.857,6.845-6.174,19.943-6.223,20.069v.019h-.029c-1.964.233-4.56,1.021-5.737,3.462a5.831,5.831,0,0,0-.574,2.839v.039h-.029l-18.756.827Zm19.729-76.9c.01.2.224,1.157.535,2.577,1.1,5,3.374,15.392,3.1,20.176-.379,6.758-1.011,15.382-1.5,18.319-.5,3-6.826,19.816-8.722,22.665-1.779,2.674-12.018,12.213-12.961,13.088l18.533-.817a5.89,5.89,0,0,1,.583-2.839c1.186-2.45,3.792-3.257,5.776-3.491.195-.6,4.4-13.331,6.213-20.05,1.925-7.108,12.106-33.011,13.506-35.335.875-1.458.389-3.024-.583-6.135-.583-1.867-1.3-4.181-2-7.331a14.07,14.07,0,0,0-6.972-9.675,5.789,5.789,0,0,0-2.159-.758.333.333,0,0,0-.107.01c-.564.224-12.747,9.247-13.243,9.607Z" transform="translate(-603.78 -297.93)" fill="#263238"/><g transform="translate(0.097 0.041)" opacity="0.3"><path d="M623.482,307.606c0,.7,3.987,16.549,3.637,22.772s-.992,15.256-1.5,18.309-6.836,19.836-8.712,22.655-13.029,13.146-13.029,13.146l18.659-.817s-.583-5.513,6.34-6.34c0,0,4.346-13.146,6.223-20.069s12.086-32.982,13.5-35.335-.7-5.046-2.586-13.5-8.683-10.686-9.276-10.443-13.263,9.626-13.263,9.626Z" transform="translate(-603.88 -297.972)" fill="#727997"/></g><path d="M603.88,386.748l18.659-.817s-.068-3.724,2.771-5.221L611.3,379.66l-7.419,7.088Z" transform="translate(-603.783 -300.191)" fill="#263238"/></g><g transform="translate(297.408 8.975)"><path d="M660.42,195.835a21.46,21.46,0,0,1,24.211,20.322c.418,9.4-6.233,18.5-4.434,27.741,2.431,12.485,10.88,20.02,13.982,35.626l-2.052,1.118a76.466,76.466,0,0,0-12.845-27.556c-9.6-12.718,2.771-26.195-2.266-36.015s-7.341-11.649-7.341-11.649l-9.257-9.568Z" transform="translate(-660.42 -195.621)" fill="#fff"/><path d="M660.42,195.834c.622.632,3.471,3.53,9.344,9.48h-.01a28.466,28.466,0,0,1,3.957,5.416c1.254,2.1,2.557,4.395,3.8,6.972,1.177,2.664,1.118,5.854.622,8.994-.486,3.17-1.381,6.408-1.935,9.85a23.393,23.393,0,0,0,.369,10.735,17.868,17.868,0,0,0,2.518,5.085c1.118,1.585,2.324,3.189,3.393,4.9a77.879,77.879,0,0,1,9.908,23.317l-.37-.175c.642-.35,1.342-.739,2.042-1.118l-.126.272c-.165-.749-.35-1.556-.535-2.363a57.878,57.878,0,0,0-3.3-9.6c-1.342-3.063-2.878-5.99-4.375-8.868a76.754,76.754,0,0,1-4.016-8.7,39.156,39.156,0,0,1-1.371-4.453,22.663,22.663,0,0,1-.457-2.256l-.155-1.138-.039-1.138a29.394,29.394,0,0,1,1.322-8.654c.758-2.732,1.643-5.338,2.3-7.9a29.913,29.913,0,0,0,1.128-7.526,20.152,20.152,0,0,0-1.186-6.884,21.219,21.219,0,0,0-15.071-13.71,22.086,22.086,0,0,0-5.737-.642c-.671.019-1.167.049-1.5.078-.263.019-.408.029-.525.029,0,0,.156-.019.5-.068a13.506,13.506,0,0,1,1.527-.136,21.214,21.214,0,0,1,5.785.554,21.355,21.355,0,0,1,15.353,13.788,20.521,20.521,0,0,1,1.235,7,30.116,30.116,0,0,1-1.109,7.633c-.661,2.577-1.546,5.183-2.285,7.905a28.882,28.882,0,0,0-1.283,8.527l.049,1.108.155,1.1a19.8,19.8,0,0,0,.457,2.207,37.014,37.014,0,0,0,1.361,4.4,74.867,74.867,0,0,0,4.006,8.644c1.5,2.878,3.053,5.815,4.395,8.9a59.537,59.537,0,0,1,3.325,9.684c.185.817.369,1.634.535,2.392l.039.175-.165.088c-.7.389-1.4.768-2.052,1.118l-.292.165-.078-.331a73.4,73.4,0,0,0-4.074-12.232,74.559,74.559,0,0,0-5.747-10.929c-1.06-1.711-2.246-3.277-3.374-4.891a18.543,18.543,0,0,1-2.577-5.221,23.756,23.756,0,0,1-.35-10.939c.564-3.471,1.478-6.709,1.974-9.85.506-3.111.574-6.213-.554-8.8-1.206-2.528-2.5-4.862-3.734-6.952a29.313,29.313,0,0,0-3.85-5.387h-.01c-2.966-3.131-5.27-5.542-6.845-7.205-.758-.8-1.342-1.42-1.75-1.847-.389-.408-.574-.613-.574-.613Z" transform="translate(-660.42 -195.62)" fill="#263238"/></g><path d="M703.485,284.629c-2.207-3.695-6.554-6.34-10.725-5.776l1.1-.233c-3.909-.185-7.166,3.393-8.08,7.2s-.087,7.779.6,11.639a30.869,30.869,0,0,1,.651,7.545,1.4,1.4,0,0,0,2.5.992,14.491,14.491,0,0,0,1.313-1.945q.408,5.571.807,11.153a2.309,2.309,0,0,0,.36,1.3,2.175,2.175,0,0,0,2.227.4,14.129,14.129,0,0,0,8.732-7.215,27.925,27.925,0,0,0,2.9-11.211c.37-4.735.058-9.743-2.372-13.827Z" transform="translate(-363.702 -188.94)" fill="#12263f"/><path d="M490.31,315.219c.156.758,8.693,22.422,10.832,25.32s3.51,2.139,5.037,5.951,4.113,22.267,4.424,25.164a14.412,14.412,0,0,1-1.215,6.252l-6.661,8.362s12.611.788,15.353-.583,5.951-6.709,5.951-6.709-2.6-2.6-1.371-5.639,1.371-3.656,1.371-3.656-8.994-24.551-8.994-30.045,1.682-7.322.457-12.358-6.408-31.416-6.408-31.416-16.627,6.865-16.928,7.322-1.828,12.047-1.828,12.047Z" transform="translate(-358.306 -189.417)" fill="#e0e0e0"/><g transform="translate(132.004 107.357)" opacity="0.3"><path d="M490.31,316.159c.156.758,8.693,22.422,10.832,25.32s3.51,2.139,5.037,5.951,4.113,22.267,4.424,25.164a14.412,14.412,0,0,1-1.215,6.252l-6.661,8.362s12.611.788,15.353-.583,5.951-6.709,5.951-6.709-2.6-2.6-1.371-5.64,1.371-3.656,1.371-3.656-8.994-24.552-8.994-30.045,1.682-7.322.457-12.358-6.408-31.416-6.408-31.416-16.627,6.865-16.928,7.322-1.828,12.047-1.828,12.047Z" transform="translate(-490.31 -296.8)" fill="#727997"/></g><g transform="translate(234.041 79.237)"><path d="M595.26,299.364s20.477,32.525,55.229,5.1l-2.635-22.091L617.215,267.88l-20.2,5.8-1.77,25.689Z" transform="translate(-595.25 -267.88)" fill="#ffa686"/><path d="M615.1,309.79a64.347,64.347,0,0,0-2.1,8.43c-.263,1.468-.447,3.209.272,4.356a1.957,1.957,0,0,0,3.209.068,10.761,10.761,0,0,0,1.945-4.064c.69-2.149,1.381-4.288,2.071-6.437l-5.4-2.353Z" transform="translate(-595.735 -269.039)" fill="#e28d6f"/><path d="M606.838,305.34a64.124,64.124,0,0,0-5.494,6.729c-.865,1.215-1.77,2.723-1.6,4.055.175,1.449,1.6,1.925,2.878,1.429a10.753,10.753,0,0,0,3.491-2.849l4.619-4.939-3.88-4.434Z" transform="translate(-595.374 -268.916)" fill="#e28d6f"/><path d="M629.51,312.3a65.914,65.914,0,0,0,2.966,8.168c.6,1.371,1.429,2.907,2.664,3.462,1.342.593,2.479-.389,2.7-1.74a10.828,10.828,0,0,0-.661-4.453c-.622-2.168-1.254-4.327-1.877-6.5l-5.8,1.07Z" transform="translate(-596.198 -269.08)" fill="#e28d6f"/></g><g transform="translate(233.924 86.772)" opacity="0.3"><path d="M595.247,299.19a6.107,6.107,0,0,0,4.473-1.77c2.372-2.061,9.908-9.5,9.908-9.5s5.163-4.337,7.954-4.541,5.056-.826,7.74,0,10.53,6.087,13.525,9.607,4.57,6.447,6.913,7.224,3.043-3.481,3.043-3.481l-8.411-14.488-13.117-5.474-6.194-1.138-7.847.933-6.709,2.888-4.337,3.928-3.821,3.928s-2.168,4.745-2.275,5.056-.963,4.366-.963,4.366l.1,2.46Z" transform="translate(-595.13 -275.63)"/></g><path d="M675.186,341.9c-2.149-10.511-1.915-24.124-4.064-32.243s-10.035-19.106-11.231-32.486.953-42.316.953-42.316h0c.934-6.077,2.324-15.587,2.324-17.8,0-3.306,0-20.905-10.1-24.221s-22.83-4.881-57.154-3.141a195.857,195.857,0,0,1-25.961-1.915c-16.034-2.091-53.148-.7-63.6,0s-31.368,5.571-42.17,9.237-34.148,14.459-40.08,25.436-5.572,17.074-11.328,27.186-26.661,45.3-28.927,47.051-3.316,3.306-3.831,3.141-2.771-3.578-9.928-.778a8.944,8.944,0,0,0-2.8,2.353,16.265,16.265,0,0,0-2.606,7.837c0,.233-.01.467,0,.7.117,4.074,2.635,7.711,2.966,11.5.35,4.006,0,7.147,1.05,10.8s2.441,2.791,2.441,5.406.875,28.227,0,31.193-1.838,7.5.389,8.537c1.76.826,7.234,1.429,9.461,1.653a1.893,1.893,0,0,0,1.595-.622l6.155-6.787v6.544a.629.629,0,0,0,.875.583c2.285-.982,8.284-3.821,8.7-6.787.525-3.656.875-5.056.875-5.056S409.641,350.7,411.041,346.7s2.791-7.322,4.531-11.328,2.791-8.712,6.622-13.943,11.678-7.5,11.678-7.5l6.622-1.39a16.35,16.35,0,0,0,10.628,3.141c6.447-.35,16.209,1.215,18.474.175l2.4-1.118h.019c.885,8.4.739,17.2,1.546,23.219.972,7.234,1.945,9.733,1.945,9.733s-2,22.889-3.675,24.075a33.808,33.808,0,0,0-11.532,14.78l17.57-.331s2.45-5.96,4.084-7.186l2.781-1.575s.506-18.786,1.07-23.929-.418-8.488,2.509-13.632a28.858,28.858,0,0,0,3.481-9.461l2.654-29.715c4.541-2.781,9.13-5.328,12.106-6.32,7.837-2.616,24.4,5.571,36.589,6.272s20.04,1.915,22.305,2.791,3.481,1.74,5.572.875,3.306-1.74,4.881-2.266,12.893-5.231,12.893-5.231,6.972-13.768,13.593-17.074c4.064-2.032,8.129-3.666,10.657-4.628,4.871,1.974,10.4,4.366,12.952,6.456,4.774,3.919,13.379,9.889,15.762,17.531s4.3,11.707,8.839,19.583,11.347,19.826,12.6,30.337,0,31.29,0,31.29l-7.108,8.6,16.238.953s4.5-3.7,4.026-7.049-1.089-5.367.311-7.993,2.829-1.5,2.829-1.5-2.149-20.954-4.3-31.465Z" transform="translate(-354.83 -186.397)" fill="#fff"/><path d="M433.939,315.66c0,.049-.1.019-.146.039-.807.243-7.983,2.538-11.6,7.468-3.831,5.231-4.881,9.928-6.622,13.943s-3.141,7.322-4.531,11.328c-1.293,3.7-10.336,17.852-11.678,19.952a1.761,1.761,0,0,0-.243.574c-.126.593-.418,2.052-.8,4.735-.447,3.111-7.049,6.087-9.033,6.923a.4.4,0,0,1-.554-.37v-6.291a.235.235,0,0,0-.408-.156l-5.776,6.369a1.79,1.79,0,0,1-1.517.583c-2.2-.214-7.74-.826-9.509-1.663-2.227-1.05-1.254-5.571-.389-8.537s0-28.577,0-31.193-1.39-1.741-2.441-5.406-.7-6.8-1.05-10.8c-.331-3.792-2.849-7.429-2.966-11.5v-.7a16.186,16.186,0,0,1,2.606-7.837,8.717,8.717,0,0,1,2.8-2.353c7.156-2.8,9.422.613,9.928.778.525.175,1.565-1.39,3.831-3.141s23.171-36.939,28.927-47.051c0,0,3.9,13.515,2.373,26.739s-5.085,17.288,2.032,22.374,17.735,7.458,16.744,15.168Z" transform="translate(-354.83 -188.186)" fill="#12263f"/><path d="M422.958,325.37c-1.118-.107-9.791,1.653-12.825,9.636s-.963,19.291-3.724,23.005-4.969,11.474-4.969,11.474c3.763-6.262,9.344-15.48,10.725-19.2s3-6.5,5.1-12.747c0,0,1.653-5.912,3.364-8.148a15.619,15.619,0,0,0,2.314-4.025Z" transform="translate(-355.847 -190.233)" fill="#fff"/><path d="M379.459,354.164a8.1,8.1,0,0,0,3.131-7.993,12.1,12.1,0,0,1-.2-1.565,6.552,6.552,0,0,1,2.217-5.678,3.364,3.364,0,0,0,.953-.856c.428-.749-.049-1.663-.525-2.372-1.828-2.732-4.006-5.426-7.02-6.729s-7.059-.758-8.858,1.993l-.992,1.75a20.2,20.2,0,0,0,.632,3.4c1.05,3.656,2.441,2.791,2.441,5.406,0,1.429.175,4.337.262,12.067l2.975,1.371s4.755-.6,4.969-.768h0Z" transform="translate(-354.927 -190.315)" fill="#fff"/><path d="M374.538,342.762c-.087.029-.418-.661-.428-1.877a6.842,6.842,0,0,1,5.62-6.748c1.2-.2,1.935,0,1.925.088" transform="translate(-355.091 -190.474)" fill="#263238"/><path d="M379.185,335.018a4.832,4.832,0,0,1,1.021,4.628,2.29,2.29,0,0,1-2.431,1.021,4.284,4.284,0,0,1-2.645-1.468,6.194,6.194,0,0,1,1.8-3.267c1.527-1.41,2.256-.9,2.256-.9Z" transform="translate(-355.119 -190.498)" fill="#263238"/><path d="M484.664,384.53H467.609s-4.249,3.743-4.6,7.506l17.57-.331,4.084-7.186Z" transform="translate(-357.551 -191.87)" fill="#263238"/><path d="M375.624,381.482a1.808,1.808,0,0,1-1.847-.681,2.552,2.552,0,0,1-.428-1.984,4.256,4.256,0,0,1,.9-1.857c.321-.408.817-.807,1.3-.622a1.235,1.235,0,0,1,.622.749,5,5,0,0,1-.418,4.482" transform="translate(-355.069 -191.642)" fill="#455a64"/><path d="M509.72,381.158l13.418-.778,1.215,1.847s-3.588,6.515-6.291,7.205-15.013.088-15.013.088l6.66-8.362Z" transform="translate(-358.658 -191.756)" fill="#263238"/><path d="M664.351,394.465l7.108-8.6,12.883.506s1.449,3.5.457,5.183-4.2,3.87-4.2,3.87l-16.559-.817" transform="translate(-363.112 -191.907)" fill="#263238"/><path d="M462.138,298.77c.126,0,.185,1.342.661,3.432a24.049,24.049,0,0,0,8.858,13.788c1.711,1.3,2.907,1.915,2.849,2.032a10.006,10.006,0,0,1-3.15-1.614A21.728,21.728,0,0,1,462.3,302.3a9.993,9.993,0,0,1-.156-3.539Z" transform="translate(-357.524 -189.498)" fill="#263238"/><path d="M607.924,244.43c.126,0,.068,1.974.37,5.134a49.979,49.979,0,0,0,8.177,23.064c1.76,2.635,3.043,4.132,2.946,4.22a5.081,5.081,0,0,1-.992-.972,32.674,32.674,0,0,1-2.372-2.956,45.088,45.088,0,0,1-5.785-11.075,44.4,44.4,0,0,1-2.479-12.242,30.928,30.928,0,0,1-.02-3.792,5.5,5.5,0,0,1,.156-1.381Z" transform="translate(-361.554 -187.995)" fill="#263238"/><path d="M513.543,223.916c1-6.534-2.742-12.747-6.34-18.29-1.283-1.984-2.577-3.977-3.86-5.96a13.925,13.925,0,0,0-2.907-3.559c-2.236-1.75-5.26-1.974-8.1-2.129-2.742-.156-5.649-.272-8.08,1.021s-4.045,4.531-2.616,6.884c1.352,2.217,4.6,2.616,6.019,4.784,1.857,2.839-.476,6.476-.827,9.85s1.371,6.554,2.353,9.8.953,7.39-1.857,9.3c-2.557-1.254-2.713-4.735-3.16-7.555a37.3,37.3,0,0,0-2.985-8.877,12.287,12.287,0,0,0-2.334-3.938,4.1,4.1,0,0,0-4.191-1.167c-1.429.544-2.2,2.042-3.053,3.306s-2.256,2.5-3.734,2.11c-1.653-.438-2.159-2.635-1.711-4.288s1.507-3.111,1.828-4.794c.729-3.86-3.112-9.782-4.755-13.35L444.507,207.1c-.136,8.994-3.841,20.536-6.631,29.092-2.946,5-2.256,24.4.632,29.423s6.709,9.791,7.545,15.528a30.071,30.071,0,0,0,.632,4.278,4.541,4.541,0,0,0,2.693,3.17,2.663,2.663,0,0,0,3.092-1.225c-.778,2.868-1.439,5.912-.438,8.693,1.07,2.985,4.949,5.124,7.526,3.277,3.938-2.82.185-9.937,3.364-13.584,1.3-1.488,3.423-1.945,5.007-3.112,4.453-3.286,3.928-11.367,9.062-13.438,1.293-.525,2.742-.535,4.055-1,2.334-.846,3.9-2.995,5.834-4.541s5.046-2.382,6.738-.564a4.749,4.749,0,0,1,.69,4.482c-.418,1.527-1.215,2.927-1.6,4.463-.846,3.257.194,6.67,1.215,9.869,1.867,5.844,6.106,7.856,7.973,13.69l8.683-4.784c2.431-7.4,3.131-8,1.867-15.684-.807-4.959-3.121-9.509-4.978-14.177-2.5-6.262-4.23-13.292-2.139-19.709,1.993-6.116,7.244-10.978,8.226-17.337Z" transform="translate(-356.803 -186.596)" fill="#12263f"/><path d="M643.092,206.832c-.8-2.061-3.374-2.868-4.492-4.764-2.363-4.006,2-8.955-.836-12.64-9.782-.642-22.6-.36-36.394.224-3.326,5.445-1.663,10.346-.729,12.825s1.07,5.785-1.138,7.254c-1.77,1.177-4.278.5-5.8-.972a14.577,14.577,0,0,1-3.092-5.5,37.126,37.126,0,0,0-4.677-9.305,13.277,13.277,0,0,0-8.586-5.445,120.979,120.979,0,0,0-25.67-1.517c-5.027,1.9-8.946,10.53-9.461,15.878s.272,10.842-.943,16.073c-.953,4.113-3.131,8.041-2.917,12.251.311,6.252,5.815,11.814,4.589,17.94-.729,3.637-3.714,6.476-4.58,10.083-.729,2.995.1,6.126.914,9.1,1.245,4.521,3.286,9.821,7.886,10.715,4.784.933,8.839-3.724,10.54-8.294s2.343-9.762,5.659-13.34c2.762-2.985,7.2-4.609,8.586-8.44,1.1-3.053-.2-6.437-1.8-9.266s-3.549-5.63-3.831-8.868,1.983-6.981,5.231-6.816c2.509.126,4.356,2.479,5.173,4.842s1,4.949,2.023,7.244c1.585,3.52,5.163,6.408,4.93,10.258-.224,3.627-3.734,6.048-6.923,7.8s-6.787,3.88-7.419,7.458c-.758,4.259,3.18,7.9,7.059,9.811s8.391,3.3,10.793,6.9c1.089,1.634,1.624,3.578,2.635,5.26s2.791,3.17,4.735,2.907c2.936-.4,3.938-4.269,3.316-7.156s-2.168-5.737-1.643-8.644c.447-2.509,2.314-4.463,3.812-6.524s2.674-4.794,1.575-7.088c-1.254-2.625-5.212-4.162-4.628-7.01.535-2.654,4.56-3.024,5.707-5.474,1.488-3.18-2.927-6.349-2.606-9.85.292-3.16,4.035-4.57,7.127-5.28,2.557-.583,5.581-1.06,7.516.72,1.993,1.828,1.964,5.4,4.327,6.7,2.3,1.274,5.2-.642,6.456-2.966s1.6-5.076,3.034-7.293c1.449-2.256,3.831-3.714,5.6-5.727s2.839-5.183,1.2-7.293a13.331,13.331,0,0,0,5.688-1.672c1.663-1.1,2.8-3.267,2.081-5.124Z" transform="translate(-359.627 -186.402)" fill="#12263f"/><path d="M675.178,341.9s.613,2.684,1.41,7.973c.817,5.28,1.857,13.156,2.966,23.482l.019.175-.146-.107a1.308,1.308,0,0,0-.992-.194,1.847,1.847,0,0,0-.924.544,6.1,6.1,0,0,0-1.177,1.954,8.942,8.942,0,0,0-.272,4.794c.117.836.282,1.672.37,2.557a5.211,5.211,0,0,1-.574,2.606,14.174,14.174,0,0,1-3.491,4.307l-.029.029H672.3c-5.037-.292-10.472-.613-16.238-.943h-.224l.146-.185c2.168-2.635,4.589-5.571,7.1-8.605l-.029.068q.335-6.082.476-12.621c.088-4.356.117-8.868-.107-13.506a57.738,57.738,0,0,0-.681-7.02,49.927,49.927,0,0,0-1.867-7.02,94.415,94.415,0,0,0-6.213-13.827c-2.421-4.6-5.26-9.13-7.779-13.992a69.555,69.555,0,0,1-3.393-7.594q-.744-1.969-1.4-4a24.621,24.621,0,0,0-1.488-3.967,27.442,27.442,0,0,0-5.144-6.884,72.342,72.342,0,0,0-6.651-5.824c-4.385-4.162-10.132-6.408-15.859-8.78h.136c-2.441.933-4.92,1.954-7.4,3.082-1.225.574-2.509,1.128-3.695,1.809a16.293,16.293,0,0,0-3.257,2.548,44.711,44.711,0,0,0-5.328,6.66,81.376,81.376,0,0,0-4.463,7.516L588.9,297l-.068.029q-5.222,2.115-10.589,4.3c-.895.35-1.789.749-2.684,1.07a27.908,27.908,0,0,0-2.616,1.254,14.78,14.78,0,0,1-2.752,1.157,4.857,4.857,0,0,1-2.995-.389,25.81,25.81,0,0,0-2.761-1.04c-.943-.253-1.925-.447-2.907-.622-1.964-.34-3.957-.6-5.961-.836-4.006-.457-8.08-.778-12.2-1.011-8.323-.554-16.325-3.539-24.629-5.523a47.811,47.811,0,0,0-6.32-1.138,14.5,14.5,0,0,0-6.33.535,47.846,47.846,0,0,0-5.883,2.81c-1.916,1.05-3.812,2.178-5.7,3.325l.107-.175q-.817,9.247-1.672,18.756c-.282,3.17-.564,6.349-.856,9.558a18.708,18.708,0,0,1-.933,4.774,32.106,32.106,0,0,1-1.828,4.541,38.418,38.418,0,0,0-2.129,4.366,17.013,17.013,0,0,0-.9,4.755c-.1,1.633-.088,3.287-.2,4.939-.156,1.663-.3,3.287-.389,4.949-.369,6.622-.574,13.321-.778,20.079v.136l-.117.068c-.856.486-1.818,1.031-2.781,1.575l.029-.019a11.655,11.655,0,0,0-2.207,3.228c-.642,1.235-1.245,2.538-1.8,3.85l-.058.146h-.156c-5.445.107-11.483.214-17.57.331h-.36l.126-.321a33.909,33.909,0,0,1,5.348-9.014,31.946,31.946,0,0,1,3.743-3.87l1.031-.885,1.089-.827.272-.2.136-.107a.368.368,0,0,1,.068-.078,2.282,2.282,0,0,0,.263-.535,10.742,10.742,0,0,0,.379-1.274,109.184,109.184,0,0,0,1.7-10.871q.656-5.528,1.157-11.133l.019.107a51.523,51.523,0,0,1-1.672-7.759,74.7,74.7,0,0,1-.807-7.983c-.3-5.367-.408-10.812-.933-16.277l-.049-.515-.029-.253v-.126l-.019-.068v-.049a.244.244,0,0,0,.243.214c.185-.039.058-.019.088-.019h-.02l-.029.019-.058.029-.117.058-.233.107-.467.214-.933.438a5.969,5.969,0,0,1-1,.4,18.072,18.072,0,0,1-4.21.2c-2.781-.107-5.552-.34-8.343-.467-1.39-.058-2.791-.107-4.181-.088a26.885,26.885,0,0,1-4.239-.058A16.524,16.524,0,0,1,440.3,312.7l.214.049c-2.071.438-4.346.914-6.622,1.39h.019a29.228,29.228,0,0,0-6.855,3.18,19.97,19.97,0,0,0-3.014,2.334,17.411,17.411,0,0,0-2.431,2.956,35.53,35.53,0,0,0-3.559,6.923c-.953,2.431-1.809,4.969-2.917,7.38-1.05,2.441-2.071,4.9-3,7.4-.486,1.245-.856,2.528-1.458,3.773-.583,1.225-1.245,2.4-1.9,3.578-2.674,4.7-5.552,9.3-8.469,13.885-.311.486-.632.982-.924,1.449l.029-.078c-.224.982-.4,2-.564,3.014l-.233,1.517a4.406,4.406,0,0,1-.438,1.556,7.755,7.755,0,0,1-2.12,2.334,20.35,20.35,0,0,1-2.577,1.7c-.885.506-1.8.972-2.713,1.4l-.69.311-.35.156a1.03,1.03,0,0,1-.5.088.893.893,0,0,1-.749-.661,2.631,2.631,0,0,1-.029-.438v-6.34l.438.165c-2.149,2.353-4.2,4.677-6.417,7.03a2.185,2.185,0,0,1-1.235.457c-.467,0-.807-.068-1.215-.1l-2.353-.272a45.192,45.192,0,0,1-4.677-.8,4.632,4.632,0,0,1-2.256-.992,3.643,3.643,0,0,1-.846-2.324,15.944,15.944,0,0,1,.6-4.716l.311-1.138A7.36,7.36,0,0,0,371,367.76c.078-.768.117-1.546.146-2.324.058-1.556.068-3.112.078-4.667,0-6.223-.136-12.426-.282-18.591-.029-1.546-.068-3.092-.1-4.628a2.715,2.715,0,0,0-.651-1.984,7.151,7.151,0,0,1-1.293-1.974c-1.206-2.936-1.274-6.1-1.371-9.13a27.7,27.7,0,0,0-.4-4.512,34.783,34.783,0,0,0-1.381-4.317,22.86,22.86,0,0,1-1.235-4.434,12.452,12.452,0,0,1,.224-4.609,16.819,16.819,0,0,1,1.653-4.278c.185-.34.369-.661.564-.992a5.053,5.053,0,0,1,.758-.914,8.809,8.809,0,0,1,1.809-1.459,15.452,15.452,0,0,1,4.414-1.254,7.731,7.731,0,0,1,4.521.69,6.492,6.492,0,0,1,.982.632c.292.2.651.6.69.476a3.719,3.719,0,0,0,.8-.642l.807-.778c.544-.515,1.108-1.021,1.7-1.488a6.106,6.106,0,0,0,.749-.758c.224-.272.438-.593.661-.885,1.711-2.411,3.306-4.93,4.881-7.429,3.15-5.008,6.2-10.044,9.227-15.052s5.99-10.015,8.916-14.994c2.859-5.017,6.019-9.84,8.08-15.149,1.05-2.645,1.906-5.348,2.8-8.031a81.167,81.167,0,0,1,3.063-7.915c.593-1.283,1.215-2.548,1.877-3.782a22.2,22.2,0,0,1,2.382-3.5,35.844,35.844,0,0,1,2.878-3.073c1.06-.9,2.081-1.877,3.2-2.693a91.615,91.615,0,0,1,13.992-8.79,139.246,139.246,0,0,1,14.828-6.7,147.136,147.136,0,0,1,15.3-4.677q7.686-1.969,15.334-3.5a123.607,123.607,0,0,1,15.295-2.217c5.1-.311,10.142-.506,15.139-.671,10-.311,19.806-.476,29.413-.321,4.8.078,9.548.243,14.235.622,2.343.185,4.667.486,6.962.768s4.589.525,6.874.729c4.56.428,9.082.72,13.545.826,2.236.088,4.444-.058,6.651-.156l6.583-.263c8.712-.3,17.22-.408,25.465.029a107.465,107.465,0,0,1,12.135,1.3c1.974.34,3.928.768,5.834,1.284.953.253,1.9.535,2.829.836a10.6,10.6,0,0,1,2.693,1.2,10.982,10.982,0,0,1,2.256,1.867,13.725,13.725,0,0,1,1.741,2.314,22.608,22.608,0,0,1,2.266,5.231,45.358,45.358,0,0,1,1.682,10.939c.282,3.637-.36,7.2-.788,10.637-.476,3.452-.982,6.836-1.488,10.151h0c-.613,8.605-1.031,16.792-1.225,24.5-.1,3.86-.146,7.594-.068,11.211A65.369,65.369,0,0,0,660.5,280.9c1.225,6.641,3.792,12.407,6.165,17.609,1.186,2.606,2.363,5.085,3.306,7.516a32.1,32.1,0,0,1,1.925,7.166c.739,4.628,1,8.761,1.313,12.32.292,3.559.554,6.563.827,8.975s.554,4.23.758,5.455c.224,1.215.321,1.838.321,1.838s-.126-.613-.36-1.828c-.214-1.215-.515-3.034-.788-5.455-.292-2.411-.564-5.416-.865-8.975-.321-3.559-.593-7.691-1.342-12.31a32.363,32.363,0,0,0-1.935-7.127c-.953-2.421-2.129-4.9-3.325-7.506-2.382-5.2-4.969-10.978-6.213-17.648a64.9,64.9,0,0,1-.875-10.462c-.088-3.617-.039-7.361.049-11.221q.292-11.581,1.2-24.532h0v-.01q.759-4.974,1.478-10.151c.428-3.462,1.06-6.962.778-10.589a45.074,45.074,0,0,0-1.682-10.861,21.61,21.61,0,0,0-2.236-5.153,13.271,13.271,0,0,0-1.7-2.266,10.3,10.3,0,0,0-4.813-2.975c-.924-.3-1.867-.574-2.82-.827-1.9-.515-3.831-.933-5.8-1.274a104.371,104.371,0,0,0-12.1-1.293c-8.226-.438-16.724-.321-25.436-.01q-3.267.131-6.573.272c-2.2.107-4.434.253-6.68.156-4.482-.107-9-.4-13.574-.817-2.285-.2-4.58-.457-6.884-.729-2.3-.292-4.619-.583-6.952-.768-4.667-.379-9.412-.535-14.206-.613-9.587-.146-19.4.019-29.394.331-5,.165-10.044.37-15.129.681a121.145,121.145,0,0,0-15.237,2.217q-7.628,1.517-15.3,3.5a147.137,147.137,0,0,0-15.256,4.667,139.229,139.229,0,0,0-14.78,6.68,92.562,92.562,0,0,0-13.924,8.751c-1.118.817-2.12,1.77-3.17,2.674a33.377,33.377,0,0,0-2.839,3.024,30.374,30.374,0,0,0-4.191,7.186,80.877,80.877,0,0,0-3.043,7.876c-.895,2.684-1.75,5.4-2.81,8.061a58.635,58.635,0,0,1-3.773,7.74q-2.159,3.719-4.337,7.477-4.39,7.482-8.916,14.993t-9.227,15.061c-1.585,2.509-3.17,5.017-4.9,7.458-.224.3-.428.613-.681.9a5.987,5.987,0,0,1-.817.827q-.861.685-1.663,1.458l-.807.778a3.805,3.805,0,0,1-.953.739.7.7,0,0,1-.2.049c-.078,0-.195,0-.243-.049a1.862,1.862,0,0,1-.292-.195l-.428-.35a5.967,5.967,0,0,0-.9-.583,7.177,7.177,0,0,0-4.239-.642,15.043,15.043,0,0,0-4.23,1.186,8.758,8.758,0,0,0-1.7,1.381,4.81,4.81,0,0,0-.69.817c-.194.321-.379.642-.554.972a16.111,16.111,0,0,0-1.6,4.152,12.1,12.1,0,0,0-.214,4.424,23.02,23.02,0,0,0,1.206,4.337,36.411,36.411,0,0,1,1.4,4.376,28.363,28.363,0,0,1,.408,4.6c.087,3.043.175,6.155,1.322,8.945a6.763,6.763,0,0,0,1.225,1.857,3.03,3.03,0,0,1,.613,1.079,4.776,4.776,0,0,1,.146,1.215c.029,1.536.068,3.073.1,4.619.146,6.174.292,12.378.292,18.611,0,1.556-.019,3.121-.078,4.687-.029.778-.068,1.565-.146,2.353a9.936,9.936,0,0,1-.214,1.2l-.3,1.128a15.888,15.888,0,0,0-.593,4.56,3.216,3.216,0,0,0,.7,2.013,4.262,4.262,0,0,0,2.013.846,45.313,45.313,0,0,0,4.619.788l2.343.272c.379.029.817.107,1.138.1a1.585,1.585,0,0,0,.943-.35c2.091-2.236,4.239-4.648,6.359-6.972l.438-.486v6.991a2.575,2.575,0,0,0,.01.311.386.386,0,0,0,.321.282.439.439,0,0,0,.233-.049l.34-.146.681-.311c.9-.428,1.809-.875,2.674-1.381a19.67,19.67,0,0,0,2.509-1.663,7.246,7.246,0,0,0,1.984-2.168,3.729,3.729,0,0,0,.389-1.39l.233-1.527c.165-1.021.34-2.032.574-3.063v-.039l.029-.039c.3-.467.613-.953.924-1.449,2.907-4.589,5.785-9.189,8.45-13.866.651-1.177,1.313-2.343,1.877-3.549.583-1.177.953-2.479,1.439-3.734.933-2.518,1.964-4.978,3.014-7.429,1.108-2.421,1.954-4.9,2.917-7.37a36.179,36.179,0,0,1,3.607-7.01,17.426,17.426,0,0,1,2.5-3.043,21.534,21.534,0,0,1,3.092-2.392,29.587,29.587,0,0,1,6.981-3.248h.01c2.275-.476,4.551-.963,6.622-1.39l.107-.019.1.078a16.034,16.034,0,0,0,7.652,2.985,25.929,25.929,0,0,0,4.171.049c1.41-.019,2.81.029,4.21.087,2.8.126,5.571.36,8.333.467a17.582,17.582,0,0,0,4.064-.185,5.007,5.007,0,0,0,.914-.369l.933-.438.467-.214.233-.107.117-.058.058-.029h.029l.019-.019c.039,0-.068,0,.117-.029a.272.272,0,0,1,.263.233v.117l.019.126.029.253.049.515c.525,5.484.642,10.939.933,16.3a73.564,73.564,0,0,0,.807,7.934,51.636,51.636,0,0,0,1.643,7.652l.019.058v.049c-.34,3.743-.72,7.458-1.167,11.143a109.742,109.742,0,0,1-1.711,10.929,13.056,13.056,0,0,1-.4,1.332,2.907,2.907,0,0,1-.34.671,1.414,1.414,0,0,1-.292.272l-.272.2-1.07.817-1.021.865a31.776,31.776,0,0,0-3.685,3.821,33.57,33.57,0,0,0-5.27,8.858l-.233-.321c6.087-.117,12.125-.224,17.57-.321l-.214.146c.564-1.342,1.167-2.645,1.818-3.889.321-.622.671-1.225,1.04-1.809a6.745,6.745,0,0,1,1.3-1.585h0l.019-.019c.963-.544,1.925-1.1,2.781-1.575l-.117.2c.2-6.758.408-13.457.778-20.1.088-1.653.243-3.325.389-4.959.126-1.634.117-3.286.214-4.939a17.768,17.768,0,0,1,.924-4.881,37.851,37.851,0,0,1,2.149-4.414,30.485,30.485,0,0,0,1.8-4.473,18.457,18.457,0,0,0,.924-4.687c.282-3.2.574-6.388.856-9.548q.846-9.495,1.682-18.747v-.117l.107-.058c1.886-1.157,3.792-2.275,5.717-3.335a48.2,48.2,0,0,1,5.941-2.839,14.869,14.869,0,0,1,6.524-.554,48.4,48.4,0,0,1,6.379,1.147c8.333,1.993,16.316,4.969,24.551,5.523,4.123.243,8.2.564,12.222,1.021,2.013.233,4.006.5,5.98.846.982.175,1.974.369,2.936.632a25.968,25.968,0,0,1,2.8,1.05,4.5,4.5,0,0,0,2.761.369,14.268,14.268,0,0,0,2.654-1.118,26.616,26.616,0,0,1,2.654-1.264c.924-.34,1.8-.72,2.7-1.079q5.353-2.173,10.569-4.278l-.1.1a80.946,80.946,0,0,1,4.492-7.555,45.945,45.945,0,0,1,5.387-6.719,16.644,16.644,0,0,1,3.345-2.606c1.225-.7,2.479-1.245,3.724-1.828,2.489-1.128,4.969-2.149,7.419-3.082l.068-.029.068.029c2.878,1.176,5.727,2.363,8.459,3.734a30.76,30.76,0,0,1,3.948,2.3c1.215.933,2.353,1.877,3.53,2.8a74.232,74.232,0,0,1,6.68,5.863,27.64,27.64,0,0,1,5.2,6.972,26.071,26.071,0,0,1,1.507,4.016c.438,1.342.895,2.674,1.39,3.977a69.645,69.645,0,0,0,3.374,7.555c2.509,4.852,5.348,9.383,7.769,14a95.682,95.682,0,0,1,6.223,13.885A49.181,49.181,0,0,1,662.936,347a58.749,58.749,0,0,1,.681,7.059c.214,4.648.175,9.159.088,13.525s-.272,8.566-.5,12.631v.039l-.029.029c-2.509,3.034-4.93,5.96-7.108,8.6l-.078-.185c5.776.34,11.2.671,16.238.972l-.068.019a14.1,14.1,0,0,0,3.442-4.23,5.013,5.013,0,0,0,.564-2.509c-.078-.856-.253-1.7-.36-2.538a9,9,0,0,1,.292-4.881,6.335,6.335,0,0,1,1.215-2.013,2.018,2.018,0,0,1,1-.583,1.493,1.493,0,0,1,1.128.224l-.126.068c-1.079-10.326-2.1-18.2-2.888-23.482-.389-2.645-.729-4.638-.963-5.97-.253-1.332-.37-2.013-.37-2.013Z" transform="translate(-354.822 -186.389)" fill="#263238"/><g transform="translate(0 115.162)"><path d="M376.46,305.533a5.009,5.009,0,0,0-4.541-.088,29.428,29.428,0,0,0-4.035,2.431c-3.86,2.392-8.411,3.335-12.864,4.249a10.092,10.092,0,0,0,7.312,3.423,29.947,29.947,0,0,0,8.236-.992,16.337,16.337,0,0,0,4.23-1.322,5.485,5.485,0,0,0,2.849-3.248c.389-1.429,0-3.88-1.332-4.541" transform="translate(-354.563 -304.83)" fill="#e0e0e0"/><path d="M376.3,305.442a1.2,1.2,0,0,1,.476.282,3.057,3.057,0,0,1,.826,1.342,5.784,5.784,0,0,1,.253,2.489,4.748,4.748,0,0,1-1.624,2.888,8.855,8.855,0,0,1-3.578,1.828c-1.39.379-2.878.681-4.463,1.011a25.238,25.238,0,0,1-5.046.545,12.442,12.442,0,0,1-5.338-1.177,8.535,8.535,0,0,1-3-2.372l-.253-.321.4-.078a59.113,59.113,0,0,0,8.78-2.256,23.267,23.267,0,0,0,3.53-1.624c1.06-.593,1.974-1.264,2.868-1.809a9.829,9.829,0,0,1,2.557-1.167,5.459,5.459,0,0,1,2.11-.156,3.96,3.96,0,0,1,1.274.389c.272.146.389.253.379.263a4.968,4.968,0,0,0-1.672-.467,5.618,5.618,0,0,0-2.022.233,9.591,9.591,0,0,0-2.45,1.2c-.865.545-1.77,1.245-2.839,1.867a22.062,22.062,0,0,1-3.569,1.692,57.324,57.324,0,0,1-8.829,2.334l.146-.4a8.1,8.1,0,0,0,2.839,2.227,12.089,12.089,0,0,0,5.124,1.138,24.68,24.68,0,0,0,4.949-.506c3.1-.651,6.1-1.021,7.886-2.645a4.5,4.5,0,0,0,1.585-2.664,5.672,5.672,0,0,0-.156-2.392,3.322,3.322,0,0,0-.71-1.332c-.243-.253-.418-.331-.408-.35Z" transform="translate(-354.55 -304.827)" fill="#263238"/></g><path d="M394.007,323.957a2.482,2.482,0,0,1,.068-.778,4.7,4.7,0,0,1,1.031-1.974,8.043,8.043,0,0,1,2.868-2.052c1.245-.593,2.742-1.04,4.23-1.867a18.682,18.682,0,0,0,7.973-8.615,18.271,18.271,0,0,0,1.7-6.777l.029-.914c0-.311-.029-.613-.039-.924a8.353,8.353,0,0,0-.243-1.838,3.136,3.136,0,0,0-2.2-2.6,10.745,10.745,0,0,0-3.734.379c-1.254.243-2.479.5-3.675.8a23.02,23.02,0,0,0-6.524,2.606,13.231,13.231,0,0,0-4.482,4.4,21.615,21.615,0,0,0-1.945,5.2c-.438,1.672-.933,3.141-1.284,4.463a15.965,15.965,0,0,1-1.254,3.286,5.169,5.169,0,0,1-1.449,1.692,2.327,2.327,0,0,1-.681.37,5.339,5.339,0,0,0,1.954-2.159,16.1,16.1,0,0,0,1.157-3.267c.331-1.322.807-2.81,1.215-4.473a21.044,21.044,0,0,1,1.925-5.319,13.48,13.48,0,0,1,4.6-4.589,23.457,23.457,0,0,1,6.651-2.693c1.206-.311,2.441-.564,3.695-.817.632-.117,1.264-.233,1.906-.36a5.749,5.749,0,0,1,2.042-.019,2.946,2.946,0,0,1,1.75,1.138,4.967,4.967,0,0,1,.826,1.838,9.423,9.423,0,0,1,.253,1.925c.01.321.039.632.039.953l-.029.943a19.174,19.174,0,0,1-10,15.684c-1.536.826-3.053,1.245-4.278,1.809a7.93,7.93,0,0,0-2.839,1.925,4.7,4.7,0,0,0-1.245,2.616Z" transform="translate(-355.376 -189.395)" fill="#455a64"/><g transform="translate(35.949 109.591)" opacity="0.2"><path d="M407.505,299.888c-.982-1.157-2.829-.856-4.239-.282a18.875,18.875,0,0,0-11.425,20.973c3.5-2.625,8.887-4.492,12.2-7.341s3.977-6.641,4.074-11.017a3.372,3.372,0,0,0-.613-2.314Z" transform="translate(-391.522 -299.097)" fill="#fff"/></g><g transform="translate(247.62 70.34)" opacity="0.3"><path d="M609.23,258.73s-1.118,19.787,16.3,28.771,23.715,17.959,23.715,17.959,1.031-11.911-14.877-20.555c-2.256-1.225-4.123-2.975-5.922-3.928C617.563,275.192,614.111,273.675,609.23,258.73Z" transform="translate(-609.215 -258.73)"/></g><g transform="translate(137.595 60.558)" opacity="0.3"><path d="M505.589,270.528c-1.215-8.051-3.209-16.724-9.529-21.858,4.3,11.892,5.348,23.56,4.891,36.2-.214,5.951.379,12.524-2.9,17.6,5.212-2.732,6.836-8.605,7.963-14.381s.447-11.736-.438-17.551Z" transform="translate(-496.06 -248.67)"/></g></g><g transform="translate(36.974 218.878)"><g transform="translate(0.467 0.268)"><path d="M87.114,325.28c-1.731,4.113-5.2,7.137-8.926,9.6-2.032,1.342-8.09,2.392-13.01,1.565-.875-.146-1.847-.438-2.557.068a1.978,1.978,0,0,0-.545,2.207,5.768,5.768,0,0,0,1.371,1.993,21.843,21.843,0,0,0,27.041-9.762l-3.364-5.669Z" transform="translate(-38.964 -222.988)" fill="#e0e0e0"/><g transform="translate(22.993 102.292)" opacity="0.3"><path d="M87.114,325.28c-1.731,4.113-5.2,7.137-8.926,9.6-2.032,1.342-8.09,2.392-13.01,1.565-.875-.146-1.847-.438-2.557.068a1.978,1.978,0,0,0-.545,2.207,5.768,5.768,0,0,0,1.371,1.993,21.843,21.843,0,0,0,27.041-9.762l-3.364-5.669Z" transform="translate(-61.958 -325.28)"/></g><path d="M63.669,332.381c-2.5-1.536-5.834-1.2-8.391.253a17.419,17.419,0,0,0-5.97,6.349c-1.527,2.509-2.771,5.183-4.434,7.613a14.491,14.491,0,0,1-6.563,5.669,15.71,15.71,0,0,0,9.723,1.157q-3.136,2.334-6.262,4.677A16.738,16.738,0,0,0,61.3,356.145a16.837,16.837,0,0,0,4.541-16.423c1.41-2.411.253-5.853-2.159-7.341Z" transform="translate(-38.31 -223.157)" fill="#727997"/><path d="M149.443,391.019c.836-13.846,10.705-33.05,10.705-33.05L135.6,350.92l-3.987,7.536a98.678,98.678,0,0,1,2.1,15.985c.214,7.555.418,16.364,2.518,26.584s1.05,33.011,1.05,33.011h14.478c-.214,0-3.15-29.17-2.3-43.016Z" transform="translate(-40.891 -223.698)" fill="#e0e0e0"/><g transform="translate(90.719 127.222)" opacity="0.3"><path d="M149.443,391.019c.836-13.846,10.705-33.05,10.705-33.05L135.6,350.92l-3.987,7.536a98.678,98.678,0,0,1,2.1,15.985c.214,7.555.418,16.364,2.518,26.584s1.05,33.011,1.05,33.011h14.478c-.214,0-3.15-29.17-2.3-43.016Z" transform="translate(-131.61 -350.92)" fill="#727997"/></g><path d="M144.658,354.242l-3.86-.438-1.177-1.984-27.255-27.05-9.616,14.478,1.5,7.672c-.574,6.281,5.163,14.449,11.337,15.762,1.42.3,3.043.447,3.967,1.565,1.245,1.5.642,4.094,2.168,5.3s3.957-.253,4.414-2.149-.369-3.831-1.186-5.61c1.643.788,2.353,2.693,3.325,4.239s2.927,2.956,4.5,2.032a2.909,2.909,0,0,0,1.031-3.306,8.409,8.409,0,0,0-2.022-3.092c4.327-.068,12.213-3.131,12.874-7.409Z" transform="translate(-40.093 -222.974)" fill="#ffa686"/><path d="M251.1,347.3l-3.734-23.462a56.6,56.6,0,0,0,0-15.295c-1.118-8.955-8.207-77.962-57.076-86.538,0,0-2.985-1.488-23.871,0s-20.516,1.283-28.723-.661a46.653,46.653,0,0,0-21.634,0c-5.221,1.41-4.988,5.922-4.988,5.922a32.5,32.5,0,0,1-3.821,1.429c-3.685,1.147-9.334,3.15-13.2,8.615-6.34,8.955-7.837,18.28-4.473,33.2S83.756,312.53,84.5,327.824s-1.264,29.6-2.013,43.026,2.236,19.923,0,31.222-8.207,27.712-6.719,27.712h18.28s-4.1-26.856.369-40.663S104.5,342.866,104.5,344.354s4.852-20.584,5.221-19.427,17.162,27.264,45.505,29.5l17.162-.37s10.073,23.54,10.073,30.24a61.184,61.184,0,0,0,4.1,20.866c2.236,5.221,6.34,18.649,4.1,29.841,0,0,15.859,3.432,14.925,0-.224-.836-8.576-19.768-7.088-27.235s9.859-14.653,3.734-23.482-8.955-29.121-8.955-29.121l28.353,24.25L251.1,347.3Z" transform="translate(-39.34 -220.078)" fill="#fff"/><g transform="translate(157.975 136.693)" opacity="0.3"><path d="M225.429,364.87c-3,1.711-6.427,3.2-9.821,2.548-2.635-.506-4.833-2.227-7.176-3.539s-5.251-2.227-7.652-1.031l1.186,1.429c3.6,1.031,6.631,3.393,9.879,5.251s7.127,3.248,10.7,2.1c5.28-1.692,7.555-8.051,12.281-10.968-3.423.5-6.4,2.5-9.4,4.21Z" transform="translate(-200.78 -360.66)"/></g><path d="M162.553,303.14a5.379,5.379,0,0,1,.233.545c.146.418.331.953.564,1.6a49.442,49.442,0,0,1,1.643,6.048,20.811,20.811,0,0,1-.088,9.286c-.428,1.711-1.079,3.432-1.672,5.231a18.957,18.957,0,0,0-1.138,5.669,14.987,14.987,0,0,0,1.108,5.64,32.313,32.313,0,0,0,2.441,4.852c1.809,2.966,3.549,5.6,4.939,7.837,1.371,2.2,2.5,4,3.316,5.3.36.593.651,1.079.885,1.459a3.851,3.851,0,0,1,.282.525,3.2,3.2,0,0,1-.36-.467c-.253-.37-.574-.827-.963-1.4-.856-1.283-2.022-3.053-3.452-5.212-1.439-2.217-3.2-4.813-5.046-7.8a32.241,32.241,0,0,1-2.5-4.91,15.433,15.433,0,0,1-1.147-5.824,19.566,19.566,0,0,1,1.177-5.815c.6-1.809,1.264-3.51,1.692-5.192a21.189,21.189,0,0,0,.185-9.111,60.45,60.45,0,0,0-1.478-6.058c-.194-.671-.35-1.206-.467-1.633a3.1,3.1,0,0,1-.136-.583Z" transform="translate(-41.721 -222.376)" fill="#263238"/><path d="M189.3,329.38a11.1,11.1,0,0,1,.263,1.147c.146.846.331,1.906.554,3.16.467,2.664,1.118,6.34,2.032,10.365s1.954,7.6,2.8,10.171c.418,1.283.768,2.324,1.021,3.034a4.985,4.985,0,0,1,.331,1.128,5.854,5.854,0,0,1-.515-1.06c-.311-.69-.71-1.711-1.177-2.985a86.932,86.932,0,0,1-2.956-10.18c-.924-4.035-1.527-7.74-1.9-10.423-.185-1.342-.321-2.431-.389-3.189a5.636,5.636,0,0,1-.068-1.177Z" transform="translate(-42.487 -223.102)" fill="#263238"/><path d="M99.69,271.16s.165.117.457.37a13.174,13.174,0,0,1,1.2,1.186,17.945,17.945,0,0,1,3.18,5.309,28.309,28.309,0,0,1,1.818,8.994,67.706,67.706,0,0,1-.681,11.211,92.129,92.129,0,0,0-.914,11.133,31.061,31.061,0,0,0,1.235,8.975,20.564,20.564,0,0,0,2.606,5.523c.826,1.2,1.4,1.77,1.352,1.809a2.966,2.966,0,0,1-.428-.408,15,15,0,0,1-1.089-1.284,19.291,19.291,0,0,1-2.791-5.523,30.485,30.485,0,0,1-1.361-9.082,88.262,88.262,0,0,1,.875-11.2,70.6,70.6,0,0,0,.72-11.133,28.674,28.674,0,0,0-1.682-8.887,19.343,19.343,0,0,0-2.995-5.309c-.924-1.118-1.546-1.643-1.507-1.682Z" transform="translate(-40.008 -221.491)" fill="#263238"/><path d="M130.7,221.82a33.728,33.728,0,0,1-3.559.924c-2.2.535-5.221,1.342-8.518,2.382s-6.223,2.139-8.333,2.966a36.135,36.135,0,0,1-3.432,1.3,4.182,4.182,0,0,1,.856-.5c.564-.292,1.4-.681,2.441-1.138a85.874,85.874,0,0,1,8.313-3.121,83.861,83.861,0,0,1,8.586-2.246c1.118-.224,2.022-.389,2.645-.476a3.915,3.915,0,0,1,.982-.1Z" transform="translate(-40.206 -220.126)" fill="#263238"/><path d="M170.991,229.888a16.692,16.692,0,0,0-8.411,4.366,5.034,5.034,0,0,0-1.731,2.907,4.149,4.149,0,0,0,1.77,3.52,9.038,9.038,0,0,0,7.3,1.342,14.3,14.3,0,0,0,9.072-6.077c.729-1.108,1.313-2.567.661-3.734a3.868,3.868,0,0,0-2.392-1.536,12.962,12.962,0,0,0-6.874-.661" transform="translate(-41.7 -220.348)" fill="#ff725e"/><path d="M182.464,250.148c-3.559-.739-10.968-1.585-15.81,7.468a14.4,14.4,0,0,0-4.939,7.273c-1.031,3.695-.4,7.662-1.04,11.444S157.3,284.15,153.459,284a8.977,8.977,0,0,1,1.624-6.836c.156-.224.311-.447.476-.661a2.016,2.016,0,0,0-2.985-2.693,8.222,8.222,0,0,0-1.206,1.458c-1.857,2.849-2.207,6.4-2.441,9.791s-.438,6.923-2.052,9.918c-1.313,2.421-3.471,4.327-4.609,6.826-2.188,4.813.331,11.055,5.046,13.467s10.871,1.089,14.6-2.674a16.186,16.186,0,0,0,3.9-14.711c-.544-2.46-1.595-4.784-2.159-7.234s-.593-5.192.778-7.312c1.41-2.178,4.113-3.432,5-5.863.71-1.935.058-4.113.476-6.135.622-3.024,3.491-5.066,6.349-6.233,3.5-1.439,7.4-2.1,10.112-4.978a6.358,6.358,0,0,0,1.838-4.259c.058-3.51-2.917-5.144-5.756-5.737Z" transform="translate(-41.164 -220.898)" fill="#ffa686"/><g transform="translate(69.368 2.365)"><path d="M144.732,241.577c2.168-1.663,4.871-2.761,6.427-5,1.585-2.285,1.75-5.465,3.8-7.331a17.294,17.294,0,0,1,3.734-2.091,4.572,4.572,0,0,0,2.684-3.141,2.17,2.17,0,0,0-.418-1.507c-5.659.379-9.189.554-11.833.525H149.1a34.442,34.442,0,0,1-18.63,9.043c-3.938.574-8.022.467-11.756,1.857s-7.108,4.9-6.631,8.848c.5,4.064,4.8,6.651,8.877,7.156,2.275.282,5.037.36,6.145,2.363.963,1.721.029,3.909-1.254,5.406a24.5,24.5,0,0,1-6.651,4.93,28.266,28.266,0,0,0-6.777,4.784c-1.9,2.022-3.17,4.842-2.655,7.565s3.238,5.066,5.96,4.531c-1.634,6.622,2.091,13.759.185,20.312-.933,3.209-3.189,6.1-3.189,9.441,0,6.116,7.2,9.753,9.091,15.567.506,1.556.729,3.4,2.081,4.337,1.468,1.021,3.51.379,5-.6,5.562-3.675,7.419-11.25,6.242-17.8s-4.784-12.378-8.255-18.066c-1-1.653-2.042-3.539-1.565-5.406.622-2.421,3.393-3.52,5.844-4.055s5.221-1.07,6.554-3.189c1.945-3.1-.535-7.536,1.293-10.705,1.429-2.489,4.735-2.966,7.4-4.055a13.943,13.943,0,0,0,7.75-8.1c1.04-2.927.865-6.622-1.527-8.6-2.81-2.314-6.981-1.2-10.4.049-1.4-2.343.34-5.377,2.509-7.04Z" transform="translate(-109.652 -222.51)" fill="#ffa686"/><path d="M191.764,247.869c1.5.885,3.423.467,5.027-.224,2.927-1.254,5.688-3.345,8.858-3.248,2.314.078,4.619,1.332,6.855.729,2.091-.564,3.423-2.557,4.56-4.395.671-1.079,2.178-3.189,3.4-4.939A54.688,54.688,0,0,0,210.1,228.15c-4.259.963-8.6,1.954-12.388,4.123-3.831,2.188-7.108,5.776-7.808,10.122-.331,2.022.1,4.424,1.857,5.465Z" transform="translate(-111.869 -222.666)" fill="#ffa686"/><path d="M231.579,273.985c-.788-3.014-1.653-6.165-.914-9.189.661-2.693,3.131-5.124,5.785-5.056,10.462,21.391,12.932,44.922,13.554,49.9a56.6,56.6,0,0,1,0,15.295l3.734,23.462-12.31,13.418c-5.591,1.731-12.261,7.39-18.1,7.769-1.546.1-2.431-4.521-3.471-5.678-.963-1.07-.914-2.674-.9-4.1a32.939,32.939,0,0,0-5.183-17.91c-2.489,2.372-6.816,1.108-9.13-1.429s-3.374-5.951-5.115-8.916a27.315,27.315,0,0,0-5.591-6.554c-2.353-2.071-6.145-3.782-8.352-1.556-1.313,1.313-1.332,3.432-.953,5.251s1.06,3.627.846,5.474c-.5,4.385-6.369,6.67-10.248,4.57s-5.465-7.127-4.638-11.454c.875-4.609,3.967-8.644,4.366-13.311.263-3.024-.632-6.019-.924-9.033a22.773,22.773,0,0,1,26.564-24.62c1.488.263,3.16.846,3.695,2.256.768,2.042-1.322,3.948-3.111,5.2s-3.734,3.413-2.664,5.319c1.235,2.188,4.5,1.04,7.011.972,3.141-.087,6,2.1,7.6,4.8,0,0,12.582,3.131,18.542-6.165s-.088-18.708-.088-18.708Z" transform="translate(-111.331 -223.54)" fill="#ffa686"/></g><path d="M172.5,358.13a11.468,11.468,0,0,1-1.157.214c-.749.107-1.838.224-3.2.311a62.32,62.32,0,0,1-20.983-2.256c-1.3-.379-2.343-.72-3.053-.982a5.687,5.687,0,0,1-1.089-.457,5.881,5.881,0,0,1,1.147.272c.729.214,1.779.5,3.092.826a75.83,75.83,0,0,0,10.355,1.867,77.047,77.047,0,0,0,10.511.379c1.352-.049,2.441-.1,3.189-.156a4.736,4.736,0,0,1,1.177-.019Z" transform="translate(-41.207 -223.809)" fill="#263238"/><g transform="translate(149.932 127.243)"><path d="M223.177,369.074s-1.984,1.682-8.391-.758-18.154-9.15-20.75-5.64-1.984,7.623,2.6,12.815,11.289,10.987,16.326,9.607,4.269-4.123,6.408-1.984,2.742,16.783,3.812,22.733,5.951,19.369,9.762,27.459,5.8,11.289,6.563,13.428.156,2.285,9,4.269,16.014-.3,17.084-3.812-.758-7.623-1.682-14.945,1.527-18.912,3.355-23.492,5.183-7.322,4.726-10.219a61.414,61.414,0,0,0-2.139-7.779,19.271,19.271,0,0,1-3.053-11.746c.3-7.322,4.424-10.219.613-14.488s-11.133-3.666-12.2-11.9-32.038,16.471-32.038,16.471Z" transform="translate(-192.508 -350.941)" fill="#ffa686"/><path d="M263.343,370.98c.292.1,1.575,2.363,12.913,1.478s17.055-2.45,18.338.2-9.558,14.254-16.364,15.791-8.479-4.57-12.417-5.951-2.46-11.532-2.46-11.532Z" transform="translate(-194.46 -351.496)" fill="#ffa686"/><g transform="translate(29.707 7.826)"><path d="M270.986,391.8c-.165-.515-.272-.836-.272-.836a19.271,19.271,0,0,1-3.053-11.746c.3-7.322,4.424-10.219.613-14.488-2.421-2.713-6.242-3.452-8.994-5.737l-22.48.9c-6.787,4.648-12.757,9.412-12.757,9.412a2.03,2.03,0,0,1-.651.311,14.269,14.269,0,0,1,12.494,16.792c-.369,1.974,1.021,1.945,2.149,3.607.914,1.342,6.981.963,8.362,1.809,3.131,1.935,4.1,12.776,4.6,16.423,1.215,8.965-4.764,14.274-4.969,23.317-.078,3.568-.185,7.438,1.916,10.326,1.643,2.275,4.366,3.491,7.011,4.424a14.193,14.193,0,0,0,5.2,1.05,5.614,5.614,0,0,0,4.57-2.343c1.575-2.5.2-5.766-1.284-8.314-2.6-4.453-3.209-8.226-3.5-13.379a87.113,87.113,0,0,1,1.634-16.131c2.2-7.856,6.845-8.605,9.422-15.392Z" transform="translate(-223.069 -358.99)" fill="#fff"/><path d="M238.792,404.126c-1.031-2.82-3.928-4.628-6.884-5.173a25.847,25.847,0,0,0-8.848.389c.321,3.043.613,5.892.963,7.827.758,4.23,3.442,12.242,6.31,19.418a4.6,4.6,0,0,0,3.277-.768,12.254,12.254,0,0,0,2.577-2.441c1.789-2.071,3.559-4.376,3.831-7.1.194-1.935-.4-3.86-.583-5.8-.194-2.129.1-4.346-.632-6.349Z" transform="translate(-223.06 -360.089)" fill="#fff"/></g><path d="M229.5,402.528a6.618,6.618,0,0,1,7.506,7.633" transform="translate(-193.531 -352.367)" fill="#263238"/><path d="M236.55,406.933a4.292,4.292,0,0,1-2.12,2.431,2.382,2.382,0,0,1-2.373-.681,4.362,4.362,0,0,1-1.079-2.411,3.923,3.923,0,0,1,.1-1.779c.185-.574.6-1.507,1.138-1.283a19.077,19.077,0,0,1,3.355,2.46c.933,1,.972,1.264.972,1.264Z" transform="translate(-193.571 -352.386)" fill="#263238"/><g transform="translate(0.955 14.773)" opacity="0.3"><path d="M196.864,366.432c-1.011-.331-2.295-.545-2.995.253-.8.9-.185,2.3.457,3.316a38.368,38.368,0,0,0,6.874,8.488,17.809,17.809,0,0,0,9.762,4.58c3.637.369,5.076.194,7.5-2.538-6.563-5.64-13.36-11.415-21.586-14.109Z" transform="translate(-193.491 -366.135)" fill="#fff"/></g></g><path d="M236.52,360.04a57.686,57.686,0,0,1,25.777-4.482,5.411,5.411,0,0,0-3.384,3.1l5.455-1.167a25.116,25.116,0,0,0-4.648,7.03" transform="translate(-43.793 -223.823)" fill="#fff"/><path d="M244.616,349.742a.91.91,0,0,1-.311.739,1.671,1.671,0,0,1-.875.467,1.727,1.727,0,0,1-1.313-.292,3.57,3.57,0,0,1-1.332-3.218,11.06,11.06,0,0,1,1.439-4.307l.331.282c-2.275,1.711-4.9,3.695-7.681,5.785-.35.263-.71.525-1.06.788l-.632.467.233-.749c.943-3,1.838-5.815,2.616-8.284l.311.262a12.559,12.559,0,0,0-5.435,5.115,24.048,24.048,0,0,0-1.2,2.654,2.785,2.785,0,0,1,.156-.758,10.973,10.973,0,0,1,.807-2.022,12.463,12.463,0,0,1,5.474-5.4l.457-.233-.156.5c-.758,2.47-1.634,5.289-2.557,8.3l-.389-.282c.35-.263.7-.525,1.06-.788,2.8-2.081,5.426-4.045,7.72-5.746l.8-.593-.457.875a11.017,11.017,0,0,0-1.468,4.123,3.328,3.328,0,0,0,1.118,2.975,1.54,1.54,0,0,0,1.945-.049,1.609,1.609,0,0,0,.408-.642Z" transform="translate(-43.605 -223.424)" fill="#263238"/><g transform="translate(56.444 47.267)" opacity="0.3"><path d="M96.36,268.69a28.216,28.216,0,0,1,7.127,17.667c.136,6.194-1.079,12.329-1.838,18.474-.642,5.2-.943,10.608.661,15.577a30.9,30.9,0,0,0,7.205,11.3c5.406,5.815,18.6,14.5,25.65,17.823-6.719-4.687-20.293-16.267-24.863-23.258s-6.262-11.756-5.853-20.234c.224-4.551.817-10.705,1.536-15.2s0-8.148-1.429-12.456-5.815-9.286-8.2-9.684" transform="translate(-96.36 -268.69)"/></g><g transform="translate(116.798 88.805)" opacity="0.3"><path d="M167.191,345.169c-2.946-4-5.688-8.615-5.319-13.564A38.972,38.972,0,0,1,164.157,322a20.572,20.572,0,0,0,.2-10.589c-1.031,9.762-4.726,12.32-5.678,17.891-.963,5.649.924,11.512,4.094,16.3s7.487,7.331,11.911,10.978c-4.006-5.863-4.551-7.419-7.5-11.415Z" transform="translate(-158.431 -311.41)"/></g><path d="M137.43,436.256h14.478c-.058,0-.292-1.945-.593-5.046H137.6C137.518,434.273,137.43,436.256,137.43,436.256Z" transform="translate(-41.052 -225.919)" fill="#263238"/><g transform="translate(36.208 204.319)"><path d="M206.6,435.19c-.428.69-1.527,1.8-4.3,3.073-3.053,1.4-5.922-.583-7.779-2.178a33.529,33.529,0,0,1-.583,4.862s15.859,3.432,14.925,0C208.788,440.674,207.815,438.389,206.6,435.19Z" transform="translate(-78.823 -430.348)" fill="#263238"/><path d="M76.542,430.229c-.865,3.238-1.293,5.358-.758,5.358h18.28s-.321-2.081-.681-5.377h0s-13.02.058-16.831.019Z" transform="translate(-75.548 -430.21)" fill="#263238"/></g></g><path d="M202.314,429.218c-.156-.408-.311-.826-.476-1.264-2.373-6.408-5.28-15.557-4.346-20.215.1-.467.214-.933.36-1.4s.3-.933.486-1.39c.447-1.157,1-2.314,1.575-3.481.34-.7.7-1.4,1.04-2.11.117-.233.224-.467.34-.71.224-.476.438-.943.642-1.42a15.091,15.091,0,0,0,1.468-7.39,10.444,10.444,0,0,0-.506-2.343,12.984,12.984,0,0,0-1.663-3.238q-.569-.831-1.108-1.779c-.36-.632-.7-1.3-1.031-2-.515-1.1-1.011-2.266-1.468-3.471,3.695,3.121,7.759,5.358,11.094,4.444,5.037-1.371,4.269-4.123,6.408-1.984,1.439,1.439,2.188,8.586,2.849,14.906h0c.029.311.068.632.1.943a1.451,1.451,0,0,0,.019.2c.039.34.068.681.107,1.011,0,.078.019.146.019.224.029.253.058.515.087.758l.029.292c.029.243.058.486.078.72a1.914,1.914,0,0,0,.029.233c.039.3.068.6.107.885a.656.656,0,0,0,.019.136c.029.243.058.467.1.7.01.078.019.165.029.243.029.195.058.37.078.554a1.944,1.944,0,0,0,.039.233c.039.243.078.476.117.69.058.331.136.7.214,1.07.019.107.049.214.068.321.068.311.146.632.233.972.019.087.049.175.068.272q.16.627.35,1.313c.029.117.068.233.1.35q.16.54.321,1.108c.039.146.087.292.136.438.146.486.3.982.457,1.488.019.068.039.126.058.194.146.457.3.924.457,1.4.058.175.117.35.175.535.136.408.272.817.418,1.225.049.156.107.3.156.457.185.525.369,1.06.564,1.6.068.185.136.379.2.564.136.379.282.768.418,1.147.078.214.156.428.233.632.194.515.389,1.04.583,1.556.068.175.136.34.194.515.156.4.311.807.467,1.206l.263.671c.049.126.1.243.146.37h0c1.167,2.917,2.353,5.7,3.452,8.041,3.812,8.08,5.8,11.289,6.563,13.428s.156,2.285,9,4.269,16.014-.3,17.084-3.812-.758-7.623-1.682-14.954,1.527-18.912,3.355-23.492,5.183-7.322,4.726-10.219a54.937,54.937,0,0,0-1.857-6.952h0c-.029-.107-.068-.194-.088-.282,0-.019-.019-.049-.019-.068-.049-.136-.078-.243-.107-.321-.029-.1-.049-.156-.049-.156l-.146-.2a16,16,0,0,1-1.5-2.927c-.2-.506-.4-1.07-.583-1.682-.136-.476-.263-.992-.379-1.527,2.188,2.12,4.444,4.541,9.014,3.5,6.8-1.546,17.648-13.146,16.364-15.791s-7-1.089-18.338-.2a56.594,56.594,0,0,1-6.1.185c.068-.224.136-.438.2-.651.175-.574.331-1.108.438-1.634a7.434,7.434,0,0,0,.126-.768,5.279,5.279,0,0,0-.175-2.236,6.253,6.253,0,0,0-1.39-2.295,8.157,8.157,0,0,0-.885-.856,3.824,3.824,0,0,0-.311-.243c-.224-.175-.447-.34-.681-.5-.117-.078-.243-.165-.36-.243-.233-.146-.476-.292-.72-.428-.117-.068-.224-.136-.34-.194-.3-.165-.613-.321-.914-.486-.447-.224-.895-.457-1.342-.681h-.019c-.35-.175-.7-.36-1.04-.545h0a24.319,24.319,0,0,1,2.353-2.936q-2.523.54-5.056,1.079l-.253-.224a5.444,5.444,0,0,1,3.238-2.791c-1.711-.1-3.423-.1-5.144-.039a10.894,10.894,0,0,1-.719-2.8,1.716,1.716,0,0,0-1.04-1.5l.165-.185-3.734-23.462a43.129,43.129,0,0,0,.467-5.358c.039-1.118.049-2.382,0-3.773-.029-.924-.078-1.906-.146-2.936-.039-.515-.087-1.04-.136-1.585s-.117-1.089-.185-1.643c-.019-.156-.039-.321-.058-.506-.049-.379-.1-.827-.165-1.332a.268.268,0,0,0-.01-.087c-.029-.224-.058-.457-.088-.71a.657.657,0,0,0-.019-.136c-.029-.253-.068-.506-.1-.778a.487.487,0,0,0-.019-.117c-.039-.3-.078-.613-.126-.943v-.029c-.1-.729-.214-1.527-.34-2.372-.058-.37-.117-.739-.175-1.128-.545-3.481-1.313-7.788-2.411-12.563-.729-3.189-1.614-6.583-2.664-10.1-.35-1.167-.72-2.353-1.118-3.549s-.807-2.392-1.235-3.607c-.865-2.411-1.818-4.852-2.868-7.283q-1.006-2.348-2.149-4.667h0c-.126-.253-.243-.515-.379-.768-.6-1.2-1.225-2.392-1.877-3.568a74.425,74.425,0,0,0-14.254-18.717h0a58.062,58.062,0,0,0-4.891-4.074.258.258,0,0,1-.058-.049c-.826-.613-1.682-1.206-2.548-1.77-.078-.049-.146-.1-.224-.146-.865-.554-1.74-1.1-2.645-1.6h0a51.707,51.707,0,0,0-16.646-5.941s-2.985-1.488-23.871,0c-2.46.175-4.619.331-6.534.457-.651.039-1.283.088-1.886.126h-.039c-.574.039-1.108.068-1.634.1-.117,0-.233.01-.35.019-.467.029-.9.049-1.332.078a1.576,1.576,0,0,0-.214.01c-.486.029-.953.049-1.4.068h-.2c-.37.019-.729.029-1.079.049h-.263c-.8.029-1.527.049-2.188.049h-1c-4.2-.039-6.135-.574-10.6-1.643a47.738,47.738,0,0,0-9.072-1.225c-.486-.019-.972-.029-1.449-.039a41.832,41.832,0,0,0-11.114,1.264,7,7,0,0,0-2.188,1.011c-.107.078-.214.146-.311.224a6.74,6.74,0,0,0-1.984,2.606,6.951,6.951,0,0,0-.3.768c-.058.185-.117.37-.165.545-.068.272-.117.515-.156.739-1.274.506-2.538,1.031-3.792,1.585a22.421,22.421,0,0,0-9.208,4.327c-.438.35-.875.739-1.3,1.147-.019.019-.039.029-.058.049a20.1,20.1,0,0,0-2.538,2.956c-.788,1.118-1.507,2.246-2.149,3.384a30.8,30.8,0,0,0-2.936,7.118,30.476,30.476,0,0,0-.788,3.86,35.2,35.2,0,0,0-.331,4.132,41.542,41.542,0,0,0,.126,4.482c.117,1.556.311,3.18.574,4.881s.613,3.481,1.031,5.348a44.885,44.885,0,0,1,.506,13c-.049.651-.107,1.3-.175,1.964-.428,4.356-1.167,8.984-1.964,13.613-.117.661-.233,1.322-.34,1.984-.233,1.322-.467,2.645-.69,3.957-.457,2.625-.9,5.212-1.293,7.73a83.382,83.382,0,0,0-1.274,14.429,30.579,30.579,0,0,1-5.776,4.8c-1.779,1.177-6.641,2.12-11.124,1.789a6.014,6.014,0,0,0-2.742-4.463c-2.5-1.536-5.834-1.2-8.391.253a17.42,17.42,0,0,0-5.97,6.349c-1.527,2.509-2.771,5.183-4.434,7.613a14.491,14.491,0,0,1-6.563,5.669,15.71,15.71,0,0,0,9.723,1.157q-3.136,2.334-6.262,4.677a16.752,16.752,0,0,0,19.525-1.945A16.751,16.751,0,0,0,66.285,338.8a22.158,22.158,0,0,0,11.882-.817,21.512,21.512,0,0,0,5.358-2.859v1.284c-.068,10.239-1.04,19.972-1.711,29.335-.117,1.7-.233,3.393-.321,5.076-.136,2.518-.146,4.794-.088,6.9.107,3.51.408,6.563.642,9.509.1,1.177.175,2.343.224,3.51.029.583.049,1.167.058,1.76a44.9,44.9,0,0,1-.233,5.513c-.136,1.283-.331,2.625-.613,4.035-1.439,7.244-4.395,16.588-5.951,22.364m73.236,1.04c-.875-8.965-2.509-27.77-1.886-38.057.778-12.835,9.305-30.269,10.55-32.739a67.337,67.337,0,0,0,12.2-.262l1.527-.34c.165.263.34.525.506.778l-.068-.272c1.449,3.432,9.859,23.608,9.859,29.724a50.966,50.966,0,0,0,.506,6.758c.126.943.272,1.886.447,2.83a65.252,65.252,0,0,0,1.575,6.767c.37,1.254.758,2.441,1.167,3.5.136.35.272.69.418,1.021a60.5,60.5,0,0,1,2.868,8.79,63.345,63.345,0,0,1,1.721,10.229c.117,1.449.175,2.907.156,4.366,0,.535-.039,1.07-.058,1.595m-37.513,1.488-60.363-7.224c-.2-1.886-.428-4.171-.613-6.7-.185-2.479-.331-5.183-.389-7.973-.039-1.672-.049-3.374-.01-5.066.107-5.649.671-11.23,2.071-15.548,3.5-10.8,7.691-33.021,9.344-41.46,1.274,5.445,6.009,11.055,11.036,12.125,1.42.3,3.043.447,3.967,1.565,1.245,1.5.642,4.094,2.168,5.3s3.957-.253,4.414-2.149-.369-3.831-1.186-5.61c1.643.788,2.353,2.693,3.325,4.239.914,1.458,2.713,2.771,4.239,2.129.2,1.818.35,3.714.408,5.562.214,7.555.418,16.364,2.518,26.584,1.478,7.205,1.39,20.643,1.215,27.955M107.327,228.6,196.558,358.87a15.852,15.852,0,0,0-3.8-.8c-.311-1.8-.467-2.9-.467-2.9l.438.379.156.136,3.714,3.17a.138.138,0,0,0-.039.019Z" transform="translate(-37.844 -219.809)" fill="none"/><path d="M200.909,362.676s0-.019.039-.039v.029a39.463,39.463,0,0,1-4.463-3.51l.408-.233q.044.263.088.554c.126.817.243,1.6.36,2.353l-.214-.194a12.008,12.008,0,0,1,2.781.593,2.811,2.811,0,0,1,1.011.447,3.364,3.364,0,0,1-1.079-.165,16.773,16.773,0,0,0-2.732-.4h-.185l-.029-.195c-.126-.749-.263-1.527-.4-2.353-.029-.185-.058-.379-.088-.554l-.107-.681.525.447a42.629,42.629,0,0,1,4.162,3.86v.029h0c-.049.01-.049,0-.049,0Z" transform="translate(-42.214 -223.635)" fill="#263238"/><path d="M136.377,428.946s-.01-.1-.01-.292V427.8c0-.778,0-1.886.019-3.316,0-2.888,0-7.118-.233-12.436-.136-2.654-.3-5.6-.768-8.741-.214-1.575-.593-3.189-.895-4.881s-.583-3.452-.827-5.26c-.486-3.637-.8-7.507-.992-11.581-.1-2.032-.165-4.123-.224-6.242-.078-2.129-.292-4.278-.438-6.476l.331.195a2.954,2.954,0,0,1-2.654-.35,5.941,5.941,0,0,1-1.915-1.925c-.476-.768-.865-1.575-1.352-2.314a4.613,4.613,0,0,0-1.838-1.779l.331-.321c.729,1.634,1.585,3.452,1.264,5.455a3.691,3.691,0,0,1-1.6,2.47,2.856,2.856,0,0,1-2.966.34,3.608,3.608,0,0,1-1.536-2.586,8.267,8.267,0,0,0-.807-2.7,3.6,3.6,0,0,0-2.314-1.381,22.3,22.3,0,0,1-2.917-.71,15.263,15.263,0,0,1-6.476-4.9,18.536,18.536,0,0,1-3.53-7.049h.486c-2.12,10.871-4.152,21.1-6.349,30.24-.545,2.285-1.118,4.5-1.692,6.641s-1.264,4.191-1.828,6.165a56.475,56.475,0,0,0-1.546,11.3c-.282,6.972.117,12.563.311,16.4.156,1.9.272,3.384.36,4.4.039.486.058.865.078,1.138a1.69,1.69,0,0,1,.01.389,3.819,3.819,0,0,1-.058-.389c-.029-.272-.068-.651-.126-1.138-.107-1.021-.253-2.5-.447-4.4a153.365,153.365,0,0,1-.467-16.432,56.685,56.685,0,0,1,1.5-11.386c.564-2.013,1.235-4.026,1.8-6.174s1.138-4.346,1.672-6.631c2.168-9.14,4.181-19.359,6.281-30.24l.214-1.128.272,1.118a17.973,17.973,0,0,0,3.432,6.845,14.671,14.671,0,0,0,6.252,4.745,23.747,23.747,0,0,0,2.868.69,4.044,4.044,0,0,1,2.616,1.595,8.477,8.477,0,0,1,.875,2.868,3.1,3.1,0,0,0,1.283,2.256,2.345,2.345,0,0,0,2.431-.311,3.19,3.19,0,0,0,1.39-2.139c.292-1.779-.486-3.539-1.215-5.163l-.282-.613.6.292a5.2,5.2,0,0,1,2.032,1.964c.506.778.895,1.585,1.352,2.324a5.437,5.437,0,0,0,1.75,1.77,2.466,2.466,0,0,0,2.227.321l.3-.136.019.321c.136,2.217.36,4.385.428,6.515s.117,4.21.2,6.233c.175,4.064.486,7.925.943,11.542.233,1.809.5,3.568.8,5.251s.661,3.306.865,4.9c.447,3.17.593,6.116.71,8.78.2,5.338.146,9.558.1,12.456-.039,1.429-.068,2.538-.088,3.316-.019.36-.029.642-.039.856a1.124,1.124,0,0,1-.029.292Z" transform="translate(-39.348 -223.406)" fill="#263238"/><path d="M193.316,433.917s-.01-.136,0-.4c0-.282.01-.671.019-1.177-.049-1.06-.117-2.567-.214-4.512a66.944,66.944,0,0,0-3.637-16.209,69.115,69.115,0,0,1-3.627-11,64.186,64.186,0,0,1-1.614-13.233,37.894,37.894,0,0,0-1.585-6.981c-.71-2.353-1.527-4.735-2.4-7.147-1.74-4.823-3.7-9.772-5.824-14.818l.476-.156a2.79,2.79,0,0,0,.068.272l.331,1.41-.788-1.215c-.156-.243-.331-.515-.506-.778l.272.107c-.486.107-1,.224-1.527.34h-.029c-.593.058-1.235.126-1.877.185a68.642,68.642,0,0,1-10.375.078l.243-.136a140.869,140.869,0,0,0-5.892,13.661,87.93,87.93,0,0,0-3.86,13.165,56.2,56.2,0,0,0-.953,12.261c.029,3.85.175,7.438.34,10.686.34,6.515.758,11.736,1.05,15.334.146,1.779.253,3.17.34,4.132.029.457.058.807.078,1.07a1.517,1.517,0,0,1,.01.37,3.274,3.274,0,0,1-.058-.36c-.029-.263-.068-.613-.126-1.07-.1-.963-.243-2.353-.428-4.123-.34-3.6-.817-8.819-1.206-15.334-.185-3.257-.36-6.835-.408-10.705a56.471,56.471,0,0,1,.914-12.349,86.95,86.95,0,0,1,3.85-13.243,142.789,142.789,0,0,1,5.892-13.72l.078-.146h.165a66.363,66.363,0,0,0,10.3-.068c.632-.058,1.274-.126,1.857-.185h-.029l1.527-.34.175-.039.1.146c.175.272.35.535.506.778l-.457.194c-.019-.1-.049-.185-.068-.272l.476-.156c2.12,5.046,4.074,10.005,5.815,14.848.875,2.421,1.682,4.8,2.392,7.176a37.562,37.562,0,0,1,1.585,7.088,64.124,64.124,0,0,0,1.556,13.175,68.527,68.527,0,0,0,3.549,10.968,64.984,64.984,0,0,1,3.491,16.316c.049,1.945.088,3.471.117,4.531-.029.5-.049.885-.068,1.177a2.576,2.576,0,0,1-.039.4Z" transform="translate(-40.922 -223.613)" fill="#263238"/><path d="M75.518,424.389s.117-.506.389-1.488.681-2.441,1.225-4.366,1.206-4.307,2-7.147c.758-2.839,1.653-6.135,2.343-9.918a51.509,51.509,0,0,0,.71-6.058,56.841,56.841,0,0,0-.156-6.748c-.165-2.363-.331-4.823-.506-7.4-.078-1.283-.2-2.6-.243-3.938.019-1.342.029-2.713.049-4.1.263-11.143,2.061-23.842,2.032-38.125l.243.126a21.5,21.5,0,0,1-8,3.637,22.439,22.439,0,0,1-9.354.078l.194-.185a17.475,17.475,0,0,1-1.089,8.566,15.459,15.459,0,0,1-5.513,7.079,17,17,0,0,1-18.154.72l-.233-.146.224-.165c1.9-1.42,4.064-3.034,6.262-4.677l.146.34a16.037,16.037,0,0,1-9.84-1.167l-.418-.194.428-.165c2.975-1.128,5.26-3.646,6.991-6.4,1.77-2.771,3.121-5.863,5.114-8.654a17.261,17.261,0,0,1,3.549-3.743,10.321,10.321,0,0,1,4.813-2.032,7.577,7.577,0,0,1,5.173,1.021,6.255,6.255,0,0,1,2.732,4.55l-.194-.185a26.211,26.211,0,0,0,9.014-.914,7.636,7.636,0,0,0,2.129-.953c.671-.447,1.322-.914,1.964-1.4a27.381,27.381,0,0,0,3.617-3.267l-.058.156c-.117-8.284,1.692-16.588,3.082-25.1.749-4.249,1.488-8.557,2.052-12.932A77.606,77.606,0,0,0,89,275.8c-.058-1.118-.156-2.236-.321-3.345s-.418-2.207-.622-3.335-.438-2.246-.651-3.364-.292-2.275-.447-3.423a27.233,27.233,0,0,1-.282-3.452c-.019-1.157-.1-2.324-.058-3.481.1-1.167.185-2.324.282-3.491a26.08,26.08,0,0,1,.622-3.462,30.754,30.754,0,0,1,2.46-6.631,29.514,29.514,0,0,1,1.818-3.063,23.305,23.305,0,0,1,2.042-2.936,21.763,21.763,0,0,1,5.494-4.648,23.334,23.334,0,0,1,6.758-2.616l-.049.019c1.177-.5,2.479-1.04,3.792-1.595l-.156.185a7.89,7.89,0,0,1,2.343-4.512,7.087,7.087,0,0,1,2.217-1.342,19.01,19.01,0,0,1,2.479-.651,44.9,44.9,0,0,1,10.151-.836,47.611,47.611,0,0,1,10.19,1.332c1.672.389,3.335.817,5.017,1.118a29.929,29.929,0,0,0,5.114.428c6.894-.039,13.856-.729,20.866-1.157,3.51-.224,7.04-.4,10.579-.457,1.77-.039,3.549-.029,5.328.029.895.039,1.779.078,2.674.165a11.973,11.973,0,0,1,2.713.476l-.068-.019a52.249,52.249,0,0,1,16.724,5.97l-.126-.029.126.039a56.639,56.639,0,0,1,13.175,10.4A80.022,80.022,0,0,1,232.482,257.5c.875,1.74,1.653,3.53,2.479,5.289.758,1.789,1.439,3.607,2.159,5.406.35.9.729,1.789,1.05,2.7l.943,2.742c.311.914.583,1.838.875,2.752s.564,1.838.8,2.771c.486,1.857.982,3.714,1.468,5.562l.729,2.771c.233.924.428,1.857.632,2.791q1.2,5.586,2.032,11.192c.272,1.867.535,3.734.758,5.6s.457,3.734.544,5.6a55.78,55.78,0,0,1-.369,11.182v-.078q1.881,11.887,3.724,23.462l.019.117-.078.087-.165.185-.088-.389a1.828,1.828,0,0,1,.982.943,4.4,4.4,0,0,1,.282,1.235,10.256,10.256,0,0,0,.632,2.246l-.233-.156c1.74.01,3.452.029,5.163.039h1.556l-1.507.476a5.19,5.19,0,0,0-3.092,2.664l-.049-.282.243.224-.214-.058c1.711-.37,3.384-.72,5.056-1.079l.758-.165-.525.564a25.159,25.159,0,0,0-2.324,2.907l-.078-.34c2.324,1.254,4.949,2.266,6.8,4.356A5.658,5.658,0,0,1,265,364.571a14.346,14.346,0,0,1-.827,3.938l-.224-.311a63.731,63.731,0,0,0,7.594-.311c2.518-.214,5.027-.486,7.516-.749,1.245-.126,2.5-.253,3.743-.331a14.972,14.972,0,0,1,3.782.146,3.162,3.162,0,0,1,1.711.982c.1.146.194.282.282.438a1.561,1.561,0,0,1,.117.535,2.761,2.761,0,0,1-.165.992,12.841,12.841,0,0,1-1.867,3.257,38.808,38.808,0,0,1-5,5.406,34.288,34.288,0,0,1-5.853,4.337,11.089,11.089,0,0,1-6.962,1.75,7.629,7.629,0,0,1-3.355-1.381,23.931,23.931,0,0,1-2.674-2.363l.37-.2a17.574,17.574,0,0,0,2.557,6.252l.019.039v.029c.107.292.194.564.282.836v0c.408,1.245.788,2.489,1.128,3.743a20.688,20.688,0,0,1,.778,3.841,7.668,7.668,0,0,1-1.361,3.666c-.671,1.1-1.39,2.149-2.013,3.238a25.767,25.767,0,0,0-2.713,6.962,73.16,73.16,0,0,0-1.507,7.273,42.3,42.3,0,0,0-.185,14.42c.369,2.353.9,4.657,1.313,6.981a17.922,17.922,0,0,1,.321,3.53,5.776,5.776,0,0,1-1.04,3.393,7.549,7.549,0,0,1-2.868,2.042,16.011,16.011,0,0,1-3.316.982,24.853,24.853,0,0,1-6.787.194,51.052,51.052,0,0,1-6.534-1.254c-1.07-.263-2.129-.515-3.17-.846a9.036,9.036,0,0,1-1.536-.613,2.337,2.337,0,0,1-1.157-1.245,37.514,37.514,0,0,0-2.635-5.785c-.963-1.877-1.906-3.743-2.81-5.6-.447-.933-.895-1.857-1.332-2.781s-.807-1.877-1.215-2.8q-1.2-2.786-2.363-5.523l.126.107h-.088l-.039-.1a152.05,152.05,0,0,1-5.785-17.094,58.327,58.327,0,0,1-1.293-8.391c-.292-2.752-.554-5.445-.885-8.07-.165-1.313-.35-2.606-.574-3.87a19.581,19.581,0,0,0-.943-3.675,3.193,3.193,0,0,0-1.06-1.439,1.082,1.082,0,0,0-.739-.311,1.623,1.623,0,0,0-.72.418,9.728,9.728,0,0,1-3.121,1.925,10.556,10.556,0,0,1-1.74.515,6.505,6.505,0,0,1-1.789.058,10.53,10.53,0,0,1-3.345-.963,25.079,25.079,0,0,1-5.542-3.675l.185-.136q.656,1.546,1.283,3.063c.194.515.476.972.71,1.458.253.476.476.963.768,1.4s.554.895.826,1.332a13.586,13.586,0,0,1,.817,1.332,11.616,11.616,0,0,1,1.108,2.849,11.843,11.843,0,0,1-.146,5.756,27.645,27.645,0,0,1-1.954,5.007c-.379.768-.749,1.527-1.118,2.275-.34.749-.681,1.488-1,2.207a17.833,17.833,0,0,0-1.478,4.269,22.13,22.13,0,0,0,.593,7.759,89.609,89.609,0,0,0,2.975,10.171c.778,2.188,1.138,3.189,1.206,3.384,0,0-.457-1.118-1.264-3.364a86.715,86.715,0,0,1-3.034-10.171,22.313,22.313,0,0,1-.622-7.818,18.357,18.357,0,0,1,1.468-4.307c.331-.72.661-1.459,1-2.217l1.108-2.275a28.147,28.147,0,0,0,1.925-4.978,11.019,11.019,0,0,0-.953-8.45,15.337,15.337,0,0,0-.807-1.313c-.282-.447-.554-.895-.836-1.342a15.262,15.262,0,0,1-.778-1.41c-.233-.486-.525-.953-.72-1.468-.428-1.011-.856-2.032-1.3-3.073l-.194-.447.379.321a25.305,25.305,0,0,0,5.494,3.637,10.447,10.447,0,0,0,3.267.943,6,6,0,0,0,1.721-.058,9.541,9.541,0,0,0,1.682-.506,9.317,9.317,0,0,0,3.043-1.886,1.837,1.837,0,0,1,.865-.476,1.29,1.29,0,0,1,.943.369,3.808,3.808,0,0,1,.69.681,4.046,4.046,0,0,1,.457.856,19.5,19.5,0,0,1,.963,3.734c.233,1.274.418,2.577.583,3.889.34,2.625.6,5.319.895,8.07a58.546,58.546,0,0,0,1.293,8.352,150.85,150.85,0,0,0,5.8,17.045l-.126-.107h.088l.039.1c.778,1.818,1.565,3.646,2.372,5.5.4.924.788,1.867,1.215,2.791s.885,1.847,1.332,2.771c.9,1.857,1.847,3.714,2.81,5.591a38.871,38.871,0,0,1,2.654,5.815c.35.972,1.478,1.3,2.47,1.643,1.031.321,2.09.574,3.15.836a51.933,51.933,0,0,0,6.485,1.245,24.83,24.83,0,0,0,6.68-.194,15.608,15.608,0,0,0,3.228-.963,7.207,7.207,0,0,0,2.713-1.925,5.369,5.369,0,0,0,.953-3.16,18.109,18.109,0,0,0-.321-3.452c-.408-2.3-.943-4.619-1.322-6.991a42.837,42.837,0,0,1,.175-14.556,71.221,71.221,0,0,1,1.507-7.312,26.283,26.283,0,0,1,2.752-7.069c.642-1.108,1.361-2.159,2.022-3.248a7.162,7.162,0,0,0,1.293-3.452,20.8,20.8,0,0,0-.768-3.724c-.34-1.245-.72-2.479-1.128-3.724v0c-.088-.272-.185-.544-.272-.826l.029.058a18.159,18.159,0,0,1-2.645-6.427l-.165-.729.535.515a23.45,23.45,0,0,0,2.616,2.314,7.244,7.244,0,0,0,3.16,1.3,8.606,8.606,0,0,0,3.442-.282,14.431,14.431,0,0,0,3.228-1.42,34.122,34.122,0,0,0,5.766-4.288,38.964,38.964,0,0,0,4.939-5.338,12.879,12.879,0,0,0,1.8-3.121,2.539,2.539,0,0,0,.136-.827,1.316,1.316,0,0,0-.068-.36l-.224-.34a2.652,2.652,0,0,0-1.458-.817,14.683,14.683,0,0,0-3.646-.136c-1.235.078-2.479.2-3.724.331-2.489.263-5,.535-7.526.758a62.542,62.542,0,0,1-7.652.311h-.3l.088-.311a14.528,14.528,0,0,0,.807-3.792,5.215,5.215,0,0,0-1.449-3.442,12.245,12.245,0,0,0-3.092-2.392c-1.157-.651-2.372-1.215-3.578-1.867l-.233-.126.156-.224a24.39,24.39,0,0,1,2.372-2.966l.224.4c-1.672.36-3.345.72-5.056,1.079l-.117.029-.1-.088-.253-.233-.126-.117.078-.165a5.721,5.721,0,0,1,3.384-2.917l.058.476c-1.692-.01-3.393-.029-5.115-.039h-.175l-.058-.156a10.994,10.994,0,0,1-.661-2.353,4.345,4.345,0,0,0-.243-1.108,1.353,1.353,0,0,0-.729-.7l-.321-.136.233-.263.165-.185-.058.2q-1.838-11.6-3.734-23.462v-.088a56.068,56.068,0,0,0,.37-11.075c-.088-1.857-.311-3.7-.545-5.572s-.486-3.724-.749-5.591q-.831-5.586-2.022-11.162c-.2-.924-.4-1.857-.632-2.781l-.729-2.761-1.458-5.542c-.233-.924-.486-1.847-.788-2.761s-.564-1.838-.875-2.742l-.933-2.732c-.321-.9-.7-1.8-1.04-2.693-.72-1.789-1.39-3.6-2.149-5.377-.827-1.75-1.595-3.53-2.46-5.27a79.894,79.894,0,0,0-13.2-19.252,58.1,58.1,0,0,0-6.272-5.747,59.707,59.707,0,0,0-6.787-4.57l.126.039-.126-.029a51.824,51.824,0,0,0-16.569-5.912l-.068-.019a12.8,12.8,0,0,0-2.538-.428c-.875-.088-1.76-.126-2.645-.165-1.77-.058-3.539-.068-5.3-.029-3.53.058-7.049.243-10.56.457-7.011.418-13.953,1.118-20.905,1.157a30.931,30.931,0,0,1-5.192-.438c-1.711-.3-3.384-.729-5.046-1.118a47.327,47.327,0,0,0-10.093-1.322,44.422,44.422,0,0,0-10.044.826,17.4,17.4,0,0,0-2.4.632,6.594,6.594,0,0,0-2.061,1.254,7.444,7.444,0,0,0-2.2,4.239l-.019.136-.126.058c-1.3.545-2.606,1.089-3.782,1.585H106.2l-.019.019a23.165,23.165,0,0,0-6.612,2.557,18.837,18.837,0,0,0-2.878,2.052,18.246,18.246,0,0,0-2.489,2.489,22.8,22.8,0,0,0-2,2.888,28.714,28.714,0,0,0-1.789,3.024,30.387,30.387,0,0,0-2.431,6.534A25.655,25.655,0,0,0,87.361,252c-.1,1.147-.185,2.3-.282,3.452-.039,1.147.039,2.3.058,3.442a26.925,26.925,0,0,0,.282,3.423c.156,1.138.224,2.275.447,3.393s.428,2.236.642,3.345.467,2.227.632,3.364.263,2.266.321,3.393a78.455,78.455,0,0,1-.778,13.389c-.574,4.385-1.322,8.693-2.071,12.942-1.4,8.5-3.2,16.812-3.092,25.008v.088l-.058.068a27.568,27.568,0,0,1-3.675,3.325c-.651.5-1.313.963-1.993,1.42a8.064,8.064,0,0,1-2.236,1,26.936,26.936,0,0,1-9.169.924h-.175l-.019-.194a5.851,5.851,0,0,0-2.538-4.239,7.227,7.227,0,0,0-4.891-.963,9.792,9.792,0,0,0-4.619,1.954,16.469,16.469,0,0,0-3.471,3.646c-1.964,2.732-3.316,5.824-5.1,8.625-1.76,2.781-4.094,5.367-7.186,6.544v-.36A15.613,15.613,0,0,0,48,350.142l.836-.175-.69.515c-2.2,1.634-4.366,3.257-6.272,4.667v-.3a16.6,16.6,0,0,0,17.745-.69,15.225,15.225,0,0,0,5.4-6.923,17.272,17.272,0,0,0,1.079-8.4l-.029-.224.224.049a21.959,21.959,0,0,0,9.218-.068,21.139,21.139,0,0,0,7.9-3.578l.243-.175v.292c.01,14.3-1.809,27.011-2.091,38.125-.019,1.39-.039,2.752-.058,4.094.029,1.342.156,2.645.233,3.928.165,2.567.331,5.037.486,7.39a55.152,55.152,0,0,1,.136,6.777,49.53,49.53,0,0,1-.729,6.077c-.7,3.792-1.614,7.079-2.382,9.928s-1.478,5.221-2.042,7.137c-1.1,3.782-1.614,5.552-1.692,5.824Z" transform="translate(-37.83 -219.802)" fill="#263238"/><path d="M229.5,460.6v-9.86l8.5,6.281,3.714-16.248L249.151,454l2.207-8.488,3.306,6.836,7.263-13.836v13.554l8.9-12.485V455.37l4.9-1.925V460.6Z" transform="translate(-43.132 -225.853)" fill="#727997"/></g></g></g></svg>