<svg xmlns="http://www.w3.org/2000/svg" xmlns:xlink="http://www.w3.org/1999/xlink" width="340" height="340" viewBox="0 0 340 340"><defs><clipPath id="a"><rect width="340" height="340" fill="none"/></clipPath></defs><g transform="translate(5189 9752)"><g transform="translate(-5189.428 -9752.428)"><g transform="translate(0.428 0.428)"><g clip-path="url(#a)"><g transform="translate(-39.818 7.138)"><path d="M258.1,142.238a3.249,3.249,0,0,0-.389-.423,31.263,31.263,0,0,0,2.073-6.545h.014a3.283,3.283,0,0,0,.559-.089,2.96,2.96,0,0,0,2.12-3.613,2.8,2.8,0,0,0-.2-.552,2.467,2.467,0,0,0-.239-.389c-.02-.027-.034-.061-.055-.089a3.035,3.035,0,0,0-.818-.743h0a2.789,2.789,0,0,0-.9-.355,17.071,17.071,0,0,0-1-5.406c-.116-.886-1.057-6.368-6.886-12.081a3.455,3.455,0,0,0,.116-.457,2.859,2.859,0,0,0-.068-1.173,2.793,2.793,0,0,0-.2-.552,2.47,2.47,0,0,0-.239-.389c-.02-.027-.034-.061-.055-.089a3.035,3.035,0,0,0-.818-.743h0a2.944,2.944,0,0,0-2.3-.348,2.873,2.873,0,0,0-.648.266c-4.411-3.1-10.568-6-19.138-7.97,18.019-16.22,16.595-29,15.695-32.616a16.461,16.461,0,0,0-1.3-3.252,1.1,1.1,0,0,0-.13-.252c-2.727-5.079-9.845-13.131-28.164-17.3a58.8,58.8,0,0,0,10.765-12.531,1.368,1.368,0,0,0,.164.027c.075.014.15.034.225.041a3.023,3.023,0,0,0,.355.014h.191a3.1,3.1,0,0,0,.552-.089h0a2.988,2.988,0,0,0,.907-.423,3.493,3.493,0,0,0,.3-.232,3.048,3.048,0,0,0,.607-.716c.014-.027.027-.061.041-.089a2.94,2.94,0,0,0,.334-.982,2.86,2.86,0,0,0-.068-1.173,2.8,2.8,0,0,0-.2-.552,2.469,2.469,0,0,0-.239-.389c-.02-.027-.034-.061-.055-.089a3.039,3.039,0,0,0-.43-.457,31.419,31.419,0,0,0,2.052-6.593,1.816,1.816,0,0,0,.266-.048h0a2.988,2.988,0,0,0,.907-.423,3.5,3.5,0,0,0,.3-.232,3.049,3.049,0,0,0,.607-.716c.014-.027.027-.061.041-.089a2.87,2.87,0,0,0,.245-.62,2.9,2.9,0,0,0,.116-.941,2.985,2.985,0,0,0-.1-.593,3.308,3.308,0,0,0-.2-.552,2.821,2.821,0,0,0-.239-.389.747.747,0,0,0-.061-.1,3.035,3.035,0,0,0-.818-.743h0a3.034,3.034,0,0,0-.641-.293,16.557,16.557,0,0,0-1.029-5.42,1.022,1.022,0,0,0-1.882.8,15.051,15.051,0,0,1,.8,4.738,2.951,2.951,0,0,0-1.664,3.443c.007.027.02.055.027.082L185.757,31.558a17.781,17.781,0,0,1-3.238-7.206,1.022,1.022,0,1,0-2.032.218,19.377,19.377,0,0,0,3.75,8.536,1.006,1.006,0,0,0,.348.47c3.9,5.168,11.481,11.27,26.16,14.638C204.431,53.9,200.5,59.156,198.1,63.752a2.938,2.938,0,0,0-3.123,3.688,2.918,2.918,0,0,0,.736,1.3c.041.041.075.089.123.13l.061.061a26.428,26.428,0,0,0-1.22,5.747,2.637,2.637,0,0,0-.682.089,2.96,2.96,0,0,0-2.12,3.613,2.918,2.918,0,0,0,.736,1.3c.041.041.075.089.123.13.075.068.157.13.232.191a1.924,1.924,0,0,0,.191.136,2.649,2.649,0,0,0,.239.13c.082.041.164.082.245.116a1.405,1.405,0,0,0,.239.082c.1.027.191.055.293.075.075.014.15.034.225.041a3.026,3.026,0,0,0,.355.014H195c.02.082.041.17.055.245a17.984,17.984,0,0,0,2.182,4.786,2.979,2.979,0,0,0,.048,1.248,2.918,2.918,0,0,0,.736,1.3c.041.041.075.089.123.13.075.068.157.13.232.191a1.933,1.933,0,0,0,.191.136,2.668,2.668,0,0,0,.239.13c.082.041.164.082.245.116a1.407,1.407,0,0,0,.239.082c.1.027.191.055.293.075.075.014.15.034.225.041.027,0,.055.014.089.014a31.052,31.052,0,0,0,4.432,3.968,2.893,2.893,0,0,0,.791,2.509c.041.041.075.089.123.13.075.068.157.13.232.191a1.926,1.926,0,0,0,.191.136,2.66,2.66,0,0,0,.239.13c.082.041.164.082.245.116a1.406,1.406,0,0,0,.239.082c.1.027.191.055.293.075.075.014.15.034.225.041a3.024,3.024,0,0,0,.355.014h.191a3.1,3.1,0,0,0,.552-.089h0a2.817,2.817,0,0,0,.914-.43,61.137,61.137,0,0,0,15.742,5.7c-20.774,18.763-15.517,33.83-14.931,35.3.2,1.561,2.959,17.283,30.244,23.542-6.7,6.034-10.711,11.583-13.056,16.369a.123.123,0,0,0-.068.014,2.96,2.96,0,0,0-2.12,3.613,2.877,2.877,0,0,0,.375.832,25.908,25.908,0,0,0-1.241,6.32,2.961,2.961,0,0,0-1.766,3.484,2.918,2.918,0,0,0,.736,1.3c.041.041.075.089.123.13.075.068.157.13.232.191a1.917,1.917,0,0,0,.191.136,2.648,2.648,0,0,0,.239.13c.082.041.164.082.245.116a1.405,1.405,0,0,0,.239.082l.225.061a17.1,17.1,0,0,0,1.664,3.845,2.973,2.973,0,0,0-1.1,3.116,2.918,2.918,0,0,0,.736,1.3c.041.041.075.089.123.13.075.068.157.13.232.191a1.919,1.919,0,0,0,.191.136,2.654,2.654,0,0,0,.239.13c.082.041.164.082.245.116a1.412,1.412,0,0,0,.239.082c.1.027.191.055.293.075.075.014.15.034.225.041a3.022,3.022,0,0,0,.355.014h.191a3.1,3.1,0,0,0,.552-.089h0a2.89,2.89,0,0,0,1.057-.518,31.41,31.41,0,0,0,4.493,3.852,2.948,2.948,0,0,0-.075,1.739,2.918,2.918,0,0,0,.736,1.3c.041.041.075.089.123.13.075.068.157.13.232.191a1.925,1.925,0,0,0,.191.136,2.653,2.653,0,0,0,.239.13c.082.041.164.082.245.116a1.408,1.408,0,0,0,.239.082c.1.027.191.055.293.075.075.014.15.034.225.041a3.022,3.022,0,0,0,.354.014h.191a3.1,3.1,0,0,0,.552-.089h0a2.989,2.989,0,0,0,.907-.423,3.488,3.488,0,0,0,.3-.232c.075-.061.143-.13.211-.2A62.522,62.522,0,0,0,253.88,213.9c-21.394,19.322-15.176,34.73-14.9,35.391a1.014,1.014,0,0,0,1.193.586,1.165,1.165,0,0,0,.143-.048,1.022,1.022,0,0,0,.545-1.336c-.041-.1-2.816-7.111,2.134-17.467a1.013,1.013,0,0,0,.723.082l30.51-7.936s.068.034.1.048c.082.041.164.082.245.116a1.41,1.41,0,0,0,.239.082c.1.027.191.055.293.075.075.014.15.034.225.041a3.025,3.025,0,0,0,.354.014h.191a3.1,3.1,0,0,0,.552-.089h0a3,3,0,0,0,.7-.293c8.42,6.429,9.34,13.349,9.354,13.458a1.024,1.024,0,0,0,1.125.907.532.532,0,0,0,.15-.027,1.017,1.017,0,0,0,.757-1.1c-.048-.477-1-8.011-10.022-14.876.014-.048.02-.1.034-.15a2.9,2.9,0,0,0,.116-.941,2.983,2.983,0,0,0-.1-.593,3.3,3.3,0,0,0-.2-.552,2.827,2.827,0,0,0-.239-.389.74.74,0,0,0-.061-.1,3.034,3.034,0,0,0-.818-.743h0a2.91,2.91,0,0,0-3.545.348,59.171,59.171,0,0,0-15.429-5.659,59.522,59.522,0,0,0,11.522-13.54,1.03,1.03,0,0,0,.573-.982,31.362,31.362,0,0,0,3.777-10.438.972.972,0,0,0,.075-.5,19.216,19.216,0,0,0-.252-7.159c-.539-1.984-2.318-6.511-7.813-11.065a.986.986,0,0,0-.4-.327c-4.425-3.552-11.161-7.09-21.381-9.415a58.988,58.988,0,0,0,10.7-12.429.847.847,0,0,0,.13.02c.075.014.15.034.225.041a3.022,3.022,0,0,0,.355.014h.191a3.1,3.1,0,0,0,.552-.089h0a2.988,2.988,0,0,0,.907-.423,3.5,3.5,0,0,0,.3-.232,3.048,3.048,0,0,0,.607-.716c.014-.027.027-.061.041-.089a2.865,2.865,0,0,0,.245-.62,2.9,2.9,0,0,0,.116-.941,2.987,2.987,0,0,0-.1-.593,3.306,3.306,0,0,0-.2-.552,2.824,2.824,0,0,0-.239-.389.736.736,0,0,0-.061-.1Zm-42.032,3.027,41.5-10.8.02.02c.048.041.089.082.136.116a29.983,29.983,0,0,1-2.011,6.456,2.72,2.72,0,0,0-.736.089,2.955,2.955,0,0,0-2.161,2.332l-29.9,7.779a.639.639,0,0,0-.1.041A30.815,30.815,0,0,1,216.069,145.265Zm37.109.239c.041.068.075.13.116.191a57.292,57.292,0,0,1-11.447,13.09,56.789,56.789,0,0,1-16.649-6.006l27.98-7.281ZM197.8,69.635h.245a3.281,3.281,0,0,0,.559-.089,2.963,2.963,0,0,0,2.2-2.577l34.4-8.952a24.59,24.59,0,0,1,5.713,6.293L197.027,75.724a3.13,3.13,0,0,0-.361-.375,23.844,23.844,0,0,1,1.139-5.72Zm-.77,10.67c-.048-.184-.1-.409-.143-.648a2.96,2.96,0,0,0,.8-1.609,3.45,3.45,0,0,0,.02-.375l44.206-11.5a14.59,14.59,0,0,1,.832,2.223,16.459,16.459,0,0,1,.341,5.25L202.42,84.225a2.944,2.944,0,0,0-.729-.634h0a2.945,2.945,0,0,0-2.3-.348,2.831,2.831,0,0,0-.948.45,14.87,14.87,0,0,1-1.418-3.382Zm5.066,8.018a3.048,3.048,0,0,0,.607-.716c.014-.027.027-.061.041-.089a2.866,2.866,0,0,0,.245-.62,2.957,2.957,0,0,0,.109-.736l39.693-10.329a29.343,29.343,0,0,1-3.143,8.6l-29.76,7.745a4.086,4.086,0,0,0-.225-.368c-.02-.027-.034-.061-.055-.089a3.035,3.035,0,0,0-.818-.743h0a2.944,2.944,0,0,0-2.3-.348,2.87,2.87,0,0,0-1.173.627,29.094,29.094,0,0,1-3.286-2.863.614.614,0,0,0,.068-.061Zm8,5.9,28.082-7.309a61.244,61.244,0,0,1-11.631,13.036,61.062,61.062,0,0,1-16.458-5.686.174.174,0,0,1,.014-.048Zm13.976-60.753A57.4,57.4,0,0,1,212.647,46.53,57.431,57.431,0,0,1,196.3,40.7Zm4.418-10.929a30.419,30.419,0,0,1-1.929,6.163,2.638,2.638,0,0,0-.682.089,2.943,2.943,0,0,0-2.2,2.666l-29.807,7.759a31.329,31.329,0,0,1-6.756-5.9l41.37-10.765Zm-15.272,26.2c9.122,1.909,15.456,4.752,19.847,7.718l-32.787,8.529h0c-.02-.027-.034-.061-.055-.089a2.991,2.991,0,0,0-.28-.307c2.427-4.609,6.525-9.981,13.281-15.851Zm13.9,53.424c8.918,1.875,15.211,4.793,19.649,7.909a2.951,2.951,0,0,0-.075,1.739c.007.027.02.055.027.082l-33.809,8.795c2.154-5.325,6.354-11.686,14.208-18.524Zm-15.49,34.055c-.034-.089-2.073-5.229.443-13.2l36.032-9.374s.068.034.1.048c.082.041.164.082.245.116a1.405,1.405,0,0,0,.239.082c.1.027.191.055.293.075.075.014.15.034.225.041a3.021,3.021,0,0,0,.355.014h.191a3.105,3.105,0,0,0,.552-.089h0a2.957,2.957,0,0,0,.723-.307c5.522,5.516,6.2,10.629,6.218,10.718a.581.581,0,0,0,.027.15l.027.1a1.176,1.176,0,0,0,.048.143,15.57,15.57,0,0,1,.811,5.018,2.96,2.96,0,0,0-1.486,2.843L214.76,143.5a17.451,17.451,0,0,1-3.02-6.893.58.58,0,0,0-.027-.15l-.027-.1a1.174,1.174,0,0,0-.048-.143Zm58.824,40.941-43.286,11.263a2.933,2.933,0,0,0-.682-.586h0a2.956,2.956,0,0,0-.614-.286,23.342,23.342,0,0,1,.92-4.963c.068.02.13.027.2.041s.15.034.225.041a3.029,3.029,0,0,0,.355.014h.191a3.1,3.1,0,0,0,.552-.089h0a2.988,2.988,0,0,0,.907-.423,3.49,3.49,0,0,0,.3-.232,3.049,3.049,0,0,0,.607-.716c.014-.027.027-.061.041-.089a2.941,2.941,0,0,0,.334-.982,3.454,3.454,0,0,0,.02-.375l34.5-8.972a23.6,23.6,0,0,1,5.434,6.361Zm1.486,3.5a16.944,16.944,0,0,1,.273,5.938l-42.2,10.977a2.812,2.812,0,0,0-.73-.634h0a3,3,0,0,0-1.3-.423,16.05,16.05,0,0,1-1.636-3.559,2.944,2.944,0,0,0,1.527-2.175,3.12,3.12,0,0,0,.02-.436l43.484-11.311A13.142,13.142,0,0,1,271.941,180.663Zm-3.518,16.813L239.3,205.05s-.027-.048-.048-.075a.752.752,0,0,0-.061-.1,3.036,3.036,0,0,0-.818-.743h0a2.944,2.944,0,0,0-2.3-.348,2.692,2.692,0,0,0-.743.32,29.089,29.089,0,0,1-4.7-4.091c.007-.048.027-.089.034-.136a3.454,3.454,0,0,0,.02-.375L271.852,188.8a30.419,30.419,0,0,1-3.429,8.672ZM266.862,200a62.7,62.7,0,0,1-11.113,12.231,62.45,62.45,0,0,1-15.667-5.263Zm-10.54,14.447A56.974,56.974,0,0,1,272.7,220.3a3.018,3.018,0,0,0,.068,1.043c.007.027.02.055.027.082l-28.737,7.479a55.215,55.215,0,0,1,12.252-14.454Zm6.654-45.222-33.134,8.618a2.945,2.945,0,0,0-.729-.634h0c-.034-.02-.075-.041-.109-.061,2.407-4.67,6.531-10.138,13.424-16.124,9.62,2.011,16.138,5.066,20.549,8.209Z" transform="translate(-18.026 -11.072)" fill="#2d4154"/><g transform="translate(182.321 8.986)"><path d="M263.46,258.22a.556.556,0,0,1-.15-.014,1.018,1.018,0,0,1-.859-1.159h0c.021-.164,2.039-16.526-24.026-29.282-23.235-11.372-25.164-24.694-25.205-28.505.041-3.832,1.977-17.154,25.205-28.526,26.058-12.756,24.046-29.119,24.026-29.282,0-.048-.014-.1-.014-.15v-.1a.561.561,0,0,1,.014-.15c.021-.164,2.032-16.526-24.026-29.282-23.235-11.372-25.164-24.694-25.205-28.505.041-3.832,1.977-17.154,25.205-28.526,26.058-12.756,24.046-29.119,24.026-29.282a1.024,1.024,0,0,1,2.025-.3c.109.73,2.352,17.958-25.151,31.423-22.178,10.861-24.026,23.174-24.06,26.692.034,3.5,1.882,15.81,24.06,26.671,26.719,13.083,25.362,29.719,25.164,31.321.2,1.6,1.561,18.238-25.164,31.321-22.178,10.861-24.026,23.174-24.06,26.692.034,3.5,1.882,15.81,24.06,26.671,27.5,13.465,25.26,30.694,25.151,31.423a1.025,1.025,0,0,1-1.009.873Z" transform="translate(-210.766 -24.262)" fill="#fff"/><path d="M259.339,305.505H226.293a1.023,1.023,0,0,1,0-2.045h33.046a1.023,1.023,0,0,1,0,2.045Z" transform="translate(-214.6 -113.102)" fill="#b0c0d2"/><path d="M259.339,341.115H226.293a1.023,1.023,0,1,1,0-2.045h33.046a1.023,1.023,0,1,1,0,2.045Z" transform="translate(-214.6 -124.434)" fill="#b0c0d2"/><path d="M262.7,291.465H216.5a1.023,1.023,0,1,1,0-2.045h46.2a1.023,1.023,0,1,1,0,2.045Z" transform="translate(-211.485 -108.634)" fill="#b0c0d2"/><path d="M263.229,277.425H214.673a1.023,1.023,0,0,1,0-2.045h48.556a1.023,1.023,0,1,1,0,2.045Z" transform="translate(-210.902 -104.166)" fill="#b0c0d2"/><path d="M261.02,263.385H221.143a1.023,1.023,0,1,1,0-2.045H261.02a1.023,1.023,0,1,1,0,2.045Z" transform="translate(-212.961 -99.698)" fill="#b0c0d2"/><path d="M259.339,134.415H226.293a1.023,1.023,0,0,1,0-2.045h33.046a1.023,1.023,0,1,1,0,2.045Z" transform="translate(-214.6 -58.657)" fill="#b0c0d2"/><path d="M259.339,53.335H226.293a1.023,1.023,0,0,1,0-2.045h33.046a1.023,1.023,0,1,1,0,2.045Z" transform="translate(-214.6 -32.856)" fill="#6faabf"/><path d="M262.7,120.375H216.5a1.023,1.023,0,0,1,0-2.045h46.2a1.023,1.023,0,1,1,0,2.045Z" transform="translate(-211.485 -54.189)" fill="#b0c0d2"/><path d="M262.7,39.455H216.5a1.023,1.023,0,0,1,0-2.045h46.2a1.023,1.023,0,1,1,0,2.045Z" transform="translate(-211.485 -28.439)" fill="#6faabf"/><path d="M263.229,106.335H214.673a1.023,1.023,0,0,1,0-2.045h48.556a1.023,1.023,0,1,1,0,2.045Z" transform="translate(-210.902 -49.722)" fill="#b0c0d2"/><path d="M259.53,90.25h-38.4a1.023,1.023,0,0,0,0,2.045H261.01a1.019,1.019,0,0,0,.143-.014c-.552-.661-1.084-1.35-1.623-2.032Z" transform="translate(-212.958 -45.254)" fill="#b0c0d2"/><path d="M259.339,223.115H226.293a1.023,1.023,0,0,1,0-2.045h33.046a1.023,1.023,0,1,1,0,2.045Z" transform="translate(-214.6 -86.883)" fill="#b0c0d2"/><path d="M262.7,209.075H216.5a1.023,1.023,0,0,1,0-2.045h46.2a1.023,1.023,0,1,1,0,2.045Z" transform="translate(-211.485 -82.416)" fill="#b0c0d2"/><path d="M261.02,176.015H221.143a1.023,1.023,0,0,1,0-2.045H261.02a1.023,1.023,0,0,1,0,2.045Z" transform="translate(-212.961 -71.895)" fill="#b0c0d2"/><path d="M214.3,258.209a1.019,1.019,0,0,1-1.009-.873c-.109-.729-2.352-17.958,25.144-31.423,22.185-10.861,24.026-23.174,24.06-26.692-.034-3.5-1.875-15.81-24.06-26.671-26.719-13.083-25.362-29.719-25.158-31.321-.2-1.6-1.561-18.238,25.158-31.321,22.185-10.861,24.026-23.174,24.06-26.692-.034-3.5-1.875-15.81-24.06-26.671-27.5-13.465-25.253-30.694-25.144-31.423a1.023,1.023,0,0,1,2.025.3c-.027.177-2.025,16.533,24.026,29.282C262.575,66.078,264.5,79.4,264.545,83.211c-.041,3.832-1.97,17.154-25.205,28.526-26.058,12.756-24.046,29.119-24.026,29.282,0,.048.014.1.014.15v.1a.562.562,0,0,1-.014.15c-.02.164-2.032,16.526,24.026,29.282,23.235,11.372,25.164,24.694,25.205,28.505-.041,3.832-1.97,17.154-25.205,28.526-26.058,12.756-24.046,29.119-24.026,29.282a1.023,1.023,0,0,1-.866,1.159,1.121,1.121,0,0,1-.15.014Z" transform="translate(-210.76 -24.252)" fill="#ffa686"/><g transform="translate(5.761 43.053)"><circle cx="2.966" cy="2.966" r="2.966" fill="#ffd947"/><path d="M223.2,88.74a2.96,2.96,0,0,1-5.025,2.707A2.961,2.961,0,1,0,223.2,88.74Z" transform="translate(-218.105 -87.826)" fill="#ffd947"/><circle cx="1.336" cy="1.336" r="1.336" transform="translate(1.091 0.375)" fill="#ffd947"/></g><g transform="translate(0 52.85)"><circle cx="2.966" cy="2.966" r="2.966" fill="#adce32"/><path d="M214.755,103.11a2.96,2.96,0,0,1-5.025,2.707,2.961,2.961,0,1,0,5.018-2.707Z" transform="translate(-209.655 -102.196)" fill="#adce32"/><circle cx="1.336" cy="1.336" r="1.336" transform="translate(1.098 0.382)" fill="#adce32"/></g><g transform="translate(48.781 5.917)"><circle cx="2.966" cy="2.966" r="2.966" fill="#adce32"/><path d="M286.3,34.27a2.96,2.96,0,0,1-5.025,2.707A2.961,2.961,0,1,0,286.3,34.27Z" transform="translate(-281.205 -33.356)" fill="#adce32"/><circle cx="1.336" cy="1.336" r="1.336" transform="translate(1.098 0.382)" fill="#adce32"/></g><g transform="translate(8.093 71.361)"><circle cx="2.966" cy="2.966" r="2.966" fill="#adce32"/><path d="M226.625,130.26a2.96,2.96,0,0,1-5.025,2.707,2.961,2.961,0,1,0,5.018-2.707Z" transform="translate(-221.525 -129.346)" fill="#adce32"/><circle cx="1.336" cy="1.336" r="1.336" transform="translate(1.091 0.375)" fill="#adce32"/></g><g transform="translate(42.304 132.475)"><circle cx="2.966" cy="2.966" r="2.966" fill="#adce32"/><path d="M276.8,219.9a2.96,2.96,0,0,1-5.025,2.707A2.961,2.961,0,1,0,276.8,219.9Z" transform="translate(-271.705 -218.986)" fill="#adce32"/><circle cx="1.336" cy="1.336" r="1.336" transform="translate(1.098 0.375)" fill="#adce32"/></g><g transform="translate(1.254 179.075)"><circle cx="2.966" cy="2.966" r="2.966" fill="#adce32"/><path d="M216.595,288.25a2.96,2.96,0,0,1-5.025,2.707,2.961,2.961,0,1,0,5.018-2.707Z" transform="translate(-211.495 -287.336)" fill="#adce32"/><circle cx="1.336" cy="1.336" r="1.336" transform="translate(1.091 0.375)" fill="#adce32"/></g><g transform="translate(42.427 16.403)"><circle cx="2.966" cy="2.966" r="2.966" fill="#ffd947"/><path d="M276.985,49.65a2.96,2.96,0,0,1-5.025,2.707,2.961,2.961,0,1,0,5.018-2.707Z" transform="translate(-271.885 -48.736)" fill="#ffd947"/><circle cx="1.336" cy="1.336" r="1.336" transform="translate(1.091 0.375)" fill="#ffd947"/></g><g transform="translate(3.088 62.423)"><circle cx="2.966" cy="2.966" r="2.966" fill="#ffd947"/><path d="M219.285,117.15a2.96,2.96,0,0,1-5.025,2.707,2.961,2.961,0,1,0,5.018-2.707Z" transform="translate(-214.185 -116.236)" fill="#ffd947"/><circle cx="1.336" cy="1.336" r="1.336" transform="translate(1.091 0.382)" fill="#ffd947"/></g><g transform="translate(44.629 99.027)"><circle cx="2.966" cy="2.966" r="2.966" fill="#ffd947"/><path d="M280.215,170.84a2.96,2.96,0,0,1-5.025,2.707,2.961,2.961,0,1,0,5.018-2.707Z" transform="translate(-275.115 -169.926)" fill="#ffd947"/><circle cx="1.336" cy="1.336" r="1.336" transform="translate(1.091 0.375)" fill="#ffd947"/></g><g transform="translate(48.999 122.126)"><circle cx="2.966" cy="2.966" r="2.966" fill="#ffd947"/><path d="M286.625,204.72a2.96,2.96,0,0,1-5.025,2.707,2.961,2.961,0,1,0,5.018-2.707Z" transform="translate(-281.525 -203.806)" fill="#ffd947"/><circle cx="1.336" cy="1.336" r="1.336" transform="translate(1.098 0.375)" fill="#ffd947"/></g><g transform="translate(6.061 159.93)"><circle cx="2.966" cy="2.966" r="2.966" fill="#ffd947"/><path d="M223.645,260.17a2.96,2.96,0,0,1-5.025,2.707,2.961,2.961,0,1,0,5.018-2.707Z" transform="translate(-218.545 -259.256)" fill="#ffd947"/><circle cx="1.336" cy="1.336" r="1.336" transform="translate(1.091 0.375)" fill="#ffd947"/></g><g transform="translate(42.304 211.589)"><circle cx="2.966" cy="2.966" r="2.966" fill="#ffd947"/><path d="M276.8,335.94a2.96,2.96,0,0,1-5.025,2.707,2.961,2.961,0,1,0,5.018-2.707Z" transform="translate(-271.705 -335.026)" fill="#ffd947"/><circle cx="1.336" cy="1.336" r="1.336" transform="translate(1.098 0.375)" fill="#ffd947"/></g><g transform="translate(0.839 169.557)"><circle cx="2.966" cy="2.966" r="2.966" fill="#ffd947"/><path d="M215.985,274.29A2.96,2.96,0,0,1,210.96,277a2.961,2.961,0,1,0,5.018-2.707Z" transform="translate(-210.885 -273.376)" fill="#ffd947"/><circle cx="1.336" cy="1.336" r="1.336" transform="translate(1.091 0.382)" fill="#ffd947"/></g><g transform="translate(8.243 188.333)"><circle cx="2.966" cy="2.966" r="2.966" fill="#ffd947"/><path d="M226.845,301.83a2.96,2.96,0,0,1-5.025,2.707,2.961,2.961,0,1,0,5.018-2.707Z" transform="translate(-221.745 -300.917)" fill="#ffd947"/><circle cx="1.336" cy="1.336" r="1.336" transform="translate(1.091 0.375)" fill="#ffd947"/></g></g><g transform="translate(104.121 189.029)"><path d="M340.22,411.93a5.827,5.827,0,0,1-1.854,5.856c-2.857,2.284-34.28,29.705-34.566,32.139l-3-11.283,19.424-25.567,20-1.145Z" transform="translate(-160.436 -327.662)" fill="#737a77"/><path d="M324.724,400.14c-9.122,10.7-17.222,22.24-25.444,33.666,10.868,17.3,38.793,62,38.793,62l71.416-16.035S356.379,427.118,324.724,400.14Z" transform="translate(-159.952 -323.91)" fill="#fb9f90"/><path d="M240.616,402.119A30.219,30.219,0,0,1,256.7,385.136c4.759-2.182,15.4-7.452,18-12.531-15.5-13.847-32.357-22.737-36.577-23.542-12.824-2.434-68.832,0-68.832,0L160.9,332.836s11.795-31.8,0-33.353l-14.645,37.075V313.74s7.779-24.374-1.814-25.41l-13.479,39.925s-.259-35-10.629-36.3l-2.591,49.258s-12.442-21.4-22.819-17.31l22.819,42.352S157.4,389.963,160,389.963s69.228.518,70,1.554c.225.307,4.247,8.788,8.284,19.069.409-1.37,1.814-7.138,2.332-8.474Z" transform="translate(-94.92 -288.33)" fill="#ffd947"/><path d="M18.149,29.294a.25.25,0,0,1-.212-.118L-.212.132a.25.25,0,0,1,.08-.344.25.25,0,0,1,.344.08L18.361,28.911a.25.25,0,0,1-.212.383Z" transform="translate(51.338 48.222)" fill="#261e23"/><path d="M168.984,391.217a.249.249,0,0,1-.181-.078c-.061-.064-6.165-6.5-12.222-13.1-12.306-13.411-12.435-14.446-12.477-14.786-.261-2.087,2.228-15.827,2.334-16.411a.25.25,0,0,1,.492.089c-.026.142-2.581,14.248-2.33,16.26.024.192.452,1.07,3.9,5.077,2.052,2.385,4.9,5.559,8.45,9.433,6.054,6.6,12.156,13.027,12.217,13.091a.25.25,0,0,1-.181.422Z" transform="translate(-110.644 -306.965)" fill="#261e23"/><path d="M155.153,402.683a.249.249,0,0,1-.176-.073L128.2,375.939a.25.25,0,0,1-.074-.177V365.91a.25.25,0,0,1,.5,0v9.748l26.7,26.6a.25.25,0,0,1-.176.427Z" transform="translate(-105.568 -313.018)" fill="#261e23"/><path d="M221.266,385.518a.253.253,0,0,1-.047,0l-14.535-2.782a.25.25,0,0,1-.173-.128l-2.72-5.086a.25.25,0,1,1,.441-.236l2.664,4.981,14.418,2.759a.25.25,0,0,1-.047.5Z" transform="translate(-129.635 -316.674)" fill="#261e23"/></g><g transform="translate(242.236 42.31)"><path d="M315.11,137v40.982a1.445,1.445,0,1,0,2.891,0V140.654A16.807,16.807,0,0,1,315.11,137Z" transform="translate(-303.104 -93.455)" fill="#b0c0d2"/><g transform="translate(0)"><path d="M444.621,233.327l-46.19-56.335-9.347-40.32.314-30.578L378.938,80.868s-6.409.532-3.736,13.881l3.2,7.479v19.226L351.442,73.13s-8.277,4-1.07,17.624l12.013,25.1-37.914-35.78s-8.011,6.675,6.94,21.094l30.169,33.912-51.529-29.371s-7.479,8.543,6.409,17.89,45.12,31.239,45.12,34.178-19.226,9.879-21.626,9.081-37.914-18.422-42.454-4.275l49.129,22.962,26.7,20.828,67.387,126.061,3.907-99.1Z" transform="translate(-297.5 -73.13)" fill="#fb9f90"/><path d="M8.822,17.608a.25.25,0,0,1-.223-.137L-.223.113a.25.25,0,0,1,.11-.336.25.25,0,0,1,.336.11L9.045,17.245a.25.25,0,0,1-.223.363Z" transform="translate(80.9 48.324)" fill="#261e23"/><path d="M22.008,23.035a.249.249,0,0,1-.18-.076L-.18.174A.25.25,0,0,1-.174-.18.25.25,0,0,1,.18-.174L22.188,22.611a.25.25,0,0,1-.18.424Z" transform="translate(64.885 42.72)" fill="#261e23"/><path d="M17.153,9.359a.249.249,0,0,1-.117-.029L-.117.221a.25.25,0,0,1-.1-.338.25.25,0,0,1,.338-.1L17.271,8.888a.25.25,0,0,1-.117.471Z" transform="translate(64.08 61.94)" fill="#261e23"/><path d="M419.638,98.239a2.625,2.625,0,0,1-1.088-.244c-3.25-1.468-5.153-9.2-5.233-9.526a.25.25,0,0,1,.486-.118c.019.078,1.924,7.82,4.953,9.188a2.1,2.1,0,0,0,1.949-.085.25.25,0,1,1,.233.442A2.769,2.769,0,0,1,419.638,98.239Z" transform="translate(-334.433 -77.992)" fill="#261e23"/><path d="M380.45,85.611a2.822,2.822,0,0,1-.958-.175c-3.46-1.243-6.4-8.815-6.526-9.137a.25.25,0,0,1,.467-.179c.029.077,2.983,7.68,6.228,8.845a2.105,2.105,0,0,0,1.842-.144.25.25,0,1,1,.246.435A2.612,2.612,0,0,1,380.45,85.611Z" transform="translate(-321.589 -74.11)" fill="#261e23"/><path d="M343.189,94.266a3.923,3.923,0,0,1-.447-.026c-3.559-.408-7.258-5.468-7.414-5.684a.25.25,0,0,1,.405-.293c.037.051,3.727,5.1,7.067,5.48a2.958,2.958,0,0,0,2.364-.736.25.25,0,0,1,.328.377A3.422,3.422,0,0,1,343.189,94.266Z" transform="translate(-309.602 -77.992)" fill="#261e23"/><path d="M323.913,130.538c-1.634,0-3.606-.793-5.867-2.361a26.425,26.425,0,0,1-3.111-2.538.25.25,0,0,1,.351-.356c.051.05,5.135,5.009,8.928,4.745a3.388,3.388,0,0,0,2.54-1.386.25.25,0,1,1,.4.3,3.869,3.869,0,0,1-2.9,1.58Q324.083,130.538,323.913,130.538Z" transform="translate(-303.104 -89.783)" fill="#261e23"/><path d="M310.931,209.125a.25.25,0,0,1-.241-.317,3.362,3.362,0,0,0-.365-2.672c-1.864-3.209-8.322-4.877-8.387-4.894a.25.25,0,0,1,.123-.485,25.612,25.612,0,0,1,3.584,1.268c2.562,1.131,4.282,2.429,5.113,3.86a3.845,3.845,0,0,1,.414,3.056A.25.25,0,0,1,310.931,209.125Z" transform="translate(-298.932 -113.821)" fill="#261e23"/><g transform="translate(78.732 111.375)"><path d="M412.98,270.02l31.232-33.53,37.157,41.186L474.04,384.409Z" transform="translate(-412.98 -236.49)" fill="#afafaf"/><path d="M19.069,23.717a.249.249,0,0,1-.194-.092L-.194.158A.25.25,0,0,1-.158-.194a.25.25,0,0,1,.352.036L19.263,23.309a.25.25,0,0,1-.194.408Z" transform="translate(16.179 21.64)" fill="#261e23"/><path d="M0,34.823a.249.249,0,0,1-.167-.064.25.25,0,0,1-.019-.353L30.773-.167a.25.25,0,0,1,.353-.019.25.25,0,0,1,.019.353L.186,34.74A.249.249,0,0,1,0,34.823Z" transform="translate(0.968 0.77)" fill="#261e23"/><path d="M0,34.468A.249.249,0,0,1-.17,34.4a.25.25,0,0,1-.014-.353L31.506-.17a.25.25,0,0,1,.353-.014.25.25,0,0,1,.014.353L.183,34.388A.249.249,0,0,1,0,34.468Z" transform="translate(1.582 2.263)" fill="#261e23"/><path d="M3.838-.25A4.088,4.088,0,1,1-.25,3.838,4.093,4.093,0,0,1,3.838-.25Zm0,7.677A3.588,3.588,0,1,0,.25,3.838,3.592,3.592,0,0,0,3.838,7.427Z" transform="translate(12.613 27.673)" fill="#261e23"/></g></g></g><g transform="translate(0 33.679)"><g transform="translate(127.936)"><path d="M129.85,107.99l8.175-21.5,11.481-2.727s-1.173,25.3-1.527,26.542-12.02,20.9-12.02,20.9l-6.1-23.208Z" transform="translate(-129.85 -67.881)" fill="#e2847a"/><g transform="translate(3.634)"><path d="M135.18,74.76,154.133,71.6,191.147,60.47s.382,1.916-6.518,4.22l-29.726,9.2,28.389-5.959s9.034-1.964,9.668-.075L153.37,76.342,138.691,81.8l-3.5-7.05Z" transform="translate(-135.18 -60.47)" fill="#adce32"/><g transform="translate(51.965 1.309)"><circle cx="2.966" cy="2.966" r="2.966" fill="#ffd947"/><path d="M216.535,63.74a2.96,2.96,0,0,1-5.025,2.707,2.961,2.961,0,1,0,5.018-2.707Z" transform="translate(-211.435 -62.82)" fill="#ffd947"/><circle cx="1.336" cy="1.336" r="1.336" transform="translate(1.098 0.382)" fill="#ffd947"/></g></g></g><g transform="translate(0 2.222)"><path d="M-57.8,199.383s84.384-50.7,84.711-54.945S15.791,94.724,16.773,92.112,50.944,63.784,54.543,63.73s35.166,7.125,35.166,7.125,1.636,5.236-8.829,5.884l8.924.655s.559,11.447-30.837,7.193l-12.1,10.793s15.7-6.866,19.294-5.236,9.484,12.756,9.811,14.065c0,0,.982,12.429,1.309,18.967,0,0-18.967,30.414-20.6,32.7s-89.62,136.062-89.62,136.062Z" transform="translate(57.8 -63.73)" fill="#fb9f90"/><path d="M124.325,86.087a92.869,92.869,0,0,1-16.45-1.706.25.25,0,0,1,.09-.492c19.512,3.553,27.941.882,31.576-1.984a6.921,6.921,0,0,0,2.709-4l-8.658-.635a.25.25,0,0,1,0-.5c5.2-.322,7.261-1.794,8.078-2.972a3.229,3.229,0,0,0,.56-2.453c-1.915-.434-21.378-4.834-30.531-6.468a.25.25,0,0,1,.088-.492c9.6,1.713,30.5,6.459,30.705,6.506a.25.25,0,0,1,.183.169,3.663,3.663,0,0,1-.586,3.01,6.044,6.044,0,0,1-2.679,2.025,13.911,13.911,0,0,1-3.1.871l6.245.458a.25.25,0,0,1,.231.262c0,.1-.148,2.4-2.908,4.593C137.424,84.224,132.848,86.087,124.325,86.087Z" transform="translate(5.064 -64.016)" fill="#261e23"/><path d="M106.97,141.01,110.4,151.3l10.465-7.854a25.954,25.954,0,0,1-1.779-6.654Z" transform="translate(5.367 -86.979)" fill="#e2847a"/><g transform="translate(97.167 10.393)"><path d="M125.307,147.342a6.327,6.327,0,0,1-3.113-.778c-2.5-1.4-4.038-4.572-4.575-9.434l-14.5,5.05a.25.25,0,0,1-.164-.472l14.795-5.154a.25.25,0,0,1,.331.211c.488,4.868,1.953,8.018,4.355,9.362a7.013,7.013,0,0,0,5.909.071.25.25,0,1,1,.218.45,7.946,7.946,0,0,1-2.044.6A7.781,7.781,0,0,1,125.307,147.342Z" transform="translate(-90.55 -97.372)" fill="#261e23"/><path d="M100.05,119.728a.25.25,0,0,1-.081-.487c.814-.279,19.95-6.822,20.365-6.926.124-.031.354-.088,1.764.728.659.381,1.276.781,1.282.785a.25.25,0,0,1-.272.42,13.771,13.771,0,0,0-2.663-1.444c-.547.159-13.5,4.58-20.314,6.911A.25.25,0,0,1,100.05,119.728Z" transform="translate(-89.598 -89.66)" fill="#261e23"/><path d="M84.72,91.384a.25.25,0,0,1-.153-.448c.14-.108,14.032-10.816,15.146-11.918.153-.151.472-.466,4.788-.173,2.236.152,5.267.446,9.012.874,6.371.729,12.685,1.607,12.748,1.616a.25.25,0,0,1-.069.5c-.062-.009-6.309-.877-12.641-1.6-3.717-.426-6.735-.721-8.971-.875-3.826-.264-4.425-.048-4.517.025C98.929,80.5,85.446,90.89,84.873,91.332A.249.249,0,0,1,84.72,91.384Z" transform="translate(-84.72 -78.974)" fill="#261e23"/></g><g transform="translate(27.278 83.504)"><path d="M34.49,186.21l10.438,10.083L35.833,211l13.854-10.765L64.6,211-11.36,330.917V214.095Z" transform="translate(15.744 -186.21)" fill="#afafaf"/><path d="M11.011,10.674a.249.249,0,0,1-.172-.068L-.172.182a.25.25,0,0,1-.01-.353.25.25,0,0,1,.353-.01L11.183,10.243a.25.25,0,0,1-.172.432Z" transform="translate(48.979 0.757)" fill="#261e23"/><path d="M10.963,11.793a.249.249,0,0,1-.181-.078L-.181.172A.25.25,0,0,1-.172-.181a.25.25,0,0,1,.353.009L11.144,11.37a.25.25,0,0,1-.181.422Z" transform="translate(47.949 1.384)" fill="#261e23"/><path d="M15.319,11.158a.249.249,0,0,1-.145-.046L-.145.2A.25.25,0,0,1-.2-.145.25.25,0,0,1,.145-.2L15.465,10.7a.25.25,0,0,1-.145.454Z" transform="translate(64.448 14.788)" fill="#261e23"/><path d="M15.776,12.8a.249.249,0,0,1-.155-.054L-.156.2A.25.25,0,0,1-.2-.156.25.25,0,0,1,.156-.2L15.932,12.356a.25.25,0,0,1-.156.446Z" transform="translate(62.737 16.117)" fill="#261e23"/><path d="M0,56.422a.249.249,0,0,1-.169-.066A.25.25,0,0,1-.184,56L51.392-.169a.25.25,0,0,1,.353-.015.25.25,0,0,1,.015.353L.184,56.341A.249.249,0,0,1,0,56.422Z" transform="translate(0 24.789)" fill="#261e23"/></g></g></g></g></g></g></g></g></svg>