<svg xmlns="http://www.w3.org/2000/svg" xmlns:xlink="http://www.w3.org/1999/xlink" width="1032" height="799" viewBox="0 0 1032 799">
  <defs>
    <clipPath id="clip-path">
      <rect id="Rectángulo_33807" data-name="Rectángulo 33807" width="1190" height="800" fill="none"/>
    </clipPath>
    <clipPath id="clip-Mesa_de_trabajo_1">
      <rect width="1032" height="799"/>
    </clipPath>
  </defs>
  <g id="Mesa_de_trabajo_1" data-name="Mesa de trabajo – 1" clip-path="url(#clip-Mesa_de_trabajo_1)">
    <rect width="1032" height="799" fill="#fff"/>
    <path id="Rectángulo_35292_-_Contorno" data-name="Rectángulo 35292 - Contorno" d="M1,1V799H1031V1H1M0,0H1032V800H0Z" fill="#707070"/>
    <g id="Grupo_83533" data-name="Grupo 83533" transform="translate(4820 8504)">
      <g id="cf16-01" transform="translate(-4874 -8505)">
        <g id="BACKGROUND" transform="translate(55)">
          <rect id="Rectángulo_33806" data-name="Rectángulo 33806" width="1030" height="800" fill="#afafaf"/>
        </g>
        <g id="OBJECTS">
          <g id="Grupo_81428" data-name="Grupo 81428">
            <g id="Grupo_81349" data-name="Grupo 81349" clip-path="url(#clip-path)">
              <path id="Trazado_114413" data-name="Trazado 114413" d="M61.764,513.589C48.309,450.1,73.331,383.029,118.2,337.813c32.638-32.88,73.209-57.12,102.261-93.44,23.752-29.68,38.6-65.952,60.579-97.088,28.623-40.544,72.177-72.656,120.634-74.656,58.516-2.416,110.527,37.824,167.885,50.336,94.01,20.512,197.492-34.16,284.918,7.312,45.157,21.424,78.223,68.272,84.236,119.376,3.618,30.72-1.856,62.432,5.395,92.464,9.044,37.5,40.365,63.68,60.658,96.128,70.622,112.9-4.4,213.6-130.376,219.328s-292.264-54.048-474.4-11.68C203.009,691.717,80.408,601.621,61.748,513.573Z" transform="translate(34.102 43.515)" fill="#12263f"/>
            </g>
            <g id="Grupo_81360" data-name="Grupo 81360" clip-path="url(#clip-path)">
              <g id="Grupo_81359" data-name="Grupo 81359" transform="translate(214.208 97.88)" opacity="0.08">
                <path id="Trazado_114423" data-name="Trazado 114423" d="M138.17,122.831a3.084,3.084,0,0,1-2.237-.944,3.225,3.225,0,0,1,0-4.528l54.788-55.248a3.161,3.161,0,0,1,4.49,0,3.225,3.225,0,0,1,0,4.528l-54.788,55.248a3.149,3.149,0,0,1-2.237.944Z" transform="translate(-135.005 -61.175)" fill="#fff"/>
              </g>
            </g>
            <g id="Grupo_81362" data-name="Grupo 81362" clip-path="url(#clip-path)">
              <g id="Grupo_81361" data-name="Grupo 81361" transform="translate(72.455 -41.416)" opacity="0.08">
                <path id="Trazado_114424" data-name="Trazado 114424" d="M48.83,35.771a3.084,3.084,0,0,1-2.237-.944,3.225,3.225,0,0,1,0-4.528l54.788-55.248a3.161,3.161,0,0,1,4.49,0,3.225,3.225,0,0,1,0,4.528L51.083,34.827a3.149,3.149,0,0,1-2.237.944Z" transform="translate(-45.665 25.885)" fill="#fff"/>
              </g>
            </g>
            <g id="Grupo_81364" data-name="Grupo 81364" clip-path="url(#clip-path)">
              <g id="Grupo_81363" data-name="Grupo 81363" transform="translate(60.127 541.128)" opacity="0.08">
                <path id="Trazado_114425" data-name="Trazado 114425" d="M41.06,399.861a3.149,3.149,0,0,1-2.237-.944,3.225,3.225,0,0,1,0-4.528l54.788-55.248a3.161,3.161,0,0,1,4.49,0,3.225,3.225,0,0,1,0,4.528L43.313,398.917a3.149,3.149,0,0,1-2.237.944Z" transform="translate(-37.895 -338.205)" fill="#fff"/>
              </g>
            </g>
            <g id="Grupo_81366" data-name="Grupo 81366" clip-path="url(#clip-path)">
              <g id="Grupo_81365" data-name="Grupo 81365" transform="translate(1027.66 525.208)" opacity="0.08">
                <path id="Trazado_114426" data-name="Trazado 114426" d="M650.851,389.911a3.149,3.149,0,0,1-2.237-.944,3.225,3.225,0,0,1,0-4.528L703.4,329.191a3.161,3.161,0,0,1,4.49,0,3.225,3.225,0,0,1,0,4.528L653.1,388.967a3.149,3.149,0,0,1-2.237.944Z" transform="translate(-647.685 -328.255)" fill="#fff"/>
              </g>
            </g>
            <g id="Grupo_81368" data-name="Grupo 81368" clip-path="url(#clip-path)">
              <g id="Grupo_81367" data-name="Grupo 81367" transform="translate(1177.6 168.024)" opacity="0.08">
                <path id="Trazado_114427" data-name="Trazado 114427" d="M745.35,166.671a3.149,3.149,0,0,1-2.237-.944,3.225,3.225,0,0,1,0-4.528L797.9,105.951a3.161,3.161,0,0,1,4.49,0,3.225,3.225,0,0,1,0,4.528L747.6,165.727a3.149,3.149,0,0,1-2.237.944Z" transform="translate(-742.185 -105.015)" fill="#fff"/>
              </g>
            </g>
            <g id="Grupo_81370" data-name="Grupo 81370" clip-path="url(#clip-path)">
              <g id="Grupo_81369" data-name="Grupo 81369" transform="translate(759.101 260.264)" opacity="0.08">
                <path id="Trazado_114428" data-name="Trazado 114428" d="M481.59,224.321a3.149,3.149,0,0,1-2.237-.944,3.225,3.225,0,0,1,0-4.528L534.141,163.6a3.161,3.161,0,0,1,4.49,0,3.225,3.225,0,0,1,0,4.528l-54.788,55.248a3.149,3.149,0,0,1-2.237.944Z" transform="translate(-478.425 -162.665)" fill="#fff"/>
              </g>
            </g>
            <g id="Grupo_81372" data-name="Grupo 81372" clip-path="url(#clip-path)">
              <g id="Grupo_81371" data-name="Grupo 81371" transform="translate(979.362 -11.112)" opacity="0.08">
                <path id="Trazado_114429" data-name="Trazado 114429" d="M620.41,54.711a3.084,3.084,0,0,1-2.237-.944,3.225,3.225,0,0,1,0-4.528L672.961-6.009a3.161,3.161,0,0,1,4.49,0,3.225,3.225,0,0,1,0,4.528L622.664,53.767a3.149,3.149,0,0,1-2.237.944Z" transform="translate(-617.245 6.945)" fill="#fff"/>
              </g>
            </g>
            <g id="Grupo_81374" data-name="Grupo 81374" clip-path="url(#clip-path)">
              <g id="Grupo_81373" data-name="Grupo 81373" transform="translate(586.472 -25.832)" opacity="0.08">
                <path id="Trazado_114430" data-name="Trazado 114430" d="M372.79,45.511a3.084,3.084,0,0,1-2.237-.944,3.225,3.225,0,0,1,0-4.528l54.788-55.248a3.161,3.161,0,0,1,4.49,0,3.225,3.225,0,0,1,0,4.528L375.043,44.567a3.149,3.149,0,0,1-2.237.944Z" transform="translate(-369.625 16.145)" fill="#fff"/>
              </g>
            </g>
            <g id="Grupo_81427" data-name="Grupo 81427" clip-path="url(#clip-path)">
              <g id="Grupo_81412" data-name="Grupo 81412" transform="translate(115.795 154.784)">
                <g id="Grupo_81393" data-name="Grupo 81393" transform="translate(0 82.32)">
                  <g id="Grupo_81377" data-name="Grupo 81377" transform="translate(5.108 205.719)">
                    <path id="Trazado_114432" data-name="Trazado 114432" d="M144.792,293.285a91.236,91.236,0,0,0-18.2-16.368c-1.571-1.024-6.013,3.152-.127,10.928a31.216,31.216,0,0,1,4.363,7.52,123.679,123.679,0,0,1-17.5.608c-7.473-.352-19.738-3.92-23.8-3.92a3.413,3.413,0,0,0-2.919,2.832,19.374,19.374,0,0,0-5.426-.336,4.6,4.6,0,0,0-2.745,3.424c0,.24.333.592.936,1.024a4.792,4.792,0,0,0-1,.128c-1.111.336-2.205,2.88-2.174,4.192,0,.432,1.079,1.2,2.808,2.144a5.12,5.12,0,0,0-2.094,3.648c0,2.064,17.469,10.928,24.927,14.016,7.6,2.464,41.555,8.5,41.555,8.5,14.867,6.192,8.314-22.272,8.314-22.272s-4.109-12-6.934-16.08Z" transform="translate(-76.2 -276.764)" fill="#ffd0ca"/>
                    <path id="Trazado_114433" data-name="Trazado 114433" d="M112.305,302.684c-1.761-.208-4.284-.416-7.3-.688-1.491-.16-3.142-.288-4.808-.592a17.482,17.482,0,0,1-2.491-.768c-.857-.288-1.745-.592-2.634-.9-7.156-2.416-13.455-4.3-16.914-5.12,3.237,1.44,9.425,3.76,16.6,6.192.9.3,1.777.592,2.65.88a15.844,15.844,0,0,0,2.618.736,39.65,39.65,0,0,0,4.935.368c3.046.08,5.569,0,7.346-.112Z" transform="translate(-75.049 -266.051)" fill="#e5a8a3"/>
                    <path id="Trazado_114434" data-name="Trazado 114434" d="M113.5,298.078c-1.809-.128-4.411-.288-7.489-.592a58.342,58.342,0,0,1-10.361-1.84C88.2,293.6,81.738,291.534,78.2,290.67a128.8,128.8,0,0,0,17.168,6.048,43.1,43.1,0,0,0,10.583,1.568,52.6,52.6,0,0,0,7.553-.208Z" transform="translate(-75.026 -268.421)" fill="#e5a8a3"/>
                    <path id="Trazado_114435" data-name="Trazado 114435" d="M113.077,293.306c-1.539-.224-3.745-.448-6.378-.688-2.618-.288-5.744-.432-8.9-1.04-6.394-1.456-12-2.912-15.057-3.408a104.342,104.342,0,0,0,14.835,4.512,55.189,55.189,0,0,0,9.092.768c2.666.048,4.871,0,6.426-.128Z" transform="translate(-72.363 -269.921)" fill="#e5a8a3"/>
                  </g>
                  <g id="Grupo_81383" data-name="Grupo 81383" transform="translate(61.007 49.746)">
                    <g id="Grupo_81378" data-name="Grupo 81378" transform="translate(384.717 487.982)">
                      <path id="Trazado_114436" data-name="Trazado 114436" d="M364.547,494.494c2.364-3.632,10.107-10.224,10.107-10.224,5.553.816,19.421,8.56,19.421,8.56s4.316,11.616,4.03,18.64c0,0-2.475,16.128-4.934,22.5-2.444,5.008-10.948,16.992-12.455,16.7a2.55,2.55,0,0,1-1.9-2.464,15.15,15.15,0,0,1,.539-2.288c-2.412,3.44-4.411,5.84-5.014,5.712a2.768,2.768,0,0,1-2.031-2.688,26,26,0,0,1,1.158-4.144c-2.491,3.568-4.57,6.08-5.188,5.952a2.768,2.768,0,0,1-2.031-2.688,52.55,52.55,0,0,1,2.332-7.52c-1.65,2.192-3,3.7-3.554,3.632a2.922,2.922,0,0,1-2.316-2.544c-.254-2.1,4.9-14.672,5.744-17.7,1.206-4.288,1.063-15.12.159-17.1a38.75,38.75,0,0,0-4.078,6.048c-3.935,7.808-9.393,7.808-10.472,6.656-.984-1.056,2.84-9.2,3.491-10.912a97.252,97.252,0,0,1,6.981-14.128Z" transform="translate(-353.899 -484.27)" fill="#ffd0ca"/>
                      <path id="Trazado_114437" data-name="Trazado 114437" d="M374.029,498.33c-.857,3.52-1.983,10.16-3.4,17.712-.19.928-.365,1.872-.587,2.736a13.321,13.321,0,0,1-.952,2.432c-.746,1.568-1.555,3.04-2.3,4.384-1.507,2.688-2.745,4.928-3.633,6.512,1.127-1.408,2.65-3.488,4.332-6.1.825-1.312,1.714-2.736,2.539-4.336a13.771,13.771,0,0,0,1.079-2.608c.254-.928.444-1.856.635-2.816a153.949,153.949,0,0,0,2.3-17.92Z" transform="translate(-348.465 -475.834)" fill="#e5a8a3"/>
                      <path id="Trazado_114438" data-name="Trazado 114438" d="M378.511,499.49c-.936,3.76-2.126,10.912-4,18.912a27.268,27.268,0,0,1-.841,2.848c-.365.9-.793,1.76-1.222,2.608-.857,1.68-1.7,3.264-2.475,4.72-1.571,2.928-2.872,5.36-3.745,7.1,1.142-1.568,2.7-3.856,4.427-6.688.873-1.424,1.793-2.96,2.7-4.64.444-.848.9-1.712,1.317-2.656a24.14,24.14,0,0,0,.92-2.992,129.215,129.215,0,0,0,2.919-19.184Z" transform="translate(-346.664 -475.138)" fill="#e5a8a3"/>
                    </g>
                    <path id="Trazado_114439" data-name="Trazado 114439" d="M262.6,249.6s-17.564-14.3-8.187-43.216c11.63-35.84,69.924-30.4,66.719-16.288-6,26.448,31.94,13.008,28.5,32.64,0,0,5.553,2.752,7.3,6.592,1.952,4.32-3.919,53.792-32.828,60.928-36.4,8.992-61.5-40.656-61.5-40.656Z" transform="translate(-29.166 -179.281)" fill="#cc846b"/>
                    <path id="Trazado_114440" data-name="Trazado 114440" d="M280.41,413.106c-20.309,139.52,5.331,325.632,5.331,325.632,106.418,25.648,219.4-1.632,219.4-1.632-37.7-173.68-27.989-305.488-27.989-305.488,1.412,1.168,20.135,30.208,25.085,51.632,3.776,24.752,12.931,130.56,12.931,130.56l23.53,4.944S553.428,496.322,551.46,470.61c-.079-13.872-51.725-159.888-74.446-178.608-15.962-10.144-58.738-16.736-88.631-17.472-55.8-1.376-85.22,6.224-103.5,17.36-14.772,8.992-78.937,115.168-78.937,115.168l-71.781-92.24L111.43,330.562s61.753,155.264,92.693,152.976c23.9-1.76,76.271-70.432,76.271-70.432Z" transform="translate(-111.43 -122.228)" fill="#efefef"/>
                    <path id="Trazado_114441" data-name="Trazado 114441" d="M277.45,443.7c8.473-20.608,23.5-59.28,40.285-103.84,2.65-7.088,5.268-14.032,7.791-20.768q-6.045-5.568-11.741-10.8c9.25-4.848,17.913-9.392,25.879-13.552-4.538-2.24-8.885-4.4-13.011-6.432-3.7-1.808-7.2-3.52-10.488-5.136-6.585-3.216-12.344-5.968-17.136-8.24,4.649,2.544,10.282,5.568,16.755,9.024,6.077,3.216,12.947,6.832,20.452,10.8l-.46.224-1.206.608c-1.015.512-2.063,1.024-3.094,1.552q-3.142,1.584-6.394,3.216-7.14,3.6-14.772,7.472,6.164,5.76,12.709,11.888c-2.38,6.272-4.823,12.752-7.33,19.36C298.9,383.65,284.7,422.626,277.466,443.714Z" transform="translate(-14.032 -121.892)" fill="#afafaf"/>
                    <path id="Trazado_114442" data-name="Trazado 114442" d="M299.08,443.7c-7.489-21.552-22.182-61.408-39.524-106.976-2.221-5.792-4.4-11.488-6.505-17.024,5.712-5.424,11.234-10.688,16.533-15.728q-7.568-1.344-14.677-2.624c-2.063-.368-4.078-.72-6.077-1.072-1-.176-1.983-.352-2.967-.528l-.825-.128c7.743-4.912,14.835-9.408,21.118-13.392,6.807-4.336,12.693-8.144,17.517-11.3-4.982,2.864-11.043,6.4-17.993,10.512-3.459,2.064-7.156,4.256-11.043,6.56q-6.688,4.032-14.058,8.448,11.591,2.232,24.752,4.768-7.116,6.672-14.819,13.872c2.269,6,4.6,12.16,6.981,18.416,17.342,45.568,32.86,85.1,41.586,106.176Z" transform="translate(-35.662 -121.892)" fill="#afafaf"/>
                    <path id="Trazado_114443" data-name="Trazado 114443" d="M304.715,291.574l-1.983-44.384H268.095l-.365,44.384,15.422,168.768Z" transform="translate(-19.734 -138.536)" fill="#ecbdb7"/>
                    <path id="Trazado_114444" data-name="Trazado 114444" d="M301.486,287.43s-15.851,12.32-32.606,0l13.582,148.752Z" transform="translate(-19.059 -114.392)" fill="#f9f7ec"/>
                    <path id="Trazado_114445" data-name="Trazado 114445" d="M256.854,228.422s-8.441,65.136,32.765,67.52c31.4,1.808,38.08-36.128,38.08-36.128s5,.112,9.3-9.84c2.7-6.224-1.539-13.52-7.9-7.216,0,0-3.411-.448-5.157-2.608,0,0,2.824-7.5,1.777-14.816s-53.217,3.728-63.2-13.9c0,0-3.348,5.744-5.664,16.992Z" transform="translate(-26.533 -159.992)" fill="#ffd0ca"/>
                    <path id="Trazado_114446" data-name="Trazado 114446" d="M278.4,243.308c-1.222-.224-2.951-.464-4.966-.864-.508-.1-1.016-.224-1.539-.368-.254-.08-.524-.16-.777-.24l-.19-.064h-.016l-.016-.016c-.016,0,0-.032.032-.048h.016l.238-.4c.317-.544.651-1.1.984-1.664a72.883,72.883,0,0,0,5.442-11.024,71.53,71.53,0,0,0-6.87,10.176c-.317.576-.651,1.136-.952,1.68-.222.416-.46.816-.682,1.216l-.413.768c-.159.16.111.16.222.224l.413.16.793.288.619.176c.3.064.6.128.889.176a16.416,16.416,0,0,0,1.682.192,18.906,18.906,0,0,0,5.125-.336Z" transform="translate(-19.2 -149.678)" fill="#dd9e97"/>
                    <g id="Grupo_81379" data-name="Grupo 81379" transform="translate(271.863 80.354)">
                      <path id="Trazado_114447" data-name="Trazado 114447" d="M282.816,233.915a5.043,5.043,0,1,0,5.664-4.368A5.077,5.077,0,0,0,282.816,233.915Z" transform="translate(-282.772 -229.502)" fill="#fff"/>
                      <path id="Trazado_114448" data-name="Trazado 114448" d="M285.907,236.608a2.849,2.849,0,1,0-2.428-3.2A2.819,2.819,0,0,0,285.907,236.608Z" transform="translate(-282.372 -228.643)" fill="#444"/>
                    </g>
                    <g id="Grupo_81380" data-name="Grupo 81380" transform="translate(237.639 75.698)">
                      <path id="Trazado_114449" data-name="Trazado 114449" d="M261.246,231a5.043,5.043,0,1,0,5.664-4.368A5.077,5.077,0,0,0,261.246,231Z" transform="translate(-261.202 -226.592)" fill="#fff"/>
                      <path id="Trazado_114450" data-name="Trazado 114450" d="M264.327,233.7a2.849,2.849,0,1,0-2.428-3.2A2.819,2.819,0,0,0,264.327,233.7Z" transform="translate(-260.808 -225.733)" fill="#444"/>
                    </g>
                    <path id="Trazado_114451" data-name="Trazado 114451" d="M293.482,229.945a10.412,10.412,0,0,0-9.552-1.808" transform="translate(-10.23 -150.235)" fill="none" stroke="#444" stroke-linecap="round" stroke-miterlimit="10" stroke-width="1"/>
                    <path id="Trazado_114452" data-name="Trazado 114452" d="M261.19,225.541a10.392,10.392,0,0,1,9.679.8" transform="translate(-23.571 -152.023)" fill="none" stroke="#444" stroke-linecap="round" stroke-miterlimit="10" stroke-width="1"/>
                    <path id="Trazado_114453" data-name="Trazado 114453" d="M280.6,243.366l-11.9-1.616a6.151,6.151,0,0,0,11.9,1.616Z" transform="translate(-19.165 -141.8)" fill="#fff"/>
                    <g id="Grupo_81382" data-name="Grupo 81382" transform="translate(232.11 70.507)">
                      <g id="Grupo_81381" data-name="Grupo 81381">
                        <path id="Trazado_114454" data-name="Trazado 114454" d="M279.736,235.355a10.295,10.295,0,1,0,11.614-8.848A10.372,10.372,0,0,0,279.736,235.355Z" transform="translate(-244.858 -221.512)" fill="none" stroke="#444" stroke-miterlimit="10" stroke-width="1"/>
                        <path id="Trazado_114455" data-name="Trazado 114455" d="M257.816,232.3a10.295,10.295,0,1,0,11.614-8.848A10.372,10.372,0,0,0,257.816,232.3Z" transform="translate(-257.718 -223.348)" fill="none" stroke="#444" stroke-miterlimit="10" stroke-width="1"/>
                        <line id="Línea_153" data-name="Línea 153" x1="14.391" y1="2.032" transform="translate(20.487 11.811)" fill="none" stroke="#444" stroke-miterlimit="10" stroke-width="1"/>
                      </g>
                      <line id="Línea_154" data-name="Línea 154" y1="4.432" x2="15.2" transform="translate(55.251 12.275)" fill="none" stroke="#444" stroke-linecap="round" stroke-miterlimit="10" stroke-width="1"/>
                    </g>
                    <path id="Trazado_114456" data-name="Trazado 114456" d="M276.044,380.41c-.063,7.76-.159,17.184-.254,28.016.032,10.816.159,23.024.413,36.336.571,26.624,1.841,57.648,3.967,90.768,4.236,66.24,10.948,123.7,15.692,154.352-3.427-30.832-9.234-88.32-13.471-154.5-2.126-33.088-3.6-64.08-4.57-90.672-.413-13.3-.777-25.488-1.111-36.3-.254-10.816-.476-20.24-.651-28Z" transform="translate(-15.005 -58.604)" fill="#afafaf"/>
                  </g>
                  <g id="Grupo_81392" data-name="Grupo 81392">
                    <path id="Trazado_114457" data-name="Trazado 114457" d="M78.68,283.22l8.076,9.872,19.738-16.384-10-8.288Z" transform="translate(-69.636 -76.052)" fill="#e8e8e8"/>
                    <path id="Trazado_114458" data-name="Trazado 114458" d="M97.478,228.916c-7.616-6.32-11.821-14.624-11.821-23.376s4.189-17.056,11.821-23.376l12.36-10.256-9.98-8.288-10.44,8.656c-10.6,8.8-16.438,20.608-16.438,33.264S78.819,230,89.418,238.8l4.839,4.016h0l5.6,4.656,9.98-8.288-12.36-10.256Z" transform="translate(-72.98 -138.932)" fill="#e8e8e8"/>
                    <path id="Trazado_114459" data-name="Trazado 114459" d="M124.008,158.078l-8.06-9.888L96.21,164.574l9.98,8.288Z" transform="translate(-59.352 -148.19)" fill="#e8e8e8"/>
                    <path id="Trazado_114460" data-name="Trazado 114460" d="M133.068,257.946c0-12.64-5.839-24.464-16.438-33.264l-4.839-4.016h0l-5.6-4.656L96.21,224.3l12.36,10.256c7.616,6.32,11.821,14.624,11.821,23.376s-4.189,17.056-11.821,23.376L96.21,291.562l9.98,8.288,10.44-8.672c10.6-8.8,16.438-20.608,16.438-33.264Z" transform="translate(-59.352 -107.498)" fill="#e8e8e8"/>
                    <path id="Trazado_114461" data-name="Trazado 114461" d="M115.948,293.092l8.06-9.872-17.818-14.8-9.98,8.288Z" transform="translate(-59.352 -76.052)" fill="#e8e8e8"/>
                    <path id="Trazado_114462" data-name="Trazado 114462" d="M86.756,148.19l-8.076,9.888,17.834,14.784,9.98-8.288Z" transform="translate(-69.636 -148.19)" fill="#e8e8e8"/>
                    <path id="Trazado_114463" data-name="Trazado 114463" d="M89.91,271.528l10,8.288,9.98-8.288-9.98-8.288Z" transform="translate(-63.048 -79.16)" fill="#e8e8e8"/>
                    <path id="Trazado_114464" data-name="Trazado 114464" d="M109.886,219.128l-9.98-8.288-10,8.288,10,8.288Z" transform="translate(-63.048 -110.6)" fill="#e8e8e8"/>
                    <path id="Trazado_114465" data-name="Trazado 114465" d="M109.88,166.718,99.9,158.43l-9.98,8.288,9.98,8.288Z" transform="translate(-63.042 -142.046)" fill="#e8e8e8"/>
                    <g id="Grupo_81387" data-name="Grupo 81387" transform="translate(5.871 46.624)">
                      <g id="Grupo_81384" data-name="Grupo 81384" transform="translate(0 17.728)">
                        <path id="Trazado_114466" data-name="Trazado 114466" d="M136.418,192.89H78.9a2.237,2.237,0,0,1-2.221-2.24h0a2.237,2.237,0,0,1,2.221-2.24h57.517a2.237,2.237,0,0,1,2.221,2.24h0A2.237,2.237,0,0,1,136.418,192.89Z" transform="translate(-76.68 -188.41)" fill="#e8e8e8"/>
                        <path id="Trazado_114467" data-name="Trazado 114467" d="M107.662,192.89H78.911a2.237,2.237,0,0,1-2.221-2.24h0a2.237,2.237,0,0,1,2.221-2.24h28.75v4.48Z" transform="translate(-76.674 -188.41)" fill="#e8e8e8"/>
                      </g>
                      <g id="Grupo_81385" data-name="Grupo 81385" transform="translate(3.459)">
                        <path id="Trazado_114468" data-name="Trazado 114468" d="M81.081,181.81H131.7a2.237,2.237,0,0,0,2.221-2.24h0a2.237,2.237,0,0,0-2.221-2.24H81.081a2.237,2.237,0,0,0-2.221,2.24h0A2.237,2.237,0,0,0,81.081,181.81Z" transform="translate(-78.86 -177.33)" fill="#e8e8e8"/>
                        <path id="Trazado_114469" data-name="Trazado 114469" d="M96.21,181.81h25.307a2.237,2.237,0,0,0,2.221-2.24h0a2.237,2.237,0,0,0-2.221-2.24H96.21v4.48Z" transform="translate(-68.681 -177.33)" fill="#e8e8e8"/>
                      </g>
                      <g id="Grupo_81386" data-name="Grupo 81386" transform="translate(3.459 35.472)">
                        <path id="Trazado_114470" data-name="Trazado 114470" d="M81.081,199.5H131.7a2.237,2.237,0,0,1,2.221,2.24h0a2.237,2.237,0,0,1-2.221,2.24H81.081a2.237,2.237,0,0,1-2.221-2.24h0A2.237,2.237,0,0,1,81.081,199.5Z" transform="translate(-78.86 -199.5)" fill="#e8e8e8"/>
                        <path id="Trazado_114471" data-name="Trazado 114471" d="M96.21,199.5h25.307a2.237,2.237,0,0,1,2.221,2.24h0a2.237,2.237,0,0,1-2.221,2.24H96.21V199.5Z" transform="translate(-68.681 -199.5)" fill="#e8e8e8"/>
                      </g>
                    </g>
                    <path id="Trazado_114472" data-name="Trazado 114472" d="M108.56,182.17c7.616,6.32,11.821,14.624,11.821,23.376s-4.189,17.056-11.821,23.376L96.2,239.178l9.98,8.288,5.6-4.656h0l4.839-4.016c10.6-8.8,16.438-20.608,16.438-33.264s-5.839-24.464-16.438-33.264l-10.44-8.656L96.2,171.9l12.36,10.256Z" transform="translate(-59.358 -138.938)" fill="#e8e8e8"/>
                    <g id="Grupo_81391" data-name="Grupo 81391" transform="translate(5.871 130.464)">
                      <g id="Grupo_81388" data-name="Grupo 81388" transform="translate(0 17.744)">
                        <path id="Trazado_114473" data-name="Trazado 114473" d="M136.418,245.3H78.9a2.237,2.237,0,0,1-2.221-2.24h0a2.237,2.237,0,0,1,2.221-2.24h57.517a2.237,2.237,0,0,1,2.221,2.24h0A2.237,2.237,0,0,1,136.418,245.3Z" transform="translate(-76.68 -240.82)" fill="#e8e8e8"/>
                        <path id="Trazado_114474" data-name="Trazado 114474" d="M107.662,245.3H78.911a2.237,2.237,0,0,1-2.221-2.24h0a2.237,2.237,0,0,1,2.221-2.24h28.75v4.48Z" transform="translate(-76.674 -240.82)" fill="#e8e8e8"/>
                      </g>
                      <g id="Grupo_81389" data-name="Grupo 81389" transform="translate(3.459)">
                        <path id="Trazado_114475" data-name="Trazado 114475" d="M81.081,234.21H131.7a2.237,2.237,0,0,0,2.221-2.24h0a2.237,2.237,0,0,0-2.221-2.24H81.081a2.237,2.237,0,0,0-2.221,2.24h0A2.237,2.237,0,0,0,81.081,234.21Z" transform="translate(-78.86 -229.73)" fill="#e8e8e8"/>
                        <path id="Trazado_114476" data-name="Trazado 114476" d="M96.21,234.21h25.307a2.237,2.237,0,0,0,2.221-2.24h0a2.237,2.237,0,0,0-2.221-2.24H96.21v4.48Z" transform="translate(-68.681 -229.73)" fill="#e8e8e8"/>
                      </g>
                      <g id="Grupo_81390" data-name="Grupo 81390" transform="translate(3.459 35.472)">
                        <path id="Trazado_114477" data-name="Trazado 114477" d="M81.081,251.9H131.7a2.237,2.237,0,0,1,2.221,2.24h0a2.237,2.237,0,0,1-2.221,2.24H81.081a2.237,2.237,0,0,1-2.221-2.24h0A2.237,2.237,0,0,1,81.081,251.9Z" transform="translate(-78.86 -251.9)" fill="#e8e8e8"/>
                        <path id="Trazado_114478" data-name="Trazado 114478" d="M96.21,251.9h25.307a2.237,2.237,0,0,1,2.221,2.24h0a2.237,2.237,0,0,1-2.221,2.24H96.21V251.9Z" transform="translate(-68.681 -251.9)" fill="#e8e8e8"/>
                      </g>
                    </g>
                    <path id="Trazado_114479" data-name="Trazado 114479" d="M97.478,281.316C89.862,275,85.657,266.692,85.657,257.94s4.189-17.056,11.821-23.376l12.36-10.256-9.98-8.288-5.6,4.656h0l-4.839,4.016c-10.6,8.8-16.438,20.608-16.438,33.264s5.839,24.464,16.438,33.264l10.44,8.672,9.98-8.288-12.36-10.256Z" transform="translate(-72.98 -107.492)" fill="#e8e8e8"/>
                  </g>
                  <path id="Trazado_114480" data-name="Trazado 114480" d="M385.693,348.656c16.279,41.568,24.831,70.3,24.863,77.408.524,6.832.73,7.984-.508,24.352a174.476,174.476,0,0,1-54.6-28.816c-2.428-5.648-5.22-11.216-7.9-16.176a263.638,263.638,0,0,1,38.143-56.784" transform="translate(88.101 -27.92)" fill="#e3e1ef"/>
                </g>
                <g id="Grupo_81411" data-name="Grupo 81411" transform="translate(445.911)">
                  <g id="Grupo_81401" data-name="Grupo 81401" transform="translate(0 147.488)">
                    <g id="Grupo_81394" data-name="Grupo 81394" transform="translate(407.478 72.774)">
                      <path id="Trazado_114481" data-name="Trazado 114481" d="M617.748,251.806a146.754,146.754,0,0,1,14.518-17.12c1.222-1.184,5.315,1.264,1.38,9.184-1.444,2.9-3.824,5.856-4.2,7.936,4.332-.432,11.852-1.024,17.834-2.464,6.585-1.6,16.882-6.88,20.484-7.568a3.075,3.075,0,0,1,3.078,2.016,17.357,17.357,0,0,1,4.76-1.232,4.068,4.068,0,0,1,3.015,2.576c.048.208-.206.592-.666,1.072a3.885,3.885,0,0,1,.9-.064c1.047.112,2.459,2.176,2.634,3.344.063.384-.746,1.248-2.126,2.384a4.6,4.6,0,0,1,2.475,2.88c.349,1.824-13.677,12.72-19.77,16.752-6.331,3.488-35.494,14.7-35.494,14.7-12.154,8.064-15.74-13.536-15.74-13.536s3.665-16.4,6.934-20.864Z" transform="translate(-610.83 -234.404)" fill="#ffd0ca"/>
                      <path id="Trazado_114482" data-name="Trazado 114482" d="M635.58,258.314a63.534,63.534,0,0,0,6.553-1.12,40.217,40.217,0,0,0,4.332-1.168,15.148,15.148,0,0,0,2.221-1.1c.714-.4,1.46-.816,2.205-1.232,5.966-3.392,11.059-6.528,13.677-8.4-2.951,1.3-8.235,4.032-14.185,7.408q-1.118.648-2.19,1.248a15.53,15.53,0,0,1-2.078,1.1c-1.412.56-2.856.96-4.157,1.36-2.618.768-4.823,1.408-6.363,1.9Z" transform="translate(-596.31 -227.872)" fill="#e5a8a3"/>
                      <path id="Trazado_114483" data-name="Trazado 114483" d="M634.15,254.442a46.351,46.351,0,0,0,6.759-1.072,39.3,39.3,0,0,0,9.155-3.216,107.658,107.658,0,0,0,14.217-8.384c-3.015,1.344-8.425,4.256-14.693,7.376a53.312,53.312,0,0,1-8.885,3.44c-2.682.816-4.966,1.408-6.553,1.856Z" transform="translate(-597.149 -229.984)" fill="#e5a8a3"/>
                      <path id="Trazado_114484" data-name="Trazado 114484" d="M632.22,250.112c1.4-.144,3.38-.464,5.744-.96a48.847,48.847,0,0,0,7.949-2.224,89.562,89.562,0,0,0,12.408-6.608c-2.65.944-7.394,3.184-12.82,5.584-2.7,1.088-5.442,1.76-7.727,2.48-2.3.688-4.221,1.28-5.537,1.744Z" transform="translate(-598.281 -230.854)" fill="#e5a8a3"/>
                    </g>
                    <path id="Trazado_114485" data-name="Trazado 114485" d="M501.321,213.9c-7.6-8.512-15.914-16.784-26.291-21.472-10.377-4.672-23.245-5.136-32.543,1.456a18.283,18.283,0,0,0-5.934,6.64c-1.9,3.856-1.952,8.384-1.38,12.64.952,7.008,3.491,13.808,3.681,20.88s-2.824,15.008-9.409,17.472c-5.141,1.92-11.011.016-16.279,1.52-6.442,1.824-10.758,9.232-9.2,15.808.9,3.84,3.443,7.04,5.68,10.272,3.443,4.976,6.363,10.448,7.521,16.416.825,4.272.6,9.024-1.983,12.5-4.252,5.7-12.5,5.6-19.421,7.088-8.806,1.9-17.247,7.968-19.627,16.736a25.729,25.729,0,0,0-.1,11.84c3.221,15.824,17.39,28.448,33.257,30.8s32.495-5.088,42.332-17.84,12.963-30.208,9.33-45.952c-2.777-12.016-7.219-20.9,3.443-28.176,12.662-8.64,12.09-33.808,5.569-41.664-9.552-11.52,3.11-31.92,19.119-18.08l12.233-8.88Z" transform="translate(-341.474 -188.92)" fill="#996350"/>
                    <path id="Trazado_114486" data-name="Trazado 114486" d="M534.382,260.118s13.693-10.96,6.124-38.336c-10-36.224-55.993-34.912-69.512-27.488-15.5,8.5-31.337,22.032-28.687,51.264,3.142,34.656,31.3,51.632,41.936,47.824,10.631-3.792,50.123-33.248,50.123-33.248Z" transform="translate(-302.39 -188.23)" fill="#996350"/>
                    <path id="Trazado_114487" data-name="Trazado 114487" d="M652.014,404.818c15.994,142.56-10.028,343.712-10.028,343.712-106.418,25.648-219.4-1.632-219.4-1.632,37.493-202.144,38.492-348.672,38.492-348.672s-40.032,43.184-41.793,54.512c-.9,10.56,72.019,70.48,72.019,70.48l-7.251,21.664s-131.979-61.2-130.011-86.928c.079-13.872,79.238-137.44,101.959-156.16,15.962-10.144,58.834-15.184,88.631-17.472,35.986-2.768,77.763,4.416,92.09,12.672,12.519,7.2,73.082,65.392,73.082,65.392l52.043-105.3,23.276,12.448s-40.254,169.52-69.829,169.008c-19.088-.32-63.276-33.712-63.276-33.712Z" transform="translate(-354.016 -148.018)" fill="#efefef"/>
                    <path id="Trazado_114488" data-name="Trazado 114488" d="M508.582,443.322c-8.2-22.288-24.2-63.488-43.03-110.608-2.4-5.984-4.76-11.872-7.061-17.616q9.258-4.176,18.025-8.128-9.449-3.144-18.294-6.1c-2.555-.848-5.061-1.664-7.5-2.48-1.222-.4-2.443-.8-3.649-1.2l-1.285-.416-.524-.16c8.076-4.4,15.486-8.416,22.039-11.984,7.029-3.856,13.138-7.232,18.167-10.064-5.173,2.544-11.424,5.664-18.58,9.28-3.57,1.808-7.378,3.744-11.376,5.776q-6.783,3.48-14.248,7.328c9.155,3.168,19.1,6.624,29.671,10.3-4.935,2.176-10,4.432-15.2,6.72,2.539,6.384,5.157,12.928,7.806,19.584,18.834,47.12,35.652,88,45.077,109.776Z" transform="translate(-302.833 -137.53)" fill="#afafaf"/>
                    <path id="Trazado_114489" data-name="Trazado 114489" d="M483.69,443.328c7.283-21.2,20.1-60.912,34.335-106.656,2.174-7.024,4.316-13.92,6.378-20.624-4.49-4.608-8.854-9.072-13.027-13.36q14.066-2.712,26.275-5.072-6.878-4.008-13.138-7.664c-3.6-2.08-7.029-4.048-10.234-5.9-6.426-3.7-12.059-6.88-16.739-9.488,4.522,2.88,10,6.32,16.3,10.24,5.776,3.568,12.313,7.616,19.453,12.032-.333.048-.666.1-1.016.16-1.031.176-2.063.368-3.126.544-2.094.368-4.236.752-6.426,1.12q-7.426,1.32-15.359,2.736,7.045,7.344,14.613,15.232c-1.967,6.288-3.983,12.768-6.061,19.36-14.232,45.744-26.2,85.728-32.225,107.328Z" transform="translate(-277.941 -137.536)" fill="#afafaf"/>
                    <path id="Trazado_114490" data-name="Trazado 114490" d="M469.1,685.736c4.887-30.272,13.074-86.912,18.405-152.352,2.681-32.72,4.332-63.392,5.061-89.712.714-26.336.508-48.32-.317-63.632.159,15.344-.19,37.3-1.285,63.584-1.111,26.288-2.983,56.912-5.664,89.584C479.969,598.584,472.686,655.256,469.1,685.736Z" transform="translate(-286.501 -74.248)" fill="#afafaf"/>
                    <path id="Trazado_114491" data-name="Trazado 114491" d="M469.1,291.2l1.983-44.384H505.72l.365,44.384L492.249,459.972Z" transform="translate(-286.501 -154.18)" fill="#ecbdb7"/>
                    <path id="Trazado_114492" data-name="Trazado 114492" d="M471.6,292.892s15.375,8.848,30.734-.832L490.779,432.844l-19.2-139.936Z" transform="translate(-285.046 -127.036)" fill="#f9f7ec"/>
                    <path id="Trazado_114493" data-name="Trazado 114493" d="M465.509,248.162c-10.742-11.36-17.247-2.256-12.582,7.488,4.649,9.744,13.09,11.344,13.09,11.344s21.769,32.128,45.014,26.96c30.781-6.848,22.451-69.04,22.451-69.04s-11.091.3-25.244-9.264c0,0-6.95,11.632-34.335,18.432-5.807,1.44-.746,13.232-8.378,14.08Z" transform="translate(-296.888 -172.882)" fill="#ffd0ca"/>
                    <path id="Trazado_114494" data-name="Trazado 114494" d="M485.976,247.95a17.6,17.6,0,0,0,5.109.048,7.888,7.888,0,0,0,3.491-1.168,4.317,4.317,0,0,0,.555-.608l.381-.768c.079-.128-.111-.24-.159-.352-.079-.112-.159-.24-.254-.352l-.428-.5c-.413-.448-.762-.96-1.142-1.456a58.929,58.929,0,0,1-5.6-10.608,22.827,22.827,0,0,0,4.252,11.584c.413.528.809,1.072,1.253,1.552l.159.176.016.016h.016v.032c0,.016.048-.064-.032.048a8.308,8.308,0,0,1-2.761,1.184c-1.952.528-3.681.832-4.871,1.136Z" transform="translate(-276.609 -162.958)" fill="#dd9e97"/>
                    <g id="Grupo_81395" data-name="Grupo 81395" transform="translate(191.234 70.631)">
                      <path id="Trazado_114495" data-name="Trazado 114495" d="M484.535,237.362a5.025,5.025,0,1,1-5.728-4.24A5.048,5.048,0,0,1,484.535,237.362Z" transform="translate(-474.542 -233.064)" fill="#fff"/>
                      <path id="Trazado_114496" data-name="Trazado 114496" d="M479.887,240.117a2.839,2.839,0,1,1,2.364-3.232A2.809,2.809,0,0,1,479.887,240.117Z" transform="translate(-473.306 -232.22)" fill="#444"/>
                    </g>
                    <g id="Grupo_81396" data-name="Grupo 81396" transform="translate(223.059 65.664)">
                      <ellipse id="Elipse_4764" data-name="Elipse 4764" cx="5.03" cy="5.072" rx="5.03" ry="5.072" fill="#fff"/>
                      <path id="Trazado_114497" data-name="Trazado 114497" d="M499.947,237.017a2.839,2.839,0,1,1,2.364-3.232A2.809,2.809,0,0,1,499.947,237.017Z" transform="translate(-493.363 -229.113)" fill="#444"/>
                    </g>
                    <path id="Trazado_114498" data-name="Trazado 114498" d="M483.008,232.048a5.689,5.689,0,0,0-5.2-1.264c-2.364.48-3.983,2.064-4.284,3.248,1.19-.16,2.84-.672,4.728-1.056C480.121,232.576,481.85,232.432,483.008,232.048Z" transform="translate(-283.908 -163.888)" fill="#444"/>
                    <path id="Trazado_114499" data-name="Trazado 114499" d="M494.78,230.209c1.222,0,2.919-.368,4.823-.56,1.9-.208,3.633-.224,4.823-.416-.635-1.024-2.65-2.064-5.046-1.808a5.7,5.7,0,0,0-4.585,2.784Z" transform="translate(-271.435 -165.841)" fill="#444"/>
                    <path id="Trazado_114500" data-name="Trazado 114500" d="M496.5,244.16a18.107,18.107,0,0,1-4.7,1.92c-1.983.4-3.951.32-5.22.56a6,6,0,0,0,5.649,1.632,5.816,5.816,0,0,0,3.205-1.792,4.263,4.263,0,0,0,1.079-2.32Z" transform="translate(-276.246 -155.776)" fill="#fc83a0"/>
                    <g id="Grupo_81398" data-name="Grupo 81398" transform="translate(168.621 60.766)">
                      <g id="Grupo_81397" data-name="Grupo 81397" transform="translate(17.388)">
                        <path id="Trazado_114501" data-name="Trazado 114501" d="M491.227,238.515A10.046,10.046,0,1,1,479.8,230,10.111,10.111,0,0,1,491.227,238.515Z" transform="translate(-471.249 -225.105)" fill="none" stroke="#444" stroke-linecap="round" stroke-miterlimit="10" stroke-width="1"/>
                        <path id="Trazado_114502" data-name="Trazado 114502" d="M511.287,235.525a10.046,10.046,0,1,1-11.424-8.512A10.111,10.111,0,0,1,511.287,235.525Z" transform="translate(-459.48 -226.899)" fill="none" stroke="#444" stroke-linecap="round" stroke-miterlimit="10" stroke-width="1"/>
                        <line id="Línea_155" data-name="Línea 155" y1="1.776" x2="11.948" transform="translate(19.978 11.634)" fill="none" stroke="#444" stroke-linecap="round" stroke-miterlimit="10" stroke-width="1"/>
                      </g>
                      <line id="Línea_156" data-name="Línea 156" x1="17.501" y1="1.92" transform="translate(0 14.514)" fill="none" stroke="#444" stroke-linecap="round" stroke-miterlimit="10" stroke-width="1"/>
                    </g>
                    <g id="Grupo_81399" data-name="Grupo 81399" transform="translate(128.288 373.024)">
                      <path id="Trazado_114503" data-name="Trazado 114503" d="M455.243,422.06c-4.3,0-14.026,2.88-14.026,2.88-2.38,5.12-6.347,18.976-6.347,18.976s9.948,12.128,15.914,15.76c0,0,14.708,6.8,21.341,8.24,5.49.7,20.1.16,20.674-1.264a2.581,2.581,0,0,0-.984-2.96,15.718,15.718,0,0,0-2.19-.816c4.173-.128,7.267-.5,7.489-1.072A2.811,2.811,0,0,0,496,458.6a25.863,25.863,0,0,0-4.078-1.312c4.332-.128,7.553-.5,7.775-1.072a2.811,2.811,0,0,0-1.111-3.2,50.341,50.341,0,0,0-7.505-2.176c2.729-.176,4.712-.5,4.966-.992a2.937,2.937,0,0,0-.825-3.344c-1.6-1.376-14.835-3.968-17.8-4.912-4.2-1.344-13.09-7.44-14.232-9.3a38.131,38.131,0,0,1,7.251-.1c8.631.992,11.646-3.6,11.281-5.136-.333-1.424-9.171-2.672-10.948-3.088a96.568,96.568,0,0,0-15.533-1.92Z" transform="translate(-434.87 -422.06)" fill="#ffd0ca"/>
                      <path id="Trazado_114504" data-name="Trazado 114504" d="M448.926,434.14a150.449,150.449,0,0,0,16.089,7.936c.889.368,1.761.72,2.666,1.024a13.363,13.363,0,0,0,2.745.528c1.777.192,3.443.24,4.982.256a70.856,70.856,0,0,0,7.426-.272c-1.809-.128-4.347-.32-7.394-.528-1.523-.112-3.173-.24-4.887-.48a15.268,15.268,0,0,1-2.539-.544c-.841-.288-1.714-.656-2.586-1.008-7.029-2.976-13.138-5.7-16.517-6.912Z" transform="translate(-426.633 -414.812)" fill="#e5a8a3"/>
                      <path id="Trazado_114505" data-name="Trazado 114505" d="M447.716,438.08a125.5,125.5,0,0,0,17.485,8.128,23.691,23.691,0,0,0,2.983.88c1,.176,1.983.272,2.919.368,1.888.16,3.681.24,5.331.288,3.3.1,6.061.064,7.981-.032-1.92-.224-4.649-.48-7.933-.768-1.634-.144-3.411-.3-5.284-.528-.92-.112-1.888-.224-2.824-.4a24.4,24.4,0,0,1-2.824-.864c-7.648-2.848-14.217-5.792-17.85-7.072Z" transform="translate(-427.343 -412.448)" fill="#e5a8a3"/>
                      <path id="Trazado_114506" data-name="Trazado 114506" d="M447.04,442.63c3.11,2.064,9.5,4.7,16.993,7.2a21.1,21.1,0,0,0,2.872.784,25.216,25.216,0,0,0,2.824.288c1.825.112,3.538.112,5.125.1,3.173-.048,5.807-.24,7.648-.448-1.856-.08-4.49-.208-7.632-.352-1.571-.08-3.284-.16-5.061-.32-.889-.08-1.809-.176-2.7-.336a19.409,19.409,0,0,1-2.713-.768c-7.457-2.48-13.947-4.672-17.342-6.144Z" transform="translate(-427.73 -409.718)" fill="#e5a8a3"/>
                    </g>
                    <g id="Grupo_81400" data-name="Grupo 81400" transform="translate(99.014 345.008)">
                      <path id="Trazado_114507" data-name="Trazado 114507" d="M416.42,441.168s21.309,10.8,31.035,15.232l7.251-21.664s-17.533-13.84-35.113-30.176" transform="translate(-416.42 -404.544)" fill="#fff"/>
                      <path id="Trazado_114508" data-name="Trazado 114508" d="M419.577,404.566c3.269,3.44,8,8.08,13.852,13.408,2.919,2.672,6.125,5.52,9.584,8.464,1.729,1.472,3.522,2.976,5.347,4.512,1.65,1.36,3.348,2.752,5.061,4.16-.476,1.408-1,2.96-1.523,4.528-1.729,5.28-3.411,10.368-5,15.216,0,.032,0,.128-.079.08h-.064l-.333-.176-.841-.4c-1.111-.528-2.206-1.04-3.284-1.552-2.158-1.008-4.252-1.984-6.267-2.928-8.044-3.728-14.8-6.736-19.611-8.72,4.49,2.576,11.027,6.1,18.913,10.176,1.983,1.024,4.03,2.08,6.172,3.168,1.063.544,2.158,1.088,3.253,1.664.7.352,1.412.7,2.11,1.072l.809.4c.127.032.3.208.381.128l.143-.432.587-1.728c1.65-4.848,3.4-9.968,5.188-15.248.7-2.08,1.38-4.144,2-6.016q-3.213-2.568-6.315-5.04-2.785-2.256-5.426-4.384c-3.507-2.88-6.807-5.584-9.853-8.1-6.093-5.04-11.17-9.248-14.819-12.272Z" transform="translate(-416.42 -404.55)" fill="#b6c7d3"/>
                    </g>
                  </g>
                  <g id="Grupo_81410" data-name="Grupo 81410" transform="translate(394.261)">
                    <path id="Trazado_114509" data-name="Trazado 114509" d="M608.2,231.77l8.076,9.872,19.738-16.384-10-8.288Z" transform="translate(-599.156 -24.602)" fill="#e8e8e8"/>
                    <path id="Trazado_114510" data-name="Trazado 114510" d="M627,177.456c-7.616-6.32-11.821-14.624-11.821-23.376s4.2-17.056,11.821-23.376l12.36-10.256-9.98-8.288-10.44,8.672c-10.6,8.8-16.438,20.608-16.438,33.264s5.839,24.464,16.438,33.264l4.839,4.016h0l5.6,4.656,9.98-8.288L627,177.488Z" transform="translate(-602.5 -87.488)" fill="#e8e8e8"/>
                    <path id="Trazado_114511" data-name="Trazado 114511" d="M653.529,106.628l-8.06-9.888L625.73,113.124l9.98,8.288Z" transform="translate(-588.872 -96.74)" fill="#e8e8e8"/>
                    <path id="Trazado_114512" data-name="Trazado 114512" d="M662.588,206.5c0-12.64-5.839-24.464-16.438-33.264l-4.839-4.016h0l-5.6-4.656-9.98,8.288L638.09,183.1c7.616,6.32,11.821,14.624,11.821,23.376s-4.189,17.056-11.821,23.376l-12.36,10.256,9.98,8.288,10.44-8.656c10.6-8.8,16.438-20.608,16.438-33.264Z" transform="translate(-588.872 -56.048)" fill="#e8e8e8"/>
                    <path id="Trazado_114513" data-name="Trazado 114513" d="M645.468,241.642l8.06-9.872-17.818-14.8-9.98,8.288Z" transform="translate(-588.872 -24.602)" fill="#e8e8e8"/>
                    <path id="Trazado_114514" data-name="Trazado 114514" d="M616.276,96.74l-8.076,9.888,17.818,14.784,10-8.288Z" transform="translate(-599.156 -96.74)" fill="#e8e8e8"/>
                    <path id="Trazado_114515" data-name="Trazado 114515" d="M619.43,220.078l10,8.288,9.98-8.288-9.98-8.288Z" transform="translate(-592.568 -27.71)" fill="#e8e8e8"/>
                    <path id="Trazado_114516" data-name="Trazado 114516" d="M639.406,167.684l-9.98-8.3-10,8.3,10,8.288Z" transform="translate(-592.568 -59.156)" fill="#e8e8e8"/>
                    <path id="Trazado_114517" data-name="Trazado 114517" d="M639.406,115.268l-9.98-8.288-10,8.288,10,8.288Z" transform="translate(-592.568 -90.596)" fill="#e8e8e8"/>
                    <g id="Grupo_81405" data-name="Grupo 81405" transform="translate(5.871 46.624)">
                      <g id="Grupo_81402" data-name="Grupo 81402" transform="translate(0 17.728)">
                        <path id="Trazado_114518" data-name="Trazado 114518" d="M665.938,141.44H608.421a2.237,2.237,0,0,1-2.221-2.24h0a2.237,2.237,0,0,1,2.221-2.24h57.517a2.237,2.237,0,0,1,2.221,2.24h0A2.237,2.237,0,0,1,665.938,141.44Z" transform="translate(-606.2 -136.96)" fill="#e8e8e8"/>
                        <path id="Trazado_114519" data-name="Trazado 114519" d="M637.182,141.44h-28.75a2.237,2.237,0,0,1-2.221-2.24h0a2.237,2.237,0,0,1,2.221-2.24h28.75Z" transform="translate(-606.194 -136.96)" fill="#e8e8e8"/>
                      </g>
                      <g id="Grupo_81403" data-name="Grupo 81403" transform="translate(3.459)">
                        <path id="Trazado_114520" data-name="Trazado 114520" d="M610.6,130.36h50.615a2.237,2.237,0,0,0,2.221-2.24h0a2.237,2.237,0,0,0-2.221-2.24H610.6a2.237,2.237,0,0,0-2.221,2.24h0A2.237,2.237,0,0,0,610.6,130.36Z" transform="translate(-608.38 -125.88)" fill="#e8e8e8"/>
                        <path id="Trazado_114521" data-name="Trazado 114521" d="M625.73,130.36h25.307a2.237,2.237,0,0,0,2.221-2.24h0a2.237,2.237,0,0,0-2.221-2.24H625.73Z" transform="translate(-598.201 -125.88)" fill="#e8e8e8"/>
                      </g>
                      <g id="Grupo_81404" data-name="Grupo 81404" transform="translate(3.459 35.472)">
                        <path id="Trazado_114522" data-name="Trazado 114522" d="M610.6,148.05h50.615a2.237,2.237,0,0,1,2.221,2.24h0a2.237,2.237,0,0,1-2.221,2.24H610.6a2.237,2.237,0,0,1-2.221-2.24h0A2.237,2.237,0,0,1,610.6,148.05Z" transform="translate(-608.38 -148.05)" fill="#e8e8e8"/>
                        <path id="Trazado_114523" data-name="Trazado 114523" d="M625.73,148.05h25.307a2.237,2.237,0,0,1,2.221,2.24h0a2.237,2.237,0,0,1-2.221,2.24H625.73v-4.48Z" transform="translate(-598.201 -148.05)" fill="#e8e8e8"/>
                      </g>
                    </g>
                    <path id="Trazado_114524" data-name="Trazado 114524" d="M638.08,130.716c7.616,6.32,11.821,14.624,11.821,23.376s-4.189,17.056-11.821,23.376l-12.36,10.256,9.98,8.288,5.6-4.656h0l4.839-4.016c10.6-8.8,16.438-20.608,16.438-33.264s-5.839-24.464-16.438-33.264L635.7,112.14l-9.98,8.288,12.36,10.256Z" transform="translate(-588.878 -87.5)" fill="#e8e8e8"/>
                    <g id="Grupo_81409" data-name="Grupo 81409" transform="translate(5.871 130.464)">
                      <g id="Grupo_81406" data-name="Grupo 81406" transform="translate(0 17.744)">
                        <path id="Trazado_114525" data-name="Trazado 114525" d="M665.938,193.85H608.421a2.237,2.237,0,0,1-2.221-2.24h0a2.237,2.237,0,0,1,2.221-2.24h57.517a2.237,2.237,0,0,1,2.221,2.24h0A2.237,2.237,0,0,1,665.938,193.85Z" transform="translate(-606.2 -189.37)" fill="#e8e8e8"/>
                        <path id="Trazado_114526" data-name="Trazado 114526" d="M637.182,193.85h-28.75a2.237,2.237,0,0,1-2.221-2.24h0a2.237,2.237,0,0,1,2.221-2.24h28.75Z" transform="translate(-606.194 -189.37)" fill="#e8e8e8"/>
                      </g>
                      <g id="Grupo_81407" data-name="Grupo 81407" transform="translate(3.459)">
                        <path id="Trazado_114527" data-name="Trazado 114527" d="M610.6,182.76h50.615a2.237,2.237,0,0,0,2.221-2.24h0a2.237,2.237,0,0,0-2.221-2.24H610.6a2.237,2.237,0,0,0-2.221,2.24h0A2.237,2.237,0,0,0,610.6,182.76Z" transform="translate(-608.38 -178.28)" fill="#e8e8e8"/>
                        <path id="Trazado_114528" data-name="Trazado 114528" d="M625.73,182.76h25.307a2.237,2.237,0,0,0,2.221-2.24h0a2.237,2.237,0,0,0-2.221-2.24H625.73v4.48Z" transform="translate(-598.201 -178.28)" fill="#e8e8e8"/>
                      </g>
                      <g id="Grupo_81408" data-name="Grupo 81408" transform="translate(3.459 35.472)">
                        <path id="Trazado_114529" data-name="Trazado 114529" d="M610.6,200.45h50.615a2.237,2.237,0,0,1,2.221,2.24h0a2.237,2.237,0,0,1-2.221,2.24H610.6a2.237,2.237,0,0,1-2.221-2.24h0A2.237,2.237,0,0,1,610.6,200.45Z" transform="translate(-608.38 -200.45)" fill="#e8e8e8"/>
                        <path id="Trazado_114530" data-name="Trazado 114530" d="M625.73,200.45h25.307a2.237,2.237,0,0,1,2.221,2.24h0a2.237,2.237,0,0,1-2.221,2.24H625.73v-4.48Z" transform="translate(-598.201 -200.45)" fill="#e8e8e8"/>
                      </g>
                    </g>
                    <path id="Trazado_114531" data-name="Trazado 114531" d="M627,229.866c-7.616-6.32-11.821-14.624-11.821-23.376s4.2-17.056,11.821-23.376l12.36-10.256-9.98-8.288-5.6,4.656h0l-4.839,4.016c-10.6,8.8-16.438,20.608-16.438,33.264s5.839,24.464,16.438,33.264l10.44,8.656,9.98-8.288L627,229.882Z" transform="translate(-602.5 -56.042)" fill="#e8e8e8"/>
                  </g>
                </g>
              </g>
              <g id="Grupo_81415" data-name="Grupo 81415" transform="translate(909.523 128.776)">
                <path id="Trazado_114532" data-name="Trazado 114532" d="M588.641,199.083a2.017,2.017,0,1,1-1.936-2.112A2.026,2.026,0,0,1,588.641,199.083Z" transform="translate(-566.553 -10.595)" fill="#fff"/>
                <path id="Trazado_114533" data-name="Trazado 114533" d="M674.221,165.773a2.017,2.017,0,1,1-1.936-2.112A2.026,2.026,0,0,1,674.221,165.773Z" transform="translate(-516.346 -30.581)" fill="#fff"/>
                <g id="Grupo_81414" data-name="Grupo 81414">
                  <path id="Trazado_114534" data-name="Trazado 114534" d="M577.261,145.863a2.017,2.017,0,1,1-1.936-2.112A2.026,2.026,0,0,1,577.261,145.863Z" transform="translate(-573.229 -42.527)" fill="#fff"/>
                  <g id="Grupo_81413" data-name="Grupo 81413" transform="translate(31.157)">
                    <path id="Trazado_114535" data-name="Trazado 114535" d="M597.315,130.424a4.069,4.069,0,1,1,3.6-4.464A4.039,4.039,0,0,1,597.315,130.424Z" transform="translate(-592.865 -55.392)" fill="#fff"/>
                    <path id="Trazado_114536" data-name="Trazado 114536" d="M650.4,171.575a4.069,4.069,0,1,1,3.6-4.464A4.028,4.028,0,0,1,650.4,171.575Z" transform="translate(-561.718 -30.703)" fill="#fff"/>
                    <path id="Trazado_121492" data-name="Trazado 121492" d="M4.033-.009A4.025,4.025,0,0,1,8.057,4.042,4.07,4.07,0,0,1,4.014,8.113,4.025,4.025,0,0,1-.009,4.061,4.07,4.07,0,0,1,4.033-.009Z" transform="translate(52.291 2.351) rotate(-16.81)" fill="#fff"/>
                    <path id="Trazado_114537" data-name="Trazado 114537" d="M605.274,240.115a4.069,4.069,0,1,1,3.6-4.464A4.028,4.028,0,0,1,605.274,240.115Z" transform="translate(-588.194 10.421)" fill="#fff"/>
                    <path id="Trazado_114538" data-name="Trazado 114538" d="M666.081,197.763a2.017,2.017,0,1,1-1.936-2.112A2.026,2.026,0,0,1,666.081,197.763Z" transform="translate(-552.278 -11.387)" fill="#fff"/>
                    <path id="Trazado_114539" data-name="Trazado 114539" d="M668.221,140.793a2.017,2.017,0,1,1-1.936-2.112A2.026,2.026,0,0,1,668.221,140.793Z" transform="translate(-551.022 -45.569)" fill="#fff"/>
                    <path id="Trazado_114540" data-name="Trazado 114540" d="M666.081,89.463a2.017,2.017,0,1,1-1.936-2.112A2.026,2.026,0,0,1,666.081,89.463Z" transform="translate(-552.278 -76.367)" fill="#fff"/>
                    <path id="Trazado_114541" data-name="Trazado 114541" d="M608.51,94.012A2.015,2.015,0,1,1,606.5,91.98,2.027,2.027,0,0,1,608.51,94.012Z" transform="translate(-586.051 -73.588)" fill="#fff"/>
                    <path id="Trazado_114542" data-name="Trazado 114542" d="M608.018,167.318a6.3,6.3,0,1,1-6.3-6.368A6.334,6.334,0,0,1,608.018,167.318Z" transform="translate(-591.367 -32.206)" fill="#fff"/>
                    <ellipse id="Elipse_4766" data-name="Elipse 4766" cx="6.299" cy="6.352" rx="6.299" ry="6.352" transform="translate(94.477 222.232)" fill="#fff"/>
                    <ellipse id="Elipse_4767" data-name="Elipse 4767" cx="6.299" cy="6.352" rx="6.299" ry="6.352" transform="translate(94.477 44.92)" fill="#fff"/>
                  </g>
                </g>
              </g>
              <g id="Grupo_81416" data-name="Grupo 81416" transform="translate(60.309 213.024)">
                <path id="Trazado_114543" data-name="Trazado 114543" d="M128.932,173.3a4.011,4.011,0,0,1-5.7-.224,4.093,4.093,0,0,1,.222-5.744,4.011,4.011,0,0,1,5.7.224A4.093,4.093,0,0,1,128.932,173.3Z" transform="translate(11.361 -113.271)" fill="#fff"/>
                <path id="Trazado_114544" data-name="Trazado 114544" d="M65.659,219.969a4.036,4.036,0,1,1-3.7-4.384A4.046,4.046,0,0,1,65.659,219.969Z" transform="translate(-26.516 -83.681)" fill="#fff"/>
                <path id="Trazado_114545" data-name="Trazado 114545" d="M134.459,242.669a4.036,4.036,0,1,1-3.7-4.384A4.046,4.046,0,0,1,134.459,242.669Z" transform="translate(13.847 -70.061)" fill="#fff"/>
                <path id="Trazado_114546" data-name="Trazado 114546" d="M127.739,137.849a4.036,4.036,0,1,1-3.7-4.384A4.046,4.046,0,0,1,127.739,137.849Z" transform="translate(9.904 -132.953)" fill="#fff"/>
                <path id="Trazado_114547" data-name="Trazado 114547" d="M74.079,266.149a4.036,4.036,0,1,1-3.7-4.384A4.046,4.046,0,0,1,74.079,266.149Z" transform="translate(-21.576 -55.973)" fill="#fff"/>
                <path id="Trazado_114548" data-name="Trazado 114548" d="M123.72,215.062a2.015,2.015,0,1,1-2.015-2.032A2.026,2.026,0,0,1,123.72,215.062Z" transform="translate(9.909 -85.206)" fill="#fff"/>
                <path id="Trazado_114549" data-name="Trazado 114549" d="M42.04,207.442a2.015,2.015,0,1,1-2.015-2.032A2.026,2.026,0,0,1,42.04,207.442Z" transform="translate(-38.01 -89.778)" fill="#fff"/>
                <path id="Trazado_114550" data-name="Trazado 114550" d="M55.24,285.922a2.015,2.015,0,1,1-2.015-2.032A2.026,2.026,0,0,1,55.24,285.922Z" transform="translate(-30.266 -42.69)" fill="#fff"/>
                <path id="Trazado_114551" data-name="Trazado 114551" d="M61.63,186.322a2.015,2.015,0,1,1-2.015-2.032A2.026,2.026,0,0,1,61.63,186.322Z" transform="translate(-26.517 -102.45)" fill="#fff"/>
                <path id="Trazado_114552" data-name="Trazado 114552" d="M98.958,141.642a2.019,2.019,0,1,1-2.221-1.808A2.039,2.039,0,0,1,98.958,141.642Z" transform="translate(-4.615 -129.13)" fill="#fff"/>
                <ellipse id="Elipse_4768" data-name="Elipse 4768" cx="6.315" cy="6.368" rx="6.315" ry="6.368" transform="translate(163.014 102.048)" fill="#fff"/>
                <path id="Trazado_114553" data-name="Trazado 114553" d="M141.45,274.778a6.315,6.315,0,1,1-6.315-6.368A6.338,6.338,0,0,1,141.45,274.778Z" transform="translate(15.265 -51.978)" fill="#fff"/>
                <ellipse id="Elipse_4769" data-name="Elipse 4769" cx="6.315" cy="6.368" rx="6.315" ry="6.368" transform="translate(42.824)" fill="#fff"/>
              </g>
              <g id="Grupo_81426" data-name="Grupo 81426" transform="translate(457.411 58.48)">
                <g id="Grupo_81425" data-name="Grupo 81425" transform="translate(57.732 12.992)">
                  <path id="Trazado_114554" data-name="Trazado 114554" d="M333.36,250.052l12.281,15.024,30.02-24.928L360.476,227.54Z" transform="translate(-319.572 65.052)" fill="#e8e8e8"/>
                  <path id="Trazado_114555" data-name="Trazado 114555" d="M361.951,167.452c-11.583-9.616-17.977-22.24-17.977-35.552s6.378-25.936,17.977-35.552l18.786-15.6L365.553,68.14,349.686,81.324c-16.121,13.392-25.006,31.36-25.006,50.592s8.885,37.2,25.006,50.592l7.362,6.112h0l8.52,7.072,15.184-12.608-18.786-15.6Z" transform="translate(-324.664 -30.588)" fill="#e8e8e8"/>
                  <path id="Trazado_114556" data-name="Trazado 114556" d="M402.3,59.71,390.04,44.67,360.02,69.6,375.2,82.206Z" transform="translate(-303.931 -44.67)" fill="#e8e8e8"/>
                  <path id="Trazado_114557" data-name="Trazado 114557" d="M416.083,211.606c0-19.232-8.885-37.2-25.006-50.592l-7.362-6.112h0l-8.52-7.072L360.01,160.438l18.786,15.6c11.583,9.616,17.977,22.24,17.977,35.552s-6.378,25.936-17.977,35.552l-18.786,15.6,15.184,12.608,15.867-13.184c16.121-13.392,25.006-31.36,25.006-50.592Z" transform="translate(-303.937 17.226)" fill="#e8e8e8"/>
                  <path id="Trazado_114558" data-name="Trazado 114558" d="M390.04,265.076,402.3,250.052,375.2,227.54,360.02,240.148Z" transform="translate(-303.931 65.052)" fill="#e8e8e8"/>
                  <path id="Trazado_114559" data-name="Trazado 114559" d="M345.641,44.67,333.36,59.71l27.116,22.5L375.661,69.6Z" transform="translate(-319.572 -44.67)" fill="#e8e8e8"/>
                  <path id="Trazado_114560" data-name="Trazado 114560" d="M350.45,232.268l15.184,12.608,15.184-12.608L365.634,219.66Z" transform="translate(-309.546 60.324)" fill="#e8e8e8"/>
                  <path id="Trazado_114561" data-name="Trazado 114561" d="M380.819,152.568,365.634,139.96,350.45,152.568l15.184,12.608Z" transform="translate(-309.546 12.504)" fill="#e8e8e8"/>
                  <path id="Trazado_114562" data-name="Trazado 114562" d="M380.819,72.858,365.634,60.25,350.45,72.858l15.184,12.608Z" transform="translate(-309.546 -35.322)" fill="#e8e8e8"/>
                  <g id="Grupo_81420" data-name="Grupo 81420" transform="translate(8.965 70.912)">
                    <g id="Grupo_81417" data-name="Grupo 81417" transform="translate(0 26.976)">
                      <path id="Trazado_114563" data-name="Trazado 114563" d="M421.173,112.666H333.7a3.4,3.4,0,0,1-3.38-3.408h0a3.387,3.387,0,0,1,3.38-3.408h87.489a3.4,3.4,0,0,1,3.38,3.408h0a3.4,3.4,0,0,1-3.38,3.408Z" transform="translate(-330.32 -105.85)" fill="#e8e8e8"/>
                      <path id="Trazado_114564" data-name="Trazado 114564" d="M377.444,112.666H333.7a3.4,3.4,0,0,1-3.38-3.408h0a3.387,3.387,0,0,1,3.38-3.408h43.744Z" transform="translate(-330.32 -105.85)" fill="#e8e8e8"/>
                    </g>
                    <g id="Grupo_81418" data-name="Grupo 81418" transform="translate(5.252)">
                      <path id="Trazado_114565" data-name="Trazado 114565" d="M337.01,95.806h76.985a3.4,3.4,0,0,0,3.38-3.408h0a3.387,3.387,0,0,0-3.38-3.408H337.01a3.4,3.4,0,0,0-3.38,3.408h0A3.386,3.386,0,0,0,337.01,95.806Z" transform="translate(-333.63 -88.99)" fill="#e8e8e8"/>
                      <path id="Trazado_114566" data-name="Trazado 114566" d="M360.02,95.806h38.493a3.4,3.4,0,0,0,3.38-3.408h0a3.387,3.387,0,0,0-3.38-3.408H360.02v6.8Z" transform="translate(-318.148 -88.99)" fill="#e8e8e8"/>
                    </g>
                    <g id="Grupo_81419" data-name="Grupo 81419" transform="translate(5.252 53.968)">
                      <path id="Trazado_114567" data-name="Trazado 114567" d="M337.01,122.72h76.985a3.4,3.4,0,0,1,3.38,3.408h0a3.387,3.387,0,0,1-3.38,3.408H337.01a3.4,3.4,0,0,1-3.38-3.408h0A3.386,3.386,0,0,1,337.01,122.72Z" transform="translate(-333.63 -122.72)" fill="#e8e8e8"/>
                      <path id="Trazado_114568" data-name="Trazado 114568" d="M360.02,122.72h38.493a3.4,3.4,0,0,1,3.38,3.408h0a3.387,3.387,0,0,1-3.38,3.408H360.02v-6.8Z" transform="translate(-318.148 -122.72)" fill="#e8e8e8"/>
                    </g>
                  </g>
                  <path id="Trazado_114569" data-name="Trazado 114569" d="M378.806,96.35c11.583,9.616,17.977,22.256,17.977,35.552s-6.378,25.936-17.977,35.552l-18.786,15.6L375.2,195.662l8.52-7.072h0l7.362-6.112c16.121-13.392,25.006-31.36,25.006-50.592s-8.885-37.2-25.006-50.592L375.22,68.11,360.036,80.718l18.786,15.6Z" transform="translate(-303.931 -30.606)" fill="#e8e8e8"/>
                  <g id="Grupo_81424" data-name="Grupo 81424" transform="translate(8.965 198.432)">
                    <g id="Grupo_81421" data-name="Grupo 81421" transform="translate(0 26.992)">
                      <path id="Trazado_114570" data-name="Trazado 114570" d="M421.173,192.376H333.7a3.4,3.4,0,0,1-3.38-3.408h0a3.387,3.387,0,0,1,3.38-3.408h87.489a3.4,3.4,0,0,1,3.38,3.408h0a3.386,3.386,0,0,1-3.38,3.408Z" transform="translate(-330.32 -185.56)" fill="#e8e8e8"/>
                      <path id="Trazado_114571" data-name="Trazado 114571" d="M377.444,192.376H333.7a3.4,3.4,0,0,1-3.38-3.408h0a3.387,3.387,0,0,1,3.38-3.408h43.744Z" transform="translate(-330.32 -185.56)" fill="#e8e8e8"/>
                    </g>
                    <g id="Grupo_81422" data-name="Grupo 81422" transform="translate(5.252)">
                      <path id="Trazado_114572" data-name="Trazado 114572" d="M337.01,175.506h76.985a3.4,3.4,0,0,0,3.38-3.408h0a3.387,3.387,0,0,0-3.38-3.408H337.01a3.4,3.4,0,0,0-3.38,3.408h0A3.387,3.387,0,0,0,337.01,175.506Z" transform="translate(-333.63 -168.69)" fill="#e8e8e8"/>
                      <path id="Trazado_114573" data-name="Trazado 114573" d="M360.02,175.506h38.493a3.4,3.4,0,0,0,3.38-3.408h0a3.387,3.387,0,0,0-3.38-3.408H360.02v6.816Z" transform="translate(-318.148 -168.69)" fill="#e8e8e8"/>
                    </g>
                    <g id="Grupo_81423" data-name="Grupo 81423" transform="translate(5.252 53.968)">
                      <path id="Trazado_114574" data-name="Trazado 114574" d="M337.01,202.42h76.985a3.4,3.4,0,0,1,3.38,3.408h0a3.387,3.387,0,0,1-3.38,3.408H337.01a3.4,3.4,0,0,1-3.38-3.408h0A3.387,3.387,0,0,1,337.01,202.42Z" transform="translate(-333.63 -202.42)" fill="#e8e8e8"/>
                      <path id="Trazado_114575" data-name="Trazado 114575" d="M360.02,202.42h38.493a3.4,3.4,0,0,1,3.38,3.408h0a3.387,3.387,0,0,1-3.38,3.408H360.02V202.42Z" transform="translate(-318.148 -202.42)" fill="#e8e8e8"/>
                    </g>
                  </g>
                  <path id="Trazado_114576" data-name="Trazado 114576" d="M361.957,247.152c-11.583-9.616-17.977-22.24-17.977-35.552s6.378-25.936,17.977-35.552l18.786-15.6L365.558,147.84l-8.52,7.072h0l-7.362,6.112c-16.121,13.392-25.006,31.36-25.006,50.592s8.885,37.2,25.006,50.592l15.867,13.184,15.184-12.608-18.786-15.6Z" transform="translate(-324.67 17.232)" fill="#e8e8e8"/>
                </g>
                <path id="Trazado_114577" data-name="Trazado 114577" d="M364.242,43.6a4.011,4.011,0,0,1-5.7-.224,4.093,4.093,0,0,1,.222-5.744,4.011,4.011,0,0,1,5.7.224A4.093,4.093,0,0,1,364.242,43.6Z" transform="translate(-247.692 -36.547)" fill="#fff"/>
                <path id="Trazado_114578" data-name="Trazado 114578" d="M428.154,138.715a4.069,4.069,0,1,1,3.6-4.464A4.028,4.028,0,0,1,428.154,138.715Z" transform="translate(-208.836 19.877)" fill="#fff"/>
                <ellipse id="Elipse_4770" data-name="Elipse 4770" cx="4.03" cy="4.064" rx="4.03" ry="4.064" transform="translate(171.718 223.28)" fill="#fff"/>
                <path id="Trazado_114579" data-name="Trazado 114579" d="M302.534,202.5a4.069,4.069,0,1,1,3.6-4.464A4.028,4.028,0,0,1,302.534,202.5Z" transform="translate(-282.533 58.151)" fill="#fff"/>
                <path id="Trazado_114580" data-name="Trazado 114580" d="M326.362,76.613a4.011,4.011,0,0,1-5.7-.224,4.093,4.093,0,0,1,.222-5.744,4.011,4.011,0,0,1,5.7.224A4.093,4.093,0,0,1,326.362,76.613Z" transform="translate(-269.915 -16.741)" fill="#fff"/>
                <path id="Trazado_114581" data-name="Trazado 114581" d="M328.912,251.933a4.011,4.011,0,0,1-5.7-.224,4.093,4.093,0,0,1,.222-5.744,4.011,4.011,0,0,1,5.7.224A4.093,4.093,0,0,1,328.912,251.933Z" transform="translate(-268.419 88.451)" fill="#fff"/>
                <path id="Trazado_114582" data-name="Trazado 114582" d="M371.272,264.5a4.011,4.011,0,0,1-5.7-.224,4.093,4.093,0,0,1,.222-5.744,4.011,4.011,0,0,1,5.7.224A4.092,4.092,0,0,1,371.272,264.5Z" transform="translate(-243.568 95.993)" fill="#fff"/>
                <path id="Trazado_114583" data-name="Trazado 114583" d="M292.292,104.619a2.016,2.016,0,1,1-1.682-2.32A2.023,2.023,0,0,1,292.292,104.619Z" transform="translate(-288.284 2.885)" fill="#fff"/>
                <path id="Trazado_114584" data-name="Trazado 114584" d="M316.822,175.3a2.016,2.016,0,1,1-1.682-2.32A2.023,2.023,0,0,1,316.822,175.3Z" transform="translate(-273.893 45.293)" fill="#fff"/>
                <path id="Trazado_114585" data-name="Trazado 114585" d="M398.092,229.669a2.016,2.016,0,1,1-1.682-2.32A2.023,2.023,0,0,1,398.092,229.669Z" transform="translate(-226.215 77.915)" fill="#fff"/>
                <path id="Trazado_114586" data-name="Trazado 114586" d="M411.28,105.582a2.015,2.015,0,1,1-2.015-2.032A2.026,2.026,0,0,1,411.28,105.582Z" transform="translate(-218.491 3.65)" fill="#fff"/>
                <path id="Trazado_114587" data-name="Trazado 114587" d="M411.86,150.582a2.015,2.015,0,1,1-2.015-2.032A2.026,2.026,0,0,1,411.86,150.582Z" transform="translate(-218.151 30.65)" fill="#fff"/>
                <path id="Trazado_114588" data-name="Trazado 114588" d="M327.44,220.132a2.015,2.015,0,1,1-2.015-2.032A2.026,2.026,0,0,1,327.44,220.132Z" transform="translate(-267.677 72.38)" fill="#fff"/>
                <path id="Trazado_114589" data-name="Trazado 114589" d="M324.9,39.852a2.015,2.015,0,1,1-2.015-2.032A2.026,2.026,0,0,1,324.9,39.852Z" transform="translate(-269.167 -35.788)" fill="#fff"/>
                <path id="Trazado_114590" data-name="Trazado 114590" d="M406.03,38.582a2.015,2.015,0,1,1-2.015-2.032A2.026,2.026,0,0,1,406.03,38.582Z" transform="translate(-221.571 -36.55)" fill="#fff"/>
                <ellipse id="Elipse_4771" data-name="Elipse 4771" cx="6.315" cy="6.368" rx="6.315" ry="6.368" transform="translate(22 167.264)" fill="#fff"/>
                <ellipse id="Elipse_4772" data-name="Elipse 4772" cx="6.315" cy="6.368" rx="6.315" ry="6.368" transform="translate(191.694 267.872)" fill="#fff"/>
                <ellipse id="Elipse_4773" data-name="Elipse 4773" cx="6.315" cy="6.368" rx="6.315" ry="6.368" transform="translate(182.444 50.528)" fill="#fff"/>
              </g>
            </g>
          </g>
        </g>
      </g>
      <path id="Trazado_124162" data-name="Trazado 124162" d="M49.69,0A49.69,49.69,0,1,1,0,49.69,49.77,49.77,0,0,1,49.69,0Z" transform="translate(-4606.5 -8342.5)" fill="none" stroke="#fff" stroke-width="3"/>
      <circle id="Elipse_5027" data-name="Elipse 5027" cx="31.693" cy="31.693" r="31.693" transform="translate(-4589 -8325)" fill="#fff"/>
      <g id="Grupo_83527" data-name="Grupo 83527" transform="translate(-4581 -8317)">
        <circle id="Elipse_4039" data-name="Elipse 4039" cx="23.484" cy="23.484" r="23.484" fill="#ffd947"/>
      </g>
      <path id="Trazado_124163" data-name="Trazado 124163" d="M49.69,0A49.69,49.69,0,1,1,0,49.69,49.77,49.77,0,0,1,49.69,0Z" transform="translate(-4084 -8342.5)" fill="none" stroke="#fff" stroke-width="3"/>
      <circle id="Elipse_5028" data-name="Elipse 5028" cx="31.693" cy="31.693" r="31.693" transform="translate(-4066.5 -8325)" fill="#fff"/>
      <g id="Grupo_83528" data-name="Grupo 83528" transform="translate(-4058.5 -8317)">
        <circle id="Elipse_4039-2" data-name="Elipse 4039" cx="23.484" cy="23.484" r="23.484" fill="#ffd947"/>
      </g>
      <path id="Trazado_124164" data-name="Trazado 124164" d="M49.69,0A49.69,49.69,0,1,1,0,49.69,49.77,49.77,0,0,1,49.69,0Z" transform="translate(-4770 -7922.5)" fill="none" stroke="#fff" stroke-width="3"/>
      <circle id="Elipse_5029" data-name="Elipse 5029" cx="31.693" cy="31.693" r="31.693" transform="translate(-4752.5 -7905)" fill="#fff"/>
      <g id="Grupo_83529" data-name="Grupo 83529" transform="translate(-4744.5 -7897)">
        <circle id="Elipse_4039-3" data-name="Elipse 4039" cx="23.484" cy="23.484" r="23.484" fill="#ffd947"/>
      </g>
      <path id="Trazado_124165" data-name="Trazado 124165" d="M49.69,0A49.69,49.69,0,1,1,0,49.69,49.77,49.77,0,0,1,49.69,0Z" transform="translate(-3937.5 -7922.5)" fill="none" stroke="#fff" stroke-width="3"/>
      <circle id="Elipse_5030" data-name="Elipse 5030" cx="31.693" cy="31.693" r="31.693" transform="translate(-3920 -7905)" fill="#fff"/>
      <g id="Grupo_83530" data-name="Grupo 83530" transform="translate(-3912 -7897)">
        <circle id="Elipse_4039-4" data-name="Elipse 4039" cx="23.484" cy="23.484" r="23.484" fill="#ffd947"/>
      </g>
    </g>
  </g>
</svg>
