<svg xmlns="http://www.w3.org/2000/svg" xmlns:xlink="http://www.w3.org/1999/xlink" width="209.317" height="231.719" viewBox="0 0 209.317 231.719"><defs><clipPath id="a"><path d="M380.111,187.118l-3.293,82.973a137.533,137.533,0,0,0,53.766-1.81l-13.864-61.1,4.922-28.076-7.027-7.663-9.02-4.077-13.458,16.608V169.937l-8.9,3.38Z" transform="translate(-376.818 -167.36)"/></clipPath><clipPath id="e"><path d="M418.612,148.49l1.074,8.689-13.443,16.983.467-13.3,1.522-2.1v-6.846Z" transform="translate(-406.243 -148.49)"/></clipPath><clipPath id="f"><path d="M389.515,449.013a40.806,40.806,0,0,1-5.806,5.806c-2.476,1.753-9.225,2.023-9.225,6.342h16.826l5.309-5.489a7.448,7.448,0,0,0-1.116-6.659Z" transform="translate(-374.485 -449.013)"/></clipPath><clipPath id="g"><path d="M478.514,449.013a40.8,40.8,0,0,0,5.806,5.806c2.476,1.753,9.224,2.023,9.224,6.342H476.718l-5.309-5.489a7.448,7.448,0,0,1,1.116-6.659Z" transform="translate(-471.069 -449.013)"/></clipPath></defs><g transform="translate(6074.283 -6821.171)"><g transform="translate(-6183.611 6793.495)"><g transform="translate(109.328 27.676)"><g transform="translate(0)"><g transform="translate(3.644 89.185)"><path d="M131.16,201.892h14.959a.5.5,0,0,1,.433.25l7.479,12.955a.5.5,0,0,1,0,.5l-7.479,12.955a.5.5,0,0,1-.433.25H131.16a.5.5,0,0,1-.433-.25l-7.48-12.955a.5.5,0,0,1,0-.5l7.48-12.955A.5.5,0,0,1,131.16,201.892Zm14.67,1H131.448l-7.191,12.455,7.191,12.455H145.83l7.191-12.455Z" transform="translate(-121.516 -200.527)" fill="#2e4c2e"/><path d="M162.858,250.121a2.164,2.164,0,1,0,2.164-2.164A2.164,2.164,0,0,0,162.858,250.121Z" transform="translate(-140.277 -222.347)" fill="#ffd947"/><path d="M133.608,250.121a2.164,2.164,0,1,0,2.164-2.164A2.164,2.164,0,0,0,133.608,250.121Z" transform="translate(-126.27 -222.347)" fill="#ffd947"/><path d="M162.858,200.977a2.164,2.164,0,1,0,2.164-2.164A2.164,2.164,0,0,0,162.858,200.977Z" transform="translate(-140.277 -198.813)" fill="#ffd947"/><path d="M133.608,200.977a2.164,2.164,0,1,0,2.164-2.164A2.164,2.164,0,0,0,133.608,200.977Z" transform="translate(-126.27 -198.813)" fill="#ffd947"/><path d="M119.528,225.262a2.164,2.164,0,1,0,2.164-2.164A2.164,2.164,0,0,0,119.528,225.262Z" transform="translate(-119.528 -210.442)" fill="#ffd947"/><path d="M176.938,225.262A2.164,2.164,0,1,0,179.1,223.1,2.164,2.164,0,0,0,176.938,225.262Z" transform="translate(-147.02 -210.442)" fill="#ffd947"/></g><g transform="translate(42.669)"><path d="M211.523,62.247a.5.5,0,0,1-.25-.067L198.318,54.7a.5.5,0,0,1-.25-.433V39.308a.5.5,0,0,1,.25-.433L211.273,31.4a.5.5,0,0,1,.5,0l12.955,7.479a.5.5,0,0,1,.25.433V54.267a.5.5,0,0,1-.25.433l-12.955,7.48A.5.5,0,0,1,211.523,62.247Zm-12.455-8.268,12.455,7.191,12.455-7.191V39.6l-12.455-7.191L199.068,39.6Z" transform="translate(-196.404 -29.665)" fill="#2e4c2e"/><path d="M196.579,71.006a2.164,2.164,0,1,0,2.164,2.164A2.164,2.164,0,0,0,196.579,71.006Z" transform="translate(-194.415 -48.425)" fill="#adce32"/><path d="M196.579,41.756a2.164,2.164,0,1,0,2.164,2.164A2.164,2.164,0,0,0,196.579,41.756Z" transform="translate(-194.415 -34.418)" fill="#adce32"/><path d="M245.723,71.006a2.164,2.164,0,1,0,2.164,2.164A2.164,2.164,0,0,0,245.723,71.006Z" transform="translate(-217.949 -48.425)" fill="#adce32"/><path d="M245.723,41.756a2.164,2.164,0,1,0,2.164,2.164A2.164,2.164,0,0,0,245.723,41.756Z" transform="translate(-217.949 -34.418)" fill="#adce32"/><path d="M221.438,27.676A2.164,2.164,0,1,0,223.6,29.84,2.164,2.164,0,0,0,221.438,27.676Z" transform="translate(-206.319 -27.676)" fill="#adce32"/><path d="M221.438,85.086A2.164,2.164,0,1,0,223.6,87.25,2.164,2.164,0,0,0,221.438,85.086Z" transform="translate(-206.319 -55.168)" fill="#adce32"/></g><path d="M320.118,192.8a56.749,56.749,0,0,0-3.588-6.174c-1.636-2.269-2.533-3.272-3.008-4.7s-3.166.844,0,4.749c-4.327-2.322-5.593-2.744-7.493-2.322s-2.216.9-1.9,1.847c-2.216.792-2.77,1.24-2.216,1.794-.844.844.581,1.53,2.586,1.055a5.231,5.231,0,0,1,3.746.688v.653a23.2,23.2,0,0,0-3.324-.339c-1.425,0-3.272-.053-2.955.581s1.055,1.266,4.01,1.266c2.8,1.055,7.124,5.119,10.5,4.274a7.025,7.025,0,0,0,2.849.792Z" transform="translate(-203.105 -101.336)" fill="#ffa2a3"/><path d="M334.5,199.1l-2.593-1.35-3.844,10,4.38,1.372Z" transform="translate(-215.745 -109.12)" fill="#fff"/><path d="M436.71,354.008,423.6,283.245c-1.618-7.734,1.491-11.665-1.047-19.147l-6.015-17.73-34.469-.708h0a196,196,0,0,0,2.63,59.726h0l7.919,48.623h6.2l2.366-36.521-.356-41.762,28.216,78.283h7.665Z" transform="translate(-241.048 -132.062)" fill="#3b3ebc"/><path d="M382.207,341.669v28.456s28.467,3.984,54.448-2.608l-8.479-28.687Z" transform="translate(-241.674 -176.678)" fill="#b0c0d2"/><circle cx="8.894" cy="8.894" r="8.894" transform="translate(156.541 69.461) rotate(-76.137)" fill="#727997"/><circle cx="8.894" cy="8.894" r="8.894" transform="translate(144.291 69.462) rotate(-76.137)" fill="#727997"/><path d="M334.924,187.574l-3.436,10.881,15.468,5.085a8.621,8.621,0,0,0,9.193-2.527l11.7-13.438V175.187l-4.5,1.267a19.455,19.455,0,0,0-10.945,7.978l-4.456,6.721Z" transform="translate(-217.386 -98.315)" fill="#dadeff"/><g transform="translate(137.725 72.793)"><path d="M380.111,187.118l-3.293,82.973a137.533,137.533,0,0,0,53.766-1.81l-13.864-61.1,4.922-28.076-7.027-7.663-9.02-4.077-13.458,16.608V169.937l-8.9,3.38Z" transform="translate(-376.818 -167.36)" fill="#e5e8fd"/><g clip-path="url(#a)"><path d="M428.223,283.913a7.281,7.281,0,0,1-7.273-7.273v-9.081H435.5v9.081A7.281,7.281,0,0,1,428.223,283.913Zm-6.273-15.355v8.081a6.273,6.273,0,0,0,12.546,0v-8.081Z" transform="translate(-398.191 -215.581)" fill="#9ea0ed"/></g><g clip-path="url(#a)"><path d="M379.611,283.913a7.281,7.281,0,0,1-7.273-7.273v-9.081h14.546v9.081a7.273,7.273,0,0,1-7.273,7.273Zm-6.273-15.355v8.081a6.273,6.273,0,0,0,12.546,0v-8.081Z" transform="translate(-374.912 -215.581)" fill="#9ea0ed"/></g><g clip-path="url(#a)"><path d="M.5,88.77h-1V0h1Z" transform="translate(17.637 21.653)" fill="#9ea0ed"/></g><g clip-path="url(#a)"><path d="M1.034-.5A1.534,1.534,0,1,1-.5,1.034,1.536,1.536,0,0,1,1.034-.5Zm0,2.068A.534.534,0,1,0,.5,1.034.535.535,0,0,0,1.034,1.568Z" transform="translate(14.031 99.211)" fill="#9ea0ed"/><path d="M1.034-.5A1.534,1.534,0,1,1-.5,1.034,1.536,1.536,0,0,1,1.034-.5Zm0,2.068A.534.534,0,1,0,.5,1.034.535.535,0,0,0,1.034,1.568Z" transform="translate(14.031 76.596)" fill="#9ea0ed"/><path d="M404.776,335.539a1.534,1.534,0,1,1-1.534,1.534A1.536,1.536,0,0,1,404.776,335.539Zm0,2.068a.534.534,0,1,0-.534-.534A.535.535,0,0,0,404.776,337.607Z" transform="translate(-389.711 -248.135)" fill="#9ea0ed"/><path d="M1.034-.5A1.534,1.534,0,1,1-.5,1.034,1.536,1.536,0,0,1,1.034-.5Zm0,2.068A.534.534,0,1,0,.5,1.034.535.535,0,0,0,1.034,1.568Z" transform="translate(14.031 65.288)" fill="#9ea0ed"/><path d="M1.034-.5A1.534,1.534,0,1,1-.5,1.034,1.536,1.536,0,0,1,1.034-.5Zm0,2.068A.534.534,0,1,0,.5,1.034.535.535,0,0,0,1.034,1.568Z" transform="translate(14.031 53.98)" fill="#9ea0ed"/><path d="M1.034-.5A1.534,1.534,0,1,1-.5,1.034,1.536,1.536,0,0,1,1.034-.5Zm0,2.068A.534.534,0,1,0,.5,1.034.535.535,0,0,0,1.034,1.568Z" transform="translate(14.031 31.365)" fill="#9ea0ed"/><path d="M404.776,248.745a1.534,1.534,0,1,1-1.534,1.534A1.536,1.536,0,0,1,404.776,248.745Zm0,2.068a.534.534,0,1,0-.534-.534A.535.535,0,0,0,404.776,250.813Z" transform="translate(-389.711 -206.572)" fill="#9ea0ed"/><path d="M1.034-.5A1.534,1.534,0,1,1-.5,1.034,1.536,1.536,0,0,1,1.034-.5Zm0,2.068A.534.534,0,1,0,.5,1.034.535.535,0,0,0,1.034,1.568Z" transform="translate(14.031 20.057)" fill="#9ea0ed"/></g></g><g transform="translate(153.059 62.96)"><path d="M418.612,148.49l1.074,8.689-13.443,16.983.467-13.3,1.522-2.1v-6.846Z" transform="translate(-406.243 -148.49)" fill="#ffa2a3"/><g clip-path="url(#e)"><path d="M403.2,143.863h0a7.061,7.061,0,0,1-7.04-7.04v-9.452a8.661,8.661,0,0,1,8.635-8.635h1.711a8.661,8.661,0,0,1,8.635,8.635v4.551A11.976,11.976,0,0,1,403.2,143.863Z" transform="translate(-401.415 -134.242)" fill="#f98086"/></g></g><path d="M403.742,183.2l14.746-18.039,4.782,3.308-2.349,5.712-6.013-1.339,4.152,2.914-14.174,8.447Z" transform="translate(-251.986 -93.515)" fill="#dadeff"/><path d="M403.35,167.362l-7.3,6.535h4.009l-4.009,1.84,3.651,10.095,1.5-.574,2.148-13.819Z" transform="translate(-248.302 -94.568)" fill="#dadeff"/><path d="M405.328,140.179h0a7.061,7.061,0,0,1-7.04-7.04v-9.452a8.661,8.661,0,0,1,8.635-8.635h1.711a8.661,8.661,0,0,1,8.635,8.635v4.551A11.977,11.977,0,0,1,405.328,140.179Z" transform="translate(-249.374 -69.517)" fill="#ffa2a3"/><path d="M412.305,115.217l3.8-3.8s-3.334-3.979-10.958-3.979-11.963,6.3-7.538,9.724C401.492,111.95,409.193,112.106,412.305,115.217Z" transform="translate(-248.199 -65.872)" fill="#727997"/><path d="M427.441,118.874l3.8,8.752,3.378-2.3s1.2-6.357-3.378-10.257Z" transform="translate(-263.335 -69.528)" fill="#727997"/><path d="M433.479,140.4c-.8,2.051-2.734,3.213-4.314,2.595s-2.211-2.782-1.409-4.833,2.734-3.213,4.314-2.595S434.281,138.347,433.479,140.4Z" transform="translate(-263.319 -79.261)" fill="#ffa2a3"/><path d="M407.8,125.84h-7.157v.075a.075.075,0,0,0-.075-.075h-5.74a3.7,3.7,0,0,0-3.686,3.686h0a4.745,4.745,0,0,0,4.731,4.731h.039a4.718,4.718,0,0,0,3.4-1.454,1.832,1.832,0,0,1,2.652,0,4.719,4.719,0,0,0,3.405,1.454h1.382a4.745,4.745,0,0,0,4.731-4.731h0A3.7,3.7,0,0,0,407.8,125.84Z" transform="translate(-245.952 -74.684)" fill="#dadeff"/><path d="M406.63,125.84h-6.655v.069a.07.07,0,0,0-.069-.069h-5.337a3.438,3.438,0,0,0-3.427,3.427h0a4.411,4.411,0,0,0,4.4,4.4h.037a4.389,4.389,0,0,0,3.166-1.352,1.7,1.7,0,0,1,2.466,0,4.386,4.386,0,0,0,3.166,1.352h1.285a4.412,4.412,0,0,0,4.4-4.4h0A3.438,3.438,0,0,0,406.63,125.84Z" transform="translate(-245.952 -74.684)" fill="#e5e8fd"/><rect width="6.476" height="1.287" transform="translate(164.95 53.795)" fill="#e5e8fd"/><path d="M6.045.5H0A.5.5,0,0,1-.5,0,.5.5,0,0,1,0-.5H6.045a.5.5,0,0,1,.5.5A.5.5,0,0,1,6.045.5Z" transform="translate(151.253 63.602)" fill="#3c1e68"/><path d="M406.1,142.916c-1.1,0-1.79-.317-2.054-.942s-.045-1.441.673-2.485a10.632,10.632,0,0,1,1.023-1.255.5.5,0,0,1,.716.7c-.763.785-1.706,2.144-1.49,2.654.088.207.511.331,1.132.331a.5.5,0,0,1,0,1Z" transform="translate(-252.318 -80.786)" fill="#3c1e68"/><path d="M369.879,174.893a6.771,6.771,0,0,1-3.324-4.847c-.316-3.227-.422-5.654-1.477-7.4s-3.272-2.375-2.744-4.538c-.528-1.319.2-1.794,1.763-1.055a12.69,12.69,0,0,1,3.487,2.665l1.346,1.346a11.367,11.367,0,0,0-1.425-3.008c-.66-.66-2.981-.923-3.957-1.9s-.17-1.451,2.474-1.214c0-1.319,1.906-.686,3.12-.422s2.111,1.591,2.8,4.3a42.856,42.856,0,0,1,1.319,12.37C373.045,176.634,369.879,174.893,369.879,174.893Z" transform="translate(-232.075 -88.236)" fill="#ffa2a3"/><path d="M380.665,188.686l-2.323-1.775-5.5,9.2,4.079,2.1Z" transform="translate(-237.187 -103.929)" fill="#fff"/><path d="M381.972,182.276l-5.154,9.736,18.4,11.191a9.4,9.4,0,0,0,12.053-1.948l12.78-15.052a6.688,6.688,0,0,0-1.72-10.1h0a6.689,6.689,0,0,0-8.493,1.462L399.3,190.078Z" transform="translate(-239.093 -98.314)" fill="#dadeff"/><g transform="translate(136.509 219.571)"><path d="M412.673,467.28l-.72-5.4,2.609-.09-.534,5.489Z" transform="translate(-392.427 -455.132)" fill="#171c77"/><path d="M389.515,449.013a40.806,40.806,0,0,1-5.806,5.806c-2.476,1.753-9.225,2.023-9.225,6.342h16.826l5.309-5.489a7.448,7.448,0,0,0-1.116-6.659Z" transform="translate(-374.485 -449.013)" fill="#3b3ebc"/><g clip-path="url(#f)"><path d="M380.128,456.428l7.349,3.33s4.7-7.944,10.17-7.944v11.11H373.034S373.034,457.025,380.128,456.428Z" transform="translate(-373.79 -450.354)" fill="#171c77"/></g></g><g transform="translate(186.842 219.571)"><path d="M473.612,467.28l.72-5.4-2.609-.09.534,5.489Z" transform="translate(-471.382 -455.132)" fill="#171c77"/><path d="M478.514,449.013a40.8,40.8,0,0,0,5.806,5.806c2.476,1.753,9.224,2.023,9.224,6.342H476.718l-5.309-5.489a7.448,7.448,0,0,1,1.116-6.659Z" transform="translate(-471.069 -449.013)" fill="#3b3ebc"/><g clip-path="url(#g)"><path d="M485.938,456.428l-7.35,3.33s-4.7-7.944-10.17-7.944v11.11h24.613S493.031,457.025,485.938,456.428Z" transform="translate(-469.8 -450.354)" fill="#171c77"/></g></g><g transform="translate(61.411 17.063)"><path d="M262.143,108.972a3.582,3.582,0,1,1-3.582-3.583A3.583,3.583,0,0,1,262.143,108.972Z" transform="translate(-242.159 -81.953)" fill="#adce32"/><circle cx="3.582" cy="3.582" r="3.582" fill="#ffa686"/><path d="M241.618,77.749a3.583,3.583,0,1,0-3.583,3.583A3.582,3.582,0,0,0,241.618,77.749Z" transform="translate(-232.33 -67.002)" fill="#ffa686"/><circle cx="3.583" cy="3.583" r="3.583" transform="translate(6.359 13.52)" fill="#ffa686"/><path d="M262.143,98.344a3.582,3.582,0,1,0-3.582,3.583A3.583,3.583,0,0,0,262.143,98.344Z" transform="translate(-242.159 -76.864)" fill="#ffa686"/><circle cx="3.582" cy="3.582" r="3.582" transform="translate(39.97)" fill="#adce32"/><path d="M303,77.749a3.583,3.583,0,1,1,3.583,3.583A3.582,3.582,0,0,1,303,77.749Z" transform="translate(-265.155 -67.002)" fill="#adce32"/><circle cx="3.582" cy="3.582" r="3.582" transform="translate(33.609 13.52)" fill="#adce32"/><path d="M282.476,98.344a3.583,3.583,0,1,1,3.582,3.583A3.583,3.583,0,0,1,282.476,98.344Z" transform="translate(-255.327 -76.864)" fill="#adce32"/><path d="M275.892,103.693a3.583,3.583,0,1,0-3.583,3.583A3.582,3.582,0,0,0,275.892,103.693Z" transform="translate(-248.742 -79.426)" fill="#ffa686"/><circle cx="3.582" cy="3.582" r="3.582" transform="translate(39.97 90.518)" fill="#adce32"/><path d="M303,223.946a3.583,3.583,0,1,0,3.583-3.582A3.583,3.583,0,0,0,303,223.946Z" transform="translate(-265.155 -137.011)" fill="#adce32"/><circle cx="3.582" cy="3.582" r="3.582" transform="translate(33.609 76.998)" fill="#adce32"/><path d="M282.476,203.351a3.583,3.583,0,1,0,3.582-3.582A3.583,3.583,0,0,0,282.476,203.351Z" transform="translate(-255.327 -127.149)" fill="#adce32"/><circle cx="3.582" cy="3.582" r="3.582" transform="translate(0 90.518)" fill="#ffa686"/><path d="M241.618,223.946a3.583,3.583,0,1,1-3.583-3.582A3.583,3.583,0,0,1,241.618,223.946Z" transform="translate(-232.33 -137.011)" fill="#ffa686"/><circle cx="3.583" cy="3.583" r="3.583" transform="translate(6.359 76.997)" fill="#ffa686"/><path d="M262.143,203.351a3.582,3.582,0,1,1-3.582-3.582A3.583,3.583,0,0,1,262.143,203.351Z" transform="translate(-242.159 -127.149)" fill="#ffa686"/><path d="M268.727,198a3.583,3.583,0,1,0,3.583-3.583A3.583,3.583,0,0,0,268.727,198Z" transform="translate(-248.743 -124.588)" fill="#adce32"/><circle cx="3.582" cy="3.582" r="3.582" transform="translate(39.97 41.334)" fill="#ffa686"/><path d="M303,129.567a3.583,3.583,0,1,0,3.583-3.583A3.582,3.582,0,0,0,303,129.567Z" transform="translate(-265.155 -91.816)" fill="#ffa686"/><circle cx="3.582" cy="3.582" r="3.582" transform="translate(33.609 27.814)" fill="#ffa686"/><path d="M282.476,108.972a3.583,3.583,0,1,0,3.582-3.583A3.583,3.583,0,0,0,282.476,108.972Z" transform="translate(-255.327 -81.953)" fill="#ffa686"/><circle cx="3.582" cy="3.582" r="3.582" transform="translate(0 41.334)" fill="#adce32"/><path d="M241.618,129.567a3.583,3.583,0,1,1-3.583-3.583A3.582,3.582,0,0,1,241.618,129.567Z" transform="translate(-232.33 -91.816)" fill="#adce32"/><circle cx="3.583" cy="3.583" r="3.583" transform="translate(6.359 27.814)" fill="#adce32"/><circle cx="3.582" cy="3.582" r="3.582" transform="translate(0 49.148)" fill="#adce32"/><path d="M241.618,172.059a3.583,3.583,0,1,0-3.583,3.583A3.582,3.582,0,0,0,241.618,172.059Z" transform="translate(-232.33 -112.164)" fill="#adce32"/><circle cx="3.583" cy="3.583" r="3.583" transform="translate(6.359 62.667)" fill="#adce32"/><path d="M262.143,192.654a3.582,3.582,0,1,0-3.582,3.583A3.582,3.582,0,0,0,262.143,192.654Z" transform="translate(-242.159 -122.027)" fill="#adce32"/><circle cx="3.582" cy="3.582" r="3.582" transform="translate(39.97 49.148)" fill="#ffa686"/><path d="M303,172.059a3.583,3.583,0,1,1,3.583,3.583A3.582,3.582,0,0,1,303,172.059Z" transform="translate(-265.155 -112.164)" fill="#ffa686"/><circle cx="3.582" cy="3.582" r="3.582" transform="translate(33.609 62.668)" fill="#ffa686"/><path d="M282.476,192.654a3.583,3.583,0,1,1,3.582,3.583A3.582,3.582,0,0,1,282.476,192.654Z" transform="translate(-255.327 -122.027)" fill="#ffa686"/><path d="M259.366,70.5h15.387a1.6,1.6,0,0,0,1.6-1.6h0a1.6,1.6,0,0,0-1.6-1.6H259.366a1.6,1.6,0,0,0-1.6,1.6h0A1.6,1.6,0,0,0,259.366,70.5Z" transform="translate(-243.492 -63.71)" fill="#fff"/><path d="M259.366,84.248h15.387a1.6,1.6,0,0,0,1.6-1.6h0a1.6,1.6,0,0,0-1.6-1.6H259.366a1.6,1.6,0,0,0-1.6,1.6h0A1.6,1.6,0,0,0,259.366,84.248Z" transform="translate(-243.492 -70.294)" fill="#fff"/><path d="M259.366,223.475h15.387a1.6,1.6,0,0,0,1.6-1.6h0a1.6,1.6,0,0,0-1.6-1.6H259.366a1.6,1.6,0,0,0-1.6,1.6h0A1.6,1.6,0,0,0,259.366,223.475Z" transform="translate(-243.492 -136.966)" fill="#e8e8e8"/><path d="M259.366,237.224h15.387a1.6,1.6,0,0,0,1.6-1.6h0a1.6,1.6,0,0,0-1.6-1.6H259.366a1.6,1.6,0,0,0-1.6,1.6h0A1.6,1.6,0,0,0,259.366,237.224Z" transform="translate(-243.492 -143.549)" fill="#e8e8e8"/><path d="M259.366,129.6h15.387a1.6,1.6,0,0,0,1.6-1.6h0a1.6,1.6,0,0,0-1.6-1.6H259.366a1.6,1.6,0,0,0-1.6,1.6h0A1.6,1.6,0,0,0,259.366,129.6Z" transform="translate(-243.492 -92.013)" fill="#e8e8e8"/><path d="M259.366,142.035h15.387a1.6,1.6,0,0,0,1.6-1.6h0a1.6,1.6,0,0,0-1.6-1.6H259.366a1.6,1.6,0,0,0-1.6,1.6h0A1.6,1.6,0,0,0,259.366,142.035Z" transform="translate(-243.492 -97.966)" fill="#e8e8e8"/><path d="M259.366,154.465h15.387a1.6,1.6,0,0,0,1.6-1.6h0a1.6,1.6,0,0,0-1.6-1.6H259.366a1.6,1.6,0,0,0-1.6,1.6h0A1.6,1.6,0,0,0,259.366,154.465Z" transform="translate(-243.492 -103.919)" fill="#e8e8e8"/><path d="M259.366,166.9h15.387a1.6,1.6,0,0,0,1.6-1.6h0a1.6,1.6,0,0,0-1.6-1.6H259.366a1.6,1.6,0,0,0-1.6,1.6h0A1.6,1.6,0,0,0,259.366,166.9Z" transform="translate(-243.492 -109.873)" fill="#e8e8e8"/><path d="M259.366,179.33h15.387a1.6,1.6,0,0,0,1.6-1.6h0a1.6,1.6,0,0,0-1.6-1.6H259.366a1.6,1.6,0,0,0-1.6,1.6h0A1.6,1.6,0,0,0,259.366,179.33Z" transform="translate(-243.492 -115.826)" fill="#e8e8e8"/></g><g transform="translate(30.536 125.027)"><rect width="34.507" height="2.133" transform="translate(40.027 23.339)" fill="#b0c0d2"/><path d="M225.337,293.064H182.8l-11.67-25.472h42.537Z" transform="translate(-171.131 -267.592)" fill="#b0c0d2"/></g><g transform="translate(25.106 150.587)"><g transform="translate(3.807)"><rect width="5.928" height="81.133" fill="#727997"/><rect width="5.928" height="81.133" transform="translate(48.073)" fill="#727997"/><rect width="5.928" height="81.133" transform="translate(96.146)" fill="#727997"/></g><rect width="109.687" height="5.476" fill="#727997"/><rect width="109.687" height="5.476" transform="translate(0 9.458)" fill="#727997"/><rect width="109.687" height="5.476" transform="translate(0 42.619)" fill="#727997"/></g><g transform="translate(26.38 67.407)"><path d="M174.789,160.1h14.959a.5.5,0,0,1,.433.25l7.479,12.955a.5.5,0,0,1,0,.5l-7.479,12.955a.5.5,0,0,1-.433.25H174.789a.5.5,0,0,1-.433-.25l-7.48-12.955a.5.5,0,0,1,0-.5l7.48-12.955A.5.5,0,0,1,174.789,160.1Zm14.67,1H175.077l-7.191,12.455,7.191,12.455h14.382l7.191-12.455Z" transform="translate(-165.145 -158.737)" fill="#2e4c2e"/><path d="M206.487,208.331a2.164,2.164,0,1,0,2.164-2.164A2.164,2.164,0,0,0,206.487,208.331Z" transform="translate(-183.906 -180.557)" fill="#adce32"/><path d="M177.237,208.331a2.164,2.164,0,1,0,2.164-2.164A2.164,2.164,0,0,0,177.237,208.331Z" transform="translate(-169.9 -180.557)" fill="#adce32"/><path d="M206.487,159.187a2.164,2.164,0,1,0,2.164-2.164A2.164,2.164,0,0,0,206.487,159.187Z" transform="translate(-183.906 -157.023)" fill="#adce32"/><path d="M177.237,159.187a2.164,2.164,0,1,0,2.164-2.164A2.164,2.164,0,0,0,177.237,159.187Z" transform="translate(-169.9 -157.023)" fill="#adce32"/><path d="M163.157,183.472a2.164,2.164,0,1,0,2.164-2.164A2.164,2.164,0,0,0,163.157,183.472Z" transform="translate(-163.157 -168.652)" fill="#adce32"/><path d="M220.567,183.472a2.164,2.164,0,1,0,2.164-2.164A2.164,2.164,0,0,0,220.567,183.472Z" transform="translate(-190.649 -168.652)" fill="#adce32"/></g><g transform="translate(99.789 126.301)"><path d="M313.024,281.216v-10.06h-.084a.56.56,0,1,1,0-1.12h4.89a.56.56,0,1,1,0,1.12h-.084v10.06l4.111,6.52H308.912Z" transform="translate(-306.363 -270.036)" fill="#dadeff"/><path d="M306.571,304h12.945l2.239,3.55a1.97,1.97,0,0,1-1.5,3.031c-.042,0-.085,0-.128,0h-14.16c-.046,0-.092,0-.137,0a1.971,1.971,0,0,1-1.507-3.018Z" transform="translate(-304.021 -286.301)" fill="#ffd947"/></g><g transform="translate(111.145 132.147)"><path d="M332.65,289.744v-7.638h-.064a.425.425,0,0,1,0-.85H336.3a.425.425,0,1,1,0,.85h-.064v7.638l3.122,4.95h-9.828Z" transform="translate(-327.593 -281.255)" fill="#dadeff"/><path d="M327.749,307.043h9.828l1.7,2.7a1.5,1.5,0,0,1-1.138,2.3c-.032,0-.065,0-.1,0H327.292c-.035,0-.07,0-.1,0a1.5,1.5,0,0,1-1.144-2.291Z" transform="translate(-325.814 -293.604)" fill="#adce32"/></g><g transform="translate(0 172.107)"><path d="M136.166,386.075a1.637,1.637,0,0,1-1.068-1.524V360.5h.879a1.285,1.285,0,1,0,0-2.569H124.766a1.285,1.285,0,1,0,0,2.569h.879v24.048a1.638,1.638,0,0,1-1.07,1.525,16.322,16.322,0,0,0-8.764,7.964h29.133A16.321,16.321,0,0,0,136.166,386.075Z" transform="translate(-114.104 -357.934)" fill="#dadeff"/><path d="M114.243,427.219a16.262,16.262,0,1,0,29.133,0H114.243Z" transform="translate(-112.536 -391.112)" fill="#ffd947"/></g><g transform="translate(21.85 195.833)"><path d="M167.768,419.983V405.118h-.124a.828.828,0,1,1,0-1.656h7.227a.828.828,0,1,1,0,1.656h-.124v14.865l6.075,9.634H161.693Z" transform="translate(-157.926 -403.462)" fill="#dadeff"/><path d="M158.232,453.651H177.36l3.308,5.246a2.911,2.911,0,0,1-2.214,4.48c-.063,0-.126.005-.189.005H157.342c-.068,0-.135,0-.2-.006a2.912,2.912,0,0,1-2.227-4.459Z" transform="translate(-154.465 -427.496)" fill="#adce32"/></g><g transform="translate(112.787 204.473)"><path d="M339.066,432.584V421.3h-.094a.628.628,0,0,1,0-1.257h5.487a.628.628,0,0,1,0,1.257h-.094v11.286l4.612,7.315H334.453Z" transform="translate(-331.593 -420.041)" fill="#dadeff"/><path d="M331.825,458.146h14.523l2.511,3.983a2.209,2.209,0,0,1-1.681,3.4c-.048,0-.1,0-.143,0H331.149c-.052,0-.1,0-.154,0a2.211,2.211,0,0,1-1.691-3.386Z" transform="translate(-328.964 -438.288)" fill="#ffd947"/></g><path d="M434.823,142.635a.5.5,0,0,1-.5-.5c0-.384-.5-.521-.965-.521a.5.5,0,0,1-.5-.5c0-2.5,1.768-2.977,1.843-3l.244.97.007,0a1.719,1.719,0,0,0-1.066,1.571,1.538,1.538,0,0,1,1.437,1.478A.5.5,0,0,1,434.823,142.635Z" transform="translate(-266.168 -80.795)" fill="#3c1e68"/><path d="M433.033,148.163a.886.886,0,1,0,.886-.886A.886.886,0,0,0,433.033,148.163Z" transform="translate(-266.013 -84.949)" fill="#fff"/></g></g></g></g></svg>