<svg xmlns="http://www.w3.org/2000/svg" width="366" height="254.372" viewBox="0 0 366 254.372"><g transform="translate(6848 -6461.098)"><g transform="translate(-8142.437 5034.175)"><path d="M1687.392,1776.412c0,5.941-69.175,10.758-154.506,10.758s-154.506-4.817-154.506-10.758,69.175-10.757,154.506-10.757S1687.392,1770.472,1687.392,1776.412Z" transform="translate(-26.956 -108.774)" fill="#b3c1bb"/><g transform="translate(1540.588 1622.008)"><path d="M1662.512,1737.274s-2.153-1.5-2.719-2.067a25.776,25.776,0,0,1-2.773-3.949l6.167,2.248.267,3.192Z" transform="translate(-1657.021 -1719.736)" fill="#ae5a22"/><path d="M1663.329,1730.983s-1.674-.184-3.112-.184a21.651,21.651,0,0,0-3.191.314s2.716,3.322,3.83,3.845a7.177,7.177,0,0,0,2.211.612Z" transform="translate(-1657.023 -1719.589)" fill="#e8782d"/><path d="M1720.687,1755.109a2.594,2.594,0,0,1,3.247-2.969,1,1,0,0,0,1.3-.574c.492-1.27-1.182-1.449-1.059-1.366A3.581,3.581,0,0,0,1720.687,1755.109Z" transform="translate(-1677.369 -1725.814)" fill="#ffb303"/><path d="M1678.1,1720.365a2.593,2.593,0,0,1-1.047-4.274,1,1,0,0,0,.12-1.415c-.879-1.041-1.839.341-1.707.273A3.576,3.576,0,0,0,1678.1,1720.365Z" transform="translate(-1662.788 -1714.286)" fill="#ffb303"/><path d="M1719.43,1756.466c2.01-1.327,3.446.3,3.82-1.321C1723.789,1752.8,1720.326,1753.75,1719.43,1756.466Z" transform="translate(-1677.062 -1726.979)" fill="#ffb303"/><path d="M1685.774,1777.613s.444,1.36.21,1.8a48.5,48.5,0,0,0-2.694,4.76c0,.444,1.517,1.281,2.04,1.281s1.32-.666,2.354.366a1.071,1.071,0,0,1-.471,1.935c-.5,0-4.394-1.281-5.047-1.281s-6.041,2.562-6.93,2.3-1.622-2.066.261-2.223,4.379-.746,4.105-1.021-4.524.261-5.048,0-1.229-1.334.261-1.673,5.519,1.229,6.905.261,1.961-6.119,1.961-6.119l-.758-1.125,2.9.6Z" transform="translate(-1662.448 -1734.387)" fill="#743c17"/><path d="M1699.095,1775.06a28.217,28.217,0,0,1,3.676,2.977c.657.863,1.414,1.948,1.414,1.948a4.842,4.842,0,0,0,2.637-.676c1-.743,2.536-1.345,2.8-.753s.586,1.253-.748,1.853-3.521,1.187-4.388,1.735-4.891,3.343-6.5,3.789c-1.2.333-1.492-.04-1.264-.644a1.406,1.406,0,0,1,1-.743,27.407,27.407,0,0,0,3.724-1.924s-3.766,1.954-4.129,1.819-.349-.824.553-1.1,4.753-2.21,4.916-2.64-6.139-4.722-6.139-4.722Z" transform="translate(-1669.747 -1733.802)" fill="#743c17"/><path d="M1680.848,1743.706a8.812,8.812,0,0,1,6.172,0c3.3,1.255,9.572,7.008,12.5,7.583s4.6-.626,4.865-.365-1.031,4.654-2.548,7.008-9.2,8.558-17.12,9.206c-9.632.786-14.278-4.184-15.587-7.271s-1.673-10.667.681-13.02S1680.848,1743.706,1680.848,1743.706Z" transform="translate(-1660.577 -1723.554)" fill="#ffe56e"/><path d="M1672.511,1723.009s5.593-.205,8.157,3.875c4.028,6.407,1.224,14.355-6.406,15.906-5.34,1.084-10.978-1.86-11.533-7.642C1662.362,1731.332,1663.2,1723.892,1672.511,1723.009Z" transform="translate(-1658.832 -1717.087)" fill="#ffe56e"/><path d="M1668.874,1742.588c3.29.89,10.2-1.621,11.878-4.6a11.228,11.228,0,0,0-.629-11.454c-.026-.042-.051-.082-.077-.121a7.174,7.174,0,0,1,1.337,1.567c4.028,6.407,1.224,14.356-6.406,15.906a9.86,9.86,0,0,1-10.089-3.62A9.288,9.288,0,0,0,1668.874,1742.588Z" transform="translate(-1659.547 -1718.18)" fill="#bf9e0b"/><path d="M1668.39,1731.753a2.023,2.023,0,1,0,2.024-2.023A2.024,2.024,0,0,0,1668.39,1731.753Z" transform="translate(-1660.672 -1719.246)"/><path d="M1670.28,1731.441a.784.784,0,1,0,.776-.674A.73.73,0,0,0,1670.28,1731.441Z" transform="translate(-1661.279 -1719.579)" fill="#fff"/><path d="M1688.28,1753.71a31.147,31.147,0,0,1,18.007,9.756,7.439,7.439,0,0,1-3.59,1.857,4.516,4.516,0,0,1-3.568-1.409s.836,1.471-1.144,1.919a2.838,2.838,0,0,1-2.99-1.475s-.519,2.31-2.079,1.576a4.447,4.447,0,0,1-2.081-2.583s-1.556,1.792-4.174-.263-4.067-3.435-4.067-3.435l.785-.217a6.751,6.751,0,0,0,4.9-5.726Z" transform="translate(-1665.233 -1726.946)" fill="#ffc000"/><g transform="translate(17.366 32.708)"><path d="M1706.293,1766.277c-4.457,3.7-6.636.494-8.136-.966.271.879,1.361,1.963.631,2.655-2.132,1.925-3.866-1.615-3.9-1.631-.131.326-.445,2.9-1.972,2.047a4.653,4.653,0,0,1-1.954-2.771c-2.213.552-.445,3.485-8.363-3.146,2.386,2.5,5.615,5.944,8.108,4.186.9,2.259,3.306,3.761,4.4,1.217,1.745,2.045,4.479,1,4.477-.428C1701.9,1769.115,1704.426,1768.205,1706.293,1766.277Z" transform="translate(-1682.601 -1762.466)" fill="#bf9e0b"/></g><path d="M1694.45,1761.7c1.572,1.824.144,3.456,1.8,3.62C1698.639,1765.563,1697.247,1762.243,1694.45,1761.7Z" transform="translate(-1669.04 -1729.512)" fill="#ffd30e"/><path d="M1700.78,1763c1.039,1.206.1,2.284,1.188,2.393C1703.55,1765.546,1702.633,1763.36,1700.78,1763Z" transform="translate(-1671.073 -1729.929)" fill="#ffd30e"/><path d="M1706.38,1763.88c1.039,1.206.1,2.284,1.189,2.392C1709.15,1766.433,1708.234,1764.24,1706.38,1763.88Z" transform="translate(-1672.871 -1730.212)" fill="#ffd30e"/></g><g transform="translate(1612.485 1614.814)"><path d="M1768.422,1726.674s-2.153-1.5-2.72-2.067a25.8,25.8,0,0,1-2.772-3.949l6.167,2.247.267,3.192Z" transform="translate(-1762.928 -1709.138)" fill="#ae5a22"/><path d="M1769.229,1720.383s-1.673-.183-3.112-.183a21.637,21.637,0,0,0-3.19.314s2.716,3.322,3.829,3.845a7.177,7.177,0,0,0,2.213.611Z" transform="translate(-1762.927 -1708.99)" fill="#e8782d"/><path d="M1826.588,1744.509a2.593,2.593,0,0,1,3.246-2.969,1,1,0,0,0,1.3-.574c.492-1.271-1.182-1.45-1.059-1.366A3.581,3.581,0,0,0,1826.588,1744.509Z" transform="translate(-1783.273 -1715.215)" fill="#ffb303"/><path d="M1784,1709.766a2.592,2.592,0,0,1-1.045-4.273,1,1,0,0,0,.12-1.415c-.879-1.041-1.839.341-1.707.273A3.576,3.576,0,0,0,1784,1709.766Z" transform="translate(-1768.692 -1703.688)" fill="#ffb303"/><path d="M1825.33,1745.859c2.009-1.326,3.445.3,3.82-1.32C1829.688,1742.2,1826.226,1743.157,1825.33,1745.859Z" transform="translate(-1782.966 -1716.381)" fill="#ffb303"/><path d="M1778.174,1764.787s-.293,1.4-.718,1.668a48.658,48.658,0,0,0-4.709,2.781c-.223.386.675,1.868,1.128,2.129s1.477.081,1.857,1.491-.943,1.691-1.373,1.442-3.168-3.3-3.735-3.629-6.514-.792-7.153-1.462-.375-2.6,1.335-1.8,4.169,1.54,4.067,1.165-4.052-2.03-4.374-2.518-.4-1.769,1.061-1.321,4.17,3.818,5.853,3.671,4.753-4.325,4.753-4.325l-.1-1.353,2.217,1.97Z" transform="translate(-1762.999 -1722.648)" fill="#743c17"/><path d="M1799.984,1765.933s.445,1.36.209,1.8a48.649,48.649,0,0,0-2.693,4.76c0,.444,1.517,1.282,2.04,1.282s1.32-.667,2.353.366a1.071,1.071,0,0,1-.47,1.935c-.5,0-4.394-1.281-5.048-1.281s-6.041,2.563-6.93,2.3-1.622-2.066.261-2.223,4.38-.746,4.106-1.02-4.524.262-5.047,0-1.23-1.334.261-1.673,5.518,1.228,6.9.261,1.962-6.12,1.962-6.12l-.758-1.125,2.9.6Z" transform="translate(-1771.021 -1723.441)" fill="#743c17"/><path d="M1786.748,1733.106a8.814,8.814,0,0,1,6.171,0c3.3,1.256,9.572,7.01,12.5,7.584s4.6-.628,4.864-.366-1.031,4.655-2.547,7.009-9.195,8.559-17.119,9.206c-9.632.785-14.279-4.185-15.586-7.27s-1.673-10.667.679-13.02S1786.748,1733.106,1786.748,1733.106Z" transform="translate(-1766.481 -1712.956)" fill="#ffe56e"/><path d="M1778.412,1712.409s5.593-.206,8.159,3.875c4.027,6.406,1.223,14.355-6.407,15.9-5.339,1.084-10.977-1.859-11.531-7.641C1768.27,1720.732,1769.1,1713.292,1778.412,1712.409Z" transform="translate(-1764.738 -1706.488)" fill="#ffe56e"/><path d="M1774.784,1731.988c3.289.89,10.2-1.622,11.878-4.6a11.229,11.229,0,0,0-.629-11.455c-.026-.041-.052-.081-.077-.12a7.152,7.152,0,0,1,1.337,1.568c4.027,6.406,1.223,14.356-6.407,15.9a9.858,9.858,0,0,1-10.088-3.619A9.282,9.282,0,0,0,1774.784,1731.988Z" transform="translate(-1765.454 -1707.581)" fill="#bf9e0b"/><path d="M1774.3,1721.152a2.024,2.024,0,1,0,2.024-2.025A2.024,2.024,0,0,0,1774.3,1721.152Z" transform="translate(-1766.579 -1708.646)"/><path d="M1776.18,1720.841a.784.784,0,1,0,.775-.674A.73.73,0,0,0,1776.18,1720.841Z" transform="translate(-1767.183 -1708.98)" fill="#fff"/><path d="M1794.19,1743.1a31.155,31.155,0,0,1,18.006,9.755,7.435,7.435,0,0,1-3.59,1.858,4.515,4.515,0,0,1-3.567-1.409s.836,1.471-1.144,1.919a2.839,2.839,0,0,1-2.99-1.475s-.52,2.31-2.079,1.575a4.444,4.444,0,0,1-2.079-2.582s-1.556,1.792-4.176-.263-4.067-3.435-4.067-3.435l.785-.217a6.737,6.737,0,0,0,4.9-5.726Z" transform="translate(-1771.14 -1716.344)" fill="#ffc000"/><g transform="translate(17.361 32.7)"><path d="M1812.193,1755.667c-4.458,3.7-6.635.494-8.136-.966.271.88,1.361,1.964.632,2.656-2.133,1.923-3.866-1.615-3.9-1.632-.132.326-.447,2.9-1.972,2.047a4.657,4.657,0,0,1-1.954-2.771c-2.211.553-.444,3.485-8.363-3.145,2.386,2.5,5.615,5.943,8.108,4.187.9,2.258,3.307,3.761,4.4,1.216,1.745,2.045,4.48.994,4.478-.428C1807.807,1758.512,1810.326,1757.6,1812.193,1755.667Z" transform="translate(-1788.5 -1751.857)" fill="#bf9e0b"/></g><path d="M1800.35,1751.1c1.573,1.825.145,3.457,1.8,3.621C1804.539,1754.956,1803.154,1751.643,1800.35,1751.1Z" transform="translate(-1774.944 -1718.913)" fill="#ffd30e"/><path d="M1806.69,1752.4c1.039,1.205.1,2.284,1.189,2.393C1809.453,1754.946,1808.537,1752.76,1806.69,1752.4Z" transform="translate(-1776.98 -1719.331)" fill="#ffd30e"/><path d="M1812.29,1753.28c1.04,1.205.1,2.284,1.189,2.393C1815.053,1755.833,1814.143,1753.64,1812.29,1753.28Z" transform="translate(-1778.778 -1719.613)" fill="#ffd30e"/></g><g transform="translate(1294.437 1612.953)"><path d="M1299.932,1723.934s-2.153-1.5-2.719-2.067a25.811,25.811,0,0,1-2.772-3.948l6.167,2.247.267,3.193Z" transform="translate(-1294.438 -1706.397)" fill="#ae5a22"/><path d="M1300.739,1717.643s-1.673-.184-3.112-.184a21.613,21.613,0,0,0-3.19.314s2.715,3.321,3.829,3.845a7.171,7.171,0,0,0,2.213.611Z" transform="translate(-1294.437 -1706.249)" fill="#e8782d"/><path d="M1358.1,1741.77a2.594,2.594,0,0,1,3.247-2.969,1,1,0,0,0,1.3-.574c.492-1.27-1.182-1.449-1.059-1.365A3.582,3.582,0,0,0,1358.1,1741.77Z" transform="translate(-1314.783 -1712.474)" fill="#ffb303"/><path d="M1315.514,1707.025a2.593,2.593,0,0,1-1.046-4.274,1,1,0,0,0,.119-1.415c-.878-1.041-1.839.342-1.707.273A3.579,3.579,0,0,0,1315.514,1707.025Z" transform="translate(-1300.203 -1700.947)" fill="#ffb303"/><path d="M1356.84,1743.126c2.011-1.327,3.447.3,3.821-1.321C1361.2,1739.461,1357.736,1740.418,1356.84,1743.126Z" transform="translate(-1314.476 -1713.641)" fill="#ffb303"/><path d="M1323.183,1764.274s.444,1.359.21,1.8a48.373,48.373,0,0,0-2.694,4.76c0,.444,1.517,1.281,2.04,1.281s1.32-.666,2.354.366a1.072,1.072,0,0,1-.471,1.936c-.5,0-4.394-1.282-5.047-1.282s-6.042,2.562-6.931,2.3-1.621-2.066.261-2.223,4.381-.745,4.106-1.019-4.524.261-5.047,0-1.229-1.334.261-1.675,5.518,1.23,6.905.261,1.961-6.119,1.961-6.119l-.758-1.124,2.9.6Z" transform="translate(-1299.862 -1721.047)" fill="#743c17"/><path d="M1334.139,1762.84a10.778,10.778,0,0,1,1.43,2.58c.209.906.418,2.022.418,2.022a4.144,4.144,0,0,0,2.3.4c1.046-.226,2.458-.156,2.458.4s.017,1.185-1.238,1.185-3.173-.314-4.044-.192-5.006.889-6.422.671c-1.055-.163-1.153-.558-.762-.95a1.207,1.207,0,0,1,1.047-.227,23.539,23.539,0,0,0,3.591-.192s-3.635.2-3.87-.035.018-.768.82-.663,4.5-.052,4.777-.331-3.086-4.079-3.086-4.079Z" transform="translate(-1305.237 -1720.822)" fill="#743c17"/><path d="M1318.258,1730.366a8.814,8.814,0,0,1,6.172,0c3.3,1.255,9.572,7.008,12.5,7.585s4.6-.628,4.863-.367-1.03,4.655-2.547,7.008-9.195,8.558-17.119,9.206c-9.632.786-14.279-4.184-15.586-7.271s-1.673-10.667.68-13.02S1318.258,1730.366,1318.258,1730.366Z" transform="translate(-1297.992 -1710.215)" fill="#ffe56e"/><path d="M1309.922,1709.669s5.593-.205,8.158,3.874c4.028,6.407,1.223,14.357-6.407,15.906-5.339,1.084-10.977-1.859-11.531-7.641C1299.78,1717.992,1300.615,1710.552,1309.922,1709.669Z" transform="translate(-1296.248 -1703.747)" fill="#ffe56e"/><path d="M1306.294,1729.248c3.289.889,10.2-1.621,11.878-4.6a11.227,11.227,0,0,0-.629-11.454c-.026-.042-.052-.082-.077-.121a7.174,7.174,0,0,1,1.337,1.567c4.028,6.407,1.223,14.357-6.407,15.906a9.858,9.858,0,0,1-10.088-3.62A9.288,9.288,0,0,0,1306.294,1729.248Z" transform="translate(-1296.964 -1704.84)" fill="#bf9e0b"/><path d="M1305.81,1718.413a2.024,2.024,0,1,0,2.024-2.024A2.025,2.025,0,0,0,1305.81,1718.413Z" transform="translate(-1298.089 -1705.906)"/><path d="M1307.69,1718.111a.784.784,0,1,0,.777-.675A.731.731,0,0,0,1307.69,1718.111Z" transform="translate(-1298.693 -1706.242)" fill="#fff"/><path d="M1325.7,1740.37a31.149,31.149,0,0,1,18.006,9.755,7.435,7.435,0,0,1-3.59,1.857,4.52,4.52,0,0,1-3.568-1.408s.837,1.47-1.143,1.918a2.838,2.838,0,0,1-2.99-1.474s-.52,2.31-2.079,1.576a4.445,4.445,0,0,1-2.081-2.583s-1.557,1.791-4.175-.262-4.067-3.436-4.067-3.436l.786-.217a6.753,6.753,0,0,0,4.9-5.726Z" transform="translate(-1302.65 -1713.607)" fill="#ffc000"/><g transform="translate(17.362 32.708)"><path d="M1343.7,1752.937c-4.457,3.7-6.636.494-8.136-.966.271.879,1.361,1.963.631,2.655-2.132,1.925-3.866-1.615-3.9-1.632-.131.327-.446,2.9-1.972,2.048a4.653,4.653,0,0,1-1.954-2.771c-2.212.552-.445,3.485-8.362-3.146,2.385,2.5,5.614,5.944,8.108,4.186.9,2.259,3.305,3.762,4.4,1.217,1.745,2.045,4.479.994,4.477-.428C1339.318,1755.775,1341.837,1754.865,1343.7,1752.937Z" transform="translate(-1320.012 -1749.126)" fill="#bf9e0b"/></g><path d="M1331.86,1748.36c1.572,1.824.145,3.456,1.8,3.62C1336.049,1752.223,1334.664,1748.9,1331.86,1748.36Z" transform="translate(-1306.454 -1716.172)" fill="#ffd30e"/><path d="M1338.2,1749.66c1.04,1.205.1,2.283,1.189,2.392C1340.963,1752.213,1340.053,1750.02,1338.2,1749.66Z" transform="translate(-1308.49 -1716.59)" fill="#ffd30e"/><path d="M1343.8,1750.54c1.04,1.206.1,2.284,1.189,2.392C1346.563,1753.093,1345.654,1750.9,1343.8,1750.54Z" transform="translate(-1310.288 -1716.872)" fill="#ffd30e"/></g><g transform="translate(1343.474 1426.923)"><path d="M1512.491,1784.855c-1.228-.564-4.008,2.192-5.009,4.316,0,0,5.931-2.333,6.2-2.208S1513.176,1785.167,1512.491,1784.855Z" transform="translate(-1411.887 -1541.838)" fill="#e0d0c7"/><path d="M1517.721,1795.225c-1.228-.564-4.008,2.192-5.009,4.316,0,0,5.931-2.333,6.2-2.208S1518.406,1795.537,1517.721,1795.225Z" transform="translate(-1413.566 -1545.168)" fill="#e0d0c7"/><path d="M1560.48,1749.4c.018-1.35,3.7-2.674,6.051-2.663,0,0-4.658,4.35-4.659,4.643S1560.473,1750.154,1560.48,1749.4Z" transform="translate(-1428.906 -1529.622)" fill="#e0d0c7"/><path d="M1407.479,1758.941s-5.87.41-7.782-.087-9.648-5.678-12.42-6.4-4.2,1.743-1.686,4.758,15.691,6.139,15.691,6.139Z" transform="translate(-1372.326 -1531.417)" fill="#f1af69"/><path d="M1527.451,1761.12s-2.266,5.432-3.569,6.916-9.4,6.077-11.291,8.231-.327,4.54,3.5,3.64,12.525-11.271,12.525-11.271Z" transform="translate(-1413.27 -1534.241)" fill="#f1af69"/><path d="M1428.529,1726.407s-7.894,9.276-9.264,14.533a12.209,12.209,0,0,0,1.8,9.554s-5.276-3.059-6.422-2.387-2.736,7.76-.861,9.575,6.812,1.673,6.713,4.4-5,3.9-7.19.168-8.472-5.881-11.784-5.316-11.753-1.122-14.589-2.779-6.483,1.373-9.027-.616-.634-6.189,3.414-6.052,11.143,2.289,14.681,3.211,7-.219,12.724-4.955,9.405-23.172,9.405-23.172Z" transform="translate(-1369.907 -1521.862)" fill="#f5bf3b"/><path d="M1428.81,1694.76s3.567,20.39,5.009,23.265c0,0,4.906-.865,5.589.5s1.869,4.032,1.869,4.032,10.6-3.168,10.816-11.035S1428.81,1694.76,1428.81,1694.76Z" transform="translate(-1386.624 -1512.931)" fill="#5c5454"/><path d="M1379.718,1512.995s-16.358,24.666-12.444,49.614,19.536,56.051,37.147,69.5,33.02,15.654,39.869,16.877,18.833-9.539,37.911-23.97,47.451-26.905,54.544-30.818,22.258-23.237,16.877-28.618-8.316-2.2-9.783-2.2,6.911-5.871,10.916-18.344-8.47-2.2-11.65-2.2,11.25-7.093,12.719-23.481-2.935-18.589-7.827-16.877,1.59-16.509-4.158-22.258-16.632-5.136-18.589,0-43.781,66.53-57.236,62.616-22.257-24.459-23.724-24.459S1379.718,1512.995,1379.718,1512.995Z" transform="translate(-1366.669 -1442.726)" fill="#4c4053"/><path d="M1397.789,1455.516c0-2.051.734-10.347,17.366-11.883s30.084,8.493,39.135,27.816,9.049,35.221,9.049,35.221-6.114-.489-8.315-2.691,6.115,11.5,6.115,11.5-3.914,8.071-12.23,3.179-13.452,3.424-13.452,5.136-5.015-6.971-9.051-11.007-16.387,14.92-21.767,20.3-6.849-2.69-6.849-7.827-11.5-.733-14.431,2.2-5.381-2.691-5.381-8.317-9.111,3.974-9.111,3.974,6.054-15.1,11.557-20.607,22.258-18.833,23.48-27.883S1397.789,1460.859,1397.789,1455.516Z" transform="translate(-1367.375 -1432.24)" fill="#5c5454"/><path d="M1407.092,1460.169s-7.338,1.835-9.661,5.259a11.169,11.169,0,0,0-1.835,7.093s12.092-2.8,15.034-2.075S1412.224,1459.558,1407.092,1460.169Z" transform="translate(-1375.944 -1437.591)" fill="#f5bf3b"/><path d="M1448.578,1443.418s-2.015-11.9-5.807-11.9-3.181,1.712-4.525,1.712-4.769-7.093-9.416-6.237-4.525,4.647-4.525,4.647-8.683-5.259-12.23-1.711.32,9.249,1.712,10.64c0,0-3.3-1.468-5.5.734s1.988,8.388,1.988,8.388,3.107-9.619,15.689-10.535C1434.844,1438.51,1448.578,1443.418,1448.578,1443.418Z" transform="translate(-1379.827 -1426.923)" fill="#942d30"/><path d="M1417.276,1467.74s3.775,5.263,3.775,10.888-4.158,9.294-7.461,7.338,1.1-10.135,1.1-13.2A6.942,6.942,0,0,1,1417.276,1467.74Z" transform="translate(-1381.342 -1440.031)" fill="#942d30"/><path d="M1516.283,1715.05s4.749,11.216,8.834,14.8a12.208,12.208,0,0,0,9.346,2.677s-5.1,3.345-5.014,4.669,5.708,5.926,8.172,5.064,4.55-5.338,6.946-4.025,1.248,6.219-3.074,6.5-9.057,4.934-10.036,8.149-6.276,10-9.029,11.792-1.68,6.41-4.6,7.792-5.815-2.21-3.879-5.766,7.046-8.933,9.455-11.68,2.944-6.354,1.281-13.594-16.494-18.8-16.494-18.8Z" transform="translate(-1412.115 -1519.447)" fill="#f5bf3b"/><path d="M1479.35,1715.13s19.824,5.958,23.041,5.958c0,0-.039-7.513,1.485-7.513s5.907,2.877,5.907,2.877,1.923-10.9-5.012-14.616S1479.35,1715.13,1479.35,1715.13Z" transform="translate(-1402.853 -1515.032)" fill="#5e5d5c"/><path d="M1443.369,1608.727s-13.045-3.587-13.045,20.872,35.547,61.174,43.048,57.492,2.609-10.909,2.609-10.909,23.155,13.513,37.178,17.871,31.308,3.569,23.806-6.962-7.826-15.749-1.3-14.117,15.5-3.195,7.174-16.273-8.806-17.318-6.2-19.927-17.61-34.57-42.07-40.44-13.7,3.588-27.721,10.111S1443.369,1608.727,1443.369,1608.727Z" transform="translate(-1387.11 -1480.733)" fill="#5c5454"/><path d="M1376.758,1761.424c-.487-1.259-4.4-1.219-6.6-.392,0,0,5.205,2.732,5.983,2.732C1376.432,1763.767,1377.03,1762.131,1376.758,1761.424Z" transform="translate(-1367.79 -1534.022)" fill="#e0d0c7"/><path d="M1438.2,1780.473c1.189-.64,4.136,1.939,5.266,4,0,0-6.067-1.961-6.322-1.82S1437.538,1780.833,1438.2,1780.473Z" transform="translate(-1389.283 -1540.424)" fill="#e0d0c7"/><path d="M1383.348,1753.315c-.488-1.259-4.4-1.218-6.6-.392,0,0,5.6,2.671,5.983,2.732C1383.022,1755.7,1383.62,1754.014,1383.348,1753.315Z" transform="translate(-1369.906 -1531.418)" fill="#e0d0c7"/></g><path d="M1397.59,1473.163c2.206-3.392,7.338-6.57,13.447-6.274C1406.592,1467.916,1402.016,1469.274,1397.59,1473.163Z" transform="translate(-33.125 -12.828)" fill="#743c17"/><path d="M1407.779,1513.04c-8.44,26.144-25.678,27.648-25.877,20.644a3.652,3.652,0,0,1,4.484-3.66C1394.113,1531.831,1403.658,1519.9,1407.779,1513.04Z" transform="translate(-28.086 -27.654)" fill="#5c5454" opacity="0.35"/><path d="M1439.484,1500.87c4.129,5.182,5.882,12.355,3.1,21.4-3.521,10.389-10.757,3.373-7.527-.6C1439.695,1515.982,1442.906,1509.641,1439.484,1500.87Z" transform="translate(-44.897 -23.746)" fill="#5c5454" opacity="0.35"/><path d="M1469.433,1495.37c3.889,6.656,8.233,16.889,6.9,24.768-.057.09-.649,3.832-4.263,3.223a3.669,3.669,0,0,1-2.635-5.328C1472.338,1512.525,1470.872,1501.405,1469.433,1495.37Z" transform="translate(-56.061 -21.98)" fill="#5c5454" opacity="0.35"/><path d="M1445.91,1639.35c2.159,9.142,14.945,38.949,24.224,42.212,5.481,1.927,1.209,14.158-8.885,1.282C1453.031,1672.14,1446.562,1646.356,1445.91,1639.35Z" transform="translate(-48.641 -68.214)" fill="#5c5454" opacity="0.35"/><path d="M1481.58,1641.76c1.7,7.117,24.206,49.667,61.923,58.614l.092.021c4.787,1.136,2.837,8.471-1.938,6.95C1507.024,1696.2,1483.616,1654.849,1481.58,1641.76Z" transform="translate(-60.095 -68.988)" fill="#5c5454" opacity="0.35"/><path d="M1511.79,1647.62c9.894,9.878,31.072,28.077,44.977,29.313,4.761.423,4.127,7.625-.64,7.2-2.013-.18-5.972-1.844-7.856-2.781C1535.32,1674.87,1520.643,1659.079,1511.79,1647.62Z" transform="translate(-69.797 -70.87)" fill="#5c5454" opacity="0.35"/><path d="M1571.44,1539.93c14.316-7.523,25.763-32.423,30.9-47.73.082-.09,1.264-3.456,4.6-2.335a3.615,3.615,0,0,1,2.276,4.577C1607.611,1499.225,1589.906,1532.972,1571.44,1539.93Z" transform="translate(-88.951 -20.139)" fill="#5c5454" opacity="0.35"/><path d="M1555.94,1578.4c20.155-6.645,35.866-19.17,42.017-28.167,2.878-4.206,9.2.693,5.637,4.519C1594.718,1564.281,1576.856,1574.573,1555.94,1578.4Z" transform="translate(-83.974 -39.079)" fill="#5c5454" opacity="0.35"/><path d="M1582.94,1600.353c11.828-5.264,18.235-12.071,18.6-12.874,2.627-5.829,11.075.692,5.786,4.641C1606.355,1592.844,1590.964,1599.43,1582.94,1600.353Z" transform="translate(-92.644 -50.813)" fill="#5c5454" opacity="0.35"/><g transform="translate(1378.915 1444.537)"><path d="M1427.4,1457.017a4.266,4.266,0,1,0-4.148,4.38A4.264,4.264,0,0,0,1427.4,1457.017Z" transform="translate(-1418.875 -1452.868)" fill="#283038"/><path d="M1424.467,1458.125a1.977,1.977,0,1,0-1.91,2.21A2.07,2.07,0,0,0,1424.467,1458.125Z" transform="translate(-1419.406 -1453.881)" fill="#fff"/></g></g></g></svg>