<svg xmlns="http://www.w3.org/2000/svg" width="21.9" height="27.906" viewBox="0 0 21.9 27.906">
  <g id="Grupo_84448" data-name="Grupo 84448" transform="translate(12633.271 13042)">
    <g id="Grupo_84441" data-name="Grupo 84441" transform="translate(-12683.813 -13224.404)">
      <g id="Grupo_80369" data-name="Grupo 80369" transform="translate(50.541 182.404)">
        <g id="Grupo_80366" data-name="Grupo 80366" transform="translate(0.63)">
          <path id="Trazado_113924" data-name="Trazado 113924" d="M67.362,201.407a10.632,10.632,0,0,0-8.38,16.84h0l.1.141.015.02,7.53,10.243a1.617,1.617,0,0,0,2.644-.055l6.806-10.119a11.518,11.518,0,0,0,2.171-6.438A10.635,10.635,0,0,0,67.362,201.407Zm.253,18.366a8,8,0,1,1,8-8A8,8,0,0,1,67.615,219.773Z" transform="translate(-56.98 -201.404)" fill="#ff725e"/>
        </g>
        <g id="Grupo_80367" data-name="Grupo 80367" transform="translate(0.63)" opacity="0.3">
          <path id="Trazado_113925" data-name="Trazado 113925" d="M67.362,201.407a10.632,10.632,0,0,0-8.38,16.84h0l.1.141.015.02,7.53,10.243a1.617,1.617,0,0,0,2.644-.055l6.806-10.119a11.518,11.518,0,0,0,2.171-6.438A10.635,10.635,0,0,0,67.362,201.407Zm.253,18.366a8,8,0,1,1,8-8A8,8,0,0,1,67.615,219.773Z" transform="translate(-56.98 -201.404)"/>
        </g>
        <g id="Grupo_80368" data-name="Grupo 80368">
          <path id="Trazado_113926" data-name="Trazado 113926" d="M66.1,201.407a10.632,10.632,0,0,0-8.38,16.84h0l.1.141.015.02,7.53,10.243a1.617,1.617,0,0,0,2.644-.055l6.806-10.119a11.518,11.518,0,0,0,2.171-6.438A10.635,10.635,0,0,0,66.1,201.407Zm.253,16.925a6.055,6.055,0,1,1,6.055-6.056A6.056,6.056,0,0,1,66.349,218.332Z" transform="translate(-55.714 -201.404)" fill="#ffa686"/>
        </g>
      </g>
    </g>
  </g>
</svg>
