<svg xmlns="http://www.w3.org/2000/svg" width="1050" height="222" viewBox="0 0 1050 222"><g transform="translate(1126 -2283.148)"><g transform="translate(-496 -563.678)"><rect width="1030" height="222" transform="translate(-630 2846.826)" fill="#eff5d5"/><path d="M1111.411,143.131a.639.639,0,0,0-.428.562.444.444,0,0,0,.094.281c.428.562.856,1.124,1.311,1.672a92.818,92.818,0,0,0,19.543,18.821c4.735,3.331,9.337,7.023,14.206,10.233-2.461-1.15-4.922-2.314-7.4-3.4a141.426,141.426,0,0,0-16.882-6.595c-5.792-1.726-11.812-3.023-17.724-4.334-5.833-1.271-11.772-2.261-17.764-1.9a.317.317,0,0,0-.107.027.473.473,0,0,0-.307.709c0,.013.013.013.013.027h.013c2.569,3.572,6.581,5.819,10.287,8.026,4.682,2.769,9.243,5.725,14.046,8.28a66.9,66.9,0,0,0,14.928,5.953c5.123,1.3,10.086,3.077,15.129,4.642-5.792-.134-11.557-.816-17.363-.508-11.6.615-23.088,1.7-34.592,3.277a128.525,128.525,0,0,1-19.878,1.619.431.431,0,0,0-.455.348.492.492,0,0,0,.321.615c.147.053.308.094.455.147,11.183,3.625,22.66,6.729,34.378,7.866a136.883,136.883,0,0,0,30.86-.655c-4.334,1.124-8.628,2.341-12.882,3.719-11.464,3.692-22.3,8.628-33.161,13.778-6.033,2.863-11.477,6.769-17.109,10.327a.4.4,0,0,0-.174.227.409.409,0,0,0,.28.508c8.039,2.274,26.634,1.592,32.4.883,5.739-.722,11.4-2.221,17.055-3.344a85,85,0,0,0,16.28-5.257c3.3-1.391,6.381-3.224,9.524-4.923-.468.308-.95.629-1.4.963a57.855,57.855,0,0,0-7.264,6.876,83.153,83.153,0,0,0-6.9,7.33c-1.739,2.261-3.17,4.735-4.856,7.036a.013.013,0,0,1-.013.013c-.468.669-.963,1.3-1.5,1.926a.323.323,0,0,0-.08.2.342.342,0,0,0,.428.4c7.023-1.846,13.029-6.876,19.222-10.461,6.02-3.465,12.12-7.277,15.945-13.243a.309.309,0,0,0,.027-.214c.816-1.525,1.739-3.01,2.608-4.508,1.458-2.528,1.07-5.779.95-8.6-.08-2.274-.24-4.561-.16-6.835.08-2.194.455-4.361.709-6.528.214-1.9.254-3.786.361-5.7.08-1.712.334-3.424.254-5.15-.134-2.916-1.739-4.441-3.96-6.14-3.09-2.354-6.113-4.776-9.19-7.157a169.928,169.928,0,0,0-22.366-14.42c-3.063-1.7-5.886-3.8-8.976-5.458C1117.551,143.706,1114.407,142.261,1111.411,143.131Zm35.676,52.785a43.149,43.149,0,0,1,5.137-1.177C1150.524,195.193,1148.812,195.567,1147.086,195.915Z" transform="translate(562.867 1904.174) rotate(90)" fill="#36753c"/><path d="M1150.875,184.437c-1.137,1.913-3.344,3.1-5.284,4.067-2.18,1.057-4.468,1.873-6.715,2.782-5.151,2.1-10.086,4.655-15.263,6.7-5.618,2.221-11.33,4.174-17.109,5.913-11.972,3.625-23.837,7.277-36.131,9.591a.409.409,0,0,1-.281-.508c6.581-1.445,13.069-3.384,19.516-5.311,11.491-3.411,23.088-6.675,34.271-11.063,4.963-1.953,9.738-4.4,14.755-6.207,4.388-1.565,8.293-3.21,11.838-6.274C1150.687,183.956,1151.022,184.183,1150.875,184.437Z" transform="translate(548.954 1904.853) rotate(90)" fill="#5e9163"/><path d="M1155.487,178.263c.294.027.4.495.067.562a100.077,100.077,0,0,1-10.22.977c-3.384.254-6.769.522-10.166.655-12.333.468-24.707.495-37.067.4-6.153-.04-12.293-.214-18.446-.482-3.6-.161-7.21-.254-10.8-.669-.147-.053-.307-.094-.455-.147a.492.492,0,0,1-.321-.615c4.977.482,10.073.241,15.036.495,12,.629,23.971.843,35.983.615,6.126-.107,12.253-.268,18.367-.749,2.943-.227,5.9-.468,8.842-.7A61.942,61.942,0,0,1,1155.487,178.263Z" transform="translate(550.94 1904.174) rotate(90)" fill="#5e9163"/><path d="M1081.765,154.554c4.321,1.391,8.655,2.7,12.962,4.147,6.047,2.033,12.133,3.919,18.152,6.033,11.932,4.16,23.851,8.748,34.913,14.928a.255.255,0,0,1-.254.441c-11.464-6.033-23.583-10.461-35.823-14.621q-8.909-3.03-17.778-6.153c-3.05-1.07-6.1-2.113-9.19-3.05-1.083-.334-2.181-.655-3.264-.99h-.013c0-.013-.014-.013-.014-.027A.473.473,0,0,1,1081.765,154.554Z" transform="translate(558.921 1908.67) rotate(90)" fill="#5e9163"/><path d="M1100.148,143.484c.776.4,1.552.843,2.314,1.244q3.09,1.625,6.113,3.344a112.212,112.212,0,0,1,11.812,7.678c7.531,5.618,14.286,12.159,21.389,18.286.241.214-.107.548-.348.348-7.3-6.073-14.38-12.494-22.072-18.1a121.89,121.89,0,0,0-11.584-7.451c-2.006-1.15-4.053-2.261-6.113-3.344-.04-.013-.067-.04-.107-.054-.455-.548-.883-1.11-1.311-1.672A.444.444,0,0,1,1100.148,143.484Z" transform="translate(562.659 1915.008) rotate(90)" fill="#5e9163"/><path d="M1143.219,195.243a20.084,20.084,0,0,1-4.067,4.254c-1.5,1.364-3.023,2.689-4.575,4q-4.475,3.732-9.163,7.2c-5.043,3.705-10.166,7.3-15.316,10.889a.321.321,0,0,1,.08-.2c.535-.629,1.03-1.257,1.5-1.926a.013.013,0,0,0,.013-.013c4.254-3.063,8.534-6.113,12.708-9.3,3.251-2.488,6.474-5.016,9.6-7.651q2.328-1.966,4.561-4.013a27.418,27.418,0,0,1,4.227-3.665A.315.315,0,0,1,1143.219,195.243Z" transform="translate(545.34 1918.368) rotate(90)" fill="#5e9163"/></g></g></svg>