<svg xmlns="http://www.w3.org/2000/svg" width="282.032" height="163.165" viewBox="0 0 282.032 163.165"><g transform="translate(467.032 -2065.332)"><g transform="translate(-496 -563.678)"><path d="M1466.166,1184.582c0,5.412-52.111,9.8-116.393,9.8s-116.394-4.386-116.394-9.8,52.111-9.8,116.394-9.8S1466.166,1179.17,1466.166,1184.582Z" transform="translate(-1155.167 1596.867)" fill="#b3c1bb"/><path d="M1333.773,1184.94s2.28.815,3.048,2.281c0,0-3.307-.3-3.489-.2S1333.773,1184.94,1333.773,1184.94Z" transform="translate(-1207.272 1591.57)" fill="#e0d0c7"/><path d="M1301.13,1179.33c1.9.265,8.794,0,10.592,0s6.743,1.586,5.753,4.063-3.551,1.239-4.675,0-8.551-.793-8.995-.793S1301.13,1179.33,1301.13,1179.33Z" transform="translate(-1190.497 1594.495)" fill="#bf8b54"/><path d="M1284.876,1144.67s-.46,12.334.439,15.208,4.944,5.55,7.641,6.145,6.382,4.163,2.966,5.451-6.3-3.667-9.175-5.352-5.028-2.676-8.983-1.585-8,2.776-8.9.694-.639-3.539,2.7-3.766c5.592-.382,9.978.509,9.978-3.264s-2.067-14.08-2.067-14.08Z" transform="translate(-1173.439 1612.857)" fill="#bf8b54"/><path d="M1325.194,1196.89c.847-.435,2.888,1.423,3.657,2.888,0,0-4.247-1.464-4.43-1.368S1324.72,1197.134,1325.194,1196.89Z" transform="translate(-1202.621 1585.372)" fill="#e0d0c7"/><path d="M1265.14,1184.021c-.644-.7-3.2.331-4.433,1.438,0,0,4.491.1,4.629.256S1265.5,1184.408,1265.14,1184.021Z" transform="translate(-1169.417 1592.169)" fill="#e0d0c7"/><path d="M1283.931,1113.952s2.707,7.449,4.174,7.775,1.479-.734,2.5-.734a4.3,4.3,0,0,1,2.26,1.224s9.476-8.265,12.5-16.843,3.944-7.387,3.246-9.611S1282.816,1106.965,1283.931,1113.952Z" transform="translate(-1181.509 1638.202)" fill="#243444"/><path d="M1290.352,1191.11s2.28.815,3.048,2.28c0,0-3.307-.3-3.489-.205S1290.352,1191.11,1290.352,1191.11Z" transform="translate(-1184.628 1588.352)" fill="#e0d0c7"/><path d="M1257.71,1185.5c1.9.266,8.794,0,10.592,0s6.742,1.586,5.753,4.063-3.551,1.239-4.675,0-8.551-.792-8.995-.792S1257.71,1185.5,1257.71,1185.5Z" transform="translate(-1167.854 1591.278)" fill="#f1af69"/><path d="M1240.757,1150.84s-.461,12.334.438,15.208,4.944,5.551,7.641,6.145,6.382,4.163,2.966,5.451-6.3-3.667-9.175-5.353-5.028-2.676-8.983-1.585-8,2.775-8.9.693-2.877-4.361,2.7-3.766,9.978.509,9.978-3.265-2.067-14.08-2.067-14.08Z" transform="translate(-1150.097 1609.639)" fill="#f5bf3b"/><path d="M1281.774,1203.06c.847-.434,2.888,1.424,3.657,2.889,0,0-4.248-1.464-4.43-1.368S1281.3,1203.3,1281.774,1203.06Z" transform="translate(-1179.979 1582.154)" fill="#e0d0c7"/><path d="M1221.835,1190.47c-.847-.434-2.888,1.423-3.657,2.888,0,0,4.247-1.464,4.43-1.368S1222.309,1190.714,1221.835,1190.47Z" transform="translate(-1147.239 1588.72)" fill="#e0d0c7"/><path d="M1249.659,894.448a12.863,12.863,0,0,1,7.663,9.78c1.126,7.352-5.41,14.057-5.41,24s.225,23.016.225,32.256-2.253,13.973-4.732,16.452-7.663,7.211-11.269,14.874-24.452,14.311-28.171,18.03-15.852,9.916-15.852,9.916-1.123-1.522-2.289-1.522c-.674,0-1.915,1.522-2.411,1.522-1.352,0-5.7-8.452-8.97-11.719,0,0-21.861-16.789-29.748-31.326s-5.521-24.9-7.662-33.128-9.241-12.4-9.241-17.579,2.929-3.944,0-10.029-.676-14.987,3.606-17.578,27.157,26.03,35.157,32.678,31.326,7.887,40.791-1.578S1232.418,886.668,1249.659,894.448Z" transform="translate(-1101.5 1743.663)" fill="#293b4c"/><path d="M1250.855,1025.43l7.942,5.953s-3.265,30.818-29.6,32.83c-19.959,1.526-41.535-5.683-41.535-34.506C1187.661,1029.708,1235.763,1056.017,1250.855,1025.43Z" transform="translate(-1131.326 1674.751)" fill="#e7e1db"/><path d="M1253.924,1018.009s-2.874,12.17-23.326,20.959-41.073-6.085-45.468-16.9-.676-10.48,4.9-6.93-12.846-10.31-10.311-15.719,10.818,6.761,16.734,7.944-5.578-5.577-4.564-7.944,18.931-.507,33.129-3.211,22.649-1.183,20.114,5.916S1257.69,1011.118,1253.924,1018.009Z" transform="translate(-1127.059 1690.647)" fill="#3d4d5c"/><path d="M1369.409,895.778s2.254-4.282.789-8-3.868-4.4-4.62-3.645-2.479-1.538-4.958-2.215-1.84,1.237-2.817,2.215-2.254-1.99-4.958-1.2-3.07,6.927,1.088,5.68S1370.424,890.03,1369.409,895.778Z" transform="translate(-1216.403 1749.664)" fill="#d44500"/><path d="M1357.51,914.721a3.007,3.007,0,1,0,3.006-3.007A3.006,3.006,0,0,0,1357.51,914.721Z" transform="translate(-1219.898 1734.052)" fill="#283038"/><path d="M1362.61,916.342a1.394,1.394,0,1,0,1.388-1.52A1.459,1.459,0,0,0,1362.61,916.342Z" transform="translate(-1222.557 1732.431)" fill="#fff"/><path d="M1383.95,922.2a3.006,3.006,0,1,0,3.006-3.007A3.007,3.007,0,0,0,1383.95,922.2Z" transform="translate(-1233.686 1730.153)" fill="#283038"/><path d="M1389.06,923.818a1.394,1.394,0,1,0,1.388-1.52A1.459,1.459,0,0,0,1389.06,923.818Z" transform="translate(-1236.351 1728.532)" fill="#fff"/><path d="M1359.046,934.079s-5.109,2.533.121,10.074-4.522,4.45-4.353-2.52S1359.046,934.079,1359.046,934.079Z" transform="translate(-1218.491 1722.389)" fill="#d44500"/><path d="M1379.466,942.75s-3.041,1.3.976,7.093-4.356,4.063-4.226-1.291S1379.466,942.75,1379.466,942.75Z" transform="translate(-1229.651 1717.867)" fill="#d44500"/><path d="M1369.249,931.758a24.43,24.43,0,0,0,2.873,4.846c1.466,1.916-6.253,7.944-6.253,7.944s-1.07-4.789-2.761-7.1-2.874-4.113-1.577-4.4S1369.249,931.758,1369.249,931.758Z" transform="translate(-1221.707 1723.599)" fill="#cb964e"/><path d="M1342.035,934.079l-1.7,7.731C1338.642,937.574,1342.035,934.079,1342.035,934.079Z" transform="translate(-1210.696 1722.389)" fill="#7f2a04" opacity="0.54"/><path d="M1328.1,942.75a18.349,18.349,0,0,0-2.708,5.457c-2.8,8.9,2.07,8.359,1.9,6.128a15.682,15.682,0,0,1-.651-5.881A17.665,17.665,0,0,1,1328.1,942.75Z" transform="translate(-1202.695 1717.867)" fill="#7f2a04"/><path d="M1345.071,966.832c-2.094,6.757,1.835,14.614,4.074,12.885C1351.89,977.6,1344.071,976.769,1345.071,966.832Z" transform="translate(-1213.101 1705.309)" fill="#7f2a04"/><path d="M1366.38,998.481c-1.131,8.331-6.719,10.352-5.272,9.479a1.279,1.279,0,0,0,1.322,2.191c2.25-1.358,3.663-5.653,3.926-8.689A18.206,18.206,0,0,0,1366.38,998.481Z" transform="translate(-1221.447 1688.804)" fill="#7f2a04"/><path d="M1258.8,1049.338c-25.632,22.657-53.271-.814-51.77-.186-2.662-2.057-5.779,1.968-3.112,4.028.317.245,1.421.888,1.89,1.15C1224.472,1065.081,1243.838,1065.081,1258.8,1049.338Z" transform="translate(-1139.272 1662.677)" fill="#515e6c"/><path d="M1268.038,1037.88a26.327,26.327,0,0,1-6.651,2.328c-15.487,3.274-21.761-5.617-23.57-.47a2.559,2.559,0,0,0,1.992,3.372c8.141,1.362,14.349,1.412,21.961-1.69A27.275,27.275,0,0,0,1268.038,1037.88Z" transform="translate(-1157.405 1668.259)" fill="#515e6c"/><g transform="translate(33.907 2659.433)"><path d="M1159.3,952.562a29.563,29.563,0,0,0-3.762-4.225,39.877,39.877,0,0,0-4.391-3.587,33.3,33.3,0,0,0-4.934-2.829,20.854,20.854,0,0,0-5.428-1.645c1.721.789,3.371,1.608,4.976,2.528,1.585.949,3.149,1.924,4.66,2.989C1153.461,947.906,1156.351,950.213,1159.3,952.562Z" transform="translate(-1140.789 -940.276)" fill="#7f2a04"/></g><g transform="translate(34.539 2650.219)"><path d="M1142.11,921.021a50.368,50.368,0,0,1,6.053,3.5,31.906,31.906,0,0,1,2.75,2.081c.906.728,1.72,1.552,2.634,2.358a11.1,11.1,0,0,0-1.938-3.065,14.641,14.641,0,0,0-1.281-1.306,16.155,16.155,0,0,0-1.448-1.117,14.888,14.888,0,0,0-3.23-1.684A11.116,11.116,0,0,0,1142.11,921.021Z" transform="translate(-1142.11 -921.021)" fill="#7f2a04"/></g><path d="M1369.3,931.942a.714.714,0,0,1-.059-.184s-6.423,1.014-7.719,1.3-.113,2.085,1.577,4.395,2.761,7.1,2.761,7.1a22.4,22.4,0,0,0,3.694-6.395A11.865,11.865,0,0,0,1369.3,931.942Z" transform="translate(-1221.705 1723.599)" fill="#d6b081"/><path d="M1526.371,1187.46s-2.375.473-3.349,1.811c0,0,3.316.185,3.482.307S1526.371,1187.46,1526.371,1187.46Z" transform="translate(-1306.209 1590.256)" fill="#e0d0c7"/><path d="M1545.326,1185.016c-1.917-.014-8.7-1.282-10.479-1.545s-6.9.585-6.284,3.18,3.332,1.744,4.624.682,8.575.463,9.014.528S1545.326,1185.016,1545.326,1185.016Z" transform="translate(-1309.072 1592.36)" fill="#bf8b54"/><path d="M1549.525,1152.81s-1.345,12.27-2.653,14.983-5.7,4.769-8.455,4.964-6.921,3.187-3.73,4.96,6.771-2.708,9.858-3.956,5.364-1.914,9.119-.258,7.509,3.912,8.7,1.984,3.483-3.894-2.118-4.119-9.946-.953-9.395-4.685,4.1-13.628,4.1-13.628Z" transform="translate(-1311.691 1608.325)" fill="#bf8b54"/><path d="M1531.989,1200.424c-.774-.553-3.065.986-4.039,2.324,0,0,4.416-.828,4.582-.708S1532.42,1200.735,1531.989,1200.424Z" transform="translate(-1308.779 1583.556)" fill="#e0d0c7"/><path d="M1593.347,1196.358c.9-.307,2.649,1.829,3.2,3.391,0,0-3.988-2.068-4.183-2S1592.844,1196.525,1593.347,1196.358Z" transform="translate(-1342.349 1585.631)" fill="#e0d0c7"/><path d="M1563.081,1120.722s-3.766,6.975-5.263,7.084-1.2-2.014-2.213-2.164-2.572,1.953-2.572,1.953-8.169-9.559-9.91-18.486-2.825-7.883-1.809-9.982S1565.2,1113.97,1563.081,1120.722Z" transform="translate(-1315.543 1636.413)" fill="#58332e"/><path d="M1488.441,1199.43s-2.374.473-3.348,1.811c0,0,3.316.186,3.481.307S1488.441,1199.43,1488.441,1199.43Z" transform="translate(-1286.43 1584.014)" fill="#e0d0c7"/><path d="M1507.4,1196.986c-1.917-.014-8.7-1.284-10.478-1.545s-6.9.585-6.284,3.18,3.332,1.744,4.624.682,8.575.463,9.014.528S1507.4,1196.986,1507.4,1196.986Z" transform="translate(-1289.293 1586.118)" fill="#f1af69"/><path d="M1511.6,1164.77s-1.344,12.27-2.652,14.982-5.7,4.77-8.456,4.965-6.921,3.187-3.73,4.96,6.771-2.708,9.857-3.957,5.365-1.914,9.119-.258,7.51,3.912,8.7,1.984,3.482-3.895-2.119-4.119-9.945-.952-9.4-4.685,4.1-13.628,4.1-13.628Z" transform="translate(-1291.912 1602.088)" fill="#f5bf3b"/><path d="M1494.059,1212.394c-.775-.553-3.065.987-4.038,2.325,0,0,4.416-.829,4.582-.708S1494.49,1212.7,1494.059,1212.394Z" transform="translate(-1289 1577.313)" fill="#e0d0c7"/><path d="M1555.418,1208.318c.9-.306,2.65,1.829,3.2,3.391,0,0-3.988-2.067-4.183-2S1554.915,1208.49,1555.418,1208.318Z" transform="translate(-1322.57 1579.394)" fill="#e0d0c7"/><path d="M1433.725,893.687a12.861,12.861,0,0,0-9.007,8.558c-2.187,7.109,3.3,14.7,1.849,24.534s-3.58,22.736-4.929,31.878.191,14.152,2.283,16.966,6.528,8.252,8.978,16.359,22.1,17.725,25.239,21.946,14.237,12.123,14.237,12.123,1.333-1.341,2.487-1.171c.668.1,1.673,1.784,2.163,1.857,1.338.2,6.874-7.529,10.583-10.284,0,0,25.542-10.321,35.467-23.55s7.629-26.932,10.948-34.757,10.949-10.915,11.706-16.042-2.323-4.329,1.463-9.921,2.856-14.728-1-17.917-29.7,15.268-38.586,20.678-33.1,9.755-41.086-.991S1451.918,888.505,1433.725,893.687Z" transform="translate(-1253.075 1743.726)" fill="#d75c20"/><path d="M1478.2,1031.31l-8.725,4.731s-1.265,30.965,24.493,36.8c19.523,4.421,41.919.438,46.125-28.078C1540.092,1044.761,1488.67,1063.773,1478.2,1031.31Z" transform="translate(-1278.28 1671.685)" fill="#e7e1db"/><path d="M1469.623,1024.231s1.067,12.459,20.018,24.138,41.521-.027,47.447-10.088,2.2-10.269-3.839-7.571,14.212-8.326,12.494-14.046-11.688,5.11-17.714,5.418,6.332-4.7,5.674-7.193-18.654-3.264-32.306-8.01-22.234-4.475-20.762,2.918S1466.9,1016.862,1469.623,1024.231Z" transform="translate(-1278.192 1686.08)" fill="#7f2a04"/><path d="M1432.638,891.645s-3.761-6.986-1.77-10.451,6.554-3.756,7.188-2.9,2.389-1.265,4.94-1.571,2.737,2.707,3.56,3.817,3.733-1.808,6.293-.634.074,8.75-3.856,6.91S1432.475,885.812,1432.638,891.645Z" transform="translate(-1257.849 1752.312)" fill="#812f39"/><path d="M1459.491,915.761a3.007,3.007,0,1,1-2.536-3.413A3.007,3.007,0,0,1,1459.491,915.761Z" transform="translate(-1269.959 1733.738)" fill="#283038"/><path d="M1457.947,916.9a1.394,1.394,0,1,1-1.152-1.706A1.459,1.459,0,0,1,1457.947,916.9Z" transform="translate(-1270.831 1732.246)" fill="#fff"/><path d="M1432.241,919.3a3.007,3.007,0,1,1-2.536-3.413A3.006,3.006,0,0,1,1432.241,919.3Z" transform="translate(-1255.749 1731.894)" fill="#283038"/><path d="M1430.687,920.434a1.394,1.394,0,1,1-1.151-1.706A1.458,1.458,0,0,1,1430.687,920.434Z" transform="translate(-1256.617 1730.401)" fill="#fff"/><path d="M1437.786,934.914s-5.11,2.534.12,10.073-4.522,4.45-4.352-2.52S1437.786,934.914,1437.786,934.914Z" transform="translate(-1259.552 1721.953)" fill="#812f39"/><path d="M1455.02,934.135s5.641,1.6,1.807,9.94,5.229,3.593,3.846-3.241S1455.02,934.135,1455.02,934.135Z" transform="translate(-1270.747 1722.36)" fill="#812f39"/><path d="M1439.3,930.1a24.372,24.372,0,0,1-3.549,4.375c-1.728,1.682,5.028,8.771,5.028,8.771s1.757-4.581,3.766-6.62,3.514-3.673,2.306-4.222C1445.592,931.83,1439.3,930.1,1439.3,930.1Z" transform="translate(-1260.553 1724.463)" fill="#cb964e"/><path d="M1476.64,937.337l.548,7.9C1479.482,941.289,1476.64,937.337,1476.64,937.337Z" transform="translate(-1282.021 1720.69)" fill="#7f2a04" opacity="0.54"/><path d="M1486.621,947.724a18.366,18.366,0,0,1,1.882,5.793c1.474,9.212-3.268,7.967-2.772,5.785a15.672,15.672,0,0,0,1.5-5.724A17.6,17.6,0,0,0,1486.621,947.724Z" transform="translate(-1286.743 1715.273)" fill="#7f2a04"/><path d="M1463.611,969.547c1.086,6.99-3.947,14.189-5.91,12.153C1455.294,979.2,1463.152,979.524,1463.611,969.547Z" transform="translate(-1271.907 1703.893)" fill="#7f2a04"/><path d="M1438.654,996.905c-.1,8.406,5.137,11.221,3.833,10.147a1.279,1.279,0,0,1-1.627,1.975c-2.028-1.672-2.8-6.128-2.617-9.169A18.192,18.192,0,0,1,1438.654,996.905Z" transform="translate(-1261.985 1689.626)" fill="#7f2a04"/><path d="M1484.11,1055.77c22.052,26.152,52.82,6.965,51.243,7.368,2.934-1.646,5.43,2.79,2.491,4.439-.349.2-1.534.671-2.037.862C1515.779,1076.356,1496.619,1073.528,1484.11,1055.77Z" transform="translate(-1285.917 1658.929)" fill="#463234"/><path d="M1504.3,1046.33a26.367,26.367,0,0,0,6.239,3.274c14.844,5.5,22.348-2.383,23.386,2.974a2.558,2.558,0,0,1-2.463,3.045c-8.253.159-14.4-.7-21.479-4.875A26.781,26.781,0,0,1,1504.3,1046.33Z" transform="translate(-1296.446 1663.852)" fill="#463234"/><g transform="translate(270.464 2675.175)"><path d="M1635.14,982.625a29.6,29.6,0,0,1,4.337-3.631,40.089,40.089,0,0,1,4.868-2.908,33.285,33.285,0,0,1,5.293-2.079,20.84,20.84,0,0,1,5.611-.836c-1.818.529-3.571,1.1-5.292,1.774-1.707.708-3.4,1.444-5.046,2.277C1641.6,978.871,1638.4,980.732,1635.14,982.625Z" transform="translate(-1635.14 -973.172)" fill="#7f2a04"/></g><g transform="translate(278.815 2665.91)"><path d="M1665.066,953.868a50.353,50.353,0,0,0-6.5,2.583,32.082,32.082,0,0,0-3.025,1.657c-1,.588-1.928,1.285-2.949,1.949a11.093,11.093,0,0,1,2.364-2.75,14.928,14.928,0,0,1,1.458-1.105,16.192,16.192,0,0,1,1.6-.894,14.885,14.885,0,0,1,3.441-1.195A11.153,11.153,0,0,1,1665.066,953.868Z" transform="translate(-1652.592 -953.811)" fill="#7f2a04"/></g><path d="M1441.963,930.275a.664.664,0,0,0,.085-.174s7.064,1.26,8.3,1.728-1.049,2.759-3.059,4.8-3.766,6.62-3.766,6.62a22.4,22.4,0,0,1-2.722-6.865A11.835,11.835,0,0,1,1441.963,930.275Z" transform="translate(-1263.298 1724.463)" fill="#d6b081"/></g></g></svg>