<svg xmlns="http://www.w3.org/2000/svg" width="207" height="104.323" viewBox="0 0 207 104.323"><g transform="translate(424.426 -1744.826)"><g transform="translate(-539.952 -364.678)"><g transform="translate(115.525 2109.504)"><g transform="translate(50.002 46.851)"><path d="M112.756,329.944s-7.289,4.438-9.661,6.167c-1.526,1.113.975,1.622,3.74,1.622,0,0-1.7,1.125,2.689,1.125s8.963.138,9.667-1.42a8.578,8.578,0,0,0,.813-4.422S116.333,329.5,112.756,329.944Z" transform="translate(-100.542 -281.39)" fill="#6a4044"/><path d="M111.69,341.017a.5.5,0,0,1-.254-.931,38.243,38.243,0,0,0,5.5-3.934.5.5,0,1,1,.652.758,39.244,39.244,0,0,1-5.646,4.037A.5.5,0,0,1,111.69,341.017Z" transform="translate(-104.702 -284.433)" fill="#4a1c02"/><path d="M133.562,250.247c-3.527,6.208-5.462,15.3-7.5,22.669-1.153,4.186-2.349,7.817-3.878,10.061-4.223,6.189-2.17,9.3-3.144,9.3s-9.963-1.812-8.662-3.582,2.7-16.035,2.053-19.87a4.365,4.365,0,0,0-.1-.456c-.906-3.748-5.1-8.347-5.1-14.58,0-6.485-8.458-12.09-8.458-12.09C113.4,235.507,133.562,250.247,133.562,250.247Z" transform="translate(-98.766 -240.179)" fill="#ffa686"/><path d="M133.561,250.247c-3.527,6.208-5.462,15.3-7.5,22.669-4.519-1.646-9.087-3.279-13.73-4.55-.906-3.748-5.1-8.347-5.1-14.58,0-6.485-8.458-12.09-8.458-12.09C113.4,235.507,133.561,250.247,133.561,250.247Z" transform="translate(-98.766 -240.179)" fill="#742e00" opacity="0.2"/></g><g transform="translate(116.773 46.734)"><path d="M253.5,329.944s-7.289,4.438-9.661,6.167c-1.526,1.113.975,1.622,3.74,1.622,0,0-1.7,1.125,2.689,1.125s8.963.138,9.667-1.42a8.578,8.578,0,0,0,.813-4.422S257.078,329.5,253.5,329.944Z" transform="translate(-231.955 -281.272)" fill="#6a4044"/><path d="M254.985,263.279c-.906,2.9,1.313,7.749,2.589,11.707.8,2.466,1.239,4.587.339,5.685-5.752,7-5.721,11.263-6.214,12.4-.58,1.338-7.466-3.859-7.281-4.439.357-1.147,3.8-5.783,3.311-7.99A13.426,13.426,0,0,0,242,272.915a11.875,11.875,0,0,0-4.026-1.56A19.588,19.588,0,0,1,222.262,257.1c-.734-7.743,45.263-25.905,42.643-12.126C263.554,252.052,256.446,258.557,254.985,263.279Z" transform="translate(-222.253 -239.961)" fill="#ffa686"/><path d="M252.435,341.017a.5.5,0,0,1-.254-.931,38.24,38.24,0,0,0,5.5-3.934.5.5,0,1,1,.652.758,39.241,39.241,0,0,1-5.646,4.037A.5.5,0,0,1,252.435,341.017Z" transform="translate(-236.115 -284.315)" fill="#4a1c02"/></g><path d="M306.725,329.944s-7.289,4.438-9.661,6.167c-1.526,1.113.975,1.622,3.74,1.622,0,0-1.7,1.125,2.69,1.125s8.963.138,9.667-1.42a8.578,8.578,0,0,0,.813-4.422S310.3,329.5,306.725,329.944Z" transform="translate(-139.628 -234.538)" fill="#6a4044"/><path d="M222.226,204.41a6.414,6.414,0,0,1-.092.869,15.165,15.165,0,0,1-.444,1.7c-.062.21-.129.413-.2.616a24.221,24.221,0,0,1-1.541,3.366c-.037.074-.08.148-.123.222-.1.191-.2.382-.315.567q-.777,1.378-1.633,2.6c-2.33,3.483-4.852,6.633-5.66,9.235-1.461,4.716,5.277,14.53,2.928,17.391-5.752,7-5.715,11.264-6.214,12.4-.573,1.338-7.466-3.859-7.281-4.439.357-1.147,3.8-5.783,3.311-7.99a13.08,13.08,0,0,0-8.569-9c-.006,0-.012-.006-.018-.006-.376-.111-.765-.2-1.165-.284a19.844,19.844,0,0,1-11.226-6.079c-27.341-.98-64.683,10.061-80.983-2.9-.228-.179-.45-.363-.672-.555C89.137,210.667,59.2,204.749,68.1,177.672c0,0,6.553-15.462,47.7-21.639,16.016-2.4,37.273-3.4,65.423-1.529.549.037,1.1.092,1.64.167C204.557,157.544,224.217,188.183,222.226,204.41Z" transform="translate(-33.931 -153.531)" fill="#ffa686"/><path d="M227.395,274.432c-.376-.111-.765-.2-1.165-.284A19.844,19.844,0,0,1,215,268.069c-27.341-.98-64.683,10.062-80.983-2.9,2.947.82,12.774,2.9,30.252.333,21.269-3.119,37.242-6.9,50.657-19.457C214.929,246.042,213.2,268.31,227.395,274.432Z" transform="translate(-64.956 -196.021)" fill="#742e00" opacity="0.2"/><path d="M305.659,341.017a.5.5,0,0,1-.254-.931,38.24,38.24,0,0,0,5.5-3.934.5.5,0,0,1,.652.758,39.243,39.243,0,0,1-5.646,4.037A.5.5,0,0,1,305.659,341.017Z" transform="translate(-143.788 -237.581)" fill="#4a1c02"/><path d="M180.722,329.944s-7.289,4.438-9.661,6.167c-1.526,1.113.975,1.622,3.74,1.622,0,0-1.7,1.125,2.689,1.125s8.963.138,9.667-1.42a8.578,8.578,0,0,0,.813-4.422S184.3,329.5,180.722,329.944Z" transform="translate(-81.756 -234.538)" fill="#6a4044"/><path d="M179.656,341.017a.5.5,0,0,1-.254-.931,38.244,38.244,0,0,0,5.5-3.934.5.5,0,1,1,.652.758,39.246,39.246,0,0,1-5.646,4.037A.5.5,0,0,1,179.656,341.017Z" transform="translate(-85.916 -237.581)" fill="#4a1c02"/><path d="M275.018,264.506a.5.5,0,0,1-.352-.145,36.4,36.4,0,0,1-6.053-7.14,12.521,12.521,0,0,1-1.751-9.24,18.423,18.423,0,0,1,1.591-3.863l3.728-7.389a.5.5,0,0,1,.893.45l-3.728,7.389a17.672,17.672,0,0,0-1.513,3.651,11.536,11.536,0,0,0,1.642,8.495,35.646,35.646,0,0,0,5.895,6.937.5.5,0,0,1-.352.855Z" transform="translate(-126.07 -191.847)" fill="#4a1c02"/><path d="M343.445,259.964a.5.5,0,0,1-.467-.677,43.105,43.105,0,0,0,2.806-15.13.5.5,0,0,1,.5-.5h0a.5.5,0,0,1,.5.5,44.1,44.1,0,0,1-2.871,15.48A.5.5,0,0,1,343.445,259.964Z" transform="translate(-161.143 -195.156)" fill="#4a1c02"/><path d="M166.738,241.7s8.455,5.6,8.455,12.089,4.553,11.2,5.2,15.037-.751,18.1-2.051,19.872,7.682,3.583,8.658,3.583-1.079-3.111,3.149-9.3,5.853-23,11.381-32.728C201.533,250.247,181.371,235.5,166.738,241.7Z" transform="translate(-79.983 -193.327)" fill="#f19c7d"/><path d="M179.425,270.623a.5.5,0,0,1-.464-.314c-.153-.383-.449-1.038-.822-1.867-.546-1.212-1.294-2.871-2.089-4.768a25.747,25.747,0,0,1-1.506-7.189c-.117-1.049-.227-2.039-.39-3.007-.425-2.518-5.743-7.937-7.756-9.813a.5.5,0,0,1,.682-.732c.019.017,1.878,1.754,3.78,3.865,2.6,2.884,4.038,5.075,4.28,6.513.168,1,.285,2.047.4,3.063a25,25,0,0,0,1.434,6.913c.79,1.885,1.535,3.537,2.078,4.744.379.84.678,1.5.839,1.907a.5.5,0,0,1-.464.686Z" transform="translate(-79.983 -194.76)" fill="#4a1c02"/><path d="M220.907,282.145a.5.5,0,0,1-.492-.592,68.136,68.136,0,0,1,3.421-11.875.5.5,0,1,1,.919.394,67.044,67.044,0,0,0-3.357,11.664A.5.5,0,0,1,220.907,282.145Z" transform="translate(-104.862 -206.967)" fill="#4a1c02"/><path d="M42.576,194.854c-.048,3.373,1.635,6.9,4.667,8.382,1.091-.4,3.1-2.409,5.076-4.675a57.61,57.61,0,0,0,5.54-7.2c.218-.908-.131-7.235-4.354-9.647-5.381-3.08-9.14-.611-8.2.957a4.74,4.74,0,0,1,.079,3.219C44.156,189.032,42.624,191.481,42.576,194.854Z" transform="translate(-22.956 -165.8)" fill="#f19c7d"/><path d="M81.018,236.868a18.37,18.37,0,0,1-2.54,1.6c-17.65,9.241-37.415,4.328-45.01-2.589a110.586,110.586,0,0,0-8.773-7.416c-3.471-2.534-6.633-4.13-10.142-4.7L20.1,210.445a63.79,63.79,0,0,0,9.235-2.521c3.711-1.461,6.368-7.238,14.913-13.908,5.2-4.056,16.288-6.5,27.046-3.687C71.3,190.329,98.354,223.793,81.018,236.868Z" transform="translate(-10.086 -169.875)" fill="#ffa686"/><path d="M89.633,268.247a18.371,18.371,0,0,1-2.54,1.6c-17.65,9.241-37.415,4.328-45.01-2.589a110.577,110.577,0,0,0-8.773-7.416c2.25-4.8,8.668-1.288,11.991.937,6.2,4.149,13.637,7.614,20.924,6,3.527-.789,6.689-2.707,10.1-3.909s7.472-1.578,10.406.536A7.4,7.4,0,0,1,89.633,268.247Z" transform="translate(-18.7 -201.254)" fill="#fff" opacity="0.15"/><path d="M33.215,241.12c-1.924,3.457-7.977-1.108-12.652-1.481s-11.777,3.167-13.9,1.067,5.076-13.7,13.719-13.635C30.311,227.143,34.965,237.977,33.215,241.12Z" transform="translate(-6.291 -187.307)" fill="#742e00"/><path d="M45.44,240.929c1.623-.742-1.84-6.26-3.475-5.9S43.817,241.672,45.44,240.929Z" transform="translate(-22.48 -190.954)" fill="#4a1c02"/><path d="M17.789,241.14c-1.668-.715,1.451-6.287,3.107-5.958S19.457,241.855,17.789,241.14Z" transform="translate(-11.353 -191.026)" fill="#4a1c02"/><path d="M24.6,230.436c-1,.952,7.374,2.7,9.089.986S26.893,228.245,24.6,230.436Z" transform="translate(-14.664 -188.346)" fill="#fff" opacity="0.15"/><g transform="translate(34.467 30.225)"><path d="M73.131,213.527c-.172,2.195-1,3.92-1.844,3.854s-1.393-1.9-1.22-4.094,1-3.92,1.844-3.854S73.3,211.332,73.131,213.527Z" transform="translate(-70.034 -209.431)" fill="#4a1c02"/><path d="M72.417,212.693c-.065.835-.416,1.488-.782,1.459s-.61-.729-.545-1.563.416-1.488.782-1.459S72.483,211.858,72.417,212.693Z" transform="translate(-70.514 -210.211)" fill="#fff"/></g><g transform="translate(24.333 29.481)"><path d="M54.389,212.15c-.172,2.195-1,3.92-1.844,3.854s-1.393-1.9-1.22-4.094,1-3.92,1.844-3.854S54.561,209.955,54.389,212.15Z" transform="translate(-51.292 -208.054)" fill="#4a1c02"/><path d="M53.676,211.314c-.065.835-.416,1.488-.782,1.459s-.61-.729-.545-1.563.416-1.488.782-1.459S53.742,210.48,53.676,211.314Z" transform="translate(-51.773 -208.833)" fill="#fff"/></g><path d="M132.249,268.648a.5.5,0,0,1-.158-.975,14.641,14.641,0,0,0,9.615-14.439.5.5,0,0,1,1-.075,15.544,15.544,0,0,1-10.3,15.463A.5.5,0,0,1,132.249,268.648Z" transform="translate(-64.142 -199.307)" fill="#4a1c02"/><path d="M143.074,274.61a.5.5,0,0,1-.107-.988,10.587,10.587,0,0,0,7.42-6.22.5.5,0,0,1,.924.381,11.6,11.6,0,0,1-8.13,6.816A.5.5,0,0,1,143.074,274.61Z" transform="translate(-69.114 -205.918)" fill="#4a1c02"/><path d="M52.994,250.924a11.246,11.246,0,0,1-2.293-.234.5.5,0,1,1,.2-.979,10.6,10.6,0,0,0,8.608-2.018c.211-.165.418-.339.637-.523a5.825,5.825,0,0,1,3.572-1.792h0c2.139,0,3.509,2.028,4.463,3.8a.5.5,0,1,1-.88.475c-.823-1.523-1.973-3.271-3.584-3.271h0a4.959,4.959,0,0,0-2.93,1.558c-.216.181-.439.367-.662.542A11.621,11.621,0,0,1,52.994,250.924Z" transform="translate(-26.735 -195.945)" fill="#742e00"/><path d="M113.228,204.735a.5.5,0,0,1-.22-.949,4.148,4.148,0,0,0,2.1-3.18,22.817,22.817,0,0,0,.228-4.826c-.007-.318-.014-.619-.018-.918a16.305,16.305,0,0,0-1.843-6.581c-.309-.706-.629-1.436-.932-2.209a5.218,5.218,0,0,1,.116-3.658c.195-.325-.052-.655-.216-.822-.88-.9-3.641-1.541-7.306.557a8.488,8.488,0,0,0-3.611,5.1,10.986,10.986,0,0,0-.5,4,.5.5,0,1,1-.972.234,11.4,11.4,0,0,1,.518-4.518,9.457,9.457,0,0,1,4.074-5.681,10.484,10.484,0,0,1,5.24-1.537,4.686,4.686,0,0,1,3.276,1.148,1.639,1.639,0,0,1,.359,2.036,4.322,4.322,0,0,0-.043,2.779c.3.755.611,1.476.917,2.173a17.314,17.314,0,0,1,1.927,6.968c0,.294.011.593.018.909.075,3.312.168,7.433-2.885,8.927A.5.5,0,0,1,113.228,204.735Z" transform="translate(-49.552 -165.8)" fill="#4a1c02"/><path d="M114.958,205.3a7.312,7.312,0,0,0,3.377-6.6,16.056,16.056,0,0,0-2.853-7.556,7.975,7.975,0,0,1-1.393-3.079c-.143-1.1.21-2.2.115-3.3a5.005,5.005,0,0,0-5.4,4.334,8.9,8.9,0,0,0,.933,4.155,13.186,13.186,0,0,1,1.27,4.092,4.161,4.161,0,0,1-1.119,3.278c2.1,1.741,4.686,1.5,5.57,2.595a5.881,5.881,0,0,0-1.707.275A3.509,3.509,0,0,1,114.958,205.3Z" transform="translate(-53.363 -167.859)" fill="#fcce9d"/><path d="M135.334,214.918a.5.5,0,0,1-.485-.379,19.656,19.656,0,0,0-6.51-10.311.5.5,0,1,1,.636-.771,20.663,20.663,0,0,1,6.844,10.839.5.5,0,0,1-.485.622Z" transform="translate(-62.492 -176.639)" fill="#4a1c02"/><path d="M172.62,163.117a.5.5,0,0,1-.26-.073,30.182,30.182,0,0,0-14.676-4.377.5.5,0,1,1,.033-1,31.184,31.184,0,0,1,15.163,4.523.5.5,0,0,1-.261.927Z" transform="translate(-75.832 -155.66)" fill="#4a1c02"/><path d="M216.848,163.838c-20.751-6.177-59.147-7.805-59.147-7.805,16.016-2.4,37.273-3.4,65.423-1.529.549.037,1.1.092,1.64.167.006,0,.012.006.018.006C232.457,157.877,237.593,170.015,216.848,163.838Z" transform="translate(-75.832 -153.531)" fill="#ffa686" opacity="0.15"/><path d="M256.94,229.227a.5.5,0,0,1-.469-.674l4.881-13.169a.5.5,0,1,1,.938.348L257.409,228.9A.5.5,0,0,1,256.94,229.227Z" transform="translate(-121.412 -182.02)" fill="#4a1c02"/><path d="M69.975,192.919a.5.5,0,0,1-.306-.9,12.133,12.133,0,0,1,6.323-2.457.5.5,0,0,1,.084,1,11.122,11.122,0,0,0-5.8,2.252A.5.5,0,0,1,69.975,192.919Z" transform="translate(-35.54 -170.311)" fill="#4a1c02"/><path d="M342.037,188.441a15.585,15.585,0,0,1-6.828-3.98,12.079,12.079,0,0,1-1.648-2.17,9.126,9.126,0,0,0,1.075-.285c2.814-.955,5.084-5.62,1.444-7.225a3.519,3.519,0,0,0-3.966,1.166,5.391,5.391,0,0,0-.706,5.179,17.327,17.327,0,0,1-2.209-.189,20.212,20.212,0,0,1-8.429-3.417c-.487-.327-.917.4-.482.748,2.963,2.408,7.519,4.433,11.644,4.233a11.236,11.236,0,0,0,10,6.519A.3.3,0,0,0,342.037,188.441Zm-9.35-8.077a4.629,4.629,0,0,1-.179-2.426,2.22,2.22,0,0,1,.856-1.643,1.264,1.264,0,0,1,2.143.044c1.057.65,1.317,1.13.911,2.321a3.79,3.79,0,0,1-2.755,2.209,6.738,6.738,0,0,1-.736.152C332.837,180.8,332.755,180.585,332.687,180.364Z" transform="translate(-150.425 -163.181)" fill="#ffa5ad"/><g transform="translate(190.471 21.695)"><path d="M358.553,197.4c0,2.763,4.819,4.861,10.248,4.507,2.487-.162,4.463-2.8,4.7-3.671a2.449,2.449,0,0,1-2.823-.494,3.115,3.115,0,0,0,4.407-1.912,9.231,9.231,0,0,1-4.65.3c.759-.172.922-.6,1.427-1.2a7.064,7.064,0,0,1-4.625-.7,4.412,4.412,0,0,0-1.733-.577,3.216,3.216,0,0,0-1.073.234C362.528,194.558,358.553,196.4,358.553,197.4Z" transform="translate(-358.553 -193.655)" fill="#6a4044"/><path d="M365.014,197.535q-.881,0-1.756-.086a.5.5,0,0,1,.1-1,17.591,17.591,0,0,0,9.707-1.867.5.5,0,1,1,.46.888A18.634,18.634,0,0,1,365.014,197.535Z" transform="translate(-360.736 -194.287)" fill="#4a1c02"/><path d="M369.035,204.008a12.52,12.52,0,0,1-3.408-.469.5.5,0,1,1,.273-.962,11.624,11.624,0,0,0,7.025-.237.5.5,0,0,1,.337.942A12.58,12.58,0,0,1,369.035,204.008Z" transform="translate(-361.865 -197.86)" fill="#4a1c02"/></g></g></g></g></svg>