<svg xmlns="http://www.w3.org/2000/svg" width="387.032" height="174.816" viewBox="0 0 387.032 174.816">
  <g id="Grupo_83494" data-name="Grupo 83494" transform="translate(4281.032 -3168.01)">
    <g id="Grupo_82740" data-name="Grupo 82740" transform="translate(-5411.5 2291.312)">
      <path id="Trazado_120615" data-name="Trazado 120615" d="M1466.166,1184.582c0,5.412-52.111,9.8-116.393,9.8s-116.394-4.386-116.394-9.8,52.111-9.8,116.394-9.8S1466.166,1179.17,1466.166,1184.582Z" transform="translate(-53.666 -155.445)" fill="#b3c1bb"/>
      <g id="Grupo_82718" data-name="Grupo 82718" transform="translate(1192.79 981.408)">
        <path id="Trazado_120616" data-name="Trazado 120616" d="M1333.773,1184.94s2.28.815,3.048,2.281c0,0-3.307-.3-3.489-.2S1333.773,1184.94,1333.773,1184.94Z" transform="translate(-1298.562 -1142.15)" fill="#e0d0c7"/>
        <path id="Trazado_120617" data-name="Trazado 120617" d="M1301.13,1179.33c1.9.265,8.794,0,10.592,0s6.743,1.586,5.753,4.063-3.551,1.239-4.675,0-8.551-.793-8.995-.793S1301.13,1179.33,1301.13,1179.33Z" transform="translate(-1281.787 -1139.224)" fill="#bf8b54"/>
        <path id="Trazado_120618" data-name="Trazado 120618" d="M1284.876,1144.67s-.46,12.334.439,15.208,4.944,5.55,7.641,6.145,6.382,4.163,2.966,5.451-6.3-3.667-9.175-5.352-5.028-2.676-8.983-1.585-8,2.776-8.9.694-.639-3.539,2.7-3.766c5.592-.382,9.978.509,9.978-3.264s-2.067-14.08-2.067-14.08Z" transform="translate(-1264.729 -1120.863)" fill="#bf8b54"/>
        <path id="Trazado_120619" data-name="Trazado 120619" d="M1325.194,1196.89c.847-.435,2.888,1.423,3.657,2.888,0,0-4.247-1.464-4.43-1.368S1324.72,1197.134,1325.194,1196.89Z" transform="translate(-1293.911 -1148.348)" fill="#e0d0c7"/>
        <path id="Trazado_120620" data-name="Trazado 120620" d="M1265.14,1184.021c-.644-.7-3.2.331-4.433,1.438,0,0,4.491.1,4.629.256S1265.5,1184.408,1265.14,1184.021Z" transform="translate(-1260.707 -1141.551)" fill="#e0d0c7"/>
        <path id="Trazado_120621" data-name="Trazado 120621" d="M1283.931,1113.952s2.707,7.449,4.174,7.775,1.479-.734,2.5-.734a4.3,4.3,0,0,1,2.26,1.224s9.476-8.265,12.5-16.843,3.944-7.387,3.246-9.611S1282.816,1106.965,1283.931,1113.952Z" transform="translate(-1272.799 -1095.518)" fill="#243444"/>
      </g>
      <g id="Grupo_82719" data-name="Grupo 82719" transform="translate(1172.439 1007.618)">
        <path id="Trazado_120622" data-name="Trazado 120622" d="M1290.352,1191.11s2.28.815,3.048,2.28c0,0-3.307-.3-3.489-.205S1290.352,1191.11,1290.352,1191.11Z" transform="translate(-1255.567 -1171.577)" fill="#e0d0c7"/>
        <path id="Trazado_120623" data-name="Trazado 120623" d="M1257.71,1185.5c1.9.266,8.794,0,10.592,0s6.742,1.586,5.753,4.063-3.551,1.239-4.675,0-8.551-.792-8.995-.792S1257.71,1185.5,1257.71,1185.5Z" transform="translate(-1238.793 -1168.651)" fill="#f1af69"/>
        <path id="Trazado_120624" data-name="Trazado 120624" d="M1240.757,1150.84s-.461,12.334.438,15.208,4.944,5.551,7.641,6.145,6.382,4.163,2.966,5.451-6.3-3.667-9.175-5.353-5.028-2.676-8.983-1.585-8,2.775-8.9.693-2.877-4.361,2.7-3.766,9.978.509,9.978-3.265-2.067-14.08-2.067-14.08Z" transform="translate(-1221.036 -1150.29)" fill="#f5bf3b"/>
        <path id="Trazado_120625" data-name="Trazado 120625" d="M1281.774,1203.06c.847-.434,2.888,1.424,3.657,2.889,0,0-4.248-1.464-4.43-1.368S1281.3,1203.3,1281.774,1203.06Z" transform="translate(-1250.918 -1177.775)" fill="#e0d0c7"/>
        <path id="Trazado_120626" data-name="Trazado 120626" d="M1221.835,1190.47c-.847-.434-2.888,1.423-3.657,2.888,0,0,4.247-1.464,4.43-1.368S1222.309,1190.714,1221.835,1190.47Z" transform="translate(-1218.178 -1171.21)" fill="#e0d0c7"/>
      </g>
      <path id="Trazado_120627" data-name="Trazado 120627" d="M1249.659,894.448a12.863,12.863,0,0,1,7.663,9.78c1.126,7.352-5.41,14.057-5.41,24s.225,23.016.225,32.256-2.253,13.973-4.732,16.452-7.663,7.211-11.269,14.874-24.452,14.311-28.171,18.03-15.852,9.916-15.852,9.916-1.123-1.522-2.289-1.522c-.674,0-1.915,1.522-2.411,1.522-1.352,0-5.7-8.452-8.97-11.719,0,0-21.861-16.789-29.748-31.326s-5.521-24.9-7.662-33.128-9.241-12.4-9.241-17.579,2.929-3.944,0-10.029-.676-14.987,3.606-17.578,27.157,26.03,35.157,32.678,31.326,7.887,40.791-1.578S1232.418,886.668,1249.659,894.448Z" transform="translate(0 -8.648)" fill="#293b4c"/>
      <path id="Trazado_120628" data-name="Trazado 120628" d="M1250.855,1025.43l7.942,5.953s-3.265,30.818-29.6,32.83c-19.959,1.526-41.535-5.683-41.535-34.506C1187.661,1029.708,1235.763,1056.017,1250.855,1025.43Z" transform="translate(-29.826 -77.561)" fill="#e7e1db"/>
      <path id="Trazado_120629" data-name="Trazado 120629" d="M1253.924,1018.009s-2.874,12.17-23.326,20.959-41.073-6.085-45.468-16.9-.676-10.48,4.9-6.93-12.846-10.31-10.311-15.719,10.818,6.761,16.734,7.944-5.578-5.577-4.564-7.944,18.931-.507,33.129-3.211,22.649-1.183,20.114,5.916S1257.69,1011.118,1253.924,1018.009Z" transform="translate(-25.559 -61.665)" fill="#3d4d5c"/>
      <path id="Trazado_120630" data-name="Trazado 120630" d="M1369.409,895.778s2.254-4.282.789-8-3.868-4.4-4.62-3.645-2.479-1.538-4.958-2.215-1.84,1.237-2.817,2.215-2.254-1.99-4.958-1.2-3.07,6.927,1.088,5.68S1370.424,890.03,1369.409,895.778Z" transform="translate(-114.903 -2.648)" fill="#d44500"/>
      <path id="Trazado_120631" data-name="Trazado 120631" d="M1357.51,914.721a3.007,3.007,0,1,0,3.006-3.007A3.006,3.006,0,0,0,1357.51,914.721Z" transform="translate(-118.398 -18.26)" fill="#283038"/>
      <path id="Trazado_120632" data-name="Trazado 120632" d="M1362.61,916.342a1.394,1.394,0,1,0,1.388-1.52A1.459,1.459,0,0,0,1362.61,916.342Z" transform="translate(-121.057 -19.881)" fill="#fff"/>
      <path id="Trazado_120633" data-name="Trazado 120633" d="M1383.95,922.2a3.006,3.006,0,1,0,3.006-3.007A3.007,3.007,0,0,0,1383.95,922.2Z" transform="translate(-132.186 -22.159)" fill="#283038"/>
      <path id="Trazado_120634" data-name="Trazado 120634" d="M1389.06,923.818a1.394,1.394,0,1,0,1.388-1.52A1.459,1.459,0,0,0,1389.06,923.818Z" transform="translate(-134.851 -23.779)" fill="#fff"/>
      <path id="Trazado_120635" data-name="Trazado 120635" d="M1359.046,934.079s-5.109,2.533.121,10.074-4.522,4.45-4.353-2.52S1359.046,934.079,1359.046,934.079Z" transform="translate(-116.991 -29.923)" fill="#d44500"/>
      <path id="Trazado_120636" data-name="Trazado 120636" d="M1379.466,942.75s-3.041,1.3.976,7.093-4.356,4.063-4.226-1.291S1379.466,942.75,1379.466,942.75Z" transform="translate(-128.152 -34.445)" fill="#d44500"/>
      <path id="Trazado_120637" data-name="Trazado 120637" d="M1369.249,931.758a24.43,24.43,0,0,0,2.873,4.846c1.466,1.916-6.253,7.944-6.253,7.944s-1.07-4.789-2.761-7.1-2.874-4.113-1.577-4.4S1369.249,931.758,1369.249,931.758Z" transform="translate(-120.207 -28.712)" fill="#cb964e"/>
      <path id="Trazado_120638" data-name="Trazado 120638" d="M1342.035,934.079l-1.7,7.731C1338.642,937.574,1342.035,934.079,1342.035,934.079Z" transform="translate(-109.196 -29.923)" fill="#7f2a04" opacity="0.54"/>
      <g id="Grupo_82720" data-name="Grupo 82720" transform="translate(1223.327 908.305)" opacity="0.54">
        <path id="Trazado_120639" data-name="Trazado 120639" d="M1328.1,942.75a18.349,18.349,0,0,0-2.708,5.457c-2.8,8.9,2.07,8.359,1.9,6.128a15.682,15.682,0,0,1-.651-5.881A17.665,17.665,0,0,1,1328.1,942.75Z" transform="translate(-1324.522 -942.75)" fill="#7f2a04"/>
      </g>
      <g id="Grupo_82721" data-name="Grupo 82721" transform="translate(1232.875 919.829)" opacity="0.54">
        <path id="Trazado_120640" data-name="Trazado 120640" d="M1345.071,966.832c-2.094,6.757,1.835,14.614,4.074,12.885C1351.89,977.6,1344.071,976.769,1345.071,966.832Z" transform="translate(-1344.476 -966.832)" fill="#7f2a04"/>
      </g>
      <g id="Grupo_82722" data-name="Grupo 82722" transform="translate(1240.533 934.974)" opacity="0.54">
        <path id="Trazado_120641" data-name="Trazado 120641" d="M1366.38,998.481c-1.131,8.331-6.719,10.352-5.272,9.479a1.279,1.279,0,0,0,1.322,2.191c2.25-1.358,3.663-5.653,3.926-8.689A18.206,18.206,0,0,0,1366.38,998.481Z" transform="translate(-1360.48 -998.481)" fill="#7f2a04"/>
      </g>
      <g id="Grupo_82723" data-name="Grupo 82723" transform="translate(1165.129 958.949)">
        <path id="Trazado_120642" data-name="Trazado 120642" d="M1258.8,1049.338c-25.632,22.657-53.271-.814-51.77-.186-2.662-2.057-5.779,1.968-3.112,4.028.317.245,1.421.888,1.89,1.15C1224.472,1065.081,1243.838,1065.081,1258.8,1049.338Z" transform="translate(-1202.901 -1048.583)" fill="#515e6c"/>
      </g>
      <g id="Grupo_82724" data-name="Grupo 82724" transform="translate(1181.767 953.827)">
        <path id="Trazado_120643" data-name="Trazado 120643" d="M1268.038,1037.88a26.327,26.327,0,0,1-6.651,2.328c-15.487,3.274-21.761-5.617-23.57-.47a2.559,2.559,0,0,0,1.992,3.372c8.141,1.362,14.349,1.412,21.961-1.69A27.275,27.275,0,0,0,1268.038,1037.88Z" transform="translate(-1237.672 -1037.88)" fill="#515e6c"/>
      </g>
      <g id="Grupo_82727" data-name="Grupo 82727" transform="translate(1135.407 897.908)" opacity="0.54">
        <g id="Grupo_82725" data-name="Grupo 82725" transform="translate(0 9.214)">
          <path id="Trazado_120644" data-name="Trazado 120644" d="M1159.3,952.562a29.563,29.563,0,0,0-3.762-4.225,39.877,39.877,0,0,0-4.391-3.587,33.3,33.3,0,0,0-4.934-2.829,20.854,20.854,0,0,0-5.428-1.645c1.721.789,3.371,1.608,4.976,2.528,1.585.949,3.149,1.924,4.66,2.989C1153.461,947.906,1156.351,950.213,1159.3,952.562Z" transform="translate(-1140.789 -940.276)" fill="#7f2a04"/>
        </g>
        <g id="Grupo_82726" data-name="Grupo 82726" transform="translate(0.632 0)">
          <path id="Trazado_120645" data-name="Trazado 120645" d="M1142.11,921.021a50.368,50.368,0,0,1,6.053,3.5,31.906,31.906,0,0,1,2.75,2.081c.906.728,1.72,1.552,2.634,2.358a11.1,11.1,0,0,0-1.938-3.065,14.641,14.641,0,0,0-1.281-1.306,16.155,16.155,0,0,0-1.448-1.117,14.888,14.888,0,0,0-3.23-1.684A11.116,11.116,0,0,0,1142.11,921.021Z" transform="translate(-1142.11 -921.021)" fill="#7f2a04"/>
        </g>
      </g>
      <path id="Trazado_120646" data-name="Trazado 120646" d="M1369.3,931.942a.714.714,0,0,1-.059-.184s-6.423,1.014-7.719,1.3-.113,2.085,1.577,4.395,2.761,7.1,2.761,7.1a22.4,22.4,0,0,0,3.694-6.395A11.865,11.865,0,0,0,1369.3,931.942Z" transform="translate(-120.205 -28.712)" fill="#d6b081"/>
      <g id="Grupo_82728" data-name="Grupo 82728" transform="translate(1318.313 983.05)">
        <path id="Trazado_120647" data-name="Trazado 120647" d="M1526.371,1187.46s-2.375.473-3.349,1.811c0,0,3.316.185,3.482.307S1526.371,1187.46,1526.371,1187.46Z" transform="translate(-1523.022 -1145.105)" fill="#e0d0c7"/>
        <path id="Trazado_120648" data-name="Trazado 120648" d="M1545.326,1185.016c-1.917-.014-8.7-1.282-10.479-1.545s-6.9.585-6.284,3.18,3.332,1.744,4.624.682,8.575.463,9.014.528S1545.326,1185.016,1545.326,1185.016Z" transform="translate(-1525.885 -1143.001)" fill="#bf8b54"/>
        <path id="Trazado_120649" data-name="Trazado 120649" d="M1549.525,1152.81s-1.345,12.27-2.653,14.983-5.7,4.769-8.455,4.964-6.921,3.187-3.73,4.96,6.771-2.708,9.858-3.956,5.364-1.914,9.119-.258,7.509,3.912,8.7,1.984,3.483-3.894-2.118-4.119-9.946-.953-9.395-4.685,4.1-13.628,4.1-13.628Z" transform="translate(-1528.504 -1127.036)" fill="#bf8b54"/>
        <path id="Trazado_120650" data-name="Trazado 120650" d="M1531.989,1200.424c-.774-.553-3.065.986-4.039,2.324,0,0,4.416-.828,4.582-.708S1532.42,1200.735,1531.989,1200.424Z" transform="translate(-1525.592 -1151.805)" fill="#e0d0c7"/>
        <path id="Trazado_120651" data-name="Trazado 120651" d="M1593.347,1196.358c.9-.307,2.649,1.829,3.2,3.391,0,0-3.988-2.068-4.183-2S1592.844,1196.525,1593.347,1196.358Z" transform="translate(-1559.162 -1149.73)" fill="#e0d0c7"/>
        <path id="Trazado_120652" data-name="Trazado 120652" d="M1563.081,1120.722s-3.766,6.975-5.263,7.084-1.2-2.014-2.213-2.164-2.572,1.953-2.572,1.953-8.169-9.559-9.91-18.486-2.825-7.883-1.809-9.982S1565.2,1113.97,1563.081,1120.722Z" transform="translate(-1532.356 -1098.948)" fill="#58332e"/>
      </g>
      <g id="Grupo_82729" data-name="Grupo 82729" transform="translate(1300.163 1014.547)">
        <path id="Trazado_120653" data-name="Trazado 120653" d="M1488.441,1199.43s-2.374.473-3.348,1.811c0,0,3.316.186,3.481.307S1488.441,1199.43,1488.441,1199.43Z" transform="translate(-1485.093 -1182.844)" fill="#e0d0c7"/>
        <path id="Trazado_120654" data-name="Trazado 120654" d="M1507.4,1196.986c-1.917-.014-8.7-1.284-10.478-1.545s-6.9.585-6.284,3.18,3.332,1.744,4.624.682,8.575.463,9.014.528S1507.4,1196.986,1507.4,1196.986Z" transform="translate(-1487.957 -1180.741)" fill="#f1af69"/>
        <path id="Trazado_120655" data-name="Trazado 120655" d="M1511.6,1164.77s-1.344,12.27-2.652,14.982-5.7,4.77-8.456,4.965-6.921,3.187-3.73,4.96,6.771-2.708,9.857-3.957,5.365-1.914,9.119-.258,7.51,3.912,8.7,1.984,3.482-3.895-2.119-4.119-9.945-.952-9.4-4.685,4.1-13.628,4.1-13.628Z" transform="translate(-1490.575 -1164.77)" fill="#f5bf3b"/>
        <path id="Trazado_120656" data-name="Trazado 120656" d="M1494.059,1212.394c-.775-.553-3.065.987-4.038,2.325,0,0,4.416-.829,4.582-.708S1494.49,1212.7,1494.059,1212.394Z" transform="translate(-1487.663 -1189.545)" fill="#e0d0c7"/>
        <path id="Trazado_120657" data-name="Trazado 120657" d="M1555.418,1208.318c.9-.306,2.65,1.829,3.2,3.391,0,0-3.988-2.067-4.183-2S1554.915,1208.49,1555.418,1208.318Z" transform="translate(-1521.234 -1187.464)" fill="#e0d0c7"/>
      </g>
      <path id="Trazado_120658" data-name="Trazado 120658" d="M1433.725,893.687a12.861,12.861,0,0,0-9.007,8.558c-2.187,7.109,3.3,14.7,1.849,24.534s-3.58,22.736-4.929,31.878.191,14.152,2.283,16.966,6.528,8.252,8.978,16.359,22.1,17.725,25.239,21.946,14.237,12.123,14.237,12.123,1.333-1.341,2.487-1.171c.668.1,1.673,1.784,2.163,1.857,1.338.2,6.874-7.529,10.583-10.284,0,0,25.542-10.321,35.467-23.55s7.629-26.932,10.948-34.757,10.949-10.915,11.706-16.042-2.323-4.329,1.463-9.921,2.856-14.728-1-17.917-29.7,15.268-38.586,20.678-33.1,9.755-41.086-.991S1451.918,888.505,1433.725,893.687Z" transform="translate(-151.575 -8.586)" fill="#d75c20"/>
      <path id="Trazado_120659" data-name="Trazado 120659" d="M1478.2,1031.31l-8.725,4.731s-1.265,30.965,24.493,36.8c19.523,4.421,41.919.438,46.125-28.078C1540.092,1044.761,1488.67,1063.773,1478.2,1031.31Z" transform="translate(-176.78 -80.627)" fill="#e7e1db"/>
      <path id="Trazado_120660" data-name="Trazado 120660" d="M1469.623,1024.231s1.067,12.459,20.018,24.138,41.521-.027,47.447-10.088,2.2-10.269-3.839-7.571,14.212-8.326,12.494-14.046-11.688,5.11-17.714,5.418,6.332-4.7,5.674-7.193-18.654-3.264-32.306-8.01-22.234-4.475-20.762,2.918S1466.9,1016.862,1469.623,1024.231Z" transform="translate(-176.692 -66.231)" fill="#7f2a04"/>
      <path id="Trazado_120661" data-name="Trazado 120661" d="M1432.638,891.645s-3.761-6.986-1.77-10.451,6.554-3.756,7.188-2.9,2.389-1.265,4.94-1.571,2.737,2.707,3.56,3.817,3.733-1.808,6.293-.634.074,8.75-3.856,6.91S1432.475,885.812,1432.638,891.645Z" transform="translate(-156.349)" fill="#812f39"/>
      <g id="Grupo_82730" data-name="Grupo 82730" transform="translate(1285.049 893.742)">
        <path id="Trazado_120662" data-name="Trazado 120662" d="M1459.491,915.761a3.007,3.007,0,1,1-2.536-3.413A3.007,3.007,0,0,1,1459.491,915.761Z" transform="translate(-1453.508 -912.315)" fill="#283038"/>
        <path id="Trazado_120663" data-name="Trazado 120663" d="M1457.947,916.9a1.394,1.394,0,1,1-1.152-1.706A1.459,1.459,0,0,1,1457.947,916.9Z" transform="translate(-1454.381 -913.807)" fill="#fff"/>
      </g>
      <g id="Grupo_82731" data-name="Grupo 82731" transform="translate(1272.01 895.434)">
        <path id="Trazado_120664" data-name="Trazado 120664" d="M1432.241,919.3a3.007,3.007,0,1,1-2.536-3.413A3.006,3.006,0,0,1,1432.241,919.3Z" transform="translate(-1426.259 -915.852)" fill="#283038"/>
        <path id="Trazado_120665" data-name="Trazado 120665" d="M1430.687,920.434a1.394,1.394,0,1,1-1.151-1.706A1.458,1.458,0,0,1,1430.687,920.434Z" transform="translate(-1427.126 -917.344)" fill="#fff"/>
      </g>
      <path id="Trazado_120666" data-name="Trazado 120666" d="M1437.786,934.914s-5.11,2.534.12,10.073-4.522,4.45-4.352-2.52S1437.786,934.914,1437.786,934.914Z" transform="translate(-158.052 -30.358)" fill="#812f39"/>
      <path id="Trazado_120667" data-name="Trazado 120667" d="M1455.02,934.135s5.641,1.6,1.807,9.94,5.229,3.593,3.846-3.241S1455.02,934.135,1455.02,934.135Z" transform="translate(-169.247 -29.952)" fill="#812f39"/>
      <path id="Trazado_120668" data-name="Trazado 120668" d="M1439.3,930.1a24.372,24.372,0,0,1-3.549,4.375c-1.728,1.682,5.028,8.771,5.028,8.771s1.757-4.581,3.766-6.62,3.514-3.673,2.306-4.222C1445.592,931.83,1439.3,930.1,1439.3,930.1Z" transform="translate(-159.053 -27.848)" fill="#cb964e"/>
      <path id="Trazado_120669" data-name="Trazado 120669" d="M1476.64,937.337l.548,7.9C1479.482,941.289,1476.64,937.337,1476.64,937.337Z" transform="translate(-180.521 -31.622)" fill="#7f2a04" opacity="0.54"/>
      <g id="Grupo_82732" data-name="Grupo 82732" transform="translate(1300.451 910.686)" opacity="0.54">
        <path id="Trazado_120670" data-name="Trazado 120670" d="M1486.621,947.724a18.366,18.366,0,0,1,1.882,5.793c1.474,9.212-3.268,7.967-2.772,5.785a15.672,15.672,0,0,0,1.5-5.724A17.6,17.6,0,0,0,1486.621,947.724Z" transform="translate(-1485.695 -947.724)" fill="#7f2a04"/>
      </g>
      <g id="Grupo_82733" data-name="Grupo 82733" transform="translate(1286.837 921.128)" opacity="0.54">
        <path id="Trazado_120671" data-name="Trazado 120671" d="M1463.611,969.547c1.086,6.99-3.947,14.189-5.91,12.153C1455.294,979.2,1463.152,979.524,1463.611,969.547Z" transform="translate(-1457.244 -969.547)" fill="#7f2a04"/>
      </g>
      <g id="Grupo_82734" data-name="Grupo 82734" transform="translate(1277.733 934.22)" opacity="0.54">
        <path id="Trazado_120672" data-name="Trazado 120672" d="M1438.654,996.905c-.1,8.406,5.137,11.221,3.833,10.147a1.279,1.279,0,0,1-1.627,1.975c-2.028-1.672-2.8-6.128-2.617-9.169A18.192,18.192,0,0,1,1438.654,996.905Z" transform="translate(-1438.218 -996.905)" fill="#7f2a04"/>
      </g>
      <g id="Grupo_82735" data-name="Grupo 82735" transform="translate(1299.693 962.388)">
        <path id="Trazado_120673" data-name="Trazado 120673" d="M1484.11,1055.77c22.052,26.152,52.82,6.965,51.243,7.368,2.934-1.646,5.43,2.79,2.491,4.439-.349.2-1.534.671-2.037.862C1515.779,1076.356,1496.619,1073.528,1484.11,1055.77Z" transform="translate(-1484.11 -1055.77)" fill="#463234"/>
      </g>
      <g id="Grupo_82736" data-name="Grupo 82736" transform="translate(1309.354 957.871)">
        <path id="Trazado_120674" data-name="Trazado 120674" d="M1504.3,1046.33a26.367,26.367,0,0,0,6.239,3.274c14.844,5.5,22.348-2.383,23.386,2.974a2.558,2.558,0,0,1-2.463,3.045c-8.253.159-14.4-.7-21.479-4.875A26.781,26.781,0,0,1,1504.3,1046.33Z" transform="translate(-1504.3 -1046.33)" fill="#463234"/>
      </g>
      <g id="Grupo_82739" data-name="Grupo 82739" transform="translate(1371.964 913.599)" opacity="0.54">
        <g id="Grupo_82737" data-name="Grupo 82737" transform="translate(0 9.265)">
          <path id="Trazado_120675" data-name="Trazado 120675" d="M1635.14,982.625a29.6,29.6,0,0,1,4.337-3.631,40.089,40.089,0,0,1,4.868-2.908,33.285,33.285,0,0,1,5.293-2.079,20.84,20.84,0,0,1,5.611-.836c-1.818.529-3.571,1.1-5.292,1.774-1.707.708-3.4,1.444-5.046,2.277C1641.6,978.871,1638.4,980.732,1635.14,982.625Z" transform="translate(-1635.14 -973.172)" fill="#7f2a04"/>
        </g>
        <g id="Grupo_82738" data-name="Grupo 82738" transform="translate(8.351)">
          <path id="Trazado_120676" data-name="Trazado 120676" d="M1665.066,953.868a50.353,50.353,0,0,0-6.5,2.583,32.082,32.082,0,0,0-3.025,1.657c-1,.588-1.928,1.285-2.949,1.949a11.093,11.093,0,0,1,2.364-2.75,14.928,14.928,0,0,1,1.458-1.105,16.192,16.192,0,0,1,1.6-.894,14.885,14.885,0,0,1,3.441-1.195A11.153,11.153,0,0,1,1665.066,953.868Z" transform="translate(-1652.592 -953.811)" fill="#7f2a04"/>
        </g>
      </g>
      <path id="Trazado_120677" data-name="Trazado 120677" d="M1441.963,930.275a.664.664,0,0,0,.085-.174s7.064,1.26,8.3,1.728-1.049,2.759-3.059,4.8-3.766,6.62-3.766,6.62a22.4,22.4,0,0,1-2.722-6.865A11.835,11.835,0,0,1,1441.963,930.275Z" transform="translate(-161.798 -27.848)" fill="#d6b081"/>
    </g>
    <g id="Grupo_83397" data-name="Grupo 83397" transform="translate(-4037.282 3262.839)">
      <path id="Trazado_114004" data-name="Trazado 114004" d="M958.751,221.3c-6.638.834-8.482,7.078-7.721,12.928.653,5.028,4.036,9.875,3.725,15-.222,3.641-3.954,2.7-6.473,2.058-3.184-.811-6.486-1.955-9.818-1.7-2.54.193-5.111,1.55-5.891,4.145-.665,2.21.609,4.224,2.2,5.658,4.664,4.191,11.825,5.987,17.54,8.136,2.12.8,8.743,1.669,9.281,4.215.375,1.78-3.522,1.885-4.654,1.966-4.211.309-8.41-.241-12.619-.146-2.768.062-9.75.412-9.122,4.68.43,2.9,3.575,5.172,5.9,6.514a71.955,71.955,0,0,0,10.886,5.047,94.886,94.886,0,0,0,14.607,3.818,108.822,108.822,0,0,0,14.447,2.134c2.225.138,4.45.1,6.673.288a1.125,1.125,0,0,0,.807.945,74.4,74.4,0,0,0,13.025,3.085c3.48.445,7.276.387,10.209-1.8,3.332-2.478,5.273-6.656,7.615-9.983,2.155-3.065,4.777-5.959,6.327-9.4,1.591-3.532,3.153-9.645-1.093-12.02-5.4-3.015-11.707,2.447-17.036,3.007-1.3.136-3.512.017-4.061-1.492-.373-1.031.4-2.235.934-3.061a34.57,34.57,0,0,1,6.093-6.5c3.758-3.411,8.293-7.2,5.983-12.9-2.628-6.479-11.2-6.813-16.271-3.172a18.732,18.732,0,0,0-5.963,8.233,31,31,0,0,0-1.4,4.166c-.638,2.406-2.212,3.573-4.617,2.023-3.674-2.367-4.9-7.926-6.321-11.726a68.2,68.2,0,0,0-5.817-12.582C972.233,226.669,966.855,220.276,958.751,221.3Z" transform="translate(-932.391 -221.188)" fill="#add031"/>
      <g id="Grupo_80421" data-name="Grupo 80421" transform="translate(25.639 10.58)">
        <path id="Trazado_114005" data-name="Trazado 114005" d="M945.58,227.368a49,49,0,0,0,2.534,11.326,82.084,82.084,0,0,0,4.65,9.991A119.9,119.9,0,0,0,965.253,267.4a124.009,124.009,0,0,0,16.054,16.2q4.1,3.472,8.443,6.658c3.015,2.208,6.389,4.936,10.1,5.763.488.109.933-.512.517-.889-2.633-2.381-6.029-3.97-8.929-6.02-3.032-2.145-5.977-4.437-8.828-6.817A111.559,111.559,0,0,1,967.57,266.87a120.821,120.821,0,0,1-12.125-18.2c-3.6-6.588-7-14.072-8.373-21.5-.152-.831-1.6-.65-1.492.2Z" transform="translate(-945.574 -226.627)" fill="#4f9638"/>
      </g>
      <g id="Grupo_80422" data-name="Grupo 80422" transform="translate(70.615 49.071)">
        <path id="Trazado_114006" data-name="Trazado 114006" d="M969.787,266.636c2.147-3.343,4.172-6.767,6.358-10.085,1.068-1.62,2.172-3.215,3.351-4.755,1.239-1.62,2.676-3.139,3.764-4.866.171-.27-.181-.657-.457-.457a20.573,20.573,0,0,0-3.985,4.24c-1.237,1.6-2.4,3.264-3.513,4.954-2.248,3.413-4.316,6.942-6.514,10.386-.4.63.6,1.208,1,.584Z" transform="translate(-968.698 -246.418)" fill="#4f9638"/>
      </g>
      <g id="Grupo_80423" data-name="Grupo 80423" transform="translate(38.153 7.935)">
        <path id="Trazado_114007" data-name="Trazado 114007" d="M957.279,258.6c1.947-5.281,1.54-11.285.6-16.729a68.391,68.391,0,0,0-2.2-9.056c-.76-2.408-1.535-5.366-3.077-7.406-.2-.268-.694-.13-.583.247.7,2.363,1.926,4.594,2.7,6.953a68.945,68.945,0,0,1,2.246,8.758c1.031,5.5,1.836,11.734.072,17.168-.048.15.181.208.235.064Z" transform="translate(-952.008 -225.267)" fill="#4f9638"/>
      </g>
      <g id="Grupo_80424" data-name="Grupo 80424" transform="translate(2.34 34.459)">
        <path id="Trazado_114008" data-name="Trazado 114008" d="M968.928,245.219c-3.167-.294-6.27-.4-9.427-.844-3.013-.418-6.057-.578-9.063-1.048a80.493,80.493,0,0,1-9.1-1.91c-2.482-.691-4.829-2.371-7.42-2.511a.338.338,0,0,0-.169.624c4.977,3.174,11.257,4.306,17.013,5.094,2.849.389,5.722.619,8.585.881,3.209.294,6.374.054,9.581.231.335.018.327-.486,0-.517Z" transform="translate(-933.594 -238.905)" fill="#4f9638"/>
      </g>
      <g id="Grupo_80425" data-name="Grupo 80425" transform="translate(8.228 57.257)">
        <path id="Trazado_114009" data-name="Trazado 114009" d="M936.856,251.507c6.706,3.188,14.074,4.46,21.43,5.2a80.611,80.611,0,0,0,11.911.142c1.928-.093,3.855-.216,5.782-.3,1.729-.078,3.67.233,5.222-.6a.491.491,0,0,0,0-.84c-1.373-.7-2.884-.418-4.4-.358-1.927.078-3.855.185-5.782.268a94.485,94.485,0,0,1-11.569-.086,98.674,98.674,0,0,1-22.235-4.285c-.5-.16-.852.628-.364.86Z" transform="translate(-936.622 -250.626)" fill="#4f9638"/>
      </g>
      <g id="Grupo_80426" data-name="Grupo 80426" transform="translate(55.144 22.437)">
        <path id="Trazado_114010" data-name="Trazado 114010" d="M961.2,266.067c1.432-3.487,2.917-6.9,4.652-10.248a61.149,61.149,0,0,1,6.016-9.089,45.444,45.444,0,0,1,7.7-7.434c1.27-1.035,2.433-2.192,3.721-3.205,1.153-.906,2.781-1.515,3.781-2.548a.475.475,0,0,0-.208-.788c-2.653-.416-5.543,3.367-7.3,4.909-1.358,1.194-2.855,2.206-4.164,3.46-1.461,1.4-2.729,2.974-4.106,4.454a37.543,37.543,0,0,0-6.453,9.33,97.832,97.832,0,0,0-4.081,11.038c-.1.282.331.385.44.121Z" transform="translate(-960.744 -232.724)" fill="#4f9638"/>
      </g>
    </g>
    <g id="Grupo_83398" data-name="Grupo 83398" transform="translate(-3894 3246.236) rotate(90)">
      <path id="Trazado_113961" data-name="Trazado 113961" d="M1111.411,143.131a.639.639,0,0,0-.428.562.444.444,0,0,0,.094.281c.428.562.856,1.124,1.311,1.672a92.818,92.818,0,0,0,19.543,18.821c4.735,3.331,9.337,7.023,14.206,10.233-2.461-1.15-4.922-2.314-7.4-3.4a141.426,141.426,0,0,0-16.882-6.595c-5.792-1.726-11.812-3.023-17.724-4.334-5.833-1.271-11.772-2.261-17.764-1.9a.317.317,0,0,0-.107.027.473.473,0,0,0-.307.709c0,.013.013.013.013.027h.013c2.569,3.572,6.581,5.819,10.287,8.026,4.682,2.769,9.243,5.725,14.046,8.28a66.9,66.9,0,0,0,14.928,5.953c5.123,1.3,10.086,3.077,15.129,4.642-5.792-.134-11.557-.816-17.363-.508-11.6.615-23.088,1.7-34.592,3.277a128.525,128.525,0,0,1-19.878,1.619.431.431,0,0,0-.455.348.492.492,0,0,0,.321.615c.147.053.308.094.455.147,11.183,3.625,22.66,6.729,34.378,7.866a136.883,136.883,0,0,0,30.86-.655c-4.334,1.124-8.628,2.341-12.882,3.719-11.464,3.692-22.3,8.628-33.161,13.778-6.033,2.863-11.477,6.769-17.109,10.327a.4.4,0,0,0-.174.227.409.409,0,0,0,.28.508c8.039,2.274,26.634,1.592,32.4.883,5.739-.722,11.4-2.221,17.055-3.344a85,85,0,0,0,16.28-5.257c3.3-1.391,6.381-3.224,9.524-4.923-.468.308-.95.629-1.4.963a57.855,57.855,0,0,0-7.264,6.876,83.153,83.153,0,0,0-6.9,7.33c-1.739,2.261-3.17,4.735-4.856,7.036a.013.013,0,0,1-.013.013c-.468.669-.963,1.3-1.5,1.926a.323.323,0,0,0-.08.2.342.342,0,0,0,.428.4c7.023-1.846,13.029-6.876,19.222-10.461,6.02-3.465,12.12-7.277,15.945-13.243a.309.309,0,0,0,.027-.214c.816-1.525,1.739-3.01,2.608-4.508,1.458-2.528,1.07-5.779.95-8.6-.08-2.274-.24-4.561-.16-6.835.08-2.194.455-4.361.709-6.528.214-1.9.254-3.786.361-5.7.08-1.712.334-3.424.254-5.15-.134-2.916-1.739-4.441-3.96-6.14-3.09-2.354-6.113-4.776-9.19-7.157a169.928,169.928,0,0,0-22.366-14.42c-3.063-1.7-5.886-3.8-8.976-5.458C1117.551,143.706,1114.407,142.261,1111.411,143.131Zm35.676,52.785a43.149,43.149,0,0,1,5.137-1.177C1150.524,195.193,1148.812,195.567,1147.086,195.915Z" transform="translate(-1068.063 -142.867)" fill="#36753c"/>
      <g id="Grupo_80383" data-name="Grupo 80383" transform="translate(2.691 55.114)">
        <path id="Trazado_113962" data-name="Trazado 113962" d="M1150.875,184.437c-1.137,1.913-3.344,3.1-5.284,4.067-2.18,1.057-4.468,1.873-6.715,2.782-5.151,2.1-10.086,4.655-15.263,6.7-5.618,2.221-11.33,4.174-17.109,5.913-11.972,3.625-23.837,7.277-36.131,9.591a.409.409,0,0,1-.281-.508c6.581-1.445,13.069-3.384,19.516-5.311,11.491-3.411,23.088-6.675,34.271-11.063,4.963-1.953,9.738-4.4,14.755-6.207,4.388-1.565,8.293-3.21,11.838-6.274C1150.687,183.956,1151.022,184.183,1150.875,184.437Z" transform="translate(-1070.074 -184.068)" fill="#5e9163"/>
      </g>
      <g id="Grupo_80384" data-name="Grupo 80384" transform="translate(0 47.249)">
        <path id="Trazado_113963" data-name="Trazado 113963" d="M1155.487,178.263c.294.027.4.495.067.562a100.077,100.077,0,0,1-10.22.977c-3.384.254-6.769.522-10.166.655-12.333.468-24.707.495-37.067.4-6.153-.04-12.293-.214-18.446-.482-3.6-.161-7.21-.254-10.8-.669-.147-.053-.307-.094-.455-.147a.492.492,0,0,1-.321-.615c4.977.482,10.073.241,15.036.495,12,.629,23.971.843,35.983.615,6.126-.107,12.253-.268,18.367-.749,2.943-.227,5.9-.468,8.842-.7A61.942,61.942,0,0,1,1155.487,178.263Z" transform="translate(-1068.063 -178.189)" fill="#5e9163"/>
      </g>
      <g id="Grupo_80385" data-name="Grupo 80385" transform="translate(17.813 15.633)">
        <path id="Trazado_113964" data-name="Trazado 113964" d="M1081.765,154.554c4.321,1.391,8.655,2.7,12.962,4.147,6.047,2.033,12.133,3.919,18.152,6.033,11.932,4.16,23.851,8.748,34.913,14.928a.255.255,0,0,1-.254.441c-11.464-6.033-23.583-10.461-35.823-14.621q-8.909-3.03-17.778-6.153c-3.05-1.07-6.1-2.113-9.19-3.05-1.083-.334-2.181-.655-3.264-.99h-.013c0-.013-.014-.013-.014-.027A.473.473,0,0,1,1081.765,154.554Z" transform="translate(-1081.379 -154.554)" fill="#5e9163"/>
      </g>
      <g id="Grupo_80386" data-name="Grupo 80386" transform="translate(42.92 0.825)">
        <path id="Trazado_113965" data-name="Trazado 113965" d="M1100.148,143.484c.776.4,1.552.843,2.314,1.244q3.09,1.625,6.113,3.344a112.212,112.212,0,0,1,11.812,7.678c7.531,5.618,14.286,12.159,21.389,18.286.241.214-.107.548-.348.348-7.3-6.073-14.38-12.494-22.072-18.1a121.89,121.89,0,0,0-11.584-7.451c-2.006-1.15-4.053-2.261-6.113-3.344-.04-.013-.067-.04-.107-.054-.455-.548-.883-1.11-1.311-1.672A.444.444,0,0,1,1100.148,143.484Z" transform="translate(-1100.148 -143.484)" fill="#5e9163"/>
      </g>
      <g id="Grupo_80387" data-name="Grupo 80387" transform="translate(56.23 69.432)">
        <path id="Trazado_113966" data-name="Trazado 113966" d="M1143.219,195.243a20.084,20.084,0,0,1-4.067,4.254c-1.5,1.364-3.023,2.689-4.575,4q-4.475,3.732-9.163,7.2c-5.043,3.705-10.166,7.3-15.316,10.889a.321.321,0,0,1,.08-.2c.535-.629,1.03-1.257,1.5-1.926a.013.013,0,0,0,.013-.013c4.254-3.063,8.534-6.113,12.708-9.3,3.251-2.488,6.474-5.016,9.6-7.651q2.328-1.966,4.561-4.013a27.418,27.418,0,0,1,4.227-3.665A.315.315,0,0,1,1143.219,195.243Z" transform="translate(-1110.098 -194.772)" fill="#5e9163"/>
      </g>
    </g>
  </g>
</svg>
