<svg xmlns="http://www.w3.org/2000/svg" width="32.604" height="41.545" viewBox="0 0 32.604 41.545">
  <g id="Grupo_84447" data-name="Grupo 84447" transform="translate(12843.271 13042)">
    <g id="Grupo_84440" data-name="Grupo 84440" transform="translate(-12893.813 -13224.404)">
      <g id="Grupo_80369" data-name="Grupo 80369" transform="translate(50.541 182.404)">
        <g id="Grupo_80366" data-name="Grupo 80366" transform="translate(0.938)">
          <path id="Trazado_113924" data-name="Trazado 113924" d="M72.437,201.408a15.828,15.828,0,0,0-12.475,25.07h0l.154.21.022.03,11.211,15.248a2.407,2.407,0,0,0,3.936-.082l10.133-15.065a17.148,17.148,0,0,0,3.233-9.585A15.833,15.833,0,0,0,72.437,201.408Zm.377,27.342a11.9,11.9,0,1,1,11.9-11.9A11.9,11.9,0,0,1,72.813,228.751Z" transform="translate(-56.98 -201.404)" fill="#ff725e"/>
        </g>
        <g id="Grupo_80367" data-name="Grupo 80367" transform="translate(0.938)" opacity="0.3">
          <path id="Trazado_113925" data-name="Trazado 113925" d="M72.437,201.408a15.828,15.828,0,0,0-12.475,25.07h0l.154.21.022.03,11.211,15.248a2.407,2.407,0,0,0,3.936-.082l10.133-15.065a17.148,17.148,0,0,0,3.233-9.585A15.833,15.833,0,0,0,72.437,201.408Zm.377,27.342a11.9,11.9,0,1,1,11.9-11.9A11.9,11.9,0,0,1,72.813,228.751Z" transform="translate(-56.98 -201.404)"/>
        </g>
        <g id="Grupo_80368" data-name="Grupo 80368">
          <path id="Trazado_113926" data-name="Trazado 113926" d="M71.171,201.408A15.828,15.828,0,0,0,58.7,226.479h0l.154.21.022.03,11.211,15.248a2.407,2.407,0,0,0,3.936-.082l10.133-15.065a17.148,17.148,0,0,0,3.233-9.585A15.833,15.833,0,0,0,71.171,201.408Zm.377,25.2a9.015,9.015,0,1,1,9.014-9.015A9.015,9.015,0,0,1,71.547,226.6Z" transform="translate(-55.714 -201.404)" fill="#ffa686"/>
        </g>
      </g>
    </g>
  </g>
</svg>
