<svg xmlns="http://www.w3.org/2000/svg" width="143.282" height="96.59" viewBox="0 0 143.282 96.59"><g transform="translate(5110.282 -3533.814)"><g transform="translate(-5110.282 3550.417)"><path d="M958.751,221.3c-6.638.834-8.482,7.078-7.721,12.928.653,5.028,4.036,9.875,3.725,15-.222,3.641-3.954,2.7-6.473,2.058-3.184-.811-6.486-1.955-9.818-1.7-2.54.193-5.111,1.55-5.891,4.145-.665,2.21.609,4.224,2.2,5.658,4.664,4.191,11.825,5.987,17.54,8.136,2.12.8,8.743,1.669,9.281,4.215.375,1.78-3.522,1.885-4.654,1.966-4.211.309-8.41-.241-12.619-.146-2.768.062-9.75.412-9.122,4.68.43,2.9,3.575,5.172,5.9,6.514a71.955,71.955,0,0,0,10.886,5.047,94.886,94.886,0,0,0,14.607,3.818,108.822,108.822,0,0,0,14.447,2.134c2.225.138,4.45.1,6.673.288a1.125,1.125,0,0,0,.807.945,74.4,74.4,0,0,0,13.025,3.085c3.48.445,7.276.387,10.209-1.8,3.332-2.478,5.273-6.656,7.615-9.983,2.155-3.065,4.777-5.959,6.327-9.4,1.591-3.532,3.153-9.645-1.093-12.02-5.4-3.015-11.707,2.447-17.036,3.007-1.3.136-3.512.017-4.061-1.492-.373-1.031.4-2.235.934-3.061a34.57,34.57,0,0,1,6.093-6.5c3.758-3.411,8.293-7.2,5.983-12.9-2.628-6.479-11.2-6.813-16.271-3.172a18.732,18.732,0,0,0-5.963,8.233,31,31,0,0,0-1.4,4.166c-.638,2.406-2.212,3.573-4.617,2.023-3.674-2.367-4.9-7.926-6.321-11.726a68.2,68.2,0,0,0-5.817-12.582C972.233,226.669,966.855,220.276,958.751,221.3Z" transform="translate(-932.391 -221.188)" fill="#add031"/><g transform="translate(25.639 10.58)"><path d="M945.58,227.368a49,49,0,0,0,2.534,11.326,82.084,82.084,0,0,0,4.65,9.991A119.9,119.9,0,0,0,965.253,267.4a124.009,124.009,0,0,0,16.054,16.2q4.1,3.472,8.443,6.658c3.015,2.208,6.389,4.936,10.1,5.763.488.109.933-.512.517-.889-2.633-2.381-6.029-3.97-8.929-6.02-3.032-2.145-5.977-4.437-8.828-6.817A111.559,111.559,0,0,1,967.57,266.87a120.821,120.821,0,0,1-12.125-18.2c-3.6-6.588-7-14.072-8.373-21.5-.152-.831-1.6-.65-1.492.2Z" transform="translate(-945.574 -226.627)" fill="#4f9638"/></g><g transform="translate(70.615 49.071)"><path d="M969.787,266.636c2.147-3.343,4.172-6.767,6.358-10.085,1.068-1.62,2.172-3.215,3.351-4.755,1.239-1.62,2.676-3.139,3.764-4.866.171-.27-.181-.657-.457-.457a20.573,20.573,0,0,0-3.985,4.24c-1.237,1.6-2.4,3.264-3.513,4.954-2.248,3.413-4.316,6.942-6.514,10.386-.4.63.6,1.208,1,.584Z" transform="translate(-968.698 -246.418)" fill="#4f9638"/></g><g transform="translate(38.153 7.935)"><path d="M957.279,258.6c1.947-5.281,1.54-11.285.6-16.729a68.391,68.391,0,0,0-2.2-9.056c-.76-2.408-1.535-5.366-3.077-7.406-.2-.268-.694-.13-.583.247.7,2.363,1.926,4.594,2.7,6.953a68.945,68.945,0,0,1,2.246,8.758c1.031,5.5,1.836,11.734.072,17.168-.048.15.181.208.235.064Z" transform="translate(-952.008 -225.267)" fill="#4f9638"/></g><g transform="translate(2.34 34.459)"><path d="M968.928,245.219c-3.167-.294-6.27-.4-9.427-.844-3.013-.418-6.057-.578-9.063-1.048a80.493,80.493,0,0,1-9.1-1.91c-2.482-.691-4.829-2.371-7.42-2.511a.338.338,0,0,0-.169.624c4.977,3.174,11.257,4.306,17.013,5.094,2.849.389,5.722.619,8.585.881,3.209.294,6.374.054,9.581.231.335.018.327-.486,0-.517Z" transform="translate(-933.594 -238.905)" fill="#4f9638"/></g><g transform="translate(8.228 57.257)"><path d="M936.856,251.507c6.706,3.188,14.074,4.46,21.43,5.2a80.611,80.611,0,0,0,11.911.142c1.928-.093,3.855-.216,5.782-.3,1.729-.078,3.67.233,5.222-.6a.491.491,0,0,0,0-.84c-1.373-.7-2.884-.418-4.4-.358-1.927.078-3.855.185-5.782.268a94.485,94.485,0,0,1-11.569-.086,98.674,98.674,0,0,1-22.235-4.285c-.5-.16-.852.628-.364.86Z" transform="translate(-936.622 -250.626)" fill="#4f9638"/></g><g transform="translate(55.144 22.437)"><path d="M961.2,266.067c1.432-3.487,2.917-6.9,4.652-10.248a61.149,61.149,0,0,1,6.016-9.089,45.444,45.444,0,0,1,7.7-7.434c1.27-1.035,2.433-2.192,3.721-3.205,1.153-.906,2.781-1.515,3.781-2.548a.475.475,0,0,0-.208-.788c-2.653-.416-5.543,3.367-7.3,4.909-1.358,1.194-2.855,2.206-4.164,3.46-1.461,1.4-2.729,2.974-4.106,4.454a37.543,37.543,0,0,0-6.453,9.33,97.832,97.832,0,0,0-4.081,11.038c-.1.282.331.385.44.121Z" transform="translate(-960.744 -232.724)" fill="#4f9638"/></g></g><g transform="translate(-4967 3533.814) rotate(90)"><path d="M1111.411,143.131a.639.639,0,0,0-.428.562.444.444,0,0,0,.094.281c.428.562.856,1.124,1.311,1.672a92.818,92.818,0,0,0,19.543,18.821c4.735,3.331,9.337,7.023,14.206,10.233-2.461-1.15-4.922-2.314-7.4-3.4a141.426,141.426,0,0,0-16.882-6.595c-5.792-1.726-11.812-3.023-17.724-4.334-5.833-1.271-11.772-2.261-17.764-1.9a.317.317,0,0,0-.107.027.473.473,0,0,0-.307.709c0,.013.013.013.013.027h.013c2.569,3.572,6.581,5.819,10.287,8.026,4.682,2.769,9.243,5.725,14.046,8.28a66.9,66.9,0,0,0,14.928,5.953c5.123,1.3,10.086,3.077,15.129,4.642-5.792-.134-11.557-.816-17.363-.508-11.6.615-23.088,1.7-34.592,3.277a128.525,128.525,0,0,1-19.878,1.619.431.431,0,0,0-.455.348.492.492,0,0,0,.321.615c.147.053.308.094.455.147,11.183,3.625,22.66,6.729,34.378,7.866a136.883,136.883,0,0,0,30.86-.655c-4.334,1.124-8.628,2.341-12.882,3.719-11.464,3.692-22.3,8.628-33.161,13.778-6.033,2.863-11.477,6.769-17.109,10.327a.4.4,0,0,0-.174.227.409.409,0,0,0,.28.508c8.039,2.274,26.634,1.592,32.4.883,5.739-.722,11.4-2.221,17.055-3.344a85,85,0,0,0,16.28-5.257c3.3-1.391,6.381-3.224,9.524-4.923-.468.308-.95.629-1.4.963a57.855,57.855,0,0,0-7.264,6.876,83.153,83.153,0,0,0-6.9,7.33c-1.739,2.261-3.17,4.735-4.856,7.036a.013.013,0,0,1-.013.013c-.468.669-.963,1.3-1.5,1.926a.323.323,0,0,0-.08.2.342.342,0,0,0,.428.4c7.023-1.846,13.029-6.876,19.222-10.461,6.02-3.465,12.12-7.277,15.945-13.243a.309.309,0,0,0,.027-.214c.816-1.525,1.739-3.01,2.608-4.508,1.458-2.528,1.07-5.779.95-8.6-.08-2.274-.24-4.561-.16-6.835.08-2.194.455-4.361.709-6.528.214-1.9.254-3.786.361-5.7.08-1.712.334-3.424.254-5.15-.134-2.916-1.739-4.441-3.96-6.14-3.09-2.354-6.113-4.776-9.19-7.157a169.928,169.928,0,0,0-22.366-14.42c-3.063-1.7-5.886-3.8-8.976-5.458C1117.551,143.706,1114.407,142.261,1111.411,143.131Zm35.676,52.785a43.149,43.149,0,0,1,5.137-1.177C1150.524,195.193,1148.812,195.567,1147.086,195.915Z" transform="translate(-1068.063 -142.867)" fill="#36753c"/><g transform="translate(2.691 55.114)"><path d="M1150.875,184.437c-1.137,1.913-3.344,3.1-5.284,4.067-2.18,1.057-4.468,1.873-6.715,2.782-5.151,2.1-10.086,4.655-15.263,6.7-5.618,2.221-11.33,4.174-17.109,5.913-11.972,3.625-23.837,7.277-36.131,9.591a.409.409,0,0,1-.281-.508c6.581-1.445,13.069-3.384,19.516-5.311,11.491-3.411,23.088-6.675,34.271-11.063,4.963-1.953,9.738-4.4,14.755-6.207,4.388-1.565,8.293-3.21,11.838-6.274C1150.687,183.956,1151.022,184.183,1150.875,184.437Z" transform="translate(-1070.074 -184.068)" fill="#5e9163"/></g><g transform="translate(0 47.249)"><path d="M1155.487,178.263c.294.027.4.495.067.562a100.077,100.077,0,0,1-10.22.977c-3.384.254-6.769.522-10.166.655-12.333.468-24.707.495-37.067.4-6.153-.04-12.293-.214-18.446-.482-3.6-.161-7.21-.254-10.8-.669-.147-.053-.307-.094-.455-.147a.492.492,0,0,1-.321-.615c4.977.482,10.073.241,15.036.495,12,.629,23.971.843,35.983.615,6.126-.107,12.253-.268,18.367-.749,2.943-.227,5.9-.468,8.842-.7A61.942,61.942,0,0,1,1155.487,178.263Z" transform="translate(-1068.063 -178.189)" fill="#5e9163"/></g><g transform="translate(17.813 15.633)"><path d="M1081.765,154.554c4.321,1.391,8.655,2.7,12.962,4.147,6.047,2.033,12.133,3.919,18.152,6.033,11.932,4.16,23.851,8.748,34.913,14.928a.255.255,0,0,1-.254.441c-11.464-6.033-23.583-10.461-35.823-14.621q-8.909-3.03-17.778-6.153c-3.05-1.07-6.1-2.113-9.19-3.05-1.083-.334-2.181-.655-3.264-.99h-.013c0-.013-.014-.013-.014-.027A.473.473,0,0,1,1081.765,154.554Z" transform="translate(-1081.379 -154.554)" fill="#5e9163"/></g><g transform="translate(42.92 0.825)"><path d="M1100.148,143.484c.776.4,1.552.843,2.314,1.244q3.09,1.625,6.113,3.344a112.212,112.212,0,0,1,11.812,7.678c7.531,5.618,14.286,12.159,21.389,18.286.241.214-.107.548-.348.348-7.3-6.073-14.38-12.494-22.072-18.1a121.89,121.89,0,0,0-11.584-7.451c-2.006-1.15-4.053-2.261-6.113-3.344-.04-.013-.067-.04-.107-.054-.455-.548-.883-1.11-1.311-1.672A.444.444,0,0,1,1100.148,143.484Z" transform="translate(-1100.148 -143.484)" fill="#5e9163"/></g><g transform="translate(56.23 69.432)"><path d="M1143.219,195.243a20.084,20.084,0,0,1-4.067,4.254c-1.5,1.364-3.023,2.689-4.575,4q-4.475,3.732-9.163,7.2c-5.043,3.705-10.166,7.3-15.316,10.889a.321.321,0,0,1,.08-.2c.535-.629,1.03-1.257,1.5-1.926a.013.013,0,0,0,.013-.013c4.254-3.063,8.534-6.113,12.708-9.3,3.251-2.488,6.474-5.016,9.6-7.651q2.328-1.966,4.561-4.013a27.418,27.418,0,0,1,4.227-3.665A.315.315,0,0,1,1143.219,195.243Z" transform="translate(-1110.098 -194.772)" fill="#5e9163"/></g></g></g></svg>