<svg xmlns="http://www.w3.org/2000/svg" width="424" height="388" viewBox="0 0 424 388"><g transform="translate(1952.51 -6292)"><path d="M27,0H397a27,27,0,0,1,27,27V361a27,27,0,0,1-27,27H27A27,27,0,0,1,0,361V27A27,27,0,0,1,27,0Z" transform="translate(-1952.51 6292)" fill="#fff"/><path d="M356.464,67.28c-3.9,16.916-18.957,33.33-39.306,35.564-19.316,2.121-42.109-8.676-46.8-28.078-3.48-14.41,3.47-31.761,14.975-37.435,7.569-3.733,10.876.665,28.078,0,21.805-.841,27.918-8.35,35.564-3.743C358.378,39.256,358.943,56.53,356.464,67.28Z" transform="translate(-2114.896 6308.481)" fill="#ffd947"/><path d="M312.274,103.357a49.767,49.767,0,0,1-13.65-1.936,48.333,48.333,0,0,1-12.617-5.6,39.122,39.122,0,0,1-10.027-8.966,31.577,31.577,0,0,1-5.862-12.028,34.363,34.363,0,0,1-.752-11.212A38.952,38.952,0,0,1,272,52.68a34.294,34.294,0,0,1,5.464-9.293,24.091,24.091,0,0,1,7.764-6.28,13.749,13.749,0,0,1,6.363-1.547,39.2,39.2,0,0,1,5.49.557,81.2,81.2,0,0,0,12.806,1.034c1.141,0,2.325-.023,3.52-.07a89.926,89.926,0,0,0,21.953-3.612c3.313-.9,5.929-1.616,8.337-1.616a10.08,10.08,0,0,1,5.412,1.521c5.415,3.265,7.511,10.022,8.316,15.115a52.175,52.175,0,0,1-.715,18.847,47.773,47.773,0,0,1-13.556,23.412,46.45,46.45,0,0,1-11.706,8.2,43.128,43.128,0,0,1-14.26,4.144A45.182,45.182,0,0,1,312.274,103.357Zm-20.684-67.3a13.1,13.1,0,0,0-6.142,1.5c-5.43,2.678-10.163,8.259-12.985,15.31A36.92,36.92,0,0,0,270.6,74.707c4.417,18.284,24.765,28.15,41.669,28.15a44.676,44.676,0,0,0,4.856-.262c20.833-2.287,35.434-19.525,39.09-35.371a51.649,51.649,0,0,0,.709-18.657c-.788-4.989-2.829-11.6-8.08-14.765a9.6,9.6,0,0,0-5.154-1.449c-2.341,0-4.929.705-8.206,1.6a90.369,90.369,0,0,1-22.065,3.629c-1.2.046-2.392.07-3.539.07a81.639,81.639,0,0,1-12.878-1.039A38.87,38.87,0,0,0,291.589,36.06Z" transform="translate(-2114.896 6308.481)"/><path d="M840.458,62.59c-2.1,5.465-7.113,18.472-20.589,24.332-16.161,7.027-31.894-1.705-35.564-3.743-3.716-2.064-20.895-11.6-22.46-29.949-1.489-17.464,12.309-29.5,14.975-31.821,15.825-13.8,45.253-19.309,59.9-3.743S841.611,59.595,840.458,62.59Z" transform="translate(-2443.536 6324.4)" fill="#adce32"/><path d="M806.739,89.86a42.175,42.175,0,0,1-14.377-2.679,54.8,54.8,0,0,1-8.179-3.784,53.916,53.916,0,0,1-12.1-8.914,38.706,38.706,0,0,1-6.817-9.008,31.178,31.178,0,0,1-2.328-24.333,38.462,38.462,0,0,1,4.622-9.638,50.13,50.13,0,0,1,9.09-10.284,53.979,53.979,0,0,1,16.465-9.6A55.519,55.519,0,0,1,812.3,8.008a39.016,39.016,0,0,1,13.477,2.245,28.04,28.04,0,0,1,18.1,20.514,44.635,44.635,0,0,1,.877,14.091,68.561,68.561,0,0,1-4.063,17.822,56.342,56.342,0,0,1-6.057,12.069,34.31,34.31,0,0,1-14.665,12.4A32.969,32.969,0,0,1,806.739,89.86ZM812.3,8.508A55.947,55.947,0,0,0,776.984,21.6c-6.113,5.328-16.177,16.519-14.89,31.611,1,11.743,8.932,22.308,22.329,29.75,7.653,4.249,15.16,6.4,22.316,6.4a32.472,32.472,0,0,0,13.03-2.668C833.151,80.873,838.108,68,840.224,62.5c1.859-4.827,10.417-29.663-3.692-44.663C830.792,11.734,822.411,8.508,812.3,8.508Z" transform="translate(-2443.536 6324.4)"/><path d="M626.37,561.129c-.568,11.727-6.874,25.987-18.717,31.821-6.17,3.038-12.847,2.649-26.2,1.871-14.031-.818-21.044-1.227-28.078-5.614-1.529-.954-14.975-9.357-16.846-26.2-1.476-13.273,8.127-22.746,14.975-29.949,6.631-6.974,14.975-14.975,33.692-18.718C606.516,510.069,627.483,538.087,626.37,561.129Z" transform="translate(-2293.086 5986.833)" fill="#ffd947"/><path d="M594.5,595.624c-3.573,0-7.762-.244-13.066-.553-14.054-.819-21.108-1.23-28.2-5.652a38.724,38.724,0,0,1-8.35-7.19,36.658,36.658,0,0,1-5.381-8.049,33.884,33.884,0,0,1-3.231-11.149c-.636-5.721.688-11.227,4.049-16.833,2.888-4.818,6.767-8.885,10.189-12.472l.8-.844a63.78,63.78,0,0,1,12.361-10.609,61.955,61.955,0,0,1,21.463-8.181,22.67,22.67,0,0,1,4.44-.439,26.2,26.2,0,0,1,11.97,3.06,39.783,39.783,0,0,1,10.585,8.089,54.585,54.585,0,0,1,10.874,16.989,46.2,46.2,0,0,1,3.608,19.35,43.408,43.408,0,0,1-5.161,18.228,32.065,32.065,0,0,1-13.7,13.805C604.23,594.914,600.388,595.624,594.5,595.624Zm-4.918-81.471a22.176,22.176,0,0,0-4.342.43c-18.038,3.607-26.47,11.188-33.56,18.645l-.8.845c-6.91,7.244-15.509,16.26-14.1,28.9C538.5,578.509,550.015,586.819,553.5,589c6.98,4.354,13.991,4.763,27.96,5.577,5.3.308,9.479.552,13.037.552,5.8,0,9.582-.695,13.041-2.4,12-5.91,18.041-20.528,18.578-31.609.584-12.093-5.046-26.212-14.345-35.971C605.02,518.057,597.139,514.153,589.583,514.153Z" transform="translate(-2293.086 5986.833)"/><path d="M452.6,119.158l-.479-.142a45.662,45.662,0,0,0,0-26.064l.479-.143a46.162,46.162,0,0,1,0,26.349Z" transform="translate(-2236.999 6267.907)"/><path d="M468.523,86.334l-.454-.21A24.662,24.662,0,0,0,469.922,71.3a24.92,24.92,0,0,0-9.263-14.823l.3-.4a25.833,25.833,0,0,1,4.671,4.652,24.4,24.4,0,0,1,4.715,20.013A25.345,25.345,0,0,1,468.523,86.334Z" transform="translate(-2242.64 6292.341)"/><path d="M888.77,86.6a.375.375,0,0,1-.225-.675,17.955,17.955,0,0,0,6.362-9.017,19.209,19.209,0,0,0,.974-5.658,17.954,17.954,0,0,0-3.4-10.5,19.194,19.194,0,0,0-3.94-4.173.375.375,0,0,1,.45-.6,19.986,19.986,0,0,1,4.1,4.342A19.757,19.757,0,0,1,895.544,65a18.441,18.441,0,0,1,1.087,6.257,20,20,0,0,1-1.01,5.889,19.751,19.751,0,0,1-2.273,4.761A18.447,18.447,0,0,1,889,86.529.374.374,0,0,1,888.77,86.6Z" transform="translate(-2528.346 6292.341)"/><path d="M954.15,117.919a.375.375,0,0,1-.32-.57,30.386,30.386,0,0,0,0-31.565.375.375,0,1,1,.642-.388,31.464,31.464,0,0,1,2.858,6.137,31.075,31.075,0,0,1-2.858,26.205A.375.375,0,0,1,954.15,117.919Z" transform="translate(-2571.993 6272.773)"/><path d="M0,35.626a.375.375,0,0,1-.375-.375V0A.375.375,0,0,1,0-.375.375.375,0,0,1,.375,0V35.251A.375.375,0,0,1,0,35.626Z" transform="translate(-1705.089 6524.564)"/><path d="M708.58,625.272a.375.375,0,0,1-.313-.581,55.661,55.661,0,0,0,8.572-39.044.375.375,0,1,1,.742-.112,57.222,57.222,0,0,1,.628,9.549,56.326,56.326,0,0,1-9.315,30.02A.375.375,0,0,1,708.58,625.272Z" transform="translate(-2408.051 5938.974)"/><path d="M736.73,634.66a.375.375,0,0,1-.288-.614,36.406,36.406,0,0,0,7.409-14.821A37.055,37.055,0,0,0,742,596.992a.375.375,0,0,1,.694-.284,38.39,38.39,0,0,1,2.386,8.548,36.564,36.564,0,0,1-.5,14.141,37.159,37.159,0,0,1-7.562,15.128A.374.374,0,0,1,736.73,634.66Z" transform="translate(-2426.844 5931.457)"/><path d="M9.976-10.964V0H2.549V-31.992H14.766q5.691,0,9.031,2.9a9.609,9.609,0,0,1,3.34,7.625,9.576,9.576,0,0,1-3.34,7.614q-3.34,2.889-9.031,2.889Zm0-5.713h4.79a4.877,4.877,0,0,0,3.691-1.329,4.734,4.734,0,0,0,1.274-3.417,4.935,4.935,0,0,0-1.263-3.494,4.8,4.8,0,0,0-3.7-1.362H9.976Z" transform="translate(-1895.51 6387)" fill="#12263f"/><path d="M11.266-.016a6.378,6.378,0,0,1-.508-1.2,9.224,9.224,0,0,1-.32-1.406,6.46,6.46,0,0,1-1.7,2.148,4.092,4.092,0,0,1-2.633.8A5.854,5.854,0,0,1,1.977-1.039,4.83,4.83,0,0,1,.5-4.766,4.507,4.507,0,0,1,2.391-8.648a9.8,9.8,0,0,1,5.734-1.367H10.3v-1.2a2.408,2.408,0,0,0-.516-1.656A2.008,2.008,0,0,0,8.2-13.453a1.9,1.9,0,0,0-1.367.43,1.782,1.782,0,0,0-.445,1.336L1.266-11.7,1.234-11.8a4.41,4.41,0,0,1,1.93-3.867,8.647,8.647,0,0,1,5.383-1.555,7.874,7.874,0,0,1,5.086,1.563,5.4,5.4,0,0,1,1.945,4.469v6.375a13.005,13.005,0,0,0,.227,2.5A13.388,13.388,0,0,0,16.484,0ZM7.547-3.437a3.217,3.217,0,0,0,1.711-.453A2.594,2.594,0,0,0,10.3-4.969V-7.2H8.172a2.387,2.387,0,0,0-1.828.609,2.192,2.192,0,0,0-.562,1.547,1.5,1.5,0,0,0,.492,1.164A1.825,1.825,0,0,0,7.547-3.437ZM28.234-.016a6.378,6.378,0,0,1-.508-1.2,9.224,9.224,0,0,1-.32-1.406,6.46,6.46,0,0,1-1.7,2.148,4.092,4.092,0,0,1-2.633.8,5.854,5.854,0,0,1-4.133-1.367,4.83,4.83,0,0,1-1.477-3.727,4.507,4.507,0,0,1,1.891-3.883,9.8,9.8,0,0,1,5.734-1.367h2.172v-1.2a2.408,2.408,0,0,0-.516-1.656,2.008,2.008,0,0,0-1.578-.578,1.9,1.9,0,0,0-1.367.43,1.782,1.782,0,0,0-.445,1.336L18.234-11.7,18.2-11.8a4.41,4.41,0,0,1,1.93-3.867,8.647,8.647,0,0,1,5.383-1.555A7.874,7.874,0,0,1,30.6-15.656a5.4,5.4,0,0,1,1.945,4.469v6.375a13.005,13.005,0,0,0,.227,2.5A13.389,13.389,0,0,0,33.453,0ZM24.516-3.437a3.217,3.217,0,0,0,1.711-.453,2.594,2.594,0,0,0,1.039-1.078V-7.2H25.141a2.387,2.387,0,0,0-1.828.609,2.192,2.192,0,0,0-.562,1.547,1.5,1.5,0,0,0,.492,1.164A1.825,1.825,0,0,0,24.516-3.437Z" transform="translate(-1656.51 6444)" fill="#12263f"/><path d="M21.205-12.59H9.754V0H2.492V-31.281H23.4V-25.7H9.754v7.52H21.205ZM42.582,0H35.32V-25.072H29.025v-5.543l13.557-1.117Z" transform="translate(-1845.51 6554)" fill="#12263f"/><path d="M14.576-4.7H7.388L5.993,0H.083L7.969-24.172h3v.017l.017-.017h3L21.9,0h-5.91ZM8.683-9.015h4.6l-2.258-7.5h-.1Zm24.985,9a6.777,6.777,0,0,1-.54-1.278,9.8,9.8,0,0,1-.34-1.494,6.864,6.864,0,0,1-1.8,2.283,4.348,4.348,0,0,1-2.8.855A6.22,6.22,0,0,1,23.8-1.1a5.132,5.132,0,0,1-1.569-3.959,4.789,4.789,0,0,1,2.009-4.125q2.009-1.453,6.093-1.453h2.308V-11.92a2.559,2.559,0,0,0-.548-1.76,2.134,2.134,0,0,0-1.677-.614,2.024,2.024,0,0,0-1.453.457,1.893,1.893,0,0,0-.473,1.419l-5.445-.017-.033-.1a4.686,4.686,0,0,1,2.05-4.109,9.188,9.188,0,0,1,5.719-1.652,8.366,8.366,0,0,1,5.4,1.66,5.737,5.737,0,0,1,2.067,4.748v6.773a13.818,13.818,0,0,0,.241,2.656A14.225,14.225,0,0,0,39.213,0ZM29.717-3.652a3.418,3.418,0,0,0,1.818-.481,2.756,2.756,0,0,0,1.1-1.146V-7.653H30.381a2.537,2.537,0,0,0-1.942.647,2.329,2.329,0,0,0-.6,1.644,1.589,1.589,0,0,0,.523,1.237A1.939,1.939,0,0,0,29.717-3.652Z" transform="translate(-1729.51 6625)" fill="#12263f"/><path d="M12.861-4.146H6.519L5.288,0H.073L7.031-21.328H9.683v.015l.015-.015h2.651L19.321,0H14.106Zm-5.2-3.809h4.058L9.727-14.575H9.639ZM32.007-4.146H25.664L24.434,0H19.219l6.958-21.328h2.651v.015l.015-.015h2.651L38.467,0H33.252Zm-5.2-3.809h4.058l-1.992-6.621h-.088Z" transform="translate(-1825.51 6443)" fill="#12263f"/><path d="M13.922-20.732l5.156-10.549h8.379L18.5-15.77,28.145,0H19.336L14.008-10.764,8.68,0H.3L9.5-15.77.537-31.281H8.852Z" transform="translate(-1736.51 6386)" fill="#12263f"/><path d="M-4819.142,3975.038h-3V3900h3Z" transform="translate(3097.65 2502.71)" fill="#12263f"/><path d="M-4815.729,3962.9l-1.239-1.5-18.689-22.675,2.315-1.908,17.45,21.172,16.585-23.075,2.437,1.751Z" transform="translate(3093.302 2519.661)" fill="#12263f"/></g></svg>