<svg xmlns="http://www.w3.org/2000/svg" xmlns:xlink="http://www.w3.org/1999/xlink" width="1044.879" height="825.068" viewBox="0 0 1044.879 825.068">
  <defs>
    <clipPath id="clip-path">
      <rect id="Rectángulo_35259" data-name="Rectángulo 35259" width="1034.758" height="825.068" fill="none"/>
    </clipPath>
    <clipPath id="clip-path-2">
      <rect id="Rectángulo_35260" data-name="Rectángulo 35260" width="947.306" height="563.735" transform="translate(0 0)" fill="#fff"/>
    </clipPath>
  </defs>
  <g id="Grupo_83570" data-name="Grupo 83570" transform="translate(6008.757 8481.534)">
    <g id="Grupo_81367" data-name="Grupo 81367" transform="translate(-5391.52 -7917.614)" opacity="0.08">
      <path id="Trazado_114427" data-name="Trazado 114427" d="M745.1,161.812a2.9,2.9,0,0,1-2.061-.87,2.971,2.971,0,0,1,0-4.171l50.47-50.894a2.912,2.912,0,0,1,4.136,0,2.971,2.971,0,0,1,0,4.171l-50.47,50.894a2.9,2.9,0,0,1-2.061.87Z" transform="translate(-742.185 -105.015)" fill="#d2e1f1"/>
    </g>
    <rect id="Rectángulo_35258" data-name="Rectángulo 35258" width="1030" height="800" transform="translate(-6008.757 -8479.301)" fill="#e8e8e8"/>
    <g id="Grupo_83527" data-name="Grupo 83527" transform="translate(-5998.636 -8481.534)" clip-path="url(#clip-path)">
      <path id="Trazado_124135" data-name="Trazado 124135" d="M61.29,527.41c-11.7-65.477,10.058-134.651,49.075-181.284,28.38-33.91,63.658-58.91,88.92-96.368,20.654-30.61,33.568-68.019,52.676-100.13,24.889-41.814,62.762-74.933,104.9-77,50.882-2.492,96.108,39.009,145.984,51.913,81.746,21.155,171.728-35.23,247.749,7.541,39.266,22.1,68.018,70.411,73.247,123.117,3.146,31.683-1.614,64.388,4.691,95.361,7.864,38.679,35.1,65.675,52.745,99.14,61.409,116.434-3.822,220.293-113.368,226.2S513.769,620.164,355.4,663.859C184.109,711.119,77.5,618.2,61.276,527.393Z" transform="translate(22.07 47.151)" fill="#505e6f"/>
    </g>
    <g id="Grupo_83528" data-name="Grupo 83528" transform="translate(-5804.076 -8171.824)" opacity="0.08">
      <path id="Trazado_114423" data-name="Trazado 114423" d="M137.921,117.972a2.841,2.841,0,0,1-2.061-.87,2.971,2.971,0,0,1,0-4.171l50.47-50.894a2.912,2.912,0,0,1,4.136,0,2.971,2.971,0,0,1,0,4.171L140,117.1a2.9,2.9,0,0,1-2.061.87Z" transform="translate(-135.005 -61.175)" fill="#727997"/>
    </g>
    <g id="Grupo_83529" data-name="Grupo 83529" transform="translate(-5934.658 -8300.141)" opacity="0.08">
      <path id="Trazado_114424" data-name="Trazado 114424" d="M48.581,30.912a2.841,2.841,0,0,1-2.061-.87,2.971,2.971,0,0,1,0-4.171L96.99-25.023a2.912,2.912,0,0,1,4.136,0,2.971,2.971,0,0,1,0,4.171L50.656,30.042a2.9,2.9,0,0,1-2.061.87Z" transform="translate(-45.665 25.885)" fill="#d2e1f1"/>
    </g>
    <g id="Grupo_83530" data-name="Grupo 83530" transform="translate(-5946.015 -7763.508)" opacity="0.08">
      <path id="Trazado_114425" data-name="Trazado 114425" d="M40.811,395a2.9,2.9,0,0,1-2.061-.87,2.971,2.971,0,0,1,0-4.171l50.47-50.894a2.912,2.912,0,0,1,4.136,0,2.971,2.971,0,0,1,0,4.171l-50.47,50.894a2.9,2.9,0,0,1-2.061.87Z" transform="translate(-37.895 -338.205)" fill="#727997"/>
    </g>
    <g id="Grupo_83531" data-name="Grupo 83531" transform="translate(-5054.733 -7778.174)" opacity="0.08">
      <path id="Trazado_114426" data-name="Trazado 114426" d="M650.6,385.052a2.9,2.9,0,0,1-2.061-.87,2.971,2.971,0,0,1,0-4.171l50.47-50.894a2.912,2.912,0,0,1,4.136,0,2.971,2.971,0,0,1,0,4.171l-50.47,50.894a2.9,2.9,0,0,1-2.061.87Z" transform="translate(-647.685 -328.255)" fill="#727997"/>
    </g>
    <g id="Grupo_83532" data-name="Grupo 83532" transform="translate(-5302.128 -8022.236)" opacity="0.08">
      <path id="Trazado_114428" data-name="Trazado 114428" d="M481.341,219.462a2.9,2.9,0,0,1-2.061-.87,2.971,2.971,0,0,1,0-4.171l50.47-50.894a2.912,2.912,0,0,1,4.136,0,2.971,2.971,0,0,1,0,4.171l-50.47,50.894a2.9,2.9,0,0,1-2.061.87Z" transform="translate(-478.425 -162.665)" fill="#727997"/>
    </g>
    <g id="Grupo_83533" data-name="Grupo 83533" transform="translate(-5099.226 -8272.225)" opacity="0.08">
      <path id="Trazado_114429" data-name="Trazado 114429" d="M620.161,49.852a2.841,2.841,0,0,1-2.061-.87,2.971,2.971,0,0,1,0-4.171L668.57-6.083a2.912,2.912,0,0,1,4.136,0,2.971,2.971,0,0,1,0,4.171l-50.47,50.894a2.9,2.9,0,0,1-2.061.87Z" transform="translate(-617.245 6.945)" fill="#727997"/>
    </g>
    <g id="Grupo_83534" data-name="Grupo 83534" transform="translate(-5461.151 -8285.785)" opacity="0.08">
      <path id="Trazado_114430" data-name="Trazado 114430" d="M372.541,40.652a2.841,2.841,0,0,1-2.061-.87,2.971,2.971,0,0,1,0-4.171l50.47-50.894a2.912,2.912,0,0,1,4.136,0,2.971,2.971,0,0,1,0,4.171l-50.47,50.894a2.9,2.9,0,0,1-2.061.87Z" transform="translate(-369.625 16.145)" fill="#727997"/>
    </g>
    <g id="Grupo_83535" data-name="Grupo 83535" transform="translate(-5947.645 -8306.968)">
      <path id="Trazado_114457" data-name="Trazado 114457" d="M78.68,282.054l7.44,9.094L104.3,276.055l-9.208-7.635Z" transform="translate(-70.349 -91.213)" fill="#afafaf"/>
      <path id="Trazado_114458" data-name="Trazado 114458" d="M95.547,223.77c-7.016-5.822-10.889-13.471-10.889-21.534s3.859-15.712,10.889-21.534l11.386-9.448L97.74,163.62l-9.617,7.974C78.359,179.7,72.98,190.578,72.98,202.236s5.379,22.536,15.142,30.642l4.458,3.7h0l5.16,4.289,9.194-7.635-11.386-9.448Z" transform="translate(-72.98 -140.878)" fill="#afafaf"/>
      <path id="Trazado_114459" data-name="Trazado 114459" d="M121.818,157.3l-7.425-9.109L96.21,163.283l9.194,7.635Z" transform="translate(-62.257 -148.19)" fill="#afafaf"/>
      <path id="Trazado_114460" data-name="Trazado 114460" d="M130.163,254.641c0-11.644-5.379-22.536-15.142-30.642l-4.458-3.7h0l-5.16-4.289-9.194,7.635,11.386,9.448c7.016,5.822,10.889,13.471,10.889,21.534s-3.859,15.712-10.889,21.534L96.21,285.608l9.194,7.635,9.617-7.989c9.764-8.106,15.142-18.984,15.142-30.642Z" transform="translate(-62.257 -116.05)" fill="#afafaf"/>
      <path id="Trazado_114461" data-name="Trazado 114461" d="M114.393,291.148l7.425-9.094L105.4,268.42l-9.194,7.635Z" transform="translate(-62.257 -91.213)" fill="#afafaf"/>
      <path id="Trazado_114462" data-name="Trazado 114462" d="M86.12,148.19,78.68,157.3l16.429,13.619,9.194-7.635Z" transform="translate(-70.349 -148.19)" fill="#afafaf"/>
      <path id="Trazado_114463" data-name="Trazado 114463" d="M89.91,270.875l9.208,7.635,9.194-7.635-9.194-7.635Z" transform="translate(-65.165 -93.668)" fill="#afafaf"/>
      <path id="Trazado_114464" data-name="Trazado 114464" d="M108.312,218.475l-9.194-7.635-9.208,7.635,9.208,7.635Z" transform="translate(-65.165 -118.5)" fill="#afafaf"/>
      <path id="Trazado_114465" data-name="Trazado 114465" d="M108.307,166.065l-9.194-7.635-9.194,7.635,9.194,7.635Z" transform="translate(-65.16 -143.337)" fill="#afafaf"/>
      <g id="Grupo_81387" data-name="Grupo 81387" transform="translate(5.408 42.949)">
        <g id="Grupo_81384" data-name="Grupo 81384" transform="translate(0 16.331)">
          <path id="Trazado_114466" data-name="Trazado 114466" d="M131.71,192.537H78.726a2.061,2.061,0,0,1-2.046-2.063h0a2.061,2.061,0,0,1,2.046-2.063H131.71a2.061,2.061,0,0,1,2.046,2.063h0A2.061,2.061,0,0,1,131.71,192.537Z" transform="translate(-76.68 -188.41)" fill="#afafaf"/>
          <path id="Trazado_114467" data-name="Trazado 114467" d="M105.221,192.537H78.736a2.061,2.061,0,0,1-2.046-2.063h0a2.061,2.061,0,0,1,2.046-2.063h26.485v4.127Z" transform="translate(-76.675 -188.41)" fill="#afafaf"/>
        </g>
        <g id="Grupo_81385" data-name="Grupo 81385" transform="translate(3.186)">
          <path id="Trazado_114468" data-name="Trazado 114468" d="M80.906,181.457h46.626a2.061,2.061,0,0,0,2.046-2.063h0a2.061,2.061,0,0,0-2.046-2.063H80.906a2.061,2.061,0,0,0-2.046,2.063h0A2.061,2.061,0,0,0,80.906,181.457Z" transform="translate(-78.86 -177.33)" fill="#afafaf"/>
          <path id="Trazado_114469" data-name="Trazado 114469" d="M96.21,181.457h23.313a2.061,2.061,0,0,0,2.046-2.063h0a2.061,2.061,0,0,0-2.046-2.063H96.21v4.127Z" transform="translate(-70.851 -177.33)" fill="#afafaf"/>
        </g>
        <g id="Grupo_81386" data-name="Grupo 81386" transform="translate(3.186 32.676)">
          <path id="Trazado_114470" data-name="Trazado 114470" d="M80.906,199.5h46.626a2.061,2.061,0,0,1,2.046,2.063h0a2.061,2.061,0,0,1-2.046,2.063H80.906a2.061,2.061,0,0,1-2.046-2.063h0A2.061,2.061,0,0,1,80.906,199.5Z" transform="translate(-78.86 -199.5)" fill="#afafaf"/>
          <path id="Trazado_114471" data-name="Trazado 114471" d="M96.21,199.5h23.313a2.061,2.061,0,0,1,2.046,2.063h0a2.061,2.061,0,0,1-2.046,2.063H96.21V199.5Z" transform="translate(-70.851 -199.5)" fill="#afafaf"/>
        </g>
      </g>
      <path id="Trazado_114472" data-name="Trazado 114472" d="M107.586,180.707c7.016,5.822,10.889,13.471,10.889,21.534s-3.859,15.712-10.889,21.534L96.2,233.222l9.194,7.635,5.16-4.289h0l4.458-3.7c9.764-8.106,15.142-18.984,15.142-30.642s-5.379-22.536-15.142-30.642l-9.617-7.974L96.2,171.245l11.386,9.448Z" transform="translate(-62.261 -140.882)" fill="#afafaf"/>
      <g id="Grupo_81391" data-name="Grupo 81391" transform="translate(5.408 120.182)">
        <g id="Grupo_81388" data-name="Grupo 81388" transform="translate(0 16.346)">
          <path id="Trazado_114473" data-name="Trazado 114473" d="M131.71,244.947H78.726a2.061,2.061,0,0,1-2.046-2.063h0a2.061,2.061,0,0,1,2.046-2.063H131.71a2.061,2.061,0,0,1,2.046,2.063h0A2.061,2.061,0,0,1,131.71,244.947Z" transform="translate(-76.68 -240.82)" fill="#afafaf"/>
          <path id="Trazado_114474" data-name="Trazado 114474" d="M105.221,244.947H78.736a2.061,2.061,0,0,1-2.046-2.063h0a2.061,2.061,0,0,1,2.046-2.063h26.485v4.127Z" transform="translate(-76.675 -240.82)" fill="#afafaf"/>
        </g>
        <g id="Grupo_81389" data-name="Grupo 81389" transform="translate(3.186)">
          <path id="Trazado_114475" data-name="Trazado 114475" d="M80.906,233.857h46.626a2.061,2.061,0,0,0,2.046-2.063h0a2.061,2.061,0,0,0-2.046-2.063H80.906a2.061,2.061,0,0,0-2.046,2.063h0A2.061,2.061,0,0,0,80.906,233.857Z" transform="translate(-78.86 -229.73)" fill="#afafaf"/>
          <path id="Trazado_114476" data-name="Trazado 114476" d="M96.21,233.857h23.313a2.061,2.061,0,0,0,2.046-2.063h0a2.061,2.061,0,0,0-2.046-2.063H96.21v4.127Z" transform="translate(-70.851 -229.73)" fill="#afafaf"/>
        </g>
        <g id="Grupo_81390" data-name="Grupo 81390" transform="translate(3.186 32.676)">
          <path id="Trazado_114477" data-name="Trazado 114477" d="M80.906,251.9h46.626a2.061,2.061,0,0,1,2.046,2.063h0a2.061,2.061,0,0,1-2.046,2.063H80.906a2.061,2.061,0,0,1-2.046-2.063h0A2.061,2.061,0,0,1,80.906,251.9Z" transform="translate(-78.86 -251.9)" fill="#afafaf"/>
          <path id="Trazado_114478" data-name="Trazado 114478" d="M96.21,251.9h23.313a2.061,2.061,0,0,1,2.046,2.063h0a2.061,2.061,0,0,1-2.046,2.063H96.21V251.9Z" transform="translate(-70.851 -251.9)" fill="#afafaf"/>
        </g>
      </g>
      <path id="Trazado_114479" data-name="Trazado 114479" d="M95.547,276.17c-7.016-5.822-10.889-13.471-10.889-21.534s3.859-15.712,10.889-21.534l11.386-9.448L97.74,216.02l-5.16,4.289h0l-4.458,3.7c-9.764,8.106-15.142,18.984-15.142,30.642s5.379,22.536,15.142,30.642l9.617,7.989,9.194-7.635L95.547,276.2Z" transform="translate(-72.98 -116.045)" fill="#afafaf"/>
    </g>
    <g id="Grupo_83536" data-name="Grupo 83536" transform="translate(-5151.056 -8363.886)">
      <path id="Trazado_114509" data-name="Trazado 114509" d="M608.2,230.6l7.44,9.094L633.822,224.6l-9.208-7.635Z" transform="translate(-599.869 -39.763)" fill="#afafaf"/>
      <path id="Trazado_114510" data-name="Trazado 114510" d="M625.067,172.31c-7.016-5.822-10.889-13.471-10.889-21.534s3.873-15.712,10.889-21.534l11.386-9.448-9.194-7.635-9.617,7.989c-9.764,8.106-15.142,18.984-15.142,30.642s5.379,22.536,15.142,30.642l4.458,3.7h0l5.16,4.289,9.194-7.635-11.386-9.448Z" transform="translate(-602.5 -89.432)" fill="#afafaf"/>
      <path id="Trazado_114511" data-name="Trazado 114511" d="M651.338,105.849l-7.425-9.109L625.73,111.833l9.194,7.635Z" transform="translate(-591.777 -96.74)" fill="#afafaf"/>
      <path id="Trazado_114512" data-name="Trazado 114512" d="M659.683,203.191c0-11.644-5.379-22.536-15.142-30.642l-4.458-3.7h0l-5.159-4.289-9.194,7.635,11.386,9.448c7.016,5.822,10.889,13.471,10.889,21.534s-3.859,15.712-10.889,21.534l-11.386,9.448,9.194,7.635,9.617-7.974c9.764-8.106,15.142-18.984,15.142-30.642Z" transform="translate(-591.777 -64.6)" fill="#afafaf"/>
      <path id="Trazado_114513" data-name="Trazado 114513" d="M643.913,239.7l7.425-9.094L634.924,216.97,625.73,224.6Z" transform="translate(-591.777 -39.763)" fill="#afafaf"/>
      <path id="Trazado_114514" data-name="Trazado 114514" d="M615.64,96.74l-7.44,9.109,16.414,13.619,9.208-7.635Z" transform="translate(-599.869 -96.74)" fill="#afafaf"/>
      <path id="Trazado_114515" data-name="Trazado 114515" d="M619.43,219.425l9.208,7.635,9.194-7.635-9.194-7.635Z" transform="translate(-594.685 -42.218)" fill="#afafaf"/>
      <path id="Trazado_114516" data-name="Trazado 114516" d="M637.832,167.03l-9.194-7.65-9.208,7.65,9.208,7.635Z" transform="translate(-594.685 -67.055)" fill="#afafaf"/>
      <path id="Trazado_114517" data-name="Trazado 114517" d="M637.832,114.615l-9.194-7.635-9.208,7.635,9.208,7.635Z" transform="translate(-594.685 -91.887)" fill="#afafaf"/>
      <g id="Grupo_81405" data-name="Grupo 81405" transform="translate(5.408 42.949)">
        <g id="Grupo_81402" data-name="Grupo 81402" transform="translate(0 16.331)">
          <path id="Trazado_114518" data-name="Trazado 114518" d="M661.23,141.087H608.246a2.061,2.061,0,0,1-2.046-2.063h0a2.061,2.061,0,0,1,2.046-2.063H661.23a2.061,2.061,0,0,1,2.046,2.063h0A2.061,2.061,0,0,1,661.23,141.087Z" transform="translate(-606.2 -136.96)" fill="#afafaf"/>
          <path id="Trazado_114519" data-name="Trazado 114519" d="M634.741,141.087H608.256a2.061,2.061,0,0,1-2.046-2.063h0a2.061,2.061,0,0,1,2.046-2.063h26.485Z" transform="translate(-606.195 -136.96)" fill="#afafaf"/>
        </g>
        <g id="Grupo_81403" data-name="Grupo 81403" transform="translate(3.186)">
          <path id="Trazado_114520" data-name="Trazado 114520" d="M610.426,130.007h46.626a2.061,2.061,0,0,0,2.046-2.063h0a2.061,2.061,0,0,0-2.046-2.063H610.426a2.061,2.061,0,0,0-2.046,2.063h0A2.061,2.061,0,0,0,610.426,130.007Z" transform="translate(-608.38 -125.88)" fill="#afafaf"/>
          <path id="Trazado_114521" data-name="Trazado 114521" d="M625.73,130.007h23.313a2.061,2.061,0,0,0,2.046-2.063h0a2.061,2.061,0,0,0-2.046-2.063H625.73Z" transform="translate(-600.371 -125.88)" fill="#afafaf"/>
        </g>
        <g id="Grupo_81404" data-name="Grupo 81404" transform="translate(3.186 32.676)">
          <path id="Trazado_114522" data-name="Trazado 114522" d="M610.426,148.05h46.626a2.061,2.061,0,0,1,2.046,2.063h0a2.061,2.061,0,0,1-2.046,2.063H610.426a2.061,2.061,0,0,1-2.046-2.063h0A2.061,2.061,0,0,1,610.426,148.05Z" transform="translate(-608.38 -148.05)" fill="#afafaf"/>
          <path id="Trazado_114523" data-name="Trazado 114523" d="M625.73,148.05h23.313a2.061,2.061,0,0,1,2.046,2.063h0a2.061,2.061,0,0,1-2.046,2.063H625.73V148.05Z" transform="translate(-600.371 -148.05)" fill="#afafaf"/>
        </g>
      </g>
      <path id="Trazado_114524" data-name="Trazado 114524" d="M637.106,129.252C644.122,135.074,648,142.723,648,150.786s-3.859,15.712-10.889,21.534l-11.386,9.448,9.194,7.635,5.16-4.289h0l4.458-3.7c9.764-8.106,15.142-18.984,15.142-30.642s-5.379-22.536-15.142-30.642l-9.618-7.989-9.194,7.635,11.386,9.448Z" transform="translate(-591.781 -89.442)" fill="#afafaf"/>
      <g id="Grupo_81409" data-name="Grupo 81409" transform="translate(5.408 120.182)">
        <g id="Grupo_81406" data-name="Grupo 81406" transform="translate(0 16.346)">
          <path id="Trazado_114525" data-name="Trazado 114525" d="M661.23,193.5H608.246a2.061,2.061,0,0,1-2.046-2.063h0a2.061,2.061,0,0,1,2.046-2.063H661.23a2.061,2.061,0,0,1,2.046,2.063h0A2.061,2.061,0,0,1,661.23,193.5Z" transform="translate(-606.2 -189.37)" fill="#afafaf"/>
          <path id="Trazado_114526" data-name="Trazado 114526" d="M634.741,193.5H608.256a2.061,2.061,0,0,1-2.046-2.063h0a2.061,2.061,0,0,1,2.046-2.063h26.485Z" transform="translate(-606.195 -189.37)" fill="#afafaf"/>
        </g>
        <g id="Grupo_81407" data-name="Grupo 81407" transform="translate(3.186)">
          <path id="Trazado_114527" data-name="Trazado 114527" d="M610.426,182.407h46.626a2.061,2.061,0,0,0,2.046-2.063h0a2.061,2.061,0,0,0-2.046-2.063H610.426a2.061,2.061,0,0,0-2.046,2.063h0A2.061,2.061,0,0,0,610.426,182.407Z" transform="translate(-608.38 -178.28)" fill="#afafaf"/>
          <path id="Trazado_114528" data-name="Trazado 114528" d="M625.73,182.407h23.313a2.061,2.061,0,0,0,2.046-2.063h0a2.061,2.061,0,0,0-2.046-2.063H625.73v4.127Z" transform="translate(-600.371 -178.28)" fill="#afafaf"/>
        </g>
        <g id="Grupo_81408" data-name="Grupo 81408" transform="translate(3.186 32.676)">
          <path id="Trazado_114529" data-name="Trazado 114529" d="M610.426,200.45h46.626a2.061,2.061,0,0,1,2.046,2.063h0a2.061,2.061,0,0,1-2.046,2.063H610.426a2.061,2.061,0,0,1-2.046-2.063h0A2.061,2.061,0,0,1,610.426,200.45Z" transform="translate(-608.38 -200.45)" fill="#afafaf"/>
          <path id="Trazado_114530" data-name="Trazado 114530" d="M625.73,200.45h23.313a2.061,2.061,0,0,1,2.046,2.063h0a2.061,2.061,0,0,1-2.046,2.063H625.73V200.45Z" transform="translate(-600.371 -200.45)" fill="#afafaf"/>
        </g>
      </g>
      <path id="Trazado_114531" data-name="Trazado 114531" d="M625.067,224.72c-7.016-5.822-10.889-13.471-10.889-21.534s3.873-15.712,10.889-21.534l11.386-9.448-9.194-7.635-5.16,4.289h0l-4.458,3.7c-9.764,8.106-15.142,18.984-15.142,30.642s5.379,22.536,15.142,30.642l9.617,7.974,9.194-7.635-11.386-9.448Z" transform="translate(-602.5 -64.595)" fill="#afafaf"/>
    </g>
    <g id="Grupo_83537" data-name="Grupo 83537" transform="translate(-5184.82 -8408.618)">
      <path id="Trazado_114532" data-name="Trazado 114532" d="M588.323,198.916a1.858,1.858,0,1,1-1.783-1.946A1.867,1.867,0,0,1,588.323,198.916Z" transform="translate(-567.976 -25.294)" fill="#afafaf"/>
      <path id="Trazado_114533" data-name="Trazado 114533" d="M673.9,165.606a1.858,1.858,0,1,1-1.783-1.946A1.867,1.867,0,0,1,673.9,165.606Z" transform="translate(-528.47 -41.08)" fill="#afafaf"/>
      <g id="Grupo_81414" data-name="Grupo 81414" transform="translate(-16 7.179)">
        <path id="Trazado_114534" data-name="Trazado 114534" d="M576.943,145.7a1.858,1.858,0,1,1-1.783-1.946A1.867,1.867,0,0,1,576.943,145.7Z" transform="translate(-573.229 -50.515)" fill="#afafaf"/>
        <g id="Grupo_81413" data-name="Grupo 81413" transform="translate(28.701)">
          <path id="Trazado_114535" data-name="Trazado 114535" d="M596.965,129.784a3.748,3.748,0,1,1,3.318-4.112A3.721,3.721,0,0,1,596.965,129.784Z" transform="translate(-592.865 -60.677)" fill="#afafaf"/>
          <path id="Trazado_114536" data-name="Trazado 114536" d="M650.054,170.935a3.748,3.748,0,1,1,3.318-4.112A3.711,3.711,0,0,1,650.054,170.935Z" transform="translate(-568.357 -41.176)" fill="#afafaf"/>
          <path id="Trazado_121492" data-name="Trazado 121492" d="M3.724,0A3.707,3.707,0,0,1,7.43,3.732a3.749,3.749,0,0,1-3.724,3.75A3.707,3.707,0,0,1,0,3.75,3.749,3.749,0,0,1,3.724,0Z" transform="translate(48.159 2.149) rotate(-16.81)" fill="#afafaf"/>
          <path id="Trazado_114537" data-name="Trazado 114537" d="M604.924,239.475a3.748,3.748,0,1,1,3.318-4.112A3.711,3.711,0,0,1,604.924,239.475Z" transform="translate(-589.19 -8.695)" fill="#afafaf"/>
          <path id="Trazado_114538" data-name="Trazado 114538" d="M665.763,197.6a1.858,1.858,0,1,1-1.783-1.946A1.867,1.867,0,0,1,665.763,197.6Z" transform="translate(-560.929 -25.92)" fill="#afafaf"/>
          <path id="Trazado_114539" data-name="Trazado 114539" d="M667.9,140.626a1.858,1.858,0,1,1-1.783-1.946A1.867,1.867,0,0,1,667.9,140.626Z" transform="translate(-559.941 -52.918)" fill="#afafaf"/>
          <path id="Trazado_114540" data-name="Trazado 114540" d="M665.763,89.3a1.858,1.858,0,1,1-1.783-1.946A1.867,1.867,0,0,1,665.763,89.3Z" transform="translate(-560.929 -77.243)" fill="#afafaf"/>
          <path id="Trazado_114541" data-name="Trazado 114541" d="M608.193,93.852a1.856,1.856,0,1,1-1.856-1.872A1.867,1.867,0,0,1,608.193,93.852Z" transform="translate(-587.504 -75.049)" fill="#afafaf"/>
          <path id="Trazado_114542" data-name="Trazado 114542" d="M607.025,166.816a5.8,5.8,0,1,1-5.8-5.866A5.835,5.835,0,0,1,607.025,166.816Z" transform="translate(-591.686 -42.364)" fill="#afafaf"/>
          <ellipse id="Elipse_4766" data-name="Elipse 4766" cx="5.803" cy="5.851" rx="5.803" ry="5.851" transform="translate(87.032 204.706)" fill="#afafaf"/>
          <ellipse id="Elipse_4767" data-name="Elipse 4767" cx="5.803" cy="5.851" rx="5.803" ry="5.851" transform="translate(87.032 41.369)" fill="#afafaf"/>
        </g>
      </g>
    </g>
    <g id="Grupo_83538" data-name="Grupo 83538" transform="translate(-5998.757 -8339.267)">
      <path id="Trazado_114543" data-name="Trazado 114543" d="M128.4,172.747a3.7,3.7,0,0,1-5.247-.206,3.77,3.77,0,0,1,.2-5.291,3.7,3.7,0,0,1,5.247.206A3.77,3.77,0,0,1,128.4,172.747Z" transform="translate(0.838 -117.446)" fill="#afafaf"/>
      <path id="Trazado_114544" data-name="Trazado 114544" d="M65.024,219.622a3.718,3.718,0,1,1-3.406-4.038A3.728,3.728,0,0,1,65.024,219.622Z" transform="translate(-28.966 -94.075)" fill="#afafaf"/>
      <path id="Trazado_114545" data-name="Trazado 114545" d="M133.824,242.322a3.718,3.718,0,1,1-3.406-4.038A3.728,3.728,0,0,1,133.824,242.322Z" transform="translate(2.793 -83.318)" fill="#afafaf"/>
      <path id="Trazado_114546" data-name="Trazado 114546" d="M127.1,137.5a3.718,3.718,0,1,1-3.406-4.038A3.728,3.728,0,0,1,127.1,137.5Z" transform="translate(-0.309 -132.992)" fill="#afafaf"/>
      <path id="Trazado_114547" data-name="Trazado 114547" d="M73.444,265.8a3.718,3.718,0,1,1-3.406-4.039A3.728,3.728,0,0,1,73.444,265.8Z" transform="translate(-25.079 -72.191)" fill="#afafaf"/>
      <path id="Trazado_114548" data-name="Trazado 114548" d="M123.4,214.9a1.856,1.856,0,1,1-1.856-1.872A1.867,1.867,0,0,1,123.4,214.9Z" transform="translate(-0.305 -95.28)" fill="#afafaf"/>
      <path id="Trazado_114549" data-name="Trazado 114549" d="M41.723,207.282a1.856,1.856,0,1,1-1.856-1.872A1.867,1.867,0,0,1,41.723,207.282Z" transform="translate(-38.01 -98.891)" fill="#afafaf"/>
      <path id="Trazado_114550" data-name="Trazado 114550" d="M54.923,285.762a1.856,1.856,0,1,1-1.856-1.872A1.867,1.867,0,0,1,54.923,285.762Z" transform="translate(-31.917 -61.699)" fill="#afafaf"/>
      <path id="Trazado_114551" data-name="Trazado 114551" d="M61.313,186.162a1.856,1.856,0,1,1-1.856-1.872A1.867,1.867,0,0,1,61.313,186.162Z" transform="translate(-28.967 -108.9)" fill="#afafaf"/>
      <path id="Trazado_114552" data-name="Trazado 114552" d="M98.641,141.5a1.86,1.86,0,1,1-2.046-1.665A1.878,1.878,0,0,1,98.641,141.5Z" transform="translate(-11.733 -129.973)" fill="#afafaf"/>
      <ellipse id="Elipse_4768" data-name="Elipse 4768" cx="5.817" cy="5.866" rx="5.817" ry="5.866" transform="translate(150.167 94.005)" fill="#afafaf"/>
      <path id="Trazado_114553" data-name="Trazado 114553" d="M140.454,274.276a5.817,5.817,0,1,1-5.817-5.866A5.838,5.838,0,0,1,140.454,274.276Z" transform="translate(3.91 -69.035)" fill="#afafaf"/>
      <ellipse id="Elipse_4769" data-name="Elipse 4769" cx="5.817" cy="5.866" rx="5.817" ry="5.866" transform="translate(39.449)" fill="#afafaf"/>
    </g>
    <g id="Enmascarar_grupo_81" data-name="Enmascarar grupo 81" transform="translate(-5955.045 -8243.467)" clip-path="url(#clip-path-2)">
      <g id="Grupo_83554" data-name="Grupo 83554" transform="translate(17.116 -0.266)">
        <g id="Grupo_83539" data-name="Grupo 83539" transform="translate(0 143.681)">
          <path id="Trazado_124136" data-name="Trazado 124136" d="M139.386,291.983a84.046,84.046,0,0,0-16.765-15.078c-1.447-.943-5.54,2.9-.117,10.067a28.755,28.755,0,0,1,4.019,6.927,113.931,113.931,0,0,1-16.122.56c-6.884-.324-18.183-3.611-21.924-3.611a3.144,3.144,0,0,0-2.689,2.609,17.846,17.846,0,0,0-5-.31,4.233,4.233,0,0,0-2.529,3.154c0,.221.307.545.862.943a4.418,4.418,0,0,0-.921.118c-1.023.31-2.032,2.653-2,3.862,0,.4.994,1.105,2.587,1.975a4.717,4.717,0,0,0-1.929,3.36c0,1.9,16.092,10.067,22.962,12.911,7,2.27,38.28,7.826,38.28,7.826,13.7,5.7,7.659-20.517,7.659-20.517s-3.786-11.054-6.387-14.813Z" transform="translate(-76.2 -276.764)" fill="#ffd0ca"/>
          <path id="Trazado_124137" data-name="Trazado 124137" d="M109.614,302.048c-1.622-.192-3.946-.383-6.723-.634-1.374-.147-2.894-.265-4.429-.545a16.1,16.1,0,0,1-2.295-.707c-.789-.265-1.608-.545-2.426-.825-6.592-2.226-12.395-3.965-15.581-4.717,2.982,1.327,8.682,3.464,15.289,5.7.833.28,1.637.545,2.441.811a14.6,14.6,0,0,0,2.412.678,36.521,36.521,0,0,0,4.546.339c2.806.074,5.13,0,6.767-.1Z" transform="translate(-75.295 -268.303)" fill="#e5a8a3"/>
          <path id="Trazado_124138" data-name="Trazado 124138" d="M110.721,297.494c-1.666-.118-4.063-.265-6.9-.545a53.747,53.747,0,0,1-9.544-1.695c-6.87-1.887-12.818-3.788-16.078-4.584a118.636,118.636,0,0,0,15.815,5.571,39.7,39.7,0,0,0,9.749,1.444,48.449,48.449,0,0,0,6.957-.192Z" transform="translate(-75.276 -270.175)" fill="#e5a8a3"/>
          <path id="Trazado_124139" data-name="Trazado 124139" d="M110.686,292.9c-1.418-.206-3.449-.413-5.876-.634-2.412-.265-5.291-.4-8.2-.958-5.89-1.341-11.05-2.682-13.871-3.139a96.117,96.117,0,0,0,13.666,4.156,50.835,50.835,0,0,0,8.375.707c2.456.044,4.487,0,5.92-.118Z" transform="translate(-73.18 -271.359)" fill="#e5a8a3"/>
        </g>
        <g id="Grupo_83545" data-name="Grupo 83545" transform="translate(51.493 0)">
          <g id="Grupo_83540" data-name="Grupo 83540" transform="translate(354.397 449.524)">
            <path id="Trazado_124140" data-name="Trazado 124140" d="M363.708,493.688c2.178-3.346,9.31-9.418,9.31-9.418,5.116.752,17.89,7.885,17.89,7.885s3.976,10.7,3.713,17.171c0,0-2.28,14.857-4.546,20.723-2.251,4.613-10.085,15.653-11.474,15.388a2.349,2.349,0,0,1-1.754-2.27,13.956,13.956,0,0,1,.5-2.108c-2.222,3.169-4.063,5.38-4.619,5.262a2.55,2.55,0,0,1-1.871-2.476,23.951,23.951,0,0,1,1.067-3.817c-2.295,3.287-4.209,5.6-4.779,5.483a2.55,2.55,0,0,1-1.871-2.476,48.4,48.4,0,0,1,2.149-6.927c-1.52,2.019-2.762,3.4-3.274,3.346a2.691,2.691,0,0,1-2.134-2.344c-.234-1.931,4.516-13.516,5.291-16.3,1.111-3.95.979-13.928.146-15.756a35.7,35.7,0,0,0-3.756,5.571c-3.625,7.193-8.653,7.193-9.647,6.131-.906-.973,2.616-8.475,3.216-10.052a89.587,89.587,0,0,1,6.431-13.015Z" transform="translate(-353.899 -484.27)" fill="#ffd0ca"/>
            <path id="Trazado_124141" data-name="Trazado 124141" d="M373.172,498.33c-.789,3.243-1.827,9.359-3.128,16.316-.175.855-.336,1.724-.541,2.52a12.273,12.273,0,0,1-.877,2.24c-.687,1.444-1.432,2.8-2.119,4.038-1.389,2.476-2.529,4.54-3.347,6,1.038-1.3,2.441-3.213,3.99-5.616.76-1.209,1.579-2.52,2.339-3.994a12.687,12.687,0,0,0,.994-2.4c.234-.855.409-1.71.585-2.594a141.81,141.81,0,0,0,2.119-16.508Z" transform="translate(-349.623 -477.607)" fill="#e5a8a3"/>
            <path id="Trazado_124142" data-name="Trazado 124142" d="M377.543,499.49c-.862,3.464-1.959,10.052-3.683,17.421a25.117,25.117,0,0,1-.775,2.624c-.336.825-.731,1.621-1.125,2.4-.789,1.548-1.564,3.007-2.28,4.348-1.447,2.7-2.646,4.937-3.449,6.544,1.052-1.445,2.485-3.552,4.078-6.161.8-1.312,1.652-2.727,2.485-4.274.409-.781.833-1.577,1.213-2.447a22.241,22.241,0,0,0,.848-2.756,119.027,119.027,0,0,0,2.689-17.672Z" transform="translate(-348.206 -477.057)" fill="#e5a8a3"/>
          </g>
          <path id="Trazado_124143" data-name="Trazado 124143" d="M261.734,244.057s-16.18-13.177-7.542-39.81c10.714-33.015,64.414-28,61.461-15-5.525,24.364,29.422,11.983,26.251,30.068,0,0,5.116,2.535,6.723,6.072,1.8,3.98-3.61,49.553-30.241,56.126-33.53,8.283-56.652-37.452-56.652-37.452Z" transform="translate(-46.7 -179.281)" fill="#cc846b"/>
          <path id="Trazado_124144" data-name="Trazado 124144" d="M267.092,402.172C248.384,530.7,272,702.141,272,702.141c98.031,23.627,202.113-1.5,202.113-1.5-34.728-159.992-25.783-281.412-25.783-281.412,1.3,1.076,18.548,27.827,23.108,47.563,3.479,22.8,11.912,120.27,11.912,120.27l21.676,4.554s13.564-112.783,11.751-136.469c-.073-12.779-47.649-147.287-68.579-164.532-14.7-9.345-54.109-15.417-81.646-16.1-51.405-1.268-78.5,5.734-95.341,15.992C257.606,298.793,198.5,396.6,198.5,396.6l-66.124-84.97-20.945,14.5s56.886,143.027,85.388,140.92c22.012-1.621,70.26-64.881,70.26-64.881Z" transform="translate(-111.43 -134.218)" fill="#fff"/>
          <path id="Trazado_124145" data-name="Trazado 124145" d="M277.45,430.4c7.805-18.984,21.647-54.608,37.111-95.656,2.441-6.529,4.853-12.926,7.177-19.131q-5.569-5.129-10.816-9.949c8.521-4.466,16.5-8.652,23.839-12.484-4.18-2.063-8.185-4.053-11.985-5.925-3.406-1.665-6.636-3.243-9.661-4.731-6.066-2.963-11.371-5.5-15.785-7.591,4.283,2.344,9.471,5.129,15.435,8.313,5.6,2.963,11.927,6.294,18.84,9.949l-.424.206-1.111.56c-.935.472-1.9.943-2.85,1.43q-2.894,1.459-5.89,2.963-6.577,3.316-13.608,6.883,5.678,5.306,11.708,10.951c-2.192,5.778-4.443,11.747-6.753,17.834-15.464,41.063-28.545,76.967-35.21,96.393Z" transform="translate(-34.792 -133.953)" fill="#afafaf"/>
          <path id="Trazado_124146" data-name="Trazado 124146" d="M294.47,430.4c-6.9-19.853-20.433-56.568-36.409-98.545-2.046-5.336-4.049-10.583-5.993-15.682,5.262-5,10.348-9.846,15.23-14.488q-6.972-1.238-13.52-2.417c-1.9-.339-3.756-.663-5.6-.988-.921-.162-1.827-.324-2.733-.486l-.76-.118c7.133-4.525,13.666-8.667,19.454-12.337,6.27-3.994,11.693-7.5,16.136-10.406-4.589,2.638-10.173,5.9-16.575,9.684-3.186,1.9-6.592,3.921-10.173,6.043q-6.161,3.714-12.95,7.782,10.677,2.056,22.8,4.392-6.555,6.146-13.651,12.779c2.09,5.527,4.239,11.2,6.431,16.965,15.975,41.977,30.27,78.4,38.309,97.808Z" transform="translate(-51.812 -133.953)" fill="#afafaf"/>
          <path id="Trazado_124147" data-name="Trazado 124147" d="M301.8,288.076l-1.827-40.886H268.066l-.336,40.886,14.207,155.467Z" transform="translate(-39.279 -147.099)" fill="#ecbdb7"/>
          <path id="Trazado_124148" data-name="Trazado 124148" d="M298.916,287.43s-14.6,11.349-30.036,0l12.511,137.029Z" transform="translate(-38.748 -128.029)" fill="#12263f"/>
          <path id="Trazado_124149" data-name="Trazado 124149" d="M256.8,227.083s-7.776,60,30.182,62.2C315.905,290.947,322.059,256,322.059,256s4.6.1,8.565-9.064c2.485-5.733-1.418-12.454-7.279-6.647,0,0-3.143-.413-4.75-2.4,0,0,2.6-6.913,1.637-13.648s-49.023,3.434-58.216-12.808c0,0-3.084,5.291-5.218,15.653Z" transform="translate(-44.629 -164.046)" fill="#ffd0ca"/>
          <path id="Trazado_124150" data-name="Trazado 124150" d="M277.629,242.15c-1.125-.206-2.719-.427-4.575-.8-.468-.088-.935-.206-1.418-.339-.234-.074-.482-.147-.716-.221l-.175-.059h-.015l-.015-.015c-.015,0,0-.029.029-.044h.015l.219-.368c.292-.5.6-1.017.906-1.533A67.141,67.141,0,0,0,276.9,228.62a65.891,65.891,0,0,0-6.329,9.374c-.292.531-.6,1.046-.877,1.548-.2.383-.424.752-.628,1.12l-.38.707c-.146.147.1.147.2.206l.38.147.731.265.57.162c.278.059.555.118.818.162a15.12,15.12,0,0,0,1.549.177,17.416,17.416,0,0,0,4.721-.31Z" transform="translate(-38.859 -155.899)" fill="#dd9e97"/>
          <g id="Grupo_83541" data-name="Grupo 83541" transform="translate(250.437 74.021)">
            <path id="Trazado_124151" data-name="Trazado 124151" d="M282.813,233.567a4.646,4.646,0,1,0,5.218-4.024A4.677,4.677,0,0,0,282.813,233.567Z" transform="translate(-282.772 -229.502)" fill="#fff"/>
            <path id="Trazado_124152" data-name="Trazado 124152" d="M285.714,236.16a2.624,2.624,0,1,0-2.236-2.948A2.6,2.6,0,0,0,285.714,236.16Z" transform="translate(-282.457 -228.824)" fill="#444"/>
          </g>
          <g id="Grupo_83542" data-name="Grupo 83542" transform="translate(218.91 69.732)">
            <path id="Trazado_124153" data-name="Trazado 124153" d="M261.243,230.657a4.646,4.646,0,1,0,5.218-4.024A4.677,4.677,0,0,0,261.243,230.657Z" transform="translate(-261.202 -226.592)" fill="#fff"/>
            <path id="Trazado_124154" data-name="Trazado 124154" d="M264.134,233.25A2.624,2.624,0,1,0,261.9,230.3,2.6,2.6,0,0,0,264.134,233.25Z" transform="translate(-260.892 -225.914)" fill="#444"/>
          </g>
          <path id="Trazado_124155" data-name="Trazado 124155" d="M292.729,229.767a9.591,9.591,0,0,0-8.8-1.666" transform="translate(-31.801 -156.339)" fill="none" stroke="#444" stroke-linecap="round" stroke-miterlimit="10" stroke-width="1"/>
          <path id="Trazado_124156" data-name="Trazado 124156" d="M261.19,225.476a9.573,9.573,0,0,1,8.916.737" transform="translate(-42.298 -157.751)" fill="none" stroke="#444" stroke-linecap="round" stroke-miterlimit="10" stroke-width="1"/>
          <path id="Trazado_124157" data-name="Trazado 124157" d="M279.662,243.239,268.7,241.75a5.666,5.666,0,0,0,10.962,1.489Z" transform="translate(-38.831 -149.677)" fill="#fff"/>
          <g id="Grupo_83544" data-name="Grupo 83544" transform="translate(213.817 64.95)">
            <g id="Grupo_83543" data-name="Grupo 83543">
              <path id="Trazado_124158" data-name="Trazado 124158" d="M279.729,234.65a9.483,9.483,0,1,0,10.7-8.151A9.554,9.554,0,0,0,279.729,234.65Z" transform="translate(-247.599 -221.898)" fill="none" stroke="#444" stroke-miterlimit="10" stroke-width="1"/>
              <path id="Trazado_124159" data-name="Trazado 124159" d="M257.809,231.59a9.483,9.483,0,1,0,10.7-8.151A9.554,9.554,0,0,0,257.809,231.59Z" transform="translate(-257.718 -223.348)" fill="none" stroke="#444" stroke-miterlimit="10" stroke-width="1"/>
              <line id="Línea_167" data-name="Línea 167" x1="13.257" y1="1.872" transform="translate(18.872 10.88)" fill="none" stroke="#444" stroke-miterlimit="10" stroke-width="1"/>
            </g>
            <line id="Línea_168" data-name="Línea 168" y1="4.083" x2="14.002" transform="translate(50.896 11.308)" fill="none" stroke="#444" stroke-linecap="round" stroke-miterlimit="10" stroke-width="1"/>
          </g>
          <path id="Trazado_124160" data-name="Trazado 124160" d="M276.024,380.41c-.058,7.148-.146,15.83-.234,25.808.029,9.964.146,21.209.38,33.472.526,24.526,1.7,53.1,3.654,83.614,3.9,61.02,10.085,113.947,14.455,142.187-3.157-28.4-8.507-81.359-12.409-142.32-1.959-30.48-3.318-59.03-4.209-83.526-.38-12.248-.716-23.479-1.023-33.443-.234-9.964-.438-18.645-.6-25.793Z" transform="translate(-35.558 -83.966)" fill="#afafaf"/>
        </g>
        <path id="Trazado_124161" data-name="Trazado 124161" d="M382.687,348.655c15,38.292,22.874,64.763,22.9,71.307.482,6.294.672,7.355-.468,22.433a160.725,160.725,0,0,1-50.294-26.545c-2.236-5.2-4.809-10.332-7.279-14.9a242.858,242.858,0,0,1,35.137-52.309" transform="translate(49.06 -99.022)" fill="#e3e1ef"/>
        <g id="Grupo_83553" data-name="Grupo 83553" transform="translate(406.062 14.207)">
          <g id="Grupo_83546" data-name="Grupo 83546" transform="translate(375.364 67.039)">
            <path id="Trazado_124162" data-name="Trazado 124162" d="M617.2,250.434a135.185,135.185,0,0,1,13.374-15.771c1.125-1.091,4.9,1.164,1.272,8.46-1.33,2.668-3.522,5.394-3.873,7.311,3.99-.4,10.918-.943,16.429-2.27,6.066-1.474,15.552-6.338,18.869-6.972a2.832,2.832,0,0,1,2.836,1.857,15.989,15.989,0,0,1,4.385-1.135,3.747,3.747,0,0,1,2.777,2.373c.044.192-.19.545-.614.988a3.579,3.579,0,0,1,.833-.059c.965.1,2.266,2,2.426,3.08.058.354-.687,1.15-1.959,2.2a4.238,4.238,0,0,1,2.28,2.653c.322,1.68-12.6,11.717-18.212,15.432-5.832,3.213-32.7,13.545-32.7,13.545-11.2,7.428-14.5-12.469-14.5-12.469s3.376-15.107,6.387-19.22Z" transform="translate(-610.83 -234.404)" fill="#ffd0ca"/>
            <path id="Trazado_124163" data-name="Trazado 124163" d="M635.58,257.288a58.5,58.5,0,0,0,6.036-1.032,37.048,37.048,0,0,0,3.99-1.076,13.956,13.956,0,0,0,2.046-1.017l2.032-1.135c5.5-3.125,10.188-6.014,12.6-7.738-2.719,1.194-7.586,3.714-13.067,6.824q-1.03.6-2.017,1.15a14.3,14.3,0,0,1-1.915,1.017c-1.3.516-2.631.884-3.829,1.253-2.412.707-4.443,1.3-5.861,1.754Z" transform="translate(-599.405 -229.245)" fill="#e5a8a3"/>
            <path id="Trazado_124164" data-name="Trazado 124164" d="M634.15,253.443a42.7,42.7,0,0,0,6.227-.988,36.205,36.205,0,0,0,8.434-2.963,99.169,99.169,0,0,0,13.1-7.723c-2.777,1.238-7.761,3.921-13.535,6.795a49.108,49.108,0,0,1-8.185,3.169c-2.47.752-4.575,1.3-6.036,1.71Z" transform="translate(-600.065 -230.913)" fill="#e5a8a3"/>
            <path id="Trazado_124165" data-name="Trazado 124165" d="M632.22,249.34c1.286-.133,3.113-.427,5.291-.884a45,45,0,0,0,7.323-2.049,82.5,82.5,0,0,0,11.43-6.087c-2.441.87-6.811,2.933-11.81,5.144-2.485,1-5.013,1.621-7.118,2.285-2.119.634-3.888,1.179-5.1,1.607Z" transform="translate(-600.956 -231.6)" fill="#e5a8a3"/>
          </g>
          <path id="Trazado_124166" data-name="Trazado 124166" d="M491.4,211.928c-7-7.841-14.66-15.461-24.219-19.78s-21.413-4.731-29.978,1.341a16.842,16.842,0,0,0-5.466,6.117c-1.754,3.552-1.8,7.723-1.272,11.644.877,6.456,3.216,12.72,3.391,19.234s-2.6,13.825-8.667,16.095c-4.736,1.769-10.144.015-15,1.4a12.651,12.651,0,0,0-8.477,14.562c.833,3.537,3.172,6.485,5.233,9.462,3.172,4.584,5.861,9.625,6.928,15.122.76,3.935.555,8.313-1.827,11.511-3.917,5.247-11.518,5.159-17.89,6.529-8.112,1.754-15.888,7.34-18.08,15.417a23.7,23.7,0,0,0-.088,10.907c2.967,14.577,16.019,26.206,30.636,28.373s29.934-4.687,39-16.434,11.941-27.827,8.594-42.33c-2.558-11.069-6.65-19.249,3.172-25.955,11.664-7.959,11.138-31.144,5.13-38.38-8.8-10.612,2.865-29.4,17.613-16.655l11.269-8.18Z" transform="translate(-344.148 -188.92)" fill="#996350"/>
          <path id="Trazado_124167" data-name="Trazado 124167" d="M527.1,254.6s12.614-10.1,5.642-35.315c-9.208-33.369-51.58-32.161-64.033-25.322-14.28,7.826-28.867,20.3-26.426,47.224,2.894,31.925,28.838,47.563,38.631,44.055s46.172-30.628,46.172-30.628Z" transform="translate(-313.394 -188.375)" fill="#996350"/>
          <path id="Trazado_124168" data-name="Trazado 124168" d="M628.528,393.175C643.262,524.5,619.291,709.8,619.291,709.8c-98.031,23.627-202.113-1.5-202.113-1.5C451.716,522.083,452.637,387.1,452.637,387.1s-36.877,39.781-38.5,50.216c-.833,9.728,66.343,64.925,66.343,64.925L473.8,522.2s-121.577-56.377-119.765-80.077c.073-12.779,72.993-126.608,93.924-143.853,14.7-9.344,54.2-13.987,81.646-16.095,33.149-2.55,71.634,4.068,84.832,11.673,11.532,6.633,67.322,60.238,67.322,60.238l47.941-97,21.442,11.467s-37.081,156.16-64.326,155.688c-17.583-.295-58.289-31.055-58.289-31.055Z" transform="translate(-354.016 -156.614)" fill="#fff"/>
          <path id="Trazado_124169" data-name="Trazado 124169" d="M503.276,430.022c-7.557-20.531-22.29-58.484-39.639-101.891-2.207-5.512-4.385-10.936-6.5-16.228q8.529-3.847,16.6-7.487-8.7-2.9-16.852-5.616c-2.353-.781-4.663-1.533-6.913-2.285-1.125-.368-2.251-.737-3.362-1.105l-1.184-.383-.482-.147c7.44-4.053,14.265-7.753,20.3-11.04,6.475-3.552,12.1-6.662,16.736-9.271-4.765,2.344-10.524,5.218-17.116,8.549-3.289,1.665-6.8,3.449-10.48,5.321q-6.248,3.206-13.125,6.75c8.433,2.918,17.6,6.1,27.332,9.492-4.546,2-9.208,4.083-14,6.19,2.339,5.881,4.75,11.909,7.191,18.041,17.349,43.406,32.842,81.065,41.525,101.124Z" transform="translate(-313.743 -148.33)" fill="#afafaf"/>
          <path id="Trazado_124170" data-name="Trazado 124170" d="M483.69,430.027c6.709-19.529,18.519-56.111,31.629-98.25,2-6.47,3.976-12.823,5.876-19-4.136-4.245-8.156-8.357-12-12.307q12.957-2.5,24.2-4.672-6.336-3.692-12.1-7.06c-3.318-1.916-6.475-3.729-9.427-5.439-5.92-3.4-11.108-6.338-15.42-8.74,4.166,2.653,9.208,5.822,15.011,9.433,5.32,3.287,11.342,7.016,17.92,11.084-.307.044-.614.088-.935.147-.95.162-1.9.339-2.879.5-1.929.339-3.9.693-5.92,1.032q-6.84,1.216-14.148,2.52,6.49,6.765,13.461,14.032c-1.812,5.792-3.669,11.762-5.583,17.834-13.111,42.139-24.131,78.972-29.685,98.869Z" transform="translate(-294.157 -148.335)" fill="#afafaf"/>
          <path id="Trazado_124171" data-name="Trazado 124171" d="M469.1,661.643c4.5-27.886,12.044-80.062,16.955-140.345,2.47-30.141,3.99-58.4,4.663-82.642s.468-44.512-.292-58.617c.146,14.135-.175,34.357-1.184,58.573s-2.748,52.427-5.218,82.524C479.112,581.36,472.4,633.566,469.1,661.643Z" transform="translate(-300.892 -98.348)" fill="#afafaf"/>
          <path id="Trazado_124172" data-name="Trazado 124172" d="M469.1,287.706l1.827-40.886h31.907l.336,40.886L490.425,443.173Z" transform="translate(-300.892 -161.481)" fill="#ecbdb7"/>
          <path id="Trazado_124173" data-name="Trazado 124173" d="M471.595,292.826s14.163,8.151,28.312-.766L489.266,421.749,471.58,292.841Z" transform="translate(-299.747 -140.042)" fill="#12263f"/>
          <path id="Trazado_124174" data-name="Trazado 124174" d="M464.4,245.6c-9.9-10.465-15.888-2.078-11.591,6.9s12.058,10.45,12.058,10.45,20.053,29.6,41.466,24.835c28.355-6.308,20.682-63.6,20.682-63.6s-10.217.28-23.254-8.534c0,0-6.4,10.715-31.629,16.979-5.35,1.327-.687,12.189-7.717,12.97Z" transform="translate(-309.065 -176.252)" fill="#ffd0ca"/>
          <path id="Trazado_124175" data-name="Trazado 124175" d="M485.975,246.708a16.211,16.211,0,0,0,4.706.044,7.267,7.267,0,0,0,3.216-1.076,3.979,3.979,0,0,0,.512-.56l.351-.707c.073-.118-.1-.221-.146-.324-.073-.1-.146-.221-.234-.324l-.395-.457c-.38-.413-.7-.884-1.052-1.341a54.286,54.286,0,0,1-5.16-9.772,21.028,21.028,0,0,0,3.917,10.671c.38.486.745.988,1.155,1.43l.146.162.015.015h.015v.029c0,.015.044-.059-.029.044a7.654,7.654,0,0,1-2.543,1.091c-1.8.486-3.391.766-4.487,1.046Z" transform="translate(-293.109 -168.414)" fill="#dd9e97"/>
          <g id="Grupo_83547" data-name="Grupo 83547" transform="translate(176.162 65.064)">
            <path id="Trazado_124176" data-name="Trazado 124176" d="M483.747,237.023a4.629,4.629,0,1,1-5.276-3.906A4.65,4.65,0,0,1,483.747,237.023Z" transform="translate(-474.542 -233.064)" fill="#fff"/>
            <path id="Trazado_124177" data-name="Trazado 124177" d="M479.632,239.672a2.616,2.616,0,1,1,2.178-2.977A2.587,2.587,0,0,1,479.632,239.672Z" transform="translate(-473.569 -232.397)" fill="#444"/>
          </g>
          <g id="Grupo_83548" data-name="Grupo 83548" transform="translate(205.48 60.489)">
            <ellipse id="Elipse_5018" data-name="Elipse 5018" cx="4.633" cy="4.672" rx="4.633" ry="4.672" fill="#fff"/>
            <path id="Trazado_124178" data-name="Trazado 124178" d="M499.692,236.572a2.616,2.616,0,1,1,2.178-2.977A2.587,2.587,0,0,1,499.692,236.572Z" transform="translate(-493.626 -229.291)" fill="#444"/>
          </g>
          <path id="Trazado_124179" data-name="Trazado 124179" d="M482.261,231.937a5.24,5.24,0,0,0-4.794-1.164c-2.178.442-3.669,1.9-3.946,2.992,1.1-.147,2.616-.619,4.356-.973S481.194,232.291,482.261,231.937Z" transform="translate(-298.851 -169.149)" fill="#444"/>
          <path id="Trazado_124180" data-name="Trazado 124180" d="M494.78,229.986c1.125,0,2.689-.339,4.443-.516s3.347-.206,4.443-.383a5.087,5.087,0,0,0-4.648-1.666,5.253,5.253,0,0,0-4.224,2.565Z" transform="translate(-289.037 -170.691)" fill="#444"/>
          <path id="Trazado_124181" data-name="Trazado 124181" d="M495.715,244.16a16.68,16.68,0,0,1-4.326,1.769c-1.827.368-3.639.295-4.809.516a5.525,5.525,0,0,0,5.2,1.5,5.358,5.358,0,0,0,2.952-1.651,3.927,3.927,0,0,0,.994-2.137Z" transform="translate(-292.822 -162.742)" fill="#fc83a0"/>
          <g id="Grupo_83550" data-name="Grupo 83550" transform="translate(155.332 55.977)">
            <g id="Grupo_83549" data-name="Grupo 83549" transform="translate(16.017)">
              <path id="Trazado_124182" data-name="Trazado 124182" d="M489.652,237.835a9.254,9.254,0,1,1-10.524-7.841A9.314,9.314,0,0,1,489.652,237.835Z" transform="translate(-471.249 -225.482)" fill="none" stroke="#444" stroke-linecap="round" stroke-miterlimit="10" stroke-width="1"/>
              <path id="Trazado_124183" data-name="Trazado 124183" d="M509.712,234.845A9.254,9.254,0,1,1,499.189,227,9.314,9.314,0,0,1,509.712,234.845Z" transform="translate(-461.989 -226.899)" fill="none" stroke="#444" stroke-linecap="round" stroke-miterlimit="10" stroke-width="1"/>
              <line id="Línea_169" data-name="Línea 169" y1="1.636" x2="11.006" transform="translate(18.404 10.717)" fill="none" stroke="#444" stroke-linecap="round" stroke-miterlimit="10" stroke-width="1"/>
            </g>
            <line id="Línea_170" data-name="Línea 170" x1="16.122" y1="1.769" transform="translate(0 13.37)" fill="none" stroke="#444" stroke-linecap="round" stroke-miterlimit="10" stroke-width="1"/>
          </g>
          <g id="Grupo_83551" data-name="Grupo 83551" transform="translate(118.177 343.625)">
            <path id="Trazado_124184" data-name="Trazado 124184" d="M453.637,422.06c-3.961,0-12.921,2.653-12.921,2.653-2.192,4.717-5.846,17.48-5.846,17.48s9.164,11.172,14.66,14.518c0,0,13.549,6.264,19.659,7.591,5.057.648,18.519.147,19.045-1.164a2.377,2.377,0,0,0-.906-2.727,14.477,14.477,0,0,0-2.017-.752c3.844-.118,6.694-.457,6.9-.988a2.589,2.589,0,0,0-1.023-2.948,23.822,23.822,0,0,0-3.756-1.209c3.99-.118,6.957-.457,7.162-.988a2.589,2.589,0,0,0-1.023-2.948,46.38,46.38,0,0,0-6.914-2c2.514-.162,4.341-.457,4.575-.914a2.705,2.705,0,0,0-.76-3.08c-1.476-1.268-13.666-3.655-16.4-4.525-3.873-1.238-12.058-6.854-13.111-8.563a35.125,35.125,0,0,1,6.68-.088c7.951.914,10.728-3.316,10.392-4.731-.307-1.312-8.448-2.461-10.085-2.845a88.957,88.957,0,0,0-14.309-1.769Z" transform="translate(-434.87 -422.06)" fill="#ffd0ca"/>
            <path id="Trazado_124185" data-name="Trazado 124185" d="M448.925,434.14a138.584,138.584,0,0,0,14.821,7.311c.819.339,1.622.663,2.456.943a12.309,12.309,0,0,0,2.529.486c1.637.177,3.172.221,4.59.236a65.271,65.271,0,0,0,6.84-.251c-1.666-.118-4-.295-6.811-.486-1.4-.1-2.923-.221-4.5-.442a14.068,14.068,0,0,1-2.339-.5c-.775-.265-1.579-.6-2.382-.929-6.475-2.741-12.1-5.247-15.215-6.367Z" transform="translate(-428.389 -416.335)" fill="#e5a8a3"/>
            <path id="Trazado_124186" data-name="Trazado 124186" d="M447.715,438.08a115.61,115.61,0,0,0,16.107,7.487,21.825,21.825,0,0,0,2.748.811c.921.162,1.827.251,2.689.339,1.739.147,3.391.221,4.911.265,3.04.088,5.583.059,7.352-.029-1.769-.206-4.283-.442-7.308-.708-1.505-.133-3.142-.28-4.867-.486-.848-.1-1.739-.206-2.6-.368a22.491,22.491,0,0,1-2.6-.8c-7.045-2.624-13.1-5.336-16.443-6.515Z" transform="translate(-428.947 -414.468)" fill="#e5a8a3"/>
            <path id="Trazado_124187" data-name="Trazado 124187" d="M447.04,442.63c2.865,1.9,8.755,4.333,15.654,6.633a19.429,19.429,0,0,0,2.646.722,23.227,23.227,0,0,0,2.6.265c1.681.1,3.259.1,4.721.088,2.923-.044,5.35-.221,7.045-.413-1.71-.074-4.136-.192-7.03-.324-1.447-.074-3.026-.147-4.663-.295-.819-.074-1.666-.162-2.485-.31a17.874,17.874,0,0,1-2.5-.707c-6.87-2.285-12.848-4.3-15.975-5.66Z" transform="translate(-429.252 -412.312)" fill="#e5a8a3"/>
          </g>
          <g id="Grupo_83552" data-name="Grupo 83552" transform="translate(91.21 317.818)">
            <path id="Trazado_124188" data-name="Trazado 124188" d="M416.42,438.283s19.629,9.949,28.589,14.032l6.68-19.957s-16.151-12.749-32.346-27.8" transform="translate(-416.42 -404.545)" fill="#fff"/>
            <path id="Trazado_124189" data-name="Trazado 124189" d="M419.329,404.565c3.011,3.169,7.367,7.443,12.76,12.351,2.689,2.461,5.642,5.085,8.828,7.8,1.593,1.356,3.245,2.741,4.926,4.156,1.52,1.253,3.084,2.535,4.663,3.832-.438,1.3-.921,2.727-1.4,4.171-1.593,4.864-3.142,9.551-4.6,14.017,0,.03,0,.118-.073.074h-.059l-.307-.162-.775-.368c-1.023-.486-2.032-.958-3.026-1.43-1.988-.929-3.917-1.828-5.773-2.7-7.41-3.434-13.637-6.205-18.066-8.033,4.136,2.373,10.158,5.616,17.423,9.374,1.827.943,3.713,1.916,5.686,2.918.979.5,1.988,1,3,1.533.643.324,1.3.648,1.944.988l.745.368c.117.029.278.192.351.118l.132-.4.541-1.592c1.52-4.466,3.128-9.182,4.779-14.046.643-1.916,1.272-3.817,1.842-5.542q-2.96-2.366-5.817-4.643-2.565-2.078-5-4.038c-3.23-2.653-6.27-5.144-9.077-7.458-5.613-4.643-10.29-8.519-13.651-11.3Z" transform="translate(-416.42 -404.55)" fill="#b6c7d3"/>
          </g>
        </g>
      </g>
    </g>
    <path id="Trazado_124190" data-name="Trazado 124190" d="M49.69,0A49.69,49.69,0,1,1,0,49.69,49.77,49.77,0,0,1,49.69,0Z" transform="translate(-5761.257 -8356.767)" fill="none" stroke="#fff" stroke-width="3"/>
    <circle id="Elipse_5019" data-name="Elipse 5019" cx="31.693" cy="31.693" r="31.693" transform="translate(-5743.757 -8339.267)" fill="#fff"/>
    <g id="Grupo_83555" data-name="Grupo 83555" transform="translate(-5735.757 -8331.267)">
      <circle id="Elipse_4039" data-name="Elipse 4039" cx="23.484" cy="23.484" r="23.484" fill="#ffd947"/>
    </g>
    <path id="Trazado_124191" data-name="Trazado 124191" d="M49.69,0A49.69,49.69,0,1,1,0,49.69,49.77,49.77,0,0,1,49.69,0Z" transform="translate(-5284.2 -8356.767)" fill="none" stroke="#fff" stroke-width="3"/>
    <circle id="Elipse_5020" data-name="Elipse 5020" cx="31.693" cy="31.693" r="31.693" transform="translate(-5266.7 -8339.267)" fill="#fff"/>
    <g id="Grupo_83556" data-name="Grupo 83556" transform="translate(-5248.257 -8372.327)">
      <circle id="Elipse_4039-2" data-name="Elipse 4039" cx="23.484" cy="23.484" r="23.484" transform="translate(-10.443 41.061)" fill="#ffd947"/>
    </g>
    <path id="Trazado_124192" data-name="Trazado 124192" d="M49.69,0A49.69,49.69,0,1,1,0,49.69,49.77,49.77,0,0,1,49.69,0Z" transform="translate(-5959.757 -7977.827)" fill="none" stroke="#fff" stroke-width="3"/>
    <circle id="Elipse_5021" data-name="Elipse 5021" cx="31.693" cy="31.693" r="31.693" transform="translate(-5942.257 -7960.327)" fill="#fff"/>
    <g id="Grupo_83557" data-name="Grupo 83557" transform="translate(-5934.257 -7952.327)">
      <circle id="Elipse_4039-3" data-name="Elipse 4039" cx="23.484" cy="23.484" r="23.484" fill="#ffd947"/>
    </g>
    <path id="Trazado_124193" data-name="Trazado 124193" d="M49.69,0A49.69,49.69,0,1,1,0,49.69,49.77,49.77,0,0,1,49.69,0Z" transform="translate(-5127.257 -7977.827)" fill="none" stroke="#fff" stroke-width="3"/>
    <circle id="Elipse_5022" data-name="Elipse 5022" cx="31.693" cy="31.693" r="31.693" transform="translate(-5109.757 -7960.327)" fill="#fff"/>
    <g id="Grupo_83558" data-name="Grupo 83558" transform="translate(-5101.757 -7952.327)">
      <circle id="Elipse_4039-4" data-name="Elipse 4039" cx="23.484" cy="23.484" r="23.484" fill="#ffd947"/>
    </g>
  </g>
</svg>
