<svg xmlns="http://www.w3.org/2000/svg" width="370.156" height="337.625" viewBox="0 0 370.156 337.625"><g transform="translate(254.631 237.174)"><g transform="translate(-197.475 -378.246)"><g transform="translate(-20.961 141.072)"><g transform="translate(0 34.726)"><path d="M95.563,277.476a.482.482,0,0,1-.479-.442L80.6,93.452H73.182L58.641,277.034a.461.461,0,0,1-.516.441.479.479,0,0,1-.441-.516L72.261,92.935a.481.481,0,0,1,.479-.442h8.3a.481.481,0,0,1,.479.442L96.043,276.959a.48.48,0,0,1-.441.516Z" transform="translate(-57.683 -92.493)" fill="#455a64"/></g><g transform="translate(11.73 34.726)"><path d="M87.277,129.487h-14a.479.479,0,0,1-.4-.736l6.835-10.757-5.287-8.321a.479.479,0,0,1-.009-.5l5.309-9.092-4.01-6.867a.479.479,0,1,1,.828-.483l3.738,6.4,3.738-6.4a.479.479,0,1,1,.828.483l-4.01,6.867,5.31,9.092a.481.481,0,0,1-.01.5l-5.287,8.321,6.835,10.757a.479.479,0,0,1-.405.736Zm-13.124-.959H86.4l-6.125-9.641ZM75.389,109.4l4.89,7.694,4.889-7.694-4.89-8.372Z" transform="translate(-72.8 -92.493)" fill="#455a64"/></g><g transform="translate(9.636 70.761)"><path d="M70.581,166.4a.474.474,0,0,1-.248-.07.481.481,0,0,1-.162-.659l16.092-26.506a.48.48,0,0,1,.821.5L70.991,166.166A.481.481,0,0,1,70.581,166.4Z" transform="translate(-70.101 -138.931)" fill="#455a64"/></g><g transform="translate(7.166 70.761)"><path d="M90.523,197.657H67.4a.48.48,0,0,1-.4-.743l11.389-17.236-8.919-13.5a.48.48,0,0,1,.4-.743H87.2L71.551,139.66a.48.48,0,0,1,.821-.5l16.085,26.5a.479.479,0,0,1,.051.109h0a.513.513,0,0,1,.021.091h0a.481.481,0,0,1-.075.321l-8.919,13.5,11.389,17.236a.478.478,0,0,1-.4.742ZM68.289,196.7H89.631L78.96,180.548Zm2.47-30.3,8.2,12.413,8.2-12.413Z" transform="translate(-66.918 -138.931)" fill="#455a64"/></g><g transform="translate(7.166 128.528)"><path d="M92.449,238.729a.481.481,0,0,1-.335-.136L67.062,214.2a.48.48,0,0,1,.67-.687l25.052,24.4a.48.48,0,0,1,.009.677A.475.475,0,0,1,92.449,238.729Z" transform="translate(-66.918 -213.374)" fill="#455a64"/></g><g transform="translate(5.238 128.528)"><path d="M64.913,238.729a.479.479,0,0,1-.335-.822l25.053-24.4a.48.48,0,0,1,.67.687l-25.053,24.4A.478.478,0,0,1,64.913,238.729Z" transform="translate(-64.434 -213.374)" fill="#455a64"/></g><g transform="translate(9.578 50.3)"><path d="M88.312,112.563H71a.974.974,0,0,0-.975.975v.187A.974.974,0,0,0,71,114.7H88.312a.974.974,0,0,0,.975-.975v-.187A.975.975,0,0,0,88.312,112.563Z" transform="translate(-70.026 -112.563)" fill="#455a64"/></g><g transform="translate(18.728 34.726)"><path d="M82.3,277.438a.479.479,0,0,1-.48-.48V92.973a.48.48,0,0,1,.959,0V276.959A.48.48,0,0,1,82.3,277.438Z" transform="translate(-81.818 -92.493)" fill="#455a64"/></g><g transform="translate(2.896)"><g transform="translate(14.484 14.863)"><path d="M80.08,68.723a1.828,1.828,0,1,1,1.828,1.828A1.828,1.828,0,0,1,80.08,68.723Z" transform="translate(-80.08 -66.895)" fill="#455a64"/></g><g transform="translate(14.225)"><path d="M81.834,59.916s-2.962-5.7-1.828-8.388,3.275-4.731,3.656-3.334S81.834,59.916,81.834,59.916Z" transform="translate(-79.747 -47.742)" fill="#455a64"/></g><g transform="translate(6.958 2.311)"><path d="M77.081,61.446s-5.746-2.87-6.409-5.711-.132-5.753,1-4.846S77.081,61.446,77.081,61.446Z" transform="translate(-70.382 -50.719)" fill="#455a64"/></g><g transform="translate(0.819 9.932)"><path d="M73.668,65.9s-6.336,1.055-8.542-.854-3.488-4.577-2.041-4.508S73.668,65.9,73.668,65.9Z" transform="translate(-62.471 -60.541)" fill="#455a64"/></g><g transform="translate(0 18.086)"><path d="M73.432,71.049s-4.505,4.578-7.412,4.331-5.512-1.653-4.3-2.447S73.432,71.049,73.432,71.049Z" transform="translate(-61.415 -71.049)" fill="#455a64"/></g><g transform="translate(5.23 20.344)"><path d="M76.582,73.959s-.954,6.352-3.451,7.861-5.431,1.9-4.917.548S76.582,73.959,76.582,73.959Z" transform="translate(-68.155 -73.959)" fill="#455a64"/></g><g transform="translate(14.44 21.207)"><path d="M81.9,75.071s2.962,5.7,1.828,8.388-3.275,4.732-3.656,3.334S81.9,75.071,81.9,75.071Z" transform="translate(-80.023 -75.071)" fill="#455a64"/></g><g transform="translate(18.967 20.344)"><path d="M85.857,73.959s5.746,2.87,6.409,5.711.132,5.753-1,4.846S85.857,73.959,85.857,73.959Z" transform="translate(-85.857 -73.959)" fill="#455a64"/></g><g transform="translate(20.608 17.795)"><path d="M87.972,70.965s6.336-1.056,8.542.854S100,76.4,98.555,76.326,87.972,70.965,87.972,70.965Z" transform="translate(-87.972 -70.674)" fill="#455a64"/></g><g transform="translate(20.608 10.954)"><path d="M87.972,66.2s4.505-4.578,7.412-4.331,5.512,1.653,4.3,2.447S87.972,66.2,87.972,66.2Z" transform="translate(-87.972 -61.859)" fill="#455a64"/></g><g transform="translate(18.967 3.8)"><path d="M85.857,61.875s.954-6.352,3.452-7.861,5.43-1.9,4.917-.548S85.857,61.875,85.857,61.875Z" transform="translate(-85.857 -52.638)" fill="#455a64"/></g></g></g><g transform="translate(-54.902 251.157)"><path d="M378.182,282.282c5.115-3.646,5.078-13.1-1.422-15.122,4.487-4.495,3.129-14.173-3.374-14.772,1.591-3.972.809-9.408-4.292-10.411,1.616-4.869-2.89-8.246-7.408-6.5-.2-5.132-7.466-5.427-9.1-1.814.089-1.987-2.887-5.666-4.8-5.675,3.3-2.58,2.385-7.75-.442-8.437,3.846-2.918,1.786-9.576-2.808-9.512,3.081-4.855-3.49-9.927-7.573-8.431,2.312-5.457-8.491-9.8-10.83-4.016-4.135-6.809-18.31-2.8-16.415,6.052a3.375,3.375,0,0,0-2.51,6.015,4.884,4.884,0,0,0-6.656,1.448,2.62,2.62,0,0,0-2.181-3.416c4.5-1.824,1.345-8.5-2.8-8.242,3.921-5.036-4.033-10.889-8.26-6.894-1.965-4.622-8.99-3.649-8.527,1.771-1.56-2.823-4.62-2.624-7.133-1.114-3.468,2.084-3,5.794-1.1,8.8-1.44-1.719-5.831-2.665-6.5.179a3.434,3.434,0,0,0-4.954-.565c-1.3-4.664-9.645-5.273-11.225.474.237-.861-3.823.138-4.127.34a3.709,3.709,0,0,0-1.558,4.1,3.442,3.442,0,0,0-4.69,4.25,5.243,5.243,0,0,0-3.62-.741,3.011,3.011,0,0,0-2.434,2.544c-1.268-1.638-3.94-1.668-5.579-.4a6.753,6.753,0,0,0-2.279,5.537c-1.268-1.473-4.245-2.581-5.4-.314a4.19,4.19,0,0,0-5.913.306,3.133,3.133,0,0,0-5.3-.59,3.169,3.169,0,0,0-3.008-2.1,4.391,4.391,0,0,0-3.364,1.761c-1.491-3.33-6.077-1.452-6.264.846-.7-1.011-1.709-2.2-3.011-2.256a3.439,3.439,0,0,0-3.126,1.816,3.871,3.871,0,0,0-7.155,1.594,4.165,4.165,0,0,0-3.251-3.028,4.1,4.1,0,0,0-4.059,1.787,3.615,3.615,0,0,0-2.936-2.787,5.4,5.4,0,0,0-4.058,1.066,5.108,5.108,0,0,0-1.511-4.152,2.913,2.913,0,0,0-4.076.2,5.668,5.668,0,0,0-2.939-3.562,4.329,4.329,0,0,0-2.166-.875c-.268-.018-2.167.052-2.191.44.206-3.187-1.917-8.1-5.947-5.776-1.579-5.748-9.926-5.139-11.225-.475a3.434,3.434,0,0,0-4.954.565c-.668-2.845-5.059-1.9-6.5-.179,1.908-3.005,2.372-6.716-1.1-8.8-2.513-1.509-5.573-1.709-7.133,1.114.462-5.419-6.561-6.393-8.527-1.771-4.228-3.995-12.181,1.858-8.26,6.894-4.149-.262-7.3,6.417-2.8,8.242a2.619,2.619,0,0,0-2.181,3.416,4.882,4.882,0,0,0-6.656-1.448,3.375,3.375,0,0,0-2.51-6.015c1.895-8.852-12.28-12.86-16.415-6.052-2.339-5.782-13.142-1.441-10.83,4.016-4.082-1.5-10.653,3.577-7.573,8.431-4.594-.064-6.654,6.594-2.807,9.512-2.828.688-3.739,5.857-.442,8.437-1.908.008-4.883,3.687-4.8,5.675-1.637-3.613-8.905-3.318-9.1,1.814-4.519-1.748-9.025,1.628-7.408,6.5-5.1,1-5.883,6.439-4.292,10.411-6.5.6-7.86,10.277-3.374,14.772-6.5,2.026-6.537,11.477-1.421,15.122-3.386,1.616-3.722,9.473,1.8,11.643q-.214.191-.408.4c-3.249,3.468-.534,9.182,4.219,9.182H372.571c4.752,0,7.468-5.714,4.219-9.182-.13-.138-.265-.272-.408-.4C381.9,291.755,381.568,283.9,378.182,282.282Z" transform="translate(-13.944 -189.607)" fill="#0b481e"/><g transform="translate(0.004 11.86)"><path d="M80.1,219.316a5.208,5.208,0,0,1,7.349-.438,5.068,5.068,0,0,1,.961,1.158,5.2,5.2,0,0,1,8.427,2.986,6.193,6.193,0,0,0-10.3,1.229,4.2,4.2,0,0,1,.032-.89,5.182,5.182,0,0,1,.7-2.008,5.2,5.2,0,0,0-.539-.564,6.176,6.176,0,0,0-7.16-.754A4.209,4.209,0,0,1,80.1,219.316Z" transform="translate(-28.65 -207.731)" fill="#37474f"/><path d="M146.3,207.87a4.016,4.016,0,0,0-5.669-.338,3.912,3.912,0,0,0-.741.893,4.009,4.009,0,0,0-6.5,2.3,4.776,4.776,0,0,1,7.943.947,3.259,3.259,0,0,0-.024-.687,4,4,0,0,0-.542-1.549,4,4,0,0,1,.416-.435,4.764,4.764,0,0,1,5.523-.582A3.289,3.289,0,0,0,146.3,207.87Z" transform="translate(-40.707 -205.256)" fill="#37474f"/><path d="M17.611,285.706c-3.386,1.616-3.722,9.473,1.8,11.643-.143.127-.279.261-.408.4-3.249,3.469-.533,9.182,4.219,9.182H27.87a6.442,6.442,0,0,1,5.339-3.772c-1.531-1.317-3.837-2.655-4.754-4.507-.327-.66-1-5.077.534-5.058a4.474,4.474,0,0,1-4.255-4.079c-.1-1.8.92-3.459,1.9-4.977a6.633,6.633,0,0,1-2.407-10.869,1.865,1.865,0,0,0,.486-.635c.228-.639-.364-1.242-.816-1.747a5.642,5.642,0,0,1,3.4-9.344A5.566,5.566,0,0,1,33.1,254c-1.245-1.975-.174-4.8,1.811-6.031a8.5,8.5,0,0,1,6.781-.5,4.353,4.353,0,0,1,1.893-4.766,5.88,5.88,0,0,1,5.293-.344c-.405-3.265,2.259-5.464,5.177-6.014.846-.159,3.483-.485,4.077.329-2.121-2.907,1.269-7.843,4.61-5.264-1.693-1.89-2.707-2.842-4.591-3.2a5.637,5.637,0,0,0-4.238.715c-1.5-2.023-1.017-7.013,2.735-7.486-2.74-3.241-1.05-6.939,2.634-8.183-1.55-.762-3.888-1.079-4.75-2.9-.963-2.031.241-4,1.564-5.469-3.647.732-7.286,4.72-4.84,8.575-4.594-.064-6.654,6.594-2.808,9.512-2.827.688-3.738,5.857-.442,8.437-1.908.008-4.883,3.687-4.795,5.675-1.637-3.613-8.905-3.318-9.1,1.814-4.519-1.748-9.025,1.628-7.408,6.5-5.1,1-5.883,6.439-4.292,10.411-6.5.6-7.86,10.277-3.374,14.772C12.533,272.609,12.5,282.06,17.611,285.706Z" transform="translate(-13.949 -204.891)" fill="#37474f"/></g><g transform="translate(261.897 11.859)"><path d="M416.919,219.316a5.208,5.208,0,0,0-7.349-.438,5.067,5.067,0,0,0-.961,1.158,5.2,5.2,0,0,0-8.428,2.986,6.193,6.193,0,0,1,10.3,1.229,4.2,4.2,0,0,0-.032-.89,5.181,5.181,0,0,0-.7-2.008,5.19,5.19,0,0,1,.539-.564,6.176,6.176,0,0,1,7.16-.754A4.166,4.166,0,0,0,416.919,219.316Z" transform="translate(-362.365 -207.73)" fill="#0b481e"/><path d="M351.854,207.87a4.016,4.016,0,0,1,5.669-.338,3.911,3.911,0,0,1,.741.893,4.009,4.009,0,0,1,6.5,2.3,4.776,4.776,0,0,0-7.943.947,3.259,3.259,0,0,1,.024-.687,4,4,0,0,1,.542-1.549,3.984,3.984,0,0,0-.416-.435,4.763,4.763,0,0,0-5.523-.582A3.38,3.38,0,0,1,351.854,207.87Z" transform="translate(-351.448 -205.255)" fill="#0b481e"/><path d="M429.787,236.675c.594-.814,3.231-.488,4.077-.329A5.706,5.706,0,0,1,438.2,243.8a4.608,4.608,0,0,1,5.108,6.644c3.353-.753,8.5-.167,11.124,2.371a4.506,4.506,0,0,1,.9,5.468c.2-.313,2.842-.344,5.015,1a5.017,5.017,0,0,1,2.243,3.968,8.213,8.213,0,0,1-1.542,5c.173-.333,2.205,1.082,2.388,1.252a5.132,5.132,0,0,1,1.429,2.232,2.787,2.787,0,0,1-2.432,3.479,7.56,7.56,0,0,1,3.356,2.638,4.2,4.2,0,0,1,.372,4.115c-.872,1.691-2.934,2.313-4.78,2.772a5.248,5.248,0,0,1,1.313,4.669,3.627,3.627,0,0,1-3.722,2.744,5.012,5.012,0,0,1-2.368,9.241c.932-.057,1.637,1.886,1.872,2.5.427,1.113,1.011,1.91,1.57,3.036H464.7c4.752,0,7.468-5.714,4.219-9.182-.13-.138-.265-.272-.408-.4,5.519-2.17,5.183-10.026,1.8-11.643,5.115-3.646,5.078-13.1-1.422-15.122,4.486-4.494,3.129-14.173-3.374-14.772,1.591-3.971.809-9.408-4.293-10.411,1.616-4.869-2.89-8.246-7.408-6.5-.2-5.132-7.466-5.427-9.1-1.814.088-1.987-2.887-5.666-4.795-5.675,3.3-2.58,2.385-7.75-.442-8.437,3.847-2.918,1.786-9.576-2.808-9.512,2.447-3.855-1.193-7.844-4.84-8.575,1.323,1.472,2.527,3.438,1.564,5.469-.861,1.817-3.2,2.134-4.75,2.9,3.684,1.244,5.374,4.941,2.634,8.183,3.752.473,4.237,5.463,2.735,7.486a5.64,5.64,0,0,0-4.238-.715c-1.883.358-2.9,1.31-4.592,3.2C428.518,228.832,431.907,233.768,429.787,236.675Z" transform="translate(-367.965 -204.89)" fill="#0b481e"/></g></g><g transform="translate(-57.156 274.323)"><ellipse cx="185.077" cy="102.187" rx="185.077" ry="102.187" fill="#afafaf"/><path d="M185.077,0C287.293,0,370.155,45.751,370.155,102.187S287.293,204.374,185.077,204.374,0,158.623,0,102.187,82.862,0,185.077,0Z" fill="#adce32" opacity="0.7"/></g><path d="M268.345,68.482c-.01-3.372-3.7-5.714-7.882-6.109-4.93-.465-8.428,1.733-8.545,5.616-3.224-1.324-6.623-.474-6.368,3.07-.838-.967-3.976-.94-5.1-.67a4.415,4.415,0,0,0-2.808,2.393,3.257,3.257,0,0,0-.292,1.814c-1.88-.616-6.154-.992-7.223.732-1.9,3.069,5.7,3.165,7.232,2.238.324,2.388,8.495,2.78,10.473.577,1.546,1.557,3.765,1.9,6.161,2.042,4.042.241,6.521-1.128,9.674-2.739,3.428,2.907,9.36,2.96,12.448-.365.788.743,2.959.974,4.7.559,1.142-.272,1.406-.759,1.406-.759a9.931,9.931,0,0,0,2.1.63c2.241.469,6.411-.026,4.661-2.045a5.264,5.264,0,0,0-3.7-.91c-.978-1.924-4.9-3.745-7.154-2.119-.087-2.329-2.217-4.152-5.214-4.615C271.9,67.666,269.491,67.53,268.345,68.482Z" transform="translate(-117.206 90.066)" fill="#f5f5f5"/><path d="M178.085,104.007c-.012-4.1-4.5-6.952-9.587-7.432-6-.566-10.252,2.108-10.4,6.831-3.922-1.61-8.057-.577-7.747,3.735-1.02-1.176-4.837-1.143-6.207-.815a5.372,5.372,0,0,0-3.417,2.911,3.972,3.972,0,0,0-.355,2.207c-2.287-.749-7.487-1.207-8.787.89-2.315,3.734,6.933,3.85,8.8,2.722.395,2.9,10.334,3.382,12.74.7,1.88,1.893,4.58,2.312,7.494,2.485,4.917.293,7.933-1.373,11.769-3.332,4.17,3.536,11.386,3.6,15.143-.444.959.9,3.6,1.185,5.715.68,1.389-.331,1.71-.923,1.71-.923a12.123,12.123,0,0,0,2.551.767c2.726.571,7.8-.032,5.671-2.488-.725-.836-3.379-1.366-4.5-1.107-1.19-2.34-5.963-4.556-8.7-2.578-.106-2.834-2.7-5.05-6.343-5.613C182.412,103.014,179.479,102.85,178.085,104.007Z" transform="translate(-95.118 82.407)" fill="#f5f5f5"/><ellipse cx="39.134" cy="22.594" rx="39.134" ry="22.594" transform="translate(188.609 326.426)" fill="#636363" opacity="0.2"/><path d="M78.357,291.444,242.6,386.253l7.972-4.695L86.343,286.742Z" transform="translate(-83.276 39.79)" fill="#636363" opacity="0.2"/><path d="M39.473,369.341l70.211,40.536c16.748,9.67,43.9,9.67,60.652,0L178.1,405.4c16.748-9.67,16.741-25.335-.016-34.99l-70.316-40.512c-16.757-9.655-43.918-9.642-60.667.027l-7.626,4.4C22.724,343.994,22.724,359.671,39.473,369.341Z" transform="translate(-71.751 31.743)" fill="#636363" opacity="0.2"/><path d="M263.465,358.226l33.57,19.382c8.008,4.623,20.991,4.623,29,0l3.711-2.142c8.008-4.623,8-12.113-.008-16.729l-33.619-19.37c-8.012-4.616-21-4.61-29.006.013l-3.646,2.105C255.457,346.107,255.457,353.6,263.465,358.226Z" transform="translate(-123.398 28.776)" fill="#636363" opacity="0.2"/><path d="M188.652,261.668l39.362,22.726c9.39,5.421,24.613,5.421,34,0l4.352-2.513c9.389-5.421,9.386-14.2-.009-19.617l-39.421-22.712c-9.395-5.412-24.623-5.406-34.012.016l-4.276,2.468C179.263,247.457,179.263,256.247,188.652,261.668Z" transform="translate(-106.406 51.27)" fill="#636363" opacity="0.2"/><g transform="translate(159.457 155.303)"><g transform="translate(37.155 78.156)"><path d="M366.158,283.09l.907-9.756-12.948-1.664s.532,5,.785,8.969c.236,3.7-.4,5.259-1.668,7.348a17.794,17.794,0,0,1-7.976,6.162c-3.526,1.4-6.881,3.286-5.922,5.306s6.23,2.945,8.524,2.465,7.394-3.184,10-5.1,6.881-2.821,7.874-3.242,1.232-1.824,1.2-4.152A50.849,50.849,0,0,0,366.158,283.09Z" transform="translate(-338.314 -190.292)" fill="#ffa686"/><path d="M352.406,166.8c-.46,6.622-.086,25.432.386,39.308.223,6.545,1.4,15.842,1.638,18.755.662,8.21,2.485,27,2.485,27s6.891,2.735,13.069.3c1.044-10.305,4.682-24.946,1.942-33.707l5.09-51.662Z" transform="translate(-341.232 -166.8)" fill="#455a64"/><path d="M371.014,225.054c-.291-2.62.291-27.1.3-27.351l-.557-.013c-.024,1.01-.589,24.769-.294,27.426a23.863,23.863,0,0,0,.472,2.471,45.906,45.906,0,0,1,1.2,12.818c-.183,5.5-.526,13.876-.759,19.431q.28-.05.563-.112c.233-5.555.572-13.847.753-19.3a46.4,46.4,0,0,0-1.214-12.958A23.719,23.719,0,0,1,371.014,225.054Z" transform="translate(-345.305 -173.72)" fill="#37474f"/><path d="M373.49,222.665l2.518-27.713c-8.942-1.228-15.188-5.7-16.829-9.388a13.115,13.115,0,0,0,7.906,9.808s2.074,17.029,3.07,23,2.291,8.956,3.984,18.677C374.665,231.69,374.716,226.589,373.49,222.665Z" transform="translate(-342.797 -171.004)" fill="#37474f"/><g transform="translate(0 92.178)"><path d="M338.442,305.41a2.734,2.734,0,0,0,.56,2.753,11.876,11.876,0,0,0,8.682,1.825c4.285-.618,6.59-1.977,8.284-3.435s4.072-3.514,6.007-3.971c1.8-.424,4.718-1.481,5.287-2.045s.449-3.031.449-3.031Z" transform="translate(-338.115 -288.259)" fill="#263238"/><path d="M365.98,286.208a1.31,1.31,0,0,1,.7.829c.143.678.163,1.55.465,2.662a19.884,19.884,0,0,1,.518,5.991c-.216,1.268-4.117,2.406-5.986,3.147a23.911,23.911,0,0,0-6.029,3.922,17.761,17.761,0,0,1-9.008,3.5c-4.272.128-7.057-.983-7.935-2.5a3.65,3.65,0,0,1,.969-4.2,24.036,24.036,0,0,1,5.148-3.073c2.779-1.417,5.887-3.165,7.625-5.831a6.809,6.809,0,0,0,1.109-3.828,1.4,1.4,0,0,1,.074-.629,1.225,1.225,0,0,1,.975-.532c2.089-.341,3.937.557,5.9,1.27a2.265,2.265,0,0,1,1.2.781c.535.834-.123,1.941.062,2.915a.5.5,0,0,0,.064.182c.134.2.447.151.655.029.753-.444.965-1.409,1.4-2.165a3.7,3.7,0,0,1,1.467-1.411,4.578,4.578,0,0,1,.587-.238S366,286.218,365.98,286.208Z" transform="translate(-338.137 -285.589)" fill="#37474f"/><path d="M342.621,301.027a8.626,8.626,0,0,1,8.332,7.7,14.669,14.669,0,0,1-4.377.986c-4.272.128-7.232-.979-8.111-2.494C337.438,305.451,338.261,302.751,342.621,301.027Z" transform="translate(-338.067 -289.047)" fill="#fafafa"/><g transform="translate(7.528 4.098)"><g transform="translate(0 5.574)"><path d="M353.322,301.115a.3.3,0,0,0,.226-.494c-.878-1.037-3.269-2.817-5.513-2.539a.3.3,0,1,0,.074.6c2.1-.254,4.282,1.508,4.978,2.33A.3.3,0,0,0,353.322,301.115Z" transform="translate(-347.769 -298.053)" fill="#f0f0f0"/></g><g transform="translate(2.639 3.987)"><path d="M356.723,299.071a.3.3,0,0,0,.226-.494c-.878-1.037-3.272-2.821-5.513-2.539a.3.3,0,1,0,.074.6c2.094-.257,4.282,1.508,4.978,2.33A.3.3,0,0,0,356.723,299.071Z" transform="translate(-351.17 -296.007)" fill="#f0f0f0"/></g><g transform="translate(5.079 2.185)"><path d="M359.867,296.749a.3.3,0,0,0,.226-.5c-.878-1.038-3.279-2.819-5.513-2.539a.3.3,0,1,0,.074.6c2.092-.254,4.282,1.508,4.978,2.33A.306.306,0,0,0,359.867,296.749Z" transform="translate(-354.314 -293.685)" fill="#f0f0f0"/></g><g transform="translate(6.819)"><path d="M362.621,293.958a.3.3,0,0,0,.229-.491,7.471,7.471,0,0,0-6.029-2.561.3.3,0,1,0,.074.6,6.925,6.925,0,0,1,5.488,2.345A.3.3,0,0,0,362.621,293.958Z" transform="translate(-356.556 -290.869)" fill="#f0f0f0"/></g></g></g><path d="M357.9,272.918c2.5,1.765,9.635,3.4,13.737.552l-.709,5.178c-2.469,1.628-9.761,2.292-12.645-.975Z" transform="translate(-342.511 -190.572)" fill="#37474f"/><g transform="translate(23.787 1.037)"><g transform="translate(0 2.098)"><path d="M400,294.67l.255-11.443-12.825.479,1.889,11.572s.743,4.7.9,5.833a92.109,92.109,0,0,1,.677,9.792c.052,4.318.275,8.319,1.457,10.3s2.473,2.3,4.406,1.645A8.419,8.419,0,0,0,401.8,316.6c.739-3.426-.286-8.493-.712-9.651S400.07,298.9,400,294.67Z" transform="translate(-372.913 -196.017)" fill="#ffa686"/><path d="M394.084,170.973l-25.363-.133c.831,6.373,6.709,49.677,8.02,56.992s7.064,36.013,7.064,36.013,1.361,2.149,5.682,1.885c4.851-.3,6.725-2.259,6.725-2.259s.942-15.41,1.038-24.474a58.732,58.732,0,0,0-2.163-16.914s.641-16.5.625-27.525S395.648,179.984,394.084,170.973Z" transform="translate(-368.721 -170.84)" fill="#455a64"/><g transform="translate(16.062 98.653)"><path d="M390.578,324.986a13.992,13.992,0,0,0,1.626,6.831,4.492,4.492,0,0,0,5.142,1.9c2.066-.486,4.724-1.831,5.353-4.429a16.448,16.448,0,0,0,.573-7.193Z" transform="translate(-389.679 -303.376)" fill="#263238"/><path d="M400.447,297.973c.847.08.563,4.085.991,8.158.459,4.366,1.065,6.1,1.481,9.685.475,4.091-.231,5.9-1.7,8.348s-6.593,4.782-9.047,1.207c-2-2.915-2.037-6.112-1.791-10.186a58.773,58.773,0,0,0-.413-10.236c-.307-3.3-.939-6.039-.2-6.368,0,0,.493,2.515.683,3.036.083.229.4.8.546-.049.043-.252-.027-.838,0-1.089a1.075,1.075,0,0,1,.785-.965,8.183,8.183,0,0,1,3.626-.73,9.8,9.8,0,0,1,4.009.474c.552.293.529.819.582,1.336.063.615.067,1,.22.875C400.523,301.228,400.352,298.408,400.447,297.973Z" transform="translate(-389.42 -297.973)" fill="#37474f"/><path d="M403.379,323.644a10.137,10.137,0,0,1-1.678,6.177c-1.473,2.444-7,4.783-9.457,1.207a11.577,11.577,0,0,1-1.664-5.988C392.122,322.339,401.045,321.285,403.379,323.644Z" transform="translate(-389.679 -303.431)" fill="#fafafa"/><g transform="translate(1.831 6.645)"><g transform="translate(0.643 8.969)"><path d="M392.95,319.681a.317.317,0,0,0,.1-.027,14.473,14.473,0,0,1,7.791-.624.318.318,0,0,0,.381-.229.314.314,0,0,0-.231-.379,14.857,14.857,0,0,0-8.2.662.314.314,0,0,0-.154.416A.32.32,0,0,0,392.95,319.681Z" transform="translate(-392.608 -318.095)" fill="#f0f0f0"/></g><g transform="translate(0.449 5.763)"><path d="M400.646,315.059a.313.313,0,0,0,.079-.608c-3.784-1.346-8.033.511-8.194.591a.31.31,0,0,0-.138.42.32.32,0,0,0,.422.139c.036-.018,4.177-1.816,7.7-.56A.324.324,0,0,0,400.646,315.059Z" transform="translate(-392.359 -313.963)" fill="#f0f0f0"/></g><g transform="translate(0.225 2.796)"><path d="M400.489,311.331a.312.312,0,0,0,.084-.6,11.158,11.158,0,0,0-8.348.565.312.312,0,0,0-.112.428.316.316,0,0,0,.431.112,10.741,10.741,0,0,1,7.808-.519A.337.337,0,0,0,400.489,311.331Z" transform="translate(-392.07 -310.14)" fill="#f0f0f0"/></g><path d="M400.258,307.7a.313.313,0,0,0,.089-.6c-3.9-1.526-8.243.56-8.405.651a.313.313,0,1,0,.306.547c.038-.02,4.25-2.034,7.87-.616A.321.321,0,0,0,400.258,307.7Z" transform="translate(-391.78 -306.537)" fill="#ebebeb"/></g></g></g><path d="M387.175,286.014c2.622,1.5,9.756,2.391,13.475-.861l-.171,5.223c-2.248,1.873-9.3,3.282-12.451.328Z" transform="translate(-372.855 -194.35)" fill="#37474f"/><path d="M398.955,228.719c-.172-1.414-.338-2.534-.5-3.616-.535-3.616-1.041-7.031-1.724-20.685-.257-5.142-.279-9.1-.3-12.6a95.8,95.8,0,0,0-1.916-21.47l-.569,0a92.006,92.006,0,0,1,1.921,20.206c-3.386-.141-5.319-3.391-6.067-10.212-.791-7.217-1.592-12.153-1.6-12.2l-.549.089c.008.049.807,4.972,1.6,12.173.774,7.068,2.946,10.57,6.624,10.708,0,.237,0,.471,0,.712.019,3.5.041,7.471.3,12.625.684,13.681,1.192,17.109,1.729,20.739.16,1.079.325,2.2.5,3.6a205.165,205.165,0,0,1,1.107,32.432l.557.022A205.526,205.526,0,0,0,398.955,228.719Z" transform="translate(-372.962 -168.136)" fill="#37474f"/></g></g><g transform="translate(46.665)"><path d="M374.629,85.6c5.523,2.414,11.544.532,13.445-4.205s-1.034-10.532-6.557-12.946-11.544-.532-13.445,4.205S369.105,83.187,374.629,85.6Z" transform="translate(-354.168 -66.376)" fill="#adce32"/><path d="M377.879,69.553c-11.412-5.638-23.362-4.263-26.691,3.069s3.224,17.845,14.637,23.483,23.362,4.263,26.691-3.069S389.292,75.19,377.879,69.553Z" transform="translate(-350.322 -66.082)" fill="#adce32"/><path d="M377.879,69.553c-11.412-5.638-23.362-4.263-26.691,3.069s3.224,17.845,14.637,23.483,23.362,4.263,26.691-3.069S389.292,75.19,377.879,69.553Z" transform="translate(-350.322 -66.082)" fill="#adce32" opacity="0.3"/><path d="M384.677,92.665a6.37,6.37,0,0,1-4.358,3.376,9.762,9.762,0,0,1-1.039.22,16.865,16.865,0,0,1-9.929-1.833c-6.549-3.232-10.309-9.271-8.4-13.481a5.757,5.757,0,0,1,2.731-2.749c3.075-1.581,7.91-1.321,12.588.992a17.494,17.494,0,0,1,7.853,7.224A7.119,7.119,0,0,1,384.677,92.665Z" transform="translate(-352.592 -68.572)" fill="#adce32" opacity="0.3"/></g><g transform="translate(0 33.494)"><path d="M311.047,120.068c-2.028-1.294-2.589-2.827-3.618-4.125-1.306-1.647-2.922-2.675-5.284-4.634-.405-.336-.814-.667-1.224-1a5.739,5.739,0,0,1-.58-.5c-.165-.174-.312-.315-.589-.175a.9.9,0,0,0-.4.5,2.52,2.52,0,0,0,.236,2.058,12.159,12.159,0,0,0,1.259,1.716c.336.429-.3.447-.6.412-1.467-.172-4.006-3.293-5.138-4.172-.513-.4-.835-1.094-1.591-.863a4.069,4.069,0,0,1-.756.23,3.222,3.222,0,0,1-.823-.1,1.83,1.83,0,0,0-1.205.178,1.055,1.055,0,0,0-.546,1.025c.053.317.289.592.286.915a3.081,3.081,0,0,1-.081.446c-.109.668.385,1.254.693,1.852.266.516.324,1.089.56,1.612a10.776,10.776,0,0,0,.833,1.616,21.552,21.552,0,0,0,2.751,3.245,14.62,14.62,0,0,0,4.982,2.79,9.465,9.465,0,0,1,4.144,2.305c2.07,1.8,9.846,8.576,13.348,10.961,4.242,2.889,5.461,3.807,10.66,1.415,3.448-1.587,15.65-9.566,15.65-9.566l4.08-13.581s-5.1-1.783-12.406,3.729c-5.232,3.95-11.395,8.583-11.395,8.583S312.767,121.166,311.047,120.068Z" transform="translate(-290.185 -109.245)" fill="#ffa686"/><path d="M341.132,136.27c7.92-4.623,10.6-6.2,10.6-6.2l0-16.2c-2.359.338-4.356,1.828-6.635,3.527-2.891,2.153-13.048,10.39-13.048,10.39l-2.8-1.138a15.556,15.556,0,0,1-1.308,5.519,9.383,9.383,0,0,1-3.864,4.584s4.062,3.445,6.072,3.719S333.213,140.894,341.132,136.27Z" transform="translate(-297.777 -110.281)" fill="#37474f"/><path d="M334.348,131.59c1.448.584,3.538,3.228,3.632,5.841a6.319,6.319,0,0,0-2.717-6.582Z" transform="translate(-300.079 -114.084)" fill="#263238"/><path d="M329.55,131.248a2.618,2.618,0,0,0-1.637-2.4c-1.669-.842-3.686-2.162-4.162-1.335l1.267.608a10.67,10.67,0,0,1-1.448,4.654c-2.277,3.947-4.273,4-4.273,4l-.889-.73s-.512.353.416,1.314A15.125,15.125,0,0,0,323,140.181c1.6.429,3.635-1.577,4.766-3.457C329.658,133.573,329.595,132.145,329.55,131.248Z" transform="translate(-296.476 -113.279)" fill="#455a64"/><path d="M304.284,117.355c-.449,2.281,1.5,4.652,2.689,5.457a5.744,5.744,0,0,1-2.764-2.244A2.886,2.886,0,0,1,304.284,117.355Z" transform="translate(-293.228 -111.062)" fill="#b16668"/></g><g transform="translate(47.97 35.456)"><path d="M378.626,111.773c2,.5,5.529,1.652,8.985,2.677,2.021.6,3.025,1.737,4.795,2.717a76.517,76.517,0,0,1-1.332,17.221A70.472,70.472,0,0,0,389.946,148c.175,6.418.679,8.716,1.077,14.007,0,0-6.336,6.372-23.885,5.335-11.713-.692-15.134-5.884-15.134-5.884s-.028-19.375.267-28c.388-11.332,2.827-18.149,5.715-20.05l8.432-1.5Z" transform="translate(-352.004 -111.773)" fill="#adce32"/></g><g transform="translate(54.755 8.624)"><path d="M384.915,88.189c-.147.869-.358,1.855-.629,2.971a24.568,24.568,0,0,1-1.11,3.507,35.553,35.553,0,0,1-1.64,3.31,3.022,3.022,0,0,1-1.713,1.443l-.006-3.242v-1.45l.08-3.273s-2.7-2.318-2.99-4.661a9.081,9.081,0,0,1,.037-2.62l-15.719,1.461a11.2,11.2,0,0,1-.444-4.056,6.054,6.054,0,0,1,.241-.635,5.764,5.764,0,0,1,2.731-2.749c3.076-1.578,7.909-1.319,12.587.992a17.516,17.516,0,0,1,7.854,7.224A9.754,9.754,0,0,1,384.915,88.189Z" transform="translate(-360.748 -77.196)" fill="#37474f"/><path d="M384.2,96.735c-2.4,1.249-3.523-.632-3.523-.632l-.02,9.263c-4.529,6.361-17.119,4.866-12.143.05l-.051-2.207a14.533,14.533,0,0,1-2.11-.147c-2.16-.28-3.558-1.952-4.263-4.264a32.577,32.577,0,0,1-.428-14.831,4.027,4.027,0,0,1,1.7-2.933c2.548-1.348,4.986.427,8.622,1.73,1.506.54,5.126.7,6.067.222-1.217,1.42-1.086,5.8.813,7.522a4.049,4.049,0,0,0,.96,1.181c.805.663,1.4-1.121,2.044-1.831a2.711,2.711,0,0,1,4.242.854A4.417,4.417,0,0,1,384.2,96.735Z" transform="translate(-360.81 -77.947)" fill="#ffa686"/><path d="M372.339,99.451l-3.329.55a1.658,1.658,0,0,0,1.9,1.443A1.767,1.767,0,0,0,372.339,99.451Z" transform="translate(-362.599 -82.181)" fill="#b16668"/><path d="M372.308,100.118a1.866,1.866,0,0,1,.408.025,1.744,1.744,0,0,1-1.411,1.45,1.6,1.6,0,0,1-.541-.009A1.546,1.546,0,0,1,372.308,100.118Z" transform="translate(-362.992 -82.33)" fill="#ffa8a7"/><g transform="translate(1.701 6.493)"><path d="M374.5,87.637l2.4.967a1.359,1.359,0,0,0-.743-1.728A1.264,1.264,0,0,0,374.5,87.637Z" transform="translate(-365.53 -85.837)" fill="#37474f"/><path d="M362.991,87.289l2.485-.794a1.252,1.252,0,0,0-1.6-.871A1.37,1.37,0,0,0,362.991,87.289Z" transform="translate(-362.941 -85.563)" fill="#37474f"/><path d="M375.643,90.927a1.055,1.055,0,1,1-1.047-1.064A1.055,1.055,0,0,1,375.643,90.927Z" transform="translate(-365.313 -86.526)" fill="#263238"/><path d="M365.442,90.193a1.055,1.055,0,1,1-1.047-1.064A1.055,1.055,0,0,1,365.442,90.193Z" transform="translate(-363.028 -86.362)" fill="#263238"/><path d="M369.581,88.406l-.685,6.739-3.583-1.212A15.734,15.734,0,0,1,369.581,88.406Z" transform="translate(-363.472 -86.2)" fill="#b16668"/></g><path d="M378.868,92.552c-.333,4.592-1.907,5.09-3.563,5.1-2.339.02-3.218-1.234-7.089-1.332-2.349-.056-3.146.69-4.5,1.2-1,.383-1.755.519-2.106-.375a15.517,15.517,0,0,1-.622-4.987A37.011,37.011,0,0,0,361,99.707a8.186,8.186,0,0,0,2.182,5.086c1.621,1.436,5.067,2.1,9.419,1.245,4.29-.838,6.035-2.607,6.59-4.124C381,97,380.39,94.628,380.982,93.7S378.868,92.552,378.868,92.552Zm-8.019,10.442c-.974.1-1.7.148-1.713-.469a2.469,2.469,0,0,1,.172-1.38c.358-.407.241-.469-.733-.475-1,0-.961.172-.684.475.2.228.173.974.161,1.4-.019.469-.123.647-1.516.475-1.214-.142-1.495-1.249-1.427-3.11.049-1.252,1.1-2.323,3.609-2.31,2.207.006,3.438.849,3.506,2.365C372.32,102.134,371.681,102.9,370.849,102.994Z" transform="translate(-360.76 -80.549)" fill="#37474f"/></g><g transform="translate(80.766 1.311)"><path d="M438.566,159.769a33.2,33.2,0,0,1,3.563-.93c.913-.2,1.46.146,3.7,1.293,2.324,1.192,2.746,1.758,2.97,2.451a1.517,1.517,0,0,1-.551,1.692,1.33,1.33,0,0,1-.3,2.259,1.2,1.2,0,0,1-.423,1.962,1.634,1.634,0,0,1-1.1,2.279,24.04,24.04,0,0,1-3.549.581Z" transform="translate(-404.191 -88.16)" fill="#ffa686"/><g transform="translate(24.533)"><path d="M428.113,270.016l17.016-153.5-2.228-.248L425.884,269.783C425.818,270.664,428.035,270.87,428.113,270.016Z" transform="translate(-425.882 -78.634)" fill="#263238"/><path d="M447.155,138.011l2.63-24.028-2.9-.323-2.632,24.047C444.163,138.856,447.054,139.125,447.155,138.011Z" transform="translate(-429.996 -78.051)" fill="#adce32"/><path d="M445.375,105.631c-11.11-1.29-14.1-3.209-13.4-9.846.966-9.163,4.249-28.291,5.106-28.011.732.239-1.156,23.466-1.726,30.273a1.924,1.924,0,0,0,1.7,2.071l.106.012a1.924,1.924,0,0,0,2.133-1.644c.959-6.852,4.333-30.243,5.648-30.008s-.784,23.643-1.428,30.506a1.924,1.924,0,0,0,1.695,2.09h0a1.925,1.925,0,0,0,2.129-1.614c1.061-6.786,4.787-30.107,5.864-29.868s-1.2,23.442-1.895,30.291a1.923,1.923,0,0,0,1.694,2.1l.077.009a1.925,1.925,0,0,0,2.129-1.619c1.03-6.705,4.6-29.466,5.555-29.227,1.12.28-1.149,22.761-1.772,27.8C458.3,104.508,458.229,107.125,445.375,105.631Z" transform="translate(-427.226 -67.771)" fill="#455a64"/><path d="M443.525,172.825c-.438.024-1.133-.667-1.558-1.12s-.963-1-.935-1.4c.04-.564.831-.6.831-.6a2.836,2.836,0,0,1-.4-.334c-.511-.468.369-1.153,1.18-.881,0,0-.348-.192-.365-.419a1.032,1.032,0,0,1,1.078-1.033c-.578-.262-.406-1.072-.037-1.7a4.906,4.906,0,0,1,1.031.074C444.963,167.668,444.269,170.121,443.525,172.825Z" transform="translate(-429.276 -89.628)" fill="#ffa686"/><path d="M448.309,171.225a11.553,11.553,0,0,1-1.583.5,15.66,15.66,0,0,1-1.616.359,2.42,2.42,0,0,1-1.543-.329c-.5-.234-.986-.5-1.464-.787a9.105,9.105,0,0,0,1.394.927,2.5,2.5,0,0,0,1.644.39,12.558,12.558,0,0,0,1.628-.41A7.323,7.323,0,0,0,448.309,171.225Z" transform="translate(-429.516 -90.89)" fill="#b16668"/><path d="M443.1,169.264a12.266,12.266,0,0,0,1.422.577,2.051,2.051,0,0,0,.785.114,6.8,6.8,0,0,0,.758-.178,29.852,29.852,0,0,0,2.888-1.009c-.994.234-1.966.542-2.944.815a6.7,6.7,0,0,1-.723.189,2.272,2.272,0,0,1-.722-.081C444.08,169.572,443.6,169.4,443.1,169.264Z" transform="translate(-429.74 -90.396)" fill="#b16668"/><path d="M444.024,167.16a2.97,2.97,0,0,0,1.422.267,9.33,9.33,0,0,0,1.383-.429c.892-.348,1.78-.706,2.636-1.14-.919.278-1.81.625-2.707.951a11.837,11.837,0,0,1-1.339.466A3.6,3.6,0,0,1,444.024,167.16Z" transform="translate(-429.946 -89.744)" fill="#b16668"/></g><g transform="translate(18.725 67.181)"><path d="M418.664,162.855s5.838,2.175,9.569,3.61c2.853,1.093,2.9,1.508,3.862,2.454,1.062,1.056,4.131,1.2,4.131,1.2v-.005l.163-1.435a1.368,1.368,0,0,1-.426-.836.667.667,0,0,1,.578-.563l.026-.216c-.047-.036-.11-.089-.178-.152-.31-.294-.1-.657.289-.836l.137-1.208a8.8,8.8,0,0,0,1.177-1.408v-.011a3.218,3.218,0,0,0,.252-.573,3.3,3.3,0,0,1,.357,0,4.143,4.143,0,0,1,1.981.563,3.078,3.078,0,0,0,2.544,1.892c1.03-.032,1.02-.51.489-1.55a15.809,15.809,0,0,0-1.529-2.838A10.289,10.289,0,0,0,439,159.3c-.567-.226-1.067-.415-1.366-.531-.047-.016-.095-.036-.142-.047a6.089,6.089,0,0,0-3.221.026,5.506,5.506,0,0,1-3.058-.178c-.84-.226-6.929-4.22-6.929-4.22C419.48,155.861,417.662,158.722,418.664,162.855Z" transform="translate(-418.398 -154.346)" fill="#ffa686"/></g><path d="M436.541,169.652a7.464,7.464,0,0,0,3.8-.17.76.76,0,0,1,.395-.362l.137-1.208A5.275,5.275,0,0,1,436.541,169.652Z" transform="translate(-403.737 -90.204)" fill="#ffa686"/><path d="M399.025,115.7c5.613,1.325,7,3.975,9.777,13.614,2.384,8.276,3.715,12.091,3.715,12.091l6.362,4.037s-7.723,1.277-7.1,8.668A49.507,49.507,0,0,1,406.314,152c-4.142-1.8-4.814-2.736-6.085-6.573-1.623-4.9-3.368-9.741-3.368-9.741s-2.426-6.686-2.579-10.38a16.249,16.249,0,0,1,2.8-10.079Z" transform="translate(-394.267 -78.401)" fill="#37474f"/></g><path d="M420.592,151.521a13.717,13.717,0,0,1,4.024,2.389.669.669,0,0,1,.121,1.04l-.9-.532a8.212,8.212,0,0,0-4.463,2.907,8.492,8.492,0,0,0-1.7,4.859l.955.445a1.092,1.092,0,0,1-1.351.639c-1.944-.7-3.067-1.2-3.605-1.444s-2.922-1.006-.095-6.452A6.756,6.756,0,0,1,420.592,151.521Z" transform="translate(-317.524 -85.205)" fill="#455a64"/></g><g transform="translate(72.337 220.857)"><g transform="translate(62.077 35.34)"><g transform="translate(10.556 36.765)"><path d="M275.682,271.641a1.148,1.148,0,0,1-1.147.207,1.666,1.666,0,0,1-.549-.384c-1.12-1.313-.03-3.364-.922-4.841-.39-.646-1.121-1.068-1.384-1.776-.4-1.073.51-1.929.821-2.867a11.452,11.452,0,0,0,.352-1.468,21.7,21.7,0,0,0,.343-3.817,60.643,60.643,0,0,0-1.68-13.214l5.635,1.045s.02,7.826.338,12.887a10.743,10.743,0,0,0,1.372,5,15.978,15.978,0,0,0,3.216,4.08.869.869,0,0,1,.275.353.6.6,0,0,1-.37.669,2.63,2.63,0,0,1-.814.161,5.533,5.533,0,0,0-2.914,1.577c-.826.76-1.556,1.628-2.451,2.3C275.764,271.583,275.724,271.613,275.682,271.641Z" transform="translate(-271.517 -243.48)" fill="#455a64"/><path d="M277.085,265.58c-1.708-.867-3.312-1.65-3.029-3.789a38.723,38.723,0,0,0,.315-9.185,8.849,8.849,0,0,1,.315-4.633,15.079,15.079,0,0,0,1.852.3c.215,0,.434-.005.649-.023-.033-2.171-.036-3.729-.036-3.729l-5.635-1.045a60.644,60.644,0,0,1,1.68,13.214,21.708,21.708,0,0,1-.343,3.817,11.484,11.484,0,0,1-.352,1.468c-.31.938-1.22,1.795-.821,2.867.263.708.993,1.131,1.384,1.777.892,1.477-.2,3.528.922,4.841a1.686,1.686,0,0,0,.549.384,1.148,1.148,0,0,0,1.147-.207c.042-.029.083-.059.123-.088s.1-.088.155-.13a2.47,2.47,0,0,1,.891-2.832C278.755,267.174,278.793,266.447,277.085,265.58Z" transform="translate(-271.517 -243.48)" opacity="0.05"/><g transform="translate(2.066 22.991)"><path d="M280.909,274.937s1.44-2.041,3.272-1.811c4.774,3.049,2.137,6.5,2.137,6.5a8.508,8.508,0,0,1-3.7-1.856C280.777,276.215,280.909,274.937,280.909,274.937Z" transform="translate(-275.686 -273.108)" fill="#263238"/><path d="M275.713,279.272c-.878-.5-1.618-1.141-1.526-1.865a2.882,2.882,0,0,1,1.1-1.809,7.267,7.267,0,0,1,1.9-1.027,3.47,3.47,0,0,1,3.535.4,4.67,4.67,0,0,1,1.366,2.279,7.661,7.661,0,0,1,.123,4.155,20.2,20.2,0,0,1-4.189-1.121A15.7,15.7,0,0,1,275.713,279.272Z" transform="translate(-274.179 -273.37)" fill="#37474f"/></g></g><path d="M284.594,208.939a10,10,0,0,1-.21,1.14,4.17,4.17,0,0,1,1.416,5.489,2.669,2.669,0,0,1-.384,5,3,3,0,0,1-1.152,5.317,3.209,3.209,0,0,1-1.834,4.829,3.685,3.685,0,0,1-3.1,5.253,3.049,3.049,0,0,1-4.741,3.116,2.3,2.3,0,0,1-1.46,2.2,2.962,2.962,0,0,1-1.994.2c-.314-.134-.468-.566-.752-.67-.986-.362-2.028.369-3.123-.227a2.375,2.375,0,0,1-1.228-2.5,2.587,2.587,0,0,1-1.63-4.746,6.034,6.034,0,0,1-2.645-2.621c-.465-1.175.077-2.818,1.322-3.033a3.078,3.078,0,0,1-1.125-5.323,3.01,3.01,0,0,1-1.524-5.448c-.836-.382-1.758-.86-2.023-1.74a2.321,2.321,0,0,1-.058-.91,4.045,4.045,0,0,1,1.687-2.846,2.8,2.8,0,0,1-1.753-4.114,7.234,7.234,0,0,1,1.169-1.252c-1.209-.757-1.127-2.578-.529-3.873,1.394-3.022,4.612-4.837,7.854-5.593,6.07-1.415,13.5.247,16.663,6.126A10.486,10.486,0,0,1,284.594,208.939Z" transform="translate(-257.913 -196.102)" fill="#e0e0e0"/></g><g transform="translate(20.031 16.714)"><g transform="translate(12.11 34.299)"><path d="M223.5,244.46a1.386,1.386,0,0,1-1.249.3,1.131,1.131,0,0,1-.438-.333c-1.12-1.313-.038-3.508-.93-4.985-.39-.646-1.12-1.069-1.384-1.777-.4-1.073.511-1.929.821-2.867a11.449,11.449,0,0,0,.352-1.468,21.706,21.706,0,0,0,.343-3.817,60.642,60.642,0,0,0-1.68-13.214l5.635,1.045s.02,7.826.338,12.887a10.741,10.741,0,0,0,1.372,5,15.964,15.964,0,0,0,3.216,4.08.873.873,0,0,1,.275.353.6.6,0,0,1-.37.669,2.629,2.629,0,0,1-.814.161,5.533,5.533,0,0,0-2.914,1.577c-.826.76-1.556,1.627-2.451,2.3C223.582,244.4,223.542,244.432,223.5,244.46Z" transform="translate(-219.335 -216.3)" fill="#455a64"/><path d="M224.9,238.4c-1.708-.867-3.312-1.65-3.028-3.789a38.716,38.716,0,0,0,.315-9.185,8.851,8.851,0,0,1,.315-4.633,15.087,15.087,0,0,0,1.852.3c.215,0,.434-.005.649-.023-.033-2.171-.036-3.729-.036-3.729l-5.635-1.044a60.644,60.644,0,0,1,1.68,13.214,21.705,21.705,0,0,1-.343,3.817,11.487,11.487,0,0,1-.352,1.468c-.31.938-1.22,1.795-.821,2.867.263.708.993,1.131,1.384,1.776.892,1.477-.189,3.673.93,4.985a1.125,1.125,0,0,0,.438.333,1.384,1.384,0,0,0,1.249-.3c.042-.029.082-.059.123-.088s.1-.088.155-.13a2.468,2.468,0,0,1,.891-2.832C226.574,239.993,226.612,239.266,224.9,238.4Z" transform="translate(-219.335 -216.3)" opacity="0.05"/><g transform="translate(2.066 22.991)"><path d="M228.727,247.757s1.44-2.041,3.272-1.811c4.774,3.049,2.137,6.5,2.137,6.5a8.508,8.508,0,0,1-3.7-1.856C228.6,249.034,228.727,247.757,228.727,247.757Z" transform="translate(-223.504 -245.928)" fill="#263238"/><path d="M223.531,252.091c-.878-.5-1.618-1.141-1.526-1.865a2.882,2.882,0,0,1,1.1-1.809,7.268,7.268,0,0,1,1.9-1.027,3.47,3.47,0,0,1,3.535.4,4.549,4.549,0,0,1,1.246,2.3,6.5,6.5,0,0,1-.168,3.816,21.564,21.564,0,0,1-3.778-.808A15.657,15.657,0,0,1,223.531,252.091Z" transform="translate(-221.997 -246.189)" fill="#37474f"/></g></g><path d="M232.253,185.2a2.473,2.473,0,0,1-.2,4.73,2.663,2.663,0,0,1-.885,4.939,13.846,13.846,0,0,0,.663,1.735,3.615,3.615,0,0,1-2.069,4.506,2.733,2.733,0,0,1-1.273,4.318,7.371,7.371,0,0,1,.2,3.223,2.412,2.412,0,0,1-2.615,2.112c.66,2.824.275,6.949-3.847,4.747a3.37,3.37,0,0,1-2.129,2.728,3.322,3.322,0,0,1-2.444-.209c-.175-.074-1.875-1.338-1.692-1.419a3.313,3.313,0,0,1-2.891-.02,2.375,2.375,0,0,1-1.228-2.5,2.587,2.587,0,0,1-1.63-4.746,6.034,6.034,0,0,1-2.645-2.621c-.465-1.175.077-2.818,1.322-3.033a3.077,3.077,0,0,1-1.125-5.323,3.01,3.01,0,0,1-1.524-5.448c-.836-.382-1.758-.86-2.023-1.74a2.319,2.319,0,0,1-.058-.91,4.044,4.044,0,0,1,1.687-2.846,2.8,2.8,0,0,1-1.753-4.114,7.234,7.234,0,0,1,1.169-1.252c-1.209-.757-1.127-2.578-.529-3.873,1.394-3.022,4.612-4.837,7.854-5.593a19.168,19.168,0,0,1,11.933,1.095,18.334,18.334,0,0,1,6.815,4.615,8.635,8.635,0,0,1,1.983,3.538A4.14,4.14,0,0,1,232.253,185.2Z" transform="translate(-203.729 -172.099)" fill="#e0e0e0"/></g><g transform="translate(0 6.129)"><path d="M200.8,161.2c-1.167-1.9-3.565-2.713-5.8-2.737a2.835,2.835,0,0,0-1.284.211,1.145,1.145,0,0,0-.687,1.03,7.647,7.647,0,0,0-4.536-.4,3.955,3.955,0,0,0-2.136,1.1,2.046,2.046,0,0,0-.387,2.26,5.637,5.637,0,0,0-5.856,2.291,2.905,2.905,0,0,0-.475,1.671c.086,1.263,1.242,2.158,2.34,2.789a8.209,8.209,0,0,0-3.046,2.391,4.8,4.8,0,0,0-.951,3.678,3.416,3.416,0,0,0,2.506,2.707,3.981,3.981,0,0,0,5.082,6.117,3.109,3.109,0,1,0,5.442-3.005,2.743,2.743,0,0,0,3.787-.852,4.825,4.825,0,0,0,.257-4.205,2.934,2.934,0,0,0,3.365.925,3.331,3.331,0,0,0,1.759-3.728,1.327,1.327,0,0,0,1.209.109,1.157,1.157,0,0,0,.358-.424c1.1-1.923.723-4.083.528-6.169A13.964,13.964,0,0,0,200.8,161.2Z" transform="translate(-177.915 -158.458)" fill="#e0e0e0"/></g><g transform="translate(3.186 5.677)"><path d="M247.437,237.268c-.137,0-.273-.006-.408-.019a8.984,8.984,0,0,1-3.89-1.5l-.221-.137-.21.152a3.622,3.622,0,0,1-2.154.714,6.159,6.159,0,0,1-4.633-2.769,18.757,18.757,0,0,1-2.312-5.27l-.106-.33-.34.068a5.327,5.327,0,0,1-1.047.1,5.5,5.5,0,0,1-5.52-6.067l.068-.665-.611.272a5.108,5.108,0,0,1-4.42-.171,5.122,5.122,0,0,1-2.568-3.6l-.123-.746-.534.536a3.893,3.893,0,0,1-2.745,1.121,3.664,3.664,0,0,1-.78-.083,3.914,3.914,0,0,1-2.776-2.408l-.181-.488-.416.313a3.947,3.947,0,0,1-2.361.768,3.861,3.861,0,0,1-1.546-.318,4,4,0,0,1-2.3-3.188l-.056-.588-.518.285a3.247,3.247,0,0,1-1.565.39,3.321,3.321,0,0,1-2.135-.75,3.4,3.4,0,0,1-1-3.581l.2-.588-.617.078a3.235,3.235,0,0,1-.394.025c-1.61,0-3.069-1.226-4.283-2.426-.5-.516-1.992-3.694-1.627-4.119l-.13-.764a2.962,2.962,0,0,1-.538.049,4.061,4.061,0,0,1-3.564-2.6,6.414,6.414,0,0,1,.52-5.247l.325-.625-.7.06c-.086.007-.172.011-.258.011a3.322,3.322,0,0,1-2.82-5.114l.234-.364-.387-.192c-1.568-.781-3.3-2.329-3.459-4.336a3.327,3.327,0,0,1,.909-2.451,2.636,2.636,0,0,1,1.88-.915,2.021,2.021,0,0,1,.518.067l.706.186-.241-.689a7.817,7.817,0,0,1-.361-4.732,4.074,4.074,0,0,1,3.157-2.994l.459-.057-.137-.442a4.662,4.662,0,0,1,1.447-4.857,4.6,4.6,0,0,1,2.938-1.025,4.507,4.507,0,0,1,2.1.508l.7.371-.136-.78a3.614,3.614,0,0,1,2.436-3.725,5.128,5.128,0,0,1,1.81-.313,8.072,8.072,0,0,1,3.12.7l.379.163.139-.388c.7-1.939,2.037-2.329,3.976-2.329.393,0,.792.016,1.192.031s.82.032,1.223.032a6.066,6.066,0,0,0,2.9-.574,4.7,4.7,0,0,1,2.253-.561,4.779,4.779,0,0,1,2.561.733c.268.172.52.372.772.571a6.08,6.08,0,0,0,1.568.993,4.708,4.708,0,0,0,1.717.27c.413,0,.834-.03,1.251-.061.39-.029.776-.057,1.148-.057a2.394,2.394,0,0,1,1.952.667,3.8,3.8,0,0,1,.266.347,2.332,2.332,0,0,0,.8.8,1.872,1.872,0,0,0,.871.178c.12,0,.243-.005.363-.012l.351-.011a5.592,5.592,0,0,1,5.122,3.588l.119.331.341-.086a3.45,3.45,0,0,1,.837-.1,4.23,4.23,0,0,1,4.127,3.719l.047.728.577-.446a2.264,2.264,0,0,1,1.4-.445,3.533,3.533,0,0,1,1.908.6,9.5,9.5,0,0,1,2.474,2.93l.292.461.34-.427a4.121,4.121,0,0,1,3.284-1.44,5.059,5.059,0,0,1,2.213.5c1.842.9,2.843,2.731,3.811,4.5.282.516.563,1.029.862,1.519a18.24,18.24,0,0,0,2.887,3.257c2.76,2.686,5.367,5.222,2.846,8.749l-.378.53.646.081a2.95,2.95,0,0,1,1.563,5.158l-.774.67,1.024.012a2.611,2.611,0,0,1,2.177,1.453,3.288,3.288,0,0,1,.431,1.526,6.02,6.02,0,0,1-1.956,4.09l.55.548a.235.235,0,0,1-.16.068,6.137,6.137,0,0,1,1.249,1.544,3.252,3.252,0,0,1,.186,2.657,2.72,2.72,0,0,1-2.108,1.579l-.625.08.353.522a4.2,4.2,0,0,1,.514,3.835,4.031,4.031,0,0,1-3.57,2.068H261.6l.164.507a3.056,3.056,0,0,1-.137,2.745,3.191,3.191,0,0,1-2.665,1.484l-.85-.026.419.628a3.436,3.436,0,0,1-.059,3.691,4.3,4.3,0,0,1-3.379,1.84l-.492.022.137.473a4,4,0,0,1-.653,3.474,4.108,4.108,0,0,1-2.375,1.47c-.106.025-.192.042-.262.055-.51.1-.6.234-.765.761a3.43,3.43,0,0,0-.126.643,2.372,2.372,0,0,1-.116.566A3.038,3.038,0,0,1,247.437,237.268Z" transform="translate(-182.133 -157.99)" fill="#f5f5f5"/><path d="M215.788,158.652a4.388,4.388,0,0,1,2.35.671c.248.159.488.349.743.55a6.377,6.377,0,0,0,1.668,1.051,5.072,5.072,0,0,0,1.855.3c.432,0,.863-.031,1.28-.062.394-.029.767-.056,1.119-.056a2.032,2.032,0,0,1,1.664.539,3.681,3.681,0,0,1,.238.312,2.674,2.674,0,0,0,.943.916,2.275,2.275,0,0,0,1.048.22c.128,0,.257-.006.384-.012l.158-.008c.057,0,.114,0,.171,0a5.193,5.193,0,0,1,4.758,3.332l.237.663.683-.172a3.052,3.052,0,0,1,.741-.091,3.878,3.878,0,0,1,3.739,3.355l.094,1.457,1.155-.893a1.907,1.907,0,0,1,1.166-.363,3.138,3.138,0,0,1,1.692.533,9.082,9.082,0,0,1,2.361,2.816l.584.921.678-.854a3.737,3.737,0,0,1,2.98-1.294,4.668,4.668,0,0,1,2.042.463c1.733.849,2.66,2.543,3.642,4.337.279.508.566,1.034.871,1.534a18.544,18.544,0,0,0,2.946,3.334c3.191,3.1,4.972,5.208,2.8,8.245l-.757,1.059,1.292.162a2.561,2.561,0,0,1,1.357,4.479l-1.549,1.339,2.048.024a2.23,2.23,0,0,1,1.843,1.256,2.889,2.889,0,0,1,.381,1.345,5.65,5.65,0,0,1-1.843,3.808l1.1,1.095a.619.619,0,0,1-.435.182.443.443,0,0,1-.2-.04,5.886,5.886,0,0,1,1.088,1.342,2.9,2.9,0,0,1,.191,2.356,2.356,2.356,0,0,1-1.8,1.349l-1.25.16.705,1.044a3.81,3.81,0,0,1,.476,3.475,3.619,3.619,0,0,1-3.21,1.824h-1.067l.329,1.015a2.669,2.669,0,0,1-.1,2.422,2.794,2.794,0,0,1-2.334,1.3l-.081,0-1.509-.05.838,1.256a3.04,3.04,0,0,1-.061,3.263,3.9,3.9,0,0,1-3.073,1.664l-.983.045.273.945a3.607,3.607,0,0,1-.587,3.132,3.727,3.727,0,0,1-2.156,1.328c-.1.023-.181.04-.248.052-.711.14-.875.435-1.071,1.06a3.662,3.662,0,0,0-.13.677,2.07,2.07,0,0,1-.092.472,2.759,2.759,0,0,1-2.644,1.541c-.125,0-.25-.005-.374-.017a8.615,8.615,0,0,1-3.72-1.446l-.442-.275-.422.3a3.236,3.236,0,0,1-1.927.64,5.768,5.768,0,0,1-4.317-2.607,18.449,18.449,0,0,1-2.257-5.163l-.212-.66-.68.137a4.97,4.97,0,0,1-.97.1,5.115,5.115,0,0,1-5.134-5.639l.137-1.331-1.223.542a4.721,4.721,0,0,1-4.079-.158,4.727,4.727,0,0,1-2.371-3.323l-.247-1.495-1.069,1.072a3.55,3.55,0,0,1-2.471,1.007,3.3,3.3,0,0,1-.7-.074,3.519,3.519,0,0,1-2.495-2.164l-.362-.975-.832.625a3.55,3.55,0,0,1-2.127.69,3.466,3.466,0,0,1-1.39-.286,3.6,3.6,0,0,1-2.072-2.87l-.113-1.176-1.034.57a2.856,2.856,0,0,1-1.377.341,2.871,2.871,0,0,1-2.766-3.818l.4-1.177-1.234.156a2.71,2.71,0,0,1-.346.022c-1.47,0-2.853-1.169-3.993-2.3-.453-.535-1.7-3.116-1.561-3.715a.379.379,0,0,1-.275.234L193,201.017a2.606,2.606,0,0,1-.467.043,3.661,3.661,0,0,1-3.2-2.352,6.034,6.034,0,0,1,.5-4.926l.65-1.25-1.4.119q-.113.009-.226.009a2.934,2.934,0,0,1-2.494-4.517l.466-.728-.774-.385c-1.474-.733-3.1-2.174-3.244-4.02a2.928,2.928,0,0,1,.808-2.156,2.248,2.248,0,0,1,1.6-.791,1.651,1.651,0,0,1,.417.054l1.411.372-.481-1.378a7.451,7.451,0,0,1-.355-4.5,3.678,3.678,0,0,1,2.833-2.716l.919-.115-.274-.885A4.266,4.266,0,0,1,191,166.455a4.212,4.212,0,0,1,2.69-.936,4.116,4.116,0,0,1,1.922.462l1.4.742-.272-1.561a3.262,3.262,0,0,1,2.19-3.3,4.753,4.753,0,0,1,1.674-.288,7.676,7.676,0,0,1,2.967.668l.758.324.279-.776c.622-1.732,1.795-2.071,3.611-2.071.388,0,.782.016,1.177.031.415.016.83.032,1.238.032a6.421,6.421,0,0,0,3.084-.622,4.319,4.319,0,0,1,2.069-.515m0-.776a5.092,5.092,0,0,0-2.44.609,5.61,5.61,0,0,1-2.711.526c-.8,0-1.619-.063-2.416-.063-1.846,0-3.535.338-4.342,2.585a8.433,8.433,0,0,0-3.273-.73,5.505,5.505,0,0,0-1.946.338,4,4,0,0,0-2.682,4.155,4.886,4.886,0,0,0-2.285-.553,4.912,4.912,0,0,0-4.755,6.385,4.448,4.448,0,0,0-3.483,3.272,8.288,8.288,0,0,0,.368,4.967,2.417,2.417,0,0,0-.616-.08,3.565,3.565,0,0,0-3.177,3.784c.162,2.061,1.822,3.732,3.673,4.654a3.71,3.71,0,0,0,3.147,5.712c.1,0,.195,0,.291-.012a6.847,6.847,0,0,0-.536,5.568,4.453,4.453,0,0,0,3.926,2.843,3.374,3.374,0,0,0,.608-.055c-1.236.228,1.037,4.4,1.414,4.778,1.211,1.2,2.773,2.537,4.556,2.537a3.6,3.6,0,0,0,.444-.028,3.769,3.769,0,0,0,1.115,4,3.729,3.729,0,0,0,2.385.841,3.627,3.627,0,0,0,1.751-.438,4.364,4.364,0,0,0,2.531,3.506,4.227,4.227,0,0,0,1.7.352,4.341,4.341,0,0,0,2.593-.846,4.3,4.3,0,0,0,3.057,2.652,4.079,4.079,0,0,0,.862.092,4.309,4.309,0,0,0,3.02-1.235,5.381,5.381,0,0,0,5.344,4.519,5.4,5.4,0,0,0,2.185-.455,5.89,5.89,0,0,0,5.906,6.495,5.745,5.745,0,0,0,1.123-.11,19.086,19.086,0,0,0,2.365,5.377,6.547,6.547,0,0,0,4.948,2.931,4,4,0,0,0,2.382-.787,9.479,9.479,0,0,0,4.059,1.56c.148.013.3.02.445.02a3.434,3.434,0,0,0,3.366-2.032c.155-.394.12-.814.241-1.2.176-.564.126-.441.756-.589a4.5,4.5,0,0,0,2.6-1.612A4.39,4.39,0,0,0,255,228.29a4.689,4.689,0,0,0,3.687-2.015,3.829,3.829,0,0,0,.057-4.118l.107,0a3.584,3.584,0,0,0,2.995-1.668,3.457,3.457,0,0,0,.175-3.068h0a4.374,4.374,0,0,0,3.93-2.313,4.612,4.612,0,0,0-.554-4.195,3.12,3.12,0,0,0,2.415-1.809,3.7,3.7,0,0,0-.185-2.963c-.093-.224-1.149-1.78-1.606-1.78a.156.156,0,0,0-.115.047,6.257,6.257,0,0,0,2.069-4.373,3.69,3.69,0,0,0-.48-1.708,3.014,3.014,0,0,0-2.51-1.651,3.338,3.338,0,0,0-1.768-5.837c3.819-5.343-3.464-8.744-5.717-12.434-1.36-2.228-2.337-4.94-4.834-6.164a5.45,5.45,0,0,0-2.384-.542,4.524,4.524,0,0,0-3.587,1.587,9.721,9.721,0,0,0-2.585-3.045,3.907,3.907,0,0,0-2.124-.664,2.649,2.649,0,0,0-1.641.525,4.627,4.627,0,0,0-4.514-4.081,3.8,3.8,0,0,0-.931.114,5.981,5.981,0,0,0-5.488-3.846c-.067,0-.134,0-.2,0-.169.006-.342.019-.513.019a1.508,1.508,0,0,1-.7-.136c-.427-.218-.636-.7-.957-1.056a2.806,2.806,0,0,0-2.241-.8c-.769,0-1.6.118-2.4.118a4.4,4.4,0,0,1-1.578-.244,13.431,13.431,0,0,1-2.269-1.529,5.151,5.151,0,0,0-2.773-.8Z" transform="translate(-182.021 -157.876)" fill="#e0e0e0"/></g><g transform="translate(52.947)"><g transform="translate(35.113 6.104)"><path d="M301.285,171.577c-1.306-1.39-3.007-1.484-4.675-3.79a15.355,15.355,0,0,0-4.464-4.875s4.31.139,6.419,1.1,4.354,4.189,4.095,5.994S301.285,171.577,301.285,171.577Z" transform="translate(-291.565 -159.431)" fill="#ffc4c3"/><path d="M293.107,163.368c4.068.576,6.911,3.73,6.6,5.211s-1.253-.256-2.486-2.116A8.02,8.02,0,0,0,293.107,163.368Z" transform="translate(-291.78 -159.533)" fill="#f28f8f"/><path d="M293.047,158.431a2.008,2.008,0,0,0-.57,3.757,28.145,28.145,0,0,0,4.051,1.54c3.282,1.086,5.247,2.95,5.522,4.869s-.934,1.975-.934,1.975c.345.5,2.651.462,2.588-2.607-.068-3.333-2.5-5.2-5.018-6.527-1.948-1.025-4.151-1.483-5.6-3.013Z" transform="translate(-291.397 -158.426)" fill="#455a64"/></g><g transform="translate(1.33)"><path d="M248.333,172.116a2.951,2.951,0,0,1-.445-1.967,3.146,3.146,0,0,1,3.563-2.535,4.337,4.337,0,0,1-2.045-3.85,2.861,2.861,0,0,1,3.145-2.576,2.781,2.781,0,0,1,.436-3.757,4.252,4.252,0,0,1,3.968-.673,2.811,2.811,0,0,1,1.419-3.6,3.908,3.908,0,0,1,4.03.68c-.227-1.179,1.038-2.212,2.239-2.223,1.145-.01,2.148,1.21,3.272.916.582-.152,1.056-.736,1.56-1.047a6.8,6.8,0,0,1,1.858-.8,2.327,2.327,0,0,1,1.811.112,2.8,2.8,0,0,1,.986,1.78,6.308,6.308,0,0,1,2.889-.561,2.136,2.136,0,0,1,1.083.279,2.612,2.612,0,0,1,.837,2.091c1.256-.314,2.749-.536,3.708.334.994.9.868,2.474.661,3.8a3.477,3.477,0,0,1,2.385,1.1,1.98,1.98,0,0,1,.109,2.476,3.174,3.174,0,0,1-.3,4.967c-1.135.791-2.2,1.18-2.714,2.577a20.187,20.187,0,0,0-.708,5.166c-.216,2.277.918,3.988,1.187,6.155.123.993.58,1.907.679,2.884.043.427-.292,2.587-1.142,2.318a2.825,2.825,0,0,1-.174,5.434,2.492,2.492,0,1,1-2.588,4.253,2.522,2.522,0,0,1-4.787,1.509,4.331,4.331,0,0,1-4.993.688,7.513,7.513,0,0,1-3.415-4.034,5.471,5.471,0,0,1-7.4-4.518,5.018,5.018,0,0,1-4.795-2.613,8.726,8.726,0,0,1-.823-5.625,5.205,5.205,0,0,1-3.434-1.193,3.921,3.921,0,0,1-.962-3.22,9.548,9.548,0,0,1,1.16-3.257A3.08,3.08,0,0,1,248.333,172.116Z" transform="translate(-247.861 -150.56)" fill="#f0f0f0"/></g><path d="M270.962,183.7a11.97,11.97,0,0,1-1.2-.668,8.817,8.817,0,0,1-4.041-7.5,10.243,10.243,0,0,1,3.146-7.345c1.823-1.815,4.509-3.355,4.292-6.274a8.736,8.736,0,0,0,3.847,1.173,4.047,4.047,0,0,0,2.155-.354,1.979,1.979,0,0,0,1.114-1.772,7.181,7.181,0,0,0,3.165,2.356c1.178.45,2.531.255,3.611.912a4.235,4.235,0,0,1,1.712,1.974c.58,1.405.367,3.107,1.047,4.456a72.075,72.075,0,0,0,3.757,6.611,4.855,4.855,0,0,1,.919,2.143,3.5,3.5,0,0,1-.5,2.328,18.138,18.138,0,0,1-.17,2.2,2.28,2.28,0,0,1-1.211,1.68,4.453,4.453,0,0,1-.715,1.16,3.942,3.942,0,0,1-.8.719,7.759,7.759,0,0,1-7.748.554c-.731-.338-1.432-.736-2.164-1.071C277.924,185.5,274.148,185.246,270.962,183.7Z" transform="translate(-250.532 -152.891)" fill="#455a64"/><path d="M299.627,184.167a8.253,8.253,0,0,0-5.482.666l4.08,3.3S299.816,185.892,299.627,184.167Z" transform="translate(-256.9 -158.043)" opacity="0.1"/><path d="M291.692,191.119a3.824,3.824,0,0,0,5.027.734,2.232,2.232,0,0,0,.487-2.456l.688-.06c-.12.763-.2,1.911.419,2.171a.991.991,0,0,0,.954-.279,2.606,2.606,0,0,1-2.073,1.072C296.023,193.255,292.731,193.679,291.692,191.119Z" transform="translate(-256.35 -159.247)" fill="#263238"/><g transform="translate(0 9.788)"><path d="M248.829,175.865c1.383-1.313,3.086-1.311,4.883-3.518a15.349,15.349,0,0,1,4.734-4.613s-4.311-.106-6.471.733-4.585,3.935-4.429,5.752S248.829,175.865,248.829,175.865Z" transform="translate(-246.459 -164.194)" fill="#ffc4c3"/><path d="M258.617,168.135c-4.094.345-7.112,3.332-6.886,4.828s1.266-.184,2.6-1.971A8.023,8.023,0,0,1,258.617,168.135Z" transform="translate(-247.395 -164.285)" fill="#f28f8f"/><path d="M257.263,163.182a2.007,2.007,0,0,1,.355,3.783,28.06,28.06,0,0,1-4.132,1.308c-3.339.9-5.406,2.648-5.79,4.548s.82,2.025.82,2.025c-.32.546-2.631-.207-2.345-2.877.356-3.314,2.7-4.924,5.289-6.1,2-.913,4.228-1.245,5.767-2.69Z" transform="translate(-246.147 -163.174)" fill="#455a64"/></g><path d="M298.078,187.67a5.36,5.36,0,0,0,.62-2.58c.1-1.156,1.263-1.127,1.449-.066a2.767,2.767,0,0,1-.743,2.468,8.881,8.881,0,0,1-.94.844.678.678,0,0,1-.857-.021,12.713,12.713,0,0,0-2.678-1.6c-1.16-.593-1.512-1.41-.908-1.8.409-.265,1.259-.235,2.329.67A11.183,11.183,0,0,1,298.078,187.67Z" transform="translate(-256.807 -158.101)" fill="#37474f"/><g transform="translate(23.852 18.16)"><path d="M279.748,174.106a3.3,3.3,0,0,0-1.472-.1,2.427,2.427,0,0,0-.8.258,1.732,1.732,0,0,0-.574.489c-.023.034-.033.157.012.142a5.474,5.474,0,0,1,.8-.18,6.205,6.205,0,0,1,.831-.09,2.7,2.7,0,0,1,1.123.126,3.778,3.778,0,0,1,1.082.621c.483.334.555.4.91.646.027.019.047-.056.041-.076A3.011,3.011,0,0,0,279.748,174.106Z" transform="translate(-276.886 -173.962)" fill="#263238"/><path d="M280.791,175.563a1.346,1.346,0,1,1-1.346-1.346A1.345,1.345,0,0,1,280.791,175.563Z" transform="translate(-277.158 -174.019)" fill="#263238"/></g></g><g transform="translate(0.804 27.827)"><g transform="translate(11.375 32.923)"><path d="M197.776,257.008a1.1,1.1,0,0,1-1.114.239,2.119,2.119,0,0,1-.634-.411c-1.12-1.313.023-3.369-.87-4.845-.39-.646-1.121-1.069-1.384-1.777-.4-1.073.511-1.929.821-2.867a11.445,11.445,0,0,0,.352-1.468,21.706,21.706,0,0,0,.343-3.817,60.646,60.646,0,0,0-1.68-13.214l5.635,1.045s.02,7.826.338,12.887a10.744,10.744,0,0,0,1.372,5,15.976,15.976,0,0,0,3.216,4.08.869.869,0,0,1,.275.353.6.6,0,0,1-.37.669,2.634,2.634,0,0,1-.814.161,5.533,5.533,0,0,0-2.914,1.577c-.826.76-1.556,1.627-2.451,2.3C197.859,256.95,197.818,256.979,197.776,257.008Z" transform="translate(-193.61 -228.847)" fill="#455a64"/><path d="M199.179,250.947c-1.708-.867-3.312-1.65-3.029-3.789a38.715,38.715,0,0,0,.315-9.185,8.86,8.86,0,0,1,.315-4.633,15.114,15.114,0,0,0,1.852.3c.215,0,.434-.005.649-.023-.033-2.171-.037-3.729-.037-3.729l-5.635-1.044a60.646,60.646,0,0,1,1.68,13.214,21.7,21.7,0,0,1-.343,3.817,11.482,11.482,0,0,1-.352,1.468c-.31.938-1.22,1.795-.821,2.867.263.708.993,1.131,1.384,1.776.892,1.477-.25,3.533.87,4.846a2.12,2.12,0,0,0,.634.411,1.1,1.1,0,0,0,1.114-.239c.042-.029.082-.059.123-.088s.1-.088.155-.13a2.469,2.469,0,0,1,.891-2.832C200.85,252.541,200.887,251.814,199.179,250.947Z" transform="translate(-193.61 -228.847)" opacity="0.05"/><g transform="translate(2.067 22.991)"><path d="M203,260.3s1.44-2.041,3.272-1.811c4.774,3.049,2.137,6.5,2.137,6.5a8.508,8.508,0,0,1-3.7-1.856C202.871,261.581,203,260.3,203,260.3Z" transform="translate(-197.78 -258.475)" fill="#263238"/><path d="M197.807,264.639c-.878-.5-1.618-1.141-1.526-1.865a2.882,2.882,0,0,1,1.1-1.809,7.266,7.266,0,0,1,1.9-1.027,3.47,3.47,0,0,1,3.535.4,4.549,4.549,0,0,1,1.246,2.3,6.5,6.5,0,0,1-.168,3.816,21.562,21.562,0,0,1-3.778-.808A15.66,15.66,0,0,1,197.807,264.639Z" transform="translate(-196.273 -258.737)" fill="#37474f"/></g></g><path d="M212.538,218.5a6.59,6.59,0,0,0-1.1-4.065,3.814,3.814,0,0,0,.4-5.768c-.063-.055-.133-.123-.122-.206a.266.266,0,0,1,.085-.133,1.7,1.7,0,0,0,.312-1.8,2.269,2.269,0,0,0-2.1-1.191,7,7,0,0,0-2.319.591c-.621.213-1.4-.137-2.052-.226a8.069,8.069,0,0,0-4.306.394,15.163,15.163,0,0,0-5.624,5.038,7.676,7.676,0,0,0-1.434,2.54,7.4,7.4,0,0,0-.088,2.7,28.781,28.781,0,0,0,.549,3.391,4.033,4.033,0,0,0,1.6.135,3.675,3.675,0,0,0,5.252,4.408,4.277,4.277,0,0,0,6.827,3.012,4.2,4.2,0,0,0,1.076,1.591,2.454,2.454,0,0,0,.4-1.367,4.011,4.011,0,0,0-.362-1.369,1.069,1.069,0,0,1-.119-.667,1.439,1.439,0,0,1,.413-.539c.847-.913.6-2.506.064-3.507A3.307,3.307,0,0,0,212.538,218.5Z" transform="translate(-182.346 -190.656)" opacity="0.1"/><path d="M207.474,199.522a2.473,2.473,0,0,1-.2,4.73,2.663,2.663,0,0,1-.885,4.938,13.836,13.836,0,0,0,.663,1.735,3.615,3.615,0,0,1-2.069,4.506,2.733,2.733,0,0,1-1.273,4.318,7.371,7.371,0,0,1,.2,3.223,2.412,2.412,0,0,1-2.615,2.112c.66,2.824.275,6.949-3.847,4.747a3.37,3.37,0,0,1-2.129,2.728,3.318,3.318,0,0,1-2.444-.21c-.175-.074-1.875-1.338-1.692-1.418a3.313,3.313,0,0,1-2.891-.02,2.375,2.375,0,0,1-1.228-2.5,2.587,2.587,0,0,1-1.63-4.746,6.038,6.038,0,0,1-2.645-2.621c-.465-1.175.077-2.818,1.322-3.033a3.077,3.077,0,0,1-1.125-5.323,3.01,3.01,0,0,1-1.524-5.448c-.836-.382-1.758-.86-2.022-1.74a2.32,2.32,0,0,1-.058-.91,4.044,4.044,0,0,1,1.687-2.846,2.8,2.8,0,0,1-1.752-4.114,7.233,7.233,0,0,1,1.169-1.252c-1.209-.757-1.127-2.578-.529-3.873,1.4-3.022,4.612-4.837,7.854-5.592A19.173,19.173,0,0,1,199.75,188a18.334,18.334,0,0,1,6.815,4.615,8.635,8.635,0,0,1,1.983,3.538A4.148,4.148,0,0,1,207.474,199.522Z" transform="translate(-178.951 -186.42)" fill="#f5f5f5"/></g><g transform="translate(42.365 48.562)"><g transform="translate(9.821 35.371)"><path d="M249.331,286.883a1.148,1.148,0,0,1-1.147.207,1.667,1.667,0,0,1-.549-.384c-1.12-1.313-.029-3.364-.922-4.841-.39-.646-1.12-1.069-1.384-1.776-.4-1.073.51-1.929.821-2.867a11.437,11.437,0,0,0,.352-1.468,21.709,21.709,0,0,0,.343-3.817,60.647,60.647,0,0,0-1.68-13.214l5.635,1.044s.02,7.826.338,12.887a10.744,10.744,0,0,0,1.372,5,15.965,15.965,0,0,0,3.216,4.08.869.869,0,0,1,.275.353.6.6,0,0,1-.37.669,2.63,2.63,0,0,1-.814.161,5.533,5.533,0,0,0-2.914,1.577c-.826.76-1.556,1.628-2.451,2.3Z" transform="translate(-245.166 -258.723)" fill="#455a64"/><path d="M250.734,280.822c-1.708-.867-3.312-1.65-3.029-3.789a38.715,38.715,0,0,0,.315-9.184,8.85,8.85,0,0,1,.315-4.633,15.081,15.081,0,0,0,1.852.3c.215,0,.434-.005.65-.023-.033-2.17-.036-3.729-.036-3.729l-5.635-1.044a60.645,60.645,0,0,1,1.68,13.214,21.705,21.705,0,0,1-.343,3.817,11.479,11.479,0,0,1-.352,1.468c-.31.938-1.22,1.795-.821,2.867.263.708.993,1.131,1.384,1.776.892,1.477-.2,3.528.922,4.841a1.675,1.675,0,0,0,.549.384,1.147,1.147,0,0,0,1.147-.207c.042-.029.083-.059.123-.089s.1-.088.155-.13a2.468,2.468,0,0,1,.891-2.832C252.4,282.415,252.442,281.689,250.734,280.822Z" transform="translate(-245.166 -258.723)" opacity="0.05"/><g transform="translate(2.065 22.99)"><path d="M254.558,290.179s1.44-2.041,3.272-1.811c4.774,3.049,2.137,6.5,2.137,6.5a8.508,8.508,0,0,1-3.7-1.856C254.427,291.456,254.558,290.179,254.558,290.179Z" transform="translate(-249.335 -288.35)" fill="#263238"/><path d="M249.361,294.514c-.878-.5-1.618-1.141-1.526-1.865a2.882,2.882,0,0,1,1.1-1.809,7.266,7.266,0,0,1,1.9-1.027,3.47,3.47,0,0,1,3.535.4,4.543,4.543,0,0,1,1.246,2.3,7.268,7.268,0,0,1,.213,4.036,21.938,21.938,0,0,1-4.159-1.027A15.8,15.8,0,0,1,249.361,294.514Z" transform="translate(-247.827 -288.612)" fill="#37474f"/></g></g><path d="M264.433,235.811a.221.221,0,0,1-.005-.1.415.415,0,0,1,.1-.166,2.871,2.871,0,0,0,.57-2.281,3.525,3.525,0,0,1-1.834.663c-1.57.152-3.1-.34-4.668-.265-3.925.185-8.211,1.254-10.843,4.35a13.5,13.5,0,0,0-2.972,7,6.059,6.059,0,0,0,.588,4.064c.7,1.1,1.4,1.065,2.555,1.014,1.243-.054,1.184.792,1.761,1.691a4.69,4.69,0,0,0,2.773,1.983,5.4,5.4,0,0,0,4.4-.909,9.49,9.49,0,0,0,4.059,1.56,5.4,5.4,0,0,0,1.209-.04,7.083,7.083,0,0,0-.472-2.73,3.671,3.671,0,0,0,2.479-1.855,2.262,2.262,0,0,0-.71-2.833c.443.267,1.086-2.011,1.133-2.235a4.112,4.112,0,0,0-.438-3.306,3.647,3.647,0,0,0,1.315-3.809,3.3,3.3,0,0,0-.859-1.578A.566.566,0,0,1,264.433,235.811Z" transform="translate(-235.237 -217.648)" opacity="0.1"/><path d="M261.033,226.242a2.473,2.473,0,0,1-.2,4.73,2.725,2.725,0,0,1,1.3,2.783,3.178,3.178,0,0,1-2.326,2.4,3.57,3.57,0,0,1,.805,1.491,3.615,3.615,0,0,1-2.069,4.506,2.733,2.733,0,0,1-1.273,4.318,7.371,7.371,0,0,1,.2,3.223,2.412,2.412,0,0,1-2.615,2.112c.66,2.823.275,6.949-3.847,4.748a3.37,3.37,0,0,1-2.129,2.728,3.322,3.322,0,0,1-2.444-.209c-.175-.074-1.875-1.338-1.692-1.419a3.313,3.313,0,0,1-2.891-.02,2.375,2.375,0,0,1-1.228-2.5,2.587,2.587,0,0,1-1.63-4.747,6.034,6.034,0,0,1-2.645-2.621c-.465-1.175.077-2.818,1.322-3.033a3.077,3.077,0,0,1-1.125-5.323,3.01,3.01,0,0,1-1.524-5.448c-.836-.382-1.759-.86-2.023-1.74a2.319,2.319,0,0,1-.058-.91,4.044,4.044,0,0,1,1.687-2.846,2.8,2.8,0,0,1-1.752-4.114,7.232,7.232,0,0,1,1.169-1.252c-1.209-.757-1.127-2.578-.529-3.873,1.394-3.022,4.612-4.837,7.854-5.593a19.173,19.173,0,0,1,11.933,1.094,18.334,18.334,0,0,1,6.815,4.615,8.632,8.632,0,0,1,1.983,3.538A4.145,4.145,0,0,1,261.033,226.242Z" transform="translate(-232.51 -213.141)" fill="#f5f5f5"/></g></g><g transform="translate(138.565 314.134)"><g transform="translate(46.686 55.741)"><path d="M340.819,349.4q1.024-1.988,2.013-3.995a.787.787,0,0,0-.4-1.319,10.9,10.9,0,0,0-6.472-1.465,31.214,31.214,0,0,0-9.535,1.277,4.21,4.21,0,0,0-2.87,2.385,4.6,4.6,0,0,0-.122,1.427,62.82,62.82,0,0,0,.632,7.545c.289,1.991.487,4.287,1.522,6.06,1.66,2.844,5.381,3.849,8.463,3.257a1.734,1.734,0,0,0,1.062-.505c.357-.441.012-1.226.365-1.547.309-.281,1.378.1,1.722.156a.868.868,0,0,0,.418,0c.348-.116.4-.579.393-.946a27.249,27.249,0,0,1,2.212-11.155C340.344,350.29,340.576,349.87,340.819,349.4Z" transform="translate(-323.428 -342.598)" fill="#e6967a"/><path d="M333.848,365.7a12.547,12.547,0,0,1-5.506-.542,8.831,8.831,0,0,1-3.394-2.137c-.027-.029-.055-.064-.083-.1a9.691,9.691,0,0,0,1.04,2.943c1.661,2.844,5.382,3.849,8.463,3.257a1.734,1.734,0,0,0,1.062-.505c.357-.441.012-1.226.364-1.546.309-.281,1.379.1,1.722.156a.867.867,0,0,0,.418,0c.348-.116.4-.579.393-.946a26.931,26.931,0,0,1,.138-3.114A6.851,6.851,0,0,1,333.848,365.7Z" transform="translate(-323.749 -347.151)" fill="#37474f"/></g><g transform="translate(5.722)"><path d="M284.181,290.8a.968.968,0,0,0-1.229-.694,7.174,7.174,0,0,1-2.888.667,6.205,6.205,0,0,1-2.839-.65,6,6,0,0,1-3.036-4.844,8.761,8.761,0,0,1,.365-3.076,7.331,7.331,0,0,0,8.65-1.516c1.53-1.747,1.193-3.927-1.041-4.846a9.009,9.009,0,0,0-7.512.691,6.7,6.7,0,0,0-.617.447,6.46,6.46,0,0,1,3.957-5.587c.329-.15.623-.53.222-.583a5.559,5.559,0,0,0-5.582,3.332,6.555,6.555,0,0,0-.6,5.285,11.74,11.74,0,0,0-1.219,3.376,10.866,10.866,0,0,0,.861,6.611,8.893,8.893,0,0,0,6.937,4.665C280.626,294.4,285.225,293.836,284.181,290.8Zm-4.308-12.749c1.031-.005,1.964.43,1.308,1.3a3.63,3.63,0,0,1-1.7,1.079,5.088,5.088,0,0,1-3.853-.421A5.138,5.138,0,0,1,279.873,278.049Z" transform="translate(-270.637 -270.765)" fill="#ffa686"/><path d="M272.138,281.925a11.453,11.453,0,0,0-1.02,2.549,5.5,5.5,0,0,0,3.2,1.946,8.756,8.756,0,0,1,.338-1.718A5.268,5.268,0,0,1,272.138,281.925Z" transform="translate(-270.745 -273.265)" opacity="0.2"/><path d="M276.607,281.8a5.061,5.061,0,0,1,.41-.472,4.453,4.453,0,0,1-1.231-1.044,2.977,2.977,0,0,1-.775-1.511A3.651,3.651,0,0,0,276.607,281.8Z" transform="translate(-271.616 -272.559)" opacity="0.2"/></g><g transform="translate(30.487 62.08)"><path d="M319.942,357.565q1.024-1.988,2.013-3.995a.787.787,0,0,0-.4-1.319,10.9,10.9,0,0,0-6.472-1.464,31.215,31.215,0,0,0-9.535,1.277,4.21,4.21,0,0,0-2.87,2.385,4.6,4.6,0,0,0-.122,1.427,62.793,62.793,0,0,0,.632,7.545c.289,1.991.486,4.287,1.522,6.06,1.661,2.844,5.382,3.849,8.463,3.257a1.733,1.733,0,0,0,1.062-.505c.357-.441.012-1.226.365-1.546.309-.281,1.378.1,1.722.156a.857.857,0,0,0,.418,0c.348-.116.4-.579.393-.946a27.249,27.249,0,0,1,2.212-11.155C319.468,358.458,319.7,358.038,319.942,357.565Z" transform="translate(-302.552 -350.767)" fill="#e69679"/><path d="M312.977,373.867a12.548,12.548,0,0,1-5.506-.542,8.831,8.831,0,0,1-3.394-2.137c-.028-.029-.055-.064-.083-.1a9.69,9.69,0,0,0,1.04,2.943c1.661,2.844,5.382,3.849,8.463,3.257a1.734,1.734,0,0,0,1.062-.505c.357-.441.012-1.226.365-1.547.309-.281,1.378.1,1.722.156a.866.866,0,0,0,.418,0c.348-.115.4-.579.393-.946a27.1,27.1,0,0,1,.138-3.114A6.855,6.855,0,0,1,312.977,373.867Z" transform="translate(-302.875 -355.32)" fill="#455a64"/></g><g transform="translate(0 24.34)"><path d="M280.574,347.938c.005.367-.045.83-.393.946a.868.868,0,0,1-.418,0c-.344-.061-1.413-.437-1.722-.156-.353.321-.008,1.107-.365,1.547a1.736,1.736,0,0,1-1.062.505c-3.081.592-6.8-.412-8.463-3.257-1.2-2.051-1.211-4.3-1.8-6.507-.708-2.647-1.318-5.316-1.788-8.015a87.448,87.448,0,0,1-1.288-16.355A29.934,29.934,0,0,1,266.6,302.8a8.417,8.417,0,0,1,3.423-.67,6.823,6.823,0,0,1,3.407,1.115,32.756,32.756,0,0,1,10.292,9.193c2.924,4,4.126,8.256,5.767,12.782a5.627,5.627,0,0,1,.425,2.287c-.135,1.9-1.766,3.292-3.268,4.457C281.894,335.655,280.485,342.119,280.574,347.938Z" transform="translate(-263.263 -302.132)" fill="#e4977c"/><path d="M281.278,357.764a6.526,6.526,0,0,1-1.21.926,7.044,7.044,0,0,1-2.841.963,12.549,12.549,0,0,1-5.506-.542,9.592,9.592,0,0,1-3.514-2.184,9.783,9.783,0,0,0,1.053,2.867c1.661,2.844,5.382,3.849,8.463,3.257a1.735,1.735,0,0,0,1.062-.505c.357-.441.012-1.226.364-1.547.309-.281,1.378.1,1.722.156a.868.868,0,0,0,.418,0c.348-.116.4-.579.393-.946-.016-.992.017-2,.1-3.015C281.6,357.362,281.437,357.609,281.278,357.764Z" transform="translate(-264.371 -314.407)" fill="#455a64"/></g><g transform="translate(0.819 10.652)"><path d="M321.441,291.765a51.52,51.52,0,0,0-23.64-7.2,40.726,40.726,0,0,0-21.012,4.256c-17.1,8.9-15.561,32.743-1.782,44.081q.209.172.422.341c6.295,4.975,14.951,8.711,22.97,9.313,5.76.432,11.336-.591,17.013-1a13.647,13.647,0,0,1,6.131,1.228,32.729,32.729,0,0,0,14.922,2.941c5.646-.22,11.609-3.389,13.841-9,1.939-4.879-.94-7.888-3-11.935-1.016-1.993-1.145-4.3-1.582-6.493-1.482-7.439-6.932-12.9-12.475-17.695A92.5,92.5,0,0,0,321.441,291.765Z" transform="translate(-264.319 -284.492)" fill="#ffa686"/><path d="M335.36,355.8c-5.069-1.844-8.893-8.728-9.07-13.2-.854,2.9.178,8.772,3.317,11.958A14.018,14.018,0,0,1,335.36,355.8Z" transform="translate(-278.137 -297.509)" fill="#f28f8f"/><path d="M282.883,348.431c-3.425-2.087-8.979-4.242-12.245-13.941.6,9.694,6.386,14.085,11.832,16.259C282.551,350.231,282.767,348.946,282.883,348.431Z" transform="translate(-265.734 -295.692)" fill="#f28f8f"/></g><g transform="translate(75.705 55.742)"><path d="M369.794,342.95a3.749,3.749,0,0,0-3.743.363,11.03,11.03,0,0,0-5.228,8.491,3.274,3.274,0,0,0,1.349,3.024c.41.247,2.019,1.2,2.433,1.441a3.761,3.761,0,0,0,3.727-.372,11.03,11.03,0,0,0,5.228-8.491,3.274,3.274,0,0,0-1.346-3.022C371.8,344.136,370.2,343.19,369.794,342.95Z" transform="translate(-360.824 -342.599)" fill="#f28f8f"/><path d="M372.809,344.384c-.411-.247-2.014-1.194-2.421-1.434a3.749,3.749,0,0,0-3.743.363,10.27,10.27,0,0,0-3.171,2.943l9.362,5.541a9.462,9.462,0,0,0,1.318-4.391A3.273,3.273,0,0,0,372.809,344.384Z" transform="translate(-361.418 -342.599)" fill="#ffc4c3"/><path d="M369.147,345.145c2.854-1.607,5.141-.411,5.107,2.672a11.03,11.03,0,0,1-5.228,8.491c-2.854,1.607-5.141.411-5.108-2.672A11.029,11.029,0,0,1,369.147,345.145Z" transform="translate(-361.517 -343.009)" fill="#ba68c8"/><path d="M369.147,345.145c2.854-1.607,5.141-.411,5.107,2.672a11.03,11.03,0,0,1-5.228,8.491c-2.854,1.607-5.141.411-5.108-2.672A11.029,11.029,0,0,1,369.147,345.145Z" transform="translate(-361.517 -343.009)" fill="#ffa8a7"/><g transform="translate(5.105 4.607)"><g transform="translate(0 2.052)"><path d="M368.025,355.275h0c-.348.2-.626-.019-.622-.48l.026-2.352a1.5,1.5,0,0,1,.639-1.19h0c.348-.2.626.019.622.48l-.026,2.352A1.5,1.5,0,0,1,368.025,355.275Z" transform="translate(-367.403 -351.179)" fill="#f28f8f"/><path d="M367.429,352.447,367.4,354.8a.846.846,0,0,0,.039.273.6.6,0,0,0,.137-.057,1.5,1.5,0,0,0,.639-1.19l.026-2.352a.842.842,0,0,0-.039-.273.6.6,0,0,0-.137.057A1.5,1.5,0,0,0,367.429,352.447Z" transform="translate(-367.403 -351.184)" opacity="0.15"/></g><g transform="translate(3.642)"><path d="M372.719,352.631h0c-.348.2-.626-.019-.622-.48l.026-2.352a1.5,1.5,0,0,1,.639-1.19h0c.348-.2.626.019.622.48l-.026,2.352A1.5,1.5,0,0,1,372.719,352.631Z" transform="translate(-372.097 -348.535)" fill="#f28f8f"/><path d="M372.123,349.8l-.026,2.352a.85.85,0,0,0,.039.273.593.593,0,0,0,.137-.057,1.5,1.5,0,0,0,.639-1.19l.026-2.352a.849.849,0,0,0-.039-.273.591.591,0,0,0-.137.057A1.5,1.5,0,0,0,372.123,349.8Z" transform="translate(-372.097 -348.54)" opacity="0.15"/></g></g><path d="M364.926,356.909c-1.279-1.8-.4-5.533,1.061-7.785a10.194,10.194,0,0,0-2.068,5.562c-.033,3.082,2.253,4.279,5.108,2.672a9.733,9.733,0,0,0,2.573-2.181C369.79,357.3,366.291,358.831,364.926,356.909Z" transform="translate(-361.517 -344.061)" fill="#fff" opacity="0.3"/></g><path d="M349,336.991c.691,1.019-1.074.194-2.093.885s-.906,2.634-1.6,1.616a2.229,2.229,0,0,1,3.69-2.5Z" transform="translate(-281.556 -285.382)" fill="#37474f"/><path d="M365.308,332.544c-1.227.1-2.074,1.931-2.177.7a2.229,2.229,0,1,1,4.442-.372C367.675,334.1,366.534,332.441,365.308,332.544Z" transform="translate(-285.634 -284.221)" fill="#37474f"/><g transform="translate(70.697 24.57)"><path d="M355.3,312.237a3.286,3.286,0,0,1-.583-3.8,6.575,6.575,0,0,1,1.588-1.914c1.463-1.294,3.295-1.612,5.121-2.14a12.362,12.362,0,0,0,2.044-.736c.293-.144,1.8-.882,1.8-1.22C365.267,304.97,355.3,312.237,355.3,312.237Z" transform="translate(-354.37 -302.428)" fill="#f28f8f"/><path d="M363.658,315.746c-1.905-2.88-8.087-3.51-8.087-3.51s.488-2.572,4.226-4.843c4.626-2.811,5.739-4.965,5.739-4.965S368.112,310.138,363.658,315.746Z" transform="translate(-354.639 -302.428)" fill="#e99a7e"/></g><g transform="translate(43.055 31.516)"><path d="M320.138,311.379a7.27,7.27,0,0,0,4.4,1.537c2.16.2,4.451-.031,6.379.528s3.84,2.375,3.451,3.982c0,0-5.528.942-8.612-.348S320.138,313,320.138,311.379Z" transform="translate(-319.06 -311.379)" fill="#f28f8f"/><path d="M334.06,317.426c-6.216,1.55-8.472,10.469-8.472,10.469a13.159,13.159,0,0,1-6.29-7.981,11.658,11.658,0,0,1,.529-8.533,8.586,8.586,0,0,0,4.82,2.717C327.406,314.674,332.329,314.858,334.06,317.426Z" transform="translate(-318.748 -311.379)" fill="#f79d7d"/></g></g><g transform="translate(2.702 270.189)"><g transform="translate(143.028 76.705)"><path d="M281.524,384.194V323.924l-4.467-9.205-4.56,4.017V379Z" transform="translate(-272.496 -313.371)" fill="#37474f"/><path d="M284.13,326.208l2.257-1.3V385.18l-2.257,1.3Z" transform="translate(-275.102 -315.654)" fill="#263238"/><path d="M278.373,314.33l2.257-1.348,4.468,9.257-2.257,1.3Z" transform="translate(-273.813 -312.982)" fill="#455a64"/></g><g transform="translate(109.663 57.529)"><path d="M238.527,359.481V299.213l-4.467-9.207-4.56,4.017v60.268Z" transform="translate(-229.499 -288.659)" fill="#37474f"/><path d="M241.133,301.5l2.257-1.3v60.267l-2.257,1.3Z" transform="translate(-232.105 -290.943)" fill="#263238"/><path d="M235.376,289.617l2.257-1.347,4.467,9.257-2.257,1.3Z" transform="translate(-230.816 -288.27)" fill="#455a64"/></g><g transform="translate(76.298 38.352)"><path d="M195.531,334.769V274.5l-4.467-9.206-4.56,4.017v60.268Z" transform="translate(-186.503 -263.946)" fill="#37474f"/><path d="M198.137,276.784l2.257-1.3v60.269l-2.257,1.3Z" transform="translate(-189.109 -266.229)" fill="#263238"/><path d="M192.38,264.9l2.257-1.348,4.467,9.257-2.257,1.3Z" transform="translate(-187.82 -263.557)" fill="#455a64"/></g><g transform="translate(42.934 19.177)"><path d="M152.535,310.056V249.787l-4.467-9.205-4.56,4.017v60.267Z" transform="translate(-143.507 -239.235)" fill="#37474f"/><path d="M155.141,252.071l2.257-1.3v60.268l-2.257,1.3Z" transform="translate(-146.113 -241.518)" fill="#263238"/><path d="M149.384,240.193l2.257-1.347,4.467,9.257-2.257,1.3Z" transform="translate(-144.824 -238.846)" fill="#455a64"/></g><g transform="translate(9.57)"><path d="M109.539,285.344V225.075l-4.467-9.205-4.56,4.016v60.268Z" transform="translate(-100.511 -214.522)" fill="#37474f"/><path d="M112.145,227.359l2.257-1.3V286.33l-2.257,1.3Z" transform="translate(-103.117 -216.805)" fill="#263238"/><path d="M106.388,215.481l2.257-1.348,4.467,9.257-2.257,1.3Z" transform="translate(-101.828 -214.133)" fill="#455a64"/></g><g transform="translate(9.57 26.022)"><path d="M100.511,251.217l9.028,5.187v-3.551l-9.028-5.187Z" transform="translate(-100.511 -247.667)" fill="#263238"/><path d="M152.535,277.558l-9.028-5.187v3.549l9.028,5.187Z" transform="translate(-110.143 -253.201)" fill="#263238"/><path d="M238.527,326.964l-9.028-5.187v3.549l9.028,5.186Z" transform="translate(-129.407 -264.269)" fill="#263238"/><path d="M195.531,302.26l-9.028-5.187v3.55l9.028,5.187Z" transform="translate(-119.775 -258.735)" fill="#263238"/><path d="M281.524,351.667,272.5,346.48v3.549l9.028,5.187Z" transform="translate(-139.039 -269.803)" fill="#263238"/></g><g transform="translate(9.57 48.906)"><path d="M100.511,280.708l9.028,5.187v-3.55l-9.028-5.187Z" transform="translate(-100.511 -277.158)" fill="#263238"/><path d="M152.535,307.048l-9.028-5.187v3.55l9.028,5.187Z" transform="translate(-110.143 -282.692)" fill="#263238"/><path d="M238.527,356.454l-9.028-5.187v3.549L238.527,360Z" transform="translate(-129.407 -293.76)" fill="#263238"/><path d="M195.531,331.751l-9.028-5.187v3.549l9.028,5.187Z" transform="translate(-119.775 -288.226)" fill="#263238"/><path d="M281.524,381.157,272.5,375.97v3.549l9.028,5.187Z" transform="translate(-139.039 -299.294)" fill="#263238"/></g><g transform="translate(0 39.591)"><path d="M250.452,360.116,88.178,266.884v3.55l162.274,93.231Z" transform="translate(-88.178 -265.541)" fill="#37474f"/><path d="M297.3,386.648l2.319-1.328v3.544L297.3,390.2Z" transform="translate(-135.024 -292.073)" fill="#263238"/><path d="M88.178,266.5l162.274,93.232,2.319-1.328L90.512,265.154Z" transform="translate(-88.178 -265.154)" fill="#455a64"/></g><g transform="translate(0 16.868)"><path d="M250.452,330.834,88.178,237.6v3.55l162.274,93.231Z" transform="translate(-88.178 -236.258)" fill="#37474f"/><path d="M297.3,357.365l2.319-1.328v3.544l-2.319,1.333Z" transform="translate(-135.024 -262.789)" fill="#263238"/><path d="M88.178,237.213l162.274,93.233,2.319-1.328L90.512,235.87Z" transform="translate(-88.178 -235.87)" fill="#455a64"/></g></g><g transform="translate(-55.84 260.226)"><g transform="translate(0 4.309)"><path d="M49.912,206.923A14.558,14.558,0,0,0,39.356,210.1c-3.171,2.569-4.6,7.3-5.267,11.216-1.882,10.965,2.995,24.275,3.414,32.893.422,8.69-2.506,14.62-10.149,16.447,4.893.764,11.152-2.808,12.019-12.792.845-9.725-3.309-24.053-2.984-31.566.154-3.575.746-7.723,3.078-10.588s7.551-1.9,8.79,1.7a.817.817,0,0,0,.271.455c.327.21.711-.159.931-.479a26.1,26.1,0,0,1,6.382-6.489c3-2.129-3.425-3.551-4.948-3.832Q50.4,206.976,49.912,206.923Z" transform="translate(-16.01 -206.847)" fill="#ebebeb"/><path d="M32.772,280.184c-1.42-.879-4.431-.488-6.8,1.847s-3.993,5.183-8.571,5.055C13.436,286.974,12.81,284,12.81,284a8.168,8.168,0,0,0,.979,5.1c1.808,3.076,7.1,5.324,13.26,3.6s9.474-8.554,7.124-11.446C33.7,281.564,32.486,280.776,32.772,280.184Z" transform="translate(-12.736 -223.179)" fill="#263238"/></g><g transform="translate(131.569 89.106)"><path d="M191.167,386.827c-.361,1.791-.741,3.118.812,5.367a13.793,13.793,0,0,0,7.438,5.326c2.946.688,2.9-.108,2.843-1.131s-.244-4.307-.244-4.307,1.363,2.933,1.876,3.93,1.32.153,1.749-2.323.309-3.989-.92-7.6c-1.316-3.863-6.857-5.007-9.209-4.247S192.576,383.957,191.167,386.827Z" transform="translate(-184.205 -330.797)" fill="#263238"/><path d="M182.288,316.85l1.015,19.308c4.914-.215,7.256,2.68,6.857,6.351s-.3,4.679.545,7.469,1.285,5.541.433,12.031c-.725,5.512-1.692,7.734-1.886,10.144,1.55,1.939,7.307,4.141,10.83,1.914s1.65-5.071.209-10.986c-2.115-8.682-1.89-11.349-1.5-15.222s-1.366-6.206-1.561-9.64,2.46-10.162,2.16-20.151C199.385,318.068,195.542,314.677,182.288,316.85Z" transform="translate(-182.288 -316.123)" fill="#ebebeb"/><path d="M202.09,382.559a4.086,4.086,0,0,0,1.776-1.984c-1.661,1.808-6.323.86-8.22-2.787s-1.2-6.074-.4-10.374,1.013-5.359.05-7.391c-1.185-2.5-3.05-2.559-3.355-5.992h0a13.1,13.1,0,0,0,.769,4.439c.849,2.79,1.285,5.541.433,12.032-.725,5.512-1.692,7.733-1.886,10.144C192.81,382.584,198.568,384.786,202.09,382.559Z" transform="translate(-184.298 -324.615)" fill="#e0e0e0"/><path d="M182.288,316.85l1.015,19.308a7.524,7.524,0,0,1,4.737,1.155,48.472,48.472,0,0,0,4.893-3.077c6.023-4.324,6.456-13.049,6.454-16.168C199.385,318.068,195.542,314.677,182.288,316.85Z" transform="translate(-182.288 -316.123)" fill="#e0e0e0"/></g><g transform="translate(56.623 19.487)"><path d="M91.074,339.211c-.2,1.816-.466,3.171,1.276,5.276a13.794,13.794,0,0,0,7.874,4.657c3,.428,2.881-.36,2.734-1.374s-.619-4.27-.619-4.27,1.615,2.8,2.212,3.752,1.328.037,1.54-2.467-.04-4-1.579-7.487c-1.648-3.733-7.268-4.391-9.544-3.428S92.23,336.675,91.074,339.211Z" transform="translate(-86.875 -250.392)" fill="#263238"/><path d="M93.207,226.6c-1.635,11.751,0,17.74,1.823,32.377,1.166,9.353-8.114,21.811-8.908,23.272-1.058,1.945.1,4.688,1.193,7.393s3.868,8.776,3.583,15.316c-.241,5.554-1.011,7.851-.995,10.269,1.713,1.8,7.64,3.489,10.955.963s1.827-5.447-.75-10.962c-6.528-13.97-6.558-15.766-5.3-19.449.764-2.241.975-2.6,3.078-4.356,3.046-2.537,26.349-7.454,25.18-17.379C123.067,264.043,106.222,223.281,93.207,226.6Z" transform="translate(-85.705 -226.407)" fill="#ebebeb"/><path d="M102.5,331.5c-1.031,1.8-5.673,2.323-7.538-.031s-1.545-5.578-.943-11.977-1.044-8.607-2.458-10.924-4.1-3.421-5.533-5.6a30.143,30.143,0,0,0,1.363,3.828c1.089,2.7,3.868,8.776,3.584,15.316-.241,5.554-1.011,7.851-.995,10.269,1.713,1.8,7.64,3.489,10.955.963A4.906,4.906,0,0,0,102.5,331.5Z" transform="translate(-85.776 -243.557)" fill="#e0e0e0"/></g><path d="M99.747,299.678c-9.018,13.335-27.844,7.615-32.757-4.834.23-7.3,14.129-13.894,22.236-9.018S99.747,299.678,99.747,299.678Z" transform="translate(-24.89 -219.855)" fill="#ffa686"/><path d="M55.708,358.588c-.2,1.816-.466,3.171,1.277,5.276a13.793,13.793,0,0,0,7.874,4.658c3,.428,2.881-.36,2.734-1.374s-.619-4.27-.619-4.27,1.614,2.8,2.212,3.752,1.328.037,1.54-2.467-.04-4-1.579-7.487c-1.648-3.733-7.268-4.391-9.544-3.428S56.864,356.053,55.708,358.588Z" transform="translate(-22.33 -235.245)" fill="#263238"/><path d="M146.387,412.189c-.36,1.792-.741,3.118.812,5.367a13.793,13.793,0,0,0,7.438,5.326c2.946.688,2.9-.108,2.843-1.131l-.245-4.307s1.364,2.932,1.876,3.93,1.32.153,1.749-2.323.308-3.989-.92-7.6c-1.316-3.863-6.857-5.007-9.209-4.247S147.305,410.166,146.387,412.189Z" transform="translate(-42.605 -247.372)" fill="#263238"/><g transform="translate(25.784)"><path d="M131.3,368.734c-2.812,0-5.8-1.345-6.919-2.635a24.7,24.7,0,0,1,.616-3.261,63.644,63.644,0,0,0,1.256-6.738c.826-6.289.482-9.127-.444-12.165-.852-2.8-.922-3.76-.532-7.342.392-3.6-2.113-10.289-7.242-19.34l-.052-.092-.1-.043c-3.594-1.578-7.542-4.322-12.069-8.391-6.2-5.574-10.171-11.661-13.672-17.031-5.321-8.163-9.524-14.609-18.693-14.609-.624,0-1.276.03-1.936.091-1.054.1-2.632,1.534-3.889,2.776-.7.688-1.342,1.452-1.966,2.191-.271.32-.541.639-.813.952a53.675,53.675,0,0,0-5.686,7.83,8.487,8.487,0,0,0-1.294,7.565,74.544,74.544,0,0,0,5.7,16.373l.2.424c2.444,5.224,3.671,7.846.646,10.151a6.761,6.761,0,0,1-4.137,1.214,10.118,10.118,0,0,1-6.309-2.056,24.421,24.421,0,0,1,.33-3.3,63.708,63.708,0,0,0,.665-6.822,30.262,30.262,0,0,0-2.081-11.6l-.14-.387a34.427,34.427,0,0,0-1.349-3.372,10.41,10.41,0,0,0-1-1.554,5.007,5.007,0,0,1-1.293-2.908,6.087,6.087,0,0,1,.57-2.219c.075-.192.151-.385.22-.577a17.6,17.6,0,0,0,.723-6.386c0-.435-.01-.871-.008-1.31.01-2.443-.071-4.871-.156-7.148-.156-4.221-.4-9.191-1-14.052-.5-3.989-1.037-7.409-1.514-10.428-1.275-8.073-2.2-13.9-1.012-22.411a32.6,32.6,0,0,1,3-9.607l.415-.95c3.214-7.418,15-17.866,31.132-17.866l.476,0c13.611.177,22.3,6.925,29.653,14.191,9.41,9.293,23.045,18.367,37.411,24.9a29.1,29.1,0,0,0,9.4,2.868c.579.051,1.167.074,1.756.1a11.331,11.331,0,0,1,4.8.864,8.4,8.4,0,0,1,3.033,2.926c.365.535.7,1.092.986,1.566,3.746,6.274,7.777,14.5,5.688,22.483a35.479,35.479,0,0,1-2.191,5.635,32.366,32.366,0,0,0-2.383,6.389c-.45,2.042-.739,4.156-1.017,6.2-.158,1.158-.317,2.314-.5,3.46-1.139,7.007-4.961,12.178-10.761,14.559a72.914,72.914,0,0,0-8.915,4.483c-3.816,2.173-7.11,4.049-12.834,5.06l-.227.04-.131.246a42.308,42.308,0,0,1-2.715,9.773c-.755,1.98-1.352,3.543-1.277,4.84a17.845,17.845,0,0,0,.809,4.014,13.823,13.823,0,0,1,.753,5.576c-.376,3.758-.648,6.473,1.509,15.329.292,1.2.6,2.282.88,3.237,1.106,3.832,1.661,5.755-.95,7.405a6.268,6.268,0,0,1-3.412.889Z" transform="translate(-46.056 -201.385)" fill="#fafafa"/><path d="M81.377,201.93c.157,0,.316,0,.473,0,13.5.175,22.124,6.88,29.434,14.1,9.436,9.318,23.1,18.416,37.5,24.962a29.389,29.389,0,0,0,9.5,2.9c.589.051,1.19.075,1.771.1a11.116,11.116,0,0,1,4.664.829,8.1,8.1,0,0,1,2.915,2.822c.356.521.694,1.076.976,1.55,3.714,6.22,7.712,14.37,5.653,22.24a35.191,35.191,0,0,1-2.173,5.584,32.647,32.647,0,0,0-2.4,6.452c-.452,2.056-.743,4.176-1.023,6.227-.155,1.136-.316,2.31-.5,3.451-1.121,6.894-4.875,11.978-10.569,14.316a72.991,72.991,0,0,0-8.952,4.5c-3.79,2.158-7.062,4.022-12.733,5.024l-.055.01-.044.008-.453.082-.064.456a41.979,41.979,0,0,1-2.7,9.7c-.768,2.015-1.376,3.607-1.3,4.972a18.125,18.125,0,0,0,.822,4.084,13.554,13.554,0,0,1,.742,5.458c-.379,3.788-.653,6.526,1.517,15.435.293,1.206.607,2.291.883,3.25,1.185,4.106,1.477,5.6-.815,7.049a5.979,5.979,0,0,1-3.242.836,10.318,10.318,0,0,1-6.59-2.426,25.7,25.7,0,0,1,.6-3.08,64.173,64.173,0,0,0,1.263-6.768c.834-6.346.483-9.219-.455-12.3-.836-2.745-.9-3.689-.52-7.215.4-3.668-2.119-10.421-7.282-19.531l-.1-.184-.193-.085c-3.561-1.564-7.481-4.29-11.984-8.336-6.171-5.546-10.127-11.615-13.619-16.968-5.372-8.243-9.617-14.754-18.958-14.754-.633,0-1.294.031-1.965.092-1.148.1-2.709,1.508-4.09,2.873-.7.69-1.348,1.458-1.976,2.2-.27.32-.54.639-.812.951a53.97,53.97,0,0,0-5.719,7.876,8.793,8.793,0,0,0-1.332,7.792,74.865,74.865,0,0,0,5.721,16.443l.2.424c2.647,5.658,3.426,7.719.742,9.763a6.449,6.449,0,0,1-3.944,1.15,10.145,10.145,0,0,1-5.989-1.876,25.781,25.781,0,0,1,.325-3.12,64.083,64.083,0,0,0,.667-6.852,30.565,30.565,0,0,0-2.1-11.717l-.138-.384a34.727,34.727,0,0,0-1.363-3.406,10.739,10.739,0,0,0-1.024-1.6,4.771,4.771,0,0,1-1.232-2.723,5.878,5.878,0,0,1,.548-2.1c.076-.195.152-.39.223-.584a17.849,17.849,0,0,0,.743-6.5c0-.434-.01-.869-.008-1.307.01-2.457-.071-4.885-.156-7.162-.157-4.228-.4-9.208-1.006-14.079-.5-3.993-1.038-7.418-1.515-10.438-1.27-8.045-2.188-13.858-1.01-22.332a32.338,32.338,0,0,1,2.974-9.508c.141-.322.281-.639.417-.952,3.177-7.339,14.847-17.675,30.838-17.675m0-.636c-16.161,0-28.172,10.553-31.423,18.057-1.294,2.987-2.939,6.366-3.438,10.639-1.635,11.751.7,18.285,2.526,32.922.579,4.649.828,9.345,1,14.024.088,2.376.165,4.758.155,7.135-.011,2.58.21,5.1-.7,7.588a8.582,8.582,0,0,0-.809,2.907c.012,1.9,1.568,3.047,2.321,4.6a38.537,38.537,0,0,1,1.475,3.729,30.184,30.184,0,0,1,2.063,11.474c-.241,5.554-1.011,7.851-.995,10.269,1.089,1.142,3.884,2.243,6.626,2.243a7.081,7.081,0,0,0,4.329-1.28c3.314-2.525,1.827-5.447-.75-10.962a74.622,74.622,0,0,1-5.674-16.3,10.487,10.487,0,0,1-.282-3.651A10.363,10.363,0,0,1,59.346,291,53.221,53.221,0,0,1,65,283.213c.909-1.041,1.786-2.159,2.757-3.119.742-.733,2.623-2.594,3.7-2.693q.988-.09,1.907-.089c14.931,0,16.469,17.464,32.154,31.559,4.828,4.339,8.741,6.947,12.153,8.446,5.416,9.555,7.555,15.911,7.2,19.149-.4,3.671-.306,4.679.544,7.469s1.286,5.541.433,12.032c-.724,5.512-1.692,7.733-1.886,10.144,1.086,1.359,4.244,2.849,7.248,2.849a6.65,6.65,0,0,0,3.582-.935c3.522-2.227,1.65-5.071.209-10.986-2.115-8.682-1.89-11.349-1.5-15.222s-1.367-6.206-1.561-9.64c-.156-2.75,2.912-6.885,3.991-14.551l.1-.018c9.467-1.672,12.274-5.645,21.814-9.562,6.352-2.608,9.881-8.2,10.955-14.8.52-3.2.819-6.476,1.517-9.643.928-4.212,3.482-7.85,4.571-12.012,2.032-7.768-1.606-15.832-5.722-22.726-.317-.53-.645-1.066-1-1.582a8.8,8.8,0,0,0-3.151-3.03c-2.019-1.027-4.412-.8-6.668-.993a28.874,28.874,0,0,1-9.295-2.841c-13-5.908-27.142-14.783-37.32-24.835-8.7-8.6-17.215-14.118-29.872-14.283-.161,0-.322,0-.482,0Z" transform="translate(-45.963 -201.294)" fill="#e6e6e6"/></g><path d="M59.5,351.218c-1.876-2.368-1.545-5.578-.943-11.977s-1.044-8.606-2.458-10.924c-1.117-1.83-3.317-2.357-4.993-3.6-.3-.221-.58-.463-.865-.7.524.9,1.276,1.7,1.734,2.642a38.526,38.526,0,0,1,1.475,3.729,30.165,30.165,0,0,1,2.063,11.474c-.241,5.554-1.011,7.851-.995,10.269,1.713,1.8,7.64,3.489,10.955.963a5.566,5.566,0,0,0,1.208-1.23C64.227,353.042,61.181,353.343,59.5,351.218Z" transform="translate(-21.137 -228.785)" fill="#f0f0f0"/><g transform="translate(31.792 0.926)"><path d="M147.677,284.641a3.762,3.762,0,0,1,1.071,1.765c.121.6-.012,1.224.056,1.832.184,1.648,1.742,2.762,3.222,3.509s3.142,1.446,3.937,2.9c.944,1.727.279,3.958-.986,5.468a22.453,22.453,0,0,1-4.636,3.625,15.233,15.233,0,0,0-5.574,6.3c-.485,1.155-.757,2.4-1.318,3.515a7.218,7.218,0,0,1-4.683,3.767,6.572,6.572,0,0,1-5.8-1.412c-1.526-1.356-2.277-3.355-3.1-5.225-1.032-2.35-2.339-4.709-4.467-6.145-1.482-1-3.382-1.585-4.271-3.137-.951-1.659-.321-3.838.887-5.321a25.568,25.568,0,0,1,4.4-3.656,7.71,7.71,0,0,0,3.227-4.576c.171-1.093-.053-2.228.192-3.307C131.475,277.326,144.458,281.252,147.677,284.641Z" transform="translate(-68.707 -219.958)" fill="#37474f"/><path d="M138.19,257.01c.909.836,1.766,2.053,1.356,3.219a2.926,2.926,0,0,1-2.043,1.606,13.664,13.664,0,0,0-2.575.788c-2.521,1.348-2.7,5.21-5.135,6.7-1.682,1.027-3.947.531-5.535-.635a6.331,6.331,0,0,1-2.56-3.908,4.6,4.6,0,0,1,1.491-4.315c.765-.622,1.742-.944,2.5-1.574a20.555,20.555,0,0,0,2.2-2.811C130.962,252.441,135.283,254.333,138.19,257.01Z" transform="translate(-68.922 -214.04)" fill="#37474f"/><path d="M101.453,202.486a5.28,5.28,0,0,0-.778.644,4.182,4.182,0,0,0-1.153,3.959c.283.973,1.009,1.836.993,2.849-.024,1.427-1.446,2.365-2.2,3.574a4.271,4.271,0,0,0,.77,5.294,7.284,7.284,0,0,0,4.079,1.45,28.351,28.351,0,0,0,6.011.04c2.97-.3,6.29-.975,8.689.8a15.719,15.719,0,0,1,2.124,2.208c3.522,3.873,10.672,4.387,15.655,2.868l0-.006a106.748,106.748,0,0,1-12.314-10.321C116.591,209.2,109.964,204.4,101.453,202.486Z" transform="translate(-63.565 -202.486)" fill="#37474f"/><path d="M70.347,234.593a18.039,18.039,0,0,1,10.52.487,9.9,9.9,0,0,1,4.348,2.79c2.616,3.141,1.6,8.456-1.8,10.726-2.018,1.347-4.619,1.753-6.4,3.4-.775.719-1.345,1.636-2.115,2.361-3.478,3.276-9.177,1.508-12.784,4.65a2.587,2.587,0,0,1-1.541.885c-1.737,0-3.674-3.968-4.455-5.236a12.979,12.979,0,0,1-1.439-2.832c-1.061-3.358.718-7.007.185-10.488-.213-1.393-.792-2.709-1.024-4.1-.625-3.754.954-8.223,4.315-10.181,5.358-3.122,11.922,1.784,11.828,7.63C70.1,234.657,70.225,234.624,70.347,234.593Z" transform="translate(-53.706 -207.774)" fill="#37474f"/><path d="M69.533,275.254c-.223.441-.717.68-.991,1.09-.573.857,0,2.08-.425,3.021a2.43,2.43,0,0,1-2.023,1.2,22.742,22.742,0,0,0-2.451.178,2.23,2.23,0,0,1-1.373.1,1.544,1.544,0,0,1-.717-1.013,2.5,2.5,0,0,1,.272-2.495c.46-.472,1.183-.583,1.7-.995,1.189-.95,1.952-2.739,3.594-3.13C68.19,272.954,70.235,273.87,69.533,275.254Z" transform="translate(-55.42 -218.32)" fill="#37474f"/></g><path d="M200.655,289.875a17.575,17.575,0,0,0,.46-2.568c-.192-.2-.39-.393-.6-.574a22.163,22.163,0,0,0-4.969-3.01,5,5,0,0,0-3.013-.752,4.084,4.084,0,0,0-2.065,1.271c-2.083,2.1-3.243,4.922-4.8,7.44-3.963,6.412-10.023,12.151-15.028,17.75-5.9,6.6-11.55,17.783-9.022,26.958.024-.16.053-.317.075-.477l.1-.018c9.467-1.672,12.274-5.645,21.814-9.562,6.352-2.608,9.881-8.2,10.955-14.8.52-3.2.819-6.476,1.517-9.643C197.012,297.675,199.567,294.038,200.655,289.875Z" transform="translate(-45.951 -219.581)" fill="#f0f0f0"/><path d="M195.478,259.162c-.317-.53-.644-1.066-1-1.582a8.79,8.79,0,0,0-3.151-3.03c-2.019-1.027-4.412-.8-6.668-.993a28.873,28.873,0,0,1-9.295-2.841c-2.32-1.055-4.677-2.208-7.041-3.441a14.772,14.772,0,0,0-1.858,1.6c-2.544,2.618-4.009,6.758-2.281,9.975,1.78,3.313,6.086,4.37,8.53,7.229,1.779,2.081,2.385,4.885,3.48,7.394a12.163,12.163,0,0,0,.606,1.207c2.063,3.573,5.243,4.237,9.486,3.508,4.027-.692,7.872-2.259,11.918-2.828a2.355,2.355,0,0,0,1-.288,2.248,2.248,0,0,0,.695-.966c.391-.823.779-1.648,1.146-2.482A47.616,47.616,0,0,0,195.478,259.162Z" transform="translate(-46.495 -211.594)" fill="#37474f"/><g transform="translate(51.276 63.437)"><path d="M86.3,293.324c-.816-3.137,1.217-6.141-.507-10.28.146,4.473-3.483,10.882-6.981,12.673a15.2,15.2,0,0,1,10.4,2.425l.009,0A9.673,9.673,0,0,1,86.3,293.324Z" transform="translate(-78.815 -283.044)" fill="#f0f0f0"/><path d="M157.31,407.922a4.079,4.079,0,0,0,1.775-1.984c-1.661,1.807-6.323.859-8.22-2.787s-1.2-6.074-.4-10.374,1.013-5.359.05-7.391c-1.185-2.5-3.05-2.559-3.355-5.992h0a13.1,13.1,0,0,0,.769,4.439c.85,2.79,1.286,5.541.433,12.032-.724,5.512-1.692,7.733-1.886,10.144C148.03,407.947,153.788,410.149,157.31,407.922Z" transform="translate(-93.973 -304.628)" fill="#f0f0f0"/><path d="M132.093,344.208a31.726,31.726,0,0,0,4.277,2.322c-4.557-7.827-5.693-10.954-6.925-14.838A40.9,40.9,0,0,0,132.093,344.208Z" transform="translate(-90.157 -293.942)" fill="#f0f0f0"/></g><g transform="translate(120.176 17.406)"><g transform="translate(42.09 3.235)"><path d="M234.712,227.95c2.433-.535,2.516,2.9,2.429,4.464a17.6,17.6,0,0,1-1.287,6.163,13.5,13.5,0,0,1-3.947,4.744,27.514,27.514,0,0,0-2.638,2.064,3.076,3.076,0,0,0-1.034,2.281c0-.093-1.866-1.769-2.142-2.1a6.952,6.952,0,0,1-.665-.8,6,6,0,0,1-1.028-4.237C224.838,237.447,226.19,232.737,234.712,227.95Z" transform="translate(-222.405 -227.894)" fill="#ffa686"/><path d="M233.239,229.088c-2.71,3.993-4.853,7.995-3.864,12.194a9,9,0,0,0,2.645-3.319c.05,1.858-1.138,3.5-2.3,4.947a10.644,10.644,0,0,0-2.388,4.127c-.519-.49-1.1-1.029-1.241-1.2a6.871,6.871,0,0,1-.665-.8A6,6,0,0,1,224.4,240.8C224.812,237.9,226.03,233.57,233.239,229.088Z" transform="translate(-222.405 -228.161)" fill="#ba68c8" opacity="0.2"/><path d="M227.458,236.572c.112-.258.23-.516.356-.773a22.1,22.1,0,0,1,6.339-7.834,22.213,22.213,0,0,0-7.9,4.444c-1.847,1.609-4.81,4.244-4.359,6.99.4,2.454,2.042,4.406,3.643,6.183A26.829,26.829,0,0,1,227.458,236.572Z" transform="translate(-221.846 -227.91)" fill="#e0e0e0"/></g><path d="M214.711,232.89c4.3-3.625,2.984-9.757,4.564-9.119s5.044,5.52,3.4,11.8C220.928,239.958,213.369,236.59,214.711,232.89Z" transform="translate(-178.122 -223.725)" fill="#f5f5f5"/><g transform="translate(14.795 9.989)"><path d="M222.193,291.849a9.99,9.99,0,0,1-2.387-.282c-3.7-.913-7.4-4.165-10.1-6.539-.5-.436-.954-.838-1.369-1.187-2.553-2.149-5.793-3.257-8.928-4.328-4.935-1.686-9.6-3.279-11.5-8.643a15.935,15.935,0,0,1-.144-9.555l.221-.8c1.141-4.134,2.218-8.04,1.886-12.477a9,9,0,0,1,1.439-6.313c1.841-2.516,5.166-2.663,8.382-2.806.978-.043,1.9-.084,2.768-.192a27.344,27.344,0,0,0,4.084-.91,15.681,15.681,0,0,1,4.106-.78c2.212,0,5.513.6,8.639,5.817,2.346,3.913,2.853,9.237,3.261,13.515a35.242,35.242,0,0,0,.664,4.886c1.024,3.947,5.425,10.548,7.779,12.9l.059.059.079.025c2.276.719,3.457,2.77,3.161,5.489l-.049.471c-.212,2.122-.608,6.072-3.287,8.367a14.34,14.34,0,0,1-8.762,3.282Z" transform="translate(-186.767 -236.696)" fill="#fafafa"/><path d="M210.55,237.276c2.128,0,5.31.586,8.348,5.652,2.307,3.847,2.81,9.129,3.214,13.373a35.294,35.294,0,0,0,.674,4.939c1.036,4,5.488,10.678,7.868,13.058l.117.117.158.05c2.109.666,3.2,2.583,2.925,5.129-.016.144-.032.3-.049.473-.207,2.075-.594,5.937-3.17,8.143a14.162,14.162,0,0,1-8.54,3.2,9.625,9.625,0,0,1-2.305-.272c-3.618-.893-7.284-4.113-9.961-6.464-.5-.438-.959-.842-1.374-1.192-2.6-2.191-5.873-3.308-9.037-4.389-4.855-1.659-9.441-3.227-11.29-8.436a15.592,15.592,0,0,1-.136-9.351l.221-.8c1.148-4.163,2.233-8.1,1.9-12.591-.2-2.677.211-4.5,1.374-6.088,1.744-2.384,4.987-2.527,8.124-2.667.985-.043,1.915-.085,2.8-.195a27.539,27.539,0,0,0,4.133-.92,15.4,15.4,0,0,1,4.013-.768m0-.678c-2.513,0-5.01,1.29-8.231,1.692-3.7.462-8.865-.3-11.382,3.134a9.269,9.269,0,0,0-1.5,6.539c.348,4.661-.881,8.734-2.1,13.164a16.407,16.407,0,0,0,.151,9.758c3.2,9.034,14.093,7.7,20.529,13.117,2.652,2.234,7.135,6.691,11.61,7.8a10.3,10.3,0,0,0,2.468.292,14.759,14.759,0,0,0,8.981-3.364c3-2.57,3.239-7.1,3.452-9.058.279-2.568-.743-5.012-3.4-5.85-2.374-2.374-6.714-8.979-7.691-12.749s-.48-12.684-3.962-18.491c-3.106-5.18-6.417-5.981-8.93-5.981Z" transform="translate(-186.67 -236.598)" fill="#e6e6e6"/><path d="M229.285,287.031c-2.588.095-6.452,2.378-5.1,6.445-1.294-.616-1.332-2.872-.972-4.2.626-2.317,1.626-2.145-.038-5.423s-5.391-11.418-5.391-11.418,4.785,7.763,6.379,10.256C226.527,286.383,228.854,285.555,229.285,287.031Z" transform="translate(-193.641 -244.625)" fill="#e0e0e0"/><path d="M226.76,301.428c4.415,1.089,9.12-1.078,11.449-3.071,3-2.57,3.239-7.1,3.452-9.059.279-2.568-.743-5.012-3.4-5.849a29.69,29.69,0,0,1-3.064-3.861,14.72,14.72,0,0,0-1.556.047c-3.889.353-9.451,2.814-11.86,5.843-2.144,2.7-2.42,4.945-2.99,8.343-.1.593-.263,2.11-.289,2.714C220.922,298.562,223.841,300.708,226.76,301.428Z" transform="translate(-193.802 -246.228)" fill="#ffa686"/><path d="M241.305,300.2a6.593,6.593,0,0,1-2.434.74,10.468,10.468,0,0,0-2.491.565,10.617,10.617,0,0,0-1.854,1.152,5.867,5.867,0,0,1-1.862.731,6.594,6.594,0,0,1-6.107-1.543,4.417,4.417,0,0,0,2.891,2.121,8.514,8.514,0,0,0,4.983-.168c.83-.357,1.509-.841,2.339-1.2a6.089,6.089,0,0,1,1.674-.366,4.711,4.711,0,0,0,3.424-1.867,10.677,10.677,0,0,0,.534-1.19A4.073,4.073,0,0,1,241.305,300.2Z" transform="translate(-195.606 -250.617)" fill="#afafaf" opacity="0.3"/><path d="M232.546,295.671a1.663,1.663,0,0,1-.085,1.672,1.731,1.731,0,0,1-2.85-.581c-.354-.75-.229-1.647-.522-2.422a4.888,4.888,0,0,0-1.685-1.912c-.08-.064-.166-.18-.1-.255a.187.187,0,0,1,.152-.037,5.168,5.168,0,0,1,2.375.617,6.343,6.343,0,0,1,2.534,2.537A3.594,3.594,0,0,1,232.546,295.671Z" transform="translate(-195.768 -249.039)" fill="#455a64"/><path d="M243.624,291.141c.011.614.521,2.521,1.527,1.717.72-.575.22-1.915-.027-2.6a4.292,4.292,0,0,1-.2-2.14c.05-.31.068-1.153-.379-.508a5.9,5.9,0,0,0-.909,3.014C243.626,290.8,243.621,290.969,243.624,291.141Z" transform="translate(-199.429 -247.973)" fill="#455a64"/><g transform="translate(12.637 22.368)"><path d="M208.215,266.045a6.88,6.88,0,0,0-2.57-.616,4.915,4.915,0,0,0-1.477.138,3.033,3.033,0,0,0-1.148.555c-.051.043-.1.224-.017.217a11.024,11.024,0,0,1,1.46-.019,12.954,12.954,0,0,1,1.492.125,5.63,5.63,0,0,1,1.947.541,7.073,7.073,0,0,1,1.739,1.271c.76.653.867.781,1.427,1.256.043.036.1-.069.093-.1A5.1,5.1,0,0,0,208.215,266.045Z" transform="translate(-202.956 -265.423)" fill="#263238"/><path d="M209.132,268.443a2.054,2.054,0,1,1-2.054-2.054A2.054,2.054,0,0,1,209.132,268.443Z" transform="translate(-203.419 -265.639)" fill="#263238"/></g></g><path d="M197,236.429c-5.152-2.26-5.623-8.515-6.957-7.456s-3.277,6.721.078,12.28C193.04,244.966,199.339,239.6,197,236.429Z" transform="translate(-172.233 -224.874)" fill="#f5f5f5"/><g transform="translate(0 10.15)"><path d="M169.157,237.123c-2.769.646-1.16,4.23-.3,5.793a20.1,20.1,0,0,0,4.36,5.714,15.418,15.418,0,0,0,6.4,2.943,31.381,31.381,0,0,1,3.733.827,3.508,3.508,0,0,1,2.187,1.84c-.045-.1,1.05-2.741,1.172-3.216A7.79,7.79,0,0,0,187,249.87a6.855,6.855,0,0,0-1.027-4.87C184,242.044,180.291,237.858,169.157,237.123Z" transform="translate(-167.605 -236.876)" fill="#ffa686"/><path d="M172.113,237.344c4.758,2.778,8.935,5.845,9.982,10.656a10.279,10.279,0,0,1-4.359-2.116c.862,1.938,2.893,3.039,4.8,3.964a12.157,12.157,0,0,1,4.491,3.074c.293-.76.622-1.6.687-1.848a7.9,7.9,0,0,0,.29-1.154,6.855,6.855,0,0,0-1.027-4.87C185.132,242.272,181.744,238.411,172.113,237.344Z" transform="translate(-168.615 -236.926)" fill="#ba68c8" opacity="0.2"/><path d="M180.737,242.619q-.363-.315-.747-.621a25.248,25.248,0,0,0-10.385-4.947,25.356,25.356,0,0,1,10.327.687c2.694.748,7.042,2,7.931,5.053.793,2.726.067,5.543-.708,8.162A30.623,30.623,0,0,0,180.737,242.619Z" transform="translate(-168.053 -236.805)" fill="#e0e0e0"/></g><path d="M201.232,245.552a1.128,1.128,0,0,0,1.255.139c.37-.232.528-.718.907-.935a5.053,5.053,0,0,0,3.567,2.737,3.28,3.28,0,0,0,3.625-2.229,5.494,5.494,0,0,0,2.993.933,3.276,3.276,0,0,0,2.7-1.418c.732-1.17.46-2.68.163-4.029.785.395,1.743-.453,1.77-1.332a3.358,3.358,0,0,0-1.161-2.288c-2.573-2.673-6.33-3.43-9.893-3.632-3.188-.182-7.662.524-10.066,2.868a7.279,7.279,0,0,0,1.414.906,7.919,7.919,0,0,1,1.089,2.638,41.411,41.411,0,0,0,.891,4.449,2.573,2.573,0,0,0,.712,1.169Z" transform="translate(-174.211 -225.908)" fill="#ffa686"/><path d="M206.971,247.167c-1.251-.74-1.828-2.214-2.32-3.581a3.313,3.313,0,0,1-2.171.457.992.992,0,0,1-.71-.348,1.132,1.132,0,0,1-.077-.829,19.418,19.418,0,0,0,.45-3.065,3.824,3.824,0,0,0-1.02-2.837c-.6-.57-1.533-1.01-1.668-1.776a8.313,8.313,0,0,0-2.321,1.544,7.279,7.279,0,0,0,1.414.906,7.921,7.921,0,0,1,1.089,2.638,41.411,41.411,0,0,0,.891,4.449,2.573,2.573,0,0,0,.712,1.169l.031.026a1.128,1.128,0,0,0,1.255.139c.37-.233.528-.719.907-.935A5.052,5.052,0,0,0,207,247.859a3.492,3.492,0,0,0,1.9-.295A3.15,3.15,0,0,1,206.971,247.167Z" transform="translate(-174.22 -226.293)" fill="#636363" opacity="0.2"/></g></g><path d="M268.345,68.482c-.01-3.372-3.7-5.714-7.882-6.109-4.93-.465-8.428,1.733-8.545,5.616-3.224-1.324-6.623-.474-6.368,3.07-.838-.967-3.976-.94-5.1-.67a4.415,4.415,0,0,0-2.808,2.393,3.257,3.257,0,0,0-.292,1.814c-1.88-.616-6.154-.992-7.223.732-1.9,3.069,5.7,3.165,7.232,2.238.324,2.388,8.495,2.78,10.473.577,1.546,1.557,3.765,1.9,6.161,2.042,4.042.241,6.521-1.128,9.674-2.739,3.428,2.907,9.36,2.96,12.448-.365.788.743,2.959.974,4.7.559,1.142-.272,1.406-.759,1.406-.759a9.931,9.931,0,0,0,2.1.63c2.241.469,6.411-.026,4.661-2.045a5.264,5.264,0,0,0-3.7-.91c-.978-1.924-4.9-3.745-7.154-2.119-.087-2.329-2.217-4.152-5.214-4.615C271.9,67.666,269.491,67.53,268.345,68.482Z" transform="translate(-117.206 90.066)" fill="#f5f5f5"/><path d="M178.085,104.007c-.012-4.1-4.5-6.952-9.587-7.432-6-.566-10.252,2.108-10.4,6.831-3.922-1.61-8.057-.577-7.747,3.735-1.02-1.176-4.837-1.143-6.207-.815a5.372,5.372,0,0,0-3.417,2.911,3.972,3.972,0,0,0-.355,2.207c-2.287-.749-7.487-1.207-8.787.89-2.315,3.734,6.933,3.85,8.8,2.722.395,2.9,10.334,3.382,12.74.7,1.88,1.893,4.58,2.312,7.494,2.485,4.917.293,7.933-1.373,11.769-3.332,4.17,3.536,11.386,3.6,15.143-.444.959.9,3.6,1.185,5.715.68,1.389-.331,1.71-.923,1.71-.923a12.123,12.123,0,0,0,2.551.767c2.726.571,7.8-.032,5.671-2.488-.725-.836-3.379-1.366-4.5-1.107-1.19-2.34-5.963-4.556-8.7-2.578-.106-2.834-2.7-5.05-6.343-5.613C182.412,103.014,179.479,102.85,178.085,104.007Z" transform="translate(-95.118 82.407)" fill="#f5f5f5"/></g></g></svg>