<svg xmlns="http://www.w3.org/2000/svg" width="137.068" height="129.478" viewBox="0 0 137.068 129.478"><g transform="translate(137.068 75.512) rotate(150)"><path d="M1064.3,167.914c2.911-1.848,4.852-4.851,6.612-7.733.92-1.507,1.762-3.067,2.719-4.55a11.765,11.765,0,0,1,2.006-2.448,13.061,13.061,0,0,0,1.135-.989,1.987,1.987,0,0,1,1.345.654,2.68,2.68,0,0,1,.137,2.459,14.862,14.862,0,0,1-2.376,5.043,19.629,19.629,0,0,1-4.213,3.939,19.166,19.166,0,0,1-2.273,1.448,8.9,8.9,0,0,0-2.133,1.2c-2.386,2.31,3.038,3.564,4.35,3.775a16.435,16.435,0,0,0,9.49-.933c5.219-2.392,8.677-7.89,11.243-12.795,1.528-2.919,2.9-5.9,4.656-8.7a29.914,29.914,0,0,1,2.8-4c.3-.339.771-.949,1.214-.612.394.3.247,1.707.242,2.17-.077,7.693-4.255,14.755-9.47,20.139a21.468,21.468,0,0,1-3.735,3.1c-.736.483-1.824,1.247-1.561,2.284.63,2.483,5.512,2,7.272,1.728,5.879-.912,12.6-3.765,15.365-9.343,1.731-3.488,2.194-7.418,2.64-11.237.491-4.207,1.045-8.422,1.359-12.647.177-2.394.344-4.783,1.554-6.921.409-.723,1.045-1.758,1.94-1.919,1.3-.234,2.055,1.383,2.42,2.388,1.205,3.317.467,7.029.032,10.419-.985,7.673-2.77,15.122-6.318,22.04a1.073,1.073,0,0,0,.3,1.869c2.523.942,5.452-.355,7.8-1.259a25.685,25.685,0,0,0,7.84-4.636c4.66-4.079,6.708-10.156,7.113-16.2.479-7.125-1.734-14.377-2.561-21.413-.241-2.04-.734-4.532-.254-6.576.8-3.423,4.6,1.619,5.239,2.912A38.034,38.034,0,0,1,1141.555,131a82.564,82.564,0,0,1,.657,11.516.526.526,0,0,0,.112.3c.177,1.11,1.229,1.435,2.308.56,2.2-1.784,2.851-5.07,3.406-7.677,1.379-6.477,1.918-13.48-.04-19.887A38.554,38.554,0,0,0,1137.775,99.8a48.787,48.787,0,0,0-7.673-6.164,40.914,40.914,0,0,0-9.163-4.017,80.69,80.69,0,0,0-10.464-2.965c-2.645-.49-5.842-.907-8.437.131-1.822-.077-3.638-.121-5.438-.143-8.418-.1-17.688,1.068-24.431,6.558-2.29,1.865-4.921,4.636-5.694,7.558a2.648,2.648,0,0,0,.889,3.053c1.464.928,3.54.267,5.115.062,4.714-.615,9.618.259,14.208,1.334,4.129.969,8.364,2.441,11.579,5.311a12.76,12.76,0,0,1,3.873,5.579c.909,3.206-2.448,3.884-4.843,3.172-2.577-.765-4.97-2.173-7.5-3.09-2.685-.971-5.432-1.712-8.177-2.487-8.638-2.441-18.369-2.7-26.107,2.552a17.757,17.757,0,0,0-6.586,7.788,4.541,4.541,0,0,0,.19,4.372c1.155,1.58,3.188,1.537,4.884.979,2.55-.84,4.925-2.144,7.5-2.951a53.6,53.6,0,0,1,8.3-2.044,21.988,21.988,0,0,1,7.578.474,32.656,32.656,0,0,1,6.109,1.513c.654.265,4.688,2.823,3.368,3.3-1.094.4-3.133-.462-4.249-.681a59.89,59.89,0,0,0-8.33-1.388,46.389,46.389,0,0,0-8.579.652c-4.626.628-9,1.608-13.059,4.017a24.931,24.931,0,0,0-8.988,9c-.739,1.287-1.547,2.856-.843,4.31a1.041,1.041,0,0,0,1.183.463c1.891-.748,3.942-.855,5.868-1.482a43.224,43.224,0,0,1,7.23-2.013,9.467,9.467,0,0,1,7.59,2.124c.056,1.465-1.289,2.394-2.659,2.786-2.87.823-5.905.807-8.784,1.708a15.046,15.046,0,0,0-6.982,4.39,27.056,27.056,0,0,0-2.842,4.161c-.863,1.461-2.261,3.558-2.044,5.329a.828.828,0,0,0,.04.146.254.254,0,0,0,.038.256c1.144,1.453,3.112,2.2,4.8,2.832,2.078.778,4.223,1.454,6.356,2.06C1056.448,169.439,1060.729,170.18,1064.3,167.914Zm39.151-61.406c-2.014-.779-7.292-4.142-5.367-6.834,1.95-2.726,7.421-.778,9.777.033,3.9,1.341,9.676,3.692,12.378,7,1.453,1.779.282,2.484-1.508,2.477a49.721,49.721,0,0,1-6.443-.433A38.821,38.821,0,0,1,1103.448,106.508Z" transform="translate(-1041.344 -86.137)" fill="#4f9638"/><g transform="translate(6.387 13.805)" opacity="0.7"><path d="M1066.563,147.878c1.99-1.089,3.964-2.207,5.932-3.337,5.329-3.057,10.668-6.085,15.939-9.24,4.837-2.895,9.6-5.942,14.239-9.148,5.775-3.995,11.5-8.216,16.942-12.668a37.913,37.913,0,0,1,1.343,7.031c.024.225.4.313.432.048a14.577,14.577,0,0,0-.092-4.206,23.637,23.637,0,0,0-.9-3.505c.141-.116.287-.228.427-.346a194.715,194.715,0,0,0,15.893-14.241.487.487,0,0,0-.7-.68,172.719,172.719,0,0,1-15.056,12.391c-5.964,4.59-12.08,9.021-18.193,13.411-9.344,6.709-19.222,12.813-29.054,18.767-3.7,2.242-7.617,4.086-11.349,6.248-.646.374-.166,1.249.493,1.127A12.955,12.955,0,0,0,1066.563,147.878Z" transform="translate(-1043.155 -97.445)" fill="#0a481c"/><path d="M1111.537,122.763a79.426,79.426,0,0,1-.818,16.04c-.378,2.5-.879,4.986-1.382,7.464-.486,2.393-1.432,4.927-1.441,7.374a.26.26,0,0,0,.482.12c1.124-2.141,1.425-4.907,1.9-7.257.542-2.674.925-5.367,1.232-8.076a86.01,86.01,0,0,0,.368-15.674C1111.864,122.534,1111.525,122.541,1111.537,122.763Z" transform="translate(-1033.032 -91.891)" fill="#0a481c"/><path d="M1096.488,142.369a56.81,56.81,0,0,0,1.439-11.421,30.789,30.789,0,0,0-.859-9.308c-.061-.2-.39-.1-.311.09,1.168,2.846.5,6.239.425,9.235a56.972,56.972,0,0,1-1.416,10.93,42.83,42.83,0,0,1-7.357,17.115.24.24,0,0,0,.293.371c2.221-1.039,3.162-4.688,4.078-6.753.654-1.478,1.549-2.842,2.161-4.339A33.975,33.975,0,0,0,1096.488,142.369Z" transform="translate(-1037.349 -92.125)" fill="#0a481c"/><path d="M1078.381,145.312c.751-1.4,1.517-2.795,2.207-4.229a20.017,20.017,0,0,0,2.387-8.8.382.382,0,0,0-.763.018,19.438,19.438,0,0,1-2.649,9.114c-.71,1.359-1.479,2.688-2.222,4.03-.609,1.1-1.632,2.471-1.653,3.761a.251.251,0,0,0,.426.167,6.191,6.191,0,0,0,1.115-1.857C1077.6,146.777,1077.989,146.043,1078.381,145.312Z" transform="translate(-1040.146 -89.829)" fill="#0a481c"/><path d="M1071.021,153.889a17.332,17.332,0,0,0,1.983-1.676,30.144,30.144,0,0,0,3.163-4.009c.183-.258-.229-.555-.439-.33-1.126,1.209-2.334,2.322-3.558,3.428-.6.538-1.206,1.069-1.849,1.549-.628.469-1.525.868-1.924,1.558a.4.4,0,0,0,.35.584A4.113,4.113,0,0,0,1071.021,153.889Z" transform="translate(-1041.768 -86.325)" fill="#0a481c"/><path d="M1063.633,126.777c4.624.044,9.741.785,13.9,2.885.524.265.973-.521.451-.8-4.209-2.223-9.2-2.828-13.906-2.995a28.619,28.619,0,0,0-6.992.723,26.53,26.53,0,0,0-7.127,2.163.211.211,0,0,0,.114.389c2.167-.059,4.286-.925,6.386-1.428A29.638,29.638,0,0,1,1063.633,126.777Z" transform="translate(-1045.85 -91.17)" fill="#0a481c"/><path d="M1062.18,142.027c.378-.249.026-.844-.363-.6a60.668,60.668,0,0,1-11.132,4.984c-.144.053-.127.291.044.281a17.737,17.737,0,0,0,5.952-1.657A36.5,36.5,0,0,0,1062.18,142.027Z" transform="translate(-1045.689 -87.744)" fill="#0a481c"/><path d="M1047.736,147.5c.332-.134.673-.269,1-.42.626-.293,1.248-.59,1.887-.856a.1.1,0,0,0-.058-.2c-.694.142-1.408.266-2.087.469a7.445,7.445,0,0,0-1.011.387,4.519,4.519,0,0,0-.835.595c-.139.111.017.332.171.286C1047.109,147.668,1047.439,147.624,1047.736,147.5Z" transform="translate(-1046.576 -86.715)" fill="#0a481c"/><path d="M1082.358,116.518a10.617,10.617,0,0,0,3.41,2.268,8.28,8.28,0,0,1,3.234,2.561.353.353,0,0,0,.606-.363,8.207,8.207,0,0,0-3.136-2.861c-1.237-.722-2.545-1.353-3.83-1.985A.24.24,0,0,0,1082.358,116.518Z" transform="translate(-1038.687 -93.322)" fill="#0a481c"/><path d="M1058.034,115.153a19.191,19.191,0,0,1,3.647-1.511,27.162,27.162,0,0,1,7.595-1.058,40.41,40.41,0,0,1,14.94,2.929c.159.062.268-.21.112-.281a38.847,38.847,0,0,0-15.461-3.548,25.614,25.614,0,0,0-7.833,1.076c-2.112.648-5.086,1.675-6.314,3.648a.289.289,0,0,0,.33.415A20.834,20.834,0,0,0,1058.034,115.153Z" transform="translate(-1044.785 -94.301)" fill="#0a481c"/></g></g></svg>