<svg xmlns="http://www.w3.org/2000/svg" xmlns:xlink="http://www.w3.org/1999/xlink" width="96.36" height="95.138" viewBox="0 0 96.36 95.138"><defs><clipPath id="a"><rect width="96.36" height="95.138" fill="none"/></clipPath></defs><g transform="translate(0 0)" clip-path="url(#a)"><path d="M36.837,14.8a14.064,14.064,0,0,1-9.558,12.59,14.194,14.194,0,0,1-4.485.723h-.141a5.414,5.414,0,0,1-.6-.01,13.429,13.429,0,0,1-4.021-.825A14.056,14.056,0,0,1,22.795,0c.243,0,.473.013.729.022A14.069,14.069,0,0,1,36.837,14.8" transform="translate(19.207 0)" fill="#ffd947"/><path d="M24.517,44.407a14.082,14.082,0,1,1-1.065-19.851c.166.15.326.3.486.461a14.011,14.011,0,0,1,.579,19.39" transform="translate(0.001 46.065)" fill="#adce32"/><path d="M34.575,23.91l-.138.141-.832.806-7.594,7.379-7.728,7.5-6.621,6.426a4.622,4.622,0,0,1-6.442-6.631l6.487-6.289,8.745-8.505,7.69-7.453a4.355,4.355,0,0,1,2.124-1.168,4.512,4.512,0,0,1,3.339.438,4.022,4.022,0,0,1,.832.6.429.429,0,0,1,.083.074c.042.042.1.1.15.144a4.621,4.621,0,0,1-.1,6.528" transform="translate(8.396 35.131)" fill="#354546"/><path d="M20.924,8.326l-.013,10.92-.026,14.912-.01,5.585a4.582,4.582,0,0,1-1.385,3.291,4.519,4.519,0,0,1-2.146,1.19c-.074.016-.157.038-.224.048a3.243,3.243,0,0,1-.691.074,1.1,1.1,0,0,1-.176.01,4.614,4.614,0,0,1-4.622-4.625l.016-5.243.019-15.35.01-10.828A4.618,4.618,0,0,1,16.3,3.7h.128a4.615,4.615,0,0,1,4.494,4.622" transform="translate(25.575 8.144)" fill="#354546"/><path d="M36.944,27.08a13.162,13.162,0,0,1-.154,2.057,14.045,14.045,0,0,1-13.9,12.011,1.719,1.719,0,0,1-.288-.016,12.567,12.567,0,0,1-2.834-.349,13.942,13.942,0,0,1-4.76-2.06,13.992,13.992,0,0,1-5.562-7.494,14.04,14.04,0,0,1,8.371-17.241,11.863,11.863,0,0,1,1.951-.6,10.646,10.646,0,0,1,1.3-.24,10.465,10.465,0,0,1,1.539-.109,2.854,2.854,0,0,1,.288-.01A14.037,14.037,0,0,1,36.675,24.412a13.38,13.38,0,0,1,.269,2.668" transform="translate(19.401 28.644)" fill="#fff"/><path d="M48.342,31.39a4.741,4.741,0,0,1-.912-.093L16.624,25.136a4.624,4.624,0,0,1,1.81-9.068l30.806,6.167a4.622,4.622,0,0,1-.9,9.155" transform="translate(28.382 35.127)" fill="#354546"/><path d="M49.454,29.015A14.06,14.06,0,1,1,35.4,14.954,14.057,14.057,0,0,1,49.454,29.015" transform="translate(46.907 32.879)" fill="#ffa686"/></g></svg>