<svg xmlns="http://www.w3.org/2000/svg" width="518" height="390.55" viewBox="0 0 518 390.55"><g transform="translate(697.512 -6284.45)"><path d="M27,0H491a27,27,0,0,1,27,27V361a27,27,0,0,1-27,27H27A27,27,0,0,1,0,361V27A27,27,0,0,1,27,0Z" transform="translate(-697.512 6286)" fill="#fff"/><path d="M0,0H517.585V69.369H0Z" transform="translate(-697.512 6544.38)" fill="#ffa686" opacity="0.46"/><path d="M0,0H517.585V38.687H0Z" transform="translate(-697.512 6346.945)" fill="#ffa686" opacity="0.46"/><path d="M0,0H517.585V64.033H0Z" transform="translate(-697.512 6385.632)" fill="#fff"/><path d="M0,0H517.585V34.684H0Z" transform="translate(-697.512 6449.665)" fill="#ffa686" opacity="0.46"/><path d="M0,0H517.585V60.031H0Z" transform="translate(-697.512 6484.349)" fill="#fff"/><path d="M0,0H517.585V33.35H0Z" transform="translate(-697.512 6313.595)" fill="#fff"/><path d="M0,390.05a.5.5,0,0,1-.5-.5V0A.5.5,0,0,1,0-.5.5.5,0,0,1,.5,0V389.55A.5.5,0,0,1,0,390.05Z" transform="translate(-545.434 6284.95)" fill="#afafaf"/><path d="M0,388.5a.5.5,0,0,1-.5-.5V0A.5.5,0,0,1,0-.5.5.5,0,0,1,.5,0V388A.5.5,0,0,1,0,388.5Z" transform="translate(-339.994 6286.5)" fill="#afafaf"/><path d="M17.02,5.383H13.77V15H11.488V5.383h-3.2V3.625H17.02Zm10.234,4.953a4.776,4.776,0,0,1-1.32,3.465A4.571,4.571,0,0,1,22.5,15.164,4.529,4.529,0,0,1,19.074,13.8a4.8,4.8,0,0,1-1.312-3.461V8.289A4.807,4.807,0,0,1,19.07,4.832a4.5,4.5,0,0,1,3.41-1.371,4.583,4.583,0,0,1,3.445,1.371,4.768,4.768,0,0,1,1.328,3.457ZM24.98,8.273a3.44,3.44,0,0,0-.664-2.18,2.2,2.2,0,0,0-1.836-.852,2.129,2.129,0,0,0-1.8.852,3.512,3.512,0,0,0-.645,2.18v2.063a3.537,3.537,0,0,0,.648,2.2,2.148,2.148,0,0,0,1.813.852,2.177,2.177,0,0,0,1.828-.852,3.507,3.507,0,0,0,.656-2.2Zm6.359,2.18V15H29.059V3.625H33a4.716,4.716,0,0,1,3.043.887,3,3,0,0,1,1.1,2.473A2.494,2.494,0,0,1,36.672,8.5a3.238,3.238,0,0,1-1.355,1.027,2.448,2.448,0,0,1,1.449.992,3.146,3.146,0,0,1,.441,1.719v.836a4.135,4.135,0,0,0,.129,1,1.37,1.37,0,0,0,.441.77V15H35.426a1.263,1.263,0,0,1-.4-.828,7.275,7.275,0,0,1-.09-1.117v-.8a1.808,1.808,0,0,0-.465-1.324,1.763,1.763,0,0,0-1.316-.473Zm0-1.758h1.617a2.139,2.139,0,0,0,1.43-.406,1.506,1.506,0,0,0,.469-1.2,1.655,1.655,0,0,0-.473-1.242A1.909,1.909,0,0,0,33,5.383H31.34Zm17.117,1.641a4.776,4.776,0,0,1-1.32,3.465,4.991,4.991,0,0,1-6.859,0,4.8,4.8,0,0,1-1.312-3.461V8.289a4.807,4.807,0,0,1,1.309-3.457,4.5,4.5,0,0,1,3.41-1.371,4.583,4.583,0,0,1,3.445,1.371,4.768,4.768,0,0,1,1.328,3.457ZM46.184,8.273a3.44,3.44,0,0,0-.664-2.18,2.2,2.2,0,0,0-1.836-.852,2.129,2.129,0,0,0-1.8.852,3.512,3.512,0,0,0-.645,2.18v2.063a3.537,3.537,0,0,0,.648,2.2,2.148,2.148,0,0,0,1.813.852,2.177,2.177,0,0,0,1.828-.852,3.507,3.507,0,0,0,.656-2.2Zm13.992,4.273H56.488L55.723,15H53.34L57.176,3.625h2.336L63.332,15H60.949Zm-3.125-1.789h2.57L58.363,6.75h-.047ZM71.418,9.234h.047l1.3-2.687H75.34l-2.547,4.18L75.426,15h-2.57l-1.383-2.8L70.09,15H67.512l2.633-4.273L67.59,6.547h2.563Zm13.023,2.68.141.625h.047l.133-.6,2.477-8.312h2.406L85.777,15H83.434L79.574,3.625H81.98ZM95.2,15a4.8,4.8,0,0,1-.215-.609,4.238,4.238,0,0,1-.129-.656,3.127,3.127,0,0,1-.93,1.023,2.33,2.33,0,0,1-1.375.406A2.855,2.855,0,0,1,90.5,14.48a2.449,2.449,0,0,1-.719-1.863,2.229,2.229,0,0,1,.957-1.926,4.78,4.78,0,0,1,2.793-.684h1.281V9.336a1.315,1.315,0,0,0-.32-.945,1.257,1.257,0,0,0-.953-.336,1.239,1.239,0,0,0-.855.27.941.941,0,0,0-.3.738h-2.2l-.016-.047a2.144,2.144,0,0,1,.934-1.848,4.055,4.055,0,0,1,2.582-.777,3.784,3.784,0,0,1,2.465.766,2.667,2.667,0,0,1,.941,2.2v3.492a6.6,6.6,0,0,0,.09,1.117A5.606,5.606,0,0,0,97.473,15Zm-2.086-1.523a1.944,1.944,0,0,0,1.063-.3,1.6,1.6,0,0,0,.641-.687V11.3H93.535a1.519,1.519,0,0,0-1.1.359,1.181,1.181,0,0,0-.371.883.881.881,0,0,0,.277.684A1.1,1.1,0,0,0,93.113,13.477Zm9.227-.062a1.27,1.27,0,0,0,.945-.355,1.291,1.291,0,0,0,.352-.949h2.078l.016.047a2.645,2.645,0,0,1-.953,2.145,3.564,3.564,0,0,1-2.437.863,3.6,3.6,0,0,1-2.9-1.2A4.558,4.558,0,0,1,98.418,10.9v-.234A4.588,4.588,0,0,1,99.438,7.6a3.57,3.57,0,0,1,2.887-1.207,3.486,3.486,0,0,1,2.492.891,2.976,2.976,0,0,1,.914,2.344l-.016.047h-2.078a1.687,1.687,0,0,0-.348-1.09,1.168,1.168,0,0,0-.965-.434,1.3,1.3,0,0,0-1.254.707,3.878,3.878,0,0,0-.371,1.809V10.9a3.863,3.863,0,0,0,.371,1.82A1.32,1.32,0,0,0,102.34,13.414Zm9.7,1.586a4.8,4.8,0,0,1-.215-.609,4.238,4.238,0,0,1-.129-.656,3.127,3.127,0,0,1-.93,1.023,2.33,2.33,0,0,1-1.375.406,2.855,2.855,0,0,1-2.047-.684,2.449,2.449,0,0,1-.719-1.863,2.229,2.229,0,0,1,.957-1.926,4.78,4.78,0,0,1,2.793-.684h1.281V9.336a1.315,1.315,0,0,0-.32-.945,1.257,1.257,0,0,0-.953-.336,1.239,1.239,0,0,0-.855.27.941.941,0,0,0-.3.738h-2.2l-.016-.047a2.144,2.144,0,0,1,.934-1.848,4.055,4.055,0,0,1,2.582-.777A3.784,3.784,0,0,1,113,7.156a2.667,2.667,0,0,1,.941,2.2v3.492a6.6,6.6,0,0,0,.09,1.117A5.606,5.606,0,0,0,114.316,15Zm-2.086-1.523a1.944,1.944,0,0,0,1.063-.3,1.6,1.6,0,0,0,.641-.687V11.3h-1.281a1.519,1.519,0,0,0-1.1.359,1.181,1.181,0,0,0-.371.883.881.881,0,0,0,.277.684A1.1,1.1,0,0,0,109.957,13.477ZM119.809,15V3.625h3.727a5.41,5.41,0,0,1,3.133.785,2.659,2.659,0,0,1,1.125,2.332A2.415,2.415,0,0,1,126.2,9.07a2.451,2.451,0,0,1,1.6.922,2.768,2.768,0,0,1,.539,1.7,2.943,2.943,0,0,1-1.078,2.473,4.873,4.873,0,0,1-3.055.84Zm2.281-5.031V13.25h2.117a2.119,2.119,0,0,0,1.383-.395,1.429,1.429,0,0,0,.477-1.168,1.673,1.673,0,0,0-.469-1.273,1.985,1.985,0,0,0-1.414-.445Zm0-1.578h1.523a2.283,2.283,0,0,0,1.406-.375,1.291,1.291,0,0,0,.492-1.094,1.365,1.365,0,0,0-.5-1.164,2.437,2.437,0,0,0-1.48-.375H122.09Z" transform="translate(-687.125 6309.27)" fill="#12263f"/><path d="M7.7,10.273H3.328V15H1.047V3.625H8.492V5.383H3.328V8.516H7.7ZM15.117,15H12.844V5.609H10.492V3.867l4.625-.406Zm9.938-2.453H21.367L20.6,15H18.219L22.055,3.625h2.336L28.211,15H25.828ZM21.93,10.758H24.5L23.242,6.75H23.2ZM29.3,15V3.625h3.727a5.41,5.41,0,0,1,3.133.785,2.659,2.659,0,0,1,1.125,2.332A2.415,2.415,0,0,1,35.7,9.07a2.451,2.451,0,0,1,1.6.922,2.768,2.768,0,0,1,.539,1.7,2.943,2.943,0,0,1-1.078,2.473A4.873,4.873,0,0,1,33.7,15Zm2.281-5.031V13.25H33.7a2.119,2.119,0,0,0,1.383-.395,1.429,1.429,0,0,0,.477-1.168,1.673,1.673,0,0,0-.469-1.273,1.985,1.985,0,0,0-1.414-.445Zm0-1.578h1.523a2.283,2.283,0,0,0,1.406-.375,1.291,1.291,0,0,0,.492-1.094,1.365,1.365,0,0,0-.5-1.164,2.437,2.437,0,0,0-1.48-.375H31.586Z" transform="translate(-678.125 6354.789)" fill="#12263f"/><path d="M8.977,5.383H5.727V15H3.445V5.383H.242V3.625H8.977Zm10.234,4.953a4.776,4.776,0,0,1-1.32,3.465,4.571,4.571,0,0,1-3.437,1.363A4.529,4.529,0,0,1,11.031,13.8a4.8,4.8,0,0,1-1.312-3.461V8.289a4.807,4.807,0,0,1,1.309-3.457,4.5,4.5,0,0,1,3.41-1.371,4.583,4.583,0,0,1,3.445,1.371,4.768,4.768,0,0,1,1.328,3.457ZM16.938,8.273a3.44,3.44,0,0,0-.664-2.18,2.2,2.2,0,0,0-1.836-.852,2.129,2.129,0,0,0-1.8.852,3.512,3.512,0,0,0-.645,2.18v2.063a3.537,3.537,0,0,0,.648,2.2,2.148,2.148,0,0,0,1.813.852,2.177,2.177,0,0,0,1.828-.852,3.507,3.507,0,0,0,.656-2.2Zm6.359,2.18V15H21.016V3.625h3.938A4.716,4.716,0,0,1,28,4.512a3,3,0,0,1,1.1,2.473A2.494,2.494,0,0,1,28.629,8.5a3.238,3.238,0,0,1-1.355,1.027,2.448,2.448,0,0,1,1.449.992,3.146,3.146,0,0,1,.441,1.719v.836a4.135,4.135,0,0,0,.129,1,1.37,1.37,0,0,0,.441.77V15H27.383a1.263,1.263,0,0,1-.4-.828,7.275,7.275,0,0,1-.09-1.117v-.8a1.808,1.808,0,0,0-.465-1.324,1.763,1.763,0,0,0-1.316-.473Zm0-1.758h1.617a2.139,2.139,0,0,0,1.43-.406,1.506,1.506,0,0,0,.469-1.2,1.655,1.655,0,0,0-.473-1.242,1.909,1.909,0,0,0-1.387-.461H23.3Zm17.117,1.641a4.776,4.776,0,0,1-1.32,3.465,4.991,4.991,0,0,1-6.859,0,4.8,4.8,0,0,1-1.312-3.461V8.289A4.807,4.807,0,0,1,32.23,4.832a4.5,4.5,0,0,1,3.41-1.371,4.583,4.583,0,0,1,3.445,1.371,4.768,4.768,0,0,1,1.328,3.457ZM38.141,8.273a3.44,3.44,0,0,0-.664-2.18,2.2,2.2,0,0,0-1.836-.852,2.129,2.129,0,0,0-1.8.852,3.512,3.512,0,0,0-.645,2.18v2.063a3.537,3.537,0,0,0,.648,2.2,2.148,2.148,0,0,0,1.813.852,2.177,2.177,0,0,0,1.828-.852,3.507,3.507,0,0,0,.656-2.2Zm13.992,4.273H48.445L47.68,15H45.3L49.133,3.625h2.336L55.289,15H52.906Zm-3.125-1.789h2.57L50.32,6.75h-.047ZM56.383,15V3.625h3.727a5.41,5.41,0,0,1,3.133.785,2.659,2.659,0,0,1,1.125,2.332A2.415,2.415,0,0,1,62.773,9.07a2.451,2.451,0,0,1,1.6.922,2.768,2.768,0,0,1,.539,1.7,2.943,2.943,0,0,1-1.078,2.473,4.873,4.873,0,0,1-3.055.84Zm2.281-5.031V13.25h2.117a2.119,2.119,0,0,0,1.383-.395,1.429,1.429,0,0,0,.477-1.168,1.673,1.673,0,0,0-.469-1.273,1.985,1.985,0,0,0-1.414-.445Zm0-1.578h1.523a2.283,2.283,0,0,0,1.406-.375,1.291,1.291,0,0,0,.492-1.094,1.365,1.365,0,0,0-.5-1.164,2.437,2.437,0,0,0-1.48-.375H58.664Zm14.906.844h.047l1.3-2.687h2.578l-2.547,4.18L77.578,15h-2.57l-1.383-2.8L72.242,15H69.664L72.3,10.727l-2.555-4.18H72.3Zm13.023,2.68.141.625h.047l.133-.6,2.477-8.312H91.8L87.93,15H85.586L81.727,3.625h2.406ZM97.352,15a4.8,4.8,0,0,1-.215-.609,4.238,4.238,0,0,1-.129-.656,3.127,3.127,0,0,1-.93,1.023,2.33,2.33,0,0,1-1.375.406,2.855,2.855,0,0,1-2.047-.684,2.449,2.449,0,0,1-.719-1.863,2.229,2.229,0,0,1,.957-1.926,4.78,4.78,0,0,1,2.793-.684h1.281V9.336a1.315,1.315,0,0,0-.32-.945,1.257,1.257,0,0,0-.953-.336,1.239,1.239,0,0,0-.855.27.941.941,0,0,0-.3.738h-2.2l-.016-.047a2.144,2.144,0,0,1,.934-1.848,4.055,4.055,0,0,1,2.582-.777,3.784,3.784,0,0,1,2.465.766,2.667,2.667,0,0,1,.941,2.2v3.492a6.6,6.6,0,0,0,.09,1.117A5.606,5.606,0,0,0,99.625,15Zm-2.086-1.523a1.944,1.944,0,0,0,1.063-.3,1.6,1.6,0,0,0,.641-.687V11.3H95.688a1.519,1.519,0,0,0-1.1.359,1.181,1.181,0,0,0-.371.883.881.881,0,0,0,.277.684A1.1,1.1,0,0,0,95.266,13.477Zm9.227-.062a1.27,1.27,0,0,0,.945-.355,1.291,1.291,0,0,0,.352-.949h2.078l.016.047a2.645,2.645,0,0,1-.953,2.145,3.564,3.564,0,0,1-2.437.863,3.6,3.6,0,0,1-2.9-1.2A4.558,4.558,0,0,1,100.57,10.9v-.234A4.588,4.588,0,0,1,101.59,7.6a3.57,3.57,0,0,1,2.887-1.207,3.486,3.486,0,0,1,2.492.891,2.976,2.976,0,0,1,.914,2.344l-.016.047h-2.078a1.687,1.687,0,0,0-.348-1.09,1.168,1.168,0,0,0-.965-.434,1.3,1.3,0,0,0-1.254.707,3.878,3.878,0,0,0-.371,1.809V10.9a3.863,3.863,0,0,0,.371,1.82A1.32,1.32,0,0,0,104.492,13.414ZM114.2,15a4.8,4.8,0,0,1-.215-.609,4.238,4.238,0,0,1-.129-.656,3.127,3.127,0,0,1-.93,1.023,2.33,2.33,0,0,1-1.375.406,2.855,2.855,0,0,1-2.047-.684,2.449,2.449,0,0,1-.719-1.863,2.229,2.229,0,0,1,.957-1.926,4.78,4.78,0,0,1,2.793-.684h1.281V9.336a1.315,1.315,0,0,0-.32-.945,1.257,1.257,0,0,0-.953-.336,1.239,1.239,0,0,0-.855.27.941.941,0,0,0-.3.738h-2.2l-.016-.047a2.144,2.144,0,0,1,.934-1.848,4.055,4.055,0,0,1,2.582-.777,3.784,3.784,0,0,1,2.465.766,2.667,2.667,0,0,1,.941,2.2v3.492a6.6,6.6,0,0,0,.09,1.117A5.606,5.606,0,0,0,116.469,15Zm-2.086-1.523a1.944,1.944,0,0,0,1.063-.3,1.6,1.6,0,0,0,.641-.687V11.3h-1.281a1.519,1.519,0,0,0-1.1.359,1.181,1.181,0,0,0-.371.883.881.881,0,0,0,.277.684A1.1,1.1,0,0,0,112.109,13.477ZM9.578,35.234l.016.047a3.561,3.561,0,0,1-1.109,2.852,4.523,4.523,0,0,1-3.148,1.031,4.361,4.361,0,0,1-3.3-1.316,4.722,4.722,0,0,1-1.258-3.4V32.188A4.809,4.809,0,0,1,2,28.785a4.182,4.182,0,0,1,3.219-1.324,4.8,4.8,0,0,1,3.25,1.016,3.5,3.5,0,0,1,1.141,2.859l-.016.047H7.375a2.236,2.236,0,0,0-.527-1.629,2.2,2.2,0,0,0-1.629-.535,1.839,1.839,0,0,0-1.6.824,3.645,3.645,0,0,0-.574,2.129v2.273a3.538,3.538,0,0,0,.605,2.141,1.968,1.968,0,0,0,1.684.828,2,2,0,0,0,1.527-.535,2.328,2.328,0,0,0,.5-1.645ZM11.227,39V27.625H15.2a4.693,4.693,0,0,1,3.438,1.332,4.592,4.592,0,0,1,1.352,3.418v1.883a4.576,4.576,0,0,1-1.352,3.418A4.708,4.708,0,0,1,15.2,39Zm2.281-9.617V37.25H15.2a2.227,2.227,0,0,0,1.813-.84,3.287,3.287,0,0,0,.688-2.152v-1.9a3.259,3.259,0,0,0-.687-2.141,2.231,2.231,0,0,0-1.812-.836Z" transform="translate(-687.125 6399.148)" fill="#12263f"/><path d="M17.1,10.273H12.734V15H10.453V3.625H17.9V5.383H12.734V8.516H17.1ZM28.508,15H26.234V5.609H23.883V3.867l4.625-.406ZM42.43,12.547H38.742L37.977,15H35.594L39.43,3.625h2.336L45.586,15H43.2ZM39.3,10.758h2.57L40.617,6.75H40.57ZM46.68,15V3.625h3.727a5.41,5.41,0,0,1,3.133.785,2.659,2.659,0,0,1,1.125,2.332A2.415,2.415,0,0,1,53.07,9.07a2.451,2.451,0,0,1,1.6.922,2.768,2.768,0,0,1,.539,1.7,2.943,2.943,0,0,1-1.078,2.473,4.873,4.873,0,0,1-3.055.84Zm2.281-5.031V13.25h2.117a2.119,2.119,0,0,0,1.383-.395,1.429,1.429,0,0,0,.477-1.168,1.673,1.673,0,0,0-.469-1.273,1.985,1.985,0,0,0-1.414-.445Zm0-1.578h1.523a2.283,2.283,0,0,0,1.406-.375,1.291,1.291,0,0,0,.492-1.094,1.365,1.365,0,0,0-.5-1.164,2.437,2.437,0,0,0-1.48-.375H48.961Zm16.445,2.844.016.047a3.561,3.561,0,0,1-1.109,2.852,4.523,4.523,0,0,1-3.148,1.031,4.361,4.361,0,0,1-3.3-1.316,4.722,4.722,0,0,1-1.258-3.4V8.188a4.809,4.809,0,0,1,1.227-3.4,4.182,4.182,0,0,1,3.219-1.324A4.8,4.8,0,0,1,64.3,4.477a3.5,3.5,0,0,1,1.141,2.859l-.016.047H63.2a2.236,2.236,0,0,0-.527-1.629,2.2,2.2,0,0,0-1.629-.535,1.839,1.839,0,0,0-1.6.824,3.645,3.645,0,0,0-.574,2.129v2.273a3.538,3.538,0,0,0,.605,2.141,1.968,1.968,0,0,0,1.684.828,2,2,0,0,0,1.527-.535,2.328,2.328,0,0,0,.5-1.645ZM67.055,15V3.625h3.969a4.693,4.693,0,0,1,3.438,1.332,4.592,4.592,0,0,1,1.352,3.418v1.883a4.576,4.576,0,0,1-1.352,3.418A4.708,4.708,0,0,1,71.023,15Zm2.281-9.617V13.25h1.688a2.227,2.227,0,0,0,1.813-.84,3.287,3.287,0,0,0,.688-2.152v-1.9a3.259,3.259,0,0,0-.687-2.141,2.231,2.231,0,0,0-1.812-.836Z" transform="translate(-545.434 6502.864)" fill="#12263f"/><path d="M7.7,10.273H3.328V15H1.047V3.625H8.492V5.383H3.328V8.516H7.7ZM21.43,15H13.8V13.508L17.32,9.523a8.9,8.9,0,0,0,1.121-1.574,2.616,2.616,0,0,0,.332-1.184,1.7,1.7,0,0,0-.352-1.125,1.294,1.294,0,0,0-1.055-.422,1.354,1.354,0,0,0-1.148.539,2.208,2.208,0,0,0-.406,1.367H13.594l-.016-.047a3.379,3.379,0,0,1,1-2.566,3.746,3.746,0,0,1,2.789-1.051,3.858,3.858,0,0,1,2.719.895,3.111,3.111,0,0,1,.969,2.4,3.379,3.379,0,0,1-.543,1.867,21.021,21.021,0,0,1-1.871,2.336l-1.875,2.25.016.039H21.43Zm11.594-2.453H29.336L28.57,15H26.188L30.023,3.625h2.336L36.18,15H33.8ZM29.9,10.758h2.57L31.211,6.75h-.047ZM37.273,15V3.625H41a5.41,5.41,0,0,1,3.133.785,2.659,2.659,0,0,1,1.125,2.332A2.415,2.415,0,0,1,43.664,9.07a2.451,2.451,0,0,1,1.6.922,2.768,2.768,0,0,1,.539,1.7,2.943,2.943,0,0,1-1.078,2.473,4.873,4.873,0,0,1-3.055.84Zm2.281-5.031V13.25h2.117a2.119,2.119,0,0,0,1.383-.395,1.429,1.429,0,0,0,.477-1.168,1.673,1.673,0,0,0-.469-1.273,1.985,1.985,0,0,0-1.414-.445Zm0-1.578h1.523a2.283,2.283,0,0,0,1.406-.375,1.291,1.291,0,0,0,.492-1.094,1.365,1.365,0,0,0-.5-1.164A2.437,2.437,0,0,0,41,5.383H39.555ZM56,11.234l.016.047a3.561,3.561,0,0,1-1.109,2.852,4.523,4.523,0,0,1-3.148,1.031,4.361,4.361,0,0,1-3.3-1.316,4.722,4.722,0,0,1-1.258-3.4V8.188a4.809,4.809,0,0,1,1.227-3.4,4.182,4.182,0,0,1,3.219-1.324,4.8,4.8,0,0,1,3.25,1.016,3.5,3.5,0,0,1,1.141,2.859l-.016.047H53.8a2.236,2.236,0,0,0-.527-1.629,2.2,2.2,0,0,0-1.629-.535,1.839,1.839,0,0,0-1.6.824,3.645,3.645,0,0,0-.574,2.129v2.273a3.538,3.538,0,0,0,.605,2.141,1.968,1.968,0,0,0,1.684.828,2,2,0,0,0,1.527-.535,2.328,2.328,0,0,0,.5-1.645ZM57.648,15V3.625h3.969a4.693,4.693,0,0,1,3.438,1.332,4.592,4.592,0,0,1,1.352,3.418v1.883a4.576,4.576,0,0,1-1.352,3.418A4.708,4.708,0,0,1,61.617,15ZM59.93,5.383V13.25h1.688a2.227,2.227,0,0,0,1.813-.84,3.287,3.287,0,0,0,.688-2.152v-1.9a3.259,3.259,0,0,0-.687-2.141,2.231,2.231,0,0,0-1.812-.836Z" transform="translate(-536.125 6632.009)" fill="#12263f"/><path d="M8.977,5.383H5.727V15H3.445V5.383H.242V3.625H8.977Zm10.234,4.953a4.776,4.776,0,0,1-1.32,3.465,4.571,4.571,0,0,1-3.437,1.363A4.529,4.529,0,0,1,11.031,13.8a4.8,4.8,0,0,1-1.312-3.461V8.289a4.807,4.807,0,0,1,1.309-3.457,4.5,4.5,0,0,1,3.41-1.371,4.583,4.583,0,0,1,3.445,1.371,4.768,4.768,0,0,1,1.328,3.457ZM16.938,8.273a3.44,3.44,0,0,0-.664-2.18,2.2,2.2,0,0,0-1.836-.852,2.129,2.129,0,0,0-1.8.852,3.512,3.512,0,0,0-.645,2.18v2.063a3.537,3.537,0,0,0,.648,2.2,2.148,2.148,0,0,0,1.813.852,2.177,2.177,0,0,0,1.828-.852,3.507,3.507,0,0,0,.656-2.2Zm6.359,2.18V15H21.016V3.625h3.938A4.716,4.716,0,0,1,28,4.512a3,3,0,0,1,1.1,2.473A2.494,2.494,0,0,1,28.629,8.5a3.238,3.238,0,0,1-1.355,1.027,2.448,2.448,0,0,1,1.449.992,3.146,3.146,0,0,1,.441,1.719v.836a4.135,4.135,0,0,0,.129,1,1.37,1.37,0,0,0,.441.77V15H27.383a1.263,1.263,0,0,1-.4-.828,7.275,7.275,0,0,1-.09-1.117v-.8a1.808,1.808,0,0,0-.465-1.324,1.763,1.763,0,0,0-1.316-.473Zm0-1.758h1.617a2.139,2.139,0,0,0,1.43-.406,1.506,1.506,0,0,0,.469-1.2,1.655,1.655,0,0,0-.473-1.242,1.909,1.909,0,0,0-1.387-.461H23.3Zm17.117,1.641a4.776,4.776,0,0,1-1.32,3.465,4.991,4.991,0,0,1-6.859,0,4.8,4.8,0,0,1-1.312-3.461V8.289A4.807,4.807,0,0,1,32.23,4.832a4.5,4.5,0,0,1,3.41-1.371,4.583,4.583,0,0,1,3.445,1.371,4.768,4.768,0,0,1,1.328,3.457ZM38.141,8.273a3.44,3.44,0,0,0-.664-2.18,2.2,2.2,0,0,0-1.836-.852,2.129,2.129,0,0,0-1.8.852,3.512,3.512,0,0,0-.645,2.18v2.063a3.537,3.537,0,0,0,.648,2.2,2.148,2.148,0,0,0,1.813.852,2.177,2.177,0,0,0,1.828-.852,3.507,3.507,0,0,0,.656-2.2Zm13.992,4.273H48.445L47.68,15H45.3L49.133,3.625h2.336L55.289,15H52.906Zm-3.125-1.789h2.57L50.32,6.75h-.047ZM56.383,15V3.625h3.727a5.41,5.41,0,0,1,3.133.785,2.659,2.659,0,0,1,1.125,2.332A2.415,2.415,0,0,1,62.773,9.07a2.451,2.451,0,0,1,1.6.922,2.768,2.768,0,0,1,.539,1.7,2.943,2.943,0,0,1-1.078,2.473,4.873,4.873,0,0,1-3.055.84Zm2.281-5.031V13.25h2.117a2.119,2.119,0,0,0,1.383-.395,1.429,1.429,0,0,0,.477-1.168,1.673,1.673,0,0,0-.469-1.273,1.985,1.985,0,0,0-1.414-.445Zm0-1.578h1.523a2.283,2.283,0,0,0,1.406-.375,1.291,1.291,0,0,0,.492-1.094,1.365,1.365,0,0,0-.5-1.164,2.437,2.437,0,0,0-1.48-.375H58.664Zm14.906.844h.047l1.3-2.687h2.578l-2.547,4.18L77.578,15h-2.57l-1.383-2.8L72.242,15H69.664L72.3,10.727l-2.555-4.18H72.3Zm13.023,2.68.141.625h.047l.133-.6,2.477-8.312H91.8L87.93,15H85.586L81.727,3.625h2.406ZM97.352,15a4.8,4.8,0,0,1-.215-.609,4.238,4.238,0,0,1-.129-.656,3.127,3.127,0,0,1-.93,1.023,2.33,2.33,0,0,1-1.375.406,2.855,2.855,0,0,1-2.047-.684,2.449,2.449,0,0,1-.719-1.863,2.229,2.229,0,0,1,.957-1.926,4.78,4.78,0,0,1,2.793-.684h1.281V9.336a1.315,1.315,0,0,0-.32-.945,1.257,1.257,0,0,0-.953-.336,1.239,1.239,0,0,0-.855.27.941.941,0,0,0-.3.738h-2.2l-.016-.047a2.144,2.144,0,0,1,.934-1.848,4.055,4.055,0,0,1,2.582-.777,3.784,3.784,0,0,1,2.465.766,2.667,2.667,0,0,1,.941,2.2v3.492a6.6,6.6,0,0,0,.09,1.117A5.606,5.606,0,0,0,99.625,15Zm-2.086-1.523a1.944,1.944,0,0,0,1.063-.3,1.6,1.6,0,0,0,.641-.687V11.3H95.688a1.519,1.519,0,0,0-1.1.359,1.181,1.181,0,0,0-.371.883.881.881,0,0,0,.277.684A1.1,1.1,0,0,0,95.266,13.477Zm9.227-.062a1.27,1.27,0,0,0,.945-.355,1.291,1.291,0,0,0,.352-.949h2.078l.016.047a2.645,2.645,0,0,1-.953,2.145,3.564,3.564,0,0,1-2.437.863,3.6,3.6,0,0,1-2.9-1.2A4.558,4.558,0,0,1,100.57,10.9v-.234A4.588,4.588,0,0,1,101.59,7.6a3.57,3.57,0,0,1,2.887-1.207,3.486,3.486,0,0,1,2.492.891,2.976,2.976,0,0,1,.914,2.344l-.016.047h-2.078a1.687,1.687,0,0,0-.348-1.09,1.168,1.168,0,0,0-.965-.434,1.3,1.3,0,0,0-1.254.707,3.878,3.878,0,0,0-.371,1.809V10.9a3.863,3.863,0,0,0,.371,1.82A1.32,1.32,0,0,0,104.492,13.414ZM114.2,15a4.8,4.8,0,0,1-.215-.609,4.238,4.238,0,0,1-.129-.656,3.127,3.127,0,0,1-.93,1.023,2.33,2.33,0,0,1-1.375.406,2.855,2.855,0,0,1-2.047-.684,2.449,2.449,0,0,1-.719-1.863,2.229,2.229,0,0,1,.957-1.926,4.78,4.78,0,0,1,2.793-.684h1.281V9.336a1.315,1.315,0,0,0-.32-.945,1.257,1.257,0,0,0-.953-.336,1.239,1.239,0,0,0-.855.27.941.941,0,0,0-.3.738h-2.2l-.016-.047a2.144,2.144,0,0,1,.934-1.848,4.055,4.055,0,0,1,2.582-.777,3.784,3.784,0,0,1,2.465.766,2.667,2.667,0,0,1,.941,2.2v3.492a6.6,6.6,0,0,0,.09,1.117A5.606,5.606,0,0,0,116.469,15Zm-2.086-1.523a1.944,1.944,0,0,0,1.063-.3,1.6,1.6,0,0,0,.641-.687V11.3h-1.281a1.519,1.519,0,0,0-1.1.359,1.181,1.181,0,0,0-.371.883.881.881,0,0,0,.277.684A1.1,1.1,0,0,0,112.109,13.477ZM6.977,36.547H3.289L2.523,39H.141L3.977,27.625H6.313L10.133,39H7.75ZM3.852,34.758h2.57L5.164,30.75H5.117ZM11.227,39V27.625h3.727a5.41,5.41,0,0,1,3.133.785,2.659,2.659,0,0,1,1.125,2.332,2.415,2.415,0,0,1-1.594,2.328,2.451,2.451,0,0,1,1.6.922,2.768,2.768,0,0,1,.539,1.7A2.943,2.943,0,0,1,18.68,38.16a4.873,4.873,0,0,1-3.055.84Zm2.281-5.031V37.25h2.117a2.119,2.119,0,0,0,1.383-.395,1.429,1.429,0,0,0,.477-1.168,1.673,1.673,0,0,0-.469-1.273,1.985,1.985,0,0,0-1.414-.445Zm0-1.578h1.523a2.283,2.283,0,0,0,1.406-.375,1.291,1.291,0,0,0,.492-1.094,1.365,1.365,0,0,0-.5-1.164,2.437,2.437,0,0,0-1.48-.375H13.508Zm16.445,2.844.016.047a3.561,3.561,0,0,1-1.109,2.852,4.523,4.523,0,0,1-3.148,1.031,4.361,4.361,0,0,1-3.3-1.316,4.722,4.722,0,0,1-1.258-3.4V32.188a4.809,4.809,0,0,1,1.227-3.4,4.182,4.182,0,0,1,3.219-1.324,4.8,4.8,0,0,1,3.25,1.016,3.5,3.5,0,0,1,1.141,2.859l-.016.047H27.75a2.236,2.236,0,0,0-.527-1.629,2.2,2.2,0,0,0-1.629-.535,1.839,1.839,0,0,0-1.6.824,3.645,3.645,0,0,0-.574,2.129v2.273a3.538,3.538,0,0,0,.605,2.141,1.968,1.968,0,0,0,1.684.828,2,2,0,0,0,1.527-.535,2.328,2.328,0,0,0,.5-1.645ZM31.6,39V27.625H35.57a4.693,4.693,0,0,1,3.438,1.332,4.592,4.592,0,0,1,1.352,3.418v1.883a4.575,4.575,0,0,1-1.352,3.418A4.708,4.708,0,0,1,35.57,39Zm2.281-9.617V37.25H35.57a2.227,2.227,0,0,0,1.813-.84,3.287,3.287,0,0,0,.688-2.152v-1.9a3.259,3.259,0,0,0-.687-2.141,2.231,2.231,0,0,0-1.812-.836Z" transform="translate(-536.125 6556.564)" fill="#12263f"/><path d="M17.324,5.383h-3.25V15H11.793V5.383H8.59V3.625h8.734Zm10.234,4.953a4.776,4.776,0,0,1-1.32,3.465A4.571,4.571,0,0,1,22.8,15.164,4.529,4.529,0,0,1,19.379,13.8a4.8,4.8,0,0,1-1.312-3.461V8.289a4.807,4.807,0,0,1,1.309-3.457,4.5,4.5,0,0,1,3.41-1.371A4.583,4.583,0,0,1,26.23,4.832a4.768,4.768,0,0,1,1.328,3.457ZM25.285,8.273a3.44,3.44,0,0,0-.664-2.18,2.2,2.2,0,0,0-1.836-.852,2.129,2.129,0,0,0-1.8.852,3.512,3.512,0,0,0-.645,2.18v2.063a3.537,3.537,0,0,0,.648,2.2,2.148,2.148,0,0,0,1.813.852,2.177,2.177,0,0,0,1.828-.852,3.507,3.507,0,0,0,.656-2.2Zm6.359,2.18V15H29.363V3.625H33.3a4.716,4.716,0,0,1,3.043.887,3,3,0,0,1,1.1,2.473A2.494,2.494,0,0,1,36.977,8.5a3.238,3.238,0,0,1-1.355,1.027,2.448,2.448,0,0,1,1.449.992,3.146,3.146,0,0,1,.441,1.719v.836a4.135,4.135,0,0,0,.129,1,1.37,1.37,0,0,0,.441.77V15H35.73a1.263,1.263,0,0,1-.4-.828,7.275,7.275,0,0,1-.09-1.117v-.8a1.808,1.808,0,0,0-.465-1.324,1.763,1.763,0,0,0-1.316-.473Zm0-1.758h1.617a2.139,2.139,0,0,0,1.43-.406,1.506,1.506,0,0,0,.469-1.2,1.655,1.655,0,0,0-.473-1.242A1.909,1.909,0,0,0,33.3,5.383H31.645Zm17.117,1.641a4.776,4.776,0,0,1-1.32,3.465,4.991,4.991,0,0,1-6.859,0,4.8,4.8,0,0,1-1.312-3.461V8.289a4.807,4.807,0,0,1,1.309-3.457,4.5,4.5,0,0,1,3.41-1.371,4.583,4.583,0,0,1,3.445,1.371,4.768,4.768,0,0,1,1.328,3.457ZM46.488,8.273a3.44,3.44,0,0,0-.664-2.18,2.2,2.2,0,0,0-1.836-.852,2.129,2.129,0,0,0-1.8.852,3.512,3.512,0,0,0-.645,2.18v2.063a3.537,3.537,0,0,0,.648,2.2A2.148,2.148,0,0,0,44,13.391a2.177,2.177,0,0,0,1.828-.852,3.507,3.507,0,0,0,.656-2.2Zm16.594,2.961.016.047a3.561,3.561,0,0,1-1.109,2.852,4.523,4.523,0,0,1-3.148,1.031,4.361,4.361,0,0,1-3.3-1.316,4.722,4.722,0,0,1-1.258-3.4V8.188a4.809,4.809,0,0,1,1.227-3.4,4.182,4.182,0,0,1,3.219-1.324,4.8,4.8,0,0,1,3.25,1.016,3.5,3.5,0,0,1,1.141,2.859l-.016.047H60.879a2.236,2.236,0,0,0-.527-1.629,2.2,2.2,0,0,0-1.629-.535,1.839,1.839,0,0,0-1.6.824,3.645,3.645,0,0,0-.574,2.129v2.273a3.538,3.538,0,0,0,.605,2.141,1.968,1.968,0,0,0,1.684.828,2,2,0,0,0,1.527-.535,2.328,2.328,0,0,0,.5-1.645Zm8.641-2h.047l1.3-2.687h2.578L73.1,10.727,75.73,15H73.16l-1.383-2.8L70.395,15H67.816l2.633-4.273-2.555-4.18h2.563Zm13.023,2.68.141.625h.047l.133-.6,2.477-8.312h2.406L86.082,15H83.738L79.879,3.625h2.406ZM95.5,15a4.8,4.8,0,0,1-.215-.609,4.238,4.238,0,0,1-.129-.656,3.127,3.127,0,0,1-.93,1.023,2.33,2.33,0,0,1-1.375.406,2.855,2.855,0,0,1-2.047-.684,2.449,2.449,0,0,1-.719-1.863,2.229,2.229,0,0,1,.957-1.926,4.78,4.78,0,0,1,2.793-.684h1.281V9.336a1.315,1.315,0,0,0-.32-.945,1.257,1.257,0,0,0-.953-.336,1.239,1.239,0,0,0-.855.27.941.941,0,0,0-.3.738H90.5l-.016-.047a2.144,2.144,0,0,1,.934-1.848A4.055,4.055,0,0,1,94,6.391a3.784,3.784,0,0,1,2.465.766,2.667,2.667,0,0,1,.941,2.2v3.492a6.6,6.6,0,0,0,.09,1.117A5.606,5.606,0,0,0,97.777,15Zm-2.086-1.523a1.944,1.944,0,0,0,1.063-.3,1.6,1.6,0,0,0,.641-.687V11.3H93.84a1.519,1.519,0,0,0-1.1.359,1.181,1.181,0,0,0-.371.883.881.881,0,0,0,.277.684A1.1,1.1,0,0,0,93.418,13.477Zm9.227-.062a1.27,1.27,0,0,0,.945-.355,1.291,1.291,0,0,0,.352-.949h2.078l.016.047a2.645,2.645,0,0,1-.953,2.145,3.564,3.564,0,0,1-2.437.863,3.6,3.6,0,0,1-2.9-1.2A4.558,4.558,0,0,1,98.723,10.9v-.234A4.588,4.588,0,0,1,99.742,7.6a3.57,3.57,0,0,1,2.887-1.207,3.486,3.486,0,0,1,2.492.891,2.976,2.976,0,0,1,.914,2.344l-.016.047h-2.078a1.687,1.687,0,0,0-.348-1.09,1.168,1.168,0,0,0-.965-.434,1.3,1.3,0,0,0-1.254.707A3.878,3.878,0,0,0,101,10.664V10.9a3.863,3.863,0,0,0,.371,1.82A1.32,1.32,0,0,0,102.645,13.414Zm9.7,1.586a4.8,4.8,0,0,1-.215-.609,4.238,4.238,0,0,1-.129-.656,3.127,3.127,0,0,1-.93,1.023,2.33,2.33,0,0,1-1.375.406,2.855,2.855,0,0,1-2.047-.684,2.449,2.449,0,0,1-.719-1.863,2.229,2.229,0,0,1,.957-1.926,4.78,4.78,0,0,1,2.793-.684h1.281V9.336a1.315,1.315,0,0,0-.32-.945,1.257,1.257,0,0,0-.953-.336,1.239,1.239,0,0,0-.855.27.941.941,0,0,0-.3.738h-2.2l-.016-.047a2.144,2.144,0,0,1,.934-1.848,4.055,4.055,0,0,1,2.582-.777,3.784,3.784,0,0,1,2.465.766,2.667,2.667,0,0,1,.941,2.2v3.492a6.6,6.6,0,0,0,.09,1.117A5.606,5.606,0,0,0,114.621,15Zm-2.086-1.523a1.944,1.944,0,0,0,1.063-.3,1.6,1.6,0,0,0,.641-.687V11.3h-1.281a1.519,1.519,0,0,0-1.1.359,1.181,1.181,0,0,0-.371.883.881.881,0,0,0,.277.684A1.1,1.1,0,0,0,110.262,13.477ZM120.113,15V3.625h3.969a4.693,4.693,0,0,1,3.438,1.332,4.592,4.592,0,0,1,1.352,3.418v1.883a4.575,4.575,0,0,1-1.352,3.418A4.708,4.708,0,0,1,124.082,15Zm2.281-9.617V13.25h1.688a2.227,2.227,0,0,0,1.813-.84,3.287,3.287,0,0,0,.688-2.152v-1.9a3.259,3.259,0,0,0-.687-2.141,2.231,2.231,0,0,0-1.812-.836Z" transform="translate(-328.434 6309.27)" fill="#12263f"/><path d="M57.273,10.273H52.906V15H50.625V3.625H58.07V5.383H52.906V8.516h4.367ZM64.7,15H62.422V5.609H60.07V3.867L64.7,3.461Zm12.539-3.766.016.047a3.561,3.561,0,0,1-1.109,2.852,4.523,4.523,0,0,1-3.148,1.031,4.361,4.361,0,0,1-3.3-1.316,4.722,4.722,0,0,1-1.258-3.4V8.188a4.809,4.809,0,0,1,1.227-3.4,4.182,4.182,0,0,1,3.219-1.324,4.8,4.8,0,0,1,3.25,1.016,3.5,3.5,0,0,1,1.141,2.859l-.016.047H75.031A2.236,2.236,0,0,0,74.5,5.754a2.2,2.2,0,0,0-1.629-.535,1.839,1.839,0,0,0-1.6.824A3.645,3.645,0,0,0,70.7,8.172v2.273a3.538,3.538,0,0,0,.605,2.141,1.968,1.968,0,0,0,1.684.828,2,2,0,0,0,1.527-.535,2.328,2.328,0,0,0,.5-1.645ZM78.883,15V3.625h3.969a4.693,4.693,0,0,1,3.438,1.332,4.592,4.592,0,0,1,1.352,3.418v1.883a4.576,4.576,0,0,1-1.352,3.418A4.708,4.708,0,0,1,82.852,15Zm2.281-9.617V13.25h1.688a2.227,2.227,0,0,0,1.813-.84,3.287,3.287,0,0,0,.688-2.152v-1.9a3.259,3.259,0,0,0-.687-2.141,2.231,2.231,0,0,0-1.812-.836Z" transform="translate(-369.637 6355.789)" fill="#12263f"/><path d="M8.977,5.383H5.727V15H3.445V5.383H.242V3.625H8.977Zm10.234,4.953a4.776,4.776,0,0,1-1.32,3.465,4.571,4.571,0,0,1-3.437,1.363A4.529,4.529,0,0,1,11.031,13.8a4.8,4.8,0,0,1-1.312-3.461V8.289a4.807,4.807,0,0,1,1.309-3.457,4.5,4.5,0,0,1,3.41-1.371,4.583,4.583,0,0,1,3.445,1.371,4.768,4.768,0,0,1,1.328,3.457ZM16.938,8.273a3.44,3.44,0,0,0-.664-2.18,2.2,2.2,0,0,0-1.836-.852,2.129,2.129,0,0,0-1.8.852,3.512,3.512,0,0,0-.645,2.18v2.063a3.537,3.537,0,0,0,.648,2.2,2.148,2.148,0,0,0,1.813.852,2.177,2.177,0,0,0,1.828-.852,3.507,3.507,0,0,0,.656-2.2Zm6.359,2.18V15H21.016V3.625h3.938A4.716,4.716,0,0,1,28,4.512a3,3,0,0,1,1.1,2.473A2.494,2.494,0,0,1,28.629,8.5a3.238,3.238,0,0,1-1.355,1.027,2.448,2.448,0,0,1,1.449.992,3.146,3.146,0,0,1,.441,1.719v.836a4.135,4.135,0,0,0,.129,1,1.37,1.37,0,0,0,.441.77V15H27.383a1.263,1.263,0,0,1-.4-.828,7.275,7.275,0,0,1-.09-1.117v-.8a1.808,1.808,0,0,0-.465-1.324,1.763,1.763,0,0,0-1.316-.473Zm0-1.758h1.617a2.139,2.139,0,0,0,1.43-.406,1.506,1.506,0,0,0,.469-1.2,1.655,1.655,0,0,0-.473-1.242,1.909,1.909,0,0,0-1.387-.461H23.3Zm17.117,1.641a4.776,4.776,0,0,1-1.32,3.465,4.991,4.991,0,0,1-6.859,0,4.8,4.8,0,0,1-1.312-3.461V8.289A4.807,4.807,0,0,1,32.23,4.832a4.5,4.5,0,0,1,3.41-1.371,4.583,4.583,0,0,1,3.445,1.371,4.768,4.768,0,0,1,1.328,3.457ZM38.141,8.273a3.44,3.44,0,0,0-.664-2.18,2.2,2.2,0,0,0-1.836-.852,2.129,2.129,0,0,0-1.8.852,3.512,3.512,0,0,0-.645,2.18v2.063a3.537,3.537,0,0,0,.648,2.2,2.148,2.148,0,0,0,1.813.852,2.177,2.177,0,0,0,1.828-.852,3.507,3.507,0,0,0,.656-2.2Zm16.594,2.961.016.047a3.561,3.561,0,0,1-1.109,2.852,4.523,4.523,0,0,1-3.148,1.031,4.361,4.361,0,0,1-3.3-1.316,4.722,4.722,0,0,1-1.258-3.4V8.188a4.809,4.809,0,0,1,1.227-3.4,4.182,4.182,0,0,1,3.219-1.324,4.8,4.8,0,0,1,3.25,1.016,3.5,3.5,0,0,1,1.141,2.859l-.016.047H52.531A2.236,2.236,0,0,0,52,5.754a2.2,2.2,0,0,0-1.629-.535,1.839,1.839,0,0,0-1.6.824A3.645,3.645,0,0,0,48.2,8.172v2.273a3.538,3.538,0,0,0,.605,2.141,1.968,1.968,0,0,0,1.684.828,2,2,0,0,0,1.527-.535,2.328,2.328,0,0,0,.5-1.645ZM56.383,15V3.625h3.969a4.693,4.693,0,0,1,3.438,1.332,4.592,4.592,0,0,1,1.352,3.418v1.883a4.576,4.576,0,0,1-1.352,3.418A4.708,4.708,0,0,1,60.352,15Zm2.281-9.617V13.25h1.688a2.227,2.227,0,0,0,1.813-.84,3.287,3.287,0,0,0,.688-2.152v-1.9a3.259,3.259,0,0,0-.687-2.141,2.231,2.231,0,0,0-1.812-.836Zm15.3,3.852h.047l1.3-2.687h2.578l-2.547,4.18L77.969,15H75.4l-1.383-2.8L72.633,15H70.055l2.633-4.273-2.555-4.18H72.7Zm13.023,2.68.141.625h.047l.133-.6,2.477-8.312h2.406L88.32,15H85.977L82.117,3.625h2.406ZM97.742,15a4.8,4.8,0,0,1-.215-.609,4.238,4.238,0,0,1-.129-.656,3.127,3.127,0,0,1-.93,1.023,2.33,2.33,0,0,1-1.375.406,2.855,2.855,0,0,1-2.047-.684,2.449,2.449,0,0,1-.719-1.863,2.229,2.229,0,0,1,.957-1.926,4.78,4.78,0,0,1,2.793-.684h1.281V9.336a1.315,1.315,0,0,0-.32-.945,1.257,1.257,0,0,0-.953-.336,1.239,1.239,0,0,0-.855.27.941.941,0,0,0-.3.738h-2.2l-.016-.047a2.144,2.144,0,0,1,.934-1.848,4.055,4.055,0,0,1,2.582-.777,3.784,3.784,0,0,1,2.465.766,2.667,2.667,0,0,1,.941,2.2v3.492a6.6,6.6,0,0,0,.09,1.117A5.606,5.606,0,0,0,100.016,15Zm-2.086-1.523a1.944,1.944,0,0,0,1.063-.3,1.6,1.6,0,0,0,.641-.687V11.3H96.078a1.519,1.519,0,0,0-1.1.359,1.181,1.181,0,0,0-.371.883.881.881,0,0,0,.277.684A1.1,1.1,0,0,0,95.656,13.477Zm9.227-.062a1.27,1.27,0,0,0,.945-.355,1.291,1.291,0,0,0,.352-.949h2.078l.016.047a2.645,2.645,0,0,1-.953,2.145,3.564,3.564,0,0,1-2.437.863,3.6,3.6,0,0,1-2.9-1.2,4.558,4.558,0,0,1-1.023-3.066v-.234A4.588,4.588,0,0,1,101.98,7.6a3.57,3.57,0,0,1,2.887-1.207,3.486,3.486,0,0,1,2.492.891,2.976,2.976,0,0,1,.914,2.344l-.016.047H106.18a1.687,1.687,0,0,0-.348-1.09,1.168,1.168,0,0,0-.965-.434,1.3,1.3,0,0,0-1.254.707,3.878,3.878,0,0,0-.371,1.809V10.9a3.863,3.863,0,0,0,.371,1.82A1.32,1.32,0,0,0,104.883,13.414Zm9.7,1.586a4.8,4.8,0,0,1-.215-.609,4.238,4.238,0,0,1-.129-.656,3.127,3.127,0,0,1-.93,1.023,2.33,2.33,0,0,1-1.375.406,2.855,2.855,0,0,1-2.047-.684,2.449,2.449,0,0,1-.719-1.863,2.229,2.229,0,0,1,.957-1.926,4.78,4.78,0,0,1,2.793-.684H114.2V9.336a1.315,1.315,0,0,0-.32-.945,1.257,1.257,0,0,0-.953-.336,1.239,1.239,0,0,0-.855.27.941.941,0,0,0-.3.738h-2.2l-.016-.047a2.144,2.144,0,0,1,.934-1.848,4.055,4.055,0,0,1,2.582-.777,3.784,3.784,0,0,1,2.465.766,2.667,2.667,0,0,1,.941,2.2v3.492a6.6,6.6,0,0,0,.09,1.117A5.606,5.606,0,0,0,116.859,15ZM112.5,13.477a1.944,1.944,0,0,0,1.063-.3,1.6,1.6,0,0,0,.641-.687V11.3h-1.281a1.519,1.519,0,0,0-1.1.359,1.181,1.181,0,0,0-.371.883.881.881,0,0,0,.277.684A1.1,1.1,0,0,0,112.5,13.477ZM6.977,36.547H3.289L2.523,39H.141L3.977,27.625H6.313L10.133,39H7.75ZM3.852,34.758h2.57L5.164,30.75H5.117ZM11.227,39V27.625h3.727a5.41,5.41,0,0,1,3.133.785,2.659,2.659,0,0,1,1.125,2.332,2.415,2.415,0,0,1-1.594,2.328,2.451,2.451,0,0,1,1.6.922,2.768,2.768,0,0,1,.539,1.7A2.943,2.943,0,0,1,18.68,38.16a4.873,4.873,0,0,1-3.055.84Zm2.281-5.031V37.25h2.117a2.119,2.119,0,0,0,1.383-.395,1.429,1.429,0,0,0,.477-1.168,1.673,1.673,0,0,0-.469-1.273,1.985,1.985,0,0,0-1.414-.445Zm0-1.578h1.523a2.283,2.283,0,0,0,1.406-.375,1.291,1.291,0,0,0,.492-1.094,1.365,1.365,0,0,0-.5-1.164,2.437,2.437,0,0,0-1.48-.375H13.508Z" transform="translate(-328.434 6400.648)" fill="#12263f"/><path d="M3.328,10.453V15H1.047V3.625H4.984a4.716,4.716,0,0,1,3.043.887,3,3,0,0,1,1.1,2.473A2.494,2.494,0,0,1,8.66,8.5,3.238,3.238,0,0,1,7.3,9.523a2.448,2.448,0,0,1,1.449.992A3.146,3.146,0,0,1,9.2,12.234v.836a4.135,4.135,0,0,0,.129,1,1.37,1.37,0,0,0,.441.77V15H7.414a1.263,1.263,0,0,1-.4-.828,7.275,7.275,0,0,1-.09-1.117v-.8a1.808,1.808,0,0,0-.465-1.324,1.763,1.763,0,0,0-1.316-.473Zm0-1.758H4.945a2.139,2.139,0,0,0,1.43-.406,1.506,1.506,0,0,0,.469-1.2,1.655,1.655,0,0,0-.473-1.242,1.909,1.909,0,0,0-1.387-.461H3.328Zm13.844,3.852H13.484L12.719,15H10.336L14.172,3.625h2.336L20.328,15H17.945Zm-3.125-1.789h2.57L15.359,6.75h-.047Zm9.617,2.492h5.219V15H20.977V13.813l5.063-8.43H20.984V3.625H28.75V4.766Zm12.875-.7H32.852L32.086,15H29.7L33.539,3.625h2.336L39.7,15H37.313Zm-3.125-1.789h2.57L34.727,6.75H34.68ZM9.578,35.234l.016.047a3.561,3.561,0,0,1-1.109,2.852,4.523,4.523,0,0,1-3.148,1.031,4.361,4.361,0,0,1-3.3-1.316,4.722,4.722,0,0,1-1.258-3.4V32.188A4.809,4.809,0,0,1,2,28.785a4.182,4.182,0,0,1,3.219-1.324,4.8,4.8,0,0,1,3.25,1.016,3.5,3.5,0,0,1,1.141,2.859l-.016.047H7.375a2.236,2.236,0,0,0-.527-1.629,2.2,2.2,0,0,0-1.629-.535,1.839,1.839,0,0,0-1.6.824,3.645,3.645,0,0,0-.574,2.129v2.273a3.538,3.538,0,0,0,.605,2.141,1.968,1.968,0,0,0,1.684.828,2,2,0,0,0,1.527-.535,2.328,2.328,0,0,0,.5-1.645Zm10.852-.9a4.776,4.776,0,0,1-1.32,3.465,4.571,4.571,0,0,1-3.437,1.363A4.529,4.529,0,0,1,12.25,37.8a4.8,4.8,0,0,1-1.312-3.461V32.289a4.807,4.807,0,0,1,1.309-3.457,4.5,4.5,0,0,1,3.41-1.371A4.583,4.583,0,0,1,19.1,28.832a4.768,4.768,0,0,1,1.328,3.457Zm-2.273-2.062a3.44,3.44,0,0,0-.664-2.18,2.2,2.2,0,0,0-1.836-.852,2.129,2.129,0,0,0-1.8.852,3.512,3.512,0,0,0-.645,2.18v2.063a3.537,3.537,0,0,0,.648,2.2,2.148,2.148,0,0,0,1.813.852,2.177,2.177,0,0,0,1.828-.852,3.507,3.507,0,0,0,.656-2.2Zm9.961,3.734h.047l2.922-8.383h2.977V39H31.781V31.234l-.047-.008L28.922,39H27.375l-2.812-7.789-.047.008V39H22.234V27.625h2.992Zm10.32-1.133V39H36.156V27.625h4.352a4.48,4.48,0,0,1,3.086,1,3.634,3.634,0,0,1,0,5.258,4.5,4.5,0,0,1-3.086.992Zm0-1.758h2.07a1.9,1.9,0,0,0,1.445-.52,1.848,1.848,0,0,0,.492-1.324,1.934,1.934,0,0,0-.488-1.355,1.864,1.864,0,0,0-1.449-.535h-2.07Zm16.93-5.492V35.07a3.741,3.741,0,0,1-1.273,3.008,4.916,4.916,0,0,1-3.3,1.086A4.858,4.858,0,0,1,47.5,38.078a3.757,3.757,0,0,1-1.262-3.008V27.625h2.289V35.07a2.341,2.341,0,0,0,.609,1.742,2.244,2.244,0,0,0,1.648.6,2.293,2.293,0,0,0,1.672-.6,2.324,2.324,0,0,0,.617-1.742V27.625ZM63.844,34H59.625v3.25h5.016V39h-7.3V27.625h7.281v1.758h-5v2.859h4.219Zm8.328,2.031a1.33,1.33,0,0,0-.457-1.055,4.592,4.592,0,0,0-1.605-.75,9.124,9.124,0,0,1-2.988-1.4,2.646,2.646,0,0,1-1.02-2.2,2.761,2.761,0,0,1,1.148-2.285,5.309,5.309,0,0,1,5.973.066,2.982,2.982,0,0,1,1.113,2.5l-.016.047H72.109a1.657,1.657,0,0,0-.516-1.309,2.106,2.106,0,0,0-1.445-.457,1.91,1.91,0,0,0-1.3.406,1.323,1.323,0,0,0-.461,1.039,1.135,1.135,0,0,0,.5.949,6.689,6.689,0,0,0,1.727.785,7.429,7.429,0,0,1,2.859,1.387,2.841,2.841,0,0,1,.984,2.254,2.713,2.713,0,0,1-1.141,2.3,4.952,4.952,0,0,1-3.016.844,5.388,5.388,0,0,1-3.152-.914,3.015,3.015,0,0,1-1.277-2.727l.016-.047h2.211a1.79,1.79,0,0,0,.594,1.484,2.5,2.5,0,0,0,1.609.477,2.2,2.2,0,0,0,1.395-.383A1.242,1.242,0,0,0,72.172,36.031Zm11.891-6.648h-3.25V39H78.531V29.383h-3.2V27.625h8.734Zm6.328,7.164H86.7L85.938,39H83.555l3.836-11.375h2.336L93.547,39H91.164Zm-3.125-1.789h2.57L88.578,30.75h-.047Z" transform="translate(-327.434 6622.592)" fill="#12263f"/></g></svg>