<svg xmlns="http://www.w3.org/2000/svg" width="457.5" height="287.205" viewBox="0 0 457.5 287.205"><g transform="translate(634 179.174)"><g transform="translate(-296.296 -132.421)"><g transform="translate(11.193 197.017)"><g transform="translate(80.107)"><path d="M678.377,410.65v16.478h-4.655L661.08,410.65Z" transform="translate(-661.08 -410.65)" fill="#37474f"/><path d="M678.377,410.65v3.486l-15.638-2.058-1.659-1.428Z" transform="translate(-661.08 -410.65)" opacity="0.2"/></g><path d="M546.64,410.65v16.478h4.655l12.649-16.478Z" transform="translate(-546.64 -410.65)" fill="#37474f"/><path d="M546.64,410.65v3.486l15.638-2.058,1.666-1.428Z" transform="translate(-546.64 -410.65)" opacity="0.2"/></g><g transform="translate(1.743 33.15)"><rect width="111.012" height="163.868" transform="translate(2.646)" fill="#37474f"/><rect width="27.496" height="163.868" transform="translate(74.052)" fill="#455a64"/><rect width="3.906" height="163.868" transform="translate(64.812)" fill="#455a64"/><path d="M647.931,176.55l-.028,8.589-110.984-3.6V176.55Z" transform="translate(-534.274 -176.55)" opacity="0.2"/><g transform="translate(0 37.128)"><rect width="31.605" height="28.567" fill="#455a64"/><rect width="25.431" height="11.004" transform="translate(3.087 3.283)" fill="#fff"/><rect width="6.16" height="28.567" transform="translate(31.605)" fill="#263238"/><rect width="3.927" height="2.401" transform="translate(24.591 16.45)" fill="#ffc727"/><rect width="3.927" height="2.401" transform="translate(18.018 16.45)" fill="#ffc727"/><rect width="3.927" height="2.401" transform="translate(11.452 16.45)" fill="#ffc727"/><rect width="3.927" height="2.401" transform="translate(3.087 16.45)" fill="#37474f"/></g><g transform="translate(48.369)"><g transform="translate(0 4.816)"><path d="M602.24,401.8a1.064,1.064,0,1,0,1.064-1.064A1.064,1.064,0,0,0,602.24,401.8Z" transform="translate(-602.24 -248.625)" fill="#263238"/><path d="M611.64,401.8a1.064,1.064,0,1,0,1.064-1.064A1.064,1.064,0,0,0,611.64,401.8Z" transform="translate(-605.06 -248.625)" fill="#263238"/><path d="M602.24,352.684a1.064,1.064,0,1,0,1.064-1.064A1.063,1.063,0,0,0,602.24,352.684Z" transform="translate(-602.24 -233.889)" fill="#263238"/><path d="M611.64,352.684a1.064,1.064,0,1,0,1.064-1.064A1.063,1.063,0,0,0,611.64,352.684Z" transform="translate(-605.06 -233.889)" fill="#263238"/><path d="M602.24,296.584a1.064,1.064,0,1,0,1.064-1.064A1.063,1.063,0,0,0,602.24,296.584Z" transform="translate(-602.24 -217.058)" fill="#263238"/><path d="M611.64,296.584a1.064,1.064,0,1,0,1.064-1.064A1.063,1.063,0,0,0,611.64,296.584Z" transform="translate(-605.06 -217.058)" fill="#263238"/><path d="M602.24,240.484a1.064,1.064,0,1,0,1.064-1.064A1.063,1.063,0,0,0,602.24,240.484Z" transform="translate(-602.24 -200.228)" fill="#263238"/><path d="M611.64,240.484a1.064,1.064,0,1,0,1.064-1.064A1.063,1.063,0,0,0,611.64,240.484Z" transform="translate(-605.06 -200.228)" fill="#263238"/><path d="M602.24,184.494a1.064,1.064,0,1,0,1.064-1.064A1.063,1.063,0,0,0,602.24,184.494Z" transform="translate(-602.24 -183.43)" fill="#263238"/><path d="M611.64,184.494a1.064,1.064,0,1,0,1.064-1.064A1.063,1.063,0,0,0,611.64,184.494Z" transform="translate(-605.06 -183.43)" fill="#263238"/></g><path d="M.375,163.868h-.75V0h.75Z" transform="translate(4.354)" fill="#263238"/></g></g><rect width="119.796" height="6.678" transform="translate(0 26.479)" fill="#37474f"/><g transform="translate(4.389)"><path d="M591.708,129.2h1.435a69.954,69.954,0,0,1,54.788,26.467H536.92A69.932,69.932,0,0,1,591.708,129.2Z" transform="translate(-536.92 -129.195)" fill="#37474f"/><path d="M536.93,155.674h111c-.588-.735-1.183-1.463-1.806-2.17a69.876,69.876,0,0,0-52.982-24.3h-1.428a69.821,69.821,0,0,0-50.2,21.259,67.931,67.931,0,0,0-4.592,5.215Z" transform="translate(-536.923 -129.195)" fill="#37474f"/><path d="M615.187,129.2c17,0,16.618,26.474,16.618,26.474h27.5C649.927,129.2,615.18,129.2,615.18,129.2Z" transform="translate(-560.399 -129.195)" fill="#455a64"/><path d="M612.56,129.226c11.172,0,9.219,26.453,9.219,26.453h3.906c0-28.518-13.125-26.453-13.125-26.453Z" transform="translate(-559.613 -129.193)" fill="#455a64"/><path d="M536.93,164.785h111c-.588-.735-1.183-1.463-1.806-2.17L541.522,159.57a67.926,67.926,0,0,0-4.592,5.215Z" transform="translate(-536.923 -138.306)" opacity="0.2"/></g></g><g transform="translate(-599.301 -170.748)"><g transform="translate(11.158 0.014)"><rect width="128.819" height="6.3" fill="#455a64"/><rect width="128.819" height="2.198" transform="translate(0 4.102)" fill="#37474f"/></g><g transform="translate(139.977 0.014)"><rect width="226.076" height="6.3" fill="#455a64"/><rect width="226.076" height="2.198" transform="translate(0 4.102)" fill="#37474f"/></g><g transform="translate(55.747 144.079)"><path d="M185.91,364.308h-1.5V293.189a3.673,3.673,0,0,1,3.669-3.669h69.586v1.5H188.079a2.171,2.171,0,0,0-2.169,2.169Z" transform="translate(-179.742 -283.27)" fill="#263238"/><path d="M206.29,370.305h-1.5V313.179a3.673,3.673,0,0,1,3.669-3.669h55.32v1.5h-55.32a2.171,2.171,0,0,0-2.169,2.169Z" transform="translate(-185.856 -289.267)" fill="#263238"/><path d="M196.08,361.308h-1.5V283.189a3.673,3.673,0,0,1,3.669-3.669h62.467v1.5H198.249a2.171,2.171,0,0,0-2.169,2.169Z" transform="translate(-182.793 -280.27)" fill="#263238"/><path d="M217.25,367.305h-1.5V303.179a3.673,3.673,0,0,1,3.669-3.669h47.648v1.5H219.419a2.171,2.171,0,0,0-2.169,2.169Z" transform="translate(-189.144 -286.267)" fill="#263238"/><path d="M180.129,403.55a3.463,3.463,0,0,1-3.459-3.459V382.823h1.5v17.269a1.959,1.959,0,1,0,3.918,0V362.88h1.5v37.212A3.463,3.463,0,0,1,180.129,403.55Z" transform="translate(-177.42 -305.054)" fill="#263238"/><path d="M200.509,403.55a3.463,3.463,0,0,1-3.459-3.459V382.823h1.5v17.269a1.959,1.959,0,0,0,3.918,0V362.88h1.5v37.212A3.463,3.463,0,0,1,200.509,403.55Z" transform="translate(-183.534 -305.054)" fill="#263238"/><path d="M190.3,393.55a3.463,3.463,0,0,1-3.459-3.459V372.823h1.5v17.269a1.959,1.959,0,1,0,3.918,0V352.88h1.5v37.212A3.463,3.463,0,0,1,190.3,393.55Z" transform="translate(-180.471 -302.054)" fill="#263238"/><path d="M211.469,393.55a3.463,3.463,0,0,1-3.459-3.459V372.823h1.5v17.269a1.959,1.959,0,1,0,3.918,0V352.88h1.5v37.212A3.463,3.463,0,0,1,211.469,393.55Z" transform="translate(-186.822 -302.054)" fill="#263238"/></g><g transform="translate(128.889 0.014)"><g transform="translate(4.781)"><rect width="6.3" height="168.026" fill="#455a64"/><rect width="2.198" height="168.026" fill="#37474f"/></g><rect width="4.781" height="3.262" transform="translate(0 142.434)" fill="#37474f"/><rect width="4.781" height="3.262" transform="translate(0 149.434)" fill="#37474f"/><rect width="4.781" height="3.262" transform="translate(0 156.434)" fill="#37474f"/><rect width="4.781" height="3.262" transform="translate(0 163.434)" fill="#37474f"/></g><g transform="translate(122.519 23.709)"><rect width="28.609" height="48.222" fill="#37474f"/><rect width="21.182" height="13.566" transform="translate(3.717 3.976)" fill="#263238"/><rect width="21.182" height="10.913" transform="translate(3.717 33.537)" fill="#fff"/><rect width="21.182" height="3.598" transform="translate(3.717 20.734)" fill="#263238"/><rect width="5.341" height="3.598" transform="translate(3.717 26.873)" fill="#ffc727"/><rect width="5.341" height="3.598" transform="translate(11.305 26.873)" fill="#ffc727"/></g><g transform="translate(257.695 0.014)"><g transform="translate(4.788)"><rect width="6.3" height="168.026" fill="#455a64"/><rect width="2.198" height="168.026" fill="#37474f"/></g><rect width="4.781" height="3.262" transform="translate(0 142.434)" fill="#37474f"/><rect width="4.781" height="3.262" transform="translate(0 149.434)" fill="#37474f"/><rect width="4.781" height="3.262" transform="translate(0 156.434)" fill="#37474f"/><rect width="4.781" height="3.262" transform="translate(0 163.434)" fill="#37474f"/></g><g transform="translate(251.325 23.709)"><rect width="28.609" height="48.222" fill="#37474f"/><rect width="21.182" height="13.566" transform="translate(3.717 3.976)" fill="#263238"/><rect width="21.182" height="10.913" transform="translate(3.717 33.537)" fill="#fff"/><rect width="21.182" height="3.598" transform="translate(3.717 20.734)" fill="#263238"/><rect width="5.341" height="3.598" transform="translate(3.717 26.873)" fill="#ffc727"/><rect width="5.341" height="3.598" transform="translate(11.312 26.873)" fill="#ffc727"/></g><g transform="translate(6.37)"><g transform="translate(4.788)"><rect width="6.3" height="168.026" fill="#455a64"/><rect width="2.198" height="168.026" fill="#37474f"/></g><rect width="4.781" height="3.262" transform="translate(0 142.434)" fill="#37474f"/><rect width="4.781" height="3.262" transform="translate(0 149.434)" fill="#37474f"/><rect width="4.781" height="3.262" transform="translate(0 156.434)" fill="#37474f"/><rect width="4.781" height="3.262" transform="translate(0 163.434)" fill="#37474f"/></g><g transform="translate(0 23.695)"><rect width="28.609" height="48.222" fill="#37474f"/><rect width="21.182" height="13.566" transform="translate(3.717 3.969)" fill="#263238"/><rect width="21.182" height="10.913" transform="translate(3.717 33.537)" fill="#fff"/><rect width="21.182" height="3.598" transform="translate(3.717 20.734)" fill="#263238"/><rect width="5.341" height="3.598" transform="translate(3.717 26.873)" fill="#ffc727"/><rect width="5.341" height="3.598" transform="translate(11.312 26.873)" fill="#ffc727"/></g><g transform="translate(359.746 0.014)"><rect width="6.3" height="38.933" transform="translate(0)" fill="#455a64"/><rect width="2.198" height="38.933" transform="translate(0.007)" fill="#37474f"/></g><rect width="18.886" height="5.061" transform="translate(353.453 33.887)" fill="#263238"/></g><g transform="translate(-611.957 -137.625)"><g transform="translate(56.825 107.25)"><path d="M160.887,275.273c2.359,9.065,11.207,56.783,11.522,60.577s-4.27,21.574-4.27,23.464,13.153,27.1,13.153,27.1l1.225-3.108,2.793,2.9a12.9,12.9,0,0,0-1.106-3.794c-.735-1.162-2.632-3.9-2.632-3.9s.525-13.7,1.267-17.381,16.226-22.547,19.7-31.6,2-33.082,1.477-37.715-43.784-19.082-43.126-16.541Z" transform="translate(-160.879 -274.975)" fill="#ffc727"/><path d="M160.887,275.273c2.359,9.065,11.207,56.783,11.522,60.577s-4.27,21.574-4.27,23.464,13.153,27.1,13.153,27.1l1.225-3.108,2.793,2.9a12.9,12.9,0,0,0-1.106-3.794c-.735-1.162-2.632-3.9-2.632-3.9s.525-13.7,1.267-17.381,16.226-22.547,19.7-31.6,2-33.082,1.477-37.715-43.784-19.082-43.126-16.541Z" transform="translate(-160.879 -274.975)" fill="#fff" opacity="0.5"/></g><g transform="translate(55.194 154.139)"><path d="M180.129,403.55a3.463,3.463,0,0,1-3.459-3.459V382.823h1.5v17.269a1.959,1.959,0,1,0,3.918,0V362.88h1.5v37.212A3.463,3.463,0,0,1,180.129,403.55Z" transform="translate(-164.211 -348.236)" fill="#263238"/><path d="M200.509,403.55a3.463,3.463,0,0,1-3.459-3.459V382.823h1.5v17.269a1.959,1.959,0,0,0,3.918,0V362.88h1.5v37.212A3.463,3.463,0,0,1,200.509,403.55Z" transform="translate(-170.325 -348.236)" fill="#263238"/><path d="M190.3,393.55a3.463,3.463,0,0,1-3.459-3.459V372.823h1.5v17.269a1.959,1.959,0,1,0,3.918,0V352.88h1.5v37.212A3.463,3.463,0,0,1,190.3,393.55Z" transform="translate(-167.262 -345.236)" fill="#263238"/><path d="M211.469,393.55a3.463,3.463,0,0,1-3.459-3.459V372.823h1.5v17.269a1.959,1.959,0,1,0,3.918,0V352.88h1.5v37.212A3.463,3.463,0,0,1,211.469,393.55Z" transform="translate(-173.613 -345.236)" fill="#263238"/><g transform="translate(32.613 21.777)"><path d="M207.674,384h0a2.533,2.533,0,0,1-2.534-2.534v-8.4H210.2v8.4A2.533,2.533,0,0,1,207.667,384Z" transform="translate(-205.14 -373.07)" fill="#ffa686"/><path d="M207.674,384h0a2.533,2.533,0,0,1-2.534-2.534v-8.4H210.2v8.4A2.533,2.533,0,0,1,207.667,384Z" transform="translate(-205.14 -373.07)" fill="#ffa686" opacity="0.1"/></g><g transform="translate(17.794 21.777)"><path d="M186.5,384h0a2.533,2.533,0,0,1-2.534-2.534v-8.4h5.061v8.4A2.533,2.533,0,0,1,186.5,384Z" transform="translate(-183.97 -373.07)" fill="#ffa686"/><path d="M186.5,384h0a2.533,2.533,0,0,1-2.534-2.534v-8.4h5.061v8.4A2.533,2.533,0,0,1,186.5,384Z" transform="translate(-183.97 -373.07)" fill="#ffa686" opacity="0.1"/></g><path d="M158.55,367.349s26.8,3.794,36.274-.007a33.324,33.324,0,0,0,16.667-14.518L173.215,341.96l-14.658,25.389Z" transform="translate(-158.55 -341.96)" fill="#ffa686"/><path d="M176.334,386.684h0a2.533,2.533,0,0,1-2.534-2.534v-8.4h5.061v8.4a2.533,2.533,0,0,1-2.534,2.534Z" transform="translate(-163.125 -352.097)" fill="#ffa686"/><path d="M196.714,386.684h0a2.533,2.533,0,0,1-2.534-2.534v-8.4h5.061v8.4a2.533,2.533,0,0,1-2.534,2.534Z" transform="translate(-169.239 -352.097)" fill="#ffa686"/><g transform="translate(9.723 30.821)"><path d="M176.088,391.018h0a3.11,3.11,0,0,1-3.108-3.108V387H179.2v.91A3.11,3.11,0,0,1,176.088,391.018Z" transform="translate(-172.602 -386.293)" fill="#37474f"/><path d="M179.2,387.01v.9l-6.174.5a3.06,3.06,0,0,1-.042-.5v-.9Z" transform="translate(-172.602 -386.296)" fill="#263238"/><rect width="6.972" height="1.47" fill="#37474f"/></g><g transform="translate(16.842 29.372)"><path d="M186.258,388.938h0a3.11,3.11,0,0,1-3.108-3.108v-.91h6.216v.91A3.11,3.11,0,0,1,186.258,388.938Z" transform="translate(-182.772 -384.22)" fill="#37474f"/><path d="M189.366,384.93v.9l-6.174.5a3.061,3.061,0,0,1-.042-.5v-.9Z" transform="translate(-182.772 -384.223)" fill="#263238"/><rect width="6.972" height="1.47" fill="#37474f"/></g><g transform="translate(31.661 29.372)"><path d="M207.428,388.938h0a3.11,3.11,0,0,1-3.108-3.108v-.91h6.216v.91A3.11,3.11,0,0,1,207.428,388.938Z" transform="translate(-203.942 -384.22)" fill="#37474f"/><path d="M210.536,384.93v.9l-6.174.5a3.061,3.061,0,0,1-.042-.5v-.9Z" transform="translate(-203.942 -384.223)" fill="#263238"/><rect width="6.972" height="1.47" fill="#37474f"/></g><g transform="translate(23.989 30.821)"><path d="M196.468,391.018h0a3.11,3.11,0,0,1-3.108-3.108V387h6.216v.91A3.11,3.11,0,0,1,196.468,391.018Z" transform="translate(-192.982 -386.293)" fill="#37474f"/><path d="M199.576,387.01v.9l-6.174.5a3.063,3.063,0,0,1-.042-.5v-.9Z" transform="translate(-192.982 -386.296)" fill="#263238"/><rect width="6.972" height="1.47" fill="#37474f"/></g></g><g transform="translate(166.514 121.587)"><path d="M329.249,298.49s3.353,16.338,2.051,20.279c-.749,2.275-13.72,39.346-13.72,41.243s5.817,32.557,5.817,32.557l1.225-3.108,2.793,2.9a21.7,21.7,0,0,0-1.106-3.794c-.651-1.358-1.491-3.9-1.491-3.9s5.11-13.923,6.531-18.648c1.078-3.6,20.58-21.427,26.334-30.443,1.806-2.821,12.642-30.548,14.287-37.611,1.057-4.543-43.392-2.009-42.734.525Z" transform="translate(-317.58 -295.458)" fill="#ffeebf"/><path d="M329.249,298.49s3.353,16.338,2.051,20.279c-.749,2.275-13.72,39.346-13.72,41.243s5.817,32.557,5.817,32.557l1.225-3.108,2.793,2.9a21.7,21.7,0,0,0-1.106-3.794c-.651-1.358-1.491-3.9-1.491-3.9s5.11-13.923,6.531-18.648c1.078-3.6,20.58-21.427,26.334-30.443,1.806-2.821,12.642-30.548,14.287-37.611,1.057-4.543-43.392-2.009-42.734.525Z" transform="translate(-317.58 -295.458)" fill="#ffeebf" opacity="0.5"/></g><g transform="translate(27.919 37.828)"><path d="M119.722,218.39c.525-6.734,15.8-27.811,21.49-30.023s79.33,7.266,89.123,6.951,60.745-9.324,66.436-11.536,27.678,29.106,27.678,29.106c-1.9.63-9.415,45.8-12.572,52.905s-43.616,38.716-48.355,39.031-45.828,3.479-64.791,3.164-44.876-4.585-51.519-7.742-29.547-55.306-27.5-81.857Z" transform="translate(-119.585 -178.161)" fill="#ffc727"/><path d="M119.722,218.39c.525-6.734,15.8-27.811,21.49-30.023s79.33,7.266,89.123,6.951,60.745-9.324,66.436-11.536,27.678,29.106,27.678,29.106c-1.9.63-9.415,45.8-12.572,52.905s-43.616,38.716-48.355,39.031-45.828,3.479-64.791,3.164-44.876-4.585-51.519-7.742-29.547-55.306-27.5-81.857Z" transform="translate(-119.585 -178.161)" fill="#fff" opacity="0.7"/><g transform="translate(33.236)"><path d="M344.205,200.279c-4.326,5.544-2.653,22.183-15.9,23.968-13.265,1.806-15.2-10.724-25.795-13.118-10.136-2.3-16.093-7.917-20.594-18.382,14.336-1.414,58.309-9.289,63.573-11.333,2.156-.847,5.565-3.066,9.268-5.614a19.33,19.33,0,0,1,1.351,5.894c.546,10.85-7.546,13.027-11.9,18.571Z" transform="translate(-201.523 -175.8)" fill="#263238"/><path d="M253.153,238.342c-4.347-13.167-33.558-2.17-41.271,0s-30.618-7.476-40.018,0-4.823,23.737,12.831,29.911c10.122,3.542,18.991,24.332,38.275,21.924s15.673-18.319,19.53-26.278S256.814,249.437,253.153,238.342Z" transform="translate(-167.072 -192.654)" fill="#263238"/><path d="M221.185,195.449a9.666,9.666,0,0,1-1.526,2.849c-5.5,7.133-21.616.588-26.516,3.045-4.914,2.436-20.377,8.351-24.556-2.611-1.526-3.983-1.743-6.37-1.351-8.372,13.748.868,36.477,3.353,53.941,5.089Z" transform="translate(-167.066 -180.168)" fill="#263238"/><path d="M402.861,229.507c-1.981,7.154-5.5,26.1-8.351,38.78-3.633-1.827-3.591-7.224-4.543-11.921-1-4.872-5.5-8.547-5.089-15.792.434-7.224,8.785-10.787,17.99-11.074Z" transform="translate(-232.404 -191.911)" fill="#263238"/></g></g><g transform="translate(177.078)"><g transform="translate(9.662)"><path d="M364.517,162.436s-16.884-11.823-17.808-14.308,1.092-25.62,2.408-26.355c1.036-.581,4.9,16.317,6.3,18.753,2.065,3.591,15.26,10.451,15.26,10.451Z" transform="translate(-346.475 -121.759)" fill="#afafaf"/><path d="M364.517,162.436s-16.884-11.823-17.808-14.308,1.092-25.62,2.408-26.355c1.036-.581,4.9,16.317,6.3,18.753,2.065,3.591,15.26,10.451,15.26,10.451Z" transform="translate(-346.475 -121.759)" fill="#afafaf" opacity="0.4"/></g><g transform="translate(70.362)"><path d="M439.35,162.436s16.884-11.823,17.808-14.308-1.092-25.62-2.408-26.355c-1.036-.581-4.9,16.317-6.3,18.753-2.065,3.591-15.26,10.451-15.26,10.451l6.167,11.459Z" transform="translate(-433.19 -121.759)" fill="#afafaf"/><path d="M439.35,162.436s16.884-11.823,17.808-14.308-1.092-25.62-2.408-26.355c-1.036-.581-4.9,16.317-6.3,18.753-2.065,3.591-15.26,10.451-15.26,10.451l6.167,11.459Z" transform="translate(-433.19 -121.759)" fill="#afafaf" opacity="0.4"/><g transform="translate(5.278 38.305)"><path d="M440.73,177.348c3.472.924,11.431-.553,15.281-.861s13.8,10.626,13.286,11-11.935,2.884-15.253,1.876-7.315-7.917-12.971-9.835Z" transform="translate(-440.73 -176.481)" fill="#afafaf"/><path d="M440.73,177.348c3.472.924,11.431-.553,15.281-.861s13.8,10.626,13.286,11-11.935,2.884-15.253,1.876-7.315-7.917-12.971-9.835Z" transform="translate(-440.73 -176.481)" fill="#afafaf" opacity="0.7"/><path d="M466.285,186.887a57.376,57.376,0,0,0-6.671-5.383,6.665,6.665,0,0,0-2.716-1.253c-3.808-.231-7.539.476-11.27-.511l-1.708-.28a44.9,44.9,0,0,1,5.187,4.585c1.82,1.834,3.8,4.242,6.587,4.5a18.883,18.883,0,0,0,2.674-.063c1.764-.161,3.514-.392,5.25-.721a51.086,51.086,0,0,1-7.875.238c-2.59-.392-4.27-2.737-6.041-4.508a35.07,35.07,0,0,0-3.892-3.668l-.378.791c3.7.959,7.665.259,11.431.329,3.388.966,6.489,3.948,9.415,5.936h0Z" transform="translate(-441.687 -177.375)" fill="#afafaf" opacity="0.1"/></g></g><g transform="translate(18.508 23.989)"><path d="M425.89,211.63c-2.191,4.949-13.6,9.3-14.483,9.87s-2.765,8.33-4.865,9.541c-1.435.819-8.232,2.268-13.825,2.268s-12.39-1.449-13.825-2.268c-2.093-1.211-3.983-8.974-4.865-9.541s-12.292-4.928-14.483-9.87c-2.408-5.446,5.894-41.11,9.191-47.816,2.352-4.781,13.09-7.784,23.982-7.784s21.63,3,23.982,7.784C420,170.52,428.3,206.191,425.89,211.63Z" transform="translate(-359.113 -156.03)" fill="#ffc727"/><path d="M425.89,211.63c-2.191,4.949-13.6,9.3-14.483,9.87s-2.765,8.33-4.865,9.541c-1.435.819-8.232,2.268-13.825,2.268s-12.39-1.449-13.825-2.268c-2.093-1.211-3.983-8.974-4.865-9.541s-12.292-4.928-14.483-9.87c-2.408-5.446,5.894-41.11,9.191-47.816,2.352-4.781,13.09-7.784,23.982-7.784s21.63,3,23.982,7.784C420,170.52,428.3,206.191,425.89,211.63Z" transform="translate(-359.113 -156.03)" fill="#fff" opacity="0.7"/><path d="M392.431,234.784c-5.53-.042-12.131-1.449-13.538-2.261-2.1-1.211-3.983-8.974-4.865-9.541s-12.292-4.928-14.483-9.87c-2.408-5.446,5.894-41.11,9.184-47.823.826-1.68,2.681-3.136,5.215-4.319-3,1.785-8.554,44.659-7.784,48.32s11,10.9,11.662,11.893,2.569,8.652,3.9,10.094c1.288,1.4,7.623,3.374,10.717,3.493Z" transform="translate(-359.113 -157.512)" fill="#ffeebf" opacity="0.2"/></g><g transform="translate(30.355 68.919)"><path d="M384.979,224.817c-.028-.119-.266.147-.259.273.112,3.087-.329,6.636-3.388,7.665-.1.035-.084.189.028.175,3.738-.483,4.27-5.2,3.619-8.106Z" transform="translate(-377.606 -221.587)" fill="#263238"/><path d="M380.386,220.226c-5.439-.371-5.852,9.583-.812,9.926C384.537,230.488,384.95,220.534,380.386,220.226Z" transform="translate(-376.037 -220.216)" fill="#263238"/></g><g transform="translate(67.43 68.919)"><path d="M429.238,224.817c.028-.119.266.147.259.273-.112,3.087.329,6.636,3.388,7.665.1.035.084.189-.028.175-3.738-.483-4.27-5.2-3.619-8.106Z" transform="translate(-429.002 -221.587)" fill="#263238"/><path d="M432.306,220.226c5.439-.371,5.852,9.583.812,9.926C428.156,230.488,427.743,220.534,432.306,220.226Z" transform="translate(-429.039 -220.216)" fill="#263238"/></g><path d="M394.969,164.217c-2.037,3.71-3.444,7.9-2.534,12.152.455,2.163,1.589,5,3.913,5.621,3.262.868,4.487-4.221,5.334-6.447.112-.287.6-.287.581.077-.21,3.409.161,8.456,2.548,11.165.966,1.1,2.779,1.96,4.228,1.155,1.218-.672,1.617-2.3,1.848-3.549a15.82,15.82,0,0,0-.084-5.88.275.275,0,0,1,.532-.14,15.248,15.248,0,0,0,1.2,2.478c.623,1.022,1.484,2.695,1.918.49.273-1.386-.8-3.388-1.533-4.508-.133-.2.189-.378.329-.182a8.29,8.29,0,0,1,1.6,3.759c.084.6.322,1.981-.175,2.5-.938.98-2.184-.91-3-2.52.378,3.766-.21,9.422-4.662,8.484-4.326-.91-5.3-6.832-5.369-11.109-.658,2.051-1.638,4.347-3.451,4.991-2.226.784-4.186-1.078-5.152-2.877-2.716-5.075-1.981-9.842,1.722-15.673.112-.175.322-.182.217,0Z" transform="translate(-350.29 -134.452)" opacity="0.2"/><path d="M414.869,256.963c-3.318,2.429-9.2,3.479-14.371,3.479s-11.06-1.043-14.371-3.479-3.752-12.607-1.6-13.867c3.22-1.869,12.152.812,15.967.812s12.747-2.681,15.96-.812C418.621,244.356,418.187,254.534,414.869,256.963Z" transform="translate(-347.833 -157.963)" fill="#ffa686"/><g transform="translate(42.165 89.137)"><path d="M393.008,253.671c-.392-2.38.42-4.424,1.82-4.564s2.842,1.673,3.234,4.053-.42,4.424-1.82,4.564-2.842-1.673-3.234-4.053Z" transform="translate(-392.909 -249.099)" opacity="0.1"/><path d="M420.542,253.671c.392-2.38-.42-4.424-1.82-4.564s-2.842,1.673-3.234,4.053.42,4.424,1.82,4.564,2.842-1.673,3.234-4.053Z" transform="translate(-399.653 -249.099)" opacity="0.1"/></g><g transform="translate(19.528 46.382)"><path d="M365.122,188.02c-.672,4.4-1.953,9.065-3.052,13.377a42.8,42.8,0,0,1,3.052-13.377Z" transform="translate(-361.02 -188.02)" fill="#263238"/><path d="M365.35,241.48c3.192,2.548,7.07,3.647,10.731,5.362a1.543,1.543,0,0,1,.6.756c1.071,2.527,1.442,5.369,3.031,7.658a6.477,6.477,0,0,0,2.086,2.093,8.353,8.353,0,0,1-3.9-4.529c-.721-1.561-1.162-3.346-1.834-4.914a1.216,1.216,0,0,0-.294-.434c-3.577-1.666-7.623-3.031-10.416-5.985h0Z" transform="translate(-362.004 -204.058)" fill="#263238"/><path d="M366.08,244.16a47.843,47.843,0,0,0,6.188,1.988c-2.2.371-4.459-.693-6.188-1.988Z" transform="translate(-362.223 -204.863)" fill="#263238"/><path d="M362.775,197.49c-.749,1.477-1.477,2.779-2.2,4.27a5.519,5.519,0,0,1,2.2-4.27Z" transform="translate(-360.57 -190.861)" fill="#263238"/></g></g><g transform="translate(0 52.682)"><g transform="translate(4.963)"><path d="M125.709,197.027c-5.817,2.4-13.51,6.825-16.877,10.2s-17.6,29.393-19.845,35.259c-1.974,5.166-2.2,24.612-2.2,24.612l3.115.686s1.568-20.65,3.115-23.471c3.486-6.328,16.338-27.825,19.495-28.56L125.7,197.02Z" transform="translate(-86.79 -197.02)" fill="#ffeebf"/><g opacity="0.7"><path d="M125.709,197.027c-5.817,2.4-13.51,6.825-16.877,10.2s-17.6,29.393-19.845,35.259c-1.974,5.166-2.2,24.612-2.2,24.612l3.115.686s1.568-20.65,3.115-23.471c3.486-6.328,16.338-27.825,19.495-28.56L125.7,197.02Z" transform="translate(-86.79 -197.02)" fill="#ffeebf"/></g><path d="M136.223,197.03l-13.195,18.732a3.087,3.087,0,0,0-1.218.812l4.851-14.679a75.117,75.117,0,0,1,9.562-4.858Z" transform="translate(-97.296 -197.023)" fill="#ffeebf" opacity="0.4"/></g><path d="M85.321,295.45c-4.046,1.54-5.621,6.776-5.621,8.274s3.227,6.615,3.9,7.427.8-3.024.8-3.024,5.768,10.717,7.084,10.325.1-12.194.1-12.194,1.358,2.156,1.9,1.988-.042-5.544-1.085-7.819-5.285-4.795-5.285-4.795l-1.778-.175Z" transform="translate(-79.7 -226.55)" fill="#263238"/></g><g transform="translate(147.236 121.745)"><path d="M307.925,298.558s1.505,16.492.21,20.44c-.749,2.275-18.095,39.192-18.095,41.089s13.153,32.557,13.153,32.557l1.225-3.108,2.793,2.9a12.9,12.9,0,0,0-1.106-3.794c-.735-1.162-2.632-3.9-2.632-3.9s.525-13.7,1.267-17.381,24.311-23.2,30.786-31.71c6.461-8.484,25.445-31.962,28.2-37.611,2.044-4.193-56.454-2.009-55.8.525Z" transform="translate(-290.04 -295.683)" fill="#ffc727"/><path d="M307.925,298.558s1.505,16.492.21,20.44c-.749,2.275-18.095,39.192-18.095,41.089s13.153,32.557,13.153,32.557l1.225-3.108,2.793,2.9a12.9,12.9,0,0,0-1.106-3.794c-.735-1.162-2.632-3.9-2.632-3.9s.525-13.7,1.267-17.381,24.311-23.2,30.786-31.71c6.461-8.484,25.445-31.962,28.2-37.611,2.044-4.193-56.454-2.009-55.8.525Z" transform="translate(-290.04 -295.683)" fill="#fff" opacity="0.7"/><path d="M302.657,342.774c2.247-6.342,5.383-12.362,7.714-18.627.231-5.915-1.169-11.795-1.862-17.668,1.491,5.8,3.073,11.76,2.891,17.8a4.207,4.207,0,0,1-.343,1.288c-2.695,5.789-5.376,11.585-8.407,17.206h0Z" transform="translate(-293.823 -298.922)" opacity="0.1"/><path d="M304.743,377.345c-.742,3.682-1.267,17.388-1.267,17.388s1.9,2.737,2.639,3.892a12.906,12.906,0,0,1,1.106,3.794l-2.793-2.9-1.225,3.115s-13.153-30.66-13.153-32.557,17.346-38.814,18.088-41.089c-.273,4.249-5.9,30.149-6.748,32.557s-1.141,7.413,1.862,8.078c5.068,1.134,13.923-5.8,19.88-11.186-8.561,8.127-17.941,16.611-18.4,18.907Z" transform="translate(-290.043 -305.675)" fill="#ffc727" opacity="0.2"/></g><g transform="translate(32.017 107.25)"><path d="M125.447,275.273c2.359,9.065,11.207,56.783,11.522,60.577s-4.27,21.574-4.27,23.464,13.153,27.1,13.153,27.1l1.225-3.108,2.793,2.9a12.9,12.9,0,0,0-1.106-3.794c-.735-1.162-2.632-3.9-2.632-3.9s.525-13.7,1.267-17.381,16.226-22.547,19.7-31.6,2-33.082,1.477-37.715-43.784-19.082-43.126-16.541Z" transform="translate(-125.439 -274.975)" fill="#ffc727"/><path d="M125.447,275.273c2.359,9.065,11.207,56.783,11.522,60.577s-4.27,21.574-4.27,23.464,13.153,27.1,13.153,27.1l1.225-3.108,2.793,2.9a12.9,12.9,0,0,0-1.106-3.794c-.735-1.162-2.632-3.9-2.632-3.9s.525-13.7,1.267-17.381,16.226-22.547,19.7-31.6,2-33.082,1.477-37.715-43.784-19.082-43.126-16.541Z" transform="translate(-125.439 -274.975)" fill="#fff" opacity="0.7"/><path d="M183.43,338.885c2.023-5.1,4.151-10.038,5.082-15.456l1.141-5.327c1.029-4.389,2.037-8.883,3.164-13.258a11.615,11.615,0,0,1,.833-2.674,18.15,18.15,0,0,1,3.836-3.941c-1.925,1.981-3.8,3.878-4.011,6.748l-.525,2.681c-1.05,5.152-2.282,10.857-3.507,16-.994,5.39-3.444,10.444-6.013,15.232h0Z" transform="translate(-142.837 -281.952)" opacity="0.1"/></g><path d="M147.014,366.164a12.817,12.817,0,0,1,1.1,3.794l-2.793-2.9-1.225,3.115s-13.153-25.207-13.153-27.1,4.585-19.677,4.263-23.471c-.315-3.724-8.834-49.734-11.375-60.031-.049-.2-.1-.385-.147-.553-2.877-10.8-4.6-21.357-3.969-29.491a19.7,19.7,0,0,1,2.4-6.5l1.722-2.24a17.547,17.547,0,0,0-1.519,8.365c.84,9.331,5,20.8,9.24,31.15,6.195,15.12,13.02,51.218,14.364,58.855.693,3.969-3.283,12.824,2.576,11.256s15.771-14.749,15.771-14.749c-4.816,9.632-17.955,25.837-18.634,29.225-.742,3.682-1.26,17.388-1.26,17.388s1.89,2.737,2.632,3.9Z" transform="translate(-91.666 -151.469)" fill="#ffeebf" opacity="0.2"/></g><g transform="translate(-634 -11.738)"><rect width="457.493" height="3.262" fill="#c7c7c7"/><rect width="457.493" height="1.134" transform="translate(0 2.128)" fill="#a6a6a6"/><g transform="translate(0 27.636)"><rect width="457.493" height="1.631" fill="#c7c7c7"/><rect width="457.493" height="0.567" transform="translate(0 1.064)" fill="#a6a6a6"/></g><g transform="translate(37.331)"><rect width="1.631" height="92.812" fill="#c7c7c7"/><rect width="0.567" height="92.812" fill="#a6a6a6"/><g transform="translate(76.243)"><rect width="1.631" height="92.812" fill="#c7c7c7"/><rect width="0.567" height="92.812" fill="#a6a6a6"/></g><g transform="translate(152.486)"><rect width="1.631" height="92.812" fill="#c7c7c7"/><rect width="0.567" height="92.812" fill="#a6a6a6"/></g><g transform="translate(228.722)"><rect width="1.631" height="92.812" fill="#c7c7c7"/><rect width="0.567" height="92.812" fill="#a6a6a6"/></g><g transform="translate(304.965)"><rect width="1.631" height="92.812" fill="#c7c7c7"/><rect width="0.567" height="92.812" fill="#a6a6a6"/></g><g transform="translate(381.208)"><rect width="1.631" height="92.812" fill="#c7c7c7"/><rect width="0.567" height="92.812" fill="#a6a6a6"/></g></g><g transform="translate(0 60.388)"><rect width="457.493" height="1.631" fill="#c7c7c7"/><rect width="457.493" height="0.567" transform="translate(0 1.064)" fill="#a6a6a6"/></g></g><g transform="translate(-362.927 -153.717)"><g transform="translate(0 77.944)"><g transform="translate(0 0.007)"><g transform="translate(22.083)"><g transform="translate(16.386 133.222)"><path d="M543.173,448.077c-1.694.525-49.7-.5-51.505-1.694-.686-.448-.945-7.455-1.015-15.918-.014-1.827-.021-3.71-.014-5.635,0-2.268,1.582-24.381,1.582-24.381l30.786.581-1.134,24.381-.266,5.628s18.2,8.617,20.041,10.143S544.86,447.559,543.173,448.077Z" transform="translate(-490.484 -400.45)" fill="#ad6359"/><path d="M543.172,457.261c-1.694.525-49.7-.5-51.512-1.694-.679-.448-.938-7.455-1.008-15.925-.021-1.827-.021-3.71-.014-5.635,0-.406.056-1.477.14-2.947h31.255l-.168,3.521-.266,5.635s18.207,8.617,20.041,10.143,3.206,6.377,1.526,6.9Z" transform="translate(-490.484 -409.633)" fill="#ebebeb"/><g transform="translate(0.785 45.541)"><path d="M544.158,466.2v3.661a.689.689,0,0,1-.693.686h-.217a.715.715,0,0,1-.679-.546,2.083,2.083,0,0,0-4.011,0,.709.709,0,0,1-.679.546h-1.05a.715.715,0,0,1-.679-.546,2.079,2.079,0,0,0-4,0,.709.709,0,0,1-.679.546h-1.05a.715.715,0,0,1-.679-.546,2.083,2.083,0,0,0-4.011,0,.709.709,0,0,1-.679.546H524a.715.715,0,0,1-.679-.546,2.079,2.079,0,0,0-4,0,.709.709,0,0,1-.679.546h-1.05a.715.715,0,0,1-.679-.546,2.083,2.083,0,0,0-4.011,0,.709.709,0,0,1-.679.546h-1.05a.715.715,0,0,1-.679-.546,2.079,2.079,0,0,0-4,0,.709.709,0,0,1-.679.546h-1.05a.715.715,0,0,1-.679-.546,2.083,2.083,0,0,0-4.011,0,.709.709,0,0,1-.679.546h-1.05a.7.7,0,0,1-.672-.546,2.079,2.079,0,0,0-4,0,.709.709,0,0,1-.679.546h-.749a.689.689,0,0,1-.693-.686V466.2a.689.689,0,0,1,.693-.686h51.239a.687.687,0,0,1,.686.686Z" transform="translate(-491.541 -465.51)" fill="#ffc727"/><g opacity="0.2"><path d="M544.158,466.2v3.661a.689.689,0,0,1-.693.686h-.217a.715.715,0,0,1-.679-.546,2.083,2.083,0,0,0-4.011,0,.709.709,0,0,1-.679.546h-1.05a.715.715,0,0,1-.679-.546,2.079,2.079,0,0,0-4,0,.709.709,0,0,1-.679.546h-1.05a.715.715,0,0,1-.679-.546,2.083,2.083,0,0,0-4.011,0,.709.709,0,0,1-.679.546H524a.715.715,0,0,1-.679-.546,2.079,2.079,0,0,0-4,0,.709.709,0,0,1-.679.546h-1.05a.715.715,0,0,1-.679-.546,2.083,2.083,0,0,0-4.011,0,.709.709,0,0,1-.679.546h-1.05a.715.715,0,0,1-.679-.546,2.079,2.079,0,0,0-4,0,.709.709,0,0,1-.679.546h-1.05a.715.715,0,0,1-.679-.546,2.083,2.083,0,0,0-4.011,0,.709.709,0,0,1-.679.546h-1.05a.7.7,0,0,1-.672-.546,2.079,2.079,0,0,0-4,0,.709.709,0,0,1-.679.546h-.749a.689.689,0,0,1-.693-.686V466.2a.689.689,0,0,1,.693-.686h51.239a.687.687,0,0,1,.686.686Z" transform="translate(-491.541 -465.51)"/></g></g><g transform="translate(0 20.501)"><path d="M543.248,458.577c-1.1.336-21.553.035-36.434-.553-3.444-.14-6.594-.294-9.135-.448-3.5-.224-5.845-.462-6.223-.714-.833-.56-1.05-10.836-1.036-21.672l31.409.581-.266,5.663s18.3,8.666,20.16,10.2c1.834,1.533,3.227,6.4,1.533,6.944Z" transform="translate(-490.419 -431.373)" fill="#ffc727"/><path d="M543.248,458.577c-1.1.336-21.553.035-36.434-.553-3.444-.14-6.594-.294-9.135-.448-3.5-.224-5.845-.462-6.223-.714-.833-.56-1.05-10.836-1.036-21.672l31.409.581-.266,5.663s18.3,8.666,20.16,10.2c1.834,1.533,3.227,6.4,1.533,6.944Z" transform="translate(-490.419 -431.373)" fill="#ffc727"/><path d="M543.248,458.577c-1.1.336-21.553.035-36.434-.553-3.444-.14-6.594-.294-9.135-.448-3.5-.224-5.845-.462-6.223-.714-.833-.56-1.05-10.836-1.036-21.672l31.409.581-.266,5.663s18.3,8.666,20.16,10.2c1.834,1.533,3.227,6.4,1.533,6.944Z" transform="translate(-490.419 -431.373)" opacity="0.5"/><g transform="translate(3.362)"><g transform="translate(0 7.999)"><path d="M544.038,465.43c-8.085-.371-40.746-1.106-48.768-.861-.063,0-.063.049,0,.049,8.008.546,40.669,1.015,48.768.945C544.206,465.563,544.213,465.437,544.038,465.43Z" transform="translate(-495.223 -448.172)" fill="#ffc727"/><path d="M532.487,441.455c-3.171-.665-7.077-.259-9.562,1.96-.1.084.028.224.133.189a44.69,44.69,0,0,1,9.408-1.75.2.2,0,0,0,.021-.4Z" transform="translate(-503.523 -441.165)" fill="#ffc727"/><path d="M535.727,443.505c-3.171-.665-7.077-.259-9.562,1.96-.1.084.028.224.133.189a44.689,44.689,0,0,1,9.408-1.75.2.2,0,0,0,.021-.4Z" transform="translate(-504.495 -441.78)" fill="#ffc727"/><path d="M538.967,445.556c-3.171-.665-7.077-.259-9.562,1.96-.1.084.028.224.133.189a44.689,44.689,0,0,1,9.408-1.75.2.2,0,0,0,.021-.4Z" transform="translate(-505.467 -442.395)" fill="#ffc727"/><path d="M542.207,447.605c-3.171-.665-7.077-.259-9.562,1.96-.1.084.028.224.133.189a44.689,44.689,0,0,1,9.408-1.75.2.2,0,0,0,.021-.4Z" transform="translate(-506.439 -443.01)" fill="#ffc727"/></g><g transform="translate(14.311)"><path d="M540.942,430.789c-1.211-1.75-3.563-1.022-4.914.063a17.023,17.023,0,0,0-5.061,7.189.09.09,0,0,0,.07.119.39.39,0,0,0,.49.406c2.653-.917,5.6-1.568,7.889-3.276C540.753,434.3,542.09,432.441,540.942,430.789Zm-5.677,5.565c-1.295.483-2.6.9-3.878,1.428.994-1.4,1.918-2.835,3.045-4.13a17.346,17.346,0,0,1,1.729-1.785c.966-.84,4.753-2.6,4.123.889-.35,1.918-3.479,3.031-5.019,3.6Z" transform="translate(-520.255 -429.738)" fill="#ffc727"/><path d="M518.308,437.762c2.6,1.176,5.621,1.183,8.407,1.512a.4.4,0,0,0,.392-.5.084.084,0,0,0,.049-.126,17.024,17.024,0,0,0-6.482-5.943c-1.554-.777-4-.98-4.816.987-.77,1.862.931,3.388,2.45,4.074Zm-1.386-2.3c-1.365-3.269,2.716-2.359,3.836-1.743a19.355,19.355,0,0,1,2.072,1.379c1.379,1.029,2.59,2.233,3.857,3.388-1.358-.245-2.723-.371-4.088-.567-1.631-.231-4.921-.651-5.67-2.45Z" transform="translate(-515.666 -430.46)" fill="#ffc727"/></g></g><path d="M490.44,441.07c.042,9.2.3,17.073,1.029,17.563.378.252,2.723.483,6.223.707,2.541.161,5.691.315,9.135.448,2.772.105,5.726.21,8.722.294-8.344-6.377-17.731-13.454-25.109-19.012Z" transform="translate(-490.425 -433.137)" opacity="0.1"/></g></g><g transform="translate(0 0)"><path d="M516.471,370.631H482.424a32.948,32.948,0,0,1-.21-8.862c1.813-19.516,7.007-64.567,6.8-65.659-.343-1.778-2.352-9.828-5.026-20.342-.84-3.29-1.743-6.818-2.681-10.479-2.541-9.891-5.334-20.706-7.777-30.114-3.661-14.1-6.517-25.046-6.517-25.046h28.854s3.36,10.661,7.6,24.535c6.909,22.54,16.135,53.57,17.045,61.109,1.127,9.324-.7,48.264-2.156,66a31.481,31.481,0,0,1-1.89,8.862Z" transform="translate(-467.01 -210.13)" fill="#ffd947"/><g transform="translate(5.899 7.222)"><path d="M522.407,431.013c-5.2-.105-3.7-.147-8.9-.2-2.548-.028-19.271-.168-21.651.224a.054.054,0,0,0,0,.1c2.38.392,19.1.245,21.651.224,5.2-.049,3.71-.091,8.9-.2a.077.077,0,0,0,0-.154Z" transform="translate(-480.349 -283.543)" fill="#263238"/><path d="M497.951,294.347c-1.12-4.921-2.786-9.744-4.235-14.574q-4.431-14.721-8.9-29.435-2.236-7.36-4.494-14.707c-.763-2.471-1.519-4.949-2.3-7.42-.756-2.415-1.624-4.816-2.3-7.252-.28-.994-.427-.448-.077.812.721,2.541,1.428,5.082,2.17,7.616q2.205,7.528,4.431,15.043,4.431,14.962,8.932,29.9,2.247,7.5,4.508,14.987a61.47,61.47,0,0,1,1.841,7.252,33.44,33.44,0,0,1,.3,7.756c-.329,5.208-4.774,45.569-5.712,55.936-.119,1.316-.231,2.625-.336,3.941-.035.441.273.49.322.07,1.12-10.248,5.215-44.918,6.167-55.131.238-2.562.511-5.131.511-7.714a31.755,31.755,0,0,0-.833-7.084Z" transform="translate(-475.437 -220.447)" fill="#263238"/></g></g><path d="M492.595,210.13c-2,15.5-5.824,44.561-8.61,65.638-6.51-25.543-16.975-65.638-16.975-65.638h25.578Z" transform="translate(-467.01 -210.13)" fill="#263238"/></g><g transform="translate(2.322 133.222)"><path d="M491.533,448.077c-1.694.525-49.7-.5-51.505-1.694-.686-.448-.945-7.455-1.015-15.918-.014-1.827-.021-3.71-.014-5.635,0-2.268,1.582-24.381,1.582-24.381l30.786.581-1.134,24.381-.266,5.628s18.2,8.617,20.041,10.143S493.22,447.559,491.533,448.077Z" transform="translate(-438.844 -400.45)" fill="#ad6359"/><path d="M491.532,457.261c-1.694.525-49.7-.5-51.512-1.694-.679-.448-.938-7.455-1.008-15.925-.021-1.827-.021-3.71-.014-5.635,0-.406.056-1.477.14-2.947h31.255l-.168,3.521-.266,5.635s18.207,8.617,20.041,10.143,3.213,6.377,1.526,6.9Z" transform="translate(-438.844 -409.633)" fill="#ebebeb"/><g transform="translate(0.799 45.541)"><path d="M492.524,466.2v3.661a.689.689,0,0,1-.693.686h-.217a.715.715,0,0,1-.679-.546,2.083,2.083,0,0,0-4.011,0,.709.709,0,0,1-.679.546H485.2a.7.7,0,0,1-.672-.546,2.079,2.079,0,0,0-4,0,.709.709,0,0,1-.679.546h-1.05a.715.715,0,0,1-.679-.546,2.083,2.083,0,0,0-4.011,0,.709.709,0,0,1-.679.546h-1.05A.7.7,0,0,1,471.7,470a2.079,2.079,0,0,0-4,0,.709.709,0,0,1-.679.546h-1.05a.715.715,0,0,1-.679-.546,2.083,2.083,0,0,0-4.011,0,.709.709,0,0,1-.679.546h-1.05a.715.715,0,0,1-.679-.546,2.079,2.079,0,0,0-4,0,.709.709,0,0,1-.679.546h-1.05a.715.715,0,0,1-.679-.546,2.083,2.083,0,0,0-4.011,0,.709.709,0,0,1-.679.546h-1.05a.7.7,0,0,1-.672-.546,2.079,2.079,0,0,0-4,0,.709.709,0,0,1-.679.546h-.749a.689.689,0,0,1-.693-.686V466.2a.689.689,0,0,1,.693-.686h51.239a.693.693,0,0,1,.693.686Z" transform="translate(-439.92 -465.51)" fill="#ffc727"/><g opacity="0.2"><path d="M492.524,466.2v3.661a.689.689,0,0,1-.693.686h-.217a.715.715,0,0,1-.679-.546,2.083,2.083,0,0,0-4.011,0,.709.709,0,0,1-.679.546H485.2a.7.7,0,0,1-.672-.546,2.079,2.079,0,0,0-4,0,.709.709,0,0,1-.679.546h-1.05a.715.715,0,0,1-.679-.546,2.083,2.083,0,0,0-4.011,0,.709.709,0,0,1-.679.546h-1.05A.7.7,0,0,1,471.7,470a2.079,2.079,0,0,0-4,0,.709.709,0,0,1-.679.546h-1.05a.715.715,0,0,1-.679-.546,2.083,2.083,0,0,0-4.011,0,.709.709,0,0,1-.679.546h-1.05a.715.715,0,0,1-.679-.546,2.079,2.079,0,0,0-4,0,.709.709,0,0,1-.679.546h-1.05a.715.715,0,0,1-.679-.546,2.083,2.083,0,0,0-4.011,0,.709.709,0,0,1-.679.546h-1.05a.7.7,0,0,1-.672-.546,2.079,2.079,0,0,0-4,0,.709.709,0,0,1-.679.546h-.749a.689.689,0,0,1-.693-.686V466.2a.689.689,0,0,1,.693-.686h51.239a.693.693,0,0,1,.693.686Z" transform="translate(-439.92 -465.51)"/></g></g><g transform="translate(0 20.501)"><path d="M491.608,458.577c-1.1.336-21.553.035-36.435-.553-3.444-.14-6.594-.294-9.135-.448-3.5-.224-5.845-.462-6.223-.714-.833-.56-1.05-10.836-1.036-21.672l31.409.581-.266,5.663s18.3,8.666,20.16,10.2,3.227,6.4,1.533,6.944Z" transform="translate(-438.779 -431.373)" fill="#ffc727"/><path d="M491.608,458.577c-1.1.336-21.553.035-36.435-.553-3.444-.14-6.594-.294-9.135-.448-3.5-.224-5.845-.462-6.223-.714-.833-.56-1.05-10.836-1.036-21.672l31.409.581-.266,5.663s18.3,8.666,20.16,10.2,3.227,6.4,1.533,6.944Z" transform="translate(-438.779 -431.373)" fill="#ffc727"/><path d="M491.608,458.577c-1.1.336-21.553.035-36.435-.553-3.444-.14-6.594-.294-9.135-.448-3.5-.224-5.845-.462-6.223-.714-.833-.56-1.05-10.836-1.036-21.672l31.409.581-.266,5.663s18.3,8.666,20.16,10.2,3.227,6.4,1.533,6.944Z" transform="translate(-438.779 -431.373)" opacity="0.5"/><g transform="translate(3.362)"><g transform="translate(0 7.999)"><path d="M492.4,465.43c-8.085-.371-40.746-1.106-48.768-.861-.063,0-.063.049,0,.049,8.008.546,40.669,1.015,48.768.945C492.566,465.563,492.573,465.437,492.4,465.43Z" transform="translate(-443.582 -448.172)" fill="#ffc727"/><path d="M480.84,441.455c-3.171-.665-7.077-.259-9.555,1.96-.1.084.028.224.133.189a44.69,44.69,0,0,1,9.408-1.75.2.2,0,0,0,.021-.4Z" transform="translate(-451.883 -441.165)" fill="#ffc727"/><path d="M484.09,443.505c-3.171-.665-7.077-.259-9.555,1.96-.1.084.028.224.133.189a44.688,44.688,0,0,1,9.408-1.75.2.2,0,0,0,.021-.4Z" transform="translate(-452.858 -441.78)" fill="#ffc727"/><path d="M487.33,445.556c-3.171-.665-7.077-.259-9.555,1.96-.1.084.028.224.133.189a44.689,44.689,0,0,1,9.408-1.75.2.2,0,0,0,.021-.4Z" transform="translate(-453.83 -442.395)" fill="#ffc727"/><path d="M490.57,447.605c-3.171-.665-7.077-.259-9.555,1.96-.1.084.028.224.133.189a44.69,44.69,0,0,1,9.408-1.75.2.2,0,0,0,.021-.4Z" transform="translate(-454.802 -443.01)" fill="#ffc727"/></g><g transform="translate(14.311)"><path d="M489.3,430.789c-1.211-1.75-3.563-1.022-4.914.063a17.023,17.023,0,0,0-5.061,7.189.091.091,0,0,0,.07.119.39.39,0,0,0,.49.406c2.653-.917,5.6-1.568,7.889-3.276C489.113,434.3,490.45,432.441,489.3,430.789Zm-5.677,5.565c-1.295.483-2.6.9-3.878,1.428.994-1.4,1.918-2.835,3.045-4.13a17.34,17.34,0,0,1,1.729-1.785c.966-.84,4.753-2.6,4.123.889-.35,1.918-3.479,3.031-5.019,3.6Z" transform="translate(-468.615 -429.738)" fill="#ffc727"/><path d="M466.668,437.762c2.6,1.176,5.621,1.183,8.407,1.512a.4.4,0,0,0,.392-.5.084.084,0,0,0,.049-.126,17.025,17.025,0,0,0-6.482-5.943c-1.554-.777-4-.98-4.816.987-.77,1.862.931,3.388,2.45,4.074Zm-1.386-2.3c-1.365-3.269,2.716-2.359,3.836-1.743a18.589,18.589,0,0,1,2.065,1.379,50.76,50.76,0,0,1,3.857,3.388c-1.358-.245-2.723-.371-4.088-.567-1.631-.231-4.921-.651-5.67-2.45Z" transform="translate(-464.026 -430.46)" fill="#ffc727"/></g></g></g></g><path d="M485.475,210.13s-.665,13.8-3.829,24.745c-.252.9-.525,1.792-.826,2.646A51.621,51.621,0,0,0,472.5,241.8s-.336,11.109-.665,23.5c-.371,13.853-.749,29.295-.672,32.578.217,9.261.763,46.178.448,63.769a35.668,35.668,0,0,1-1.344,9.5l-34.04.14s-1.169-3.486-.623-10.381c1.568-19.8,6.125-59.66,6.1-62.992-.063-7.217,1.652-39.122,2.975-62.383.245-4.375.056-8.477.469-12.019a80.331,80.331,0,0,1,2.59-13.37h37.743Z" transform="translate(-435.462 -210.13)" fill="#ffd947"/><g transform="translate(3.05 0.345)"><path d="M470.417,431.415c-5.2-.084-3.71-.133-8.911-.161-2.548-.014-19.271-.091-21.644.315a.054.054,0,0,0,0,.105c2.38.385,19.1.168,21.651.133,5.2-.07,3.71-.1,8.9-.238a.077.077,0,0,0,0-.154Z" transform="translate(-439.82 -276.809)" fill="#263238"/><path d="M453.685,210.726c-1.092,3.808-2.723,11.543-2.828,14.679-.042,1.274-.028,2.716-.07,3.99-.49,14.462-1.015,28.917-1.652,43.371-.833,18.928-4.585,80.324-5.7,90.852-.007.07.1.1.1.028,2.429-18.718,3.157-40.074,4.347-58.911s2-37.7,2.632-56.566q.315-9.4.567-18.788c.035-1.267.056-2.534.105-3.808.14-3.689,1.981-11,2.73-14.847.028-.147-.189-.133-.231.014Z" transform="translate(-440.903 -210.622)" fill="#263238"/><g transform="translate(33.456 7.321)"><path d="M496.872,249.254a58.707,58.707,0,0,0-9.2,4.284.1.1,0,0,0,.084.189c3.094-1.33,6.258-2.6,9.275-4.1a.2.2,0,0,0-.168-.371Z" transform="translate(-487.615 -229.529)" fill="#263238"/><path d="M499.632,221.164c-.007-.1-.2-.119-.2-.014a87.224,87.224,0,0,1-.567,9.534c-.154,1.47-1.477,9.6-4.235,9.016-.462-.1-.7-.518-.77-1.162a9.6,9.6,0,0,1,.378-2.492c.315-1.7.567-3.409.735-5.124a42.841,42.841,0,0,0-.063-9.611.092.092,0,0,0-.182.007,81.09,81.09,0,0,1-.91,13.272c-.357,2.114-1.526,5.3.868,5.614,2.443.322,4.046-5.012,4.354-6.475a44.836,44.836,0,0,0,.574-12.572Z" transform="translate(-489.297 -221.08)" fill="#263238"/><path d="M494.957,247.877a15.613,15.613,0,0,0-.623,1.827,4.131,4.131,0,0,0-.259,1.5.107.107,0,0,0,.189.042,5.384,5.384,0,0,0,.644-1.463c.21-.567.434-1.127.63-1.7A.309.309,0,0,0,494.957,247.877Z" transform="translate(-489.55 -229.062)" fill="#263238"/></g><path d="M461.175,230.524c1.365-.217,6.727-1.687,7.931-2.947,2.058-2.149,3.507-6.776,3.794-8.519.014-.084.112-.056.112.021.042,1.953-1.239,7.217-3.451,9.52-1.239,1.288-6.888,2.233-8.4,2.128-.091,0-.091-.182,0-.2Z" transform="translate(-446.202 -213.138)" fill="#263238"/><path d="M511.025,229.947c-.6-.2-2.6-1.26-3.122-2.457a37.792,37.792,0,0,1-1.974-8.442c0-.084-.049-.056-.049.021-.021,1.855.539,6.86,1.5,9.044.539,1.225,3,2.121,3.654,2.016.042,0,.042-.168,0-.182Z" transform="translate(-459.638 -213.135)" fill="#263238"/></g></g><path d="M491.649,211.989,490,212.15l-2.513.245-24.08,2.352h0l-8.288.8-.413.049-3.724.357c.728-3.668,1.407-5.838,1.407-5.838h38.674S491.271,210.778,491.649,211.989Z" transform="translate(-440.118 -210.12)" opacity="0.2"/></g><g transform="translate(3.627)"><g transform="translate(36.654 30.098)"><path d="M495.552,153.8c2.569,7.728,14.042,32.27,18.872,33.985,5.019,1.785,24.416,4,28.721.609,2.107-1.659,2.835-19.4,0-18.977s-19.943,1.071-21.98.336-15.631-20.51-21.147-25.3c-9.513-8.26-5.852,5.187-4.473,9.345Z" transform="translate(-493.213 -141.783)" fill="#ad6359"/><path d="M538.637,169.1l-.28,22.113s-19.887.049-25.186-2.737-16.513-28.343-19.313-38.121,1.68-11.291,8.8-4.116,17.836,22.211,19.11,22.526S538.637,169.1,538.637,169.1Z" transform="translate(-493.009 -141.768)" fill="#ffc727"/><path d="M549.88,191.913c.014-1.75.126-8.757.294-10.493,0-.028.049-.035.049,0,.168,1.687.259,8.6.245,10.36a95.4,95.4,0,0,1-.392,10.493c-.007.063-.112.077-.112,0-.259-3.444-.119-6.909-.084-10.367Z" transform="translate(-510.049 -153.657)" fill="#263238"/><path d="M493.849,150.369c2.8,9.786,14.014,35.329,19.313,38.114,2.541,1.337,8.428,2.023,13.881,2.366L495.816,141.8C493.149,141.5,492.141,144.4,493.849,150.369Z" transform="translate(-493.007 -141.771)" opacity="0.1"/></g><path d="M491.334,188.911H452.66a6.105,6.105,0,0,1-.364-5.25c3.815-10.864,15.092-35.658,20.468-41.187,5.418-5.572,11.858-2.2,13.181-.434,3.983,5.313,6.811,32.508,7.07,42.972a4.883,4.883,0,0,1-1.687,3.9Z" transform="translate(-444.018 -110.96)" fill="#ffd947"/><g transform="translate(33.099)"><g transform="translate(0 20.337)"><path d="M494.44,144.935c-2.275-.147-5.922-4-6.51-7.5-.035-.238,1.008-2.254,2.17-4.76.7-1.526,1.435-3.234,2-4.844.112-.329,9.247,5.985,9.247,5.985a27.008,27.008,0,0,0-3.136,5.845,3.726,3.726,0,0,0-.161.686c-.007.028-.014.07-.021.112-.231,1.33-1.155,4.634-3.591,4.473Z" transform="translate(-487.929 -127.822)" fill="#ffa686"/><path d="M499.864,140.41a.827.827,0,0,1-.028.112,7.205,7.205,0,0,1-1.05-.308c-5.9-2.2-4.872-10.2-4.515-12.194,1.708.882,8.89,5.859,8.89,5.859a26.949,26.949,0,0,0-3.136,5.852,3.2,3.2,0,0,0-.154.686Z" transform="translate(-489.742 -127.882)" fill="#263238"/></g><g transform="translate(0.405)"><g transform="translate(3.584 3.898)"><path d="M496.725,108.741c-2.254,3.269-3.661,14.322-1.834,17.472,2.66,4.564,8.659,6.825,12.957,3.255,4.165-3.465,5.747-17.906,3.549-20.937-3.241-4.466-11.34-4.62-14.672.21Z" transform="translate(-493.755 -104.582)" fill="#ffa686"/><path d="M512.214,115.3c-.231-1.421-.4-3.948-1.085-4.949s-.945,1.407-2.7,1.617-2.52-2.961-3.99-3.857-4.431.952-5,3.234-1.148,5.46-1.883,7.014-3.9,1.932-3.9,1.932-.567-10.521,4.011-14.168,12.355-1.036,13.839,1.841.721,7.329.721,7.329Z" transform="translate(-493.628 -104.338)" fill="#263238"/></g><g transform="translate(12.818 13.905)"><g transform="translate(0.248 2.757)"><path d="M509.139,123.84s-.063.028-.063.056c-.077.749-.287,1.589-.994,1.75-.021,0-.028.042,0,.042C508.922,125.688,509.188,124.561,509.139,123.84Z" transform="translate(-507.441 -122.953)" fill="#263238"/><path d="M508.312,122.592c-1.183-.252-1.6,2.142-.5,2.373C508.893,125.189,509.306,122.8,508.312,122.592Z" transform="translate(-507.175 -122.573)" fill="#263238"/></g><g transform="translate(6.03 3.844)"><path d="M515.613,125.07s.049.042.049.077c-.154.735-.2,1.6.427,1.967.021.014.014.049-.014.042-.8-.252-.721-1.407-.462-2.079Z" transform="translate(-515.434 -124.409)" fill="#263238"/><path d="M516.425,124.129c1.2.112.889,2.52-.231,2.408C515.1,126.432,515.41,124.031,516.425,124.129Z" transform="translate(-515.455 -124.126)" fill="#263238"/></g><path d="M507.466,120.157a9.243,9.243,0,0,0,.98-.168,1.634,1.634,0,0,0,.966-.357.515.515,0,0,0,.028-.623,1.272,1.272,0,0,0-1.239-.35,1.834,1.834,0,0,0-1.2.616A.544.544,0,0,0,507.466,120.157Z" transform="translate(-506.836 -118.634)" fill="#263238"/><path d="M517.667,121.868a8.1,8.1,0,0,1-.9-.413,1.627,1.627,0,0,1-.847-.6.507.507,0,0,1,.133-.609,1.282,1.282,0,0,1,1.288-.021,1.824,1.824,0,0,1,1,.9A.547.547,0,0,1,517.667,121.868Z" transform="translate(-509.533 -119.064)" fill="#263238"/><path d="M506.9,133.47c.147.2.28.476.546.539a1.943,1.943,0,0,0,.826-.049c.028,0,.042.021.028.042a1.008,1.008,0,0,1-1.008.238.806.806,0,0,1-.469-.756c0-.042.056-.049.077-.021Z" transform="translate(-506.82 -123.078)" fill="#263238"/><path d="M508.57,127.306a2.568,2.568,0,0,0,1.491,1.414,3.02,3.02,0,0,0,.9.2.748.748,0,0,0,.175.007h.168a.187.187,0,0,0,.175-.14h0a.314.314,0,0,0,0-.084h0l.007-.07c.112-.567.21-1.442.21-1.442.189.14,1.169.8,1.2.5a38.1,38.1,0,0,0,.336-7.791c0-.084-.133-.084-.14,0-.364,2.38-.3,4.809-.63,7.21a4.48,4.48,0,0,0-1.127-.567c-.084.007-.154,1.694-.224,1.946a.07.07,0,0,1-.007.028,3.538,3.538,0,0,1-2.471-1.26c-.049-.049-.112-.014-.077.056Z" transform="translate(-507.338 -118.993)" fill="#263238"/></g><path d="M494.319,113.568s3.787-3.864,6.146-4.844c1.505-.623,5.964-.315,7.434,0,1.036.224,2.982.875,2.982.875a8.6,8.6,0,0,0,.91-.665,3.388,3.388,0,0,0,1.2-2.975c-.231-1.918-2.548-2.695-3.472-3.759s-3.7-3.416-5.817-3.43c-3.122-.028-5.278,1.47-6.1,1.673-2.856.728-5.418,1.7-6.72,3.948-1.519,2.625-1.337,4.8-1.827,5.887-.9,2-.707,4.34.574,5.593a6.336,6.336,0,0,0,2.373,1.568l2.31-3.878Z" transform="translate(-488.508 -98.769)" fill="#ffd947" opacity="0.8"/><path d="M512.249,111.543a7,7,0,0,0-.756-.623,1.736,1.736,0,0,0,.9-.77,7.441,7.441,0,0,0,.574-1.694c.021-.063-.084-.1-.1-.028a4.23,4.23,0,0,1-.644,1.5,3.076,3.076,0,0,1-.917.861,5.167,5.167,0,0,0-.672-.371c.056-.042.112-.091.161-.133a2.446,2.446,0,0,0,.308-.35,2.187,2.187,0,0,0,.35-.854c.014-.063-.1-.07-.105,0a1.878,1.878,0,0,1-.322.8,2.1,2.1,0,0,1-.287.322,1.474,1.474,0,0,1-.161.133.213.213,0,0,1-.049.035c-.063-.028-.119-.056-.182-.084a15.015,15.015,0,0,0-2.464-.707c-.21-.049-.42-.084-.637-.126a1.279,1.279,0,0,0,.238-.238,2.7,2.7,0,0,0,.441-1.2c0-.014-.014-.021-.021,0a2.331,2.331,0,0,1-.525,1.155.813.813,0,0,1-.434.224l-.5-.084a1.368,1.368,0,0,1-.532-.868,2.589,2.589,0,0,1,0-1.225c.014-.063-.084-.1-.1-.028a3.428,3.428,0,0,0-.119,1.071,2.229,2.229,0,0,0,.217.98,11.466,11.466,0,0,0-2.45-.063,7.168,7.168,0,0,0-1.8.406,3.886,3.886,0,0,1-.791-.5,1.977,1.977,0,0,1-.609-.945c-.021-.063-.119-.042-.1.021a2.445,2.445,0,0,0,1.239,1.519,9.809,9.809,0,0,0-1.68.868c-.049-.028-.091-.063-.14-.091a2.042,2.042,0,0,1-.336-.259,2.6,2.6,0,0,1-.546-.686,4.649,4.649,0,0,1-.427-1.813c0-.056-.105-.049-.105.007a7.006,7.006,0,0,0,.35,1.974,2.155,2.155,0,0,0,.518.8,1.833,1.833,0,0,0,.385.273h.007a1.5,1.5,0,0,0-.133.091l-.336.231a1.083,1.083,0,0,1-.735-.147,1.886,1.886,0,0,1-.735-1.225c-.014-.07-.126-.035-.1.035a2.582,2.582,0,0,0,.777,1.4,1.163,1.163,0,0,0,.455.175,23.241,23.241,0,0,0-2.555,2.051c-.014-.056-.028-.119-.042-.175a2.836,2.836,0,0,0-.21-.525,2.91,2.91,0,0,0-.3-.462c-.119-.147-.231-.294-.357-.434a.052.052,0,0,0-.077.07,3.2,3.2,0,0,1,.3.455c.077.161.14.322.21.483s.112.329.161.49c.028.084.042.175.07.259,0,.014.014.035.014.049-.161.161-.336.322-.49.49-.133.147-.259.294-.385.448-.063-.021-.126-.035-.2-.056a4.245,4.245,0,0,1-.413-.168,4.163,4.163,0,0,1-.784-.455,5.374,5.374,0,0,1-.686-.567,2.107,2.107,0,0,1-.511-.826c-.021-.063-.126-.042-.1.021a3.793,3.793,0,0,0,1,1.673,2.733,2.733,0,0,0,.861.5,2.5,2.5,0,0,0,.609.147,12.32,12.32,0,0,0-1.029,1.519,13.768,13.768,0,0,0-1,2.7c-.021.063.084.1.1.035a7.236,7.236,0,0,1,1.064-2.268,12.253,12.253,0,0,1,1.484-1.911,26.439,26.439,0,0,1,3.57-3.1,9.7,9.7,0,0,1,3.99-2.03,11.839,11.839,0,0,1,4.3.154,12.458,12.458,0,0,1,4.942,1.757c.056.035.126-.042.077-.084Z" transform="translate(-489.637 -101.288)" fill="#263238"/><g transform="translate(2.083 13.792)"><path d="M495.856,122.209s-1.372-4.1-3.164-3.71-1.463,5.852.147,7.063a1.917,1.917,0,0,0,2.758-.259l.259-3.087Z" transform="translate(-491.484 -118.472)" fill="#ffa686"/><path d="M493.387,120.737s-.049.028-.021.049a4.87,4.87,0,0,1,1.547,3.626,1.061,1.061,0,0,0-1.442-.728c-.042.014-.021.077.014.077a1.176,1.176,0,0,1,1.127.763,5.751,5.751,0,0,1,.3,1.183c.028.133.252.133.245-.014v-.035c.511-1.61-.077-4.249-1.771-4.928Z" transform="translate(-492.046 -119.15)" fill="#263238"/></g></g></g><g transform="translate(0 29.504)"><g transform="translate(41.389 6.943)"><path d="M500.729,156.131s-2.324-3.612.266-5,4.3,2.548,4.3,2.548l-4.564,2.443Z" transform="translate(-499.771 -150.837)" fill="#455a64"/><g transform="translate(0.881 2.704)"><path d="M519.853,181.314h0l.042,4.207.021,1.386-1.155-.777-3.479-2.366h0L501.03,157.143,505.6,154.7l14.252,26.621h0Z" transform="translate(-501.03 -154.7)" fill="#455a64"/><path d="M527.494,198.73l.021,1.386-1.155-.777Z" transform="translate(-508.629 -167.909)" fill="#37474f"/></g><rect width="6.048" height="1.197" transform="translate(0.428 5.238) rotate(-28.16)" fill="#37474f"/><rect width="6.048" height="1.197" transform="translate(1.062 6.411) rotate(-28.16)" fill="#37474f"/><path d="M502.08,161.064l1.722-.924,4.207,10.136-.658.3Z" transform="translate(-500.464 -153.628)" fill="#37474f"/></g><g transform="translate(0.755 0.924)"><path d="M464.827,146.1c-12.9,13.468-27.664,36.365-21.77,41.509,5.383,4.7,20.517,1.778,33.313-2.814,2.436-.875-.672-21.98-3.164-20.783a53.312,53.312,0,0,1-10.066,3.381c-.7.168,2.31-2.282,6.86-13.335,4.627-11.235,2.2-15.659-5.173-7.959Z" transform="translate(-441.722 -142.238)" fill="#ad6359"/><g transform="translate(29.629 16.044)"><path d="M515.361,171.508c-.182,2.408-6.083,1.456-6.083,1.456a4.465,4.465,0,0,1,1.61,2.569c.3,1.813-2.4,3.08-2.4,3.08a5.5,5.5,0,0,1,1.267,2.975c.119,1.764-2.429,3.43-2.429,3.43a4.825,4.825,0,0,1-.532,3.318c-1.631,2.625-6.384,2.3-9.359,2.681-3.192.406-8.078.56-10.031,1.232L484.05,171.7s13.153-6.986,16.695-6.524c2.982.385,14.9,2.653,14.623,6.328Z" transform="translate(-484.05 -165.159)" fill="#ffa686"/><g transform="translate(14.633 5.748)"><path d="M515.87,175.351a40.193,40.193,0,0,0-9.646-1.981c-.07-.007-.084.1-.014.112,3.22.343,6.426,1.554,9.625,2.023C515.926,175.519,515.954,175.386,515.87,175.351Z" transform="translate(-505.317 -173.37)" fill="#263238"/><path d="M514.83,183.8a8.439,8.439,0,0,0-2.219-.3c-.791-.056-1.582-.091-2.38-.119-1.589-.056-3.178-.077-4.767-.049-.07,0-.084.112-.014.112,1.582.056,3.164.14,4.746.266.791.063,1.582.133,2.366.2a10.019,10.019,0,0,0,2.24.1A.114.114,0,0,0,514.83,183.8Z" transform="translate(-505.089 -176.355)" fill="#263238"/><path d="M513.54,193.361a5.881,5.881,0,0,0-2.016-.168c-.721-.007-1.449-.021-2.17-.042-1.449-.035-2.9-.07-4.34-.161-.07,0-.084.105-.014.112,1.47.1,2.933.21,4.4.294.721.042,1.442.077,2.163.112a5.613,5.613,0,0,0,1.967-.07.038.038,0,0,0,0-.07Z" transform="translate(-504.954 -179.256)" fill="#263238"/></g></g></g><path d="M469.887,162.731l4.144,24.073s-30.184,6.979-33.082-.693,15.519-35.329,25.9-43.077,4.277,8.211,3.941,9.212c-1.5,4.459-6.279,12.593-6.279,12.593l5.369-2.114Z" transform="translate(-440.644 -140.918)" fill="#ffd947"/><g transform="translate(4.679 12.274)"><path d="M475.39,172.012c-3.472,1.113-12.621,5.355-14.651,7.147-.063.056,0,.147.063.1,1.988-1.316,13.286-6.461,15.05-7.077a2.534,2.534,0,0,0,.112.273c.056.084.1.035.1-.042a4.86,4.86,0,0,0-.112-.588S475.768,171.886,475.39,172.012Z" transform="translate(-451.343 -162.466)" fill="#263238"/><path d="M476.847,186.781c-.28-1.68-1.344-8.407-1.477-10.094,0-.028.042-.042.049-.014.448,1.589,1.687,8.2,1.967,9.877a94.661,94.661,0,0,1,1.386,10.115c0,.063-.091.091-.1.028-.826-3.255-1.274-6.6-1.82-9.912Z" transform="translate(-455.74 -163.915)" fill="#263238"/><path d="M474.4,170.239c1-2.009,2.2-3.92,3.283-5.887s2.212-3.9,3.227-5.887c.014-.028.056,0,.049.021-.623,1.358-1.246,2.716-1.9,4.053.2-.21.378-.427.56-.644.329-.4.63-.819.931-1.239a.025.025,0,0,1,.042.028,7.241,7.241,0,0,1-.868,1.33,9.516,9.516,0,0,1-.826.854c-.273.546-.553,1.085-.84,1.624a43.411,43.411,0,0,1-3.3,5.768c-.042.056-.378.049-.35-.014Z" transform="translate(-455.449 -158.453)" fill="#263238"/><path d="M447.413,208.292c8.043,1.071,25.186-1.645,28.511-2.226-.035-.35-.014-.476-.063-.973,0-.063.1-.091.1-.021.077.469.371,1.414.231,1.463-1.6.581-20.4,3.731-28.8,1.9-.091-.021-.084-.161.007-.147Z" transform="translate(-447.327 -172.427)" fill="#263238"/></g></g><g transform="translate(49.035 40.215)"><g transform="translate(0)"><g transform="translate(0 2.969)"><rect width="37.876" height="29.099" transform="translate(0 37.107) rotate(-78.43)" fill="#ffc727"/><rect width="37.876" height="29.099" transform="translate(0 37.107) rotate(-78.43)" opacity="0.6"/><rect width="37.876" height="29.099" transform="translate(1.211 37.364) rotate(-78.43)" fill="#ffc727"/><rect width="37.876" height="29.099" transform="translate(1.211 37.364) rotate(-78.43)" opacity="0.4"/></g><g transform="translate(15.709)"><rect width="4.179" height="13.79" transform="translate(0 6.899) rotate(-78.5)" fill="#c7c7c7"/><path d="M538.71,159.664l1.666.336.385-1.89,4.046.826-.385,1.89,1.659.336.7-3.437-7.392-1.5Z" transform="translate(-534.808 -156.22)" fill="#c7c7c7"/></g></g><g transform="translate(22.761 9.462)"><path d="M558.561,178.05c.994,2.793,3.843,6.426,3.885,8.631a2.529,2.529,0,0,1-1.666,2.513s2.065,1.3,1.771,3.311c-.154,1.029-1.932,1.7-1.932,1.7a3.034,3.034,0,0,1,1.239,2.884c-.294,1.407-2.037,1.862-2.037,1.862s1.043,1.792.28,3.129c-1.547,2.716-13.832,1.463-15.267-3.255-.672-2.2,2.317-1.729,2.317-1.729s-4.13-1.708-3.934-4.249,4.032-1.694,4.032-1.694-3.99-1.694-3.521-4.3c.483-2.723,4.179-1.218,4.179-1.218s-2.541-2.128-1.729-4.046c1.344-3.171,6.1,1.47,8.862,1.106l1.946-4.3,1.582-.329Z" transform="translate(-543.21 -172.231)" fill="#ffa686"/><path d="M566.36,179.679c-.707-2.73,2.877-5.642,2.569-8.344-.413-3.661-4.795-.56-6.223,4.55l-.406,4.158Z" transform="translate(-548.937 -169.738)" fill="#ffa686"/><g transform="translate(3.692 13.073)"><path d="M561.13,207.113c.042,0,.049.056,0,.063a21.375,21.375,0,0,1-12.579-2.044c-.119-.063-.07-.294.077-.245a43.873,43.873,0,0,0,12.495,2.226Z" transform="translate(-548.485 -193.354)" fill="#263238"/><path d="M562.277,199.78c.049,0,.049.084,0,.084a20.094,20.094,0,0,1-13.587-3.08c-.14-.1-.168-.322,0-.224,2.807,1.645,9.6,3.15,13.587,3.213Z" transform="translate(-548.512 -190.851)" fill="#263238"/><path d="M549.533,188.432a27.5,27.5,0,0,0,12.936,3.9c.063,0,.049.091,0,.1a18.084,18.084,0,0,1-7.476-.742,12.332,12.332,0,0,1-5.544-3.122c-.063-.063,0-.189.091-.14Z" transform="translate(-548.766 -188.414)" fill="#263238"/></g></g></g></g></g><g transform="translate(-634 1.898)"><g transform="translate(4.62)"><path d="M86.9,348.357H54.81v-8.449c0-10.094,6.3-16.618,16.051-16.618S86.9,329.814,86.9,339.908Zm-31.066-1.029h30.03v-7.42c0-9.471-5.894-15.589-15.008-15.589s-15.022,6.118-15.022,15.589v7.42Z" transform="translate(-54.81 -321.743)" fill="#263238"/><path d="M81.536,328a13.312,13.312,0,0,0-8.568-2.8A13.28,13.28,0,0,0,64.4,328l-2.59-3.206a17.479,17.479,0,0,1,11.158-3.71,17.487,17.487,0,0,1,11.151,3.71Z" transform="translate(-56.91 -321.08)" fill="#ffd947"/></g><rect width="41.334" height="61.963" transform="translate(0 44.141)" fill="#455a64"/><path d="M80.277,366.98H57.485L48.21,378.992H89.551Z" transform="translate(-48.21 -334.85)" fill="#37474f"/><g transform="translate(9.275 22.848)"><rect width="22.792" height="9.282" fill="#455a64"/><path d="M84.252,353.72H61.46v1.624l22.792,1.631Z" transform="translate(-61.46 -353.72)" fill="#37474f"/></g><rect width="26.67" height="4.683" transform="translate(7.336 18.165)" fill="#455a64"/><path d="M51.2,366.24,55.256,370l-3.2,4.144-2.947-6.1Z" transform="translate(-48.48 -334.628)" fill="#37474f"/><path d="M101.66,366.24,97.6,370l3.2,4.144,2.947-6.1Z" transform="translate(-63.027 -334.628)" fill="#37474f"/><g transform="translate(20.258 44.141)" opacity="0.1"><rect width="12.782" height="61.963" transform="translate(4.291)" fill="#fff"/><rect width="1.813" height="61.963" fill="#fff"/></g><g transform="translate(43.77 18.165)"><rect width="41.334" height="61.963" transform="translate(0 25.977)" fill="#455a64"/><path d="M142.8,366.98H120.015l-9.275,12.012h41.334Z" transform="translate(-110.74 -353.015)" fill="#37474f"/><g transform="translate(9.275 4.683)"><rect width="22.792" height="9.282" fill="#455a64"/><path d="M146.775,353.72H123.99v1.624l22.785,1.631Z" transform="translate(-123.99 -353.72)" fill="#37474f"/></g><rect width="26.67" height="4.683" transform="translate(7.336)" fill="#455a64"/><path d="M113.716,366.24l4.06,3.759-3.2,4.144-2.947-6.1Z" transform="translate(-111.007 -352.793)" fill="#37474f"/><path d="M164.18,366.24,160.12,370l3.2,4.144,2.947-6.1Z" transform="translate(-125.554 -352.793)" fill="#37474f"/><g transform="translate(20.566 25.977)" opacity="0.1"><rect width="12.782" height="61.963" transform="translate(4.291)" fill="#fff"/><rect width="1.813" height="61.963" fill="#fff"/></g><g transform="translate(4.62 7.42)"><path d="M144.78,357.63v1.029H148.4v7.42c0,5.481-1.974,9.842-5.411,12.537a16.648,16.648,0,0,1-19.215,0c-3.43-2.695-5.4-7.056-5.4-12.537v-7.42h3.619V357.63H117.34v8.449c0,5.845,2.107,10.493,5.768,13.363a17.806,17.806,0,0,0,20.545,0c3.675-2.87,5.775-7.518,5.775-13.363V357.63Z" transform="translate(-117.34 -357.63)" fill="#263238"/><path d="M146.629,388.973a18.623,18.623,0,0,1-22.309,0l.882-1.1.665-.826,1.036-1.288a14.538,14.538,0,0,0,17.136,0l1.043,1.288.665.826Z" transform="translate(-119.434 -366.069)" fill="#ffd947"/></g></g><g transform="translate(154.005 18.165)"><rect width="41.334" height="61.963" transform="translate(0 25.977)" fill="#455a64"/><path d="M300.287,366.98H277.495l-9.275,12.012h41.334Z" transform="translate(-268.22 -353.015)" fill="#37474f"/><g transform="translate(9.275 4.683)"><rect width="22.792" height="9.282" fill="#455a64"/><path d="M304.262,353.72H281.47v1.624l22.792,1.631Z" transform="translate(-281.47 -353.72)" fill="#37474f"/></g><rect width="26.67" height="4.683" transform="translate(7.336)" fill="#455a64"/><path d="M271.2,366.24l4.06,3.759-3.2,4.144-2.94-6.1Z" transform="translate(-268.49 -352.793)" fill="#37474f"/><path d="M321.667,366.24,317.6,370l3.2,4.144,2.947-6.1Z" transform="translate(-283.034 -352.793)" fill="#37474f"/><g transform="translate(20.566 25.977)" opacity="0.1"><rect width="12.782" height="61.963" transform="translate(4.298)" fill="#fff"/><rect width="1.813" height="61.963" fill="#fff"/></g><g transform="translate(4.627 7.42)"><path d="M302.27,357.63v1.029h3.619v7.42c0,5.481-1.974,9.842-5.411,12.537a16.648,16.648,0,0,1-19.215,0c-3.43-2.695-5.4-7.056-5.4-12.537v-7.42h3.619V357.63H274.83v8.449c0,5.845,2.107,10.493,5.768,13.363a17.806,17.806,0,0,0,20.545,0c3.675-2.87,5.775-7.518,5.775-13.363V357.63H302.27Z" transform="translate(-274.83 -357.63)" fill="#263238"/><path d="M304.109,388.973a18.623,18.623,0,0,1-22.309,0l.882-1.1.665-.826,1.036-1.288a14.538,14.538,0,0,0,17.136,0l1.043,1.288.665.826.882,1.1Z" transform="translate(-276.921 -366.069)" fill="#ffd947"/></g></g></g><g transform="translate(-298.571 -179.174)"><path d="M564.8,80.156a17.545,17.545,0,0,1-28.014,14.091l-8.6,2.2,3.584-8.008A17.555,17.555,0,1,1,564.8,80.156Z" transform="translate(-527.634 -62.461)" fill="#fff"/><path d="M564.563,80.1c-.084,14.854-17.031,22.652-27.958,14.336l-8.589,2.254-.616.161.259-.581,3.556-8.022.014.3A17.727,17.727,0,1,1,564.563,80.1h0Zm0,0c.056-11.221-10.927-19.8-21.777-16.828a17.354,17.354,0,0,0-10.962,24.955l.077.147-.07.147-3.6,7.994-.357-.427,8.617-2.142a17.5,17.5,0,0,0,28.077-13.853h0Z" transform="translate(-527.4 -62.402)" fill="#263238"/><path d="M547.968,93.655,540.1,85.689l2.646-2.611,4.592,4.648,9.548-14.966,3.136,1.995Z" transform="translate(-531.21 -65.51)" fill="#ffd947"/></g></g></svg>