<svg xmlns="http://www.w3.org/2000/svg" width="476.406" height="422" viewBox="0 0 476.406 422">
  <g id="img-18" transform="translate(9379.406 2876)">
    <g id="img-18-2" data-name="img-18" transform="translate(-9748.614 -3072.806)">
      <g id="Floor" transform="translate(369.208 449.478)">
        <path id="Trazado_114680" data-name="Trazado 114680" d="M483.024,380q-2.252,6.439-4.5,12.863c-.518-3.911-1.035-7.837-1.553-11.748a45.956,45.956,0,0,0-1.611,11.8,91.94,91.94,0,0,0-4.789-19.867,89.243,89.243,0,0,1,1.055,22.3q-.776-5.952-1.559-11.917-1.475,5.719-2.944,11.423a51.589,51.589,0,0,1-.725-12.736,45.419,45.419,0,0,0-3.236,11.155c-.492-4.18-.984-8.373-1.475-12.553a55.146,55.146,0,0,0-1.928,15.095,135.762,135.762,0,0,0-4.426-18.85q-.243,10.124-.479,20.248a59.7,59.7,0,0,1-2.737-12.412,54.33,54.33,0,0,0-2.789,14.261q-1.631-8.938-3.255-17.862a65.894,65.894,0,0,0-2.343,17.368,89.053,89.053,0,0,1-3.837-20.926,184.723,184.723,0,0,0,.155,20.389l-4.213-8.9-.123,9.912c-.615-5.013-1.281-13.541-1.469-17.085q-2.252,6.439-4.5,12.863c-.518-3.911-1.035-7.837-1.553-11.748a45.96,45.96,0,0,0-1.611,11.8,91.927,91.927,0,0,0-4.789-19.867,89.24,89.24,0,0,1,1.055,22.3q-.777-5.952-1.56-11.917-1.475,5.719-2.944,11.423a51.593,51.593,0,0,1-.725-12.736,45.415,45.415,0,0,0-3.235,11.155c-.492-4.18-.984-8.373-1.475-12.553a55.149,55.149,0,0,0-1.928,15.095,135.776,135.776,0,0,0-4.426-18.85q-.243,10.124-.479,20.248a59.707,59.707,0,0,1-2.737-12.412,54.056,54.056,0,0,0-2.731,13.555h-.188q-1.563-8.578-3.125-17.142a65.888,65.888,0,0,0-2.342,17.354h-.007a88.478,88.478,0,0,1-3.824-20.9,184.717,184.717,0,0,0,.155,20.39c-.906-1.92-1.812-3.827-2.724-5.747a123.107,123.107,0,0,1,.129-14.261q-2.252,6.439-4.5,12.864c-.518-3.911-1.035-7.837-1.553-11.748a45.956,45.956,0,0,0-1.611,11.8,91.936,91.936,0,0,0-4.789-19.867,89.237,89.237,0,0,1,1.055,22.3q-.776-5.952-1.559-11.917-1.475,5.719-2.944,11.423a51.587,51.587,0,0,1-.725-12.736,45.422,45.422,0,0,0-3.236,11.155l-1.475-12.553a55.149,55.149,0,0,0-1.928,15.094,135.753,135.753,0,0,0-4.426-18.85q-.243,10.124-.479,20.248a59.705,59.705,0,0,1-2.737-12.412,54.328,54.328,0,0,0-2.789,14.261q-1.631-8.938-3.255-17.862a65.888,65.888,0,0,0-2.342,17.368,89.051,89.051,0,0,1-3.837-20.926,184.708,184.708,0,0,0,.155,20.389l-4.213-8.9-.123,9.912c-.615-5.013-1.281-13.541-1.469-17.085q-2.252,6.439-4.5,12.863c-.518-3.911-1.035-7.837-1.553-11.748a45.958,45.958,0,0,0-1.611,11.8,91.937,91.937,0,0,0-4.789-19.867,89.243,89.243,0,0,1,1.055,22.3q-.777-5.952-1.56-11.917-1.475,5.719-2.944,11.423a51.593,51.593,0,0,1-.725-12.736,45.419,45.419,0,0,0-3.235,11.155c-.492-4.18-.984-8.373-1.475-12.553a55.149,55.149,0,0,0-1.928,15.094,135.764,135.764,0,0,0-4.426-18.851q-.243,10.124-.479,20.248a59.7,59.7,0,0,1-2.737-12.412,54.055,54.055,0,0,0-2.731,13.555h-.188q-1.563-8.578-3.126-17.142a65.888,65.888,0,0,0-2.342,17.354h-.006a88.811,88.811,0,0,1-3.831-20.9,184.724,184.724,0,0,0,.155,20.39c-.822-1.737-1.644-3.459-2.459-5.2a124.575,124.575,0,0,1,.1-14.812q-2.252,6.439-4.5,12.863c-.518-3.911-1.035-7.837-1.553-11.748a45.957,45.957,0,0,0-1.611,11.8,91.943,91.943,0,0,0-4.789-19.867,89.244,89.244,0,0,1,1.055,22.3q-.777-5.952-1.56-11.917-1.475,5.719-2.944,11.423a51.591,51.591,0,0,1-.725-12.736,45.416,45.416,0,0,0-3.235,11.155c-.492-4.18-.984-8.373-1.475-12.553a55.148,55.148,0,0,0-1.928,15.094,135.757,135.757,0,0,0-4.426-18.85q-.243,10.124-.479,20.248a59.705,59.705,0,0,1-2.737-12.412,54.328,54.328,0,0,0-2.789,14.261q-1.631-8.938-3.255-17.862a65.891,65.891,0,0,0-2.342,17.368,89.051,89.051,0,0,1-3.837-20.926,184.722,184.722,0,0,0,.155,20.39l-4.213-8.9-.123,9.912c-.615-5.013-1.281-13.541-1.469-17.085q-2.252,6.439-4.5,12.863c-.518-3.911-1.035-7.837-1.553-11.748a45.958,45.958,0,0,0-1.611,11.8A91.937,91.937,0,0,0,233.3,375.04a89.244,89.244,0,0,1,1.055,22.3q-.776-5.952-1.559-11.917-1.475,5.719-2.944,11.423a51.591,51.591,0,0,1-.725-12.736,45.416,45.416,0,0,0-3.235,11.155c-.492-4.179-.984-8.373-1.475-12.553A55.147,55.147,0,0,0,222.49,397.8a135.758,135.758,0,0,0-4.426-18.85q-.243,10.124-.479,20.248a59.706,59.706,0,0,1-2.737-12.412,54.055,54.055,0,0,0-2.731,13.555h-.188q-1.563-8.578-3.125-17.142a65.888,65.888,0,0,0-2.342,17.354h-.007a88.49,88.49,0,0,1-3.824-20.9,184.728,184.728,0,0,0,.155,20.39c-.692-1.454-1.378-2.909-2.071-4.377a124.287,124.287,0,0,1,.052-15.631q-2.252,6.439-4.5,12.863c-.518-3.911-1.035-7.837-1.553-11.748a45.957,45.957,0,0,0-1.611,11.8,91.94,91.94,0,0,0-4.788-19.867,89.245,89.245,0,0,1,1.055,22.3q-.777-5.952-1.56-11.917-1.475,5.719-2.944,11.423a51.59,51.59,0,0,1-.725-12.736,45.418,45.418,0,0,0-3.235,11.155l-1.475-12.553a55.147,55.147,0,0,0-1.928,15.094A135.756,135.756,0,0,0,173.071,377q-.243,10.124-.479,20.248a59.7,59.7,0,0,1-2.737-12.412,54.327,54.327,0,0,0-2.789,14.261q-1.631-8.938-3.255-17.862a65.892,65.892,0,0,0-2.342,17.368,89.049,89.049,0,0,1-3.837-20.926,184.715,184.715,0,0,0,.155,20.389l-4.213-8.9-.123,9.912c-.615-5.013-1.281-13.541-1.469-17.085q-2.252,6.439-4.5,12.863c-.518-3.911-1.035-7.837-1.553-11.748a45.958,45.958,0,0,0-1.611,11.8,91.939,91.939,0,0,0-4.789-19.867,89.244,89.244,0,0,1,1.055,22.3q-.777-5.952-1.56-11.917-1.475,5.719-2.944,11.423a51.59,51.59,0,0,1-.725-12.736,45.419,45.419,0,0,0-3.235,11.155c-.492-4.179-.984-8.373-1.475-12.553a55.147,55.147,0,0,0-1.928,15.094,135.763,135.763,0,0,0-4.426-18.85q-.243,10.124-.479,20.248A59.7,59.7,0,0,1,121.07,386.8a54.052,54.052,0,0,0-2.731,13.555h-.188q-1.563-8.578-3.125-17.142a65.89,65.89,0,0,0-2.342,17.354h-.006a88.487,88.487,0,0,1-3.824-20.9,184.719,184.719,0,0,0,.155,20.389c-.906-1.92-1.812-3.827-2.724-5.747a123.112,123.112,0,0,1,.129-14.261q-2.252,6.439-4.5,12.863c-.518-3.911-1.035-7.837-1.553-11.748a45.956,45.956,0,0,0-1.611,11.8,91.938,91.938,0,0,0-4.789-19.867,89.243,89.243,0,0,1,1.055,22.3q-.777-5.952-1.56-11.918-1.475,5.719-2.944,11.423a51.59,51.59,0,0,1-.725-12.736,45.419,45.419,0,0,0-3.235,11.155c-.492-4.18-.984-8.373-1.475-12.553a55.147,55.147,0,0,0-1.928,15.095,135.76,135.76,0,0,0-4.426-18.851q-.243,10.124-.479,20.248A59.7,59.7,0,0,1,75.5,384.854a54.328,54.328,0,0,0-2.789,14.261q-1.631-8.938-3.255-17.862a65.892,65.892,0,0,0-2.343,17.368,89.049,89.049,0,0,1-3.837-20.926,184.716,184.716,0,0,0,.155,20.39l-4.213-8.9L59.1,399.1c-.615-5.013-1.281-13.541-1.469-17.085q-2.252,6.439-4.5,12.864c-.518-3.911-1.035-7.837-1.553-11.748a45.956,45.956,0,0,0-1.611,11.8,91.938,91.938,0,0,0-4.789-19.867,89.245,89.245,0,0,1,1.055,22.3q-.777-5.952-1.56-11.918-1.475,5.719-2.944,11.423A51.591,51.591,0,0,1,41,384.133a45.419,45.419,0,0,0-3.235,11.155c-.492-4.18-.984-8.373-1.475-12.553a55.148,55.148,0,0,0-1.928,15.095,135.761,135.761,0,0,0-4.426-18.85q-.243,10.124-.479,20.248a59.7,59.7,0,0,1-2.737-12.412,54.054,54.054,0,0,0-2.731,13.555H23.8q-1.563-8.578-3.125-17.142a65.889,65.889,0,0,0-2.342,17.354h-.006a88.487,88.487,0,0,1-3.824-20.9,184.718,184.718,0,0,0,.155,20.389l-4.213-8.9.906,9.644-4.458.268V542.378H483.3V397.858a121.828,121.828,0,0,1-.116-17.791Z" transform="translate(-6.89 -373.05)" fill="#e0e8ef"/>
        <path id="Trazado_114681" data-name="Trazado 114681" d="M445.694,470.483s-.127-.353-.325-1.045c-.2-.734-.494-1.751-.861-3.092-.748-2.753-1.822-6.749-3.205-11.875l.3.071c-3.459,3.9-7.752,8.726-12.708,14.3l-.226.268-.169-.311a30.574,30.574,0,0,1-3.6-13.259l.466.212a29.135,29.135,0,0,0-9.616,15.9l-.254,1.172-.353-1.144a106,106,0,0,0-16.055-31.6l.635-.184a165.107,165.107,0,0,1-6.029,31.9l-.282.974-.4-.932c-.226-.522-.466-1.087-.706-1.652a61.96,61.96,0,0,1-4.377-17.17l.607.24A50.365,50.365,0,0,0,376.6,469.071l-.438.918-.226-1q-1.44-6.524-2.81-12.722l.635.085c-2.146,4-4.208,7.865-6.227,11.607l-.41.777-.2-.847q-2.732-12.073-5.069-22.451l.508.1a48,48,0,0,0-8.585,23.863l-.042.466-.325-.339c-4.264-4.377-7.724-7.921-10.491-10.745l.24-.127c.579,3.389,1.045,6.043,1.356,7.865.141.875.254,1.553.339,2.047.071.466.085.706.085.706a6.46,6.46,0,0,1-.155-.692c-.1-.48-.226-1.158-.409-2.033-.353-1.822-.847-4.462-1.5-7.837l-.085-.452.325.325c2.8,2.81,6.284,6.312,10.59,10.647l-.367.127a48.22,48.22,0,0,1,8.529-24.16l.367-.522.141.635c1.581,6.9,3.3,14.4,5.154,22.437l-.607-.085q3.008-5.634,6.2-11.621l.438-.819.2.9q1.377,6.206,2.824,12.722l-.664-.071a51,51,0,0,1,12.087-16.055l.522-.466.071.706a61.578,61.578,0,0,0,4.335,16.958c.24.565.48,1.115.706,1.624l-.692.042a166.813,166.813,0,0,0,6.015-31.742l.085-.932.551.748A105.91,105.91,0,0,1,415.688,471.5l-.607.028a29.793,29.793,0,0,1,9.87-16.2l.438-.367v.579a30.591,30.591,0,0,0,3.488,13.047l-.4-.042c5-5.535,9.319-10.336,12.807-14.2l.212-.24.085.311c1.313,5.14,2.344,9.164,3.05,11.917.339,1.342.593,2.386.777,3.121.169.706.24,1.073.24,1.073Z" transform="translate(-324.704 -345.914)" fill="#263238"/>
        <path id="Trazado_114682" data-name="Trazado 114682" d="M662.99,440s-.127-.353-.325-1.045c-.2-.734-.494-1.751-.861-3.092-.748-2.753-1.821-6.75-3.205-11.875l.3.071c-3.46,3.9-7.752,8.726-12.708,14.3l-.226.268-.169-.311a30.578,30.578,0,0,1-3.6-13.259l.466.212a29.133,29.133,0,0,0-9.616,15.9l-.254,1.172-.353-1.144a106,106,0,0,0-16.055-31.6l.635-.184a165.125,165.125,0,0,1-6.03,31.9l-.282.974-.4-.932c-.226-.522-.466-1.087-.706-1.652a61.959,61.959,0,0,1-4.377-17.17l.607.24A50.372,50.372,0,0,0,593.9,438.591l-.438.918-.226-1q-1.44-6.523-2.81-12.722l.636.085c-2.146,4-4.208,7.865-6.227,11.607l-.409.777-.2-.847q-2.732-12.073-5.069-22.451l.508.1a47.826,47.826,0,0,0-8.571,23.863l-.042.466-.325-.339c-4.264-4.377-7.724-7.921-10.491-10.745l.24-.127c.579,3.389,1.045,6.043,1.356,7.865.141.876.254,1.553.339,2.047.071.466.085.706.085.706a6.5,6.5,0,0,1-.155-.692c-.1-.48-.226-1.158-.409-2.033-.353-1.821-.847-4.462-1.5-7.837l-.085-.452.325.325c2.8,2.81,6.283,6.312,10.59,10.647l-.367.127a48.22,48.22,0,0,1,8.529-24.16l.367-.522.141.635c1.582,6.9,3.3,14.4,5.154,22.437l-.607-.085q3.008-5.634,6.2-11.621l.438-.819.2.9q1.377,6.206,2.824,12.722l-.663-.071a51,51,0,0,1,12.087-16.055l.523-.466.071.706a61.574,61.574,0,0,0,4.335,16.958c.24.565.48,1.116.706,1.624l-.692.042a166.828,166.828,0,0,0,6.015-31.742l.085-.932.551.748A105.907,105.907,0,0,1,633,441.019l-.607.028a29.7,29.7,0,0,1,9.87-16.182l.438-.367v.579a30.592,30.592,0,0,0,3.488,13.047l-.4-.042c5-5.535,9.319-10.336,12.807-14.2l.212-.24.085.311c1.313,5.14,2.344,9.164,3.05,11.917.339,1.342.593,2.386.777,3.121.169.706.24,1.073.24,1.073Z" transform="translate(-329.949 -358.473)" fill="#263238"/>
        <path id="Trazado_114683" data-name="Trazado 114683" d="M185.494,474.243s-.127-.353-.325-1.045c-.2-.734-.494-1.751-.861-3.092-.748-2.753-1.821-6.749-3.205-11.875l.3.071c-3.459,3.9-7.752,8.726-12.708,14.3l-.226.268-.169-.311a30.575,30.575,0,0,1-3.6-13.259l.466.212a29.135,29.135,0,0,0-9.616,15.9l-.254,1.172-.353-1.144a106,106,0,0,0-16.055-31.6l.635-.184a165.12,165.12,0,0,1-6.029,31.9l-.282.974-.4-.932c-.226-.522-.466-1.087-.706-1.652a61.96,61.96,0,0,1-4.377-17.17l.607.24A50.368,50.368,0,0,0,116.4,472.831l-.438.918-.226-1q-1.44-6.523-2.81-12.722l.635.085c-2.146,4-4.208,7.865-6.227,11.607l-.409.777-.2-.847q-2.732-12.073-5.083-22.451l.508.1a47.828,47.828,0,0,0-8.571,23.863l-.042.466-.325-.339c-4.264-4.377-7.724-7.921-10.491-10.745l.24-.127c.579,3.389,1.045,6.043,1.356,7.865.141.875.254,1.553.339,2.047.071.466.085.706.085.706a6.481,6.481,0,0,1-.155-.692c-.1-.48-.226-1.158-.409-2.033-.353-1.822-.847-4.462-1.5-7.837l-.085-.452.325.325c2.8,2.81,6.283,6.312,10.59,10.647l-.367.127a48.219,48.219,0,0,1,8.529-24.16l.367-.522.141.635c1.581,6.9,3.3,14.4,5.154,22.437l-.607-.085q3.008-5.634,6.2-11.621l.438-.819.2.9q1.377,6.206,2.824,12.722l-.664-.07a51,51,0,0,1,12.087-16.055l.522-.466.071.706a61.58,61.58,0,0,0,4.335,16.958c.24.565.48,1.116.706,1.624l-.692.042A166.822,166.822,0,0,0,138.77,443.6l.085-.932.551.748a105.911,105.911,0,0,1,16.083,31.841l-.607.028a29.792,29.792,0,0,1,9.87-16.2l.438-.367v.579a30.593,30.593,0,0,0,3.488,13.047l-.4-.042c5-5.535,9.319-10.336,12.807-14.2l.212-.24.085.311c1.313,5.14,2.344,9.164,3.05,11.917.339,1.341.593,2.386.777,3.121.169.706.24,1.073.24,1.073Z" transform="translate(221.387 -323.444)" fill="#263238"/>
      </g>
      <g id="Plants" transform="translate(457.785 492.512)">
        <g id="Grupo_81466" data-name="Grupo 81466" transform="translate(0 31.446)">
          <path id="Trazado_114684" data-name="Trazado 114684" d="M484.644,425.858a10.311,10.311,0,0,1,5.323,6.029,18.19,18.19,0,0,1,.706,8.176c-.607,5.309-3.615,10.661-6.862,14.9-4.462-3.9-5.493-10.7-5.8-14.191-.48-5.507,1.991-15.744,6.622-14.925" transform="translate(-464.533 -425.797)" fill="#455a64"/>
          <path id="Trazado_114685" data-name="Trazado 114685" d="M485.849,455.889a8.786,8.786,0,0,1,2.838-8.345,11.638,11.638,0,0,1,8.585-2.683,4.913,4.913,0,0,1,3.77,1.694,3.732,3.732,0,0,1,.057,3.8,7.552,7.552,0,0,1-2.81,2.768c-3.869,2.429-8.063,4.067-12.44,2.753" transform="translate(-461.361 -417.958)" fill="#455a64"/>
          <path id="Trazado_114686" data-name="Trazado 114686" d="M481.734,470.625s.028-.4.155-1.087c.141-.763.325-1.751.537-2.951a31.1,31.1,0,0,1,3.036-9.418A18.856,18.856,0,0,1,492.211,450a12.931,12.931,0,0,1,2.753-1.214,7.061,7.061,0,0,1,.791-.2c.184-.042.282-.056.282-.042a19.168,19.168,0,0,0-3.685,1.694,19.369,19.369,0,0,0-6.552,7.131,32.706,32.706,0,0,0-3.106,9.277c-.268,1.228-.494,2.231-.664,2.923a5.3,5.3,0,0,1-.311,1.059Z" transform="translate(-462.979 -416.428)" fill="#263238"/>
          <path id="Trazado_114687" data-name="Trazado 114687" d="M481.916,431.48s.028.169.057.48c.014.353.042.8.085,1.37.057,1.186.127,2.909.2,5.027.141,4.25.24,10.124.212,16.62s-.184,12.369-.367,16.619c-.085,2.132-.169,3.841-.24,5.027-.042.565-.071,1.017-.1,1.37a2.664,2.664,0,0,1-.057.48s-.014-.169-.014-.48c0-.353,0-.8.014-1.37.028-1.243.071-2.951.127-5.041.1-4.25.226-10.124.254-16.605s-.042-12.355-.1-16.605c-.028-2.09-.056-3.8-.085-5.041V431.96c0-.311,0-.48.028-.48Z" transform="translate(-462.991 -423.456)" fill="#263238"/>
          <path id="Trazado_114688" data-name="Trazado 114688" d="M485.2,459.543a20.505,20.505,0,0,0-11.212-15.038c-1.5-.72-3.445-1.186-4.674-.071s-.96,3.107-.353,4.66a17.527,17.527,0,0,0,16.125,10.887" transform="translate(-468.447 -418.393)" fill="#455a64"/>
          <path id="Trazado_114689" data-name="Trazado 114689" d="M472.89,447.864s.353.127.946.409c.3.141.664.325,1.073.565s.889.494,1.37.861a16.706,16.706,0,0,1,1.567,1.172c.551.438,1.1.96,1.666,1.511a22.479,22.479,0,0,1,3.149,4.053,22.182,22.182,0,0,1,2.076,4.7,17.432,17.432,0,0,1,.523,2.189,15.07,15.07,0,0,1,.268,1.934,13.186,13.186,0,0,1,.071,1.61,6.492,6.492,0,0,1-.042,1.214,4.769,4.769,0,0,1-.113,1.031c-.085,0,.071-1.483-.2-3.827a15.223,15.223,0,0,0-.311-1.906,20.871,20.871,0,0,0-.551-2.146,22.664,22.664,0,0,0-2.076-4.6,23.613,23.613,0,0,0-3.078-4.01c-.551-.551-1.073-1.073-1.61-1.511-.508-.466-1.045-.847-1.511-1.2-1.92-1.37-3.262-1.991-3.219-2.061Z" transform="translate(-466.617 -416.711)" fill="#263238"/>
          <g id="Grupo_81463" data-name="Grupo 81463" transform="translate(13.416)" opacity="0.3">
            <path id="Trazado_114690" data-name="Trazado 114690" d="M484.644,425.858a10.311,10.311,0,0,1,5.323,6.029,18.19,18.19,0,0,1,.706,8.176c-.607,5.309-3.615,10.661-6.862,14.9-4.462-3.9-5.493-10.7-5.8-14.191-.48-5.507,1.991-15.744,6.622-14.925" transform="translate(-477.948 -425.797)" fill="#b0c0d2"/>
          </g>
          <g id="Grupo_81464" data-name="Grupo 81464" transform="translate(24.285 26.864)" opacity="0.3">
            <path id="Trazado_114691" data-name="Trazado 114691" d="M485.849,455.889a8.786,8.786,0,0,1,2.838-8.345,11.638,11.638,0,0,1,8.585-2.683,4.913,4.913,0,0,1,3.77,1.694,3.732,3.732,0,0,1,.057,3.8,7.552,7.552,0,0,1-2.81,2.768c-3.869,2.429-8.063,4.067-12.44,2.753" transform="translate(-485.646 -444.823)" fill="#b0c0d2"/>
          </g>
          <g id="Grupo_81465" data-name="Grupo 81465" transform="translate(0 25.374)" opacity="0.3">
            <path id="Trazado_114692" data-name="Trazado 114692" d="M485.2,459.543a20.505,20.505,0,0,0-11.212-15.038c-1.5-.72-3.445-1.186-4.674-.071s-.96,3.107-.353,4.66a17.527,17.527,0,0,0,16.125,10.887" transform="translate(-468.447 -443.767)" fill="#b0c0d2"/>
          </g>
        </g>
        <g id="Grupo_81470" data-name="Grupo 81470" transform="translate(285.355 0)">
          <path id="Trazado_114693" data-name="Trazado 114693" d="M686.734,403.588a10.311,10.311,0,0,1,5.323,6.029,18.172,18.172,0,0,1,.706,8.176c-.607,5.309-3.615,10.661-6.862,14.9-4.462-3.9-5.493-10.7-5.8-14.191-.48-5.507,1.991-15.744,6.623-14.925" transform="translate(-666.623 -403.527)" fill="#455a64"/>
          <path id="Trazado_114694" data-name="Trazado 114694" d="M687.939,433.619a8.786,8.786,0,0,1,2.838-8.345,11.638,11.638,0,0,1,8.585-2.683,4.914,4.914,0,0,1,3.77,1.694,3.732,3.732,0,0,1,.056,3.8,7.551,7.551,0,0,1-2.81,2.768c-3.869,2.429-8.063,4.067-12.44,2.753" transform="translate(-663.451 -395.688)" fill="#455a64"/>
          <path id="Trazado_114695" data-name="Trazado 114695" d="M683.824,448.355s.028-.4.155-1.087c.141-.762.325-1.751.537-2.951a31.093,31.093,0,0,1,3.036-9.418,18.858,18.858,0,0,1,6.749-7.173,12.943,12.943,0,0,1,2.754-1.214,7.046,7.046,0,0,1,.791-.2c.184-.042.282-.057.282-.042a17.49,17.49,0,0,0-10.237,8.825,32.7,32.7,0,0,0-3.106,9.277c-.268,1.229-.494,2.231-.664,2.923a5.321,5.321,0,0,1-.311,1.059Z" transform="translate(-665.069 -394.158)" fill="#263238"/>
          <path id="Trazado_114696" data-name="Trazado 114696" d="M684.006,409.21s.028.169.056.48c.014.353.042.8.085,1.37.056,1.186.127,2.909.2,5.027.141,4.25.24,10.124.212,16.619s-.184,12.369-.367,16.619c-.085,2.132-.17,3.841-.24,5.027-.042.565-.07,1.017-.1,1.37a2.732,2.732,0,0,1-.056.48s-.014-.169-.014-.48c0-.353,0-.8.014-1.37.028-1.243.071-2.951.127-5.041.1-4.25.226-10.124.254-16.605s-.042-12.355-.1-16.605c-.028-2.09-.056-3.8-.085-5.041v-1.37c0-.311,0-.48.028-.48Z" transform="translate(-665.081 -401.186)" fill="#263238"/>
          <path id="Trazado_114697" data-name="Trazado 114697" d="M687.288,437.273a20.5,20.5,0,0,0-11.211-15.038c-1.5-.72-3.445-1.186-4.674-.071s-.96,3.106-.353,4.66a17.527,17.527,0,0,0,16.125,10.887" transform="translate(-670.537 -396.123)" fill="#455a64"/>
          <path id="Trazado_114698" data-name="Trazado 114698" d="M674.98,425.59s.353.127.946.409c.3.141.663.325,1.073.565s.89.494,1.37.861a16.75,16.75,0,0,1,1.567,1.172c.551.438,1.1.96,1.666,1.511a22.474,22.474,0,0,1,3.149,4.052,22.181,22.181,0,0,1,2.076,4.7,17.458,17.458,0,0,1,.522,2.189,15.049,15.049,0,0,1,.268,1.935,13.161,13.161,0,0,1,.07,1.61,6.487,6.487,0,0,1-.042,1.214,4.769,4.769,0,0,1-.113,1.031c-.085,0,.071-1.482-.2-3.827a15.217,15.217,0,0,0-.311-1.906,19.766,19.766,0,0,0-.551-2.132,22.654,22.654,0,0,0-2.075-4.6,23.614,23.614,0,0,0-3.078-4.01c-.551-.551-1.073-1.073-1.61-1.511-.508-.466-1.045-.847-1.511-1.2-1.92-1.37-3.262-1.991-3.219-2.062Z" transform="translate(-668.707 -394.437)" fill="#263238"/>
          <g id="Grupo_81467" data-name="Grupo 81467" transform="translate(13.416)" opacity="0.3">
            <path id="Trazado_114699" data-name="Trazado 114699" d="M686.734,403.588a10.311,10.311,0,0,1,5.323,6.029,18.172,18.172,0,0,1,.706,8.176c-.607,5.309-3.615,10.661-6.862,14.9-4.462-3.9-5.493-10.7-5.8-14.191-.48-5.507,1.991-15.744,6.623-14.925" transform="translate(-680.038 -403.527)"/>
          </g>
          <g id="Grupo_81468" data-name="Grupo 81468" transform="translate(24.285 26.864)" opacity="0.3">
            <path id="Trazado_114700" data-name="Trazado 114700" d="M687.939,433.619a8.786,8.786,0,0,1,2.838-8.345,11.638,11.638,0,0,1,8.585-2.683,4.914,4.914,0,0,1,3.77,1.694,3.732,3.732,0,0,1,.056,3.8,7.551,7.551,0,0,1-2.81,2.768c-3.869,2.429-8.063,4.067-12.44,2.753" transform="translate(-687.736 -422.553)"/>
          </g>
          <g id="Grupo_81469" data-name="Grupo 81469" transform="translate(0 25.374)" opacity="0.3">
            <path id="Trazado_114701" data-name="Trazado 114701" d="M687.288,437.273a20.5,20.5,0,0,0-11.211-15.038c-1.5-.72-3.445-1.186-4.674-.071s-.96,3.106-.353,4.66a17.527,17.527,0,0,0,16.125,10.887" transform="translate(-670.537 -421.497)"/>
          </g>
        </g>
      </g>
      <g id="Cow_2" data-name="Cow 2" transform="translate(380.204 196.806)">
        <g id="Grupo_81485" data-name="Grupo 81485">
          <g id="Grupo_81476" data-name="Grupo 81476" transform="translate(326.076 157.498)">
            <path id="Trazado_114711" data-name="Trazado 114711" d="M632.346,311.962c0,1.017,5.789,24.033,5.281,33.069s-1.44,22.154-2.174,26.588-9.927,28.805-12.652,32.9-18.921,19.09-18.921,19.09l27.1-1.186s-.847-8.006,9.206-9.206c0,0,6.312-19.09,9.037-29.144s17.551-47.9,19.6-51.313-1.017-7.328-3.756-19.6S652.453,297.644,651.592,298s-19.26,13.979-19.26,13.979Z" transform="translate(-603.739 -297.913)" fill="#e0e0e0"/>
            <path id="Trazado_114712" data-name="Trazado 114712" d="M603.78,423.684l.1-.1c.156-.155,16.224-15.038,18.907-19.076,2.753-4.123,11.932-28.523,12.652-32.872.692-4.264,1.61-16.775,2.174-26.588.4-6.947-2.909-22.027-4.5-29.285-.466-2.132-.776-3.544-.776-3.784v-.028h.028c.748-.565,18.427-13.654,19.274-13.993a.625.625,0,0,1,.184-.028,8.59,8.59,0,0,1,3.177,1.116c2.4,1.257,8.176,5.168,10.167,14.12,1.017,4.575,2.062,7.935,2.909,10.647,1.412,4.547,2.132,6.834.833,8.995-2.033,3.389-16.8,40.977-19.6,51.3-2.7,9.941-8.966,28.96-9.037,29.144v.028h-.042c-2.852.339-6.622,1.482-8.331,5.027a8.467,8.467,0,0,0-.833,4.123v.056h-.042Zm28.65-111.676c.014.3.325,1.68.776,3.742,1.6,7.258,4.9,22.352,4.5,29.3-.551,9.814-1.468,22.338-2.174,26.6-.72,4.363-9.912,28.777-12.666,32.914-2.584,3.883-17.453,17.735-18.822,19.006l26.913-1.186a8.555,8.555,0,0,1,.847-4.123c1.723-3.558,5.507-4.73,8.388-5.069.282-.876,6.382-19.359,9.023-29.116,2.8-10.322,17.58-47.938,19.613-51.313,1.271-2.118.565-4.391-.847-8.91-.847-2.711-1.892-6.072-2.909-10.647-1.977-8.91-7.738-12.793-10.124-14.05a8.407,8.407,0,0,0-3.135-1.1.483.483,0,0,0-.155.014c-.819.325-18.512,13.428-19.232,13.951Z" transform="translate(-603.78 -297.93)" fill="#263238"/>
            <g id="Grupo_81475" data-name="Grupo 81475" transform="translate(0.141 0.059)" opacity="0.3">
              <path id="Trazado_114713" data-name="Trazado 114713" d="M632.346,311.962c0,1.017,5.789,24.033,5.281,33.069s-1.44,22.154-2.174,26.588-9.927,28.805-12.652,32.9-18.921,19.09-18.921,19.09l27.1-1.186s-.847-8.006,9.206-9.206c0,0,6.312-19.09,9.037-29.144s17.551-47.9,19.6-51.313-1.017-7.328-3.756-19.6S652.453,297.644,651.592,298s-19.26,13.979-19.26,13.979Z" transform="translate(-603.88 -297.972)" fill="#727997"/>
            </g>
            <path id="Trazado_114714" data-name="Trazado 114714" d="M603.88,389.954l27.1-1.186s-.1-5.408,4.024-7.582l-20.347-1.525L603.88,389.954Z" transform="translate(-603.739 -264.256)" fill="#263238"/>
          </g>
          <g id="Grupo_81477" data-name="Grupo 81477" transform="translate(400.225 13.034)">
            <path id="Trazado_114715" data-name="Trazado 114715" d="M660.42,195.914a31.164,31.164,0,0,1,35.159,29.511c.607,13.654-9.051,26.871-6.439,40.285,3.53,18.13,15.8,29.073,20.3,51.736l-2.979,1.624a111.044,111.044,0,0,0-18.653-40.016c-13.937-18.469,4.024-38.04-3.29-52.3s-10.661-16.916-10.661-16.916L660.42,195.942Z" transform="translate(-660.42 -195.603)" fill="#fff"/>
            <path id="Trazado_114716" data-name="Trazado 114716" d="M660.42,195.931c.9.918,5.041,5.126,13.569,13.767h-.014a41.347,41.347,0,0,1,5.747,7.865c1.821,3.05,3.713,6.382,5.521,10.124,1.709,3.869,1.624,8.5.9,13.061-.706,4.6-2.005,9.305-2.81,14.3-.791,4.97-1.1,10.378.536,15.589a25.944,25.944,0,0,0,3.657,7.385c1.624,2.3,3.375,4.631,4.928,7.116A113.095,113.095,0,0,1,706.847,319l-.537-.254c.932-.508,1.949-1.073,2.965-1.624l-.184.4c-.24-1.087-.508-2.259-.777-3.431a84.055,84.055,0,0,0-4.787-13.937c-1.949-4.448-4.18-8.7-6.354-12.878a111.466,111.466,0,0,1-5.832-12.638,56.889,56.889,0,0,1-1.991-6.467,32.922,32.922,0,0,1-.664-3.276l-.226-1.652-.056-1.652a42.682,42.682,0,0,1,1.92-12.567c1.1-3.968,2.386-7.752,3.346-11.466a43.436,43.436,0,0,0,1.638-10.929,29.266,29.266,0,0,0-1.723-10A30.815,30.815,0,0,0,671.7,196.722a32.073,32.073,0,0,0-8.331-.932c-.974.028-1.695.071-2.174.113-.381.028-.593.042-.762.042,0,0,.226-.028.72-.1a19.608,19.608,0,0,1,2.217-.2,30.807,30.807,0,0,1,8.4.8,31.011,31.011,0,0,1,22.3,20.022,29.8,29.8,0,0,1,1.793,10.167,43.737,43.737,0,0,1-1.61,11.084c-.96,3.742-2.245,7.526-3.318,11.48a41.937,41.937,0,0,0-1.864,12.383l.071,1.61.226,1.6A28.749,28.749,0,0,0,690.03,268a53.721,53.721,0,0,0,1.977,6.4,108.722,108.722,0,0,0,5.817,12.553c2.174,4.18,4.434,8.444,6.382,12.92a86.457,86.457,0,0,1,4.829,14.064c.268,1.186.536,2.372.776,3.474l.056.254-.24.127c-1.016.565-2.033,1.115-2.979,1.624l-.423.24-.113-.48a106.571,106.571,0,0,0-5.916-17.763,108.267,108.267,0,0,0-8.345-15.871c-1.539-2.485-3.262-4.758-4.9-7.1a26.927,26.927,0,0,1-3.742-7.583c-1.666-5.352-1.327-10.873-.508-15.885.819-5.041,2.146-9.743,2.866-14.3.734-4.518.833-9.023-.8-12.779-1.751-3.671-3.629-7.06-5.422-10.1a42.563,42.563,0,0,0-5.592-7.823h-.014c-4.307-4.547-7.653-8.048-9.94-10.463-1.1-1.158-1.949-2.062-2.542-2.683-.565-.593-.833-.89-.833-.89Z" transform="translate(-660.42 -195.62)" fill="#263238"/>
          </g>
          <path id="Trazado_114717" data-name="Trazado 114717" d="M711.674,287.349c-3.205-5.366-9.517-9.206-15.575-8.387l1.6-.339c-5.676-.268-10.407,4.928-11.734,10.449s-.127,11.3.875,16.9a44.824,44.824,0,0,1,.946,10.957,2.039,2.039,0,0,0,3.629,1.44,21.053,21.053,0,0,0,1.906-2.824q.593,8.091,1.172,16.2a3.354,3.354,0,0,0,.523,1.892c.72.9,2.1.847,3.234.579,5.493-1.327,10-5.521,12.68-10.477s3.77-10.661,4.208-16.281c.536-6.877.085-14.148-3.445-20.079Z" transform="translate(-249.913 -148.391)" fill="#12263f"/>
          <path id="Trazado_114718" data-name="Trazado 114718" d="M490.31,323.973c.226,1.1,12.624,32.561,15.73,36.769s5.1,3.107,7.314,8.642,5.973,32.335,6.425,36.543-1.765,9.079-1.765,9.079l-9.672,12.143s18.314,1.144,22.3-.847,8.641-9.743,8.641-9.743-3.77-3.77-1.991-8.19,1.991-5.309,1.991-5.309-13.061-35.653-13.061-43.631,2.443-10.632.663-17.947-9.305-45.622-9.305-45.622-24.145,9.969-24.583,10.632-2.655,17.495-2.655,17.495Z" transform="translate(-312.162 -141.285)" fill="#e0e0e0"/>
          <g id="Grupo_81478" data-name="Grupo 81478" transform="translate(178.148 155.902)" opacity="0.3">
            <path id="Trazado_114719" data-name="Trazado 114719" d="M490.31,324.913c.226,1.1,12.624,32.561,15.73,36.769s5.1,3.106,7.314,8.642,5.973,32.335,6.425,36.543-1.765,9.079-1.765,9.079l-9.672,12.143s18.314,1.144,22.3-.847,8.641-9.743,8.641-9.743-3.77-3.77-1.991-8.19S539.279,404,539.279,404s-13.061-35.653-13.061-43.631,2.443-10.633.663-17.947-9.305-45.622-9.305-45.622-24.145,9.969-24.583,10.633-2.655,17.495-2.655,17.495Z" transform="translate(-490.31 -296.8)" fill="#727997"/>
          </g>
          <g id="Grupo_81479" data-name="Grupo 81479" transform="translate(314.053 115.067)">
            <path id="Trazado_114720" data-name="Trazado 114720" d="M595.264,313.6s29.737,47.232,80.2,7.4l-3.827-32.081L627.147,267.88,597.82,276.3,595.25,313.6Z" transform="translate(-595.25 -267.88)" fill="#ffa686"/>
            <path id="Trazado_114721" data-name="Trazado 114721" d="M616.159,309.79a93.441,93.441,0,0,0-3.05,12.242c-.381,2.132-.65,4.66.4,6.326,1.13,1.793,3.3,1.539,4.66.1s2.118-3.714,2.824-5.9c1-3.121,2.005-6.227,3.008-9.348l-7.837-3.417Z" transform="translate(-588.031 -250.612)" fill="#e28d6f"/>
            <path id="Trazado_114722" data-name="Trazado 114722" d="M610.056,305.344a93.134,93.134,0,0,0-7.978,9.771c-1.257,1.765-2.57,3.954-2.33,5.888.254,2.1,2.33,2.8,4.18,2.076s3.5-2.457,5.069-4.137l6.707-7.173-5.634-6.439Z" transform="translate(-593.408 -252.45)" fill="#e28d6f"/>
            <path id="Trazado_114723" data-name="Trazado 114723" d="M629.51,312.779a95.722,95.722,0,0,0,4.307,11.861c.875,1.991,2.076,4.222,3.869,5.027,1.948.861,3.6-.565,3.925-2.528s-.325-4.264-.96-6.467c-.9-3.149-1.822-6.284-2.725-9.432l-8.416,1.553Z" transform="translate(-581.134 -250.015)" fill="#e28d6f"/>
          </g>
          <g id="Grupo_81480" data-name="Grupo 81480" transform="translate(314.036 126.01)" opacity="0.3">
            <path id="Trazado_114724" data-name="Trazado 114724" d="M595.3,309.843s3.05.424,6.5-2.57,14.388-13.8,14.388-13.8,7.5-6.3,11.55-6.594,7.343-1.2,11.24,0,15.292,8.839,19.641,13.951,6.636,9.362,10.039,10.491,4.419-5.055,4.419-5.055l-12.214-21.039-19.048-7.95-8.994-1.652-11.4,1.355-9.743,4.194-6.3,5.7-5.549,5.7s-3.149,6.891-3.3,7.342-1.4,6.34-1.4,6.34l.141,3.572Z" transform="translate(-595.13 -275.63)"/>
          </g>
          <path id="Trazado_114725" data-name="Trazado 114725" d="M784.36,412.1c-2.9-15.264-2.589-35.032-5.493-46.822S765.3,337.528,763.688,318.1s1.288-61.451,1.288-61.451h0c1.262-8.825,3.141-22.635,3.141-25.854,0-4.8,0-30.358-13.655-35.173s-30.858-7.088-77.249-4.561c0,0-13.418.254-35.089-2.782s-71.835-1.017-85.962,0-42.4,8.091-57,13.414-46.155,21-54.172,36.938-7.53,24.8-15.31,39.48-36.036,65.786-39.1,68.328-4.481,4.8-5.178,4.561-3.746-5.2-13.418-1.13a12.376,12.376,0,0,0-3.785,3.417,24.785,24.785,0,0,0-3.522,11.381c0,.339-.013.678,0,1.017.158,5.916,3.562,11.2,4.008,16.7.473,5.818,0,10.378,1.419,15.687s3.3,4.052,3.3,7.851,1.183,40.991,0,45.3-2.484,10.887.526,12.4c2.379,1.2,9.778,2.076,12.787,2.4a2.47,2.47,0,0,0,2.155-.9l8.319-9.856v9.5a.857.857,0,0,0,1.183.847c3.088-1.426,11.2-5.549,11.762-9.856.71-5.309,1.183-7.342,1.183-7.342s14.128-23.538,16.02-29.356,3.772-10.632,6.124-16.45,3.772-12.652,8.95-20.248S458.2,371.473,458.2,371.473l8.95-2.019a21.154,21.154,0,0,0,14.364,4.561c8.713-.508,21.908,1.765,24.97.254l3.246-1.624h.026c1.2,12.2,1,24.979,2.09,33.719,1.314,10.505,2.628,14.134,2.628,14.134s-2.707,33.239-4.968,34.962a49.1,49.1,0,0,0-15.586,21.463l23.748-.48s3.312-8.656,5.52-10.435l3.759-2.287s.683-27.28,1.446-34.75-.565-12.327,3.391-19.8a44.058,44.058,0,0,0,4.7-13.739l3.588-43.151c6.137-4.038,12.34-7.738,16.362-9.178,10.593-3.8,32.974,8.091,49.454,9.108s27.086,2.782,30.148,4.052,4.7,2.527,7.531,1.271,4.468-2.528,6.6-3.29,17.426-7.6,17.426-7.6,9.423-19.994,18.373-24.8a156.854,156.854,0,0,1,14.4-6.721c6.584,2.866,14.062,6.34,17.505,9.376,6.453,5.69,18.084,14.36,21.3,25.459s5.809,17,11.946,28.438,15.337,28.791,17.032,44.055,0,45.439,0,45.439l-9.607,12.482,21.947,1.384s6.085-5.38,5.441-10.237-1.472-7.794.42-11.607,3.824-2.175,3.824-2.175-2.9-30.429-5.809-45.693Z" transform="translate(-350.378 -186.272)" fill="#fff"/>
          <path id="Trazado_114726" data-name="Trazado 114726" d="M465.258,344.741c0,.071-.141.028-.212.057-1.172.353-11.593,3.685-16.845,10.844-5.563,7.6-7.088,14.417-9.616,20.248s-4.561,10.633-6.58,16.45c-1.878,5.38-15.01,25.925-16.958,28.975a2.558,2.558,0,0,0-.353.833c-.184.861-.607,2.979-1.158,6.877-.65,4.518-10.237,8.839-13.118,10.054a.586.586,0,0,1-.8-.537v-9.136a.341.341,0,0,0-.593-.226l-8.387,9.249a2.6,2.6,0,0,1-2.2.847c-3.191-.311-11.24-1.2-13.81-2.415-3.233-1.525-1.821-8.091-.565-12.4s0-41.5,0-45.3-2.019-2.528-3.544-7.851-1.017-9.87-1.525-15.687c-.48-5.507-4.137-10.788-4.307-16.7v-1.017a23.5,23.5,0,0,1,3.784-11.381,12.658,12.658,0,0,1,4.067-3.417c10.392-4.067,13.682.89,14.417,1.13.762.254,2.273-2.019,5.563-4.561s33.648-53.643,42.007-68.328c0,0,5.662,19.627,3.445,38.83s-7.385,25.106,2.951,32.491S466.67,333.5,465.23,344.7Z" transform="translate(-350.376 -159.624)" fill="#12263f"/>
          <path id="Trazado_114727" data-name="Trazado 114727" d="M432.688,325.374c-1.624-.155-14.219,2.4-18.625,13.993s-1.4,28.014-5.408,33.408-7.215,16.662-7.215,16.662c5.464-9.093,13.569-22.479,15.574-27.887s4.363-9.446,7.413-18.512c0,0,2.4-8.585,4.886-11.833a22.682,22.682,0,0,0,3.361-5.846Z" transform="translate(-335.231 -129.13)" fill="#fff"/>
          <path id="Trazado_114728" data-name="Trazado 114728" d="M384.568,365.861a11.764,11.764,0,0,0,4.547-11.607,17.573,17.573,0,0,1-.3-2.273c-.184-3.078.763-6.411,3.219-8.246a4.885,4.885,0,0,0,1.384-1.243c.621-1.087-.071-2.415-.763-3.445-2.655-3.968-5.817-7.879-10.195-9.771s-10.251-1.1-12.863,2.895l-1.44,2.542a29.329,29.329,0,0,0,.918,4.942c1.525,5.309,3.544,4.052,3.544,7.851,0,2.076.254,6.3.381,17.523l4.321,1.991s6.9-.875,7.215-1.116h0Z" transform="translate(-348.942 -127.921)" fill="#fff"/>
          <path id="Trazado_114729" data-name="Trazado 114729" d="M374.732,346.7c-.127.042-.607-.96-.621-2.725a9.936,9.936,0,0,1,8.161-9.8c1.737-.3,2.81,0,2.8.127" transform="translate(-346.491 -125.55)" fill="#263238"/>
          <path id="Trazado_114730" data-name="Trazado 114730" d="M381.018,335.053c1.341,1.017,2.386,4.744,1.483,6.721a3.325,3.325,0,0,1-3.53,1.483,6.222,6.222,0,0,1-3.841-2.132,9,9,0,0,1,2.612-4.744c2.217-2.048,3.276-1.313,3.276-1.313Z" transform="translate(-346.071 -125.184)" fill="#263238"/>
          <path id="Trazado_114731" data-name="Trazado 114731" d="M494.456,384.534H469.689s-6.17,5.436-6.679,10.9l25.515-.48,5.931-10.435Z" transform="translate(-320.278 -104.756)" fill="#263238"/>
          <path id="Trazado_114732" data-name="Trazado 114732" d="M376.672,383.829a2.625,2.625,0,0,1-2.683-.988,3.706,3.706,0,0,1-.621-2.881,6.179,6.179,0,0,1,1.313-2.7c.466-.593,1.186-1.172,1.892-.9a1.794,1.794,0,0,1,.9,1.087,7.267,7.267,0,0,1-.607,6.509" transform="translate(-346.822 -108.146)" fill="#455a64"/>
          <path id="Trazado_114733" data-name="Trazado 114733" d="M512.736,381.51l19.486-1.13,1.765,2.683s-5.21,9.46-9.136,10.463-21.8.127-21.8.127l9.672-12.143Z" transform="translate(-307.611 -106.461)" fill="#263238"/>
          <path id="Trazado_114734" data-name="Trazado 114734" d="M664.492,398.352l10.322-12.482,18.709.734s2.1,5.083.664,7.526-6.1,5.62-6.1,5.62l-24.047-1.186" transform="translate(-258.703 -104.199)" fill="#263238"/>
          <path id="Trazado_114735" data-name="Trazado 114735" d="M462.171,298.774c.184,0,.268,1.949.96,4.984a34.924,34.924,0,0,0,12.863,20.022c2.485,1.892,4.222,2.782,4.137,2.951-.042.1-1.92-.565-4.575-2.344A31.553,31.553,0,0,1,462.411,303.9c-.508-3.149-.339-5.14-.226-5.14Z" transform="translate(-320.289 -140.09)" fill="#263238"/>
          <path id="Trazado_114736" data-name="Trazado 114736" d="M608.017,244.43c.184,0,.1,2.866.537,7.455a72.579,72.579,0,0,0,11.875,33.493c2.556,3.827,4.42,6,4.278,6.128a7.378,7.378,0,0,1-1.44-1.412,47.447,47.447,0,0,1-3.445-4.293,65.47,65.47,0,0,1-8.4-16.083,64.481,64.481,0,0,1-3.6-17.777,44.941,44.941,0,0,1-.028-5.507,7.982,7.982,0,0,1,.226-2.005Z" transform="translate(-273.82 -162.475)" fill="#263238"/>
          <path id="Trazado_114737" data-name="Trazado 114737" d="M548.618,237.5c1.454-9.489-3.982-18.512-9.206-26.56-1.864-2.881-3.742-5.775-5.606-8.656a20.221,20.221,0,0,0-4.222-5.168c-3.248-2.542-7.639-2.866-11.762-3.092-3.982-.226-8.2-.4-11.734,1.483s-5.874,6.58-3.8,10c1.963,3.219,6.679,3.8,8.74,6.947,2.7,4.123-.692,9.4-1.2,14.3s1.991,9.517,3.417,14.233,1.384,10.731-2.7,13.5c-3.714-1.821-3.94-6.876-4.589-10.971-.706-4.49-2.528-8.712-4.335-12.892a17.842,17.842,0,0,0-3.389-5.719c-1.581-1.567-4.01-2.5-6.086-1.694s-3.191,2.965-4.434,4.8-3.276,3.629-5.422,3.064c-2.4-.635-3.135-3.827-2.485-6.227s2.189-4.518,2.655-6.961c1.059-5.606-4.518-14.2-6.9-19.387l-27.2,14.586c-.2,13.061-5.578,29.822-9.63,42.248-4.278,7.258-3.276,35.427.918,42.728s9.743,14.219,10.957,22.55a43.674,43.674,0,0,0,.918,6.213,6.6,6.6,0,0,0,3.911,4.6,3.867,3.867,0,0,0,4.49-1.779c-1.13,4.166-2.09,8.585-.635,12.623,1.553,4.335,7.187,7.441,10.929,4.759,5.719-4.095.268-14.431,4.886-19.726,1.892-2.16,4.97-2.824,7.272-4.518,6.467-4.773,5.7-16.506,13.16-19.514,1.878-.762,3.982-.777,5.888-1.454,3.389-1.228,5.662-4.349,8.472-6.594s7.328-3.459,9.785-.819c1.567,1.68,1.61,4.293,1,6.509s-1.765,4.25-2.33,6.481c-1.229,4.73.282,9.686,1.765,14.332,2.711,8.486,8.867,11.409,11.579,19.881l12.609-6.947c3.53-10.745,4.547-11.621,2.711-22.776-1.172-7.2-4.533-13.809-7.229-20.587-3.629-9.093-6.142-19.3-3.107-28.622,2.895-8.882,10.52-15.942,11.946-25.176Z" transform="translate(-330.478 -183.3)" fill="#12263f"/>
          <path id="Trazado_114738" data-name="Trazado 114738" d="M690.578,215.861c-1.158-2.993-4.9-4.165-6.523-6.919-3.431-5.818,2.909-13-1.214-18.356-14.2-.932-32.815-.522-52.852.325-4.829,7.907-2.415,15.024-1.059,18.624s1.553,8.4-1.652,10.534c-2.57,1.709-6.213.72-8.43-1.412s-3.375-5.111-4.49-7.992c-1.821-4.716-3.728-9.489-6.792-13.513s-7.455-7.286-12.468-7.907a175.682,175.682,0,0,0-37.277-2.2c-7.3,2.753-12.991,15.292-13.739,23.058s.4,15.744-1.37,23.341c-1.384,5.973-4.547,11.677-4.236,17.791.452,9.079,8.444,17.156,6.665,26.052-1.059,5.281-5.394,9.4-6.651,14.643-1.059,4.349.141,8.9,1.327,13.216,1.807,6.566,4.773,14.261,11.451,15.56,6.947,1.355,12.835-5.408,15.306-12.044s3.4-14.177,8.218-19.373c4.01-4.335,10.463-6.693,12.468-12.256,1.6-4.434-.3-9.348-2.612-13.457s-5.154-8.176-5.563-12.878,2.88-10.138,7.6-9.9c3.643.184,6.326,3.6,7.512,7.032s1.454,7.187,2.937,10.52c2.3,5.111,7.5,9.305,7.159,14.9-.325,5.267-5.422,8.783-10.054,11.324s-9.856,5.634-10.774,10.83c-1.1,6.185,4.618,11.466,10.251,14.247s12.186,4.787,15.673,10.025c1.582,2.372,2.358,5.2,3.827,7.639s4.052,4.6,6.876,4.222c4.264-.579,5.719-6.2,4.815-10.392s-3.149-8.331-2.386-12.553c.649-3.643,3.36-6.481,5.535-9.475s3.883-6.961,2.287-10.294c-1.821-3.812-7.568-6.043-6.721-10.181.776-3.855,6.622-4.391,8.288-7.95,2.16-4.617-4.25-9.22-3.784-14.3.423-4.589,5.86-6.636,10.35-7.667,3.714-.847,8.105-1.539,10.915,1.045,2.894,2.655,2.852,7.837,6.283,9.729,3.346,1.85,7.554-.932,9.376-4.307s2.33-7.371,4.406-10.59c2.1-3.276,5.563-5.394,8.133-8.317s4.123-7.526,1.737-10.59c2.866-.4,5.846-.819,8.26-2.429s4.067-4.744,3.022-7.441Z" transform="translate(-302.773 -186.193)" fill="#12263f"/>
          <path id="Trazado_114739" data-name="Trazado 114739" d="M784.485,412.214s.828,3.9,1.906,11.579c1.1,7.667,2.51,19.1,4.009,34.1l.026.254-.2-.155a1.669,1.669,0,0,0-1.341-.282,2.466,2.466,0,0,0-1.249.791,9.007,9.007,0,0,0-1.591,2.838,13.907,13.907,0,0,0-.368,6.961c.158,1.214.381,2.429.5,3.714a8.038,8.038,0,0,1-.776,3.784,20.374,20.374,0,0,1-4.718,6.255l-.039.042h-.053c-6.808-.424-14.155-.89-21.949-1.37h-.3l.2-.268c2.931-3.826,6.2-8.091,9.595-12.5l-.039.1q.453-8.832.644-18.328c.118-6.326.158-12.878-.145-19.613a89.879,89.879,0,0,0-.92-10.195,76.845,76.845,0,0,0-2.523-10.195,142.354,142.354,0,0,0-8.4-20.079c-3.273-6.679-7.11-13.259-10.514-20.319a104.874,104.874,0,0,1-4.587-11.028q-1.006-2.859-1.893-5.8a37.453,37.453,0,0,0-2.011-5.761,39.768,39.768,0,0,0-6.953-10,100.32,100.32,0,0,0-8.99-8.458c-5.928-6.043-13.7-9.305-21.437-12.75h.184c-3.3,1.355-6.65,2.838-10,4.476-1.656.833-3.391,1.638-4.994,2.626a22.326,22.326,0,0,0-4.4,3.7,64.358,64.358,0,0,0-7.2,9.672,120.354,120.354,0,0,0-6.033,10.915l-.052.1-.092.042q-7.058,3.071-14.313,6.241c-1.209.508-2.418,1.087-3.628,1.553a36.636,36.636,0,0,0-3.536,1.822,19.255,19.255,0,0,1-3.719,1.68,6.158,6.158,0,0,1-4.048-.565,33.422,33.422,0,0,0-3.733-1.511c-1.275-.367-2.6-.65-3.93-.9-2.655-.494-5.349-.875-8.057-1.214-5.415-.664-10.922-1.13-16.495-1.469-11.251-.8-22.067-5.14-33.292-8.02a60.6,60.6,0,0,0-8.543-1.652,18.3,18.3,0,0,0-8.556.777,62.794,62.794,0,0,0-7.952,4.081c-2.589,1.525-5.152,3.163-7.7,4.829l.144-.254q-1.1,13.428-2.26,27.238c-.381,4.6-.762,9.22-1.157,13.88a28.961,28.961,0,0,1-1.262,6.933,48.709,48.709,0,0,1-2.471,6.594,57.634,57.634,0,0,0-2.878,6.34,26.342,26.342,0,0,0-1.222,6.9c-.131,2.372-.118,4.773-.276,7.173-.21,2.414-.407,4.773-.526,7.187-.5,9.616-.775,19.345-1.051,29.158v.2l-.158.1c-1.157.706-2.458,1.5-3.759,2.288l.039-.028a17.022,17.022,0,0,0-2.983,4.688c-.867,1.793-1.682,3.685-2.432,5.592l-.079.212h-.21c-7.36.155-15.522.311-23.75.48h-.486l.171-.466a50.151,50.151,0,0,1,7.229-13.089,45.1,45.1,0,0,1,5.06-5.62l1.393-1.285,1.472-1.2.368-.3.184-.155a.531.531,0,0,1,.092-.113,3.421,3.421,0,0,0,.355-.777,16.494,16.494,0,0,0,.513-1.85c1.091-5.111,1.682-10.449,2.3-15.786q.887-8.027,1.564-16.168l.026.155a79.646,79.646,0,0,1-2.261-11.268,116.3,116.3,0,0,1-1.091-11.593c-.407-7.794-.552-15.7-1.262-23.637l-.066-.748-.039-.367v-.184l-.026-.1v-.071a.339.339,0,0,0,.328.311c.25-.056.079-.028.118-.028H509.9l-.039.028-.079.042-.158.085-.315.155-.631.311-1.262.635a7.744,7.744,0,0,1-1.354.579,22.763,22.763,0,0,1-5.691.3c-3.759-.155-7.5-.494-11.277-.678-1.879-.085-3.772-.155-5.651-.127a33.845,33.845,0,0,1-5.73-.085A21.467,21.467,0,0,1,467,369.812l.289.071c-2.8.635-5.875,1.327-8.951,2.019h.026a38.3,38.3,0,0,0-9.266,4.617,27.337,27.337,0,0,0-4.074,3.389,25,25,0,0,0-3.286,4.293,53.109,53.109,0,0,0-4.81,10.054c-1.288,3.53-2.445,7.215-3.943,10.717-1.419,3.544-2.8,7.117-4.061,10.745-.657,1.807-1.157,3.671-1.971,5.479-.789,1.779-1.682,3.488-2.563,5.2-3.614,6.82-7.5,13.5-11.448,20.164-.421.706-.854,1.426-1.249,2.1l.039-.113c-.3,1.426-.539,2.909-.762,4.377l-.315,2.2a6.769,6.769,0,0,1-.591,2.259,11.017,11.017,0,0,1-2.865,3.389,27.414,27.414,0,0,1-3.483,2.471c-1.2.734-2.431,1.412-3.667,2.033l-.933.452-.473.226a1.307,1.307,0,0,1-.67.127,1.241,1.241,0,0,1-1.012-.96,4.11,4.11,0,0,1-.039-.635v-9.206l.591.24c-2.9,3.417-5.678,6.792-8.674,10.209a2.833,2.833,0,0,1-1.669.664c-.631,0-1.091-.1-1.643-.141l-3.181-.4a57.228,57.228,0,0,1-6.322-1.158,6.055,6.055,0,0,1-3.049-1.44,5.534,5.534,0,0,1-1.143-3.375,24.777,24.777,0,0,1,.815-6.848l.421-1.652a11.412,11.412,0,0,0,.263-1.61c.105-1.116.158-2.245.2-3.375.079-2.259.092-4.519.105-6.778,0-9.037-.184-18.046-.381-27-.039-2.245-.092-4.49-.131-6.721a4.135,4.135,0,0,0-.881-2.881,10.488,10.488,0,0,1-1.748-2.866c-1.63-4.264-1.722-8.853-1.853-13.259a43.14,43.14,0,0,0-.539-6.552,53.263,53.263,0,0,0-1.866-6.269,35.137,35.137,0,0,1-1.669-6.439,19.4,19.4,0,0,1,.3-6.693,25.549,25.549,0,0,1,2.234-6.213c.25-.494.5-.96.762-1.44a7.243,7.243,0,0,1,1.025-1.327,12.109,12.109,0,0,1,2.445-2.118,19.791,19.791,0,0,1,5.967-1.822,9.81,9.81,0,0,1,6.112,1,8.731,8.731,0,0,1,1.327.918c.394.3.881.875.933.692a5.109,5.109,0,0,0,1.078-.932l1.091-1.13c.736-.748,1.5-1.483,2.3-2.16a8.608,8.608,0,0,0,1.012-1.1c.3-.4.591-.861.894-1.285,2.313-3.5,4.469-7.159,6.6-10.788,4.258-7.272,8.385-14.586,12.473-21.858s8.1-14.544,12.052-21.773c3.864-7.286,8.136-14.29,10.922-22,1.419-3.841,2.576-7.766,3.785-11.663s2.55-7.766,4.14-11.494c.8-1.864,1.643-3.7,2.537-5.493a32.446,32.446,0,0,1,3.22-5.083,50.763,50.763,0,0,1,3.89-4.462c1.433-1.313,2.813-2.725,4.324-3.911A122.9,122.9,0,0,1,474.9,212.739a182.115,182.115,0,0,1,20.043-9.729,188.811,188.811,0,0,1,20.687-6.792q10.39-2.859,20.727-5.083a156.282,156.282,0,0,1,20.674-3.219c6.887-.452,13.708-.734,20.464-.974,13.511-.452,26.773-.692,39.758-.466,6.493.113,12.907.353,19.242.9,3.167.268,6.309.706,9.411,1.115s6.2.762,9.292,1.059c6.164.621,12.276,1.045,18.308,1.2,3.023.127,6.007-.085,8.99-.226l8.9-.381c11.776-.438,23.277-.593,34.422.042a135.592,135.592,0,0,1,16.4,1.892c2.668.494,5.31,1.116,7.886,1.864,1.288.367,2.563.777,3.825,1.214a13.853,13.853,0,0,1,3.641,1.737,15.139,15.139,0,0,1,3.049,2.711,19.884,19.884,0,0,1,2.353,3.361,34.145,34.145,0,0,1,3.062,7.6,70.406,70.406,0,0,1,2.274,15.885c.381,5.281-.486,10.449-1.065,15.447-.644,5.013-1.327,9.926-2.011,14.741h0c-.828,12.5-1.393,24.386-1.656,35.583-.131,5.606-.2,11.028-.092,16.281a101.837,101.837,0,0,0,1.157,15.137c1.656,9.644,5.126,18.017,8.333,25.572,1.6,3.784,3.194,7.385,4.469,10.915a49.4,49.4,0,0,1,2.6,10.406c1,6.721,1.354,12.722,1.774,17.89.394,5.168.749,9.531,1.117,13.033s.749,6.142,1.025,7.921c.3,1.765.434,2.669.434,2.669s-.171-.89-.486-2.655c-.289-1.765-.7-4.406-1.065-7.921-.394-3.5-.762-7.865-1.17-13.033-.434-5.168-.8-11.169-1.814-17.876a49.786,49.786,0,0,0-2.616-10.35c-1.288-3.516-2.878-7.117-4.495-10.9-3.22-7.554-6.716-15.942-8.4-25.628a101.056,101.056,0,0,1-1.183-15.193c-.118-5.253-.052-10.689.066-16.295q.395-16.817,1.617-35.625h0v-.014q1.025-7.223,2-14.741c.578-5.027,1.433-10.11,1.052-15.377a69.961,69.961,0,0,0-2.274-15.772,32.636,32.636,0,0,0-3.023-7.484,19.223,19.223,0,0,0-2.3-3.29,13.9,13.9,0,0,0-2.957-2.64,13.183,13.183,0,0,0-3.549-1.68c-1.249-.438-2.524-.833-3.812-1.2a79.825,79.825,0,0,0-7.846-1.85,131.673,131.673,0,0,0-16.35-1.878c-11.119-.635-22.606-.466-34.383-.014q-4.416.191-8.885.4c-2.97.155-5.993.367-9.029.226-6.059-.155-12.171-.579-18.348-1.186-3.089-.3-6.191-.664-9.305-1.059-3.115-.424-6.243-.847-9.4-1.116-6.308-.551-12.722-.777-19.2-.89-12.959-.212-26.221.028-39.732.48-6.755.24-13.577.537-20.451.988a153.18,153.18,0,0,0-20.6,3.219q-10.311,2.2-20.687,5.083a188.817,188.817,0,0,0-20.622,6.778,182.1,182.1,0,0,0-19.978,9.7,124.181,124.181,0,0,0-18.821,12.708c-1.511,1.186-2.865,2.57-4.285,3.883a47.242,47.242,0,0,0-3.838,4.391,44.981,44.981,0,0,0-5.665,10.435c-1.577,3.7-2.892,7.54-4.114,11.437s-2.366,7.837-3.8,11.706a87.979,87.979,0,0,1-5.1,11.24c-1.945,3.6-3.9,7.229-5.862,10.858q-5.934,10.866-12.052,21.773-6.112,10.929-12.473,21.872c-2.142,3.643-4.285,7.286-6.624,10.83-.3.438-.578.89-.92,1.313a8.429,8.429,0,0,1-1.1,1.2q-1.163,1-2.248,2.118l-1.091,1.13a5.214,5.214,0,0,1-1.288,1.073.888.888,0,0,1-.276.071c-.105,0-.263,0-.329-.071a2.513,2.513,0,0,1-.394-.283l-.578-.508a8.023,8.023,0,0,0-1.222-.847,9.108,9.108,0,0,0-5.73-.932,19.26,19.26,0,0,0-5.717,1.723,12.046,12.046,0,0,0-2.3,2.005,6.887,6.887,0,0,0-.933,1.186c-.263.466-.513.932-.749,1.412A24.474,24.474,0,0,0,365.492,361a18.856,18.856,0,0,0-.289,6.425,35.383,35.383,0,0,0,1.63,6.3,55.761,55.761,0,0,1,1.893,6.354,44.174,44.174,0,0,1,.552,6.679c.118,4.42.237,8.938,1.787,12.991a9.914,9.914,0,0,0,1.656,2.7,4.494,4.494,0,0,1,.828,1.567,7.426,7.426,0,0,1,.2,1.765c.039,2.231.092,4.462.131,6.707.2,8.966.394,17.975.394,27.026,0,2.259-.026,4.533-.105,6.806-.039,1.13-.092,2.273-.2,3.417a15.4,15.4,0,0,1-.289,1.737l-.407,1.638a24.689,24.689,0,0,0-.8,6.622,4.892,4.892,0,0,0,.946,2.923,5.562,5.562,0,0,0,2.721,1.228,57.411,57.411,0,0,0,6.243,1.144l3.167.4c.513.042,1.1.155,1.538.141a2.056,2.056,0,0,0,1.275-.508c2.826-3.248,5.73-6.749,8.6-10.124l.591-.706v10.152a4.014,4.014,0,0,0,.013.452.536.536,0,0,0,.434.409.559.559,0,0,0,.315-.071l.46-.212.92-.452c1.222-.621,2.445-1.271,3.614-2.005a26.512,26.512,0,0,0,3.391-2.415,10.289,10.289,0,0,0,2.681-3.149,5.727,5.727,0,0,0,.526-2.019l.315-2.217c.223-1.483.46-2.951.775-4.448v-.056l.039-.057c.407-.678.828-1.384,1.249-2.1,3.93-6.665,7.82-13.344,11.421-20.135.881-1.708,1.774-3.4,2.537-5.154.789-1.709,1.288-3.6,1.945-5.422,1.262-3.657,2.655-7.229,4.074-10.788,1.5-3.516,2.642-7.117,3.943-10.7a54.074,54.074,0,0,1,4.876-10.181,25.024,25.024,0,0,1,3.378-4.42,29.477,29.477,0,0,1,4.18-3.474,38.782,38.782,0,0,1,9.437-4.716h.013c3.076-.692,6.151-1.4,8.951-2.019l.145-.028.132.113a20.83,20.83,0,0,0,10.344,4.335,32.628,32.628,0,0,0,5.638.071c1.906-.028,3.8.042,5.691.127,3.785.184,7.531.522,11.264.678a22.14,22.14,0,0,0,5.494-.268,6.509,6.509,0,0,0,1.235-.537l1.262-.636.631-.311.315-.155.158-.085.079-.042h.039l.026-.028c.053,0-.092,0,.158-.042a.379.379,0,0,1,.355.339v.169l.026.184.039.367.066.748c.71,7.964.867,15.885,1.262,23.665a114.539,114.539,0,0,0,1.091,11.522,79.848,79.848,0,0,0,2.221,11.113l.026.085v.071c-.46,5.436-.973,10.83-1.577,16.182s-1.209,10.675-2.313,15.871a20.02,20.02,0,0,1-.539,1.934,4.35,4.35,0,0,1-.46.974,1.967,1.967,0,0,1-.394.4l-.368.3-1.446,1.186-1.38,1.257a44.872,44.872,0,0,0-4.981,5.549,49.637,49.637,0,0,0-7.124,12.863l-.315-.466c8.228-.169,16.39-.325,23.75-.466l-.289.212c.762-1.949,1.577-3.841,2.458-5.648.434-.9.907-1.779,1.406-2.626a9.683,9.683,0,0,1,1.761-2.3h0l.026-.028c1.3-.791,2.6-1.6,3.759-2.287l-.158.3c.276-9.814.552-19.542,1.051-29.186.118-2.4.329-4.829.526-7.2.171-2.372.158-4.773.289-7.173a27.5,27.5,0,0,1,1.249-7.088,56.779,56.779,0,0,1,2.9-6.411,46.232,46.232,0,0,0,2.431-6.5,28.56,28.56,0,0,0,1.249-6.806c.381-4.646.776-9.277,1.157-13.866q1.144-13.788,2.274-27.224v-.17l.145-.085c2.55-1.68,5.126-3.3,7.728-4.843A63.272,63.272,0,0,1,555.582,343a18.774,18.774,0,0,1,8.819-.8,61.337,61.337,0,0,1,8.622,1.666c11.264,2.895,22.054,7.215,33.187,8.02,5.573.353,11.08.819,16.521,1.483,2.721.339,5.415.72,8.083,1.228,1.327.254,2.668.536,3.969.918a33.618,33.618,0,0,1,3.785,1.525,5.707,5.707,0,0,0,3.733.537,18.589,18.589,0,0,0,3.588-1.624,34.924,34.924,0,0,1,3.588-1.836c1.249-.494,2.431-1.045,3.654-1.567q7.235-3.156,14.287-6.213l-.131.141a119.724,119.724,0,0,1,6.072-10.971,66.129,66.129,0,0,1,7.281-9.757,22.8,22.8,0,0,1,4.521-3.784c1.656-1.017,3.352-1.807,5.034-2.655,3.365-1.638,6.716-3.121,10.028-4.476l.092-.042.092.042c3.89,1.708,7.741,3.431,11.434,5.422a41,41,0,0,1,5.336,3.347c1.643,1.355,3.181,2.725,4.771,4.067a102.96,102.96,0,0,1,9.029,8.514A40.063,40.063,0,0,1,738.01,346.3a39.662,39.662,0,0,1,2.037,5.832c.591,1.948,1.209,3.883,1.879,5.775a105.076,105.076,0,0,0,4.561,10.971c3.391,7.046,7.229,13.626,10.5,20.333a144.289,144.289,0,0,1,8.412,20.164,75.711,75.711,0,0,1,2.536,10.251,91.5,91.5,0,0,1,.92,10.251c.289,6.749.237,13.3.118,19.641s-.368,12.44-.67,18.342v.057l-.039.042c-3.391,4.406-6.664,8.656-9.608,12.482l-.105-.268c7.807.494,15.141.974,21.949,1.412l-.092.028a20.255,20.255,0,0,0,4.653-6.142,7.731,7.731,0,0,0,.762-3.643c-.105-1.243-.342-2.471-.487-3.685a13.991,13.991,0,0,1,.394-7.088,9.352,9.352,0,0,1,1.643-2.923,2.693,2.693,0,0,1,1.354-.847,1.9,1.9,0,0,1,1.525.325l-.171.1c-1.459-15-2.839-26.433-3.9-34.1-.526-3.841-.986-6.735-1.3-8.67-.342-1.934-.5-2.923-.5-2.923Z" transform="translate(-350.494 -186.389)" fill="#263238"/>
          <g id="Grupo_81481" data-name="Grupo 81481" transform="translate(0 167.237)">
            <path id="Trazado_114740" data-name="Trazado 114740" d="M386.155,305.8c-1.92-1.228-4.476-1-6.594-.127a42.739,42.739,0,0,0-5.86,3.53c-5.606,3.474-12.214,4.843-18.681,6.171,2.5,3.163,6.608,4.7,10.618,4.97s8.02-.593,11.96-1.44a23.724,23.724,0,0,0,6.142-1.92,7.966,7.966,0,0,0,4.137-4.716c.565-2.076,0-5.634-1.934-6.594" transform="translate(-354.356 -304.778)" fill="#e0e0e0"/>
            <path id="Trazado_114741" data-name="Trazado 114741" d="M386.137,305.721a1.735,1.735,0,0,1,.692.41,4.44,4.44,0,0,1,1.2,1.949,8.4,8.4,0,0,1,.367,3.615,6.9,6.9,0,0,1-2.358,4.194,12.86,12.86,0,0,1-5.2,2.655c-2.019.551-4.18.988-6.481,1.468a36.644,36.644,0,0,1-7.328.791,18.068,18.068,0,0,1-7.752-1.709,12.4,12.4,0,0,1-4.363-3.445l-.367-.466.579-.113a85.846,85.846,0,0,0,12.75-3.276,33.789,33.789,0,0,0,5.126-2.358c1.539-.861,2.866-1.836,4.166-2.626a14.271,14.271,0,0,1,3.714-1.694,7.926,7.926,0,0,1,3.064-.226,5.749,5.749,0,0,1,1.85.565c.4.212.565.367.551.381a7.216,7.216,0,0,0-2.429-.678,8.159,8.159,0,0,0-2.937.339,13.928,13.928,0,0,0-3.558,1.737c-1.257.791-2.57,1.807-4.123,2.711a32.041,32.041,0,0,1-5.182,2.457,83.248,83.248,0,0,1-12.821,3.389l.212-.579a11.754,11.754,0,0,0,4.123,3.234,17.554,17.554,0,0,0,7.441,1.652,35.834,35.834,0,0,0,7.187-.734c4.5-.946,8.853-1.483,11.451-3.841a6.538,6.538,0,0,0,2.3-3.869,8.236,8.236,0,0,0-.226-3.474,4.824,4.824,0,0,0-1.031-1.934c-.353-.367-.607-.48-.593-.508Z" transform="translate(-354.55 -304.827)" fill="#263238"/>
          </g>
          <path id="Trazado_114742" data-name="Trazado 114742" d="M398.352,337.032a3.6,3.6,0,0,1,.1-1.13,6.819,6.819,0,0,1,1.5-2.866,11.679,11.679,0,0,1,4.166-2.979c1.807-.861,3.982-1.511,6.142-2.711a27.131,27.131,0,0,0,11.579-12.51,26.534,26.534,0,0,0,2.471-9.842l.042-1.327c0-.452-.042-.889-.056-1.341a12.132,12.132,0,0,0-.353-2.669c-.4-1.723-1.426-3.431-3.191-3.77-1.737-.353-3.615.254-5.422.551-1.822.353-3.6.72-5.337,1.158a33.428,33.428,0,0,0-9.475,3.784,19.214,19.214,0,0,0-6.509,6.4,31.39,31.39,0,0,0-2.824,7.554c-.635,2.429-1.356,4.561-1.864,6.481a23.19,23.19,0,0,1-1.821,4.773,7.506,7.506,0,0,1-2.1,2.457,3.38,3.38,0,0,1-.988.537,7.754,7.754,0,0,0,2.838-3.135,23.383,23.383,0,0,0,1.68-4.744c.48-1.92,1.172-4.081,1.765-6.5a30.561,30.561,0,0,1,2.8-7.724,19.576,19.576,0,0,1,6.679-6.665,34.065,34.065,0,0,1,9.658-3.911c1.751-.452,3.544-.819,5.366-1.186.918-.169,1.836-.339,2.768-.522a8.348,8.348,0,0,1,2.965-.028,4.278,4.278,0,0,1,2.542,1.652,7.214,7.214,0,0,1,1.2,2.669,13.686,13.686,0,0,1,.367,2.8c.014.466.057.918.057,1.384l-.042,1.37a27.158,27.158,0,0,1-2.57,10.1,27.434,27.434,0,0,1-11.946,12.68c-2.231,1.2-4.434,1.807-6.213,2.626a11.516,11.516,0,0,0-4.123,2.8,6.821,6.821,0,0,0-1.807,3.8Z" transform="translate(-342.252 -141.621)" fill="#455a64"/>
          <g id="Grupo_81482" data-name="Grupo 81482" transform="translate(52.205 159.146)" opacity="0.2">
            <path id="Trazado_114743" data-name="Trazado 114743" d="M414.733,300.245c-1.426-1.68-4.109-1.243-6.156-.409a27.411,27.411,0,0,0-16.591,30.457c5.083-3.812,12.906-6.523,17.721-10.661s5.775-9.644,5.916-16a4.9,4.9,0,0,0-.89-3.361Z" transform="translate(-391.522 -299.097)" fill="#fff"/>
          </g>
          <g id="Grupo_81483" data-name="Grupo 81483" transform="translate(333.648 102.147)" opacity="0.3">
            <path id="Trazado_114744" data-name="Trazado 114744" d="M609.236,258.73s-1.624,28.735,23.666,41.782,34.439,26.08,34.439,26.08,1.5-17.3-21.6-29.85c-3.276-1.779-5.987-4.321-8.6-5.7C621.337,282.635,616.325,280.433,609.236,258.73Z" transform="translate(-609.215 -258.73)"/>
          </g>
          <g id="Grupo_81484" data-name="Grupo 81484" transform="translate(186.68 87.942)" opacity="0.3">
            <path id="Trazado_114745" data-name="Trazado 114745" d="M509.9,280.412c-1.765-11.692-4.66-24.287-13.838-31.742,6.241,17.269,7.766,34.213,7.1,52.569-.311,8.642.551,18.187-4.208,25.557,7.568-3.968,9.927-12.5,11.564-20.884s.65-17.043-.635-25.487Z" transform="translate(-496.06 -248.67)"/>
          </g>
        </g>
      </g>
    </g>
  </g>
</svg>
